<svg xmlns="http://www.w3.org/2000/svg" width="561.453" height="550.371" viewBox="0 0 561.453 550.371">
  <g id="Insurance-pana" transform="translate(-22.958 -28.38)">
    <g id="freepik--background-complete--inject-42" transform="translate(22.958 28.38)">
      <rect id="Rectángulo_33071" data-name="Rectángulo 33071" width="111.552" height="212.854" rx="5.21" transform="translate(0 268.662) rotate(-26.88)" fill="#ebebeb"/>
      <circle id="Elipse_4613" data-name="Elipse 4613" cx="8.147" cy="8.147" r="8.147" transform="matrix(0.83, -0.558, 0.558, 0.83, 33.086, 286.597)" fill="#fafafa"/>
      <circle id="Elipse_4614" data-name="Elipse 4614" cx="8.172" cy="8.172" r="8.172" transform="matrix(0.937, -0.349, 0.349, 0.937, 76.969, 263.208)" fill="#fafafa"/>
      <path id="Trazado_148021" data-name="Trazado 148021" d="M83.553,290.1a8.147,8.147,0,1,1-10.959-3.582A8.148,8.148,0,0,1,83.553,290.1Z" transform="translate(-11.94 34.361)" fill="#fafafa"/>
      <circle id="Elipse_4615" data-name="Elipse 4615" cx="8.147" cy="8.147" r="8.147" transform="translate(98.226 314.559) rotate(-88.06)" fill="#fafafa"/>
      <path id="Trazado_148022" data-name="Trazado 148022" d="M99.569,321.708a8.147,8.147,0,1,1-10.959-3.533A8.147,8.147,0,0,1,99.569,321.708Z" transform="translate(-8.029 42.08)" fill="#fafafa"/>
      <path id="Trazado_148023" data-name="Trazado 148023" d="M133.582,304.475a8.147,8.147,0,1,1-10.946-3.582,8.148,8.148,0,0,1,10.946,3.582Z" transform="translate(0.263 37.868)" fill="#fafafa"/>
      <path id="Trazado_148024" data-name="Trazado 148024" d="M115.6,353.338a8.147,8.147,0,1,1-4.734-4.07A8.147,8.147,0,0,1,115.6,353.338Z" transform="translate(-4.124 49.782)" fill="#fafafa"/>
      <path id="Trazado_148025" data-name="Trazado 148025" d="M149.613,336.1a8.147,8.147,0,1,1-10.959-3.582,8.147,8.147,0,0,1,10.959,3.582Z" transform="translate(4.172 45.58)" fill="#fafafa"/>
      <path id="Trazado_148026" data-name="Trazado 148026" d="M61.5,254.61a47.267,47.267,0,0,1-2.177,7.364,47.118,47.118,0,0,1-2.774,7.152,45.165,45.165,0,0,1,2.164-7.364A44.891,44.891,0,0,1,61.5,254.61Z" transform="translate(-14.765 26.795)" fill="#e0e0e0"/>
      <path id="Trazado_148027" data-name="Trazado 148027" d="M94.761,237.44A44.407,44.407,0,0,1,92.6,244.8a45.353,45.353,0,0,1-2.786,7.165,45.25,45.25,0,0,1,2.177-7.364,47.63,47.63,0,0,1,2.774-7.165Z" transform="translate(-6.653 22.607)" fill="#e0e0e0"/>
      <path id="Trazado_148028" data-name="Trazado 148028" d="M77.692,286.18a47.079,47.079,0,0,1-1.754,7.662,46.917,46.917,0,0,1-2.388,7.463,47.019,47.019,0,0,1,1.8-7.637,48.275,48.275,0,0,1,2.339-7.488Z" transform="translate(-10.619 34.495)" fill="#e0e0e0"/>
      <path id="Trazado_148029" data-name="Trazado 148029" d="M111.123,268.93a43.612,43.612,0,0,1-1.406,7.463,43.659,43.659,0,0,1-2.028,7.264,44.012,44.012,0,0,1,1.393-7.463,45.24,45.24,0,0,1,2.04-7.264Z" transform="translate(-2.293 30.288)" fill="#e0e0e0"/>
      <path id="Trazado_148030" data-name="Trazado 148030" d="M92.574,317.81a39.914,39.914,0,0,1-1.6,7.016,40.736,40.736,0,0,1-2.239,6.854,39.344,39.344,0,0,1,1.617-7.016A40.092,40.092,0,0,1,92.574,317.81Z" transform="translate(-6.917 42.209)" fill="#e0e0e0"/>
      <path id="Trazado_148031" data-name="Trazado 148031" d="M127.748,301a40.24,40.24,0,0,1-2.164,6.978,42.812,42.812,0,0,1-2.774,6.767,40.243,40.243,0,0,1,2.164-6.978A43.453,43.453,0,0,1,127.748,301Z" transform="translate(1.395 38.109)" fill="#e0e0e0"/>
      <path id="Trazado_148032" data-name="Trazado 148032" d="M109.936,349.76a46.632,46.632,0,0,1-2.351,7.264,45.848,45.848,0,0,1-2.985,7.028,44.332,44.332,0,0,1,2.376-7.252A43.6,43.6,0,0,1,109.936,349.76Z" transform="translate(-3.046 50.001)" fill="#e0e0e0"/>
      <path id="Trazado_148033" data-name="Trazado 148033" d="M143.455,331.47a52.246,52.246,0,0,1-1.717,8.135,53.049,53.049,0,0,1-2.339,7.973,54.02,54.02,0,0,1,1.717-8.135A53.05,53.05,0,0,1,143.455,331.47Z" transform="translate(5.441 45.54)" fill="#e0e0e0"/>
      <path id="Trazado_148034" data-name="Trazado 148034" d="M170.21,351.641c.075.162-12.862,6.879-28.9,15s-29.107,14.591-29.194,14.442,12.862-6.879,28.9-15.014S170.123,351.479,170.21,351.641Z" transform="translate(-1.212 50.459)" fill="#e0e0e0"/>
      <path id="Trazado_148035" data-name="Trazado 148035" d="M102.72,225c.075.162-12.862,6.879-28.9,15.014S44.717,254.606,44.63,254.444s12.9-6.941,28.9-15.076S102.633,224.777,102.72,225Z" transform="translate(-17.673 19.572)" fill="#e0e0e0"/>
      <path id="Trazado_148036" data-name="Trazado 148036" d="M69.683,243.409a.522.522,0,0,1-.224,0h-.1l.572-.3h0a.313.313,0,0,1-.2.336c-.2.087-.323.062-.373,0h0l.572-.3h0a.311.311,0,0,1,0,.087A.485.485,0,0,1,69.683,243.409Z" transform="translate(-11.641 23.99)" fill="#e0e0e0"/>
      <path id="Trazado_148037" data-name="Trazado 148037" d="M149.632,395.159c-.162.087-18.322-35.438-40.563-79.31S68.928,236.315,69.09,236.24s18.31,35.4,40.563,79.31S149.831,395.072,149.632,395.159Z" transform="translate(-11.707 22.315)" fill="#e0e0e0"/>
      <path id="Trazado_148038" data-name="Trazado 148038" d="M36.969,391.812c-.149,27.863-.249,72.855-.3,93.528A11.046,11.046,0,0,0,47.678,496.41l76.114.348A11.071,11.071,0,0,0,134.9,485.75l.423-92.707a24.567,24.567,0,0,0-24.442-24.666h0V354.694l-49.843-.224v12.887h-.187a24.542,24.542,0,0,0-23.883,24.455Z" transform="translate(-19.614 51.15)" fill="#f5f5f5"/>
      <path id="Trazado_148039" data-name="Trazado 148039" d="M56.317,355.9l-.037,6.207,49.83,1.99.05-7.973Z" transform="translate(-14.831 51.499)" fill="#e0e0e0"/>
      <path id="Trazado_148040" data-name="Trazado 148040" d="M3.719,0H57.766A3.732,3.732,0,0,1,61.5,3.732V22.39a2.4,2.4,0,0,1-2.4,2.4H2.4A2.4,2.4,0,0,1,0,22.39V3.732A3.732,3.732,0,0,1,3.732,0Z" transform="translate(35.863 386.615) rotate(0.26)" fill="#f5f5f5"/>
      <path id="Trazado_148041" data-name="Trazado 148041" d="M58.118,364.019c-.361,0-.634-5.523-.6-12.314s.348-12.315.709-12.315.634,5.51.6,12.315S58.5,364.019,58.118,364.019Z" transform="translate(-14.529 47.472)" fill="#e0e0e0"/>
      <path id="Trazado_148042" data-name="Trazado 148042" d="M63.418,364.039c-.361,0-.634-5.51-.6-12.314s.348-12.315.709-12.315.634,5.523.6,12.327S63.778,364.039,63.418,364.039Z" transform="translate(-13.237 47.477)" fill="#e0e0e0"/>
      <path id="Trazado_148043" data-name="Trazado 148043" d="M68.7,364.069c-.361,0-.634-5.523-.6-12.315s.348-12.315.709-12.315.634,5.51.6,12.315S69.058,364.069,68.7,364.069Z" transform="translate(-11.949 47.484)" fill="#e0e0e0"/>
      <path id="Trazado_148044" data-name="Trazado 148044" d="M73.978,364.089c-.361,0-.634-5.51-.6-12.315s.348-12.315.709-12.315.634,5.523.6,12.315S74.338,364.089,73.978,364.089Z" transform="translate(-10.661 47.489)" fill="#e0e0e0"/>
      <path id="Trazado_148045" data-name="Trazado 148045" d="M79.258,364.119c-.361,0-.634-5.523-.6-12.327s.348-12.314.709-12.3.634,5.51.6,12.315S79.618,364.119,79.258,364.119Z" transform="translate(-9.374 47.496)" fill="#e0e0e0"/>
      <path id="Trazado_148046" data-name="Trazado 148046" d="M84.538,364.139c-.361,0-.634-5.523-.6-12.314s.348-12.315.709-12.315.634,5.51.6,12.315S84.9,364.139,84.538,364.139Z" transform="translate(-8.086 47.501)" fill="#e0e0e0"/>
      <path id="Trazado_148047" data-name="Trazado 148047" d="M89.818,364.159c-.361,0-.634-5.51-.6-12.314s.348-12.315.709-12.315.634,5.523.6,12.327S90.191,364.171,89.818,364.159Z" transform="translate(-6.798 47.506)" fill="#e0e0e0"/>
      <path id="Trazado_148048" data-name="Trazado 148048" d="M95.118,364.189c-.361,0-.634-5.523-.6-12.315s.348-12.315.709-12.315.634,5.51.6,12.315S95.454,364.189,95.118,364.189Z" transform="translate(-5.505 47.513)" fill="#e0e0e0"/>
      <rect id="Rectángulo_33072" data-name="Rectángulo 33072" width="71.412" height="47.23" rx="1.48" transform="translate(31.229 456.438) rotate(0.26)" fill="#ebebeb"/>
      <path id="Trazado_148049" data-name="Trazado 148049" d="M113.851,439.174a4.241,4.241,0,0,1,0-.784v-2.2c0-2.028,0-4.8-.087-8.284,0-7.215-.087-17.414-.137-29.729l.51.522-62.58-.149.647-.647h0v10.772c0,3.545,0,7.04-.062,10.474,0,6.854-.087,13.459-.124,19.74l-.6-.609,44.9.5,12.949.224,3.483.087,1.244.075a6.036,6.036,0,0,1-1.119.075h-3.358l-12.812.112-45.315.087h-.6v-41.6h0c-.585.585.8-.8.659-.647l62.593.41h.473v.6c-.162,12.439-.311,22.763-.41,30.052,0,3.433-.124,6.219-.162,8.172a17.35,17.35,0,0,1-.075,2.1,3.011,3.011,0,0,1-.025.647Z" transform="translate(-16.203 61.567)" fill="#e0e0e0"/>
      <path id="Trazado_148050" data-name="Trazado 148050" d="M102.111,408.758c0,.373-9.528.622-21.27.56s-21.271-.386-21.271-.746,9.528-.609,21.283-.56S102.111,408.4,102.111,408.758Z" transform="translate(-14.029 64.206)" fill="#e0e0e0"/>
      <path id="Trazado_148051" data-name="Trazado 148051" d="M102.079,414.58c0,.361-9.516.609-21.271.56s-21.258-.4-21.258-.759,9.516-.609,21.271-.56S102.091,414.219,102.079,414.58Z" transform="translate(-14.034 65.623)" fill="#e0e0e0"/>
      <path id="Trazado_148052" data-name="Trazado 148052" d="M102.061,420.148c0,.361-9.528.609-21.271.56s-21.271-.386-21.271-.746,9.528-.609,21.271-.56S102.061,419.8,102.061,420.148Z" transform="translate(-14.041 66.984)" fill="#e0e0e0"/>
      <path id="Trazado_148053" data-name="Trazado 148053" d="M103.1,365.451c0,.361-10.386.6-23.211.547s-23.211-.4-23.211-.759,10.4-.609,23.223-.547S103.1,365.077,103.1,365.451Z" transform="translate(-14.734 53.641)" fill="#e0e0e0"/>
      <path id="Trazado_148054" data-name="Trazado 148054" d="M40.068,476.069a25.823,25.823,0,0,1-.224-4.391c0-3.048-.075-7.078-.124-11.966,0-10.1,0-24.057.112-39.469.075-7.7.149-15.026.211-21.731s.734-12.874,2.96-17.576a19.292,19.292,0,0,1,7.936-8.981A13.872,13.872,0,0,1,54,370.712a4.155,4.155,0,0,1,1.144-.162,28.4,28.4,0,0,0-3.881,1.8A19.492,19.492,0,0,0,43.8,381.31c-1.978,4.553-2.488,10.573-2.488,17.166s-.075,14.031-.112,21.731c-.112,15.412-.3,29.368-.485,39.456-.124,4.888-.224,8.931-.3,11.966a29.056,29.056,0,0,1-.348,4.441Z" transform="translate(-18.87 55.072)" fill="#fff"/>
      <path id="Trazado_148055" data-name="Trazado 148055" d="M130.185,467.888a20.15,20.15,0,0,1-3.421-1.082c-1.07-.4-2.388-.871-3.956-1.331s-3.309-1.095-5.3-1.58a121.892,121.892,0,0,0-14.044-3.01,132.8,132.8,0,0,0-17.526-1.368A129.862,129.862,0,0,0,68.4,460.76a122.721,122.721,0,0,0-14.081,2.873c-1.99.473-3.732,1.07-5.311,1.53s-2.886.908-3.968,1.306a19.112,19.112,0,0,1-3.421,1.045,18.461,18.461,0,0,1,3.234-1.53c1.057-.46,2.363-1,3.918-1.505s3.3-1.244,5.3-1.741a108.218,108.218,0,0,1,14.143-3.147,122.037,122.037,0,0,1,17.713-1.331,121.048,121.048,0,0,1,17.713,1.48,110.48,110.48,0,0,1,14.118,3.309c1.99.547,3.732,1.244,5.274,1.779s2.861,1.082,3.906,1.555a18.261,18.261,0,0,1,3.247,1.505Z" transform="translate(-18.407 76.463)" fill="#fff"/>
      <path id="Trazado_148056" data-name="Trazado 148056" d="M487.208,149.74c-1.406-8.222-8.769-15.611-17.091-15.238a18.36,18.36,0,0,0-12.688,6.767,33.385,33.385,0,0,0-3.1,4.055,33.8,33.8,0,0,0-2.674-4.354,18.2,18.2,0,0,0-11.892-8.06c-8.247-1.244-16.332,5.311-18.658,13.334s.348,16.8,4.976,23.721,12.551,15.884,26.507,19.9c9.416-1.654,21.718-10.648,27.079-17.029S488.613,157.937,487.208,149.74Z" transform="translate(73.938 -2.923)" fill="#ebebeb"/>
      <path id="Trazado_148057" data-name="Trazado 148057" d="M484.573,161.37h-1.082l-3.1-.112-11.382-.51.2-.137c-1.244,3.62-2.612,7.874-4.155,12.526l-.249.759-.224-.771c-1.717-5.908-3.632-12.526-5.66-19.492-.622-2.164-1.244-4.291-1.841-6.356l.485.062-8.1,12.3-.075.112h-.137L429.245,158.6l-5.672-.373-1.493-.112a4.187,4.187,0,0,1-.51-.062h2.015l5.672.224,20.027.958-.224.112,8.06-12.315.323-.5.162.56c.6,2.077,1.244,4.2,1.841,6.369,2,6.978,3.918,13.6,5.61,19.5h-.473l4.254-12.439v-.149h.149l11.369.684,3.085.224h.809a1.071,1.071,0,0,1,.323.087Z" transform="translate(74.259 0.436)" fill="#fafafa"/>
      <path id="Trazado_148058" data-name="Trazado 148058" d="M362.29,210.841a3.421,3.421,0,0,1,.485-.348l1.455-.958a22.624,22.624,0,0,0,2.314-1.617,36.613,36.613,0,0,0,3.01-2.4L371.271,204c.572-.56,1.169-1.169,1.779-1.791a26.92,26.92,0,0,0,1.866-2.028c.61-.734,1.306-1.455,1.891-2.3A53.487,53.487,0,0,0,383.9,185.9a52.889,52.889,0,0,0,4.155-16.32,51.527,51.527,0,0,0,0-9.391,94.026,94.026,0,0,0-1.7-9.852c-1.418-6.667-3.3-13.807-2.724-21.382s3.582-14.927,7.588-21.805,8.707-13.185,14.566-17.987a36,36,0,0,1,9.478-5.7,41.522,41.522,0,0,1,10.287-2.488,124.763,124.763,0,0,1,19.529-.311,89.049,89.049,0,0,0,16.855-.721,33.884,33.884,0,0,0,13.011-4.677,25.574,25.574,0,0,0,7.65-7.19,18.843,18.843,0,0,0,2.811-6c.386-1.468.46-2.276.51-2.264a13.117,13.117,0,0,1-.373,2.3,18.31,18.31,0,0,1-2.724,6.107,25.536,25.536,0,0,1-7.613,7.339,34.07,34.07,0,0,1-13.148,4.826,87.718,87.718,0,0,1-16.991.784,128.305,128.305,0,0,0-19.43.373A41.682,41.682,0,0,0,415.5,84.039a35.414,35.414,0,0,0-9.292,5.61c-5.747,4.714-10.386,11.021-14.4,17.8s-6.941,14.093-7.463,21.507,1.244,14.5,2.674,21.208a93.3,93.3,0,0,1,1.679,9.951,50.625,50.625,0,0,1,0,9.516,53.339,53.339,0,0,1-4.379,16.469,54.293,54.293,0,0,1-7.239,12.028,23.136,23.136,0,0,1-1.928,2.289c-.684.734-1.244,1.418-1.891,2.028l-1.816,1.779-1.754,1.505a35.563,35.563,0,0,1-3.06,2.363,21.266,21.266,0,0,1-2.363,1.567l-1.493.9a3.015,3.015,0,0,1-.485.286Z" transform="translate(59.801 -20.712)" fill="#e0e0e0"/>
      <path id="Trazado_148059" data-name="Trazado 148059" d="M335.11,184.861s.075-.2.249-.56.46-.933.8-1.617.883-1.53,1.468-2.488a30.35,30.35,0,0,1,2.289-3.271,45.7,45.7,0,0,1,7.638-7.824,46.223,46.223,0,0,1,12.513-7.252,48.038,48.038,0,0,1,8.135-2.276,61.163,61.163,0,0,1,9.118-.833c6.307-.187,13.048.336,20.089-.087a48.9,48.9,0,0,0,10.635-1.791,46.385,46.385,0,0,0,10.312-4.466,52.244,52.244,0,0,0,17.029-16.171,59.221,59.221,0,0,0,8.707-21.917,71.6,71.6,0,0,0,.6-22.029c-.883-7-2.587-13.534-3.57-19.778a50.217,50.217,0,0,1-.249-17.526,37.466,37.466,0,0,1,5.448-13.384,38.3,38.3,0,0,1,7.215-8.21,39.912,39.912,0,0,1,5.672-3.943l1.6-.809.56-.249-.522.311-1.567.871a41.612,41.612,0,0,0-5.573,4.03,38.658,38.658,0,0,0-7.065,8.21,37.628,37.628,0,0,0-5.311,13.26,50.206,50.206,0,0,0,.336,17.34c1,6.219,2.724,12.725,3.645,19.79a72.144,72.144,0,0,1-.572,22.241,59.556,59.556,0,0,1-8.769,22.166A52.741,52.741,0,0,1,418.7,152.993a47.166,47.166,0,0,1-10.474,4.515,48.884,48.884,0,0,1-10.772,1.8c-7.115.41-13.845-.137-20.126,0a61.422,61.422,0,0,0-9.031.8A45.8,45.8,0,0,0,340.123,177.1c-.945,1.144-1.654,2.276-2.326,3.209a24.494,24.494,0,0,0-1.518,2.488c-.386.684-.647,1.244-.858,1.567S335.11,184.861,335.11,184.861Z" transform="translate(53.173 -28.38)" fill="#e0e0e0"/>
      <path id="Trazado_148060" data-name="Trazado 148060" d="M424.18,38.66a12.82,12.82,0,0,1,1.916,1.107c1.244.746,2.911,1.878,4.976,3.321a192.43,192.43,0,0,1,30.065,25.848c1.729,1.853,3.11,3.371,4.03,4.453a13.061,13.061,0,0,1,1.381,1.766A14.416,14.416,0,0,1,465,73.588c-1.082-1.095-2.488-2.488-4.192-4.3-3.557-3.607-8.6-8.471-14.454-13.509s-11.406-9.3-15.511-12.277l-4.876-3.508a13.79,13.79,0,0,1-1.791-1.331Z" transform="translate(74.896 -25.873)" fill="#e0e0e0"/>
      <path id="Trazado_148061" data-name="Trazado 148061" d="M420.23,49.34a12.125,12.125,0,0,1,1.418,1.244l3.732,3.582c3.147,3.023,7.55,7.127,12.588,11.481s9.74,8.1,13.2,10.772l4.08,3.159a10.374,10.374,0,0,1,1.468,1.244,9.816,9.816,0,0,1-1.617-1c-1.02-.684-2.488-1.7-4.229-2.985-3.533-2.575-8.309-6.219-13.359-10.635s-9.416-8.546-12.439-11.655c-1.53-1.567-2.749-2.849-3.57-3.732a8.709,8.709,0,0,1-1.269-1.48Z" transform="translate(73.932 -23.268)" fill="#e0e0e0"/>
      <path id="Trazado_148062" data-name="Trazado 148062" d="M421.55,62.45a22.053,22.053,0,0,1,3.2,2.351c1.916,1.518,4.515,3.732,7.327,6.219s5.286,4.789,7.04,6.493A20.279,20.279,0,0,1,441.85,80.4a24.8,24.8,0,0,1-3.072-2.488l-7.165-6.319-7.177-6.319A22.391,22.391,0,0,1,421.55,62.45Z" transform="translate(74.254 -20.071)" fill="#e0e0e0"/>
      <path id="Trazado_148063" data-name="Trazado 148063" d="M411.62,78.19a14.066,14.066,0,0,1,2.426,1.779l5.66,4.515,5.722,4.453a13.071,13.071,0,0,1,2.3,1.953,12.6,12.6,0,0,1-2.587-1.555c-1.542-1.032-3.632-2.488-5.859-4.291s-4.192-3.433-5.56-4.689A11.883,11.883,0,0,1,411.62,78.19Z" transform="translate(71.833 -16.232)" fill="#e0e0e0"/>
      <path id="Trazado_148064" data-name="Trazado 148064" d="M399.83,83c.075-.075,1.542,1.356,3.98,3.57s5.871,5.137,9.914,8.185,7.8,5.573,10.586,7.339a52.894,52.894,0,0,1,4.49,2.886,6.566,6.566,0,0,1-1.319-.585c-.821-.41-2-1.057-3.433-1.878a109.142,109.142,0,0,1-10.747-7.2,105.154,105.154,0,0,1-9.789-8.446c-1.182-1.157-2.115-2.127-2.724-2.811A5.15,5.15,0,0,1,399.83,83Z" transform="translate(68.957 -15.059)" fill="#e0e0e0"/>
      <path id="Trazado_148065" data-name="Trazado 148065" d="M392.35,91.911c.112-.162,7.364,5.2,16.171,11.966s15.872,12.364,15.748,12.514-7.351-5.2-16.171-11.966S392.238,92.023,392.35,91.911Z" transform="translate(67.132 -12.886)" fill="#e0e0e0"/>
      <path id="Trazado_148066" data-name="Trazado 148066" d="M383.3,100a7.974,7.974,0,0,1,1.406,1.02l3.732,2.948c3.135,2.488,7.463,5.921,12.364,9.59s9.379,6.879,12.65,9.18l3.881,2.749a8.225,8.225,0,0,1,1.368,1.07,8.707,8.707,0,0,1-1.518-.846c-.97-.585-2.339-1.455-4.005-2.562-3.346-2.2-7.911-5.361-12.8-9.031s-9.2-7.165-12.252-9.765c-1.53-1.244-2.749-2.363-3.582-3.122A8.061,8.061,0,0,1,383.3,100Z" transform="translate(64.926 -10.913)" fill="#e0e0e0"/>
      <path id="Trazado_148067" data-name="Trazado 148067" d="M380.56,111.721c.112-.162,6.219,4.391,13.745,10.15s13.434,10.561,13.31,10.71-6.219-4.391-13.745-10.15S380.436,111.87,380.56,111.721Z" transform="translate(64.257 -8.055)" fill="#e0e0e0"/>
      <path id="Trazado_148068" data-name="Trazado 148068" d="M378,123.91a64.371,64.371,0,0,1,8,4.976,64.764,64.764,0,0,1,7.625,5.51,62.19,62.19,0,0,1-8.011-4.976A61.148,61.148,0,0,1,378,123.91Z" transform="translate(63.633 -5.081)" fill="#e0e0e0"/>
      <path id="Trazado_148069" data-name="Trazado 148069" d="M365.33,135.57a23.712,23.712,0,0,1,3.595,2.04c2.164,1.356,5.112,3.3,8.272,5.56s5.958,4.441,7.924,6.045a21.33,21.33,0,0,1,3.085,2.761,27.019,27.019,0,0,1-3.383-2.363c-2.052-1.518-4.876-3.607-8.036-5.871s-6.033-4.267-8.123-5.722A24.765,24.765,0,0,1,365.33,135.57Z" transform="translate(60.543 -2.238)" fill="#e0e0e0"/>
      <path id="Trazado_148070" data-name="Trazado 148070" d="M354.31,135.78a7.662,7.662,0,0,1,1.443.983c.908.672,2.189,1.679,3.732,2.936,3.135,2.488,7.389,6.1,11.929,10.225s8.5,8.036,11.294,10.921c1.406,1.443,2.488,2.637,3.271,3.47a8.57,8.57,0,0,1,1.107,1.343,8.188,8.188,0,0,1-1.306-1.157l-3.421-3.3c-2.886-2.8-6.891-6.63-11.419-10.76s-8.707-7.762-11.767-10.374l-3.607-3.1a8.519,8.519,0,0,1-1.256-1.194Z" transform="translate(57.855 -2.186)" fill="#e0e0e0"/>
      <path id="Trazado_148071" data-name="Trazado 148071" d="M345.06,144a10.361,10.361,0,0,1,1.567,1.095c.97.746,2.363,1.829,4.068,3.2,3.421,2.737,8.085,6.58,13.148,10.934s9.578,8.371,12.8,11.332c1.617,1.48,2.9,2.7,3.732,3.545a9.466,9.466,0,0,1,1.318,1.381,11.1,11.1,0,0,1-1.505-1.182l-3.918-3.371c-3.408-2.948-7.936-6.854-12.924-11.2l-13.011-11.071-3.881-3.421A10.152,10.152,0,0,1,345.06,144Z" transform="translate(55.599 -0.182)" fill="#e0e0e0"/>
      <path id="Trazado_148072" data-name="Trazado 148072" d="M331.161,42.1a18.833,18.833,0,0,1,6.792,13.073,33.2,33.2,0,0,1-2.326,14.84c-3.408,9.167-11.195,17.34-18.783,23.435-6.219-8.894-4.976-21.445-4.03-27.764,1.58-9.951,10.511-27.1,18.385-23.634" transform="translate(47.544 -25.157)" fill="#f5f5f5"/>
      <path id="Trazado_148073" data-name="Trazado 148073" d="M320.17,100.72a16.059,16.059,0,0,1,8.707-13.558,21.308,21.308,0,0,1,16.469-.92c2.488.821,4.976,2.239,5.958,4.677a6.891,6.891,0,0,1-1.58,6.779,13.993,13.993,0,0,1-6.219,3.732c-7.948,2.6-16.171,3.657-23.323-.609" transform="translate(49.529 -14.569)" fill="#f5f5f5"/>
      <path id="Trazado_148074" data-name="Trazado 148074" d="M308.25,118.4a31.643,31.643,0,0,1,2.612-5.921,30.139,30.139,0,0,1,3.993-5.821,66.118,66.118,0,0,1,5.909-6.219,32.167,32.167,0,0,1,13.683-7.463,23.909,23.909,0,0,1,4.727-.609,5.038,5.038,0,0,1,1.741.149c0,.2-2.488.137-6.219,1.244a34.58,34.58,0,0,0-13.16,7.588,76.271,76.271,0,0,0-5.884,6.12,33.675,33.675,0,0,0-4.08,5.548,47.859,47.859,0,0,1-3.321,5.386Z" transform="translate(46.622 -12.78)" fill="#e0e0e0"/>
      <path id="Trazado_148075" data-name="Trazado 148075" d="M326.755,53a18.758,18.758,0,0,1-.473,3.234c-.373,2.077-.958,5.063-1.7,8.707-1.505,7.364-3.732,17.514-6.369,28.609s-5.423,21.146-7.538,28.4c-1.057,3.607-1.953,6.518-2.612,8.508a17.528,17.528,0,0,1-1.119,3.072,18.571,18.571,0,0,1,.709-3.184c.585-2.227,1.356-5.125,2.276-8.608,1.928-7.264,4.528-17.3,7.215-28.448l6.68-28.609c.833-3.508,1.518-6.418,2.04-8.707A19.246,19.246,0,0,1,326.755,53Z" transform="translate(46.302 -22.375)" fill="#e0e0e0"/>
      <path id="Trazado_148076" data-name="Trazado 148076" d="M315.3,104.318a37.578,37.578,0,0,0-17.477-29.542c-2.575-1.592-6.033-2.824-8.483-1.032S287,79.216,287.8,82.14a32.055,32.055,0,0,0,27.229,22.95" transform="translate(41.51 -17.532)" fill="#f5f5f5"/>
      <path id="Trazado_148077" data-name="Trazado 148077" d="M296.57,81.49a10.849,10.849,0,0,1,1.43.945c.871.659,2.115,1.692,3.595,3a42.64,42.64,0,0,1,9.566,12.14,26.569,26.569,0,0,1,2.488,8.21,25.8,25.8,0,0,1-.124,7,25.256,25.256,0,0,1-1.144,4.565,5.72,5.72,0,0,1-.672,1.58c-.211,0,.6-2.376,1.045-6.219a27.752,27.752,0,0,0-.112-6.767,27.018,27.018,0,0,0-2.488-7.861,47.977,47.977,0,0,0-9.118-12.066,53.585,53.585,0,0,1-4.466-4.528Z" transform="translate(43.773 -15.427)" fill="#e0e0e0"/>
    </g>
    <g id="freepik--Device--inject-42" transform="translate(129.027 122.853)">
      <rect id="Rectángulo_33073" data-name="Rectángulo 33073" width="317.254" height="455.288" rx="11.55" fill="#263238"/>
      <rect id="Rectángulo_33074" data-name="Rectángulo 33074" width="297.24" height="380.22" transform="translate(9.852 32.478)" fill="#fff"/>
      <path id="Trazado_148078" data-name="Trazado 148078" d="M250.315,454.388a12.165,12.165,0,1,1-3.559-8.61A12.178,12.178,0,0,1,250.315,454.388Z" transform="translate(-79.517 -21.925)" fill="#455a64"/>
      <rect id="Rectángulo_33075" data-name="Rectángulo 33075" width="95.556" height="5.025" rx="1.22" transform="translate(110.855 13.111)" fill="#455a64"/>
      <rect id="Rectángulo_33076" data-name="Rectángulo 33076" width="236.799" height="39.979" transform="translate(43.151 62.182)" fill="#7e5ee3"/>
      <path id="Trazado_148088" data-name="Trazado 148088" d="M385.624,231.048v-2.7c0-1.816,0-4.565-.062-8.322l.1.1c-29.443.137-126.989.224-242.558.224h0l.323-.323v11.021l-.323-.323,171.843.137,51.758.1h.112l-51.684.1-172.08.137h-.323V219.53h.336c115.595,0,213.14.1,242.558.236h0v11.282Z" transform="translate(-99.816 -76.234)" fill="#263238"/>
      <path id="Trazado_148089" data-name="Trazado 148089" d="M187.686,207.973c0,.187-10.66.323-23.808.323s-23.808-.137-23.808-.323,10.66-.323,23.808-.323S187.686,207.8,187.686,207.973Z" transform="translate(-100.465 -79.131)" fill="#263238"/>
      <path id="Trazado_148090" data-name="Trazado 148090" d="M382.7,366.491V355.47l.087.087c-29.443.137-126.976.236-242.558.236h0l.323-.323v11.021l-.323-.323,171.831.124,51.771.1h.112l-51.684.1-172.08.137h-.323V354.96h.336c115.595,0,213.128.1,242.558.236h.1v.087c0,3.732,0,6.53-.062,8.371v2A4.086,4.086,0,0,1,382.7,366.491Z" transform="translate(-100.516 -43.204)" fill="#263238"/>
      <path id="Trazado_148091" data-name="Trazado 148091" d="M189.406,346.523c0,.187-10.66.323-23.808.323s-23.808-.137-23.808-.323,10.66-.323,23.808-.323S189.406,346.349,189.406,346.523Z" transform="translate(-100.045 -45.341)" fill="#263238"/>
      <path id="Trazado_148092" data-name="Trazado 148092" d="M382.7,264.9V253.89l.087.087c-29.443.137-126.976.236-242.558.236h0l.323-.323V264.9l-.323-.323,171.831.137,51.771.1h.112l-51.684.1-172.08.124h-.323V253.38h.336c115.595,0,213.128.1,242.558.236h.1v.087c0,3.732,0,6.53-.062,8.359v2.015A3.885,3.885,0,0,1,382.7,264.9Z" transform="translate(-100.516 -67.978)" fill="#263238"/>
      <path id="Trazado_148093" data-name="Trazado 148093" d="M187.686,244.943c0,.187-10.66.323-23.808.323s-23.808-.137-23.808-.323,10.66-.323,23.808-.323S187.686,244.769,187.686,244.943Z" transform="translate(-100.465 -70.115)" fill="#263238"/>
      <path id="Trazado_148094" data-name="Trazado 148094" d="M243.27,298.758V295.9c0-1.878,0-4.615-.075-8.16l.137.137c-17.924.112-57.406.187-103.168.187h0c.149-.137-.323.323.323-.323h0v10.984l-.323-.323,73.215.137,21.9.1h.162l-21.843.1-73.389.137h-.323V287.563h0l.323-.323h0c45.763,0,85.244.075,103.168.187h.137v.137c0,3.582-.062,6.344-.087,8.235v2.1A2.3,2.3,0,0,1,243.27,298.758Z" transform="translate(-100.508 -59.72)" fill="#263238"/>
      <path id="Trazado_148095" data-name="Trazado 148095" d="M187.686,278.8c0,.174-10.66.323-23.808.323s-23.808-.149-23.808-.323,10.66-.323,23.808-.323S187.686,278.617,187.686,278.8Z" transform="translate(-100.465 -61.857)" fill="#263238"/>
      <path id="Trazado_148096" data-name="Trazado 148096" d="M157.284,330.912a5.745,5.745,0,0,1,0-.821c0-.6,0-1.343-.062-2.239,0-2-.087-4.7-.137-7.948l.249.249-17.166.075c-.075,0,.61-.622.323-.323h0v11l-.3-.3c4.976,0,9.23.087,12.277.149l3.57.087a12.033,12.033,0,0,1,1.318.062,6.706,6.706,0,0,1-1.244.075l-3.508.075c-3.023.062-7.351.124-12.439.149h-.3V319.9h0l.323-.323,17.166.062h.261v.261c0,3.421-.087,6.219-.137,8.11,0,.871,0,1.592-.062,2.177a2.774,2.774,0,0,1-.137.721Z" transform="translate(-100.513 -51.833)" fill="#263238"/>
      <path id="Trazado_148097" data-name="Trazado 148097" d="M175.529,330.913a5.743,5.743,0,0,1,0-.821q0-.9-.075-2.239c0-2-.075-4.7-.137-7.948l.261.249-17.166.075c-.075,0,.61-.622.323-.323h0v11l-.3-.3c4.976,0,9.23.087,12.265.149l3.57.087a12.154,12.154,0,0,1,1.331.062,6.877,6.877,0,0,1-1.244.075l-3.508.075c-3.023.062-7.351.124-12.439.149h-.3V319.9h0c-.3.286.386-.4.323-.323l17.166.062h.261v.261c0,3.421-.087,6.219-.137,8.11v2.177a2.773,2.773,0,0,1-.2.721Z" transform="translate(-96.082 -51.834)" fill="#263238"/>
      <path id="Trazado_148098" data-name="Trazado 148098" d="M193.752,330.912a4.614,4.614,0,0,1-.062-.821c0-.6,0-1.343-.062-2.239,0-2-.075-4.7-.137-7.948l.261.249-17.178.075.323-.323h0v11l-.3-.3c4.976,0,9.242.087,12.277.149l3.57.087a12.45,12.45,0,0,1,1.331.062,6.964,6.964,0,0,1-1.244.075l-3.5.075c-3.023.062-7.364.124-12.439.149h-.3V319.9h0l.323-.323,17.178.062h.261v.261c0,3.421-.087,6.219-.124,8.11a18.576,18.576,0,0,1-.075,2.177,3.446,3.446,0,0,1-.112.721Z" transform="translate(-91.628 -51.833)" fill="#263238"/>
      <path id="Trazado_148099" data-name="Trazado 148099" d="M211.952,330.912v-3.06c0-2-.087-4.7-.137-7.948l.249.249-17.166.075c-.075,0,.61-.622.323-.323h0v11l-.3-.3c4.976,0,9.23.087,12.277.149l3.57.087a11.766,11.766,0,0,1,1.319.062,6.707,6.707,0,0,1-1.244.075l-3.508.075c-3.01.062-7.351.124-12.439.149h-.3V319.9h0l.323-.323,17.166.062h.261v.261c0,3.421-.087,6.219-.137,8.11,0,.871,0,1.592-.062,2.177a2.772,2.772,0,0,1-.2.721Z" transform="translate(-87.165 -51.833)" fill="#263238"/>
      <path id="Trazado_148100" data-name="Trazado 148100" d="M230.194,330.912a5.745,5.745,0,0,1,0-.821c0-.6,0-1.343-.075-2.239,0-2-.075-4.7-.124-7.948l.249.249-17.166.075c-.075,0,.609-.622.323-.323h0v11l-.3-.3c4.976,0,9.23.087,12.265.149l3.57.087a12.154,12.154,0,0,1,1.331.062,6.877,6.877,0,0,1-1.244.075l-3.508.075c-3.023.062-7.351.124-12.439.149h-.3V319.9h0l.323-.323,17.166.062h.2v.261c0,3.421-.087,6.219-.137,8.11v2.177a2.773,2.773,0,0,1-.137.721Z" transform="translate(-82.731 -51.833)" fill="#263238"/>
      <path id="Trazado_148101" data-name="Trazado 148101" d="M248.414,330.912a4.613,4.613,0,0,1,0-.821c0-.6,0-1.343-.062-2.239,0-2-.075-4.7-.137-7.948l.261.249-17.178.075.323-.323h0v11l-.3-.3c4.976,0,9.242.087,12.277.149l3.57.087a12.154,12.154,0,0,1,1.331.062,6.961,6.961,0,0,1-1.244.075l-3.5.075c-3.023.062-7.364.124-12.439.149H231V319.9h0l.323-.323,17.178.062h.261v.261c0,3.421-.087,6.219-.124,8.11a18.58,18.58,0,0,1-.075,2.177,3.449,3.449,0,0,1-.149.721Z" transform="translate(-78.288 -51.833)" fill="#263238"/>
      <path id="Trazado_148102" data-name="Trazado 148102" d="M266.662,330.912a4.618,4.618,0,0,1-.062-.821c0-.6,0-1.343-.062-2.239,0-2-.087-4.7-.137-7.948l.261.249-17.178.075c-.075,0,.61-.622.323-.323h0v11l-.3-.3c4.976,0,9.23.087,12.277.149l3.57.087a12.45,12.45,0,0,1,1.331.062,7.136,7.136,0,0,1-1.244.075l-3.5.075c-3.023.062-7.364.124-12.439.149h-.3V319.9h0l.323-.323,17.178.062h.249v.261c0,3.421-.087,6.219-.137,8.11,0,.871,0,1.592-.062,2.177A3.445,3.445,0,0,1,266.662,330.912Z" transform="translate(-73.846 -51.833)" fill="#263238"/>
      <path id="Trazado_148103" data-name="Trazado 148103" d="M284.889,330.913a5.745,5.745,0,0,1,0-.821c0-.6,0-1.343-.062-2.239,0-2-.087-4.7-.137-7.948l.249.249-17.166.075c-.075,0,.609-.622.323-.323h0v11l-.3-.3c4.976,0,9.23.087,12.277.149l3.57.087a12.04,12.04,0,0,1,1.319.062,6.877,6.877,0,0,1-1.244.075l-3.508.075c-3.023.062-7.351.124-12.439.149h-.3V319.9h0c-.3.286.386-.4.323-.323l17.166.062h.261v.261c0,3.421-.087,6.219-.137,8.11,0,.871,0,1.592-.062,2.177a2.775,2.775,0,0,1-.137.721Z" transform="translate(-69.41 -51.834)" fill="#263238"/>
      <path id="Trazado_148104" data-name="Trazado 148104" d="M303.126,330.913a6.8,6.8,0,0,1-.062-.821c0-.6,0-1.343-.062-2.239,0-2-.075-4.7-.137-7.948l.261.249-17.166.075c-.075,0,.609-.622.311-.323h0v11l-.3-.3c4.976,0,9.242.087,12.277.149l3.57.087a12.154,12.154,0,0,1,1.331.062,6.877,6.877,0,0,1-1.244.075l-3.508.075c-3.023.062-7.364.124-12.439.149h-.286V319.9h0c-.286.286.4-.4.336-.323l17.166.062h.261v.261c0,3.421-.1,6.219-.137,8.11a18.58,18.58,0,0,1-.075,2.177,3.443,3.443,0,0,1-.1.721Z" transform="translate(-64.971 -51.834)" fill="#263238"/>
      <path id="Trazado_148105" data-name="Trazado 148105" d="M321.342,330.912a4.618,4.618,0,0,1-.062-.821c0-.6,0-1.343-.062-2.239,0-2-.075-4.7-.137-7.948l.261.249-17.178.075c-.075,0,.609-.622.323-.323h0v11l-.3-.3c4.976,0,9.23.087,12.277.149l3.57.087a12.449,12.449,0,0,1,1.331.062,6.964,6.964,0,0,1-1.244.075l-3.5.075c-3.023.062-7.364.124-12.439.149h-.3V319.9h0l.323-.323,17.178.062h.249v.261c0,3.421-.087,6.219-.137,8.11,0,.871,0,1.592-.062,2.177a3.447,3.447,0,0,1-.1.721Z" transform="translate(-60.511 -51.833)" fill="#263238"/>
      <path id="Trazado_148106" data-name="Trazado 148106" d="M339.554,330.912a5.741,5.741,0,0,1,0-.821c0-.6,0-1.343-.062-2.239,0-2-.087-4.7-.137-7.948l.249.249-17.166.075c-.075,0,.609-.622.323-.323h0v11l-.3-.3c4.976,0,9.23.087,12.277.149l3.57.087a12.04,12.04,0,0,1,1.318.062,6.706,6.706,0,0,1-1.244.075l-3.508.075c-3.023.062-7.351.124-12.439.149h-.3V319.9h0l.323-.323,17.166.062h.261v.261c0,3.421-.087,6.219-.137,8.11,0,.871,0,1.592-.062,2.177a2.778,2.778,0,0,1-.137.721Z" transform="translate(-56.06 -51.833)" fill="#263238"/>
      <path id="Trazado_148107" data-name="Trazado 148107" d="M189.406,310.993c0,.187-10.66.323-23.808.323s-23.808-.137-23.808-.323,10.66-.323,23.808-.323S189.406,310.819,189.406,310.993Z" transform="translate(-100.045 -54.006)" fill="#263238"/>
      <path id="Trazado_148108" data-name="Trazado 148108" d="M353.972,298.758V295.9c0-1.878,0-4.615-.075-8.16l.137.137c-17.924.112-57.393.187-103.156.187h0l.323-.323h0v10.984l-.323-.323,73.215.137,21.9.1h.162l-21.83.1-73.389.137h-.311V287.563h0l.336-.323h0c45.763,0,85.231.075,103.156.187h.137v.137c0,3.582-.062,6.344-.075,8.235v2.1A1.853,1.853,0,0,1,353.972,298.758Z" transform="translate(-73.5 -59.72)" fill="#263238"/>
      <path id="Trazado_148109" data-name="Trazado 148109" d="M300.116,278.8c0,.174-10.66.323-23.808.323s-23.808-.149-23.808-.323,10.66-.323,23.808-.323S300.116,278.617,300.116,278.8Z" transform="translate(-73.044 -61.857)" fill="#263238"/>
      <path id="Trazado_148110" data-name="Trazado 148110" d="M293.783,416.508H201.735A15.76,15.76,0,0,1,186,400.748h0A15.76,15.76,0,0,1,201.723,385h92.048a15.76,15.76,0,0,1,15.76,15.76h0A15.76,15.76,0,0,1,293.783,416.508Z" transform="translate(-89.263 -35.878)" fill="#7e5ee3"/>
      <rect id="Rectángulo_33077" data-name="Rectángulo 33077" width="3.11" height="13.932" transform="translate(162.954 75.143)" fill="#fff"/>
      <rect id="Rectángulo_33078" data-name="Rectángulo 33078" width="3.11" height="13.932" transform="translate(157.543 83.664) rotate(-90)" fill="#fff"/>
      <path id="Trazado_148111" data-name="Trazado 148111" d="M187.459,172.691v-1.144a3.856,3.856,0,0,0-.075-.485,7.188,7.188,0,0,0-.236-1.244,11.655,11.655,0,0,0-9.08-8.5,11.829,11.829,0,0,0-7.55,1.169,11.271,11.271,0,0,0-1.406.908,12.289,12.289,0,0,0-1.244,1.107,14.518,14.518,0,0,0-1.132,1.331,11.3,11.3,0,0,0-1.642,3.172,11.531,11.531,0,0,0,0,7.252,10.971,10.971,0,0,0,1.642,3.172,13.022,13.022,0,0,0,1.132,1.331,10.987,10.987,0,0,0,1.244,1.107,11.273,11.273,0,0,0,1.406.908,10.051,10.051,0,0,0,1.505.659,11.518,11.518,0,0,0,13.832-4.9,11.345,11.345,0,0,0,1.244-3.072,7.464,7.464,0,0,0,.236-1.244,3.856,3.856,0,0,0,.075-.485v0a1.472,1.472,0,0,1-.062.5,9.053,9.053,0,0,1-.224,1.244,11.2,11.2,0,0,1-1.244,3.122,11.643,11.643,0,0,1-7.861,5.535,11.891,11.891,0,0,1-6.219-.485,15.04,15.04,0,0,1-1.53-.672,14.855,14.855,0,0,1-1.443-.92,16.4,16.4,0,0,1-1.331-1.132,13.2,13.2,0,0,1-1.144-1.356,10.959,10.959,0,0,1-1.679-3.234,11.581,11.581,0,0,1,0-7.463,10.958,10.958,0,0,1,1.679-3.234,13.453,13.453,0,0,1,1.144-1.356,12.576,12.576,0,0,1,1.331-1.132,10.985,10.985,0,0,1,2.973-1.592,11.671,11.671,0,0,1,14.031,5.05,11.194,11.194,0,0,1,1.244,3.122,9.053,9.053,0,0,1,.224,1.244,1.241,1.241,0,0,0,.062.485v.97Z" transform="translate(-11.37 -90.545)" fill="#fff"/>
      <path id="Trazado_148118" data-name="Trazado 148118" d="M203.23,398.74l1.567-1.567,3.023,2.687,5.933-5.709,1.455,1.567-7.613,7.165Z" transform="translate(-85.061 -33.646)" fill="#fff"/>
    </g>
    <g id="freepik--Floor--inject-42" transform="translate(30.088 577.022)">
      <path id="Trazado_148119" data-name="Trazado 148119" d="M571.8,469.773c0,.174-121.59.323-271.541.323s-271.566-.149-271.566-.323,121.565-.323,271.566-.323S571.8,469.587,571.8,469.773Z" transform="translate(-28.69 -469.45)" fill="#263238"/>
    </g>
    <g id="freepik--Character--inject-42" transform="translate(435.316 170.05)">
      <path id="Trazado_148120" data-name="Trazado 148120" d="M427.358,444.51l-1.244,20.748s20.661,8.272,20.8,12.128l-40.352-1.045L407.232,444Z" transform="translate(-341.76 -68.685)" fill="#727997"/>
      <g id="Grupo_75731" data-name="Grupo 75731" transform="translate(70.7 394.508)" opacity="0.6">
        <path id="Trazado_148121" data-name="Trazado 148121" d="M412.506,459.43a1.654,1.654,0,0,0-1.182,1.853,1.58,1.58,0,0,0,1.816,1.244,1.729,1.729,0,0,0,1.244-1.965,1.642,1.642,0,0,0-2.028-1.032" transform="translate(-411.303 -459.43)" fill="#fff"/>
      </g>
      <g id="Grupo_75732" data-name="Grupo 75732" transform="translate(64.8 404.397)" opacity="0.6">
        <path id="Trazado_148122" data-name="Trazado 148122" d="M406.56,470.639l.2-3.259,38.561,2.2s1.779.833,1.542,2.09Z" transform="translate(-406.56 -467.38)" fill="#fff"/>
      </g>
      <path id="Trazado_148123" data-name="Trazado 148123" d="M423.521,460.975c0,.2-1,.261-1.99.871s-1.518,1.418-1.692,1.343.137-1.244,1.343-1.928S423.57,460.8,423.521,460.975Z" transform="translate(-338.532 -64.588)" fill="#263238"/>
      <path id="Trazado_148124" data-name="Trazado 148124" d="M426.688,462.447c0,.2-.821.51-1.505,1.331s-.908,1.692-1.107,1.679-.286-1.132.585-2.14S426.688,462.26,426.688,462.447Z" transform="translate(-337.52 -64.207)" fill="#263238"/>
      <path id="Trazado_148125" data-name="Trazado 148125" d="M428.044,467.208c-.187,0-.435-.945.1-2.015s1.468-1.468,1.542-1.306-.5.734-.92,1.6S428.218,467.2,428.044,467.208Z" transform="translate(-336.575 -63.843)" fill="#263238"/>
      <path id="Trazado_148126" data-name="Trazado 148126" d="M423.423,457.257c-.087.187-.983-.112-2.1-.062s-1.99.373-2.09.2.759-.846,2.077-.883S423.523,457.12,423.423,457.257Z" transform="translate(-338.671 -65.634)" fill="#263238"/>
      <g id="Grupo_75733" data-name="Grupo 75733" transform="translate(65.31 378.674)" opacity="0.3">
        <path id="Trazado_148127" data-name="Trazado 148127" d="M427.009,447.956l-.224,3.707-19.815-.684.075-4.279Z" transform="translate(-406.97 -446.7)"/>
      </g>
      <path id="Trazado_148128" data-name="Trazado 148128" d="M423.929,454.4a3.657,3.657,0,0,1-2.015-.062,8.383,8.383,0,0,1-2.09-.7A8.114,8.114,0,0,1,418.68,453a2.276,2.276,0,0,1-.6-.485.871.871,0,0,1-.075-1.057,1.119,1.119,0,0,1,.883-.423,2.488,2.488,0,0,1,.746.124,6.973,6.973,0,0,1,1.244.46,7.326,7.326,0,0,1,1.841,1.244c.908.9,1.244,1.63,1.144,1.667s-.535-.56-1.468-1.244a7.64,7.64,0,0,0-1.779-1.07,7.275,7.275,0,0,0-1.144-.386c-.423-.124-.784-.137-.908,0s0,.1,0,.236a2.489,2.489,0,0,0,.448.348,9.535,9.535,0,0,0,1.045.647,11.661,11.661,0,0,0,1.94.8A14.927,14.927,0,0,1,423.929,454.4Z" transform="translate(-339.003 -66.97)" fill="#263238"/>
      <path id="Trazado_148129" data-name="Trazado 148129" d="M422.626,455.254a3.421,3.421,0,0,1-.485-1.965,6.729,6.729,0,0,1,.336-2.2,6.221,6.221,0,0,1,.547-1.244,1.642,1.642,0,0,1,1.319-.983.908.908,0,0,1,.821.585,2.625,2.625,0,0,1,.187.746,4.478,4.478,0,0,1,0,1.356,4.664,4.664,0,0,1-.921,2.065c-.808,1.02-1.642,1.244-1.654,1.169a7.96,7.96,0,0,0,1.244-1.455,4.666,4.666,0,0,0,.7-1.878,4.1,4.1,0,0,0,0-1.169c0-.423-.2-.771-.361-.734a1.423,1.423,0,0,0-.734.647,7.051,7.051,0,0,0-.523,1.07,7.465,7.465,0,0,0-.448,2.015C422.552,454.445,422.738,455.179,422.626,455.254Z" transform="translate(-337.961 -67.499)" fill="#263238"/>
      <path id="Trazado_148130" data-name="Trazado 148130" d="M436.285,342.8,404.23,353.1c.386.286,5.946,36.309,5.946,36.309l-4.627,95.63,25.438.311,11.382-100.307Z" transform="translate(-342.328 -93.366)" fill="#263238"/>
      <path id="Trazado_148131" data-name="Trazado 148131" d="M397.953,444.35l-.647,20.773s20.9,7.638,21.146,11.494l-40.339.187-.323-32.416Z" transform="translate(-348.776 -68.599)" fill="#727997"/>
      <g id="Grupo_75734" data-name="Grupo 75734" transform="translate(34.932 394.806)" opacity="0.6">
        <path id="Trazado_148132" data-name="Trazado 148132" d="M383.707,459.708a1.654,1.654,0,0,0-1.132,1.878,1.592,1.592,0,0,0,1.866,1.144,1.741,1.741,0,0,0,1.182-2,1.642,1.642,0,0,0-2.065-.97" transform="translate(-382.548 -459.669)" fill="#fff"/>
      </g>
      <g id="Grupo_75735" data-name="Grupo 75735" transform="translate(29.399 404.945)" opacity="0.6">
        <path id="Trazado_148133" data-name="Trazado 148133" d="M378.1,471.079l.1-3.259,38.635,1.032s1.791.771,1.6,2.04Z" transform="translate(-378.1 -467.82)" fill="#fff"/>
      </g>
      <path id="Trazado_148134" data-name="Trazado 148134" d="M394.72,460.923c0,.187-1,.286-1.953.92s-1.48,1.468-1.667,1.393.112-1.244,1.244-1.965S394.807,460.737,394.72,460.923Z" transform="translate(-345.543 -64.599)" fill="#263238"/>
      <path id="Trazado_148135" data-name="Trazado 148135" d="M397.974,462.295c0,.187-.809.522-1.468,1.356s-.858,1.729-1.057,1.717-.323-1.12.522-2.14S397.961,462.108,397.974,462.295Z" transform="translate(-344.505 -64.241)" fill="#263238"/>
      <path id="Trazado_148136" data-name="Trazado 148136" d="M399.449,467.007c-.174,0-.46-.945,0-2.028s1.43-1.505,1.505-1.343-.473.734-.871,1.63S399.648,466.983,399.449,467.007Z" transform="translate(-343.555 -63.904)" fill="#263238"/>
      <path id="Trazado_148137" data-name="Trazado 148137" d="M394.564,457.205c-.087.174-1-.087-2.1,0s-1.978.435-2.09.274.734-.883,2.04-.958S394.651,457.044,394.564,457.205Z" transform="translate(-345.71 -65.633)" fill="#263238"/>
      <g id="Grupo_75736" data-name="Grupo 75736" transform="translate(29.101 379.209)" opacity="0.3">
        <path id="Trazado_148138" data-name="Trazado 148138" d="M397.849,447.789l-.112,3.694-19.828-.075-.05-4.279Z" transform="translate(-377.86 -447.13)"/>
      </g>
      <path id="Trazado_148139" data-name="Trazado 148139" d="M394.985,454.322a3.644,3.644,0,0,1-2.015,0,8.923,8.923,0,0,1-2.127-.634,11.581,11.581,0,0,1-1.157-.609,2.488,2.488,0,0,1-.609-.473.846.846,0,0,1-.1-1.045,1.107,1.107,0,0,1,.858-.46,2.735,2.735,0,0,1,.759.1,7.462,7.462,0,0,1,1.244.435,7.09,7.09,0,0,1,1.878,1.244,4.68,4.68,0,0,1,1.244,1.63c0,.037-.547-.547-1.505-1.244a8.38,8.38,0,0,0-1.8-1.008,8.026,8.026,0,0,0-1.169-.348c-.423-.112-.784-.112-.9.075s0,.112,0,.236a1.74,1.74,0,0,0,.448.336,8.4,8.4,0,0,0,1.07.609,10.16,10.16,0,0,0,1.953.734A17.419,17.419,0,0,1,394.985,454.322Z" transform="translate(-346.081 -66.953)" fill="#263238"/>
      <path id="Trazado_148140" data-name="Trazado 148140" d="M393.677,455.181a3.235,3.235,0,0,1-.535-1.941,6.6,6.6,0,0,1,.261-2.214,6.455,6.455,0,0,1,.51-1.244,1.7,1.7,0,0,1,1.244-1.032.958.958,0,0,1,.846.56,2.723,2.723,0,0,1,.212.746,4.516,4.516,0,0,1,0,1.356,4.59,4.59,0,0,1-.858,2.09,3.073,3.073,0,0,1-1.617,1.244,12.969,12.969,0,0,0,1.244-1.48,4.465,4.465,0,0,0,.622-1.9,3.734,3.734,0,0,0,0-1.169c-.062-.423-.224-.771-.386-.734a1.415,1.415,0,0,0-.709.672,7.01,7.01,0,0,0-.485,1.095,6.877,6.877,0,0,0-.386,2.015C393.577,454.422,393.789,455.156,393.677,455.181Z" transform="translate(-345.034 -67.526)" fill="#263238"/>
      <path id="Trazado_148141" data-name="Trazado 148141" d="M373.29,346.9c0,7.239,2.861,141.48,2.861,141.48l24.144-2.152,4.976-82.495,2.6-7.19,3.023-44.444Z" transform="translate(-349.874 -92.366)" fill="#263238"/>
      <path id="Trazado_148142" data-name="Trazado 148142" d="M415.157,207c.323.435,19.181,30.363,19.181,30.363l21.208-22.191,10.847,15.661S443.716,262.838,440.383,264s-14.056-.659-14.056-.659L411.4,243.57Z" transform="translate(-340.579 -126.487)" fill="#ebebeb"/>
      <path id="Trazado_148143" data-name="Trazado 148143" d="M430.088,238.264a8.571,8.571,0,0,1-.4-3.446,10.251,10.251,0,0,1,.236-3.458,8.706,8.706,0,0,1,.41,3.446A10.5,10.5,0,0,1,430.088,238.264Z" transform="translate(-336.131 -120.545)" fill="#263238"/>
      <path id="Trazado_148144" data-name="Trazado 148144" d="M380.11,189l-3.259,8.048s-16.73,14.118-18.248,16.295S370.545,285.9,370.545,285.9s-.871,103.4,0,103.4,12.439,3.732,36.073,1.953,28.025-4.13,28.025-4.13l-7.376-91.451-11.307-61.485-19.392-24.977Z" transform="translate(-353.485 -130.877)" fill="#ebebeb"/>
      <path id="Trazado_148145" data-name="Trazado 148145" d="M413.841,224.453s-2.488-11.929-2.276-12.3-5.573-14.466-5.573-14.466-1.94-6.456-1.94-6.431-26.358-4.453-26.358-4.453l-1.244,3.98L411.6,235.2l3.607,19.069,3.732-5.2Z" transform="translate(-349.103 -131.413)" fill="#b0c0d2"/>
      <path id="Trazado_148146" data-name="Trazado 148146" d="M431.739,312.693l-5.722-68.8-4.689-26.856a29.182,29.182,0,0,0-4.217-10.747l-13.683-7.924a60.239,60.239,0,0,1-3.918-5.237l6.481,16.556,2.276,13.223,1.406,30.338h0l7.463,40.725,7.314,89.56,15.9-3.11Z" transform="translate(-343.479 -129.869)" fill="#ebebeb"/>
      <path id="Trazado_148147" data-name="Trazado 148147" d="M410.2,232.536l3.072-22.577-9.889-11.593-3.918-5.237,6.083,17.477Z" transform="translate(-343.489 -129.869)" fill="#ebebeb"/>
      <path id="Trazado_148148" data-name="Trazado 148148" d="M396.528,265.343l23.9-33.983,41.583,12.576-31.458,40.7-39.058-12.7Z" transform="translate(-345.435 -120.545)" fill="#727997"/>
      <path id="Trazado_148149" data-name="Trazado 148149" d="M438.825,240.412a1.032,1.032,0,1,1-1.032-1.032A1.032,1.032,0,0,1,438.825,240.412Z" transform="translate(-334.394 -118.589)" fill="#263238"/>
      <path id="Trazado_148150" data-name="Trazado 148150" d="M425.455,236.682a1.032,1.032,0,1,1-1.02-1.032,1.032,1.032,0,0,1,1.02,1.032Z" transform="translate(-337.655 -119.499)" fill="#263238"/>
      <path id="Trazado_148151" data-name="Trazado 148151" d="M409.381,213.79c-.062,0,.448,2.214,1.157,4.976a46.791,46.791,0,0,0,1.393,4.851c.062,0-.46-2.214-1.157-4.913S409.443,213.778,409.381,213.79Z" transform="translate(-341.073 -124.831)" fill="#263238"/>
      <path id="Trazado_148152" data-name="Trazado 148152" d="M417.47,227.425a5.262,5.262,0,0,1-.373,2.873,3.533,3.533,0,0,1-2.152,1.965,3.918,3.918,0,0,1-3.794-.809,9.951,9.951,0,0,1-2.376-7.177,4.379,4.379,0,0,1,2.724-3.732,3.943,3.943,0,0,1,4.49,1.94" transform="translate(-341.225 -123.215)" fill="#e0e0e0"/>
      <path id="Trazado_148153" data-name="Trazado 148153" d="M416.02,222.527a3.445,3.445,0,0,0-.634-.908,4.541,4.541,0,0,0-1.02-.8,3.732,3.732,0,0,0-1.654-.473,4.018,4.018,0,0,0-1.008.1,3.321,3.321,0,0,0-1.032.41,4.428,4.428,0,0,0-1.53,1.853,5.658,5.658,0,0,0-.51,2.6,10.462,10.462,0,0,0,.51,2.786,7.862,7.862,0,0,0,2.214,3.732,3.732,3.732,0,0,0,1.841.759,4.4,4.4,0,0,0,1.816-.162h0a2.625,2.625,0,0,0,1.157-.634,4.28,4.28,0,0,0,.771-.9,4.975,4.975,0,0,0,.622-1.779,4.453,4.453,0,0,0,0-1.244,1.342,1.342,0,0,0,0-.311.825.825,0,0,0,0-.112,6.878,6.878,0,0,1-.062,1.6,4.838,4.838,0,0,1-.647,1.717,3.994,3.994,0,0,1-.759.846,2.488,2.488,0,0,1-1.082.572h0a3.831,3.831,0,0,1-3.433-.6,7.736,7.736,0,0,1-2.127-3.57,7.264,7.264,0,0,1,0-5.224,4.229,4.229,0,0,1,1.43-1.766,3.023,3.023,0,0,1,.958-.4,3.533,3.533,0,0,1,2.562.311,4.08,4.08,0,0,1,1.02.746,7.026,7.026,0,0,1,.6.833Z" transform="translate(-341.256 -123.231)" fill="#263238"/>
      <path id="Trazado_148154" data-name="Trazado 148154" d="M418.36,227.275a5.212,5.212,0,0,1-.373,2.861,3.545,3.545,0,0,1-2.152,1.978,3.918,3.918,0,0,1-3.794-.809,9.951,9.951,0,0,1-2.376-7.177,4.354,4.354,0,0,1,2.712-3.732,3.956,3.956,0,0,1,4.5,1.928" transform="translate(-341.008 -123.253)" fill="#e0e0e0"/>
      <path id="Trazado_148155" data-name="Trazado 148155" d="M416.91,222.365a3.308,3.308,0,0,0-.634-.9,4.218,4.218,0,0,0-1.02-.8,3.731,3.731,0,0,0-1.667-.473,3.556,3.556,0,0,0-1.008.1,3.085,3.085,0,0,0-1.02.41,4.279,4.279,0,0,0-1.53,1.853,5.572,5.572,0,0,0-.51,2.587,10.548,10.548,0,0,0,.51,2.8,7.924,7.924,0,0,0,2.214,3.732,3.732,3.732,0,0,0,1.841.759,4.416,4.416,0,0,0,1.816-.162h0a2.6,2.6,0,0,0,1.169-.634,4.28,4.28,0,0,0,.771-.9,4.974,4.974,0,0,0,.622-1.779,4.453,4.453,0,0,0,0-1.244,2.725,2.725,0,0,0,0-.311.826.826,0,0,0,0-.112,6.557,6.557,0,0,1-.075,1.6,4.841,4.841,0,0,1-.647,1.717,3.609,3.609,0,0,1-.746.846,2.487,2.487,0,0,1-1.082.572h0a3.832,3.832,0,0,1-3.433-.585,7.737,7.737,0,0,1-2.127-3.57,7.264,7.264,0,0,1,0-5.224,4.155,4.155,0,0,1,1.43-1.766,2.911,2.911,0,0,1,.958-.4,3.657,3.657,0,0,1,.958-.112,3.421,3.421,0,0,1,1.592.423,3.868,3.868,0,0,1,1.02.746,8.878,8.878,0,0,1,.6.809Z" transform="translate(-341.039 -123.268)" fill="#263238"/>
      <path id="Trazado_148156" data-name="Trazado 148156" d="M414.275,221.933a2.488,2.488,0,0,1,2.849.784,4.217,4.217,0,0,1,.784,3.01,3.73,3.73,0,0,1-.41,1.567,2.077,2.077,0,0,1-1.244,1.02,2.488,2.488,0,0,1-2.2-.622,4.465,4.465,0,0,1-1.58-3.371,2.065,2.065,0,0,1,1.244-2.077" transform="translate(-340.32 -122.885)" fill="#e0e0e0"/>
      <path id="Trazado_148157" data-name="Trazado 148157" d="M413.723,222.261a.51.51,0,0,0-.187,0,1.132,1.132,0,0,0-.46.3,2.488,2.488,0,0,0-.634,1.866,4.391,4.391,0,0,0,1.02,2.749,3.732,3.732,0,0,0,1.381,1.095,2.1,2.1,0,0,0,1.9,0,2.625,2.625,0,0,0,1.12-1.542,5.285,5.285,0,0,0,.174-1.741,3.731,3.731,0,0,0-1.182-2.674,2.637,2.637,0,0,0-1.891-.609,2.18,2.18,0,0,0-.522.137c-.112.062-.162.087-.162.1a3.485,3.485,0,0,1,.7-.137,2.488,2.488,0,0,1,1.754.647,3.557,3.557,0,0,1,1.082,2.55,5.536,5.536,0,0,1-.187,1.667,2.488,2.488,0,0,1-1.008,1.393,1.9,1.9,0,0,1-1.679,0,3.645,3.645,0,0,1-1.306-1.02,4.292,4.292,0,0,1-1.02-2.612,2.488,2.488,0,0,1,.535-1.791A2.015,2.015,0,0,1,413.723,222.261Z" transform="translate(-340.327 -122.903)" fill="#263238"/>
      <path id="Trazado_148158" data-name="Trazado 148158" d="M413.65,228.827a.733.733,0,0,1,.162-.386,1.729,1.729,0,0,1,.647-.721,4.98,4.98,0,0,1,.933-.4c.249-.087.41-.149.41-.187a1.008,1.008,0,0,0-.448,0,2.973,2.973,0,0,0-1.02.361,1.6,1.6,0,0,0-.7.871C413.563,228.653,413.613,228.839,413.65,228.827Z" transform="translate(-340.043 -121.582)" fill="#263238"/>
      <path id="Trazado_148159" data-name="Trazado 148159" d="M411.62,222.044a.958.958,0,0,0,.373.261,2.388,2.388,0,0,0,2.14-.162c.236-.162.348-.3.323-.323a5.584,5.584,0,0,1-1.393.41A6.906,6.906,0,0,1,411.62,222.044Z" transform="translate(-340.526 -122.872)" fill="#263238"/>
      <path id="Trazado_148160" data-name="Trazado 148160" d="M397.15,235.484c-1.244.361-2.662-.56-3.881-.087a1.82,1.82,0,1,0,1.406,3.358c1.244-.572,1.53-2.363,2.724-3.072" transform="translate(-345.274 -119.595)" fill="#263238"/>
      <path id="Trazado_148161" data-name="Trazado 148161" d="M391.089,246.139a7.838,7.838,0,0,0,1.132-.473l-.2-.41a5.137,5.137,0,0,1-4.092.5,7.563,7.563,0,0,1-4.055-4.179v-.087c-.448-.9-6.605-19.231-7.737-22.726a6.219,6.219,0,0,1,2.985-7.849c.174-.1,4.291-2.239,8.533,2.973,4.441,5.461,12.2,16.171,12.924,17.564l.336.6c.983,1.667,3.035,5.15,1.244,8.135-2,3.309-4.515,3.085-4.615,3.085v.448c.112,0,2.886.274,5.05-3.309,1.953-3.2-.2-6.841-1.244-8.6l-.323-.572c-.721-1.343-8.521-12.165-12.961-17.638s-9.056-3.11-9.105-3.085a6.792,6.792,0,0,0-3.2,8.384c.933,2.873,7.277,21.843,7.749,22.788v.087a7.936,7.936,0,0,0,4.3,4.416,5.2,5.2,0,0,0,3.272-.05Z" transform="translate(-349.375 -125.759)" fill="#263238"/>
      <path id="Trazado_148162" data-name="Trazado 148162" d="M376.675,221.565a8.273,8.273,0,0,1,.2-2.426,7.464,7.464,0,0,1,1.107-2.4,7.825,7.825,0,0,1,2.339-2.2,8.546,8.546,0,0,1,5.672-1.045,9.629,9.629,0,0,1,2.339.746l-.149-.112a4.8,4.8,0,0,0-.423-.236,7.464,7.464,0,0,0-1.729-.56,8.047,8.047,0,0,0-2.712-.075,8.3,8.3,0,0,0-3.122,1.082,7.725,7.725,0,0,0-2.4,2.289,7.464,7.464,0,0,0-1.082,2.488,5.9,5.9,0,0,0-.149,1.816,1.066,1.066,0,0,0,.062.485C376.687,221.528,376.663,221.577,376.675,221.565Z" transform="translate(-349.079 -124.981)" fill="#263238"/>
      <path id="Trazado_148163" data-name="Trazado 148163" d="M373.25,197.058l20.624,25.549L412.345,234.2l-35.836-45.19Z" transform="translate(-349.884 -130.874)" fill="#ebebeb"/>
      <path id="Trazado_148164" data-name="Trazado 148164" d="M359.557,208.708s-4.329,6.816-4.976,13.782c-.274,2.724,6.518,53.885,7.277,56.186s9.789,8.048,12.439,9.2,35.476,12.078,48.9,11.892l2.873-25.313L391.55,268.7s-4.03-3.831-6.132-4.6l-2.886-28.187-4.217-22.626S366.3,205.847,359.557,208.708Z" transform="translate(-354.439 -126.23)" fill="#ebebeb"/>
      <path id="Trazado_148165" data-name="Trazado 148165" d="M422.446,239.793c-.174,0-2.028-7.463-4.142-16.718s-3.732-16.817-3.52-16.855,2.028,7.463,4.155,16.705S422.62,239.743,422.446,239.793Z" transform="translate(-339.758 -126.677)" fill="#263238"/>
      <path id="Trazado_148166" data-name="Trazado 148166" d="M380.867,233.286a2.155,2.155,0,0,0,.1.522c.1.348.162.9.274,1.567.224,1.406.547,3.433.958,6.058.809,5.3,1.99,12.961,3.458,22.5l-.137-.162a13.82,13.82,0,0,1,3.209,2.028c1.02.809,2.015,1.679,3.01,2.6l-.124-.062,34.53,5.7h.274v.274c-.9,7.911-1.853,16.444-2.861,25.313v.3h-.286a89.749,89.749,0,0,1-18.994-2.96c-7.961-1.9-15.623-4.179-22.975-6.53-1.829-.6-3.645-1.244-5.436-1.828a23.026,23.026,0,0,1-5.088-2.488c-1.58-.97-3.122-1.99-4.59-3.06a22.088,22.088,0,0,1-4.08-3.607,2.487,2.487,0,0,1-.585-1.244c-.112-.46-.187-.883-.249-1.319-.149-.871-.286-1.729-.423-2.575-.249-1.717-.5-3.4-.746-5.063l-1.343-9.665c-.846-6.219-1.6-12.066-2.264-17.414s-1.244-10.125-1.654-14.367c-.1-1.057-.224-2.077-.286-3.072a11.12,11.12,0,0,1,0-2.873,34.089,34.089,0,0,1,1.169-4.864,37.131,37.131,0,0,1,2.674-6.369,16.529,16.529,0,0,1,.9-1.555,3.484,3.484,0,0,1,.348-.5l-.3.535c-.187.348-.485.871-.833,1.58a40.692,40.692,0,0,0-2.55,6.381,34.462,34.462,0,0,0-1.107,4.839,11.793,11.793,0,0,0,0,2.8c.075.983.2,2,.311,3.06.46,4.229,1.07,9.031,1.754,14.342s1.493,11.2,2.339,17.414q.659,4.677,1.368,9.665c.249,1.654.51,3.334.771,5.038l.41,2.575c.075.423.149.858.249,1.244a2.052,2.052,0,0,0,.485,1.082,21.467,21.467,0,0,0,3.968,3.471c1.455,1.07,2.985,2.077,4.553,3.035a22.8,22.8,0,0,0,4.976,2.488c1.779.622,3.595,1.244,5.423,1.816,7.339,2.339,14.927,4.6,22.925,6.506a90.182,90.182,0,0,0,18.832,2.948l-.311.286c1.02-8.869,1.99-17.414,2.9-25.313l.249.323-34.518-5.871h-.075c-.983-.92-1.965-1.791-2.973-2.587a13.412,13.412,0,0,0-3.072-1.978l-.124-.062v-.112c-1.381-9.566-2.488-17.24-3.259-22.552-.361-2.612-.647-4.652-.846-6.058-.087-.672-.149-1.244-.2-1.58a4.227,4.227,0,0,1-.124-.6Z" transform="translate(-354.465 -126.104)" fill="#263238"/>
      <path id="Trazado_148167" data-name="Trazado 148167" d="M377.152,225.4a21.371,21.371,0,0,1-1.592-3.072,34.919,34.919,0,0,0-4.3-7.04,15.449,15.449,0,0,0-6.593-4.7,24.453,24.453,0,0,0-3.334-.721,2.3,2.3,0,0,1,.933-.1,9.08,9.08,0,0,1,2.55.386,14.541,14.541,0,0,1,6.928,4.727,28.7,28.7,0,0,1,4.242,7.252,16.732,16.732,0,0,1,1.169,3.271Z" transform="translate(-352.791 -125.816)" fill="#263238"/>
      <path id="Trazado_148168" data-name="Trazado 148168" d="M369.61,257.813a13.235,13.235,0,0,1,11.966-4.577,30.151,30.151,0,0,0-6.344,1.343,31.511,31.511,0,0,0-5.622,3.234Z" transform="translate(-350.771 -115.242)" fill="#263238"/>
      <path id="Trazado_148169" data-name="Trazado 148169" d="M372.76,261.817a12.825,12.825,0,0,1,8.57-8.707,32.03,32.03,0,0,0-4.976,3.732,33.587,33.587,0,0,0-3.595,4.976Z" transform="translate(-350.003 -115.241)" fill="#263238"/>
      <path id="Trazado_148170" data-name="Trazado 148170" d="M412.384,234.186a8.547,8.547,0,0,1-1.43-.771l-3.881-2.326-13.322-8.235h0l-6.219-7.65c-5.7-7.065-10.809-13.459-14.354-17.949l-.087-.112v-.112l2.488-5.859.7-1.567a1.939,1.939,0,0,1,.286-.535,2.4,2.4,0,0,1-.174.585c-.149.435-.348.958-.585,1.6-.572,1.493-1.343,3.483-2.3,5.933v-.224c3.632,4.416,8.807,10.76,14.516,17.837l6.219,7.662-.075-.062,13.21,8.421,3.732,2.488A10.019,10.019,0,0,1,412.384,234.186Z" transform="translate(-349.923 -130.859)" fill="#263238"/>
      <path id="Trazado_148171" data-name="Trazado 148171" d="M408.973,238a9.715,9.715,0,0,1,.137-1.667c.149-1.169.336-2.687.572-4.528.51-3.831,1.244-9.167,2.139-15.175v.2c-.386-.721-.809-1.493-1.244-2.276-3.159-5.871-6-11.2-8.011-15.088l-2.351-4.6a11.823,11.823,0,0,1-.8-1.729,10.125,10.125,0,0,1,1.008,1.6l2.55,4.515c2.115,3.819,4.976,9.118,8.16,14.927.423.784.833,1.555,1.244,2.276v.211c-.908,6-1.741,11.319-2.363,15.138-.311,1.829-.572,3.334-.771,4.5a7.573,7.573,0,0,1-.274,1.692Z" transform="translate(-343.501 -129.869)" fill="#263238"/>
      <path id="Trazado_148172" data-name="Trazado 148172" d="M378.082,215.934l1.057-.647-1.07.647a64.681,64.681,0,0,1-4.64-8.707l-.224-.535c-1.244-3.048-2.687-6.493-2.077-9.839v-.062a6.543,6.543,0,0,1,2.276-3.732l.336-.3h1v1.928l.224.261-.224.211v.087h0a3.906,3.906,0,0,0-1.107,2.04v.062c-.448,2.612.821,5.685,1.94,8.4l.224.535a60.761,60.761,0,0,0,4.478,8.309Z" transform="translate(-350.436 -129.96)" fill="#263238"/>
      <path id="Trazado_148173" data-name="Trazado 148173" d="M413.26,272.34a4.3,4.3,0,0,1,.174.933c.087.672.211,1.567.361,2.687.311,2.339.721,5.722,1.244,9.951.958,8.371,2.14,19.9,3.222,32.764s1.853,24.43,2.326,32.839c.224,4.2.4,7.613.485,9.951,0,1.132.062,2.028.087,2.712a4.972,4.972,0,0,1,0,.945,4.715,4.715,0,0,1-.112-.933c0-.684-.124-1.58-.211-2.712-.174-2.413-.41-5.8-.7-9.951-.585-8.4-1.43-20-2.488-32.814s-2.227-24.405-3.122-32.8q-.616-6.213-.983-9.951c-.1-1.119-.174-2.015-.236-2.7A7.691,7.691,0,0,1,413.26,272.34Z" transform="translate(-340.126 -110.551)" fill="#263238"/>
      <path id="Trazado_148174" data-name="Trazado 148174" d="M405.52,295.8a8.357,8.357,0,0,1-.833.809c-.56.485-1.406,1.182-2.488,2a74.083,74.083,0,0,1-8.633,5.933,45.468,45.468,0,0,1-5.2,2.562,32.833,32.833,0,0,1-4.49,1.443,20.377,20.377,0,0,1-3.147.535,3.544,3.544,0,0,1-1.169,0c0-.112,1.642-.3,4.192-1.02a35.245,35.245,0,0,0,4.391-1.555,52.854,52.854,0,0,0,5.1-2.562c3.508-2.028,6.506-4.192,8.707-5.734a31.323,31.323,0,0,1,3.57-2.413Z" transform="translate(-348.345 -104.829)" fill="#263238"/>
      <path id="Trazado_148175" data-name="Trazado 148175" d="M407.146,299.7a4.154,4.154,0,0,1-.672,1,23.336,23.336,0,0,1-2.152,2.488,35.165,35.165,0,0,1-18.92,10.063,23.529,23.529,0,0,1-3.259.4,4.977,4.977,0,0,1-1.244,0c0-.124,1.692-.249,4.378-.846a39.383,39.383,0,0,0,10.026-3.732,40.016,40.016,0,0,0,8.707-6.219A39.066,39.066,0,0,1,407.146,299.7Z" transform="translate(-348.018 -103.879)" fill="#263238"/>
      <path id="Trazado_148176" data-name="Trazado 148176" d="M380.754,312.619a9.467,9.467,0,0,1-.672-3.408,9.106,9.106,0,0,1,0-3.47,18.559,18.559,0,0,1,.7,6.879Z" transform="translate(-348.258 -102.405)" fill="#263238"/>
      <path id="Trazado_148177" data-name="Trazado 148177" d="M379.266,187.634a2.413,2.413,0,0,1-2.14-1.455,8.371,8.371,0,0,1-.721-2.786c-.585-4.229-1.157-8.471-1.741-12.713a64.526,64.526,0,0,1-.883-10.834,23.087,23.087,0,0,1,3.2-9.951c1.916-3.732,9.677-10.187,22.552-6.543" transform="translate(-349.754 -142.273)" fill="#263238"/>
      <path id="Trazado_148178" data-name="Trazado 148178" d="M378.945,166.527c-.174,0-6.879-1.891-6.543,4.976s7.115,5.063,7.115,4.864S378.945,166.527,378.945,166.527Z" transform="translate(-350.093 -136.416)" fill="#ffbe9d"/>
      <path id="Trazado_148179" data-name="Trazado 148179" d="M376.984,173.394a2.031,2.031,0,0,1-.311.187,1.244,1.244,0,0,1-.883.075,2.973,2.973,0,0,1-1.493-2.575,3.819,3.819,0,0,1,.249-1.7,1.356,1.356,0,0,1,.846-.958.61.61,0,0,1,.721.286c.1.187.062.323.1.336s.137-.124,0-.4a.634.634,0,0,0-.286-.411.9.9,0,0,0-.659-.149,1.7,1.7,0,0,0-1.244,1.119,4.178,4.178,0,0,0-.311,1.916,3.1,3.1,0,0,0,1.878,2.861,1.331,1.331,0,0,0,1.082-.236C376.984,173.555,377.009,173.406,376.984,173.394Z" transform="translate(-349.774 -135.981)" fill="#eb996e"/>
      <path id="Trazado_148180" data-name="Trazado 148180" d="M412.864,184.575c0-4.814-.9-14.715-1.779-23.634a18.571,18.571,0,0,0-18.82-16.73h-.958c-10.362.8-15.462,10.026-14.379,20.362l1.455,32.938,24.691,13.546-.087-14.765S412.926,194.538,412.864,184.575Z" transform="translate(-349.021 -141.801)" fill="#ffbe9d"/>
      <path id="Trazado_148181" data-name="Trazado 148181" d="M400.418,186.736a23.112,23.112,0,0,1-13.048-3.446s3.135,7.215,13.061,6.145Z" transform="translate(-346.44 -132.269)" fill="#eb996e"/>
      <path id="Trazado_148182" data-name="Trazado 148182" d="M402.266,163.125a1.418,1.418,0,0,1-1.343,1.455,1.356,1.356,0,0,1-1.493-1.244,1.418,1.418,0,0,1,1.343-1.455,1.368,1.368,0,0,1,1.493,1.244Z" transform="translate(-343.499 -137.492)" fill="#263238"/>
      <path id="Trazado_148183" data-name="Trazado 148183" d="M403.93,161.443c-.174.187-1.244-.6-2.8-.56s-2.637.821-2.811.634.1-.423.572-.784a3.956,3.956,0,0,1,2.251-.734,3.732,3.732,0,0,1,2.227.672C403.856,161.02,404.017,161.356,403.93,161.443Z" transform="translate(-343.782 -137.95)" fill="#263238"/>
      <path id="Trazado_148184" data-name="Trazado 148184" d="M390.294,163.375a1.406,1.406,0,0,1-1.343,1.455,1.343,1.343,0,0,1-1.48-1.244,1.406,1.406,0,0,1,1.343-1.455,1.343,1.343,0,0,1,1.48,1.244Z" transform="translate(-346.416 -137.431)" fill="#263238"/>
      <path id="Trazado_148185" data-name="Trazado 148185" d="M391.658,161.229c-.149.2-1.319-.448-2.836-.249s-2.488,1.095-2.724.933,0-.423.485-.846a3.819,3.819,0,0,1,2.152-.97,3.732,3.732,0,0,1,2.289.423C391.534,160.868,391.733,161.229,391.658,161.229Z" transform="translate(-346.773 -137.934)" fill="#263238"/>
      <path id="Trazado_148186" data-name="Trazado 148186" d="M395.438,173.58a9.951,9.951,0,0,1,2.488-.5c.4,0,.759-.124.821-.4a1.99,1.99,0,0,0-.286-1.157l-1.244-2.948a50.8,50.8,0,0,1-2.737-7.749,53.911,53.911,0,0,1,3.358,7.463c.4,1.045.784,2.028,1.157,2.973a2.277,2.277,0,0,1,.236,1.542.958.958,0,0,1-.634.572,2.351,2.351,0,0,1-.659.112,9.951,9.951,0,0,1-2.5.087Z" transform="translate(-344.706 -137.747)" fill="#263238"/>
      <path id="Trazado_148187" data-name="Trazado 148187" d="M391.685,172c.249,0,.286,1.642,1.729,2.786s3.209.945,3.234,1.182-.4.323-1.144.361a4.117,4.117,0,0,1-2.687-.883,3.632,3.632,0,0,1-1.343-2.351C391.4,172.4,391.573,172,391.685,172Z" transform="translate(-345.444 -135.023)" fill="#263238"/>
      <path id="Trazado_148188" data-name="Trazado 148188" d="M392,155.946c-.137.41-1.679.249-3.47.5s-3.234.759-3.483.4.137-.572.721-1a5.821,5.821,0,0,1,2.562-.945,5.9,5.9,0,0,1,2.724.261C391.725,155.424,392.061,155.747,392,155.946Z" transform="translate(-347.026 -139.207)" fill="#263238"/>
      <path id="Trazado_148189" data-name="Trazado 148189" d="M403.227,158.305c-.261.348-1.319,0-2.587,0s-2.339.274-2.6-.075,0-.535.522-.871a3.533,3.533,0,0,1,2.09-.61,3.582,3.582,0,0,1,2.077.659C403.19,157.808,403.339,158.168,403.227,158.305Z" transform="translate(-343.863 -138.742)" fill="#263238"/>
      <path id="Trazado_148190" data-name="Trazado 148190" d="M399.937,143.487c-3.52-1.393-7.09-.659-10.834-.112a17.141,17.141,0,0,0-7.973,3.172,15.374,15.374,0,0,0-5.871,11.954,44.145,44.145,0,0,0,1.48,13.434l.373-.087a6.418,6.418,0,0,0-.062,3.458,2.239,2.239,0,0,0,2.749,1.505c1.244-.547,1.244-2.276,1.244-3.645a98.7,98.7,0,0,1,0-13.832c.2-3.433,2.152-7.65,4.839-9.279,4.888-3.259,11.257-.6,13.409-.224,3.321-2.836,6.418-.622,8.434,1.841C406.878,147.965,403.457,144.868,399.937,143.487Z" transform="translate(-349.404 -142.172)" fill="#263238"/>
      <path id="Trazado_148191" data-name="Trazado 148191" d="M395.085,149.9c2.189,0,3.931-1.468,6.356-1.07,1.468.236,2.948,2.637,4.229,5.622a4.316,4.316,0,0,0-1.244-7.9,3.993,3.993,0,0,0,1.94.634,1.356,1.356,0,0,0,1.368-1.244,1.816,1.816,0,0,0-.808-1.244A10.635,10.635,0,0,0,392,146.417" transform="translate(-345.311 -142.241)" fill="#263238"/>
      <path id="Trazado_148192" data-name="Trazado 148192" d="M405.737,145.463c0,.087-.709-.373-1.891-.746a7.613,7.613,0,0,0-4.665,0,7.712,7.712,0,0,0-3.732,2.873c-.7,1.02-.908,1.779-1.02,1.754a3.657,3.657,0,0,1,.634-1.99,7.09,7.09,0,0,1,8.906-3.1C405.227,144.791,405.787,145.413,405.737,145.463Z" transform="translate(-344.718 -141.921)" fill="#455a64"/>
      <path id="Trazado_148193" data-name="Trazado 148193" d="M405.271,152.492a8.484,8.484,0,0,0,0-2.314A4.975,4.975,0,0,0,404.176,148a5.212,5.212,0,0,0-2.488-1.518,6.879,6.879,0,0,0-5.311.921c-1.244.771-1.841,1.468-1.916,1.393s.435-.858,1.667-1.766a7.463,7.463,0,0,1,2.413-1.169,6.481,6.481,0,0,1,3.309,0,5.5,5.5,0,0,1,2.824,1.754,4.976,4.976,0,0,1,1.082,2.488,2.973,2.973,0,0,1-.485,2.388Z" transform="translate(-344.712 -141.45)" fill="#455a64"/>
      <path id="Trazado_148194" data-name="Trazado 148194" d="M374.755,168.137a4,4,0,0,1-.261-.908,12.957,12.957,0,0,1-.224-2.562,17.091,17.091,0,0,1,2.065-8.2,17.327,17.327,0,0,1,5.734-6.219,13.941,13.941,0,0,1,2.264-1.244,2.389,2.389,0,0,1,.908-.286c0,.1-1.244.622-2.923,1.878a18.2,18.2,0,0,0-7.6,14.056C374.618,166.806,374.867,168.125,374.755,168.137Z" transform="translate(-349.635 -140.7)" fill="#455a64"/>
      <path id="Trazado_148195" data-name="Trazado 148195" d="M375.924,168.045a15.362,15.362,0,0,1,4.59-13.795,31.892,31.892,0,0,0-3.421,6.518A31.738,31.738,0,0,0,375.924,168.045Z" transform="translate(-349.287 -139.352)" fill="#455a64"/>
      <path id="Trazado_148196" data-name="Trazado 148196" d="M471.041,214.334c-.286-.759-1.729-.921-1.729-.921l.286-.435a2.078,2.078,0,0,0,.149-2.077l-.162-.311a3.5,3.5,0,0,0-1.667-1.244s1.057-1.443.8-2.152a3.4,3.4,0,0,0-3.247-1.9,50.554,50.554,0,0,0-6.779,2.015,1.505,1.505,0,0,1-2-1.107,21.445,21.445,0,0,0-2.177-6.219c-1.244-2.09-2.7-2.164-3.582-1.965a.7.7,0,0,0-.5.945,36.543,36.543,0,0,1,1.58,4.378c.236,1.12-.572,9.217-.572,9.217l-4.117,5.535,9.329,13.471,4.1-6.1,8.794-3.868s1.667-2.1,1.493-2.824a2.2,2.2,0,0,0-.871-1.157l1.095-1.53A4.69,4.69,0,0,0,471.041,214.334Z" transform="translate(-331.819 -128.696)" fill="#ffbe9d"/>
      <path id="Trazado_148197" data-name="Trazado 148197" d="M466.552,207.885l-.174.112-.547.311-2,1.119-2.985,1.617c-.572.3-1.144.647-1.8.921a2.376,2.376,0,0,1-2.164,0,1.63,1.63,0,0,1-.672-.933,2.376,2.376,0,0,1,0-1.107,3.035,3.035,0,0,1,1.132-1.679,11.668,11.668,0,0,1,1.53-1.02l1.356-.809,1.978-1.169.547-.3.187-.1-.174.137-.522.336-1.94,1.244-1.343.833a13.111,13.111,0,0,0-1.493,1.008A3,3,0,0,0,456.4,210a1.692,1.692,0,0,0,.6,1.816,1.791,1.791,0,0,0,.983.261,2.972,2.972,0,0,0,1-.224,19.756,19.756,0,0,0,1.779-.9l3.01-1.592,2.04-1.045.56-.286Z" transform="translate(-329.668 -127.011)" fill="#eb996e"/>
      <path id="Trazado_148198" data-name="Trazado 148198" d="M467.307,210.542a1.816,1.816,0,0,1-.423.249c-.274.149-.672.361-1.182.6-1.008.5-2.413,1.132-4.005,1.766a8.978,8.978,0,0,1-1.182.423,2.3,2.3,0,0,1-1.244,0,1.841,1.841,0,0,1-1.319-1.455,1.741,1.741,0,0,1,.311-1.244,1.118,1.118,0,0,1,.236-.274l.112-.075a2.306,2.306,0,0,0-.286.386,1.8,1.8,0,0,0-.236,1.244,1.729,1.729,0,0,0,1.244,1.244,2.251,2.251,0,0,0,1.107,0c.373-.1.759-.274,1.157-.423,1.58-.634,3-1.244,4.018-1.7l1.244-.547a2.112,2.112,0,0,1,.448-.187Z" transform="translate(-329.229 -125.626)" fill="#eb996e"/>
      <path id="Trazado_148199" data-name="Trazado 148199" d="M467.5,213.779a1.381,1.381,0,0,1-.41.162l-1.169.386-3.881,1.169c-.386.1-.746.224-1.132.286a1.965,1.965,0,0,1-1.107-.075,1.244,1.244,0,0,1-.721-.721,1.431,1.431,0,0,1,0-.883,1.853,1.853,0,0,1,.809-.945,1.245,1.245,0,0,1,.41-.187q-.174.133-.361.249a1.928,1.928,0,0,0-.709.933,1.244,1.244,0,0,0,0,.784,1,1,0,0,0,.634.585,1.816,1.816,0,0,0,1.008,0,4.756,4.756,0,0,0,1.095-.286c1.518-.448,2.9-.846,3.893-1.107l1.244-.323Z" transform="translate(-328.967 -125.031)" fill="#eb996e"/>
      <path id="Trazado_148200" data-name="Trazado 148200" d="M467.3,216.76a10.062,10.062,0,0,1-1.331.137l-3.2.174h-.92a3.41,3.41,0,0,1-.871,0,1.244,1.244,0,0,1-.709-.386.784.784,0,0,1-.187-.7,1.157,1.157,0,0,1,.622-.771.584.584,0,0,1,.348-.087,2.482,2.482,0,0,0-.311.162,1.119,1.119,0,0,0-.523.721.7.7,0,0,0,.174.56,1.057,1.057,0,0,0,.622.311,3.728,3.728,0,0,0,.833,0h.908c1.244,0,2.388-.1,3.209-.112a8.1,8.1,0,0,1,1.331-.012Z" transform="translate(-328.71 -124.504)" fill="#eb996e"/>
      <path id="Trazado_148201" data-name="Trazado 148201" d="M459.993,214.159a11.926,11.926,0,0,0-2.239-.585,11.552,11.552,0,0,0-2.314.1,5.088,5.088,0,0,1,4.553.485Z" transform="translate(-329.838 -124.939)" fill="#eb996e"/>
      <path id="Trazado_148202" data-name="Trazado 148202" d="M412.161,265.2l1.94-.5s.672-3.247,1.53-3.931,9.4-4.578,11.282-5.6,9.217-4.366,10.138-2.6c1.045,2.015-1.953,3.732-3.57,4.441s-6.219,2.562-5.311,3.669,11.282.609,11.282.609l1.244-1.741s2.276,2.152,2.015,4.03a8.1,8.1,0,0,1-1.02,3.072h-.771a2.139,2.139,0,0,1,.087,2.227,20.634,20.634,0,0,1-2.04,2.55,7.612,7.612,0,0,1-4.864,3.557c-.435.112-17.5,1.6-17.5,1.6l-5.722.572Z" transform="translate(-340.706 -115.494)" fill="#ffbe9d"/>
    </g>
    <g id="freepik--Shield--inject-42" transform="translate(244.284 159.408)">
      <path id="Trazado_148203" data-name="Trazado 148203" d="M104.474,53.346,82.585,45.28,60.912,53.238c-2.771,1.34-5.193,2.14-5.193,4.808V71.19A50.684,50.684,0,0,0,62.86,97.4,44.818,44.818,0,0,0,82.8,115.431c8.859-2.951,15.47-10.818,19.515-17.556a50.726,50.726,0,0,0,7.14-26.2V59.861C109.457,56.092,107.51,54.253,104.474,53.346Z" transform="translate(-36.276 -39.97)" fill="#81d4fa"/>
      <g id="Grupo_75737" data-name="Grupo 75737" transform="translate(19.442 5.31)" opacity="0.8">
        <path id="Trazado_148204" data-name="Trazado 148204" d="M104.474,53.346,82.585,45.28,60.912,53.238c-2.771,1.34-5.193,2.14-5.193,4.808V71.19A50.684,50.684,0,0,0,62.86,97.4,44.818,44.818,0,0,0,82.8,115.431c8.859-2.951,15.47-10.818,19.515-17.556a50.726,50.726,0,0,0,7.14-26.2V59.861C109.457,56.092,107.51,54.253,104.474,53.346Z" transform="translate(-55.719 -45.28)" fill="#fff"/>
      </g>
      <path id="Trazado_148205" data-name="Trazado 148205" d="M103.67,63.3,86.108,56.83,68.721,63.207c-2.224,1.076-4.171,1.719-4.171,3.841V77.613a40.665,40.665,0,0,0,5.734,21.036,35.935,35.935,0,0,0,16,14.5c7.1-2.368,12.411-8.685,15.657-14.082a40.719,40.719,0,0,0,5.728-21.036v-9.5C107.667,65.5,106.1,64.024,103.67,63.3Z" transform="translate(-39.8 -44.579)" fill="#81d4fa"/>
      <path id="Trazado_148206" data-name="Trazado 148206" d="M104.889,90.932H94.564V80.6H88.632V90.932H78.3v5.932H88.632v10.326h5.932V96.864h10.326Z" transform="translate(-45.286 -54.062)" fill="#fff"/>
      <path id="Trazado_148207" data-name="Trazado 148207" d="M109.979,107.448s.1-.144.3-.415l.174-.222c.06-.09.108-.192.174-.3a4.64,4.64,0,0,0,.391-.775c.06-.156.132-.313.192-.487s.1-.367.156-.559a4.112,4.112,0,0,0,.126-.6,6.015,6.015,0,0,0,.1-.691,13,13,0,0,0-.15-3.312,29.835,29.835,0,0,0-3.053-8.6,66.926,66.926,0,0,0-6.539-10.169A104.073,104.073,0,0,0,92.1,70.365,119.766,119.766,0,0,0,79.3,59.457c-2.4-1.761-4.91-3.462-7.567-5.067a72.725,72.725,0,0,0-8.414-4.405,39.066,39.066,0,0,0-9.352-2.933,16.516,16.516,0,0,0-4.988-.12,9.154,9.154,0,0,0-2.4.7,6.01,6.01,0,0,0-3.264,3.654,9.334,9.334,0,0,0-.421,2.47,16.54,16.54,0,0,0,.691,4.946,39.12,39.12,0,0,0,3.973,8.961,74.017,74.017,0,0,0,5.337,7.849c1.9,2.458,3.877,4.766,5.9,6.942A119.852,119.852,0,0,0,71.123,93.913a104.033,104.033,0,0,0,12.021,8.414,66.714,66.714,0,0,0,10.818,5.337,29.8,29.8,0,0,0,8.865,2.049,12.868,12.868,0,0,0,3.312-.228,5.5,5.5,0,0,0,.673-.168,3.6,3.6,0,0,0,.6-.2l.541-.216c.162-.078.313-.168.457-.246a4.123,4.123,0,0,0,.727-.475c.1-.072.2-.138.276-.2l.2-.2c.246-.234.379-.349.379-.349l-.361.361-.2.2c-.078.066-.174.132-.276.21a4.479,4.479,0,0,1-.769.541l-.457.252-.541.222a3.788,3.788,0,0,1-.6.2,6.975,6.975,0,0,1-.679.18,13.18,13.18,0,0,1-3.324.246,29.835,29.835,0,0,1-8.9-2.025A66.755,66.755,0,0,1,83.005,102.5a104.672,104.672,0,0,1-12.02-8.414A119.417,119.417,0,0,1,58.64,82.608c-2.019-2.182-4-4.49-5.908-6.954a73.18,73.18,0,0,1-5.355-7.867,39.463,39.463,0,0,1-4-9.015,16.642,16.642,0,0,1-.691-5,9.58,9.58,0,0,1,.427-2.53A7.02,7.02,0,0,1,44.4,49a6.948,6.948,0,0,1,2.08-1.563,9.616,9.616,0,0,1,2.458-.715,16.7,16.7,0,0,1,5.049.126,39.541,39.541,0,0,1,9.4,2.945A73.51,73.51,0,0,1,71.8,54.216c2.663,1.611,5.187,3.318,7.579,5.079A120.1,120.1,0,0,1,92.219,70.275a104.693,104.693,0,0,1,9.743,10.987,66.232,66.232,0,0,1,6.527,10.217,29.7,29.7,0,0,1,3.005,8.613,13.09,13.09,0,0,1,.138,3.33,4.772,4.772,0,0,1-.1.691,4.876,4.876,0,0,1-.132.631c-.06.192-.114.385-.162.559a4.563,4.563,0,0,1-.2.487,4.946,4.946,0,0,1-.4.781c-.066.108-.12.21-.174.295l-.18.222Z" transform="translate(-31.077 -40.492)" fill="#7e5ee3"/>
      <path id="Trazado_148208" data-name="Trazado 148208" d="M116.5,88.571a4.054,4.054,0,0,0-.048-.511v-.282a2,2,0,0,0-.072-.337,4.694,4.694,0,0,0-.228-.841c-.054-.15-.108-.319-.18-.493l-.252-.517a3.781,3.781,0,0,0-.325-.553,5.341,5.341,0,0,0-.385-.6,12.747,12.747,0,0,0-2.32-2.4,29.709,29.709,0,0,0-7.982-4.369,67.044,67.044,0,0,0-11.648-3.24,104.709,104.709,0,0,0-14.587-1.629,119.316,119.316,0,0,0-16.829.367c-2.957.282-5.968.691-9.015,1.262a73.374,73.374,0,0,0-9.208,2.3A39.362,39.362,0,0,0,34.5,80.764a16.432,16.432,0,0,0-3.81,3.227,9.31,9.31,0,0,0-1.334,2.128,6.01,6.01,0,0,0,0,4.9,9.31,9.31,0,0,0,1.334,2.128,16.606,16.606,0,0,0,3.8,3.233,39.282,39.282,0,0,0,8.931,4.063,74.2,74.2,0,0,0,9.208,2.308c3.053.6,6.064.974,9.015,1.256a119.4,119.4,0,0,0,16.829.367,103.711,103.711,0,0,0,14.563-1.683,67.679,67.679,0,0,0,11.654-3.233,29.757,29.757,0,0,0,7.982-4.424,12.747,12.747,0,0,0,2.32-2.4,6.508,6.508,0,0,0,.391-.6,4.344,4.344,0,0,0,.319-.553l.258-.517c.066-.174.12-.337.174-.493a4.693,4.693,0,0,0,.228-.841,1.847,1.847,0,0,1,.072-.337,1.475,1.475,0,0,0,0-.282c.03-.337.048-.511.048-.511v.8a1.949,1.949,0,0,1-.066.337,4.207,4.207,0,0,1-.222.847c-.054.156-.1.325-.174.5s-.162.343-.252.523a4.027,4.027,0,0,1-.319.559,6.49,6.49,0,0,1-.385.6,13,13,0,0,1-2.32,2.4,29.751,29.751,0,0,1-7.988,4.418,67.088,67.088,0,0,1-11.66,3.27,103.924,103.924,0,0,1-14.587,1.707,119.6,119.6,0,0,1-16.829-.349c-2.957-.276-5.98-.685-9.015-1.256a72.723,72.723,0,0,1-9.232-2.308,39.4,39.4,0,0,1-8.979-4.057,16.63,16.63,0,0,1-3.847-3.27,9.616,9.616,0,0,1-1.364-2.176,6.984,6.984,0,0,1-.535-2.53,6.864,6.864,0,0,1,.541-2.524,9.394,9.394,0,0,1,1.364-2.176,16.751,16.751,0,0,1,3.774-3.2,39.481,39.481,0,0,1,8.973-4.057,73.236,73.236,0,0,1,9.232-2.314c3.059-.6,6.082-.974,9.015-1.256a119.6,119.6,0,0,1,16.829-.349,102.909,102.909,0,0,1,14.581,1.713A66.637,66.637,0,0,1,104.733,77.6a29.75,29.75,0,0,1,7.988,4.411,13,13,0,0,1,2.32,2.4,6.484,6.484,0,0,1,.385.6,4.869,4.869,0,0,1,.319.559l.252.529c.072.168.12.337.174.493a4.339,4.339,0,0,1,.222.847,2.034,2.034,0,0,0,.066.343v.282C116.5,88.421,116.5,88.571,116.5,88.571Z" transform="translate(-25.501 -50.824)" fill="#7e5ee3"/>
      <path id="Trazado_148209" data-name="Trazado 148209" d="M110.459,37.837l-.427-.276-.234-.18c-.09-.054-.2-.1-.307-.15a4.929,4.929,0,0,0-.805-.337l-.5-.162-.571-.114a4,4,0,0,0-.631-.084,6.347,6.347,0,0,0-.691-.048,13.078,13.078,0,0,0-3.3.379,29.739,29.739,0,0,0-8.342,3.606,66.875,66.875,0,0,0-9.694,7.212A103.45,103.45,0,0,0,74.7,58.223,118.553,118.553,0,0,0,64.679,71.746c-1.587,2.506-3.113,5.139-4.532,7.9a72.642,72.642,0,0,0-3.841,8.691,39.15,39.15,0,0,0-2.284,9.532,16.528,16.528,0,0,0,.222,4.982,9.472,9.472,0,0,0,.859,2.356,6.052,6.052,0,0,0,3.871,3.005,9.208,9.208,0,0,0,2.5.246,16.48,16.48,0,0,0,4.88-1.022,39.254,39.254,0,0,0,8.667-4.586,72.023,72.023,0,0,0,7.465-5.866c2.326-2.061,4.49-4.207,6.521-6.359a118.916,118.916,0,0,0,10.6-13.072,104.1,104.1,0,0,0,7.621-12.525,67.159,67.159,0,0,0,4.58-11.191,29.943,29.943,0,0,0,1.43-8.985,12.982,12.982,0,0,0-.457-3.288c-.048-.234-.15-.445-.216-.661a4.311,4.311,0,0,0-.24-.6q-.132-.27-.252-.523c-.1-.156-.192-.3-.282-.439a4.382,4.382,0,0,0-.523-.7c-.078-.09-.15-.186-.222-.258l-.21-.192-.379-.349s.138.108.391.337l.216.186c.072.072.144.162.228.258a4.7,4.7,0,0,1,.535.691c.09.138.192.282.282.445s.168.337.258.523a3.463,3.463,0,0,1,.246.6c.072.216.174.427.228.661a13.084,13.084,0,0,1,.475,3.306,29.823,29.823,0,0,1-1.406,9.015,66.48,66.48,0,0,1-4.562,11.221,102.935,102.935,0,0,1-7.585,12.561,117.8,117.8,0,0,1-10.6,13.108c-2.031,2.17-4.207,4.309-6.527,6.377a73.175,73.175,0,0,1-7.483,5.878,38.994,38.994,0,0,1-8.709,4.61,16.583,16.583,0,0,1-4.94,1.04,9.652,9.652,0,0,1-2.554-.252,7.086,7.086,0,0,1-2.326-1.13,6.978,6.978,0,0,1-1.665-1.983,9.526,9.526,0,0,1-.884-2.4,16.552,16.552,0,0,1-.222-5.043,39.4,39.4,0,0,1,2.29-9.58,73.526,73.526,0,0,1,3.835-8.709c1.424-2.771,2.951-5.409,4.544-7.909A119,119,0,0,1,74.572,58.115,103.6,103.6,0,0,1,84.862,47.633a66.111,66.111,0,0,1,9.731-7.212,29.54,29.54,0,0,1,8.414-3.606,12.838,12.838,0,0,1,3.312-.367,6.31,6.31,0,0,1,.7.054,4.172,4.172,0,0,1,.637.09l.6.12c.18.054.343.114.5.168a4.911,4.911,0,0,1,.805.343c.108.06.216.1.307.156l.234.162Z" transform="translate(-35.494 -36.446)" fill="#7e5ee3"/>
      <path id="Trazado_148210" data-name="Trazado 148210" d="M26.153,129.07A1.623,1.623,0,1,1,25,128.588a1.629,1.629,0,0,1,1.154.482Z" transform="translate(-23.37 -73.209)" fill="#7e5ee3"/>
      <path id="Trazado_148211" data-name="Trazado 148211" d="M178.838,44.279a1.629,1.629,0,1,1-1.629-1.629A1.629,1.629,0,0,1,178.838,44.279Z" transform="translate(-84.098 -38.921)" fill="#7e5ee3"/>
      <path id="Trazado_148212" data-name="Trazado 148212" d="M44.529,138.025a.415.415,0,1,1-.415-.415A.415.415,0,0,1,44.529,138.025Z" transform="translate(-31.481 -76.808)" fill="#7e5ee3"/>
      <path id="Trazado_148213" data-name="Trazado 148213" d="M59.239,62.045a.415.415,0,1,1-.415-.415A.415.415,0,0,1,59.239,62.045Z" transform="translate(-37.35 -46.494)" fill="#7e5ee3"/>
      <path id="Trazado_148214" data-name="Trazado 148214" d="M166.779,98.975a.415.415,0,1,1-.415-.415A.415.415,0,0,1,166.779,98.975Z" transform="translate(-80.256 -61.228)" fill="#7e5ee3"/>
      <path id="Trazado_148215" data-name="Trazado 148215" d="M176.349,66.849a.415.415,0,1,1-.415-.409.409.409,0,0,1,.415.409Z" transform="translate(-84.074 -48.413)" fill="#7e5ee3"/>
    </g>
  </g>
</svg>
