<svg xmlns="http://www.w3.org/2000/svg" width="307.175" height="152.535" viewBox="0 0 307.175 152.535">
  <g id="Justice-amico" transform="translate(-6.29 -249.84)">
    <g id="freepik--Floor--inject-124" transform="translate(6.29 249.84)" opacity="0.2">
      <ellipse id="freepik--floor--inject-124-2" data-name="freepik--floor--inject-124" cx="153.587" cy="76.268" rx="153.587" ry="76.268" fill="#727997"/>
    </g>
    <g id="freepik--Shadows--inject-124" transform="translate(40.384 303.514)" opacity="0.42">
      <path id="freepik--Shadow--inject-124" d="M72.526,381.022l-10.379-6-10.764,6.214,1.8-5.205L42.415,378.1l12.554-7.254L14.863,347.722a.7.7,0,0,1,0-1.323l75.379-43.32a2.521,2.521,0,0,1,2.294,0l57.544,33.174a.7.7,0,0,1,0,1.323L74.82,381.022A2.521,2.521,0,0,1,72.526,381.022Z" transform="translate(-14.39 -302.802)" fill="#b0c0d2"/>
      <ellipse id="freepik--shadow--inject-124-2" data-name="freepik--shadow--inject-124" cx="46.301" cy="26.733" rx="46.301" ry="26.733" transform="translate(154.482 6.932)" fill="#b0c0d2"/>
    </g>
    <g id="freepik--Book--inject-124" transform="translate(44.739 271.272)">
      <g id="freepik--Books--inject-124" transform="translate(0 0)">
        <path id="Trazado_151022" data-name="Trazado 151022" d="M95.868,415.642l1.809-1.046a2.942,2.942,0,0,0-1.519-.107C95.679,414.715,95.868,415.642,95.868,415.642Z" transform="translate(-47.601 -311.423)"/>
        <path id="Trazado_151023" data-name="Trazado 151023" d="M93.677,408.83a2.2,2.2,0,0,1,3.233,0c1.758,1.613,1.853,3.22,2.584,3.2s.718-12.926.718-12.926l-6.932,6.46Z" transform="translate(-46.657 -305.752)"/>
        <path id="Trazado_151024" data-name="Trazado 151024" d="M139.121,323.462l.113-.063-1.115-.63L90.179,295.09,20.321,340.282c-1.153.668-1.361,1.632-.46,2.149l1.639.939,44.814,25.889.315-.233Z" transform="translate(-19.3 -267.29)" fill="#455a64"/>
        <path id="Trazado_151025" data-name="Trazado 151025" d="M101.352,388.992l-3.472-.712v13.9c2.092.889,3.422,1.727,3.643,3.479Z" transform="translate(-48.358 -301.751)" fill="#727997"/>
        <path id="Trazado_151026" data-name="Trazado 151026" d="M68.574,386.125l-44.392-25.6a3.088,3.088,0,0,1-1.393-2.414V344.38l44.82,26.1A4.037,4.037,0,0,0,69.734,373c1.588.586.378,1.26.378,1.26v11.684C68.738,385.778,68.574,386.125,68.574,386.125Z" transform="translate(-20.591 -285.517)" fill="#ebebeb"/>
        <path id="Trazado_151027" data-name="Trazado 151027" d="M98.719,362.53c-.46-.265-.819-.284-.819-.031v.435c0,.479-.737.454-1.645-.069s-1.645-1.336-1.645-1.815v-.435c0-.252-.63-.807-1.38-1.26L165.458,318l1.115.63a1.034,1.034,0,0,1,.277.6v.435c0,.479.731,1.292,1.632,1.815s1.645.548,1.645.069v-.435c0-.252.359-.233.819.031Z" transform="translate(-46.639 -275.762)" fill="#37474f"/>
        <path id="Trazado_151028" data-name="Trazado 151028" d="M139.121,302.452l.113-.063-1.115-.63L90.179,274.08,20.321,314.413c-1.153.662-1.361,1.626-.46,2.143l1.639.939,44.82,26.992Z" transform="translate(-19.3 -259.52)" fill="#455a64"/>
        <path id="Trazado_151029" data-name="Trazado 151029" d="M172.921,322.26,100.75,363.929l2.521,1.979,71.938-41.537a2.8,2.8,0,0,0-.964-1.342Z" transform="translate(-49.42 -277.337)" fill="#455a64"/>
        <path id="Trazado_151030" data-name="Trazado 151030" d="M176.237,344.277l.132-.095a.308.308,0,0,0,.082-.076,1.211,1.211,0,0,0,.145-.2.575.575,0,0,0,.069-.1,1.677,1.677,0,0,0,.183-.4,3.648,3.648,0,0,0,.145-.466c.044-.176.076-.353.107-.548a1.89,1.89,0,0,0,.038-.328V329.246a9.9,9.9,0,0,0-.668-3.636l-71.888,41.537-.3,18.679,71.932-41.537Z" transform="translate(-50.725 -278.576)" fill="#455a64"/>
        <path id="Trazado_151031" data-name="Trazado 151031" d="M104.76,367.147h0s56.656-26.519,61.811-28.945c3.4-1.607,3.006,2.414.63,5.521-1.891,2.483-18.578,16.6-18.578,16.6l18.509-10.714,9.258-5.344h0l.132-.095a.309.309,0,0,0,.082-.076,1.211,1.211,0,0,0,.145-.2.572.572,0,0,0,.069-.1,1.676,1.676,0,0,0,.183-.4,3.647,3.647,0,0,0,.145-.466c.044-.176.076-.353.107-.548a1.888,1.888,0,0,0,.038-.328V329.246a9.9,9.9,0,0,0-.668-3.636Z" transform="translate(-50.903 -278.576)" opacity="0.1"/>
        <path id="Trazado_151032" data-name="Trazado 151032" d="M73.825,376.145H72.212a7.273,7.273,0,0,0-.781-3.517,2.149,2.149,0,0,1-1.317.435,4.21,4.21,0,0,1-2-.63,6.176,6.176,0,0,1-1.891-1.632c-.032-.05-.069-.094-.095-.145a2.672,2.672,0,0,1-.485-1.38L23.151,344.729l-1.443-.838-1.847-1.059A.977.977,0,0,1,19.3,342V340.11a1,1,0,0,0,.561.857h0l4.922,2.855L65.9,367.562c.763.447,1.393,1,1.393,1.26v.435a1.336,1.336,0,0,0,.378.763,4.588,4.588,0,0,0,1.26,1.052c.914.523,1.645.548,1.645.063V370.7c0-.246.359-.233.819.038l.813.473C73.088,371.7,73.825,373.927,73.825,376.145Z" transform="translate(-19.3 -283.938)" fill="#37474f"/>
        <path id="Trazado_151033" data-name="Trazado 151033" d="M72.212,386.78V399.2l-.044.4a.107.107,0,0,1,0,.044,4.676,4.676,0,0,0-2.433-3.031,4.1,4.1,0,0,0-1.966-.63,2.124,2.124,0,0,0-1.437.536l-.145-.082-.284-.17L24.783,372.544l-2.357-1.355-.674-.4-2.01-1.153a.945.945,0,0,1-.441-.769v1.891a.914.914,0,0,0,.441.712h0l.731.429.46.265c.271.151.536.315.788.46s.34.2.492.277l.347.2.63.359,32.664,18.843,10.424,6.025c.744.435,1.349.586,1.386.359a.39.39,0,0,0,0-.076v-.422c0-.523.731-.523,1.639,0a2.193,2.193,0,0,1,1.26,1.645v.517a.769.769,0,0,0,.239.63l.246.132.51.3.63.372a.63.63,0,0,0,.813-.076.282.282,0,0,0,.082-.069.874.874,0,0,0,.145-.2h0a.628.628,0,0,0,.076-.1,2.37,2.37,0,0,0,.183-.4,3.364,3.364,0,0,0,.145-.466c.038-.176.069-.353.107-.548a2.6,2.6,0,0,0,.038-.328V386.78Z" transform="translate(-19.3 -294.573)" fill="#37474f"/>
        <path id="Trazado_151034" data-name="Trazado 151034" d="M148.127,307.39,79.756,346.866l-51.677-29.84a.85.85,0,0,1,0-1.613L95.731,276.34l45.413,26.254h0l1.122.63a1.046,1.046,0,0,1,.271.6v.435c0,.479.737,1.292,1.639,1.821a1.031,1.031,0,0,0,.145.069l1.506-.87.712.41.1.05h0l.536.309a2.786,2.786,0,0,1,.952,1.342Z" transform="translate(-22.331 -260.356)" opacity="0.1"/>
        <path id="Trazado_151035" data-name="Trazado 151035" d="M34.427,340.464l2.054-1.1-1.891-.447a1.405,1.405,0,0,0-.164,1.544Z" transform="translate(-24.835 -283.498)" fill="#727997"/>
        <path id="Trazado_151036" data-name="Trazado 151036" d="M34.427,340.464l2.054-1.1-1.891-.447a1.405,1.405,0,0,0-.164,1.544Z" transform="translate(-24.835 -283.498)" opacity="0.5"/>
        <path id="Trazado_151037" data-name="Trazado 151037" d="M90.988,345.012a4.62,4.62,0,0,1-4.185,0l-46.963-27.1,70.3-39.93,1.645-.983,46.963,26.469a1.274,1.274,0,0,1,0,2.414Z" transform="translate(-26.896 -260.6)" fill="#727997"/>
        <path id="Trazado_151038" data-name="Trazado 151038" d="M69.932,304.69l-16.385,9.453-10.606-6.126-12.321,7.1v8.23c0,1.078,1.21,2.609,1.651,2.357a11.9,11.9,0,0,1,2.37.838,17.569,17.569,0,0,1,3.4,2.521L75.68,308Z" transform="translate(-23.486 -270.84)" fill="#727997"/>
        <path id="Trazado_151039" data-name="Trazado 151039" d="M69.932,304.69l-16.385,9.453-10.606-6.126-12.321,7.1v8.23c0,1.078,1.21,2.609,1.651,2.357a11.9,11.9,0,0,1,2.37.838,17.569,17.569,0,0,1,3.4,2.521L75.68,308Z" transform="translate(-23.486 -270.84)" opacity="0.15"/>
        <path id="Trazado_151040" data-name="Trazado 151040" d="M39.326,321.634v8.943l-.145-.088a4.2,4.2,0,0,0-2-.63,2.067,2.067,0,0,0-1.317.309V319.63Z" transform="translate(-25.424 -276.365)" fill="#37474f"/>
        <path id="Trazado_151041" data-name="Trazado 151041" d="M43.647,334.838a2.76,2.76,0,0,0-.592-1.525,4.739,4.739,0,0,0-.58-.662l-.2-.189-.258-.221-.214-.158a5.5,5.5,0,0,0-.466-.315v-8.9l2.307,1.342v10.625Z" transform="translate(-27.45 -277.563)" fill="#e0e0e0"/>
        <path id="Trazado_151042" data-name="Trazado 151042" d="M30.62,329.215c0,1.078,1.21,2.609,1.651,2.357h0l1.645-1.071v-6.787l-1.651-2.842-.895-.321-.75.435Z" transform="translate(-23.486 -276.705)" opacity="0.4"/>
        <path id="Trazado_151043" data-name="Trazado 151043" d="M90.8,351.353v10.165a2.823,2.823,0,0,1-1.393-.328l-5.155-2.975L45,335.586V324.91Z" transform="translate(-28.804 -278.317)" fill="#ebebeb"/>
        <path id="Trazado_151044" data-name="Trazado 151044" d="M49.72,335.75,60.7,342.1s-1.141-1.191-5.489-3.674C50.98,336.008,49.72,335.75,49.72,335.75Z" transform="translate(-30.549 -282.326)" opacity="0.15"/>
        <path id="Trazado_151045" data-name="Trazado 151045" d="M186.329,306.1v7.7a3.088,3.088,0,0,1-1.393,2.414l-60.771,35.071-5.142,2.975a2.842,2.842,0,0,1-1.393.328v-9.043Z" transform="translate(-55.662 -271.361)" fill="#f5f5f5"/>
        <path id="Trazado_151046" data-name="Trazado 151046" d="M108.155,255.883l-70.3,40.592v.945c0,.523-.737.712-1.639.189s-1.639-1.172-1.639-2.073l-.088-.9,71.629-41.354.29-.17a.92.92,0,0,1,.12.435v.435C106.529,254.509,107.285,255.347,108.155,255.883Z" transform="translate(-24.917 -251.766)" fill="#727997"/>
        <path id="Trazado_151047" data-name="Trazado 151047" d="M108.155,255.883l-70.3,40.592v.945c0,.523-.737.712-1.639.189s-1.639-1.172-1.639-2.073l-.088-.9,71.629-41.354.29-.17a.92.92,0,0,1,.12.435v.435C106.529,254.509,107.285,255.347,108.155,255.883Z" transform="translate(-24.917 -251.766)" opacity="0.1"/>
        <path id="Trazado_151048" data-name="Trazado 151048" d="M86.615,324.895,40.692,298.344c-.586-.3-1.115-.548-1.342-.429l.3-.17,70.3-40.592.826-.479a2.639,2.639,0,0,1,2.212.334L158.56,283.3a1.274,1.274,0,0,1,0,2.414l-67.753,39.18A4.619,4.619,0,0,1,86.615,324.895Z" transform="translate(-26.714 -253.037)" fill="#727997"/>
        <path id="Trazado_151052" data-name="Trazado 151052" d="M91.08,323.19a.51.51,0,0,1-.227-.063l-34.5-19.858a.447.447,0,0,1,0-.781,2.1,2.1,0,0,0,0-3.649.441.441,0,0,1-.227-.384.46.46,0,0,1,.227-.4l57.595-33.243a.441.441,0,0,1,.447,0,7.266,7.266,0,0,0,7.216,0,.441.441,0,0,1,.447,0L156.5,284.7a.447.447,0,0,1,.221.391.454.454,0,0,1-.221.391,2.1,2.1,0,0,0,0,3.643.454.454,0,0,1,.221.391.447.447,0,0,1-.221.391L98.964,323.121a.447.447,0,0,1-.454,0,7.241,7.241,0,0,0-7.2,0A.473.473,0,0,1,91.08,323.19ZM57.4,302.828,91.086,322.22a8.148,8.148,0,0,1,7.644,0l56.719-32.771a3.012,3.012,0,0,1,0-4.323l-33.634-19.417a8.155,8.155,0,0,1-7.657,0L57.376,298.48a3.012,3.012,0,0,1,0,4.33Z" transform="translate(-32.918 -256.071)" fill="#fff"/>
        <path id="Trazado_151053" data-name="Trazado 151053" d="M104.56,252.328l-.29.17L32.641,293.846a.567.567,0,0,0-.158-.2l-.239-.139-.542-.3-.63-.372a.662.662,0,0,0-.813.076.158.158,0,0,0-.076.069,1.386,1.386,0,0,0-.221.3,1.964,1.964,0,0,0-.183.4,3.366,3.366,0,0,0-.145.466c-.044.176-.076.353-.107.542a1.935,1.935,0,0,0-.038.334v-1.122a4.292,4.292,0,0,1,2.061-3.22l67.766-39.13a4.209,4.209,0,0,1,3.731-.265l.851.5h.032l.366.208h0A.687.687,0,0,1,104.56,252.328Z" transform="translate(-23.068 -250.977)" fill="#727997"/>
        <path id="Trazado_151054" data-name="Trazado 151054" d="M82.951,365.521l-2.836-1.645-42.52-24.547a2.729,2.729,0,0,0-.58-1.525,6.081,6.081,0,0,0-1.891-1.632,4.21,4.21,0,0,0-2-.63,2.162,2.162,0,0,0-1.323.435,7.329,7.329,0,0,1-.744-3.516H29.44c0,2.225.731,4.456,1.632,4.966l.813.479c.46.265.826.284.826,0v-.435c0-.485.731-.46,1.639.063s1.639,1.336,1.639,1.821v.435c0,.246.63.807,1.393,1.26L78.5,364.79l4.456,2.571h0a4.412,4.412,0,0,0,2.086.492v-1.891A4.21,4.21,0,0,1,82.951,365.521Z" transform="translate(-23.05 -281.109)" fill="#727997"/>
        <path id="Trazado_151055" data-name="Trazado 151055" d="M82.951,365.521l-2.836-1.645-42.52-24.547a2.729,2.729,0,0,0-.58-1.525,6.081,6.081,0,0,0-1.891-1.632,4.21,4.21,0,0,0-2-.63,2.162,2.162,0,0,0-1.323.435,7.329,7.329,0,0,1-.744-3.516H29.44c0,2.225.731,4.456,1.632,4.966l.813.479c.46.265.826.284.826,0v-.435c0-.485.731-.46,1.639.063s1.639,1.336,1.639,1.821v.435c0,.246.63.807,1.393,1.26L78.5,364.79l4.456,2.571h0a4.412,4.412,0,0,0,2.086.492v-1.891A4.21,4.21,0,0,1,82.951,365.521Z" transform="translate(-23.05 -281.109)" opacity="0.3"/>
        <path id="Trazado_151056" data-name="Trazado 151056" d="M83.011,347.317h0l-2.836-1.645L47.487,326.8l-10.43-6.025c-.737-.435-1.342-.586-1.38-.366h0v.479c0,.523-.731.523-1.632,0a2.187,2.187,0,0,1-1.26-1.645v-.517a.75.75,0,0,0-.246-.63l-.239-.139c-.145-.076-.321-.183-.517-.3l-.63-.372a.662.662,0,0,0-.813.076.157.157,0,0,0-.076.069.877.877,0,0,0-.145.2.328.328,0,0,0-.076.107,1.967,1.967,0,0,0-.183.4,3.366,3.366,0,0,0-.145.466c-.044.176-.076.353-.107.542a1.935,1.935,0,0,0-.038.334v7.285H31.1v-6.85l.038-.4a.063.063,0,0,1,0-.044,4.676,4.676,0,0,0,2.433,3.031,4.071,4.071,0,0,0,1.96.63,2.143,2.143,0,0,0,1.443-.536l.145.082.284.17,41.115,23.74,4.456,2.571h0a4.349,4.349,0,0,0,2.054.473v-1.859a4.317,4.317,0,0,1-2.017-.46Z" transform="translate(-23.098 -275.46)" fill="#727997"/>
        <path id="Trazado_151057" data-name="Trazado 151057" d="M83.011,347.317h0l-2.836-1.645L47.487,326.8l-10.43-6.025c-.737-.435-1.342-.586-1.38-.366h0v.479c0,.523-.731.523-1.632,0a2.187,2.187,0,0,1-1.26-1.645v-.517a.75.75,0,0,0-.246-.63l-.239-.139c-.145-.076-.321-.183-.517-.3l-.63-.372a.662.662,0,0,0-.813.076.157.157,0,0,0-.076.069.877.877,0,0,0-.145.2.328.328,0,0,0-.076.107,1.967,1.967,0,0,0-.183.4,3.366,3.366,0,0,0-.145.466c-.044.176-.076.353-.107.542a1.935,1.935,0,0,0-.038.334v7.285H31.1v-6.85l.038-.4a.063.063,0,0,1,0-.044,4.676,4.676,0,0,0,2.433,3.031,4.071,4.071,0,0,0,1.96.63,2.143,2.143,0,0,0,1.443-.536l.145.082.284.17,41.115,23.74,4.456,2.571h0a4.349,4.349,0,0,0,2.054.473v-1.859a4.317,4.317,0,0,1-2.017-.46Z" transform="translate(-23.098 -275.46)" opacity="0.3"/>
        <path id="Trazado_151058" data-name="Trazado 151058" d="M188.393,300.91V302.8a1.443,1.443,0,0,1-.832,1.191h-.032l-63.342,36.571-4.411,2.565h0a4.324,4.324,0,0,1-2.086.492V341.76a4.21,4.21,0,0,0,2.086-.46l2.823-1.632h0l64.911-37.5A1.437,1.437,0,0,0,188.393,300.91Z" transform="translate(-55.684 -269.442)" fill="#727997"/>
        <path id="Trazado_151059" data-name="Trazado 151059" d="M188.393,300.91V302.8a1.443,1.443,0,0,1-.832,1.191h-.032l-63.342,36.571-4.411,2.565h0a4.324,4.324,0,0,1-2.086.492V341.76a4.21,4.21,0,0,0,2.086-.46l2.823-1.632h0l64.911-37.5A1.437,1.437,0,0,0,188.393,300.91Z" transform="translate(-55.684 -269.442)" opacity="0.2"/>
        <path id="Trazado_151060" data-name="Trazado 151060" d="M188.393,320.87v1.891a1.449,1.449,0,0,1-.832,1.191h-.032l-63.342,36.571-4.411,2.571h0a4.411,4.411,0,0,1-2.086.492v-1.891a4.209,4.209,0,0,0,2.092-.5l2.823-1.632h0l64.911-37.5A1.437,1.437,0,0,0,188.393,320.87Z" transform="translate(-55.684 -276.823)" fill="#727997"/>
        <path id="Trazado_151061" data-name="Trazado 151061" d="M188.393,320.87v1.891a1.449,1.449,0,0,1-.832,1.191h-.032l-63.342,36.571-4.411,2.571h0a4.411,4.411,0,0,1-2.086.492v-1.891a4.209,4.209,0,0,0,2.092-.5l2.823-1.632h0l64.911-37.5A1.437,1.437,0,0,0,188.393,320.87Z" transform="translate(-55.684 -276.823)" opacity="0.2"/>
        <path id="Trazado_151062" data-name="Trazado 151062" d="M52.63,337.43V362.8l3.661-4.229,3.661,8.457V341.659Z" transform="translate(-31.625 -282.947)" fill="#727997"/>
        <path id="Trazado_151063" data-name="Trazado 151063" d="M52.63,337.43V362.8l3.661-4.229,3.661,8.457V341.659Z" transform="translate(-31.625 -282.947)" opacity="0.5"/>
        <path id="Trazado_151064" data-name="Trazado 151064" d="M71.252,389.75v6.882a6.4,6.4,0,0,1-3.188,5.533l-9.624,5.553,9.176-1.052-1.853,5.3,9.623-5.552a6.4,6.4,0,0,0,3.189-5.533v-6.9Z" transform="translate(-33.774 -302.295)" fill="#727997"/>
        <path id="Trazado_151065" data-name="Trazado 151065" d="M71.252,389.75v6.882a6.4,6.4,0,0,1-3.188,5.533l-9.624,5.553,9.176-1.052-1.853,5.3,9.623-5.552a6.4,6.4,0,0,0,3.189-5.533v-6.9Z" transform="translate(-33.774 -302.295)" opacity="0.5"/>
        <path id="Trazado_151066" data-name="Trazado 151066" d="M75.39,387.8l10.984,6.346a29.563,29.563,0,0,0-5.489-3.7C76.657,388.058,75.39,387.8,75.39,387.8Z" transform="translate(-40.042 -301.573)" opacity="0.15"/>
      </g>
    </g>
    <g id="freepik--Gavel--inject-124" transform="translate(153.67 259.932)">
      <g id="freepik--Mullet--inject-124">
        <g id="freepik--Base--inject-124" transform="translate(47.996 42.492)">
          <path id="Trazado_151067" data-name="Trazado 151067" d="M412.072,330.13c-16.385-9.453-43.018-9.453-59.428,0-8.193,4.739-12.283,10.947-12.264,17.154v6.428c0,6.208,4.059,12.415,12.264,17.154,16.385,9.453,43.018,9.453,59.428,0,8.193-4.739,12.283-10.947,12.27-17.154v-6.428C424.355,341.077,420.284,334.869,412.072,330.13Z" transform="translate(-340.336 -320.784)" fill="#727997"/>
          <path id="Trazado_151068" data-name="Trazado 151068" d="M412.072,330.13c-16.385-9.453-43.018-9.453-59.428,0-8.193,4.739-12.283,10.947-12.264,17.154v6.428c0,6.208,4.059,12.415,12.264,17.154,16.385,9.453,43.018,9.453,59.428,0,8.193-4.739,12.283-10.947,12.27-17.154v-6.428C424.355,341.077,420.284,334.869,412.072,330.13Z" transform="translate(-340.336 -320.784)" opacity="0.5"/>
          <ellipse id="Elipse_4701" data-name="Elipse 4701" cx="42.022" cy="24.263" rx="42.022" ry="24.263" transform="translate(0 2.237)" fill="#727997"/>
          <ellipse id="Elipse_4702" data-name="Elipse 4702" cx="42.022" cy="24.263" rx="42.022" ry="24.263" transform="translate(0 2.237)" opacity="0.35"/>
          <path id="Trazado_151069" data-name="Trazado 151069" d="M410.863,324.874c-12.5-7.216-32.771-7.216-45.287,0-6.252,3.611-9.359,8.344-9.346,13.077v4.254c0,4.733,3.094,9.453,9.346,13.077,12.51,7.216,32.771,7.216,45.287,0,6.258-3.611,9.359-8.344,9.352-13.077v-4.254C420.221,333.218,417.12,328.485,410.863,324.874Z" transform="translate(-346.197 -319.461)" fill="#727997"/>
          <path id="Trazado_151070" data-name="Trazado 151070" d="M410.863,324.874c-12.5-7.216-32.771-7.216-45.287,0-6.252,3.611-9.359,8.344-9.346,13.077v4.254c0,4.733,3.094,9.453,9.346,13.077,12.51,7.216,32.771,7.216,45.287,0,6.258-3.611,9.359-8.344,9.352-13.077v-4.254C420.221,333.218,417.12,328.485,410.863,324.874Z" transform="translate(-346.197 -319.461)" opacity="0.15"/>
          <ellipse id="Elipse_4703" data-name="Elipse 4703" cx="32.021" cy="18.49" rx="32.021" ry="18.49" transform="translate(10.001)" fill="#455a64"/>
        </g>
        <g id="freepik--Mallet--inject-124">
          <path id="Trazado_151071" data-name="Trazado 151071" d="M333.626,297.331c-3.737-2.464-60.468-30.6-65.459-33.344s-4.38-7.3-3.151-9.384,4.361-3.781,8.722-1.431c2.842,1.525,63.178,38.222,63.178,38.222S338.907,294.129,333.626,297.331Z" transform="translate(-264.152 -252.034)" fill="#37474f"/>
          <path id="Trazado_151072" data-name="Trazado 151072" d="M331.885,297.106l4.166-.914a6.933,6.933,0,0,0,.479-.555c-3.781-1.853-23.74-11.659-44.745-23-23.267-12.6-27.729-15.755-25.668-18.515a5.263,5.263,0,0,0-1.078,1.26c-1.26,2.086-1.891,6.642,3.151,9.384C272.772,267.279,321.524,291.472,331.885,297.106Z" transform="translate(-264.151 -252.805)" fill="#263238"/>
          <path id="Trazado_151073" data-name="Trazado 151073" d="M433.442,274.563c-7.644-4.411-14.167-2.659-16.745,3.63-.492,1.2-2.388,5.792-2.842,6.932a14.318,14.318,0,0,0-.926,5.35c0,9.195,6.453,20.381,14.419,24.981a14.293,14.293,0,0,0,5.117,1.891l7.355.989c6.756.933,11.558-3.838,11.558-12.68C451.377,294.194,443.348,280.286,433.442,274.563Z" transform="translate(-319.167 -259.46)" fill="#37474f"/>
          <path id="Trazado_151074" data-name="Trazado 151074" d="M427.349,286.844c-7.966-4.6-14.419-.87-14.419,8.325s6.453,20.381,14.419,24.981,14.425.87,14.425-8.325S435.315,291.457,427.349,286.844Z" transform="translate(-319.169 -264.178)" fill="#263238"/>
          <path id="Trazado_151075" data-name="Trazado 151075" d="M388.529,289.4c2.8-1.607,6.655-1.374,10.928,1.09C408.065,295.406,415,307.443,415,317.337c0,4.941-1.739,8.407-4.544,10.02-.939.542-25.99,15.175-26.929,15.724-2.8,1.626-6.674,1.4-10.959-1.071-8.571-4.953-15.516-17.016-15.516-26.878,0-4.947,1.739-8.413,4.55-10.027C362.533,304.563,387.6,289.911,388.529,289.4Z" transform="translate(-298.504 -265.474)" fill="#727997"/>
          <path id="Trazado_151076" data-name="Trazado 151076" d="M388.529,289.4c2.8-1.607,6.655-1.374,10.928,1.09C408.065,295.406,415,307.443,415,317.337c0,4.941-1.739,8.407-4.544,10.02-.939.542-25.99,15.175-26.929,15.724-2.8,1.626-6.674,1.4-10.959-1.071-8.571-4.953-15.516-17.016-15.516-26.878,0-4.947,1.739-8.413,4.55-10.027C362.533,304.563,387.6,289.911,388.529,289.4Z" transform="translate(-298.504 -265.474)" opacity="0.3"/>
          <path id="Trazado_151077" data-name="Trazado 151077" d="M369.53,346.392l48.053-27.912a28.441,28.441,0,0,1,2.029,9.989c0,4.941-1.739,8.407-4.544,10.02-.939.542-25.99,15.175-26.929,15.724-2.8,1.626-6.674,1.4-10.959-1.071A28.5,28.5,0,0,1,369.53,346.392Z" transform="translate(-303.119 -276.605)" opacity="0.15"/>
          <path id="Trazado_151078" data-name="Trazado 151078" d="M372.556,315.356c-8.571-4.947-15.516-.939-15.516,8.955s6.932,21.931,15.516,26.878,15.516.939,15.516-8.955S381.126,320.3,372.556,315.356Z" transform="translate(-298.501 -274.666)" fill="#263238"/>
          <path id="Trazado_151079" data-name="Trazado 151079" d="M374.553,346.831c0-9.2-6.453-20.387-14.419-24.981a13.978,13.978,0,0,0-5.458-1.891c-.063,0-6.132-.693-7.443-.851-6.642-.807-11.344,3.958-11.344,12.7,0,11.438,8.029,25.347,17.929,31.063,7.562,4.361,14,2.7,16.65-3.4.536-1.229,2.521-5.874,3.038-6.989a14.022,14.022,0,0,0,1.046-5.659Z" transform="translate(-290.68 -276.805)" fill="#37474f"/>
          <path id="Trazado_151080" data-name="Trazado 151080" d="M353.819,321.414c-9.9-5.716-17.929-1.078-17.929,10.354s8.029,25.347,17.929,31.069,17.936,1.078,17.936-10.361S363.726,327.136,353.819,321.414Z" transform="translate(-290.68 -276.785)" fill="#455a64"/>
        </g>
      </g>
    </g>
  </g>
</svg>
