<svg xmlns="http://www.w3.org/2000/svg" width="303.806" height="302.242" viewBox="0 0 303.806 302.242">
  <g id="Judge-amico" transform="translate(-14.389 -23.47)">
    <g id="freepik--Floor--inject-100" transform="translate(16.928 152.487)">
      <path id="freepik--floor--inject-100-2" data-name="freepik--floor--inject-100" d="M275.441,247.214c-58.825-33.818-154.206-33.818-213.03,0s-58.825,88.669,0,122.494,154.206,33.818,213.03,0S334.266,281.039,275.441,247.214Z" transform="translate(-18.293 -221.85)" fill="#727997" opacity="0.46"/>
    </g>
    <g id="freepik--Plants--inject-100" transform="translate(14.389 174.947)">
      <g id="freepik--plants--inject-100-2" data-name="freepik--plants--inject-100" transform="translate(0 15.508)">
        <path id="Trazado_149998" data-name="Trazado 149998" d="M37.517,324.415l4.936-2.849s1.21-10.562.4-18.743c-1.132-11.5-8.552-25.364-17.41-22.112s4.058,14.958,6.933,24.714S37.517,324.415,37.517,324.415Z" transform="translate(-17.186 -280.23)" fill="#00bcd4"/>
        <path id="Trazado_149999" data-name="Trazado 149999" d="M37.517,324.415l4.936-2.849s1.21-10.562.4-18.743c-1.132-11.5-8.552-25.364-17.41-22.112s4.058,14.958,6.933,24.714S37.517,324.415,37.517,324.415Z" transform="translate(-17.186 -279.222)" opacity="0.15"/>
        <path id="Trazado_150000" data-name="Trazado 150000" d="M43,325.183h0a.3.3,0,0,1-.293-.312c.865-25.546-11.849-38.371-11.98-38.521a.3.3,0,0,1,.423-.423c.13.13,13.007,13.163,12.155,38.969a.3.3,0,0,1-.306.286Z" transform="translate(-20.074 -282.194)" fill="#fff"/>
        <path id="Trazado_150001" data-name="Trazado 150001" d="M31.617,334.262l3.512-2.023a38.69,38.69,0,0,0-2.959-16.057c-3.089-7.668-10.77-14.028-14.633-12.688s-3.766,4.071-1.88,6.946S28.99,320.156,31.617,334.262Z" transform="translate(-14.389 -288.301)" fill="#00bcd4"/>
        <path id="Trazado_150002" data-name="Trazado 150002" d="M35.3,334.655h0a.3.3,0,0,1-.3-.3c.072-16.155-15.095-27.068-15.251-27.178a.306.306,0,0,1-.072-.416.293.293,0,0,1,.416-.072c.156.111,15.576,11.206,15.5,27.666a.306.306,0,0,1-.3.3Z" transform="translate(-16.221 -289.461)" fill="#fff"/>
      </g>
      <g id="freepik--plants--inject-100-3" data-name="freepik--plants--inject-100" transform="translate(277.689)">
        <path id="Trazado_150003" data-name="Trazado 150003" d="M445.272,293.809l-3.9-2.023s.059-13.319,3.174-21.338c4.325-11.115,12.129-16.259,16.636-13.189,2.634,1.788,2.556,5.4-4.123,11.01C453.122,271.58,447.529,282.955,445.272,293.809Z" transform="translate(-441.37 -256.384)" fill="#00bcd4"/>
        <g id="Grupo_75951" data-name="Grupo 75951" transform="translate(0.428)" opacity="0.15">
          <path id="Trazado_150004" data-name="Trazado 150004" d="M445.272,293.809l-3.9-2.023s.059-13.319,3.174-21.338c4.325-11.115,12.129-16.259,16.636-13.189,2.634,1.788,2.556,5.4-4.123,11.01C453.122,271.58,447.529,282.955,445.272,293.809Z" transform="translate(-441.37 -256.384)"/>
        </g>
        <path id="Trazado_150005" data-name="Trazado 150005" d="M446.475,286.1h.033a.273.273,0,0,0,.286-.247c.871-11.258,7.869-22.275,13.859-26.014a.266.266,0,1,0-.286-.449c-6.1,3.818-13.222,15.01-14.106,26.437a.28.28,0,0,0,.215.273Z" transform="translate(-443.08 -257.418)" fill="#fff"/>
        <path id="Trazado_150006" data-name="Trazado 150006" d="M454.127,305.192c.475.429,2.289-.429,2.784-.65a5.326,5.326,0,0,0,2.159-1.606,4.93,4.93,0,0,0,1.067-2.836,11.411,11.411,0,0,0,0-1.632c-.039-.54-.072-1.073-.111-1.606a2.965,2.965,0,0,1,2.51-3.525,3.874,3.874,0,0,0,2.5-2.439,4.474,4.474,0,0,0-.527-2.842,25.707,25.707,0,0,1-1.3-2.419,3.1,3.1,0,0,1,.455-2.413c.436-.754,1.028-1.4,1.5-2.14s1.008-2.023.488-2.966c-1.171-2.107-3.512-2.036-5.5-1.236a26.269,26.269,0,0,1-3.98,1.606c-1.893.416-4.013,0-5.671.976a3.8,3.8,0,0,0-1.815,3.323c.039,1.236.689,2.5.267,3.661s-1.554,1.632-2.439,2.374a7.154,7.154,0,0,0-2.185,6.744,16.07,16.07,0,0,0,1.951,5.2S453.684,304.795,454.127,305.192Z" transform="translate(-442.349 -263.37)" fill="#00bcd4"/>
        <path id="Trazado_150007" data-name="Trazado 150007" d="M452.29,301.956h0a.267.267,0,0,0,.3-.208c1.717-9.846,8.656-19.621,12.682-22.028a.247.247,0,0,0,.091-.345.254.254,0,0,0-.345-.085c-4.11,2.452-11.186,12.357-12.929,22.372A.254.254,0,0,0,452.29,301.956Z" transform="translate(-445.116 -264.381)" fill="#fff"/>
        <path id="Trazado_150008" data-name="Trazado 150008" d="M458.7,296.043a.13.13,0,0,0,.072,0,33.345,33.345,0,0,1,7.336.4.254.254,0,0,0,.286-.208.241.241,0,0,0-.2-.293,34.47,34.47,0,0,0-7.46-.4.26.26,0,0,0-.234.273A.254.254,0,0,0,458.7,296.043Z" transform="translate(-447.359 -270.057)" fill="#fff"/>
      </g>
    </g>
    <g id="freepik--Stage--inject-100" transform="translate(30.57 142.407)">
      <g id="freepik--Pallet--inject-100" transform="translate(0)">
        <path id="Trazado_150009" data-name="Trazado 150009" d="M39.27,293.374l125.07,72.209,150.733-87.024L190,206.35Z" transform="translate(-39.27 -206.35)" fill="#455a64"/>
        <path id="Trazado_150010" data-name="Trazado 150010" d="M39.27,340.16v7.4l125.07,72.215v-7.408Z" transform="translate(-39.27 -253.136)" fill="#263238"/>
        <path id="Trazado_150011" data-name="Trazado 150011" d="M382.313,317.38v7.408L231.58,411.812V404.4Z" transform="translate(-106.51 -245.171)" fill="#37474f"/>
      </g>
    </g>
    <g id="freepik--Character--inject-100" transform="translate(90.358 68.274)">
      <g id="freepik--character--inject-100-2" data-name="freepik--character--inject-100">
        <g id="freepik--Chair--inject-100" transform="translate(5.17 24.899)">
          <path id="Trazado_150012" data-name="Trazado 150012" d="M177.6,324.281a2.958,2.958,0,0,0,.078.709,1.613,1.613,0,0,0,.65,1h0a1.853,1.853,0,0,0,1.951-.15,5.983,5.983,0,0,0,2.712-4.7,1.951,1.951,0,0,0-.767-1.717h0l-.13-.072h0a1.639,1.639,0,0,0-1.151-.046,2.883,2.883,0,0,0-.65.286A5.977,5.977,0,0,0,177.6,324.281Z" transform="translate(-152.594 -196.581)" fill="#37474f"/>
          <path id="Trazado_150013" data-name="Trazado 150013" d="M177.313,317.8a2.5,2.5,0,0,1,1.2-.364,1.444,1.444,0,0,1,.761.215l.072.039,1.743,1.008a1.639,1.639,0,0,0-1.151-.046,2.88,2.88,0,0,0-.65.286,5.977,5.977,0,0,0-2.705,4.683,2.959,2.959,0,0,0,.078.709,1.613,1.613,0,0,0,.65,1l-1.795-1.041h0l-.156-.091-.046-.033a2,2,0,0,1-.65-1.658A5.983,5.983,0,0,1,177.313,317.8Z" transform="translate(-151.565 -195.958)" fill="#263238"/>
          <path id="Trazado_150014" data-name="Trazado 150014" d="M222.65,300.009a3.4,3.4,0,0,0,.072.709,1.665,1.665,0,0,0,.65,1h0a1.879,1.879,0,0,0,1.951-.156,5.97,5.97,0,0,0,2.705-4.689,1.951,1.951,0,0,0-.761-1.717h0l-.13-.078h0a1.678,1.678,0,0,0-1.151-.046,3.253,3.253,0,0,0-.65.293,5.964,5.964,0,0,0-2.686,4.689Z" transform="translate(-168.345 -188.093)" fill="#37474f"/>
          <path id="Trazado_150015" data-name="Trazado 150015" d="M222.353,293.584a2.445,2.445,0,0,1,1.21-.364,1.385,1.385,0,0,1,.761.215l.072.033,1.743,1.008a1.678,1.678,0,0,0-1.151-.046,3.252,3.252,0,0,0-.65.293,5.964,5.964,0,0,0-2.705,4.683,3.4,3.4,0,0,0,.072.709,1.665,1.665,0,0,0,.65.995l-1.795-1.041h0l-.156-.091h-.046a2,2,0,0,1-.65-1.665A5.977,5.977,0,0,1,222.353,293.584Z" transform="translate(-167.313 -187.489)" fill="#263238"/>
          <path id="Trazado_150016" data-name="Trazado 150016" d="M211.708,333.69a3.376,3.376,0,0,1-.078.709,1.632,1.632,0,0,1-.65,1h0a1.867,1.867,0,0,1-1.951-.15,6,6,0,0,1-2.712-4.7,1.951,1.951,0,0,1,.767-1.717h0l.13-.078h0a1.736,1.736,0,0,1,1.158-.046,3.575,3.575,0,0,1,.65.293A5.964,5.964,0,0,1,211.708,333.69Z" transform="translate(-162.632 -199.87)" fill="#37474f"/>
          <path id="Trazado_150017" data-name="Trazado 150017" d="M211.435,327.264a2.5,2.5,0,0,0-1.2-.364,1.444,1.444,0,0,0-.761.215l-.072.039-1.749,1a1.736,1.736,0,0,1,1.158-.046,3.576,3.576,0,0,1,.65.293,5.964,5.964,0,0,1,2.705,4.683,3.373,3.373,0,0,1-.078.709,1.632,1.632,0,0,1-.65,1l1.788-1.041h.033l.156-.091h.046a2,2,0,0,0,.65-1.665A5.983,5.983,0,0,0,211.435,327.264Z" transform="translate(-163.101 -199.265)" fill="#263238"/>
          <path id="Trazado_150018" data-name="Trazado 150018" d="M240.951,319.365a3.4,3.4,0,0,1-.072.709,1.632,1.632,0,0,1-.65.989h0a1.873,1.873,0,0,1-1.951-.156,5.977,5.977,0,0,1-2.712-4.689,1.951,1.951,0,0,1,.767-1.717h0l.124-.078h0a1.678,1.678,0,0,1,1.151-.046,2.92,2.92,0,0,1,.65.293A5.964,5.964,0,0,1,240.951,319.365Z" transform="translate(-172.859 -194.858)" fill="#37474f"/>
          <path id="Trazado_150019" data-name="Trazado 150019" d="M240.679,312.941a2.439,2.439,0,0,0-1.2-.371,1.444,1.444,0,0,0-.761.215l-.072.039-1.743,1.008a1.678,1.678,0,0,1,1.151-.046,2.919,2.919,0,0,1,.65.293,5.964,5.964,0,0,1,2.705,4.683,3.4,3.4,0,0,1-.072.709,1.633,1.633,0,0,1-.65.989l1.795-1.034h0l.156-.1h.046a2,2,0,0,0,.65-1.665A5.97,5.97,0,0,0,240.679,312.941Z" transform="translate(-173.328 -194.255)" fill="#263238"/>
          <path id="Trazado_150020" data-name="Trazado 150020" d="M184.431,301.8a3.375,3.375,0,0,1-.078.709,1.665,1.665,0,0,1-.65,1h0a1.879,1.879,0,0,1-1.951-.15,5.99,5.99,0,0,1-2.706-4.7,1.951,1.951,0,0,1,.761-1.717h0l.13-.078h0a1.678,1.678,0,0,1,1.151-.046,3.251,3.251,0,0,1,.65.293A5.97,5.97,0,0,1,184.431,301.8Z" transform="translate(-153.097 -188.719)" fill="#37474f"/>
          <path id="Trazado_150021" data-name="Trazado 150021" d="M184.155,295.374a2.445,2.445,0,0,0-1.2-.364,1.392,1.392,0,0,0-.767.215l-.065.033-1.749,1.008a1.678,1.678,0,0,1,1.151-.046,3.249,3.249,0,0,1,.65.293,5.97,5.97,0,0,1,2.712,4.683,3.375,3.375,0,0,1-.078.709,1.665,1.665,0,0,1-.65.995l1.795-1.041h.033l.15-.091a.117.117,0,0,0,.046-.033,1.984,1.984,0,0,0,.65-1.665A5.977,5.977,0,0,0,184.155,295.374Z" transform="translate(-153.562 -188.115)" fill="#263238"/>
          <path id="Trazado_150022" data-name="Trazado 150022" d="M212.19,294.231l9.664-2.771v2.062l-9.664,5.58Z" transform="translate(-164.688 -186.874)" fill="#f0f0f0"/>
          <path id="Trazado_150023" data-name="Trazado 150023" d="M211.676,293.982l-.956-.585,9.7-2.647.924.462Z" transform="translate(-164.174 -186.626)" fill="#fafafa"/>
          <path id="Trazado_150024" data-name="Trazado 150024" d="M198.383,301.305l-13.7-5.131V294.08l13.7,1.229Z" transform="translate(-155.069 -187.79)" fill="#f0f0f0"/>
          <path id="Trazado_150025" data-name="Trazado 150025" d="M184.68,293.937l1-.267,13.521.878-.819.618Z" transform="translate(-155.069 -187.646)" fill="#fafafa"/>
          <path id="Trazado_150026" data-name="Trazado 150026" d="M205.19,296.893c0,1.554,4.767,1.554,4.767,0V283.34H205.19Z" transform="translate(-162.241 -184.035)" fill="#fafafa"/>
          <path id="Trazado_150027" data-name="Trazado 150027" d="M209.823,298.76l2.6,17.02h-1.743l-2.452-17.02a3.031,3.031,0,0,0,1.593,0Z" transform="translate(-163.303 -189.426)" fill="#fafafa"/>
          <path id="Trazado_150028" data-name="Trazado 150028" d="M208.19,298.75v4.676l2.452,15.231v-2.881Z" transform="translate(-163.289 -189.423)" fill="#f0f0f0"/>
          <rect id="Rect치ngulo_33325" data-name="Rect치ngulo 33325" width="1.795" height="2.881" transform="translate(47.352 126.354)" fill="#e0e0e0"/>
          <path id="Trazado_150029" data-name="Trazado 150029" d="M197.433,303.3l-17.683,9.268v-2.855l17.683-10.932Z" transform="translate(-153.346 -189.433)" fill="#f0f0f0"/>
          <path id="Trazado_150030" data-name="Trazado 150030" d="M196.836,298.5a2.036,2.036,0,0,1-1.132-.514l-17.644,10.7,1.1.748Z" transform="translate(-152.755 -189.157)" fill="#fafafa"/>
          <path id="Trazado_150031" data-name="Trazado 150031" d="M179.159,318.043v-2.855l-1.1-.748v2.771Z" transform="translate(-152.755 -194.909)" fill="#e0e0e0"/>
          <path id="Trazado_150032" data-name="Trazado 150032" d="M231.046,309.185,212.16,302.72v-4.24l18.886,7.856Z" transform="translate(-164.678 -189.328)" fill="#f0f0f0"/>
          <path id="Trazado_150033" data-name="Trazado 150033" d="M212.16,298.085c.156-.039.221-.319.234-.735l19.212,8.357-.559.234Z" transform="translate(-164.678 -188.933)" fill="#fafafa"/>
          <path id="Trazado_150034" data-name="Trazado 150034" d="M241.759,310.2v2.764l-.559.319v-2.849Z" transform="translate(-174.831 -193.426)" fill="#e0e0e0"/>
          <rect id="Rect치ngulo_33326" data-name="Rect치ngulo 33326" width="1.795" height="2.881" transform="translate(47.352 126.354)" fill="#f0f0f0" opacity="0.1"/>
          <path id="Trazado_150035" data-name="Trazado 150035" d="M179.159,318.043v-2.855l-1.1-.748v2.771Z" transform="translate(-152.755 -194.909)" fill="#f0f0f0" opacity="0.1"/>
          <path id="Trazado_150036" data-name="Trazado 150036" d="M241.759,310.2v2.764l-.559.319v-2.849Z" transform="translate(-174.831 -193.426)" opacity="0.1"/>
          <path id="Trazado_150037" data-name="Trazado 150037" d="M210.721,247H202.65v27.965c0,2.322,8.071,2.322,8.071,0Z" transform="translate(-161.352 -171.329)" fill="#f0f0f0"/>
          <g id="freepik--chair--inject-100-2" data-name="freepik--chair--inject-100">
            <path id="Trazado_150038" data-name="Trazado 150038" d="M155.869,203.33l30.937-16.161s2.172-10.581-5.157-22.112c0,0,2.185-20.558-1.476-27.393-2.679-5.2-5.853-4.5-5.853-4.5L139.2,149.025Z" transform="translate(-139.167 -131.515)" fill="#727997"/>
            <path id="Trazado_150039" data-name="Trazado 150039" d="M155.869,203.33l30.937-16.161s2.172-10.581-5.157-22.112c0,0,2.185-20.558-1.476-27.393-2.679-5.2-5.853-4.5-5.853-4.5L139.2,149.025Z" transform="translate(-139.167 -131.515)" opacity="0.3"/>
            <path id="Trazado_150040" data-name="Trazado 150040" d="M174.269,133.153,139.15,149.015l1.151,3.753,38.423-17.351C176.448,132.671,174.269,133.153,174.269,133.153Z" transform="translate(-139.15 -131.511)" fill="#727997"/>
            <path id="Trazado_150041" data-name="Trazado 150041" d="M174.269,133.153,139.15,149.015l1.151,3.753,38.423-17.351C176.448,132.671,174.269,133.153,174.269,133.153Z" transform="translate(-139.15 -131.511)" opacity="0.15"/>
            <path id="Trazado_150042" data-name="Trazado 150042" d="M231.141,227.717v1.7a6.165,6.165,0,0,1-3.011,4.982l-34.469,18.106a6.848,6.848,0,0,1-5.951-.124L167.816,240.9a6.5,6.5,0,0,1-2.946-5.1v-1.7a6.146,6.146,0,0,1,3.011-4.975l32.648-17.052a7.44,7.44,0,0,1,6.055-.052l21.546,10.776A6.022,6.022,0,0,1,231.141,227.717Z" transform="translate(-148.143 -158.881)" fill="#727997"/>
            <path id="Trazado_150043" data-name="Trazado 150043" d="M231.141,227.717v1.7a6.165,6.165,0,0,1-3.011,4.982l-34.469,18.106a6.848,6.848,0,0,1-5.951-.124L167.816,240.9a6.5,6.5,0,0,1-2.946-5.1v-1.7a6.146,6.146,0,0,1,3.011-4.975l32.648-17.052a7.44,7.44,0,0,1,6.055-.052l21.546,10.776A6.022,6.022,0,0,1,231.141,227.717Z" transform="translate(-148.143 -158.881)" opacity="0.1"/>
            <path id="Trazado_150044" data-name="Trazado 150044" d="M231.141,227.717v1.7a6.165,6.165,0,0,1-3.011,4.982l-34.469,18.106a6.848,6.848,0,0,1-5.951-.124L167.816,240.9a6.5,6.5,0,0,1-2.946-5.1v-1.7a6.146,6.146,0,0,1,3.011-4.975l32.648-17.052a7.44,7.44,0,0,1,6.055-.052l21.546,10.776A6.022,6.022,0,0,1,231.141,227.717Z" transform="translate(-148.143 -158.881)" opacity="0.25"/>
            <path id="Trazado_150045" data-name="Trazado 150045" d="M194.57,244,229.038,225.9c1.665-.871,1.652-2.263,0-3.1l-21.527-10.776a7.44,7.44,0,0,0-6.055.052l-32.648,17.052c-1.665.865-1.691,2.335-.065,3.252l19.907,11.5a6.848,6.848,0,0,0,5.918.124Z" transform="translate(-149.077 -158.881)" fill="#727997"/>
            <path id="Trazado_150046" data-name="Trazado 150046" d="M194.57,244,229.038,225.9c1.665-.871,1.652-2.263,0-3.1l-21.527-10.776a7.44,7.44,0,0,0-6.055.052l-32.648,17.052c-1.665.865-1.691,2.335-.065,3.252l19.907,11.5a6.848,6.848,0,0,0,5.918.124Z" transform="translate(-149.077 -158.881)" opacity="0.15"/>
            <path id="Trazado_150047" data-name="Trazado 150047" d="M191.41,262.768a6.679,6.679,0,0,1-3.746-.715l-19.888-11.479a6.5,6.5,0,0,1-2.946-5.105v-1.71a6.224,6.224,0,0,1,2.6-4.709c-1.223.878-1.106,2.166.364,3.011l19.888,11.492a6.5,6.5,0,0,0,3.044.735Z" transform="translate(-148.129 -168.549)" opacity="0.2"/>
            <path id="Trazado_150048" data-name="Trazado 150048" d="M193.15,132.287s5.079-3.447,10.445-.351,3.59,13.508,3.018,20.22-.761,18.405,3.935,22.658,20.089-1.4,26.8-1.4l-5.925,21.845c-6.5-3.551-16.968-7.2-25.754-8.942,0,0,.286-13.612-5.951-21.384,0,0,2.3-5.443.793-16.35C199.12,138.472,197.234,134.648,193.15,132.287Z" transform="translate(-158.031 -130.646)" fill="#727997"/>
            <path id="Trazado_150049" data-name="Trazado 150049" d="M193.15,132.287s5.079-3.447,10.445-.351,3.59,13.508,3.018,20.22-.761,18.405,3.935,22.658,20.089-1.4,26.8-1.4l-5.925,21.845c-6.5-3.551-16.968-7.2-25.754-8.942,0,0,.286-13.612-5.951-21.384,0,0,2.3-5.443.793-16.35C199.12,138.472,197.234,134.648,193.15,132.287Z" transform="translate(-158.031 -130.646)" opacity="0.45"/>
            <path id="Trazado_150050" data-name="Trazado 150050" d="M251.657,218.265c-.3-1.951-1.541-13.183.559-18.073,1.821-4.253,6.6-4.5,8.1-2.679s.163,4.032-2.231,7.154c-2.016,2.634-2.744,5.1-2.744,11.472Z" transform="translate(-178.265 -153.65)" fill="#727997"/>
            <path id="Trazado_150051" data-name="Trazado 150051" d="M251.657,218.265c-.3-1.951-1.541-13.183.559-18.073,1.821-4.253,6.6-4.5,8.1-2.679s.163,4.032-2.231,7.154c-2.016,2.634-2.744,5.1-2.744,11.472Z" transform="translate(-178.265 -153.65)" opacity="0.1"/>
            <path id="Trazado_150052" data-name="Trazado 150052" d="M251.657,218.265c-.3-1.951-1.541-13.183.559-18.073,1.821-4.253,6.6-4.5,8.1-2.679s.163,4.032-2.231,7.154c-2.016,2.634-2.744,5.1-2.744,11.472Z" transform="translate(-178.265 -153.65)" opacity="0.25"/>
          </g>
        </g>
        <g id="freepik--character--inject-100-3" data-name="freepik--character--inject-100" transform="translate(28.506)">
          <path id="Trazado_150053" data-name="Trazado 150053" d="M256.144,166.733c1.567-1.574,4.247.852,6.068,3.616,1.548,2.348,2.471,4.871.858,6.2s-4.487-1.45-5.853-3.252S255.006,167.845,256.144,166.733Z" transform="translate(-203.207 -118.191)" fill="#263238"/>
          <path id="Trazado_150054" data-name="Trazado 150054" d="M243.375,169.231c-1.626,2.055-4.7,5.476-5.352,6.1-2.27,2.179-4.149,3.6-8.455.4s-17.56-15.609-17.56-15.609L207.95,146.67c3.427.273,6.536-.1,9.593,3,2.536,2.6,15.687,16.48,15.687,16.48l2.562-2.367" transform="translate(-186.542 -111.35)" fill="#ffa8a7"/>
          <path id="Trazado_150055" data-name="Trazado 150055" d="M274.66,147.874c1.886-.4,4.644-1.236,6.3-.39s1.814,1.444,1.814,1.444l-2.179,2.5Z" transform="translate(-209.866 -111.507)" fill="#f28f8f"/>
          <path id="Trazado_150056" data-name="Trazado 150056" d="M262.324,151.934c-1.164,1.411-9.014,10.328-11.954,13.085l6.738,6.77c2.543-3.427,5.957-9.222,8.207-10.789,3.063.468,3.98-1.086,5.756-1.086l-2.419-10.334S263.975,149.951,262.324,151.934Z" transform="translate(-201.374 -112.367)" fill="#ffa8a7"/>
          <path id="Trazado_150057" data-name="Trazado 150057" d="M271.718,156.781h0a1.216,1.216,0,0,1-.514-1.645l13.1-25.026,2.166,1.132-13.1,25.026a1.216,1.216,0,0,1-1.645.514Z" transform="translate(-208.609 -105.56)"/>
          <path id="Trazado_150058" data-name="Trazado 150058" d="M286.338,113.435a3.48,3.48,0,0,0-3.492.351,10.972,10.972,0,0,0-4.956,8.585,3.47,3.47,0,0,0,1.457,3.2l1.775,1.028a3.47,3.47,0,0,0,3.505-.345,10.952,10.952,0,0,0,4.956-8.578,3.475,3.475,0,0,0-1.457-3.206Z" transform="translate(-210.996 -99.616)" fill="#37474f"/>
          <path id="Trazado_150059" data-name="Trazado 150059" d="M285.586,115.366c2.732-1.58,4.956-.3,4.956,2.862a10.971,10.971,0,0,1-4.956,8.578c-2.738,1.58-4.956.3-4.956-2.862a10.939,10.939,0,0,1,4.956-8.578Z" transform="translate(-211.954 -100.168)" fill="#263238"/>
          <path id="Trazado_150060" data-name="Trazado 150060" d="M289.136,116.205a3.065,3.065,0,0,0-3.083.312,9.677,9.677,0,0,0-4.383,7.583,3.041,3.041,0,0,0,1.3,2.829l11.446,6.6a3.067,3.067,0,0,0,3.1-.3,9.684,9.684,0,0,0,4.377-7.59,3.028,3.028,0,0,0-1.3-2.829Z" transform="translate(-212.318 -100.597)" fill="#727997"/>
          <path id="Trazado_150061" data-name="Trazado 150061" d="M289.136,116.205a3.065,3.065,0,0,0-3.083.312,9.677,9.677,0,0,0-4.383,7.583,3.041,3.041,0,0,0,1.3,2.829l11.446,6.6a3.067,3.067,0,0,0,3.1-.3,9.684,9.684,0,0,0,4.377-7.59,3.028,3.028,0,0,0-1.3-2.829Z" transform="translate(-212.318 -100.597)" opacity="0.3"/>
          <path id="Trazado_150062" data-name="Trazado 150062" d="M299.672,134.231,282.242,124.17a7.94,7.94,0,0,0-.572,2.816,3.041,3.041,0,0,0,1.3,2.829l11.446,6.6a3.067,3.067,0,0,0,3.1-.3,8.012,8.012,0,0,0,2.159-1.886Z" transform="translate(-212.318 -103.483)" opacity="0.15"/>
          <path id="Trazado_150063" data-name="Trazado 150063" d="M304.122,123.7a3.465,3.465,0,0,0-3.486.345,10.952,10.952,0,0,0-4.956,8.585,3.479,3.479,0,0,0,1.45,3.206l1.782,1.028a3.49,3.49,0,0,0,3.5-.345,10.952,10.952,0,0,0,4.956-8.585,3.463,3.463,0,0,0-1.457-3.2Z" transform="translate(-217.216 -103.205)" fill="#37474f"/>
          <path id="Trazado_150064" data-name="Trazado 150064" d="M303.336,125.636c2.738-1.58,4.956-.3,4.956,2.862a10.952,10.952,0,0,1-4.956,8.585c-2.738,1.58-4.956.3-4.956-2.862A10.952,10.952,0,0,1,303.336,125.636Z" transform="translate(-218.16 -103.759)" fill="#455a64"/>
          <path id="Trazado_150065" data-name="Trazado 150065" d="M283,152.084a2.361,2.361,0,0,0,.6-.891l1.3-2.543a2.53,2.53,0,0,1,.858,1.015,5.547,5.547,0,0,1,.345,2.029c.072,2.107-.1,5.821-1.437,6.946" transform="translate(-212.783 -112.042)" fill="#f28f8f"/>
          <path id="Trazado_150066" data-name="Trazado 150066" d="M263.76,155.188c1.951-2.478,3.44-4.871,4.975-6.081s3.46-1.015,5.73-.351a10.5,10.5,0,0,0,4.065.527c.2.13-.13,1.522-.937,1.912a7.758,7.758,0,0,1-3.323.436c-2.6,0-.494,3.174-3.98,5.756C269.2,159.253,263.76,155.188,263.76,155.188Z" transform="translate(-206.055 -111.895)" fill="#ffa8a7"/>
          <path id="Trazado_150067" data-name="Trazado 150067" d="M281.883,160.472a5.481,5.481,0,0,1-5.053.7,2.51,2.51,0,0,1-.963-1.021c-.215-.416-.169-.9-.39-1.3-.1-.215-.247-.416-.345-.65a.93.93,0,0,1-.052-.709c.1-.247.351-.423.41-.689a.793.793,0,0,0-.071-.455c-.1-.241-.273-.449-.371-.689a.722.722,0,0,1,.046-.735.937.937,0,0,1,.6-.247,19.591,19.591,0,0,1,2.465-.111,3.577,3.577,0,0,0,2.016-.65" transform="translate(-209.974 -113.881)" fill="#f28f8f"/>
          <path id="Trazado_150068" data-name="Trazado 150068" d="M273.891,158.92c-1.1,2-3.6,1.873-5.021,1.509a4.107,4.107,0,0,0,3.206.7l-1.639,4.084Z" transform="translate(-207.842 -115.633)" fill="#f28f8f"/>
          <path id="Trazado_150069" data-name="Trazado 150069" d="M207.478,146.272c3.577.208,5.5-1.431,8.188,0,2.185,1.158,2.731,3.128,4.865,5.756,1.158,1.431,1.639,2,3.824,4.461,4.611,5.2,8.136,8.676,8.136,8.676l6.328-5.652c-.93,3.648,2.732,8.955,6.926,9.82,0,0-1.489,1.3-5.944,4.7-3.421,2.6-5.352,3.948-6.146,4.071s-2.6-.579-8.194-5.073-19.4-17.286-19.4-17.286Z" transform="translate(-185.881 -111.004)" fill="#455a64"/>
          <path id="Trazado_150070" data-name="Trazado 150070" d="M245.336,175.116a9.607,9.607,0,0,0-2.38,5.261s-.858-2.224,1.431-6.237Z" transform="translate(-198.726 -120.955)" fill="#37474f"/>
          <path id="Trazado_150071" data-name="Trazado 150071" d="M197.705,94.975l-.078.046c-3.544,2.289-7.375,3.492-10.555,6.5s-5.034,7.076-4.553,10.906c.858,6.777,4.585,9.177,6.816,11.706.1.117,3.616,2.556,3.766,2.562l2.309.1c.559,0,1.3.319,1.8.15.7-.221,1.229-1.158,1.645-1.71a22.255,22.255,0,0,1,5.626-5.073,6.955,6.955,0,0,0,2-2.933,10.764,10.764,0,0,0,.865-3.486,1.4,1.4,0,0,1,1.567-1.717,7.193,7.193,0,0,0,3.453-1.2,4.91,4.91,0,0,0,2.036-2.979,3.837,3.837,0,0,0-1.47-3.837,4.188,4.188,0,0,0-4.344-6.556A3.657,3.657,0,0,0,207,93.1a6.016,6.016,0,0,0-4.9-.384,17.962,17.962,0,0,0-4.39,2.263Z" transform="translate(-177.624 -92.361)" fill="#263238"/>
          <path id="Trazado_150072" data-name="Trazado 150072" d="M187.917,142.74a5.96,5.96,0,0,1-7.694-9.1c2.51-2.12,4.52-.332,6.647,2.179S190.428,140.613,187.917,142.74Z" transform="translate(-176.108 -106.464)" fill="#263238"/>
          <path id="Trazado_150073" data-name="Trazado 150073" d="M227.022,272.965a5.714,5.714,0,0,0-5.352,2.315c-.332.93-.3,2.836.728,5.2a16.356,16.356,0,0,1,.937,7.44c-.273,2.14-1.483,7.453.592,10.224s6.8,5.281,8.637,1.652c.6-1.184-.377-5.4-.774-8.455-.787-6.107-1.346-12.162-1.346-12.162Z" transform="translate(-191.273 -155.485)" fill="#263238"/>
          <path id="Trazado_150074" data-name="Trazado 150074" d="M228.43,280.35a59.641,59.641,0,0,1,.377,8.936c-.169,3.252.442,5.417,1.515,6.913,1.19,1.645,4.26,2.653,4.006-.715-.169-2.348-1.457-13.742-1.457-13.742Z" transform="translate(-193.702 -158.09)" fill="#ffa8a7"/>
          <path id="Trazado_150075" data-name="Trazado 150075" d="M223.206,274.21c-.2,2,.7,7.369,3.252,11.928s6.23,9.755,6.861,12.9a36.594,36.594,0,0,0-.748-6.432,1.3,1.3,0,0,1,0-.156l-.059-.41a.362.362,0,0,0-.033-.182,4.434,4.434,0,0,0-.065-.514V291.3c-.247-1.906-.468-3.811-.65-5.528-.15-1.372-.286-2.6-.39-3.661-.052-.52-.1-.982-.143-1.385a4.456,4.456,0,0,0-.052-.546c-.065-.65-.1-1.041-.1-1.041l-3.466-6.172a5.208,5.208,0,0,0-.527-.058A5.97,5.97,0,0,0,223.206,274.21Z" transform="translate(-191.867 -155.488)" opacity="0.15"/>
          <path id="Trazado_150076" data-name="Trazado 150076" d="M233.735,218.167a88.5,88.5,0,0,0-19.2-8.617l-9.326,6.829,8.968,8.546,11.5,8.331s2.25-.1.761,3.362c-.468,1.1-1.2,3.3-1.951,5.808l4.982,15.212s3.109-5.138,7.687-14.509c4.247-8.708,5.385-14.529,5.053-16.493C241.747,224.059,240.68,222.577,233.735,218.167Z" transform="translate(-185.584 -133.336)" fill="#727997"/>
          <path id="Trazado_150077" data-name="Trazado 150077" d="M233.735,218.167a88.5,88.5,0,0,0-19.2-8.617l-9.326,6.829,8.968,8.546,11.5,8.331s2.25-.1.761,3.362c-.468,1.1-1.2,3.3-1.951,5.808l4.982,15.212s3.109-5.138,7.687-14.509c4.247-8.708,5.385-14.529,5.053-16.493C241.747,224.059,240.68,222.577,233.735,218.167Z" transform="translate(-185.584 -133.336)" opacity="0.2"/>
          <path id="Trazado_150078" data-name="Trazado 150078" d="M215.866,223.406l-1.106-.832a9.1,9.1,0,0,0,4.2-5.164,9.3,9.3,0,0,1-2.341,5.574c.793.5,12.188,7.681,14.275,10.217s3.5,3.414,3.577,9.281c.065,4.956.267,13.618.267,13.618l-14.887-19.985-6.413-11.167Z" transform="translate(-188.461 -136.084)" opacity="0.2"/>
          <path id="Trazado_150079" data-name="Trazado 150079" d="M236.792,313c-.65-.065-.735,1.06-1.184,2.484a7.29,7.29,0,0,0-.351,4.286c.481,1.828,3.33,2.289,4.663,4.748s3.2,6.835,8.22,8.455,9.1.319,10.2-1.112.4-2.966-2.686-5.2l-4.208-3.031Z" transform="translate(-196.029 -169.505)" fill="#263238"/>
          <path id="Trazado_150080" data-name="Trazado 150080" d="M244.257,300.22a78.044,78.044,0,0,0,2.276,9.02,36.075,36.075,0,0,0,5.619,9.567c.514.65,1.7,1.912,2.114,2.445a.989.989,0,0,1-.189,1.522c-1.177,1.008-5.938,1-8.487-1.138s-4.735-6.5-6.23-8.207q-.842-.935-1.587-1.951a3.3,3.3,0,0,1-.7-2.166,9.657,9.657,0,0,0-.033-3.07,35.607,35.607,0,0,0-1.034-4.013Z" transform="translate(-196.353 -165.038)" fill="#ffa8a7"/>
          <path id="Trazado_150081" data-name="Trazado 150081" d="M179.786,201.24c-3.831,5.97-4.422,13.566-3.122,17.4,1.762,5.242,3.837,7.642,10.822,12.246,5.782,3.818,13.9,6.269,15.609,7.154s2.263,2.875,2.979,6.412a59.336,59.336,0,0,0,4.884,15.96c3.59,7.59,4.552,9.833,4.552,9.833s4.748,2.062,8.6-1.3c0,0-4.039-31.588-5.307-36.127s-19.413-17.56-19.413-17.56,2.705-7.245,4.312-12.3Z" transform="translate(-175.385 -130.43)" fill="#727997"/>
          <path id="Trazado_150082" data-name="Trazado 150082" d="M176.084,188.74a33.819,33.819,0,0,1,1.841-4.7,16.773,16.773,0,0,0,1.463-3.3c1.067-4.455-1.47-9.625-2.38-14.119a32.634,32.634,0,0,1-.579-8.305c.124-2.127,0-5.723,2-6.939a12.544,12.544,0,0,1,2.263-.969l6.12-2.276s6.087-1.06,9.326-1.489c1.782-.241,2.875.345,4.943,2.406s6.035,6.8,7.492,10.744c.852,2.309.722,6.5-2.14,8.994-.41,2.718-1.08,10.074-.761,12.357.3,2.166.4,5.658,3.9,7.57,5.853,2.523,20.746,6.5,22.938,11.056s-3.9,20.844-3.9,20.844-2.374,4.9-11.193,8.006-12.181.065-12.181.065-1.021-8.409-2.829-9.1c-3.356-1.3-14.6-7.336-18.164-9.307C171.837,203.438,175.271,191.231,176.084,188.74Z" transform="translate(-175.032 -111.323)" fill="#37474f"/>
          <path id="Trazado_150083" data-name="Trazado 150083" d="M205.191,181.038a8.379,8.379,0,0,1-7.277,2.64,6.7,6.7,0,0,1-6.113-4.6,6.049,6.049,0,0,0,5.931,6.009,7.258,7.258,0,0,0,7.46-4.052Z" transform="translate(-180.895 -122.682)" fill="#263238"/>
          <path id="Trazado_150084" data-name="Trazado 150084" d="M207.175,107.7c1.632.963,4.084,4.813,3.9,13.4-.156,7.284-2.51,9.1-3.694,9.612s-4.279.065-6.5-.3l-.364,5.2L202.3,142.7l-11.856-7.225.7-10.945a2.391,2.391,0,0,1-2.66-.488c-2.062-1.58-2.38-4.422-.728-5.931a3.058,3.058,0,0,1,4.832,1.249,14.791,14.791,0,0,0,8.286-2.751C205.849,113.313,206.538,110.009,207.175,107.7Z" transform="translate(-179.114 -97.724)" fill="#ffa8a7"/>
          <path id="Trazado_150085" data-name="Trazado 150085" d="M196.23,127.975h0l-.65-3.766,2.406-.429.241,1.366a2.445,2.445,0,0,1-2,2.829Z" transform="translate(-182.217 -103.346)" fill="#263238"/>
          <path id="Trazado_150086" data-name="Trazado 150086" d="M209.554,124.1a.969.969,0,0,1-.884,1.06,1,1,0,1,1,.885-1.06Z" transform="translate(-186.403 -103.13)" fill="#263238"/>
          <path id="Trazado_150087" data-name="Trazado 150087" d="M210.7,133.83l3.291.976a1.684,1.684,0,0,1-2.1,1.216,1.8,1.8,0,0,1-1.19-2.192Z" transform="translate(-187.479 -106.86)" fill="#b16668"/>
          <path id="Trazado_150088" data-name="Trazado 150088" d="M212.461,136.438a1.587,1.587,0,0,0-1.587-1.58,1.212,1.212,0,0,0-.215,0,1.769,1.769,0,0,0,1.236,1.5,1.541,1.541,0,0,0,.566.085Z" transform="translate(-187.489 -107.218)" fill="#f28f8f"/>
          <path id="Trazado_150089" data-name="Trazado 150089" d="M221.159,119.168l-2.179-.579a1.08,1.08,0,0,1,1.34-.819,1.177,1.177,0,0,1,.839,1.4Z" transform="translate(-190.398 -101.232)" fill="#263238"/>
          <path id="Trazado_150090" data-name="Trazado 150090" d="M220.635,123.366a.963.963,0,1,1-1.028-.937.982.982,0,0,1,1.028.937Z" transform="translate(-190.304 -102.874)" fill="#263238"/>
          <path id="Trazado_150091" data-name="Trazado 150091" d="M214.49,121.91l.312,6.679,3.063-1.112Z" transform="translate(-188.828 -102.693)" fill="#f28f8f"/>
          <path id="Trazado_150092" data-name="Trazado 150092" d="M204.766,140.427c-2.725-.579-6.191-2.192-6.946-4.1a4.7,4.7,0,0,0,1.528,3.083c1.444,1.236,5.326,2.354,5.326,2.354Z" transform="translate(-183 -107.735)" fill="#f28f8f"/>
          <path id="Trazado_150093" data-name="Trazado 150093" d="M204.316,156.016a39.267,39.267,0,0,0-3.011-4.143c-.852-.813-8.487-3.5-8.656-6l-.189,2.946Z" transform="translate(-181.126 -111.07)" fill="#e0e0e0"/>
          <path id="Trazado_150094" data-name="Trazado 150094" d="M200.365,151.9c-1.756-2.159-3.648,3.421-3.967,4.149s-1.671.228-4.247-1.814-3.8-3.9-3.993-5.508c-.072-.592.93-1.437,1.5-3s1.028-1.678,1.561-1.6l-.072,1.132a12.961,12.961,0,0,0,2.38,2.3C197.575,150.325,199.279,149.739,200.365,151.9Z" transform="translate(-179.62 -110.452)" fill="#f5f5f5"/>
          <path id="Trazado_150095" data-name="Trazado 150095" d="M212.625,153.608a10.477,10.477,0,0,1,.7,4.052c-.091.52-2.777-2.6-2.777-2.6S211.675,152.288,212.625,153.608Z" transform="translate(-187.451 -113.651)" fill="#e0e0e0"/>
          <path id="Trazado_150096" data-name="Trazado 150096" d="M209.728,155.855a17.385,17.385,0,0,1,1.106-4.689c.416-.832.878-.3.878-.3s-.65-1.21-1.626-2.855c-1.112-1.834-1.216-2.439-1.906-2.6l-.241,3.388Z" transform="translate(-186.538 -110.909)" fill="#f5f5f5"/>
        </g>
        <path id="Trazado_150097" data-name="Trazado 150097" d="M151.79,220.689l23.888,12-.507-8.8,3.681-2.127c-.26-6.822-2.133-13.827-6.959-15.374-6.042-1.912-13.879-2.53-18.581-6.783s-4.507-15.947-3.9-22.658,2.341-17.124-3.018-20.22-10.445.351-10.445.351c-2.3,1.483-4.956,2.562-4.735,4.364a1.951,1.951,0,0,0,1.632,1.84l13.332,50.455A10.88,10.88,0,0,0,151.79,220.689Z" transform="translate(-131.2 -114.415)" fill="#727997"/>
        <g id="Grupo_75952" data-name="Grupo 75952" transform="translate(0 41.021)" opacity="0.55">
          <path id="Trazado_150098" data-name="Trazado 150098" d="M151.79,220.689l23.888,12-.507-8.8,3.681-2.127c-.26-6.822-2.133-13.827-6.959-15.374-6.042-1.912-13.879-2.53-18.581-6.783s-4.507-15.947-3.9-22.658,2.341-17.124-3.018-20.22-10.445.351-10.445.351c-2.3,1.483-4.956,2.562-4.735,4.364a1.951,1.951,0,0,0,1.632,1.84l13.332,50.455A10.88,10.88,0,0,0,151.79,220.689Z" transform="translate(-131.2 -155.436)"/>
        </g>
        <path id="Trazado_150099" data-name="Trazado 150099" d="M142.848,162.96c2.146,2.569,3.252,6.647,2.855,16.662s-.234,18.1,3.688,23.01c4.644,5.821,20.584,10.458,20.584,10.458l6.224-2.842a7.8,7.8,0,0,0-4.305-3.85c-6.042-1.912-13.879-2.53-18.581-6.783s-4.507-15.947-3.9-22.658,2.341-17.124-3.018-20.22-10.445.351-10.445.351c-2.3,1.483-4.956,2.562-4.735,4.364a1.951,1.951,0,0,0,1.632,1.841C135.8,162.31,140.7,160.359,142.848,162.96Z" transform="translate(-131.2 -114.418)" fill="#727997"/>
        <g id="Grupo_75953" data-name="Grupo 75953" transform="translate(0 41.028)" opacity="0.45">
          <path id="Trazado_150100" data-name="Trazado 150100" d="M142.848,162.96c2.146,2.569,3.252,6.647,2.855,16.662s-.234,18.1,3.688,23.01c4.644,5.821,20.584,10.458,20.584,10.458l6.224-2.842a7.8,7.8,0,0,0-4.305-3.85c-6.042-1.912-13.879-2.53-18.581-6.783s-4.507-15.947-3.9-22.658,2.341-17.124-3.018-20.22-10.445.351-10.445.351c-2.3,1.483-4.956,2.562-4.735,4.364a1.951,1.951,0,0,0,1.632,1.841C135.8,162.31,140.7,160.359,142.848,162.96Z" transform="translate(-131.2 -155.446)"/>
        </g>
        <path id="Trazado_150101" data-name="Trazado 150101" d="M194.2,251.119l3.681-2.127c0-4.084-1.047-12.962-6.217-15.108-4.1-1.7-6.081.806-6.042,2.348.052,1.736,1.3,2.888,3.382,4.078C191.753,241.9,194.2,244.739,194.2,251.119Z" transform="translate(-150.227 -141.646)" fill="#727997"/>
        <path id="Trazado_150102" data-name="Trazado 150102" d="M194.2,251.119l3.681-2.127c0-4.084-1.047-12.962-6.217-15.108-4.1-1.7-6.081.806-6.042,2.348.052,1.736,1.3,2.888,3.382,4.078C191.753,241.9,194.2,244.739,194.2,251.119Z" transform="translate(-150.227 -141.646)" opacity="0.1"/>
        <path id="Trazado_150103" data-name="Trazado 150103" d="M194.2,251.119l3.681-2.127c0-4.084-1.047-12.962-6.217-15.108-4.1-1.7-6.081.806-6.042,2.348.052,1.736,1.3,2.888,3.382,4.078C191.753,241.9,194.2,244.739,194.2,251.119Z" transform="translate(-150.227 -141.646)" opacity="0.25"/>
        <g id="freepik--Arm--inject-100" transform="translate(18.125 39.808)">
          <path id="Trazado_150104" data-name="Trazado 150104" d="M178.269,224.5c.787.813,2.6,1.3,5.339-2.959,2.218-3.453,1-5.385,1-5.385s-2.133-.963-5.157,2.029A5.333,5.333,0,0,0,178.269,224.5Z" transform="translate(-165.587 -175.403)" fill="#263238"/>
          <path id="Trazado_150105" data-name="Trazado 150105" d="M160.031,184.794c1.06-4.279,3.622-15.927,5.9-24.642.761-2.894,3.831-4.552,6.5-5.892,6.087,4.722,2.166,15.043,2.166,15.043l-4.455,18.1,13.742,12.266h0a37.955,37.955,0,0,1,3.252,2.8,15.608,15.608,0,0,1,2.478,3.193,15.9,15.9,0,0,1,1.951,6.959,7.03,7.03,0,0,1-.215,3.252,5.1,5.1,0,0,1-1.886,2.179c-.689.494-1.71,1.333-2.6,1.132-1.639-.371-1.606-2.075-2.166-4.175a12.979,12.979,0,0,0-3.33-5.456c-1.7-1.925-.9-4.67-3.583-6.347,0,0-10.028-5.853-14.835-9.1C157.787,190.543,159.309,187.688,160.031,184.794Z" transform="translate(-159.133 -153.811)" fill="#ffa8a7"/>
          <path id="Trazado_150106" data-name="Trazado 150106" d="M173.169,153.57c-1.873.449-5.678-.072-7.284,2.289s-1.606,7.264-2.276,10.874c-.611,3.3-3.46,16.473-4.045,18.386s-1.359,4.709,2.335,8.331c4.156,4.078,9.853,9.222,9.853,9.222-1.3-3.057,2.406-8.591,6.334-8.344l-7.707-7.271,4.253-16.831s3.076-4.995,1.418-10.549S173.169,153.57,173.169,153.57Z" transform="translate(-159.069 -153.57)" fill="#455a64"/>
          <path id="Trazado_150107" data-name="Trazado 150107" d="M172.9,204.008c-1.626-1.3-4.884-1.08-6.614-.449,0,0,1.528-2.517,6.991-1.047Z" transform="translate(-161.594 -170.521)" fill="#37474f"/>
        </g>
      </g>
    </g>
    <g id="freepik--Dais--inject-100" transform="translate(107.54 122.038)">
      <path id="freepik--Shadow--inject-100" d="M199.308,374.659l-41.688-24.07L289.1,274.68,330.8,298.75l-35.275,20.369,12.825,7.4L247.415,361.7l-12.832-7.4Z" transform="translate(-157.62 -209.872)" fill="#37474f"/>
      <g id="freepik--dais-podium--inject-100" transform="translate(3.206)">
        <path id="Trazado_150108" data-name="Trazado 150108" d="M364.39,297.48l33.9-19.576,1.593-60.164-35.5,20.493Z" transform="translate(-233.122 -189.963)" fill="#727997"/>
        <path id="Trazado_150109" data-name="Trazado 150109" d="M364.39,297.48l33.9-19.576,1.593-60.164-35.5,20.493Z" transform="translate(-233.122 -189.963)" opacity="0.35"/>
        <path id="Trazado_150110" data-name="Trazado 150110" d="M370.747,260.791,395.1,246.73l-.293,37.2-24.07,13.892Z" transform="translate(-235.343 -200.1)" opacity="0.15"/>
        <path id="Trazado_150111" data-name="Trazado 150111" d="M393.215,254.409l-.28,29.916-17.755,10.25v-29.76l18.028-10.406m.8-1.379L374.4,264.359v31.575l19.329-11.167.293-31.731Z" transform="translate(-236.622 -202.302)" fill="#727997"/>
        <path id="Trazado_150112" data-name="Trazado 150112" d="M399.412,227.714l.241-4.084L364.39,243.993v3.941Z" transform="translate(-233.122 -192.023)" opacity="0.2"/>
        <path id="Trazado_150113" data-name="Trazado 150113" d="M364.39,238.944v-7.408l38.7-22.346V216.6Z" transform="translate(-233.122 -186.974)" fill="#727997"/>
        <path id="Trazado_150114" data-name="Trazado 150114" d="M364.39,238.944v-7.408l38.7-22.346V216.6Z" transform="translate(-233.122 -186.974)" opacity="0.35"/>
        <path id="Trazado_150115" data-name="Trazado 150115" d="M343.7,219.592,305.21,197.376l38.7-22.346L382.4,197.246Z" transform="translate(-212.43 -175.03)" fill="#727997"/>
        <path id="Trazado_150116" data-name="Trazado 150116" d="M343.7,219.592,305.21,197.376l38.7-22.346L382.4,197.246Z" transform="translate(-212.43 -175.03)" opacity="0.2"/>
        <path id="Trazado_150117" data-name="Trazado 150117" d="M257,338.642l12.831,7.408V268.287L221.72,240.51v77.763Z" transform="translate(-183.238 -197.925)" fill="#727997"/>
        <path id="Trazado_150118" data-name="Trazado 150118" d="M257,338.642l12.831,7.408V268.287L221.72,240.51v77.763Z" transform="translate(-183.238 -197.925)" opacity="0.3"/>
        <path id="Trazado_150119" data-name="Trazado 150119" d="M295.69,266.3l54.519-31.477v77.763L295.69,344.06Z" transform="translate(-209.102 -195.935)" fill="#727997"/>
        <path id="Trazado_150120" data-name="Trazado 150120" d="M295.69,266.3l54.519-31.477v77.763L295.69,344.06Z" transform="translate(-209.102 -195.935)" opacity="0.2"/>
        <path id="Trazado_150121" data-name="Trazado 150121" d="M276.239,192.11,221.72,223.587l48.107,27.777,54.519-31.477Z" transform="translate(-183.238 -181.002)" fill="#727997"/>
        <path id="Trazado_150122" data-name="Trazado 150122" d="M276.239,192.11,221.72,223.587l48.107,27.777,54.519-31.477Z" transform="translate(-183.238 -181.002)" opacity="0.1"/>
        <path id="Trazado_150123" data-name="Trazado 150123" d="M300.62,297.167v55.547l.917-.527V296.64Z" transform="translate(-210.825 -217.55)" opacity="0.2"/>
        <path id="Trazado_150124" data-name="Trazado 150124" d="M304.14,295.133v55.54l.917-.527V294.6Z" transform="translate(-212.056 -216.837)" opacity="0.2"/>
        <path id="Trazado_150125" data-name="Trazado 150125" d="M307.66,293.093V348.64l.917-.533V292.56Z" transform="translate(-213.287 -216.124)" opacity="0.2"/>
        <path id="Trazado_150126" data-name="Trazado 150126" d="M366.13,259.347v55.547l.917-.527.007-55.547Z" transform="translate(-233.731 -204.327)" opacity="0.2"/>
        <path id="Trazado_150127" data-name="Trazado 150127" d="M369.66,257.313V312.86l.91-.533.006-55.547Z" transform="translate(-234.965 -203.613)" opacity="0.2"/>
        <path id="Trazado_150128" data-name="Trazado 150128" d="M373.18,255.277v55.547l.91-.527.007-55.547Z" transform="translate(-236.196 -202.904)" opacity="0.2"/>
        <path id="Trazado_150129" data-name="Trazado 150129" d="M315.07,285.642l29.084-16.662v48.139l-28.863,16.669Z" transform="translate(-215.878 -207.879)" opacity="0.15"/>
        <path id="Trazado_150130" data-name="Trazado 150130" d="M331.565,298.049c6.2-3.577,11.225-.65,11.225,6.5s-5.027,15.862-11.225,19.439-11.225.65-11.225-6.5S325.367,301.633,331.565,298.049Z" transform="translate(-217.72 -217.509)" fill="#727997"/>
        <path id="Trazado_150131" data-name="Trazado 150131" d="M331.565,298.049c6.2-3.577,11.225-.65,11.225,6.5s-5.027,15.862-11.225,19.439-11.225.65-11.225-6.5S325.367,301.633,331.565,298.049Z" transform="translate(-217.72 -217.509)" opacity="0.2"/>
        <path id="Trazado_150132" data-name="Trazado 150132" d="M275.96,305.99l2.055,56.73-2.055-1.184Z" transform="translate(-202.203 -220.82)" opacity="0.2"/>
        <path id="Trazado_150133" data-name="Trazado 150133" d="M340.7,308.58h0l-2.049-3.2v-.247c0-.15-.1-.221-.215-.156l-4.188,2.419v-1.3c0-.28-.13-.429-.293-.338a.845.845,0,0,0-.286.65v1.333l-4.175,2.445a.5.5,0,0,0-.208.4v.046l-2.055,5.574h0a.123.123,0,0,0,0,.052,2.552,2.552,0,0,0,.963,2.309,1.209,1.209,0,0,0,.65.169,1.769,1.769,0,0,0,.858-.247,5.852,5.852,0,0,0,2.231-4.683.24.24,0,0,0-.032-.117h0l-1.951-3.044,3.772-2.172v11.277l-1.366.787a1.541,1.541,0,0,0-.65,1.223v.436l-.312.182a3,3,0,0,0-1.249,2.393v.124l7.72-4.455v-.124c0-.924-.566-1.346-1.255-.95l-.312.182v-.436c0-.475-.286-.689-.65-.488l-1.359.793V308.131l3.661-2.12-1.867,5.06h0a.274.274,0,0,0,0,.052,2.573,2.573,0,0,0,.963,2.315,1.209,1.209,0,0,0,.65.169,1.769,1.769,0,0,0,.858-.247,5.862,5.862,0,0,0,2.231-4.683.24.24,0,0,0-.085-.1Zm-11.089,2.387,1.762,2.751-3.525,2.036Zm-.163,7.154a1.021,1.021,0,0,1-1.054.078,2.088,2.088,0,0,1-.735-1.808l3.792-2.192a5.255,5.255,0,0,1-2,3.9Zm10.763-9.482-3.531,2.036,1.762-4.787Zm-1.951,4.377a1.04,1.04,0,0,1-1.06.085,2.088,2.088,0,0,1-.735-1.808l3.792-2.192a5.123,5.123,0,0,1-1.971,3.9Z" transform="translate(-220.128 -220.457)" fill="#727997"/>
        <path id="Trazado_150134" data-name="Trazado 150134" d="M295.716,264.581l-.007-9.69L354.4,221.04l.007,9.69Z" transform="translate(-209.109 -191.117)" fill="#727997"/>
        <path id="Trazado_150135" data-name="Trazado 150135" d="M295.716,264.581l-.007-9.69L354.4,221.04l.007,9.69Z" transform="translate(-209.109 -191.117)" opacity="0.35"/>
        <path id="Trazado_150136" data-name="Trazado 150136" d="M268.654,257.464,218.31,228.4v9.69l50.344,29.064Z" transform="translate(-182.046 -193.691)" fill="#727997"/>
        <path id="Trazado_150137" data-name="Trazado 150137" d="M268.654,257.464,218.31,228.4v9.69l50.344,29.064Z" transform="translate(-182.046 -193.691)" opacity="0.45"/>
        <path id="Trazado_150138" data-name="Trazado 150138" d="M324.34,243.016V239.66l-54.493,31.432L221.72,243.309v3.349l48.126,27.79Z" transform="translate(-183.238 -197.628)" opacity="0.1"/>
        <path id="Trazado_150139" data-name="Trazado 150139" d="M268.647,239.265,218.31,210.2,277,176.35l50.337,29.064Z" transform="translate(-182.046 -175.492)" fill="#727997"/>
        <path id="Trazado_150140" data-name="Trazado 150140" d="M268.647,239.265,218.31,210.2,277,176.35l50.337,29.064Z" transform="translate(-182.046 -175.492)" opacity="0.1"/>
        <path id="Trazado_150141" data-name="Trazado 150141" d="M221.72,381.906,257,361.537V305.99L221.72,326.359Z" transform="translate(-183.238 -220.82)" fill="#727997"/>
        <path id="Trazado_150142" data-name="Trazado 150142" d="M221.72,381.906,257,361.537V305.99L221.72,326.359Z" transform="translate(-183.238 -220.82)" opacity="0.35"/>
        <path id="Trazado_150143" data-name="Trazado 150143" d="M202.755,381.906,170.686,363.39l-3.206-57.4,35.275,20.369Z" transform="translate(-164.274 -220.82)" fill="#727997"/>
        <path id="Trazado_150144" data-name="Trazado 150144" d="M202.755,381.906,170.686,363.39l-3.206-57.4,35.275,20.369Z" transform="translate(-164.274 -220.82)" opacity="0.45"/>
        <path id="Trazado_150145" data-name="Trazado 150145" d="M221.72,321.384v-7.408L260.2,291.76v7.408Z" transform="translate(-183.238 -215.844)" fill="#727997"/>
        <path id="Trazado_150146" data-name="Trazado 150146" d="M221.72,321.384v-7.408L260.2,291.76v7.408Z" transform="translate(-183.238 -215.844)" opacity="0.35"/>
        <path id="Trazado_150147" data-name="Trazado 150147" d="M201.031,313.976,162.55,291.76v7.4l38.481,22.223Z" transform="translate(-162.55 -215.844)" fill="#727997"/>
        <path id="Trazado_150148" data-name="Trazado 150148" d="M201.031,313.976,162.55,291.76v7.4l38.481,22.223Z" transform="translate(-162.55 -215.844)" opacity="0.45"/>
        <path id="Trazado_150149" data-name="Trazado 150149" d="M238.03,309.938V305.99l-35.275,20.369L167.48,305.99l.26,4.1L202.755,330.3Z" transform="translate(-164.274 -220.82)" opacity="0.2"/>
        <path id="Trazado_150150" data-name="Trazado 150150" d="M201.031,302.029,162.55,279.813l38.481-22.223,38.482,22.223Z" transform="translate(-162.55 -203.897)" fill="#727997"/>
        <path id="Trazado_150151" data-name="Trazado 150151" d="M201.031,302.029,162.55,279.813l38.481-22.223,38.482,22.223Z" transform="translate(-162.55 -203.897)" opacity="0.2"/>
        <path id="Trazado_150152" data-name="Trazado 150152" d="M231.58,341.732l22.45-12.962V365.8l-22.45,12.962Z" transform="translate(-186.686 -228.784)" opacity="0.15"/>
        <path id="Trazado_150153" data-name="Trazado 150153" d="M252.142,336.446V366.18l-16.129,9.32V345.759l16.129-9.313m.793-1.366L235.22,345.3v31.562l17.709-10.23V335.08Z" transform="translate(-187.959 -230.991)" fill="#727997"/>
      </g>
      <g id="freepik--Base--inject-100" transform="translate(113.637 22.216)">
        <path id="Trazado_150154" data-name="Trazado 150154" d="M346.451,212.62a12.841,12.841,0,0,0-11.641,0c-1.606.924-2.406,2.14-2.4,3.356v1.262c0,1.216.793,2.432,2.4,3.356a12.841,12.841,0,0,0,11.641,0c1.606-.923,2.406-2.14,2.4-3.356v-1.262A4.187,4.187,0,0,0,346.451,212.62Z" transform="translate(-332.371 -209.902)" fill="#263238"/>
        <ellipse id="Elipse_4693" data-name="Elipse 4693" cx="8.227" cy="4.754" rx="8.227" ry="4.754" transform="translate(0 1.32)" fill="#455a64"/>
        <path id="Trazado_150155" data-name="Trazado 150155" d="M346.159,210.381a10.633,10.633,0,0,0-9.625,0,3.417,3.417,0,0,0-1.984,2.777v1.854a3.355,3.355,0,0,0,1.984,2.777,10.633,10.633,0,0,0,9.625,0,3.422,3.422,0,0,0,1.984-2.777v-1.854A3.312,3.312,0,0,0,346.159,210.381Z" transform="translate(-333.119 -209.204)" fill="#37474f"/>
        <ellipse id="Elipse_4694" data-name="Elipse 4694" cx="6.803" cy="3.928" rx="6.803" ry="3.928" transform="translate(1.424)" fill="#455a64"/>
      </g>
      <g id="freepik--Sheets--inject-100" transform="translate(63.689 16.446)">
        <g id="Grupo_75954" data-name="Grupo 75954" transform="translate(0 3.861)" opacity="0.2">
          <path id="Trazado_150156" data-name="Trazado 150156" d="M255.843,217.847l24.974,14.418a1.528,1.528,0,0,0,1.4,0l18.386-10.614a.429.429,0,0,0,0-.806l-24.98-14.425a1.567,1.567,0,0,0-1.4,0l-18.379,10.614C255.452,217.256,255.452,217.62,255.843,217.847Z" transform="translate(-255.55 -206.254)"/>
        </g>
        <path id="Trazado_150157" data-name="Trazado 150157" d="M255.843,215.847l24.974,14.418a1.529,1.529,0,0,0,1.4,0l18.386-10.614a.429.429,0,0,0,0-.813l-24.98-14.418a1.567,1.567,0,0,0-1.4,0l-18.379,10.614C255.452,215.256,255.452,215.62,255.843,215.847Z" transform="translate(-255.55 -201.694)" fill="#ebebeb"/>
        <path id="Trazado_150158" data-name="Trazado 150158" d="M274.876,204.419,257.42,214.493l24.063,13.885a1.567,1.567,0,0,0,1.4,0L300.343,218.3,276.28,204.412a1.567,1.567,0,0,0-1.4.007Z" transform="translate(-256.204 -201.692)" fill="#e0e0e0"/>
        <path id="Trazado_150159" data-name="Trazado 150159" d="M255.843,211.928l24.974,14.425a1.567,1.567,0,0,0,1.4,0l18.386-10.633a.429.429,0,0,0,0-.813l-24.98-14.418a1.528,1.528,0,0,0-1.4,0l-18.379,10.627C255.452,211.343,255.452,211.707,255.843,211.928Z" transform="translate(-255.55 -200.317)" fill="#fafafa"/>
      </g>
      <g id="freepik--Pen--inject-100" transform="translate(55.038 33.097)">
        <path id="Trazado_150160" data-name="Trazado 150160" d="M242.308,229.387l15.5,8.962,2.653.533a.078.078,0,0,0,.085-.117l-.826-1.522-15.5-8.955C243.693,228.015,241.9,229.179,242.308,229.387Z" transform="translate(-242.247 -226.733)" opacity="0.2"/>
        <g id="freepik--pen--inject-100-2" data-name="freepik--pen--inject-100" transform="translate(0.517)">
          <path id="Trazado_150161" data-name="Trazado 150161" d="M244.315,226h.072l-.15-.085h-.163a.65.65,0,0,0-.312.1,1.567,1.567,0,0,0-.715,1.229.826.826,0,0,0,0,.182h0l.059.111h.033l.176.1a.247.247,0,0,1-.078-.059.566.566,0,0,0,.41-.091,1.561,1.561,0,0,0,.709-1.229A.579.579,0,0,0,244.315,226Zm-1.054,1.691Z" transform="translate(-243.042 -225.92)" fill="#727997"/>
          <path id="Trazado_150162" data-name="Trazado 150162" d="M259.248,234.608l-1,1.743-.169-.1-14.62-8.455a.247.247,0,0,1-.078-.059.566.566,0,0,1-.13-.4,1.58,1.58,0,0,1,.709-1.229.65.65,0,0,1,.319-.1h.163Z" transform="translate(-243.114 -225.951)" fill="#f0f0f0"/>
          <path id="Trazado_150163" data-name="Trazado 150163" d="M266.7,239.257c.39-.228.709-.046.709.41a1.567,1.567,0,0,1-.709,1.229c-.4.228-.715.046-.715-.41A1.561,1.561,0,0,1,266.7,239.257Z" transform="translate(-251.062 -230.549)" fill="#727997"/>
          <path id="Trazado_150164" data-name="Trazado 150164" d="M268.239,240.342h0l-.91-1h0a.455.455,0,0,0-.566,0,1.561,1.561,0,0,0-.715,1.229.462.462,0,0,0,.28.488h.072l1.3.286a.332.332,0,0,0,.234-.052.9.9,0,0,0,.4-.7.312.312,0,0,0-.1-.254Z" transform="translate(-251.085 -230.58)" fill="#e0e0e0"/>
          <path id="Trazado_150165" data-name="Trazado 150165" d="M251.356,230.989h0a.176.176,0,0,0-.163,0,.553.553,0,0,0-.254.436.2.2,0,0,0,.059.156h.033l10.789,6.23.709-.41Z" transform="translate(-245.803 -227.685)" fill="#455a64"/>
          <path id="Trazado_150166" data-name="Trazado 150166" d="M266.08,240.3l1,.572.709-.41-1.353-.78A1.73,1.73,0,0,0,266.08,240.3Z" transform="translate(-251.097 -230.731)" fill="#37474f"/>
          <path id="Trazado_150167" data-name="Trazado 150167" d="M269.068,241.135h0l-.819-.9h0a.325.325,0,0,0-.41,0,1.106,1.106,0,0,0-.5.865.325.325,0,0,0,.2.345h.039l1.2.26h0a.2.2,0,0,0,.13,0,.5.5,0,0,0,.228-.4A.156.156,0,0,0,269.068,241.135Z" transform="translate(-251.536 -230.898)" fill="#727997"/>
          <path id="Trazado_150168" data-name="Trazado 150168" d="M269.068,241.135h0l-.819-.9h0a.325.325,0,0,0-.41,0,1.106,1.106,0,0,0-.5.865.325.325,0,0,0,.2.345h.039l1.2.26h0a.2.2,0,0,0,.13,0,.5.5,0,0,0,.228-.4A.156.156,0,0,0,269.068,241.135Z" transform="translate(-251.536 -230.898)" opacity="0.1"/>
          <path id="Trazado_150169" data-name="Trazado 150169" d="M269.4,241.49a.5.5,0,0,1-.228.4.2.2,0,0,1-.13,0h0l-.6-.13c-.1,0-.163-.111-.163-.254a.813.813,0,0,1,.364-.65.234.234,0,0,1,.293,0h0l.4.449h0a.156.156,0,0,1,.065.189Z" transform="translate(-251.863 -231.123)" fill="#727997"/>
          <path id="Trazado_150170" data-name="Trazado 150170" d="M269.568,241.645a.14.14,0,0,1,.228.13.5.5,0,0,1-.228.4.141.141,0,0,1-.228-.13A.507.507,0,0,1,269.568,241.645Z" transform="translate(-252.237 -231.408)" opacity="0.1"/>
          <path id="Trazado_150171" data-name="Trazado 150171" d="M247.209,228.587a.176.176,0,0,0-.176,0,.54.54,0,0,0-.254.436.182.182,0,0,0,.078.163h0l2.653,1.535a.2.2,0,0,1-.059-.156.553.553,0,0,1,.254-.436.176.176,0,0,1,.163,0Z" transform="translate(-244.349 -226.844)" fill="#fafafa"/>
          <path id="Trazado_150172" data-name="Trazado 150172" d="M247.287,228.75a.559.559,0,0,1-.254.436.176.176,0,0,1-.176,0,.182.182,0,0,1-.078-.163.54.54,0,0,1,.254-.436.176.176,0,0,1,.176,0,.182.182,0,0,1,.078.163Z" transform="translate(-244.349 -226.844)" fill="#f5f5f5"/>
          <path id="Trazado_150173" data-name="Trazado 150173" d="M245.545,226.86h0l-1.047-.6h0a.462.462,0,0,0-.429.059,1.4,1.4,0,0,0-.65,1.106.449.449,0,0,0,.189.416h0l1.06.611h0a.449.449,0,0,0,.442-.052,1.4,1.4,0,0,0,.65-1.106.449.449,0,0,0-.215-.429Z" transform="translate(-243.173 -226.027)" fill="#727997"/>
          <path id="Trazado_150174" data-name="Trazado 150174" d="M245.545,226.86h0l-1.047-.6h0a.462.462,0,0,0-.429.059,1.4,1.4,0,0,0-.65,1.106.449.449,0,0,0,.189.416h0l1.06.611h0a.449.449,0,0,0,.442-.052,1.4,1.4,0,0,0,.65-1.106.449.449,0,0,0-.215-.429Z" transform="translate(-243.173 -226.027)" opacity="0.05"/>
          <path id="Trazado_150175" data-name="Trazado 150175" d="M245.65,227.2c.351-.2.65-.039.65.371a1.4,1.4,0,0,1-.65,1.106c-.358.208-.65.039-.65-.364A1.418,1.418,0,0,1,245.65,227.2Z" transform="translate(-243.727 -226.339)" opacity="0.1"/>
          <path id="Trazado_150176" data-name="Trazado 150176" d="M270.147,242.1h0l-.436-.26h-.085a.241.241,0,0,0-.117.2c0,.033,0,.065.033.072h0l.436.267h0a.169.169,0,0,0,.247-.15A.176.176,0,0,0,270.147,242.1Z" transform="translate(-252.297 -231.486)" fill="#455a64"/>
          <path id="Trazado_150177" data-name="Trazado 150177" d="M270.425,242.277h0a.124.124,0,0,0-.078,0,.267.267,0,0,0-.117.208.084.084,0,0,0,.032.072h.052a.169.169,0,0,0,.169-.169A.15.15,0,0,0,270.425,242.277Z" transform="translate(-252.548 -231.637)" fill="#263238"/>
        </g>
      </g>
      <g id="freepik--Books--inject-100" transform="translate(13.692 55.21)">
        <path id="freepik--shadow--inject-100-2" data-name="freepik--shadow--inject-100" d="M202.6,298.433l3.187-1.841,3.3,1.906-.546-1.587,3.3.65-3.85-2.218,12.3-7.1c.2-.117.2-.293,0-.41l-23.114-13.287a.8.8,0,0,0-.709,0l-17.644,10.178a.215.215,0,0,0,0,.4L201.9,298.453a.787.787,0,0,0,.7-.019Z" transform="translate(-178.673 -265.006)" opacity="0.1"/>
        <path id="Trazado_150178" data-name="Trazado 150178" d="M217.62,307.863l-.54-.319a.891.891,0,0,1,.455-.033C217.678,307.583,217.62,307.863,217.62,307.863Z" transform="translate(-192.102 -276.556)"/>
        <path id="Trazado_150179" data-name="Trazado 150179" d="M217.434,305.946a.65.65,0,0,0-.969,0c-.533.488-.559.969-.78.956s-.215-3.9-.215-3.9l2.088,1.951Z" transform="translate(-191.539 -274.984)"/>
        <path id="Trazado_150180" data-name="Trazado 150180" d="M184.839,281.287H184.8l.338-.2,14.405-8.312,20.987,13.579c.345.2.41.488.137.65l-.494.286-13.462,7.8-.091-.072Z" transform="translate(-180.815 -264.418)" fill="#455a64"/>
        <path id="Trazado_150181" data-name="Trazado 150181" d="M215.7,300.095l1.041-.215v4.175c-.65.267-1.028.52-1.093,1.047Z" transform="translate(-191.602 -273.893)" fill="#727997"/>
        <path id="Trazado_150182" data-name="Trazado 150182" d="M217.674,299.645l13.339-7.7a.924.924,0,0,0,.416-.728V287.1l-13.462,7.843a1.242,1.242,0,0,1-.65.767c-.481.182-.117.371-.117.371v3.505C217.674,299.541,217.674,299.645,217.674,299.645Z" transform="translate(-192.097 -269.425)" fill="#ebebeb"/>
        <path id="Trazado_150183" data-name="Trazado 150183" d="M204.482,292.818c.137-.078.247-.085.247,0v.13c0,.143.221.137.494,0s.494-.4.494-.546v-.13c0-.078.182-.241.416-.377l-21.7-12.435-.338.2a.345.345,0,0,0-.078.182v.13c0,.143-.221.39-.494.546s-.494.169-.494,0v-.13c0-.072-.1-.072-.247,0Z" transform="translate(-180.109 -266.753)" fill="#37474f"/>
        <path id="Trazado_150184" data-name="Trazado 150184" d="M184.839,275.167H184.8l.338-.189,14.405-8.318,20.987,12.123c.345.2.41.488.137.65l-.494.28-13.462,8.11Z" transform="translate(-180.815 -262.278)" fill="#455a64"/>
        <path id="Trazado_150185" data-name="Trazado 150185" d="M182.789,280.67l21.683,12.513-.761.6L182.1,281.3a.839.839,0,0,1,.286-.4Z" transform="translate(-179.871 -267.176)" fill="#455a64"/>
        <path id="Trazado_150186" data-name="Trazado 150186" d="M182.131,287.274h-.039l-.046-.052v-.033a.7.7,0,0,1-.052-.124,1.122,1.122,0,0,1-.046-.137,1.547,1.547,0,0,1,0-.169v-.176a1.822,1.822,0,0,1,0-.189v-3.583a2.92,2.92,0,0,1,.2-1.093l21.611,12.48.091,5.613-21.611-12.48Z" transform="translate(-179.818 -267.544)" fill="#455a64"/>
        <path id="Trazado_150187" data-name="Trazado 150187" d="M203.654,294.152h0l-18.568-8.7c-1.028-.481-1.528.527-1.3,1.574a4.981,4.981,0,0,0,1.119,1.86h0l-2.784-1.606h-.039l-.046-.052V287.2a.7.7,0,0,1-.052-.124,1.113,1.113,0,0,1-.046-.137,1.551,1.551,0,0,1,0-.169q0-.049,0-.1v-.078a1.834,1.834,0,0,1,0-.189v-3.583a2.92,2.92,0,0,1,.2-1.093Z" transform="translate(-179.814 -267.547)" opacity="0.1"/>
        <path id="Trazado_150188" data-name="Trazado 150188" d="M215,296.688h.488a2.172,2.172,0,0,1,.234-1.06.651.651,0,0,0,.4.13,1.21,1.21,0,0,0,.6-.189,1.8,1.8,0,0,0,.559-.488v-.046a.819.819,0,0,0,.143-.41l12.818-7.375.436-.254.553-.319a.3.3,0,0,0,.169-.254v-.566a.3.3,0,0,1-.169.26h0l-1.47.839L217.4,294.113c-.228.137-.416.3-.416.377v.13a.4.4,0,0,1-.117.228,1.34,1.34,0,0,1-.377.319c-.273.156-.494.163-.494,0v-.111c0-.078-.1-.072-.247,0l-.241.143a1.951,1.951,0,0,0-.507,1.489Z" transform="translate(-191.371 -268.991)" fill="#37474f"/>
        <path id="Trazado_150189" data-name="Trazado 150189" d="M215.542,299.611v3.85h0a1.379,1.379,0,0,1,.728-.911,1.222,1.222,0,0,1,.592-.182.65.65,0,0,1,.429.163h.046l.085-.052,12.357-7.154.709-.41.208-.117.6-.345a.293.293,0,0,0,.13-.234v.566a.273.273,0,0,1-.124.221h0l-.221.124-.137.085-.234.137-.15.085-.1.059-.182.1-9.814,5.665-3.128,1.808c-.228.13-.4.176-.416.111v-.124c0-.156-.221-.156-.488,0a.65.65,0,0,0-.39.494v.156a.228.228,0,0,1-.072.182l-.072.039-.156.091-.189.111a.2.2,0,0,1-.247,0h0a.228.228,0,0,1-.039-.059h0a.7.7,0,0,1-.052-.124.924.924,0,0,1-.046-.143.3.3,0,0,0-.033-.163c-.033-.059,0-.065,0-.1a.318.318,0,0,0,0-.078V299.7Z" transform="translate(-191.416 -271.914)" fill="#37474f"/>
        <path id="Trazado_150190" data-name="Trazado 150190" d="M182.1,276.626l20.538,11.856,15.53-8.962a.254.254,0,0,0,0-.481L197.839,267.3l-13.657,7.876h0l-.338.2a.312.312,0,0,0-.078.176v.13c0,.15-.221.39-.494.546h-.046l-.449-.267-.215.124h-.033l-.163.091A.839.839,0,0,0,182.1,276.626Z" transform="translate(-179.871 -262.502)" opacity="0.1"/>
        <path id="Trazado_150191" data-name="Trazado 150191" d="M235.448,285.978l-.618-.332.566-.137A.449.449,0,0,1,235.448,285.978Z" transform="translate(-198.308 -268.869)" fill="#727997"/>
        <path id="Trazado_150192" data-name="Trazado 150192" d="M235.448,285.978l-.618-.332.566-.137A.449.449,0,0,1,235.448,285.978Z" transform="translate(-198.308 -268.869)" opacity="0.5"/>
        <path id="Trazado_150193" data-name="Trazado 150193" d="M199.526,287.924a1.379,1.379,0,0,0,1.255,0l14.106-8.149-21.117-12-.494-.286-14.113,7.954a.384.384,0,0,0,0,.722Z" transform="translate(-178.756 -262.568)" fill="#727997"/>
        <path id="Trazado_150194" data-name="Trazado 150194" d="M217.827,275.55l4.923,2.829,3.187-1.834,3.7,2.14v2.471c0,.325-.358.787-.494.709a3.613,3.613,0,0,0-.709.254,5.248,5.248,0,0,0-1.021.754l-11.3-6.328Z" transform="translate(-191.763 -265.386)" fill="#727997"/>
        <path id="Trazado_150195" data-name="Trazado 150195" d="M217.827,275.55l4.923,2.829,3.187-1.834,3.7,2.14v2.471c0,.325-.358.787-.494.709a3.613,3.613,0,0,0-.709.254,5.248,5.248,0,0,0-1.021.754l-11.3-6.328Z" transform="translate(-191.763 -265.386)" opacity="0.15"/>
        <path id="Trazado_150196" data-name="Trazado 150196" d="M233.79,280.5v2.719h.039a1.3,1.3,0,0,1,.6-.189.65.65,0,0,1,.4.091V279.9Z" transform="translate(-197.945 -266.907)" fill="#37474f"/>
        <path id="Trazado_150197" data-name="Trazado 150197" d="M232.72,284.436a.819.819,0,0,1,.182-.455,1,1,0,0,1,.169-.2l.059-.059.078-.065.065-.046c.046-.039.1-.065.143-.1V280.84l-.689.4v3.193Z" transform="translate(-197.57 -267.236)" fill="#e0e0e0"/>
        <path id="Trazado_150198" data-name="Trazado 150198" d="M236.379,282.771c0,.325-.358.787-.494.709h0l-.494-.325V281.12l.494-.852.273-.1.221.13Z" transform="translate(-198.504 -267.002)" opacity="0.4"/>
        <path id="Trazado_150199" data-name="Trazado 150199" d="M211.57,289.381v3.063a.885.885,0,0,0,.423-.1l1.548-.9,11.784-6.8V281.44Z" transform="translate(-190.175 -267.446)" fill="#ebebeb"/>
        <path id="Trazado_150200" data-name="Trazado 150200" d="M229.577,284.59l-3.3,1.906a8.379,8.379,0,0,1,1.652-1.1,7.544,7.544,0,0,1,1.645-.806Z" transform="translate(-195.319 -268.547)" opacity="0.15"/>
        <path id="Trazado_150201" data-name="Trazado 150201" d="M179.85,276v2.315a.923.923,0,0,0,.416.722l18.249,10.536,1.548.9a.859.859,0,0,0,.416.1v-2.719Z" transform="translate(-179.085 -265.544)" fill="#f5f5f5"/>
        <path id="Trazado_150202" data-name="Trazado 150202" d="M201.76,261.366l21.117,12.2v.28c0,.156.221.215.494.059s.494-.351.494-.65v-.267l-21.494-12.4-.091-.046a.3.3,0,0,0-.033.13v.13C202.248,260.956,202.027,261.21,201.76,261.366Z" transform="translate(-186.745 -260.138)" fill="#727997"/>
        <path id="Trazado_150203" data-name="Trazado 150203" d="M201.76,261.366l21.117,12.2v.28c0,.156.221.215.494.059s.494-.351.494-.65v-.267l-21.494-12.4-.091-.046a.3.3,0,0,0-.033.13v.13C202.248,260.956,202.027,261.21,201.76,261.366Z" transform="translate(-186.745 -260.138)" opacity="0.1"/>
        <path id="Trazado_150204" data-name="Trazado 150204" d="M200.8,282.061l13.794-7.967c.176-.091.338-.163.4-.13l-.091-.046-21.117-12.2-.247-.143a.8.8,0,0,0-.65.1l-13.657,7.9a.384.384,0,0,0,0,.728L199.6,282.061a1.378,1.378,0,0,0,1.2,0Z" transform="translate(-178.779 -260.49)" fill="#727997"/>
        <path id="Trazado_150205" data-name="Trazado 150205" d="M196.618,266.982l-7.629,4.4c-.325.182-.325.488,0,.65l1.028.592a1.3,1.3,0,0,0,1.171,0l7.629-4.377a.358.358,0,0,0,0-.65l-1.028-.592A1.3,1.3,0,0,0,196.618,266.982Z" transform="translate(-182.195 -262.346)" fill="#fff"/>
        <path id="Trazado_150206" data-name="Trazado 150206" d="M202.673,281.478a2.179,2.179,0,0,0-2.166,0,.169.169,0,0,1-.137,0l-17.286-9.983a.137.137,0,0,1,0-.234.628.628,0,0,0,0-1.093.143.143,0,0,1-.065-.117.13.13,0,0,1,.065-.117l10.328-5.944a.13.13,0,0,1,.137,0,2.179,2.179,0,0,0,2.166,0,.13.13,0,0,1,.137,0l17.306,9.989a.137.137,0,0,1,0,.234.65.65,0,0,0,0,1.093.137.137,0,0,1,0,.241L202.8,281.51a.149.149,0,0,1-.072,0A.124.124,0,0,1,202.673,281.478Zm9.911-6.751a.923.923,0,0,1,.273-.65L195.8,264.23a2.432,2.432,0,0,1-2.3,0L183.4,270.083a.911.911,0,0,1,0,1.3l17.046,9.84a2.432,2.432,0,0,1,2.3,0l10.12-5.853a.891.891,0,0,1-.273-.644Z" transform="translate(-180.192 -261.337)" fill="#fff"/>
        <path id="Trazado_150207" data-name="Trazado 150207" d="M202.56,260.324l.091.046,21.52,12.428a.163.163,0,0,1,.046-.059l.072-.039.156-.091.189-.111a.2.2,0,0,1,.247,0h0l.065.091a.7.7,0,0,1,.052.124.838.838,0,0,1,.046.137.327.327,0,0,0,.033.169c.033.059,0,.065,0,.1a.318.318,0,0,0,0,.078v-.416a1.3,1.3,0,0,0-.65-.969L204.147,260.1a1.3,1.3,0,0,0-1.125-.085l-.254.156h0l-.1.065h0a.273.273,0,0,0-.1.091Z" transform="translate(-187.025 -259.922)" fill="#727997"/>
        <path id="Trazado_150208" data-name="Trazado 150208" d="M212.187,293.567l.852-.494,12.773-7.375a.845.845,0,0,1,.176-.462,1.8,1.8,0,0,1,.559-.488,1.3,1.3,0,0,1,.6-.189.65.65,0,0,1,.4.13,2.172,2.172,0,0,0,.234-1.06h.488a1.951,1.951,0,0,1-.494,1.5l-.241.143c-.137.078-.247.085-.247,0v-.1c0-.143-.221-.137-.494,0s-.494.4-.494.546v.13c0,.078-.189.247-.416.377l-12.357,7.154-1.34.774h0a1.3,1.3,0,0,1-.65.15v-.559A1.3,1.3,0,0,0,212.187,293.567Z" transform="translate(-190.161 -268.211)" fill="#727997"/>
        <path id="Trazado_150209" data-name="Trazado 150209" d="M212.187,293.567l.852-.494,12.773-7.375a.845.845,0,0,1,.176-.462,1.8,1.8,0,0,1,.559-.488,1.3,1.3,0,0,1,.6-.189.65.65,0,0,1,.4.13,2.172,2.172,0,0,0,.234-1.06h.488a1.951,1.951,0,0,1-.494,1.5l-.241.143c-.137.078-.247.085-.247,0v-.1c0-.143-.221-.137-.494,0s-.494.4-.494.546v.13c0,.078-.189.247-.416.377l-12.357,7.154-1.34.774h0a1.3,1.3,0,0,1-.65.15v-.559A1.3,1.3,0,0,0,212.187,293.567Z" transform="translate(-190.161 -268.211)" opacity="0.3"/>
        <path id="Trazado_150210" data-name="Trazado 150210" d="M212.184,288.237h0l.852-.494,9.814-5.658,3.128-1.815c.228-.13.41-.176.416-.1h0v.143c0,.156.221.156.488,0a.65.65,0,0,0,.39-.494v-.156a.227.227,0,0,1,.072-.182l.072-.039.156-.091.189-.111a.2.2,0,0,1,.247,0h0l.039.059h0a.7.7,0,0,1,.052.124.838.838,0,0,1,.046.137.326.326,0,0,0,.033.169c.033.059,0,.065,0,.1a.318.318,0,0,0,0,.078v2.107h-.488v-2.192h0a1.353,1.353,0,0,1-.728.9,1.223,1.223,0,0,1-.592.189.65.65,0,0,1-.429-.163h-.046l-.085.052-12.357,7.154-1.262.872h0a1.3,1.3,0,0,1-.65.143v-.559A1.3,1.3,0,0,0,212.184,288.237Z" transform="translate(-190.165 -266.66)" fill="#727997"/>
        <path id="Trazado_150211" data-name="Trazado 150211" d="M212.184,288.237h0l.852-.494,9.814-5.658,3.128-1.815c.228-.13.41-.176.416-.1h0v.143c0,.156.221.156.488,0a.65.65,0,0,0,.39-.494v-.156a.227.227,0,0,1,.072-.182l.072-.039.156-.091.189-.111a.2.2,0,0,1,.247,0h0l.039.059h0a.7.7,0,0,1,.052.124.838.838,0,0,1,.046.137.326.326,0,0,0,.033.169c.033.059,0,.065,0,.1a.318.318,0,0,0,0,.078v2.107h-.488v-2.192h0a1.353,1.353,0,0,1-.728.9,1.223,1.223,0,0,1-.592.189.65.65,0,0,1-.429-.163h-.046l-.085.052-12.357,7.154-1.262.872h0a1.3,1.3,0,0,1-.65.143v-.559A1.3,1.3,0,0,0,212.184,288.237Z" transform="translate(-190.165 -266.66)" opacity="0.3"/>
        <path id="Trazado_150212" data-name="Trazado 150212" d="M178.9,274.45v.566a.436.436,0,0,0,.254.358h0l19.023,10.985,1.34.767h0a1.378,1.378,0,0,0,.65.143v-.559a1.216,1.216,0,0,1-.65-.15l-.852-.488h0l-19.5-11.264A.455.455,0,0,1,178.9,274.45Z" transform="translate(-178.752 -265.002)" fill="#727997"/>
        <path id="Trazado_150213" data-name="Trazado 150213" d="M178.9,274.45v.566a.436.436,0,0,0,.254.358h0l19.023,10.985,1.34.767h0a1.378,1.378,0,0,0,.65.143v-.559a1.216,1.216,0,0,1-.65-.15l-.852-.488h0l-19.5-11.264A.455.455,0,0,1,178.9,274.45Z" transform="translate(-178.752 -265.002)" opacity="0.2"/>
        <path id="Trazado_150214" data-name="Trazado 150214" d="M178.9,280.26v.572a.442.442,0,0,0,.254.358h0l19.023,10.984,1.34.774h0a1.3,1.3,0,0,0,.65.15v-.559a1.3,1.3,0,0,1-.65-.15l-.852-.494h0l-19.511-11.264A.455.455,0,0,1,178.9,280.26Z" transform="translate(-178.752 -267.033)" fill="#727997"/>
        <path id="Trazado_150215" data-name="Trazado 150215" d="M178.9,280.26v.572a.442.442,0,0,0,.254.358h0l19.023,10.984,1.34.774h0a1.3,1.3,0,0,0,.65.15v-.559a1.3,1.3,0,0,1-.65-.15l-.852-.494h0l-19.511-11.264A.455.455,0,0,1,178.9,280.26Z" transform="translate(-178.752 -267.033)" opacity="0.2"/>
        <path id="Trazado_150216" data-name="Trazado 150216" d="M229.325,285.08V292.7l-1.1-1.268-1.106,2.536v-7.622Z" transform="translate(-195.612 -268.718)" fill="#727997"/>
        <path id="Trazado_150217" data-name="Trazado 150217" d="M229.325,285.08V292.7l-1.1-1.268-1.106,2.536v-7.622Z" transform="translate(-195.612 -268.718)" opacity="0.5"/>
        <path id="Trazado_150218" data-name="Trazado 150218" d="M221.718,300.31v2.068a1.951,1.951,0,0,0,.956,1.665l2.894,1.665-2.751-.312.546,1.587-2.881-1.671a1.912,1.912,0,0,1-.963-1.658v-2.068Z" transform="translate(-192.955 -274.043)" fill="#727997"/>
        <path id="Trazado_150219" data-name="Trazado 150219" d="M221.718,300.31v2.068a1.951,1.951,0,0,0,.956,1.665l2.894,1.665-2.751-.312.546,1.587-2.881-1.671a1.912,1.912,0,0,1-.963-1.658v-2.068Z" transform="translate(-192.955 -274.043)" opacity="0.5"/>
        <path id="Trazado_150220" data-name="Trazado 150220" d="M222.107,299.75l-3.3,1.906a8.227,8.227,0,0,1,1.645-1.106A7.707,7.707,0,0,1,222.107,299.75Z" transform="translate(-192.707 -273.848)" opacity="0.15"/>
      </g>
    </g>
    <g id="freepik--Flag--inject-100" transform="translate(48.07 23.47)">
      <g id="freepik--flag--inject-100-2" data-name="freepik--flag--inject-100">
        <path id="Trazado_150221" data-name="Trazado 150221" d="M91.057,328.063c-5.691-3.291-14.913-3.291-20.6,0-2.842,1.639-4.26,3.792-4.253,5.944v2.257c0,2.153,1.411,4.3,4.253,5.944,5.691,3.252,14.913,3.252,20.6,0,2.842-1.645,4.26-3.792,4.253-5.944v-2.231C95.336,331.855,93.9,329.7,91.057,328.063Z" transform="translate(-66.185 -129.107)" fill="#727997"/>
        <path id="Trazado_150222" data-name="Trazado 150222" d="M91.057,328.063c-5.691-3.291-14.913-3.291-20.6,0-2.842,1.639-4.26,3.792-4.253,5.944v2.257c0,2.153,1.411,4.3,4.253,5.944,5.691,3.252,14.913,3.252,20.6,0,2.842-1.645,4.26-3.792,4.253-5.944v-2.231C95.336,331.855,93.9,329.7,91.057,328.063Z" transform="translate(-66.185 -129.107)" opacity="0.35"/>
        <path id="Trazado_150223" data-name="Trazado 150223" d="M70.445,328.064c-5.691,3.284-5.691,8.6,0,11.888s14.913,3.291,20.6,0,5.691-8.6,0-11.888S76.136,324.774,70.445,328.064Z" transform="translate(-66.177 -129.108)" fill="#727997"/>
        <path id="Trazado_150224" data-name="Trazado 150224" d="M70.445,328.064c-5.691,3.284-5.691,8.6,0,11.888s14.913,3.291,20.6,0,5.691-8.6,0-11.888S76.136,324.774,70.445,328.064Z" transform="translate(-66.177 -129.108)" opacity="0.1"/>
        <path id="Trazado_150225" data-name="Trazado 150225" d="M90.807,324.932c-5.112-2.946-13.4-2.946-18.509,0-2.556,1.476-3.824,3.408-3.818,5.346v1.463c0,1.951,1.262,3.9,3.818,5.339,5.112,2.953,13.4,2.953,18.509,0,2.556-1.47,3.824-3.408,3.818-5.339v-1.463C94.631,328.346,93.363,326.408,90.807,324.932Z" transform="translate(-66.983 -128.102)" fill="#727997"/>
        <path id="Trazado_150226" data-name="Trazado 150226" d="M90.807,324.932c-5.112-2.946-13.4-2.946-18.509,0-2.556,1.476-3.824,3.408-3.818,5.346v1.463c0,1.951,1.262,3.9,3.818,5.339,5.112,2.953,13.4,2.953,18.509,0,2.556-1.47,3.824-3.408,3.818-5.339v-1.463C94.631,328.346,93.363,326.408,90.807,324.932Z" transform="translate(-66.983 -128.102)" opacity="0.2"/>
        <ellipse id="Elipse_4695" data-name="Elipse 4695" cx="13.085" cy="7.557" rx="13.085" ry="7.557" transform="translate(1.484 194.619)" fill="#727997"/>
        <path id="Trazado_150227" data-name="Trazado 150227" d="M89.151,50.191a1.3,1.3,0,0,0-1.3-1.3h0a1.3,1.3,0,0,0-1.3,1.3V234.566h0a.65.65,0,0,0,.377.527,2.01,2.01,0,0,0,1.808,0,.65.65,0,0,0,.377-.527h0Z" transform="translate(-73.301 -32.358)" fill="#727997"/>
        <path id="Trazado_150228" data-name="Trazado 150228" d="M89.151,50.191a1.3,1.3,0,0,0-1.3-1.3h0a1.3,1.3,0,0,0-1.3,1.3V234.566h0a.65.65,0,0,0,.377.527,2.01,2.01,0,0,0,1.808,0,.65.65,0,0,0,.377-.527h0Z" transform="translate(-73.301 -32.358)" opacity="0.2"/>
        <path id="Trazado_150229" data-name="Trazado 150229" d="M87.881,48.92h0a1.3,1.3,0,0,0-1.3,1.3v1.522a3.616,3.616,0,0,0,1.3.241,3.486,3.486,0,0,0,1.3-.247V50.2A1.3,1.3,0,0,0,87.881,48.92Z" transform="translate(-73.311 -32.368)" opacity="0.2"/>
        <path id="Trazado_150230" data-name="Trazado 150230" d="M90.231,45.01a3.57,3.57,0,1,1-3.57-3.57,3.57,3.57,0,0,1,3.57,3.57Z" transform="translate(-72.091 -29.753)" fill="#727997"/>
        <path id="Trazado_150231" data-name="Trazado 150231" d="M70.85,215.26c-.839,9.378,12.838,15.687,23.413,13.306L91.206,183.36l-17.169,2.322Z" transform="translate(-67.798 -79.375)" fill="#7e5ee3"/>
        <path id="Trazado_150232" data-name="Trazado 150232" d="M71.429,202.472a13.305,13.305,0,0,0-.559,2.335L76.4,154.58c9.4,2.92,16.955,10.529,18.334,21.553C96.234,187.976,75.572,189.706,71.429,202.472Z" transform="translate(-67.818 -69.312)" fill="#3c2488"/>
        <path id="Trazado_150233" data-name="Trazado 150233" d="M89.287,41.837a3.4,3.4,0,0,0-3.187,0,2.244,2.244,0,0,0,3.187,0Z" transform="translate(-73.143 -29.753)" opacity="0.2"/>
        <path id="Trazado_150234" data-name="Trazado 150234" d="M89.924,32.191c0,1.606-1.3,3.518-2.907,3.518S84.11,33.8,84.11,32.191s2.907-8.721,2.907-8.721S89.924,30.585,89.924,32.191Z" transform="translate(-72.448 -23.47)" fill="#727997"/>
        <path id="Trazado_150235" data-name="Trazado 150235" d="M84.389,57.9,72.93,123.371s8.383,3.057,13.352,6.36c8.155,5.43,9.183,12.779,9.183,12.779Z" transform="translate(-68.538 -35.508)" fill="#7e5ee3"/>
      </g>
    </g>
    <g id="freepik--speech-bubble--inject-100" transform="translate(226.322 54.03)">
      <g id="freepik--speech-bubble--inject-100-2" data-name="freepik--speech-bubble--inject-100">
        <g id="freepik--speech-bubble--inject-100-3" data-name="freepik--speech-bubble--inject-100">
          <path id="Trazado_150236" data-name="Trazado 150236" d="M381.739,70.72,354.977,86.134a2.38,2.38,0,0,0-1.067,1.854v30.684a2.348,2.348,0,0,0,1.073,1.841l3.831,2.146a2.4,2.4,0,0,0,2.146,0l26.756-15.426a2.374,2.374,0,0,0,1.073-1.854V74.713a2.328,2.328,0,0,0-1.08-1.84l-3.824-2.166a2.4,2.4,0,0,0-2.146.013Z" transform="translate(-345.034 -70.46)" fill="#ff9d00"/>
          <path id="Trazado_150237" data-name="Trazado 150237" d="M363.1,123.886V93.2a2.361,2.361,0,0,1,1.073-1.847l26.756-15.433c.592-.338,1.073-.065,1.073.65v30.684a2.374,2.374,0,0,1-1.073,1.854l-26.756,15.413C363.581,124.849,363.1,124.569,363.1,123.886Z" transform="translate(-348.247 -72.32)" fill="#ff9d00"/>
          <path id="Trazado_150238" data-name="Trazado 150238" d="M360.96,131.48a2.439,2.439,0,0,1-2.146,0l-3.831-2.153a2.315,2.315,0,0,1-1.073-1.834V96.823a2.185,2.185,0,0,1,.338-1.093l5.957,3.4a2.153,2.153,0,0,0-.319,1.047v30.684C359.887,131.487,360.329,131.844,360.96,131.48Z" transform="translate(-345.034 -79.296)" opacity="0.2"/>
          <path id="Trazado_150239" data-name="Trazado 150239" d="M388.947,74.5c-.078-.533-.52-.728-1.054-.423L361.138,89.5a2.185,2.185,0,0,0-.754.8l-5.964-3.4a2.192,2.192,0,0,1,.741-.761l26.756-15.42a2.4,2.4,0,0,1,2.146,0l3.824,2.146A2.335,2.335,0,0,1,388.947,74.5Z" transform="translate(-345.543 -70.461)" fill="#fff" opacity="0.4"/>
          <path id="Trazado_150240" data-name="Trazado 150240" d="M349.138,113.57l-8.6,8.734a.95.95,0,0,0,.163,1.463l5.957,3.421L355.108,117Z" transform="translate(-340.262 -85.533)" fill="#ff9d00"/>
          <path id="Trazado_150241" data-name="Trazado 150241" d="M349.138,113.57l-8.6,8.734a.95.95,0,0,0,.163,1.463l5.957,3.421L355.108,117Z" transform="translate(-340.262 -85.533)" opacity="0.1"/>
          <path id="Trazado_150242" data-name="Trazado 150242" d="M358.329,118.87l-8.6,8.747a.943.943,0,0,0,.806,1.6l7.8-1.125C359.168,128.092,359.168,118.87,358.329,118.87Z" transform="translate(-343.476 -87.387)" fill="#ff9d00"/>
        </g>
        <path id="Trazado_150243" data-name="Trazado 150243" d="M390.087,99.5h0l-2.953-6.569a.611.611,0,0,0,0-.1v-.241c0-.228-.137-.325-.306-.234l-5.3,3.063a.65.65,0,0,0-.735-.429V93.919c0-.4-.189-.65-.416-.488a1.223,1.223,0,0,0-.416.963v1.073a2.862,2.862,0,0,0-.735,1.3l-5.3,3.063a.728.728,0,0,0-.306.579v.065a.293.293,0,0,0,.15.221l-2.751,9.469h0a.292.292,0,0,0,0,.072c0,3.089,2.536,1.671,3.447,1.138s3.291-1.951,3.291-4.663a.28.28,0,0,0-.046-.163h0l-2.8-6.243,4.39-2.536a.65.65,0,0,0,.689.338v9.56l-.494.306V113.9l-1.47.845a2.218,2.218,0,0,0-.924,1.762v.65l-.449.26a4.318,4.318,0,0,0-1.8,3.447v.176l11.115-6.432v-.182c0-1.3-.813-1.951-1.808-1.366l-.449.267v-.65c0-.683-.416-1-.924-.7l-1.47.845v-5.983l-.494.3V97.626a2.953,2.953,0,0,0,.7-1.132l4.552-2.647-2.679,9.229h0a.348.348,0,0,0,0,.078c0,3.089,2.53,1.671,3.447,1.138s3.291-1.951,3.291-4.663a.338.338,0,0,0-.039-.13Zm-13.079,7.108-5.073,2.933,2.536-8.845Zm7.29-4.091,2.543-8.851,2.536,5.918Z" transform="translate(-351.015 -78.103)" fill="#455a64"/>
      </g>
    </g>
  </g>
</svg>
