<svg xmlns="http://www.w3.org/2000/svg" width="278.308" height="241.266" viewBox="0 0 278.308 241.266">
  <g id="Grupo_75798" data-name="Grupo 75798" transform="translate(9221.337 6421)">
    <path id="Trazado_148654" data-name="Trazado 148654" d="M177.678-12.905c35.758,7.362,55.972,36.317,62.577,75.724,5.334,31.818,15.445,73.938,22.086,96.232,14.725,49.431-42.068,81.553-110.956,52.106-12.621-7.888-42.97,0-42.97,0s-43.129,10.047-76.4-7.934C10.909,191.816-10.052,170.619-9,128.442-4.268,71.758,71.34,64.166,97.223,33.37,115.628,7.6,141.92-20.267,177.678-12.905Z" transform="matrix(1, -0.017, 0.017, 1, -9212.053, -6402.277)" fill="#81d4fa" opacity="0.4"/>
    <g id="freepik--background-complete--inject-4" transform="translate(-9219.43 -6403)">
      <rect id="Rectángulo_33138" data-name="Rectángulo 33138" width="276.4" height="0.138" transform="translate(0 180.987)" fill="#ebebeb"/>
      <rect id="Rectángulo_33139" data-name="Rectángulo 33139" width="18.309" height="0.138" transform="translate(230.396 189.881)" fill="#ebebeb"/>
      <rect id="Rectángulo_33140" data-name="Rectángulo 33140" width="4.804" height="0.138" transform="translate(178.295 191.385)" fill="#ebebeb"/>
      <rect id="Rectángulo_33141" data-name="Rectángulo 33141" width="10.608" height="0.138" transform="translate(219.235 184.751)" fill="#ebebeb"/>
      <rect id="Rectángulo_33142" data-name="Rectángulo 33142" width="23.875" height="0.138" transform="translate(29 185.68)" fill="#ebebeb"/>
      <rect id="Rectángulo_33143" data-name="Rectángulo 33143" width="3.499" height="0.138" transform="translate(57.801 185.68)" fill="#ebebeb"/>
      <rect id="Rectángulo_33144" data-name="Rectángulo 33144" width="51.786" height="0.138" transform="translate(72.677 188.013)" fill="#ebebeb"/>
      <path id="Trazado_148465" data-name="Trazado 148465" d="M148.1,211.332H41.361a3.157,3.157,0,0,1-3.151-3.156V58.129A3.156,3.156,0,0,1,41.361,55H148.1a3.156,3.156,0,0,1,3.156,3.156V208.175A3.156,3.156,0,0,1,148.1,211.332ZM41.361,55.111a3.018,3.018,0,0,0-3.013,3.018V208.175a3.018,3.018,0,0,0,3.013,3.018H148.1a3.024,3.024,0,0,0,3.018-3.018V58.129a3.024,3.024,0,0,0-3.018-3.018Z" transform="translate(-17.088 -55)" fill="#ebebeb"/>
      <path id="Trazado_148466" data-name="Trazado 148466" d="M364.4,211.332H257.656a3.162,3.162,0,0,1-3.156-3.156V58.129A3.162,3.162,0,0,1,257.656,55H364.4a3.156,3.156,0,0,1,3.145,3.129V208.175A3.157,3.157,0,0,1,364.4,211.332ZM257.656,55.111a3.024,3.024,0,0,0-3.018,3.018V208.175a3.024,3.024,0,0,0,3.018,3.018H364.4a3.024,3.024,0,0,0,3.018-3.018V58.129a3.024,3.024,0,0,0-3.018-3.018Z" transform="translate(-113.812 -55)" fill="#ebebeb"/>
      <rect id="Rectángulo_33145" data-name="Rectángulo 33145" width="36.103" height="7.021" transform="translate(193.989 5.981)" fill="#f0f0f0"/>
      <rect id="Rectángulo_33146" data-name="Rectángulo 33146" width="30.868" height="3.599" transform="translate(196.603 13.002)" fill="#e0e0e0"/>
      <rect id="Rectángulo_33147" data-name="Rectángulo 33147" width="24.45" height="160.743" transform="translate(199.809 16.601)" fill="#f0f0f0"/>
      <rect id="Rectángulo_33148" data-name="Rectángulo 33148" width="18.469" height="160.743" transform="translate(202.806 16.601)" fill="#e0e0e0"/>
      <rect id="Rectángulo_33149" data-name="Rectángulo 33149" width="7.535" height="160.743" transform="translate(208.273 16.601)" fill="#f0f0f0"/>
      <rect id="Rectángulo_33150" data-name="Rectángulo 33150" width="36.103" height="7.021" transform="translate(230.086 187.969) rotate(180)" fill="#f0f0f0"/>
      <rect id="Rectángulo_33151" data-name="Rectángulo 33151" width="30.868" height="3.604" transform="translate(227.472 180.948) rotate(180)" fill="#e0e0e0"/>
      <rect id="Rectángulo_33152" data-name="Rectángulo 33152" width="36.103" height="7.021" transform="translate(46.314 5.981)" fill="#f0f0f0"/>
      <rect id="Rectángulo_33153" data-name="Rectángulo 33153" width="30.868" height="3.599" transform="translate(48.928 13.002)" fill="#e0e0e0"/>
      <rect id="Rectángulo_33154" data-name="Rectángulo 33154" width="24.45" height="160.743" transform="translate(52.135 16.601)" fill="#f0f0f0"/>
      <rect id="Rectángulo_33155" data-name="Rectángulo 33155" width="18.469" height="160.743" transform="translate(55.131 16.601)" fill="#e0e0e0"/>
      <rect id="Rectángulo_33156" data-name="Rectángulo 33156" width="7.535" height="160.743" transform="translate(60.598 16.601)" fill="#f0f0f0"/>
      <rect id="Rectángulo_33157" data-name="Rectángulo 33157" width="36.103" height="7.021" transform="translate(82.411 187.969) rotate(180)" fill="#f0f0f0"/>
      <rect id="Rectángulo_33158" data-name="Rectángulo 33158" width="30.868" height="3.604" transform="translate(79.797 180.948) rotate(180)" fill="#e0e0e0"/>
    </g>
    <g id="freepik--Shadow--inject-4" transform="translate(-9188.412 -6209.564)">
      <ellipse id="freepik--path--inject-4" cx="107.182" cy="6.258" rx="107.182" ry="6.258" fill="#f5f5f5"/>
    </g>
    <g id="freepik--character-2--inject-4" transform="translate(-9073.191 -6373.13)">
      <path id="Trazado_148467" data-name="Trazado 148467" d="M280.578,125.268s-3.162-.89-11.648.337c0,0,.238,13.743,1.658,20.642a33.074,33.074,0,0,0,9.619-.52S278.582,130.237,280.578,125.268Z" transform="translate(-266.503 -116.154)" fill="#fff"/>
      <path id="Trazado_148468" data-name="Trazado 148468" d="M280.578,125.268s-3.162-.89-11.648.337c0,0,.238,13.743,1.658,20.642a33.074,33.074,0,0,0,9.619-.52S278.582,130.237,280.578,125.268Z" transform="translate(-266.503 -116.154)" opacity="0.1"/>
      <path id="Trazado_148469" data-name="Trazado 148469" d="M269.156,168.242l-2.1-8.43s-2.311-1.388-2.5-2.93,2.261-5.838,2.736-5.832,3.577,2.322,3.571,3.007-.619,4.345-.619,4.345l4.218,8.176Z" transform="translate(-264.54 -127.823)" fill="#e2877b"/>
      <path id="Trazado_148470" data-name="Trazado 148470" d="M269.541,171.372l-1.211-2.836,5.965-3.466,1.857,3.151Z" transform="translate(-266.235 -134.093)" fill="#7e5ee3"/>
      <path id="Trazado_148471" data-name="Trazado 148471" d="M269.541,171.372l-1.211-2.836,5.965-3.466,1.857,3.151Z" transform="translate(-266.235 -134.093)" fill="#fff" opacity="0.8"/>
      <path id="Trazado_148472" data-name="Trazado 148472" d="M297.023,158.08c-3.582,2.377-11.537,13.953-13.5,13.781-2.543-.216-6.761-8.745-6.761-8.745l-7.828,4.715s9.165,18.508,14.279,17.341,14.8-15.362,15.478-17.452S301.468,155.128,297.023,158.08Z" transform="translate(-266.503 -130.735)" fill="#263238"/>
      <path id="Trazado_148473" data-name="Trazado 148473" d="M297.023,158.08c-3.582,2.377-11.537,13.953-13.5,13.781-2.543-.216-6.761-8.745-6.761-8.745l-7.828,4.715s9.165,18.508,14.279,17.341,14.8-15.362,15.478-17.452S301.468,155.128,297.023,158.08Z" transform="translate(-266.503 -130.735)" opacity="0.3"/>
      <path id="Trazado_148474" data-name="Trazado 148474" d="M313.223,399.784l-4.483.475-.84-9.674,4.483-.475Z" transform="translate(-283.931 -234.731)" fill="#e2877b"/>
      <path id="Trazado_148475" data-name="Trazado 148475" d="M354.2,398.876h-4.345L349.5,388.81h4.351Z" transform="translate(-302.534 -234.15)" fill="#e2877b"/>
      <path id="Trazado_148476" data-name="Trazado 148476" d="M342.532,406.11h5.279a.376.376,0,0,1,.37.3l.857,3.87a.652.652,0,0,1-.636.774c-1.708-.028-2.952-.133-5.1-.133-1.321,0-5.307.138-7.131.138s-2.062-1.8-1.316-1.968c3.35-.73,5.871-1.741,6.943-2.7a1.045,1.045,0,0,1,.73-.276Z" transform="translate(-295.81 -241.886)" fill="#263238"/>
      <path id="Trazado_148477" data-name="Trazado 148477" d="M345.606,406.6a1.316,1.316,0,0,1-.835-.221.619.619,0,0,1-.216-.553.315.315,0,0,1,.177-.287c.481-.249,1.885.614,2.04.713a.088.088,0,0,1,.05.1.105.105,0,0,1-.077.088,5.236,5.236,0,0,1-1.139.16Zm-.647-.9a.221.221,0,0,0-.133.028c-.028,0-.061.039-.066.122a.426.426,0,0,0,.138.37,2.112,2.112,0,0,0,1.548.077,4.146,4.146,0,0,0-1.487-.6Z" transform="translate(-300.321 -241.608)" fill="#7e5ee3"/>
      <path id="Trazado_148478" data-name="Trazado 148478" d="M347.432,405.645h-.05c-.448-.243-1.316-1.2-1.227-1.658a.337.337,0,0,1,.332-.271.553.553,0,0,1,.437.133c.5.409.608,1.658.614,1.719a.11.11,0,0,1-.05.094.1.1,0,0,1-.055-.017Zm-.873-1.774h-.05c-.133,0-.144.077-.149.105-.055.282.5,1.006.945,1.343a2.421,2.421,0,0,0-.514-1.36A.359.359,0,0,0,346.558,403.871Z" transform="translate(-301.036 -240.814)" fill="#7e5ee3"/>
      <path id="Trazado_148479" data-name="Trazado 148479" d="M302.032,405.86h5.279a.376.376,0,0,1,.37.3l.857,3.87a.652.652,0,0,1-.636.774c-1.708-.028-2.952-.133-5.1-.133-1.321,0-5.307.138-7.131.138s-2.062-1.8-1.316-1.968c3.35-.73,5.871-1.741,6.943-2.7a1.045,1.045,0,0,1,.73-.276Z" transform="translate(-277.698 -241.774)" fill="#263238"/>
      <path id="Trazado_148480" data-name="Trazado 148480" d="M305.146,406.345a1.316,1.316,0,0,1-.835-.221.619.619,0,0,1-.216-.553.315.315,0,0,1,.177-.287c.481-.249,1.885.614,2.04.713a.088.088,0,0,1,.05.1.105.105,0,0,1-.077.088A5.236,5.236,0,0,1,305.146,406.345Zm-.647-.9a.221.221,0,0,0-.133.028c-.028,0-.061.039-.066.122a.426.426,0,0,0,.138.37,2.112,2.112,0,0,0,1.548.077,4.146,4.146,0,0,0-1.509-.6Z" transform="translate(-282.227 -241.497)" fill="#7e5ee3"/>
      <path id="Trazado_148481" data-name="Trazado 148481" d="M306.962,405.435h-.05c-.448-.243-1.316-1.2-1.227-1.658a.337.337,0,0,1,.332-.271.553.553,0,0,1,.437.133c.5.409.608,1.658.614,1.719a.111.111,0,0,1-.05.094A.106.106,0,0,1,306.962,405.435Zm-.873-1.763h-.05c-.133,0-.144.077-.149.105-.055.282.5,1.006.945,1.343a2.422,2.422,0,0,0-.514-1.36.359.359,0,0,0-.249-.111Z" transform="translate(-282.937 -240.72)" fill="#7e5ee3"/>
      <path id="Trazado_148482" data-name="Trazado 148482" d="M353.851,388.82H349.5l.188,5.191h4.351Z" transform="translate(-302.534 -234.154)" opacity="0.2"/>
      <path id="Trazado_148483" data-name="Trazado 148483" d="M330.918,229.08H307.85c-2.211,11.974-8.756,58-3.831,95.756l7.811-.967s-1.028-53.771,5.865-72.3c.8,9.917,1.736,20.454,2.554,26.081,2.007,13.82,6.49,46.557,6.49,46.557h7.977s-1.813-31.443-2.565-45.026C331.3,264.415,330.946,232.109,330.918,229.08Z" transform="translate(-281.393 -162.718)" fill="#263238"/>
      <g id="Grupo_75752" data-name="Grupo 75752" transform="translate(20.832 66.362)" opacity="0.3">
        <path id="Trazado_148484" data-name="Trazado 148484" d="M330.918,229.08H307.85c-2.211,11.974-8.756,58-3.831,95.756l7.811-.967s-1.028-53.771,5.865-72.3c.8,9.917,1.736,20.454,2.554,26.081,2.007,13.82,6.49,46.557,6.49,46.557h7.977s-1.813-31.443-2.565-45.026C331.3,264.415,330.946,232.109,330.918,229.08Z" transform="translate(-302.226 -229.08)"/>
      </g>
      <path id="Trazado_148485" data-name="Trazado 148485" d="M310.72,236.177s6.8,1.57,11.537,0l-.426-3.687H310.8Z" transform="translate(-285.192 -164.243)" opacity="0.4"/>
      <path id="Trazado_148486" data-name="Trazado 148486" d="M316.91,236.718a27.386,27.386,0,0,0,4.378.122V232.5H316.91Z" transform="translate(-287.96 -164.248)" fill="#fff" opacity="0.1"/>
      <path id="Trazado_148487" data-name="Trazado 148487" d="M328.042,263.119a61.8,61.8,0,0,0-2.576,9.978A61.964,61.964,0,0,1,327.4,254.91Z" transform="translate(-291.74 -174.27)" opacity="0.2"/>
      <path id="Trazado_148488" data-name="Trazado 148488" d="M344.8,133.717s-.171,4.234-3.472,3.239S341.883,132.219,344.8,133.717Z" transform="translate(-298.312 -119.916)" fill="#263238"/>
      <path id="Trazado_148489" data-name="Trazado 148489" d="M330.695,145.5a4.423,4.423,0,0,0,1.52-4.649l5.97-4.815s-.774,5.909.669,9.038c0,0-3.6,3.654-6.352,2.819S330.695,145.5,330.695,145.5Z" transform="translate(-294.055 -121.111)" fill="#e2877b"/>
      <path id="Trazado_148490" data-name="Trazado 148490" d="M338.175,141.26l-2.36.1-2.266,1.83a4.76,4.76,0,0,1-.028,2.449C337.135,145.058,338.175,141.26,338.175,141.26Z" transform="translate(-295.388 -123.445)" opacity="0.2"/>
      <path id="Trazado_148491" data-name="Trazado 148491" d="M328.1,159.364l-4.942-1.874L319,157.8a94.956,94.956,0,0,0-6.014,20.338,164.639,164.639,0,0,0-1.658,21.7c.149-.033,6.081,1.266,11.581-.6,0,0-3.665-15.478-1.658-22.571s6.822-17.3,6.822-17.3" transform="translate(-285.465 -130.703)" fill="#7e5ee3"/>
      <path id="Trazado_148492" data-name="Trazado 148492" d="M328.1,159.364l-4.942-1.874L319,157.8a94.956,94.956,0,0,0-6.014,20.338,164.639,164.639,0,0,0-1.658,21.7c.149-.033,6.081,1.266,11.581-.6,0,0-3.665-15.478-1.658-22.571s6.822-17.3,6.822-17.3" transform="translate(-285.465 -130.703)" fill="#fff" opacity="0.8"/>
      <path id="Trazado_148493" data-name="Trazado 148493" d="M323.518,157.634l.3,2.72a79.887,79.887,0,0,0-4.975,11.929c-1.3,4.782-2.371,19.282-2.371,19.282l2.3,3.953,2.112-3.953s-.553-11.609,1.139-19.436,2.626-11.343,2.626-11.343l2.543-1.841-1.725-1.454Z" transform="translate(-287.763 -130.703)" opacity="0.4"/>
      <path id="Trazado_148494" data-name="Trazado 148494" d="M328.459,152.816l1.7,1.692,6.451-2.117-4.809,7.12-2.383-3.825-3.881,1.1Z" transform="translate(-291.819 -128.423)" fill="#fff"/>
      <path id="Trazado_148495" data-name="Trazado 148495" d="M319.431,153.16s-8.884,1.94-10.78,9.95-3.013,42.991-3.289,45.811,5.29,3.168,5.29,3.168-.3-18.093.155-22.9c.166-1.736.42-7.6,1.205-12.162C313.4,168.948,315.81,158.555,319.431,153.16Z" transform="translate(-282.791 -128.767)" fill="#263238"/>
      <path id="Trazado_148496" data-name="Trazado 148496" d="M322.352,153.807c-1.205,1.061-4.085,3.317-5.528,5.7l2.244,1.189L316,162.646s.254,8.618,1.006,13.135c1.415-7.861,3.759-17.5,7.186-22.621C324.193,153.16,323.463,153.365,322.352,153.807Z" transform="translate(-287.553 -128.767)" fill="#263238"/>
      <path id="Trazado_148497" data-name="Trazado 148497" d="M322.352,153.807c-1.205,1.061-4.085,3.317-5.528,5.7l2.244,1.189L316,162.646s.254,8.618,1.006,13.135c1.415-7.861,3.759-17.5,7.186-22.621C324.193,153.16,323.463,153.365,322.352,153.807Z" transform="translate(-287.553 -128.767)" fill="#fff" opacity="0.1"/>
      <path id="Trazado_148498" data-name="Trazado 148498" d="M318.5,119.477s-.31,3.25,2.211,3.975c0,0,1.443-3.632-.31-3.975S318.5,119.477,318.5,119.477Z" transform="translate(-288.666 -113.636)" fill="#263238"/>
      <path id="Trazado_148499" data-name="Trazado 148499" d="M322.031,126.749c.4,2.3,2.128,7.12,7.009,5.65a6.657,6.657,0,0,0,5.169-6.435c.083-1.111-.956-9.735-4.074-10.558s-6.91.193-8.1,1.979S322.031,126.749,322.031,126.749Z" transform="translate(-290.013 -111.754)" fill="#e2877b"/>
      <path id="Trazado_148500" data-name="Trazado 148500" d="M331.744,120.464c.077.1-3.228,2.079-3.123-4.76a2.06,2.06,0,0,1-2.946-1.7s-10.006,3.449-9.011-.442c1.332-5.2,9.425-5.589,12.913-2.869a2.077,2.077,0,0,1,3.361.149c1.951,2.5,1.918,9.27,1.918,9.27Z" transform="translate(-287.819 -109.034)" fill="#263238"/>
      <path id="Trazado_148501" data-name="Trazado 148501" d="M336.209,127.487c-1.172-1.841-6.407.088-7.424.486l-.033-.26a.719.719,0,0,0-.287-.475.7.7,0,0,0-.553-.105l-2.15.464a.691.691,0,0,0-.553.785,1.687,1.687,0,0,0,.039.221,1.106,1.106,0,0,0-1.045.149v-.177a.7.7,0,0,0-.276-.459.674.674,0,0,0-.514-.127l-1.808.271a.691.691,0,0,0-.586.741c.033.392.072.741.111,1.023a.691.691,0,0,0,.276.453.669.669,0,0,0,.409.133h.1l1.841-.271a.691.691,0,0,0,.586-.785l-.066-.475a.851.851,0,0,1,1.05-.133c.028.149.055.3.083.448a.7.7,0,0,0,.293.442.685.685,0,0,0,.381.116.6.6,0,0,0,.144,0l2.112-.431a.7.7,0,0,0,.553-.774l-.066-.47c.785-.3,6.081-2.3,7.153-.619a.138.138,0,0,0,.193.039.133.133,0,0,0,.039-.21Zm-12.488,2.576-1.841.265a.431.431,0,0,1-.31-.072.409.409,0,0,1-.16-.271c-.039-.276-.077-.619-.111-1.012a.415.415,0,0,1,.354-.442l1.808-.271h.061a.453.453,0,0,1,.249.077.42.42,0,0,1,.16.276l.144.978A.42.42,0,0,1,323.721,130.063Zm4.566-.835-2.112.431a.42.42,0,0,1-.315-.061.409.409,0,0,1-.177-.26c-.061-.337-.127-.708-.171-1a.409.409,0,0,1,.321-.47l2.145-.464a.26.26,0,0,1,.088,0,.4.4,0,0,1,.238.072.42.42,0,0,1,.177.287l.133,1.012A.415.415,0,0,1,328.287,129.228Z" transform="translate(-289.796 -116.936)"/>
      <path id="Trazado_148502" data-name="Trazado 148502" d="M331.977,129.325c.083.337-.072.652-.3.691s-.453-.21-.514-.553.077-.658.3-.7S331.916,128.977,331.977,129.325Z" transform="translate(-294.326 -117.857)" fill="#263238"/>
      <path id="Trazado_148503" data-name="Trazado 148503" d="M324.217,130.554c.083.343-.077.658-.3.7s-.453-.216-.514-.553.077-.652.3-.691S324.161,130.217,324.217,130.554Z" transform="translate(-290.855 -118.411)" fill="#263238"/>
      <path id="Trazado_148504" data-name="Trazado 148504" d="M326.954,130.91a12.294,12.294,0,0,1-1.144,3.239,2.018,2.018,0,0,0,1.714,0Z" transform="translate(-291.94 -118.817)" fill="#dc5753"/>
      <path id="Trazado_148505" data-name="Trazado 148505" d="M332.369,125.765a.2.2,0,0,1-.2.077,1.658,1.658,0,0,0-1.432.4.21.21,0,1,1-.3-.282h0a2.056,2.056,0,0,1,1.8-.52.216.216,0,0,1,.177.232h0a.255.255,0,0,1-.044.094Z" transform="translate(-293.972 -116.353)" fill="#263238"/>
      <path id="Trazado_148506" data-name="Trazado 148506" d="M330.39,138.609h0a3.173,3.173,0,0,0,2.559-1.393.111.111,0,0,0-.039-.149.105.105,0,0,0-.144,0h0a3.018,3.018,0,0,1-2.383,1.283.1.1,0,0,0-.105.105h0a.105.105,0,0,0,.105.105Z" transform="translate(-293.939 -121.557)" fill="#263238"/>
      <path id="Trazado_148507" data-name="Trazado 148507" d="M322.112,126.772a.177.177,0,0,1,0-.343h0a2.045,2.045,0,0,1,1.874.144.2.2,0,0,1,.05.287h0a.216.216,0,0,1-.287.05h0a1.659,1.659,0,0,0-1.487-.094A.2.2,0,0,1,322.112,126.772Z" transform="translate(-290.227 -116.74)" fill="#263238"/>
      <path id="Trazado_148508" data-name="Trazado 148508" d="M336.3,152.39s5.909,3.449,8.961,4.743-1.575,22.35-1.692,25.982,3.184,28.58,3.184,28.58-9.4,2.449-17.1.619c0,0-5.44-20.752-4.771-31.626C325.531,170.218,328.671,159.914,336.3,152.39Z" transform="translate(-291.501 -128.423)" fill="#263238"/>
      <path id="Trazado_148509" data-name="Trazado 148509" d="M338.878,153.783c-1.4-.79-2.416-1.393-2.416-1.393-7.38,7.275-10.547,17.137-11.332,27.259,3.2-7.8,10.641-14.926,10.641-14.926l-2.3-3.367,4.218-.332a28.448,28.448,0,0,1,1.188-7.242Z" transform="translate(-291.636 -128.423)" fill="#263238"/>
      <path id="Trazado_148510" data-name="Trazado 148510" d="M338.878,153.783c-1.4-.79-2.416-1.393-2.416-1.393-7.38,7.275-10.547,17.137-11.332,27.259,3.2-7.8,10.641-14.926,10.641-14.926l-2.3-3.367,4.218-.332a28.448,28.448,0,0,1,1.188-7.242Z" transform="translate(-291.636 -128.423)" fill="#fff" opacity="0.1"/>
      <path id="Trazado_148511" data-name="Trazado 148511" d="M333.355,177.176a.188.188,0,0,0-.2-.166l-13.267,1.106v.929h-1.4l1.78,21.465c0,.1.072.1.077.171h.144l.116-.166.442-.039.144.144,13.848-1.166a.182.182,0,0,0,.171-.193Z" transform="translate(-288.667 -139.432)" fill="#7e5ee3"/>
      <path id="Trazado_148512" data-name="Trazado 148512" d="M318.1,200.076a1.8,1.8,0,0,0,1.321,1.658c-.094-1.133-.227-2.211-.227-2.211s-1.211-16.468-1.526-20.244a1.509,1.509,0,0,0-1.205,1.41c.044.514.133,1.559.133,1.559S317.748,195.975,318.1,200.076Z" transform="translate(-287.759 -140.448)" fill="#7e5ee3"/>
      <path id="Trazado_148513" data-name="Trazado 148513" d="M318.1,200.076a1.8,1.8,0,0,0,1.321,1.658c-.094-1.133-.227-2.211-.227-2.211s-1.211-16.468-1.526-20.244a1.509,1.509,0,0,0-1.205,1.41c.044.514.133,1.559.133,1.559S317.748,195.975,318.1,200.076Z" transform="translate(-287.759 -140.448)" opacity="0.2"/>
      <path id="Trazado_148514" data-name="Trazado 148514" d="M321.148,216.075l14.306-1.161-.829-2.454-13.682,1.155a1.161,1.161,0,0,0-.6,1.288A1.388,1.388,0,0,0,321.148,216.075Z" transform="translate(-289.484 -155.286)" fill="#7e5ee3"/>
      <path id="Trazado_148515" data-name="Trazado 148515" d="M321.148,216.075l14.306-1.161-.829-2.454-13.682,1.155a1.161,1.161,0,0,0-.6,1.288A1.388,1.388,0,0,0,321.148,216.075Z" transform="translate(-289.484 -155.286)" fill="#fff" opacity="0.6"/>
      <path id="Trazado_148516" data-name="Trazado 148516" d="M334.3,196.671l-13.51,1.139-.105-.072-.42.039-.088.083H320a.039.039,0,0,1-.039-.033L318.3,178.307s0-.039.033-.039h.2l.083.149.42-.033.1-.166,13.5-1.139a.05.05,0,0,1,.039.033l1.658,19.519A.039.039,0,0,1,334.3,196.671Z" transform="translate(-288.582 -139.464)" fill="#7e5ee3"/>
      <path id="Trazado_148517" data-name="Trazado 148517" d="M333.416,190.659l-9.492.8-.674-7.993,9.492-.8Zm-9.044.2,8.5-.713-.58-6.888-8.5.7Z" transform="translate(-290.795 -141.959)" opacity="0.3"/>
      <path id="Trazado_148518" data-name="Trazado 148518" d="M316.91,186.1a1.8,1.8,0,0,1,1.039-1.249,4.025,4.025,0,0,0,.05.619,2.471,2.471,0,0,0-1.023,1.437Z" transform="translate(-287.96 -142.939)" opacity="0.3"/>
      <path id="Trazado_148519" data-name="Trazado 148519" d="M318.76,208.125a1.813,1.813,0,0,1,1.039-1.255c0,.149.028.216.055.625a2.438,2.438,0,0,0-1.023,1.437Z" transform="translate(-288.787 -152.786)" opacity="0.3"/>
      <rect id="Rectángulo_33159" data-name="Rectángulo 33159" width="0.42" height="19.425" transform="translate(30.048 38.973) rotate(-4.81)" opacity="0.3"/>
      <rect id="Rectángulo_33160" data-name="Rectángulo 33160" width="6.683" height="0.923" transform="translate(34.761 51.668) rotate(-4.81)" fill="#7e5ee3"/>
      <rect id="Rectángulo_33161" data-name="Rectángulo 33161" width="3.737" height="0.923" transform="translate(36.394 53.552) rotate(-4.81)" fill="#7e5ee3"/>
      <path id="Trazado_148520" data-name="Trazado 148520" d="M321.78,215.6l12.792-1.106s-3.9.254-8.718.663C323.809,215.352,321.78,215.6,321.78,215.6Z" transform="translate(-290.138 -156.194)" opacity="0.3"/>
      <path id="Trazado_148521" data-name="Trazado 148521" d="M321.85,216.424l12.825-1.194-8.751.735C323.879,216.137,321.85,216.424,321.85,216.424Z" transform="translate(-290.169 -156.525)" opacity="0.3"/>
      <path id="Trazado_148522" data-name="Trazado 148522" d="M321.92,217.216,334.806,216l-8.812.746C323.949,216.929,321.92,217.216,321.92,217.216Z" transform="translate(-290.201 -156.869)" opacity="0.3"/>
      <path id="Trazado_148523" data-name="Trazado 148523" d="M325.183,215.22l.21,2.515-.9-.846-.752.973s-.05-.619-.21-2.543C324.028,215.275,324.779,215.253,325.183,215.22Z" transform="translate(-290.921 -156.52)" fill="#7e5ee3"/>
      <path id="Trazado_148524" data-name="Trazado 148524" d="M325.183,215.22l.21,2.515-.9-.846-.752.973s-.05-.619-.21-2.543C324.028,215.275,324.779,215.253,325.183,215.22Z" transform="translate(-290.921 -156.52)" opacity="0.3"/>
      <path id="Trazado_148525" data-name="Trazado 148525" d="M321.71,214.807l12.941-1.017s-4.047.188-8.845.6C323.739,214.558,321.71,214.807,321.71,214.807Z" transform="translate(-290.107 -155.881)" opacity="0.3"/>
      <path id="Trazado_148526" data-name="Trazado 148526" d="M346.583,212.51l-.757.066a1.6,1.6,0,0,0-.044,1.205,1.415,1.415,0,0,0,1,1.106Z" transform="translate(-300.828 -155.308)" fill="#7e5ee3"/>
      <path id="Trazado_148527" data-name="Trazado 148527" d="M328.622,206.448l-7.894-3.648s-2.532.934-3.87.122-3.14-5.417-2.836-5.788,4.052-1.332,4.577-.9,3,3.206,3,3.206l9.016,1.835Z" transform="translate(-286.654 -147.98)" fill="#e2877b"/>
      <path id="Trazado_148528" data-name="Trazado 148528" d="M333.912,200.758l-3.162-.188.337,7.115,3.361.564Z" transform="translate(-294.149 -149.969)" fill="#fff"/>
      <path id="Trazado_148529" data-name="Trazado 148529" d="M333.912,200.758l-3.162-.188.337,7.115,3.361.564Z" transform="translate(-294.149 -149.969)" fill="#7e5ee3"/>
      <path id="Trazado_148530" data-name="Trazado 148530" d="M333.912,200.758l-3.162-.188.337,7.115,3.361.564Z" transform="translate(-294.149 -149.969)" fill="#fff" opacity="0.8"/>
      <path id="Trazado_148531" data-name="Trazado 148531" d="M347.407,159.674c5.279.553,7.4,8.519,8.137,12.5.719,3.87,2.676,15.97-1.775,19.237s-18.557-.315-18.557-.315l-.752-9.685s7.579,1.708,10.851.437c2.764-1.067,1.476-10.923,1.189-12.714C346.091,166.617,344.924,159.409,347.407,159.674Z" transform="translate(-295.808 -131.677)" fill="#263238"/>
      <path id="Trazado_148532" data-name="Trazado 148532" d="M347.407,159.674c5.279.553,7.4,8.519,8.137,12.5.719,3.87,2.676,15.97-1.775,19.237s-18.557-.315-18.557-.315l-.752-9.685s7.579,1.708,10.851.437c2.764-1.067,1.476-10.923,1.189-12.714C346.091,166.617,344.924,159.409,347.407,159.674Z" transform="translate(-295.808 -131.677)" opacity="0.3"/>
      <path id="Trazado_148533" data-name="Trazado 148533" d="M341.832,128.707s.873-2.416,3.107-2.427c1.791,0,2.051,2.239,1.233,3.787-.625,1.189-2.676,2.676-3.98,1.106S341.832,128.707,341.832,128.707Z" transform="translate(-298.957 -116.746)" fill="#e2877b"/>
    </g>
    <g id="freepik--character-1--inject-4" transform="translate(-9161.933 -6347.917)">
      <path id="Trazado_148534" data-name="Trazado 148534" d="M141.176,329.06l-.2,8.607-.907,38.934H137.08l-.9-38.934-.2-8.607Z" transform="translate(-118.307 -232.643)" fill="#457bfb"/>
      <path id="Trazado_148535" data-name="Trazado 148535" d="M141.176,329.06l-.2,8.607-.907,38.934H137.08l-.9-38.934-.2-8.607Z" transform="translate(-118.307 -232.643)" fill="#fff" opacity="0.4"/>
      <path id="Trazado_148536" data-name="Trazado 148536" d="M141.176,329.06l-.2,8.845h-4.8l-.2-8.845Z" transform="translate(-118.307 -232.643)" opacity="0.2"/>
      <path id="Trazado_148537" data-name="Trazado 148537" d="M168.87,376.954l-2.764-46.794H161.59l3.87,46.794Z" transform="translate(-129.76 -233.135)" fill="#457bfb"/>
      <path id="Trazado_148538" data-name="Trazado 148538" d="M165.449,376.91h3.416l-2.51-42.593-.249-4.257H161.59l.348,4.257Z" transform="translate(-129.76 -233.09)" fill="#fff" opacity="0.5"/>
      <path id="Trazado_148539" data-name="Trazado 148539" d="M161.59,330.06l.348,4.422h4.417l-.249-4.422Z" transform="translate(-129.76 -233.09)" opacity="0.2"/>
      <path id="Trazado_148540" data-name="Trazado 148540" d="M110.011,376.954l3.864-46.794h-4.516L106.6,376.954Z" transform="translate(-105.168 -233.135)" fill="#457bfb"/>
      <path id="Trazado_148541" data-name="Trazado 148541" d="M110.016,376.91l3.51-42.593.348-4.257h-4.516l-.249,4.257L106.6,376.91Z" transform="translate(-105.168 -233.09)" fill="#fff" opacity="0.5"/>
      <path id="Trazado_148542" data-name="Trazado 148542" d="M115.905,330.06l-.348,4.422H111.14l.249-4.422Z" transform="translate(-107.199 -233.09)" opacity="0.2"/>
      <path id="Trazado_148543" data-name="Trazado 148543" d="M109.984,321.39h31.465a2.764,2.764,0,0,1,2.764,2.764v3.7H107.22v-3.7A2.764,2.764,0,0,1,109.984,321.39Z" transform="translate(-105.446 -229.213)"/>
      <rect id="Rectángulo_33162" data-name="Rectángulo 33162" width="40.537" height="3.228" rx="1.614" transform="translate(0 95.411)" fill="#457bfb"/>
      <rect id="Rectángulo_33163" data-name="Rectángulo 33163" width="40.537" height="3.228" rx="1.614" transform="translate(0 95.411)" fill="#fff" opacity="0.6"/>
      <g id="freepik--group--inject-4" transform="translate(6.54)">
        <path id="Trazado_148544" data-name="Trazado 148544" d="M173.9,245.66s11.133,11.554,11.808,12.162,4.826,1.946,5.44,2.477-.42,4.422-.829,5.169-6.28-2.46-6.634-2.985a11.725,11.725,0,0,1-.829-2.034L170.22,249.834Z" transform="translate(-140.159 -195.347)" fill="#e9b076"/>
        <path id="Trazado_148545" data-name="Trazado 148545" d="M159.91,217.822s.033.448.122,1.189.221,1.857.42,3.1c.481,3.013,1.321,6.888,2.67,9.232a5.152,5.152,0,0,0,1.332,1.609c1.769,1.316,9.58,9.912,9.58,9.912l4.152-5.279-5.511-6.976s-3.637-20.548-9.182-22.151C161.093,207.756,159.91,217.822,159.91,217.822Z" transform="translate(-135.548 -178.692)" fill="#7e5ee3"/>
        <path id="Trazado_148546" data-name="Trazado 148546" d="M159.91,217.822s.033.448.122,1.189.221,1.857.42,3.1c.481,3.013,1.321,6.888,2.67,9.232a5.152,5.152,0,0,0,1.332,1.609c1.769,1.316,9.58,9.912,9.58,9.912l4.152-5.279-5.511-6.976s-3.637-20.548-9.182-22.151C161.093,207.756,159.91,217.822,159.91,217.822Z" transform="translate(-135.548 -178.692)" opacity="0.6"/>
        <path id="Trazado_148547" data-name="Trazado 148547" d="M169.02,398.883l4.406-.608.608-10.465-4.395.608Z" transform="translate(-139.622 -258.916)" fill="#e9b076"/>
        <path id="Trazado_148548" data-name="Trazado 148548" d="M169.858,388.423l4.395-.6L173.9,393.8l-4.395.387Z" transform="translate(-139.841 -258.921)" opacity="0.2"/>
        <path id="Trazado_148549" data-name="Trazado 148549" d="M147.394,289.879l-1.072-6.733-24.688-1.476s-2.62,14-.608,17.739c3.6,6.661,23.008,3.317,28.685,3.953-3.394,13.87-3.057,41.007-3.057,41.007l8.11.619s6.241-29.227,7.5-43.118C163.11,292.5,155.343,292.732,147.394,289.879Z" transform="translate(-117.819 -211.45)" fill="#7e5ee3"/>
        <path id="Trazado_148550" data-name="Trazado 148550" d="M166.167,392.52l9.746.641.835-4.174-10.708-.5Z" transform="translate(-138.289 -259.22)" fill="#457bfb"/>
        <path id="Trazado_148551" data-name="Trazado 148551" d="M187.4,392.6l4.433.326,2.775-10.116-4.428-.315Z" transform="translate(-147.842 -256.537)" fill="#e9b076"/>
        <path id="Trazado_148552" data-name="Trazado 148552" d="M196.524,400.3v.039a.05.05,0,0,0,.039,0,5.529,5.529,0,0,0,1.106.47,1.188,1.188,0,0,0,.862,0,.553.553,0,0,0,.282-.52.4.4,0,0,0-.149-.348,1.791,1.791,0,0,0-1.244-.033,1.614,1.614,0,0,0,.652-.9.393.393,0,0,0-.265-.4.509.509,0,0,0-.448,0c-.553.293-.746,1.531-.763,1.6h-.077A.317.317,0,0,0,196.524,400.3Zm.332-.243-.1.028c.105-.409.326-1.078.652-1.249a.293.293,0,0,1,.238-.033h.044c.138.061.155.138.149.2C197.8,399.311,197.293,399.809,196.856,400.052Zm0,.227c.586-.177,1.4-.337,1.658-.149a.2.2,0,0,1,.072.171.392.392,0,0,1-.171.337c-.249.138-.818.006-1.542-.359Z" transform="translate(-151.919 -263.717)" fill="#7e5ee3"/>
        <path id="Trazado_148553" data-name="Trazado 148553" d="M191.187,382.49l4.428.321-1.587,5.782-4.378-.536Z" transform="translate(-148.848 -256.537)" opacity="0.2"/>
        <path id="Trazado_148554" data-name="Trazado 148554" d="M172.232,345.177l-7.828-2.294s4.66-26.3,9.4-35.423c-.354-.116-.824-.265-1.4-.437-1.045-.315-2.432-.708-4.063-1.161C157,302.716,134,296.818,134,296.818L144.5,287s41.836,6.379,42.7,17.4C187.622,309.72,172.232,345.177,172.232,345.177Z" transform="translate(-123.961 -213.834)" fill="#7e5ee3"/>
        <path id="Trazado_148555" data-name="Trazado 148555" d="M187.22,385.189l9.4,2.659,1.686-3.908-10.371-2.72Z" transform="translate(-147.761 -255.969)" fill="#457bfb"/>
        <path id="Trazado_148556" data-name="Trazado 148556" d="M177.936,310.326c-1.045-.315-2.432-.708-4.063-1.161.326-2.676.332-5.744-.956-7.308-2.559-3.118-9.143-4.948-12.891-5.611-3.134-.553-13.665-1.658-13.665-1.658A82.826,82.826,0,0,1,174,297.352C180.9,299.375,179.556,306.125,177.936,310.326Z" transform="translate(-129.489 -217.137)" opacity="0.2"/>
        <path id="Trazado_148557" data-name="Trazado 148557" d="M119.252,254.557c-1.658-1.266-.066-13.041-.912-24.627C117.052,212.3,119.822,206.558,121.1,206a31.753,31.753,0,0,1,5.777-.636,91.7,91.7,0,0,1,10.675.227,47.541,47.541,0,0,1,7.186,1.465s5.821,18.519,2.1,45.191Z" transform="translate(-116.809 -177.3)" fill="#7e5ee3"/>
        <g id="Grupo_75753" data-name="Grupo 75753" transform="translate(1.198 28.006)" opacity="0.5">
          <path id="Trazado_148558" data-name="Trazado 148558" d="M119.252,254.557c-1.658-1.266-.066-13.041-.912-24.627C117.052,212.3,119.822,206.558,121.1,206a31.753,31.753,0,0,1,5.777-.636,91.7,91.7,0,0,1,10.675.227,47.541,47.541,0,0,1,7.186,1.465s5.821,18.519,2.1,45.191Z" transform="translate(-118.007 -205.306)"/>
        </g>
        <path id="Trazado_148559" data-name="Trazado 148559" d="M135.406,183.77c.6,3.444,1.133,9.751-1.316,12a11.012,11.012,0,0,0,7.739,3.51c4.422.193,2.93-3.284,2.93-3.284-3.809-1-3.648-3.836-2.924-6.49Z" transform="translate(-124.001 -167.669)" fill="#e2877b"/>
        <path id="Trazado_148560" data-name="Trazado 148560" d="M141.085,188l3.809,3.4a10.829,10.829,0,0,0-.37,1.885c-1.459-.243-3.433-1.891-3.555-3.427A5.008,5.008,0,0,1,141.085,188Z" transform="translate(-127.06 -169.561)" opacity="0.2"/>
        <path id="Trazado_148561" data-name="Trazado 148561" d="M145.094,166.151s3.5.741,3.98-1.443-.387-2.559.652-3.61.37-4.638-2.311-3.93-4.085-2.98-6.307-2.477-2.565,2.051-3.964,2.416-4.174-1.443-5.954-.37-.409,3.372-1.012,4.251-2.073,3.118,0,6.4c1.9,3.007-.464,4.516-1.692,4.234a.276.276,0,0,0-.348.287c.033.348.238.84,1.072,1.15,1.393.52,1.658-.238,1.979.16s1.017,1.708,3.317.365S137.929,163.747,145.094,166.151Z" transform="translate(-121.34 -154.644)" fill="#263238"/>
        <path id="Trazado_148562" data-name="Trazado 148562" d="M149.05,175.022c-.4,2.3-2.123,7.12-7,5.65a6.649,6.649,0,0,1-5.169-6.446c-.066-1.106.951-9.74,4.074-10.558s6.91.193,8.1,1.973S149.05,175.022,149.05,175.022Z" transform="translate(-125.247 -158.551)" fill="#e2877b"/>
        <path id="Trazado_148563" data-name="Trazado 148563" d="M148.692,177.615c-.083.337.077.658.3.7s.459-.216.52-.553-.083-.658-.3-.691S148.753,177.266,148.692,177.615Z" transform="translate(-130.522 -164.671)" fill="#263238"/>
        <path id="Trazado_148564" data-name="Trazado 148564" d="M155.672,178.815c-.083.337.077.658.3.691s.453-.21.514-.553-.077-.658-.3-.7S155.727,178.489,155.672,178.815Z" transform="translate(-133.643 -165.202)" fill="#263238"/>
        <path id="Trazado_148565" data-name="Trazado 148565" d="M153.019,179.19a12.715,12.715,0,0,0,1.144,3.239,2.04,2.04,0,0,1-1.714,0Z" transform="translate(-132.212 -165.621)" fill="#dc5753"/>
        <path id="Trazado_148566" data-name="Trazado 148566" d="M149.813,174.128a.227.227,0,0,0-.216,0,1.658,1.658,0,0,1-1.47.221.2.2,0,1,0-.16.376h0a2.04,2.04,0,0,0,1.857-.254.21.21,0,0,0,.066-.282h0A.442.442,0,0,0,149.813,174.128Z" transform="translate(-130.15 -163.345)" fill="#263238"/>
        <path id="Trazado_148567" data-name="Trazado 148567" d="M147.827,187.643h0a3.168,3.168,0,0,1,2.88.431.105.105,0,0,1,0,.155.111.111,0,0,1-.149,0h0a3,3,0,0,0-2.676-.387.116.116,0,0,1-.138-.066h0a.1.1,0,0,1,.061-.133Z" transform="translate(-130.104 -169.325)" fill="#263238"/>
        <path id="Trazado_148568" data-name="Trazado 148568" d="M156.416,174.583a.227.227,0,0,0-.122,0,.2.2,0,0,0-.116.265h0a2.051,2.051,0,0,0,1.393,1.26.21.21,0,0,0,.243-.16h0a.21.21,0,0,0-.16-.243h0a1.658,1.658,0,0,1-1.106-1.017.227.227,0,0,0-.133-.105Z" transform="translate(-133.873 -163.557)" fill="#263238"/>
        <path id="Trazado_148569" data-name="Trazado 148569" d="M150.887,164.657c1.017,1.2-2.289,2.891-3.577,1.973-1.106-.8-2.311-1.714-3.77-.84s-1.6.111-2.6.111.4,2.156-.99,3.107c-.8.553-1.94.824-1.581,1.791a1.451,1.451,0,0,1-1.559,2.067s1.294-.365.486-1.686-1.5-.553-1.5-.553.387-7.28,3.87-8.618S149.206,162.678,150.887,164.657Z" transform="translate(-124.762 -157.744)" fill="#263238"/>
        <path id="Trazado_148570" data-name="Trazado 148570" d="M135.393,177.041s-.873-2.416-3.1-2.421c-1.8,0-2.051,2.211-1.238,3.787.63,1.189,2.571,2.576,3.98,1.106A2.864,2.864,0,0,0,135.393,177.041Z" transform="translate(-122.446 -163.577)" fill="#e2877b"/>
        <path id="Trazado_148571" data-name="Trazado 148571" d="M149.7,256.29s15.3,4.826,16.18,5.03,5.169-.6,5.959-.426,1.752,4.085,1.747,4.937-6.694.835-7.253.553a11.606,11.606,0,0,1-1.708-1.393l-16.169-3.284Z" transform="translate(-130.428 -200.1)" fill="#e9b076"/>
        <path id="Trazado_148572" data-name="Trazado 148572" d="M120.152,206.57c-8.613.79-2.244,25.81,1.249,29.414s15.478,4.9,15.478,4.9l1.52-6.728s-9.016-2.4-10.614-3.444-2.72-11.415-3.671-16.462A14.323,14.323,0,0,0,120.152,206.57Z" transform="translate(-115.84 -177.866)" fill="#7e5ee3"/>
        <path id="Trazado_148573" data-name="Trazado 148573" d="M120.152,206.57c-8.613.79-2.244,25.81,1.249,29.414s15.478,4.9,15.478,4.9l1.52-6.728s-9.016-2.4-10.614-3.444-2.72-11.415-3.671-16.462A14.323,14.323,0,0,0,120.152,206.57Z" transform="translate(-115.84 -177.866)" opacity="0.6"/>
        <path id="Trazado_148574" data-name="Trazado 148574" d="M166.167,392.52l9.746.641.835-4.174-10.708-.5Z" transform="translate(-138.289 -259.22)" fill="#fff" opacity="0.2"/>
        <path id="Trazado_148575" data-name="Trazado 148575" d="M187.22,385.189l9.4,2.659,1.686-3.908-10.371-2.72Z" transform="translate(-147.761 -255.969)" fill="#fff" opacity="0.2"/>
        <path id="Trazado_148576" data-name="Trazado 148576" d="M190.932,399.445l-4.8-1.338a.315.315,0,0,0-.4.2h0l-1.294,3.737a.785.785,0,0,0,.553.967c1.658.437,2.5.553,4.621,1.139a41.091,41.091,0,0,0,5.683,1.4c1.852.21,2.007-1.625,1.244-1.874a12.272,12.272,0,0,1-4.925-3.781,1.233,1.233,0,0,0-.68-.448Z" transform="translate(-146.504 -263.514)" fill="#263238"/>
        <path id="Trazado_148577" data-name="Trazado 148577" d="M177.749,405.268a.549.549,0,0,1,.094,0s.1,0,.111.039,0,.028,0,.033h.033a6,6,0,0,0,1.161.232,1.227,1.227,0,0,0,.846-.166.553.553,0,0,0,.16-.553.4.4,0,0,0-.227-.31,1.8,1.8,0,0,0-1.227.227,1.609,1.609,0,0,0,.437-1.017.42.42,0,0,0-.376-.332.658.658,0,0,0-.5.111c-.459.4-.553,1.658-.553,1.736h0Zm.475-.26-.088.05a2.211,2.211,0,0,1,.376-1.36.309.309,0,0,1,.227-.077h.05c.144.028.182.105.182.16a2.056,2.056,0,0,1-.746,1.227Zm.066.221c.553-.3,1.294-.619,1.581-.492a.2.2,0,0,1,.105.155.393.393,0,0,1-.1.365c-.221.188-.8.177-1.587-.028Z" transform="translate(-143.508 -265.893)" fill="#7e5ee3"/>
        <path id="Trazado_148578" data-name="Trazado 148578" d="M172.889,405.529l-4.975-.31a.326.326,0,0,0-.348.282h0l-.486,3.925a.785.785,0,0,0,.724.829c1.736.083,2.571.033,4.76.155a41.272,41.272,0,0,0,5.849.182c1.857-.182,1.625-2.007.824-2.1a12.147,12.147,0,0,1-5.6-2.67,1.244,1.244,0,0,0-.746-.3Z" transform="translate(-138.753 -266.701)" fill="#263238"/>
      </g>
      <path id="Trazado_148579" data-name="Trazado 148579" d="M155.06,221.211l6.871-.641.348,1.786-6.8.951Z" transform="translate(-126.84 -184.126)" fill="#fff" opacity="0.3"/>
    </g>
    <g id="freepik--Table--inject-4" transform="translate(-9176.775 -6292.617)">
      <path id="Trazado_148580" data-name="Trazado 148580" d="M83.12,258h72.467v3.046a1.194,1.194,0,0,1-1.194,1.194H84.32a1.194,1.194,0,0,1-1.194-1.194V258Z" transform="translate(-79.825 -256.165)" fill="#263238"/>
      <path id="Trazado_148581" data-name="Trazado 148581" d="M83.12,258h72.467v3.046a1.194,1.194,0,0,1-1.194,1.194H84.32a1.194,1.194,0,0,1-1.194-1.194V258Z" transform="translate(-79.825 -256.165)" fill="#fff" opacity="0.3"/>
      <rect id="Rectángulo_33164" data-name="Rectángulo 33164" width="72.461" height="2.123" transform="translate(3.295 1.819)" opacity="0.2"/>
      <path id="Trazado_148582" data-name="Trazado 148582" d="M155.016,257.068H78.36a1.194,1.194,0,0,1-1.2-1.194h0a1.2,1.2,0,0,1,1.2-1.194h76.657a1.194,1.194,0,0,1,1.194,1.194h0a1.189,1.189,0,0,1-1.194,1.194Z" transform="translate(-77.16 -254.68)" fill="#263238"/>
      <path id="Trazado_148583" data-name="Trazado 148583" d="M155.016,257.068H78.36a1.194,1.194,0,0,1-1.2-1.194h0a1.2,1.2,0,0,1,1.2-1.194h76.657a1.194,1.194,0,0,1,1.194,1.194h0a1.189,1.189,0,0,1-1.194,1.194Z" transform="translate(-77.16 -254.68)" fill="#fff" opacity="0.3"/>
      <rect id="Rectángulo_33165" data-name="Rectángulo 33165" width="31.338" height="82.594" transform="translate(36.418 88.658) rotate(180)" fill="#263238"/>
      <rect id="Rectángulo_33166" data-name="Rectángulo 33166" width="31.338" height="82.594" transform="translate(36.418 88.658) rotate(180)" fill="#fff" opacity="0.2"/>
      <rect id="Rectángulo_33167" data-name="Rectángulo 33167" width="64.423" height="82.594" transform="translate(36.418 6.064)" fill="#263238"/>
      <rect id="Rectángulo_33168" data-name="Rectángulo 33168" width="64.423" height="82.594" transform="translate(36.418 6.064)" fill="#fff" opacity="0.39"/>
      <path id="Trazado_148584" data-name="Trazado 148584" d="M140.66,258h66.933v3.046a1.194,1.194,0,0,1-1.194,1.194H141.854a1.194,1.194,0,0,1-1.194-1.194Z" transform="translate(-105.557 -256.165)" fill="#263238"/>
      <path id="Trazado_148585" data-name="Trazado 148585" d="M140.66,258h66.933v3.046a1.194,1.194,0,0,1-1.194,1.194H141.854a1.194,1.194,0,0,1-1.194-1.194Z" transform="translate(-105.557 -256.165)" fill="#fff" opacity="0.6"/>
      <rect id="Rectángulo_33169" data-name="Rectángulo 33169" width="66.933" height="2.123" transform="translate(35.103 1.819)" opacity="0.2"/>
      <path id="Trazado_148586" data-name="Trazado 148586" d="M207.028,257.068H135.894a1.194,1.194,0,0,1-1.194-1.194h0a1.194,1.194,0,0,1,1.194-1.194h71.134a1.194,1.194,0,0,1,1.194,1.194h0A1.194,1.194,0,0,1,207.028,257.068Z" transform="translate(-102.892 -254.68)" fill="#263238"/>
      <path id="Trazado_148587" data-name="Trazado 148587" d="M207.028,257.068H135.894a1.194,1.194,0,0,1-1.194-1.194h0a1.194,1.194,0,0,1,1.194-1.194h71.134a1.194,1.194,0,0,1,1.194,1.194h0A1.194,1.194,0,0,1,207.028,257.068Z" transform="translate(-102.892 -254.68)" fill="#fff" opacity="0.6"/>
      <g id="Grupo_75754" data-name="Grupo 75754" transform="translate(48.37 12.748)" opacity="0.3">
        <path id="Trazado_148588" data-name="Trazado 148588" d="M205.059,344.43h-40.4V277.74h40.4Zm-36.833-3.566h33.268V281.306H168.226Z" transform="translate(-164.66 -277.74)" fill="#fff"/>
        <rect id="Rectángulo_33170" data-name="Rectángulo 33170" width="20.796" height="44.379" transform="translate(9.801 11.156)" fill="#fff"/>
      </g>
    </g>
    <g id="freepik--police-badges--inject-4" transform="translate(-9106.714 -6320.677)">
      <rect id="Rectángulo_33171" data-name="Rectángulo 33171" width="28.348" height="21.15" rx="3.84" fill="#7e5ee3"/>
      <path id="Trazado_148589" data-name="Trazado 148589" d="M246.067,217.588s7.894,5.677,17.64-1.968c0,0-8.845,12.62-20.6,6.567Z" transform="translate(-221.435 -209.152)" fill="#7e5ee3" fill-rule="evenodd"/>
      <rect id="Rectángulo_33172" data-name="Rectángulo 33172" width="16.728" height="23.925" transform="translate(26.142 2.206) rotate(90)" fill="#fff" opacity="0.39"/>
      <path id="Trazado_148590" data-name="Trazado 148590" d="M224.342,224.244A6.976,6.976,0,0,0,222.319,223a5.252,5.252,0,0,1-3.516-4.544,4.3,4.3,0,0,1,.426-2.327c.171-.343.4-.641.592-.967a1.974,1.974,0,0,0,0-2.007c-.066-.105-.149-.21-.21-.321a.763.763,0,0,1,0-.8,1.034,1.034,0,0,1,.16-.188l.647-.63a1.056,1.056,0,0,1,.227-.182.807.807,0,0,1,.674-.061c.077,0,.149.072.232.1a2.814,2.814,0,0,0,2.9-.7.381.381,0,0,1,.553,0,2.764,2.764,0,0,0,2.908.708c.083-.033.155-.072.232-.1a.807.807,0,0,1,.674.061,1.056,1.056,0,0,1,.227.182l.647.63a1.034,1.034,0,0,1,.16.188.763.763,0,0,1,0,.8c-.061.111-.144.216-.21.321a1.974,1.974,0,0,0,0,2.007c.188.326.42.625.586.967a4.3,4.3,0,0,1,.426,2.327,5.252,5.252,0,0,1-3.516,4.544,7.126,7.126,0,0,0-2.007,1.227.553.553,0,0,1-.79,0Z" transform="translate(-210.556 -206.753)" fill="#7e5ee3" fill-rule="evenodd"/>
      <path id="Trazado_148591" data-name="Trazado 148591" d="M224.342,224.244A6.976,6.976,0,0,0,222.319,223a5.252,5.252,0,0,1-3.516-4.544,4.3,4.3,0,0,1,.426-2.327c.171-.343.4-.641.592-.967a1.974,1.974,0,0,0,0-2.007c-.066-.105-.149-.21-.21-.321a.763.763,0,0,1,0-.8,1.034,1.034,0,0,1,.16-.188l.647-.63a1.056,1.056,0,0,1,.227-.182.807.807,0,0,1,.674-.061c.077,0,.149.072.232.1a2.814,2.814,0,0,0,2.9-.7.381.381,0,0,1,.553,0,2.764,2.764,0,0,0,2.908.708c.083-.033.155-.072.232-.1a.807.807,0,0,1,.674.061,1.056,1.056,0,0,1,.227.182l.647.63a1.034,1.034,0,0,1,.16.188.763.763,0,0,1,0,.8c-.061.111-.144.216-.21.321a1.974,1.974,0,0,0,0,2.007c.188.326.42.625.586.967a4.3,4.3,0,0,1,.426,2.327,5.252,5.252,0,0,1-3.516,4.544,7.126,7.126,0,0,0-2.007,1.227.553.553,0,0,1-.79,0Z" transform="translate(-210.556 -206.753)" fill-rule="evenodd" opacity="0.3"/>
      <path id="Trazado_148592" data-name="Trazado 148592" d="M226.193,223.955a8.771,8.771,0,0,1,.807-.464c.448-.232.923-.409,1.371-.641a3.709,3.709,0,0,0,1.354-1.139,3.245,3.245,0,0,0,.459-.918,3.316,3.316,0,0,0,.127-1.575,3.6,3.6,0,0,0-.553-1.189,4.378,4.378,0,0,1-.68-1.658,3.721,3.721,0,0,1,.188-1.824,4.577,4.577,0,0,1-.553.066,4.71,4.71,0,0,1-2.537-.6,4.9,4.9,0,0,1-.818.359,4.737,4.737,0,0,1-2.228.188,3.7,3.7,0,0,1,.127,2.123,4.611,4.611,0,0,1-.6,1.3,3.417,3.417,0,0,0-.586,1.476,3.372,3.372,0,0,0,.393,1.907,3.5,3.5,0,0,0,.945,1.106,5.528,5.528,0,0,0,.99.553c.332.149.669.31,1.017.486a6.532,6.532,0,0,1,.8.459Z" transform="translate(-212.019 -208.432)" fill-rule="evenodd" opacity="0.3"/>
      <path id="Trazado_148593" data-name="Trazado 148593" d="M226.78,223.673c-.133.066-.26.138-.387.216a1.415,1.415,0,0,1-1.448,0c-.127-.072-.249-.144-.381-.21-.31-.16-.652-.321-.99-.475a5.82,5.82,0,0,1-1.106-.614,4.091,4.091,0,0,1-1.106-1.316,2.668,2.668,0,0,1-.149-.31,4.052,4.052,0,0,1-.315-1.946,4.1,4.1,0,0,1,.674-1.741,4.191,4.191,0,0,0,.553-1.106,3.035,3.035,0,0,0-.055-1.6,2.99,2.99,0,0,0-.243-.553h0l-.116-.21.392-.381.188.061a3.936,3.936,0,0,0,2.394-.044,4.2,4.2,0,0,0,.459-.188,1.388,1.388,0,0,1,1.183,0,3.975,3.975,0,0,0,1.891.381,4.306,4.306,0,0,0,1.106-.227l.387.381a4.664,4.664,0,0,0-.359.774,3.107,3.107,0,0,0-.105,1.371,3.671,3.671,0,0,0,.6,1.426,4.124,4.124,0,0,1,.619,1.4,3.925,3.925,0,0,1-.144,1.874,4.091,4.091,0,0,1-.553,1.106,4.467,4.467,0,0,1-1.592,1.343c-.448.227-.923.4-1.371.636Z" transform="translate(-211.495 -208.034)" fill-rule="evenodd" opacity="0.5"/>
      <path id="Trazado_148594" data-name="Trazado 148594" d="M227.608,219.53a2.388,2.388,0,1,1-2.388,2.388,2.388,2.388,0,0,1,2.388-2.388Z" transform="translate(-213.434 -210.901)" fill="#7e5ee3" fill-rule="evenodd"/>
      <path id="Trazado_148595" data-name="Trazado 148595" d="M227.608,219.53a2.388,2.388,0,1,1-2.388,2.388,2.388,2.388,0,0,1,2.388-2.388Z" transform="translate(-213.434 -210.901)" fill-rule="evenodd" opacity="0.5"/>
    </g>
    <g id="freepik--hammer-of-law--inject-4" transform="translate(-9010.996 -6330.749)">
      <rect id="Rectángulo_33173" data-name="Rectángulo 33173" width="32.333" height="24.124" rx="4.38" transform="translate(12.836)" fill="#7e5ee3"/>
      <path id="Trazado_148596" data-name="Trazado 148596" d="M394.275,201.59s-5.423,8.071-17.225,4.3c0,0,12.687,8.751,21.6-1.012Z" transform="translate(-377.05 -192.806)" fill="#7e5ee3" fill-rule="evenodd"/>
      <rect id="Rectángulo_33174" data-name="Rectángulo 33174" width="19.702" height="27.916" rx="0.38" transform="translate(42.964 2.206) rotate(90)" fill="#fff" opacity="0.39"/>
      <path id="Trazado_148597" data-name="Trazado 148597" d="M412.131,212.574h0a1.891,1.891,0,0,1-1.371-1.31v-.083l8.38-8.38,1.393,1.393Z" transform="translate(-392.125 -193.347)" fill="#7e5ee3"/>
      <path id="Trazado_148598" data-name="Trazado 148598" d="M412.131,212.574h0a1.891,1.891,0,0,1-1.371-1.31v-.083l8.38-8.38,1.393,1.393Z" transform="translate(-392.125 -193.347)" opacity="0.5"/>
      <rect id="Rectángulo_33175" data-name="Rectángulo 33175" width="2.488" height="2.394" transform="translate(27.627 8.454) rotate(45)" fill="#7e5ee3"/>
      <rect id="Rectángulo_33176" data-name="Rectángulo 33176" width="2.488" height="2.394" transform="translate(27.627 8.454) rotate(45)" opacity="0.7"/>
      <rect id="Rectángulo_33177" data-name="Rectángulo 33177" width="7.485" height="3.953" transform="translate(27.946 4.599) rotate(45)" fill="#7e5ee3"/>
      <rect id="Rectángulo_33178" data-name="Rectángulo 33178" width="7.485" height="3.953" transform="translate(27.946 4.599) rotate(45)" opacity="0.3"/>
      <rect id="Rectángulo_33179" data-name="Rectángulo 33179" width="2.278" height="4.887" rx="1" transform="translate(27.453 3.441) rotate(45)" fill="#7e5ee3"/>
      <rect id="Rectángulo_33180" data-name="Rectángulo 33180" width="2.278" height="4.887" rx="1" transform="translate(32.784 8.778) rotate(45)" fill="#7e5ee3"/>
      <g id="Grupo_75755" data-name="Grupo 75755" transform="translate(23.998 3.441)" opacity="0.5">
        <rect id="Rectángulo_33181" data-name="Rectángulo 33181" width="2.278" height="4.887" rx="1" transform="translate(3.455) rotate(45)"/>
        <rect id="Rectángulo_33182" data-name="Rectángulo 33182" width="2.278" height="4.887" rx="1" transform="translate(8.786 5.337) rotate(45)"/>
      </g>
      <path id="Trazado_148599" data-name="Trazado 148599" d="M429.625,213.12h7.087a.685.685,0,0,1,.685.685v2.012H428.94v-2.023A.685.685,0,0,1,429.625,213.12Z" transform="translate(-400.255 -197.962)" fill="#7e5ee3"/>
      <path id="Trazado_148600" data-name="Trazado 148600" d="M429.625,213.12h7.087a.685.685,0,0,1,.685.685v2.012H428.94v-2.023A.685.685,0,0,1,429.625,213.12Z" transform="translate(-400.255 -197.962)" opacity="0.3"/>
      <path id="Trazado_148601" data-name="Trazado 148601" d="M436.83,217.8h-8.8a.73.73,0,0,0-.73.724h0a.73.73,0,0,0,.73.73h8.8a.73.73,0,0,0,.73-.73h0A.73.73,0,0,0,436.83,217.8Z" transform="translate(-399.522 -200.055)" fill="#7e5ee3"/>
      <path id="Trazado_148602" data-name="Trazado 148602" d="M436.83,217.8h-8.8a.73.73,0,0,0-.73.724h0a.73.73,0,0,0,.73.73h8.8a.73.73,0,0,0,.73-.73h0A.73.73,0,0,0,436.83,217.8Z" transform="translate(-399.522 -200.055)" opacity="0.5"/>
    </g>
    <g id="freepik--legal-balance--inject-4" transform="translate(-9128.953 -6384.398)">
      <rect id="Rectángulo_33183" data-name="Rectángulo 33183" width="43.699" height="32.599" rx="5.92" fill="#7e5ee3"/>
      <path id="Trazado_148603" data-name="Trazado 148603" d="M226.367,136.341s-.907,9.663,10.619,14.224c0,0-15.362-1.249-16.086-14.445Z" transform="translate(-189.263 -109.879)" fill="#7e5ee3" fill-rule="evenodd"/>
      <rect id="Rectángulo_33184" data-name="Rectángulo 33184" width="28.176" height="39.276" rx="1.92" transform="translate(41.488 2.211) rotate(90)" fill="#fff" opacity="0.39"/>
      <path id="Trazado_148604" data-name="Trazado 148604" d="M189.624,119.28a3.361,3.361,0,0,1-6.274,0Z" transform="translate(-172.471 -102.348)" fill="#7e5ee3"/>
      <path id="Trazado_148605" data-name="Trazado 148605" d="M189.624,119.28a3.361,3.361,0,0,1-6.274,0Z" transform="translate(-172.471 -102.348)" opacity="0.5"/>
      <path id="Trazado_148606" data-name="Trazado 148606" d="M189.516,113.458a.116.116,0,0,1-.1-.061l-3.051-5.8-3.04,5.8a.115.115,0,0,1-.2-.105l3.14-5.987a.122.122,0,0,1,.2,0l3.14,5.987a.116.116,0,0,1-.05.155Z" transform="translate(-172.363 -96.968)" fill="#7e5ee3"/>
      <g id="Grupo_75756" data-name="Grupo 75756" transform="translate(10.745 10.282)" opacity="0.7">
        <path id="Trazado_148607" data-name="Trazado 148607" d="M189.516,113.458a.116.116,0,0,1-.1-.061l-3.051-5.8-3.04,5.8a.115.115,0,0,1-.2-.105l3.14-5.987a.122.122,0,0,1,.2,0l3.14,5.987a.116.116,0,0,1-.05.155Z" transform="translate(-183.108 -107.249)"/>
      </g>
      <path id="Trazado_148608" data-name="Trazado 148608" d="M188.906,113.741a.111.111,0,0,1-.116-.111v-6.28a.113.113,0,0,1,.227,0v6.269a.111.111,0,0,1-.111.122Z" transform="translate(-174.904 -96.963)" fill="#7e5ee3"/>
      <g id="Grupo_75757" data-name="Grupo 75757" transform="translate(13.886 10.276)" opacity="0.7">
        <path id="Trazado_148609" data-name="Trazado 148609" d="M188.906,113.741a.111.111,0,0,1-.116-.111v-6.28a.113.113,0,0,1,.227,0v6.269a.111.111,0,0,1-.111.122Z" transform="translate(-188.79 -107.24)"/>
      </g>
      <rect id="Rectángulo_33185" data-name="Rectángulo 33185" width="7.175" height="0.558" transform="translate(10.431 16.374)" fill="#7e5ee3"/>
      <rect id="Rectángulo_33186" data-name="Rectángulo 33186" width="7.175" height="0.558" transform="translate(10.431 16.374)" opacity="0.3"/>
      <path id="Trazado_148610" data-name="Trazado 148610" d="M217.72,119.28a3.367,3.367,0,0,1-6.28,0Z" transform="translate(-185.033 -102.348)" fill="#7e5ee3"/>
      <path id="Trazado_148611" data-name="Trazado 148611" d="M217.72,119.28a3.367,3.367,0,0,1-6.28,0Z" transform="translate(-185.033 -102.348)" opacity="0.5"/>
      <path id="Trazado_148612" data-name="Trazado 148612" d="M217.629,113.457a.105.105,0,0,1-.1-.061l-3.04-5.8-3.04,5.8a.113.113,0,1,1-.2-.105l3.14-5.987a.116.116,0,0,1,.2,0l3.151,5.987a.116.116,0,0,1-.05.155Z" transform="translate(-184.942 -96.967)" fill="#7e5ee3"/>
      <g id="Grupo_75758" data-name="Grupo 75758" transform="translate(26.295 10.281)" opacity="0.7">
        <path id="Trazado_148613" data-name="Trazado 148613" d="M217.629,113.457a.105.105,0,0,1-.1-.061l-3.04-5.8-3.04,5.8a.113.113,0,1,1-.2-.105l3.14-5.987a.116.116,0,0,1,.2,0l3.151,5.987a.116.116,0,0,1-.05.155Z" transform="translate(-211.236 -107.248)"/>
      </g>
      <path id="Trazado_148614" data-name="Trazado 148614" d="M217.026,113.741a.116.116,0,0,1-.116-.111v-6.28a.116.116,0,0,1,.116-.111.111.111,0,0,1,.111.111v6.269a.111.111,0,0,1-.111.122Z" transform="translate(-187.479 -96.963)" fill="#7e5ee3"/>
      <g id="Grupo_75759" data-name="Grupo 75759" transform="translate(29.431 10.277)" opacity="0.7">
        <path id="Trazado_148615" data-name="Trazado 148615" d="M217.026,113.741a.116.116,0,0,1-.116-.111v-6.28a.116.116,0,0,1,.116-.111.111.111,0,0,1,.111.111v6.269a.111.111,0,0,1-.111.122Z" transform="translate(-216.91 -107.24)"/>
      </g>
      <rect id="Rectángulo_33187" data-name="Rectángulo 33187" width="7.175" height="0.558" transform="translate(25.959 16.374)" fill="#7e5ee3"/>
      <rect id="Rectángulo_33188" data-name="Rectángulo 33188" width="7.175" height="0.558" transform="translate(25.959 16.374)" opacity="0.3"/>
      <path id="Trazado_148616" data-name="Trazado 148616" d="M196.189,104v1.155a8.111,8.111,0,0,0-3.555,1.249,4.152,4.152,0,0,1-2.255.5,6.164,6.164,0,0,1-2.609-1.056V105.2a4.854,4.854,0,0,0,2.559.9,4.135,4.135,0,0,0,2.305-.851A7.684,7.684,0,0,1,196.189,104Z" transform="translate(-174.448 -95.515)" fill="#7e5ee3"/>
      <path id="Trazado_148617" data-name="Trazado 148617" d="M196.189,104v1.155a8.111,8.111,0,0,0-3.555,1.249,4.152,4.152,0,0,1-2.255.5,6.164,6.164,0,0,1-2.609-1.056V105.2a4.854,4.854,0,0,0,2.559.9,4.135,4.135,0,0,0,2.305-.851A7.684,7.684,0,0,1,196.189,104Z" transform="translate(-174.448 -95.515)" opacity="0.3"/>
      <path id="Trazado_148618" data-name="Trazado 148618" d="M187.927,106.093a.658.658,0,1,1-.193-.471.663.663,0,0,1,.193.471Z" transform="translate(-173.924 -96.154)" fill="#7e5ee3"/>
      <path id="Trazado_148619" data-name="Trazado 148619" d="M187.927,106.093a.658.658,0,1,1-.193-.471.663.663,0,0,1,.193.471Z" transform="translate(-173.924 -96.154)" opacity="0.5"/>
      <path id="Trazado_148620" data-name="Trazado 148620" d="M203,104v1.155a8.157,8.157,0,0,1,3.56,1.249,4.14,4.14,0,0,0,2.255.5,6.219,6.219,0,0,0,2.609-1.056V105.2a4.887,4.887,0,0,1-2.565.9,4.118,4.118,0,0,1-2.3-.851A7.739,7.739,0,0,0,203,104Z" transform="translate(-181.258 -95.515)" fill="#7e5ee3"/>
      <path id="Trazado_148621" data-name="Trazado 148621" d="M203,104v1.155a8.157,8.157,0,0,1,3.56,1.249,4.14,4.14,0,0,0,2.255.5,6.219,6.219,0,0,0,2.609-1.056V105.2a4.887,4.887,0,0,1-2.565.9,4.118,4.118,0,0,1-2.3-.851A7.739,7.739,0,0,0,203,104Z" transform="translate(-181.258 -95.515)" opacity="0.3"/>
      <path id="Trazado_148622" data-name="Trazado 148622" d="M217.12,106.093a.658.658,0,1,0,.191-.469A.658.658,0,0,0,217.12,106.093Z" transform="translate(-187.573 -96.154)" fill="#7e5ee3"/>
      <path id="Trazado_148623" data-name="Trazado 148623" d="M217.12,106.093a.658.658,0,1,0,.191-.469A.658.658,0,0,0,217.12,106.093Z" transform="translate(-187.573 -96.154)" opacity="0.5"/>
      <rect id="Rectángulo_33189" data-name="Rectángulo 33189" width="1.675" height="17.137" transform="translate(20.912 6.473)" fill="#7e5ee3"/>
      <rect id="Rectángulo_33190" data-name="Rectángulo 33190" width="1.675" height="17.137" transform="translate(20.912 6.473)" opacity="0.7"/>
      <path id="Trazado_148624" data-name="Trazado 148624" d="M203.281,104.271a1.415,1.415,0,1,1-.414-1.006A1.421,1.421,0,0,1,203.281,104.271Z" transform="translate(-180.114 -95)" fill="#7e5ee3"/>
      <path id="Trazado_148625" data-name="Trazado 148625" d="M203.281,104.271a1.415,1.415,0,1,1-.414-1.006A1.421,1.421,0,0,1,203.281,104.271Z" transform="translate(-180.114 -95)" opacity="0.5"/>
      <path id="Trazado_148626" data-name="Trazado 148626" d="M203.211,97.656a1.106,1.106,0,1,1-1.106-1.106A1.106,1.106,0,0,1,203.211,97.656Z" transform="translate(-180.364 -92.183)" fill="#7e5ee3"/>
      <path id="Trazado_148627" data-name="Trazado 148627" d="M203.211,97.656a1.106,1.106,0,1,1-1.106-1.106A1.106,1.106,0,0,1,203.211,97.656Z" transform="translate(-180.364 -92.183)" opacity="0.5"/>
      <path id="Trazado_148628" data-name="Trazado 148628" d="M203.888,133.929H194.7v-2.007a.553.553,0,0,1,.553-.553h8.082a.553.553,0,0,1,.553.553Z" transform="translate(-177.547 -107.754)" fill="#7e5ee3"/>
      <path id="Trazado_148629" data-name="Trazado 148629" d="M203.888,133.929H194.7v-2.007a.553.553,0,0,1,.553-.553h8.082a.553.553,0,0,1,.553.553Z" transform="translate(-177.547 -107.754)" opacity="0.3"/>
      <path id="Trazado_148630" data-name="Trazado 148630" d="M203.656,137.892H188.891a.951.951,0,0,1-.951-.951h0a.951.951,0,0,1,.951-.951h14.765a.951.951,0,0,1,.951.951h0a.951.951,0,0,1-.951.951Z" transform="translate(-174.524 -109.82)" fill="#7e5ee3"/>
      <path id="Trazado_148631" data-name="Trazado 148631" d="M203.656,137.892H188.891a.951.951,0,0,1-.951-.951h0a.951.951,0,0,1,.951-.951h14.765a.951.951,0,0,1,.951.951h0a.951.951,0,0,1-.951.951Z" transform="translate(-174.524 -109.82)" opacity="0.5"/>
      <rect id="Rectángulo_33191" data-name="Rectángulo 33191" width="9.188" height="0.625" transform="translate(17.153 24.268)" fill="#7e5ee3"/>
      <rect id="Rectángulo_33192" data-name="Rectángulo 33192" width="9.188" height="0.625" transform="translate(17.153 24.268)" opacity="0.5"/>
      <path id="Trazado_148632" data-name="Trazado 148632" d="M203.251,100.139a.464.464,0,0,1-.459.464h-1.6a.47.47,0,0,1-.464-.464h0a.464.464,0,0,1,.464-.459h1.6A.459.459,0,0,1,203.251,100.139Z" transform="translate(-180.243 -93.583)" fill="#7e5ee3"/>
      <path id="Trazado_148633" data-name="Trazado 148633" d="M203.251,100.139a.464.464,0,0,1-.459.464h-1.6a.47.47,0,0,1-.464-.464h0a.464.464,0,0,1,.464-.459h1.6A.459.459,0,0,1,203.251,100.139Z" transform="translate(-180.243 -93.583)" opacity="0.3"/>
    </g>
    <g id="freepik--Paper--inject-4" transform="translate(-9014.247 -6384.398)">
      <rect id="Rectángulo_33193" data-name="Rectángulo 33193" width="37.651" height="28.088" rx="5.1" transform="translate(3.09)" fill="#7e5ee3"/>
      <path id="Trazado_148634" data-name="Trazado 148634" d="M381.789,131.821s.912,9.685-10.619,14.224c0,0,15.362-1.249,16.086-14.445Z" transform="translate(-371.17 -107.857)" fill="#7e5ee3" fill-rule="evenodd"/>
      <rect id="Rectángulo_33194" data-name="Rectángulo 33194" width="23.665" height="33.229" rx="1.1" transform="translate(38.53 2.217) rotate(90)" fill="#fff" opacity="0.39"/>
      <path id="Trazado_148635" data-name="Trazado 148635" d="M420.468,97h0a1.376,1.376,0,0,1,1.376,1.382v.663H418.08Z" transform="translate(-392.148 -92.384)" fill="#7e5ee3"/>
      <path id="Trazado_148636" data-name="Trazado 148636" d="M420.468,97h0a1.376,1.376,0,0,1,1.376,1.382v.663H418.08Z" transform="translate(-392.148 -92.384)" opacity="0.7"/>
      <path id="Trazado_148637" data-name="Trazado 148637" d="M411.942,115.242c2.714-5.384-2.72-13.306-.6-18.242H399.8a2.112,2.112,0,0,0-2.1,1.935c-.448,5.014,3.66,11.913.873,16.65h12.753a.68.68,0,0,0,.614-.343Z" transform="translate(-383.02 -92.384)" fill="#7e5ee3"/>
      <path id="Trazado_148638" data-name="Trazado 148638" d="M411.942,115.242c2.714-5.384-2.72-13.306-.6-18.242H399.8a2.112,2.112,0,0,0-2.1,1.935c-.448,5.014,3.66,11.913.873,16.65h12.753a.68.68,0,0,0,.614-.343Z" transform="translate(-383.02 -92.384)" opacity="0.3"/>
      <path id="Trazado_148639" data-name="Trazado 148639" d="M398.331,129.284h0a1.211,1.211,0,0,1-1.211-1.211v-.453h12.819v.453a1.211,1.211,0,0,0,1.211,1.211Z" transform="translate(-382.775 -106.077)" fill="#7e5ee3"/>
      <path id="Trazado_148640" data-name="Trazado 148640" d="M398.331,129.284h0a1.211,1.211,0,0,1-1.211-1.211v-.453h12.819v.453a1.211,1.211,0,0,0,1.211,1.211Z" transform="translate(-382.775 -106.077)" opacity="0.5"/>
      <rect id="Rectángulo_33195" data-name="Rectángulo 33195" width="9.083" height="0.757" transform="translate(16.457 7.186)" opacity="0.3"/>
      <rect id="Rectángulo_33196" data-name="Rectángulo 33196" width="9.083" height="0.757" transform="translate(16.882 9.862)" opacity="0.3"/>
      <rect id="Rectángulo_33197" data-name="Rectángulo 33197" width="9.083" height="0.757" transform="translate(17.374 11.885)" opacity="0.3"/>
      <rect id="Rectángulo_33198" data-name="Rectángulo 33198" width="9.083" height="0.757" transform="translate(17.861 13.914)" opacity="0.3"/>
      <circle id="Elipse_4676" data-name="Elipse 4676" cx="1.399" cy="1.399" r="1.399" transform="translate(24.533 17.159)" opacity="0.3"/>
    </g>
  </g>
</svg>
