<svg xmlns="http://www.w3.org/2000/svg" width="278.524" height="222" viewBox="0 0 278.524 222">
  <g id="Grupo_76025" data-name="Grupo 76025" transform="translate(9794.524 4344)">
    <g id="Documents-amico" transform="translate(-9826.93 -4409.5)">
      <g id="freepik--Floor--inject-169" transform="translate(32.405 141.989)" opacity="0.33">
        <path id="Trazado_150347" data-name="Trazado 150347" d="M73.193,312.712c54.384,28.411,142.564,28.411,196.949,0s54.384-74.475,0-102.892-142.539-28.411-196.949,0S18.834,284.3,73.193,312.712Z" transform="translate(-32.405 -188.509)" fill="#727997"/>
      </g>
      <g id="freepik--filing-cabinets--inject-169" transform="translate(40.355 116.794)">
        <path id="Trazado_150348" data-name="Trazado 150348" d="M62.868,284.053l-17.678-10.2V235.93l17.678,10.21Z" transform="translate(-45.19 -181.247)" fill="#e0e0e0"/>
        <path id="Trazado_150349" data-name="Trazado 150349" d="M73.62,243.482,98.878,228.9v37.912L73.62,281.394Z" transform="translate(-55.942 -178.589)" fill="#ebebeb"/>
        <path id="Trazado_150350" data-name="Trazado 150350" d="M88.127,222.69,62.868,237.272,45.19,227.062,70.448,212.48Z" transform="translate(-45.19 -172.379)" fill="#f5f5f5"/>
        <path id="Trazado_150351" data-name="Trazado 150351" d="M77.686,247.6l20.2-11.665.466.267v14.047L78.146,261.91l-.466-.267Z" transform="translate(-57.477 -181.247)" fill="#e0e0e0"/>
        <path id="Trazado_150352" data-name="Trazado 150352" d="M78.43,248.032,98.639,236.36v14.047L78.43,262.072Z" transform="translate(-57.761 -181.41)" fill="#f5f5f5"/>
        <path id="Trazado_150353" data-name="Trazado 150353" d="M90.678,250.309l3.439-1.984c.441-.261.8-.143.8.261a1.61,1.61,0,0,1-.8,1.194l-3.439,1.984c-.448.261-.808.143-.808-.261A1.6,1.6,0,0,1,90.678,250.309Z" transform="translate(-62.087 -185.883)" fill="#e0e0e0"/>
        <path id="Trazado_150354" data-name="Trazado 150354" d="M76.94,276.175l20.2-11.665v14.047l.466.267L77.4,290.49l-.46-.267Z" transform="translate(-57.197 -192.056)" fill="#e0e0e0"/>
        <path id="Trazado_150355" data-name="Trazado 150355" d="M77.68,276.605,97.889,264.94v14.047L77.68,290.652Z" transform="translate(-57.477 -192.218)" fill="#f5f5f5"/>
        <path id="Trazado_150356" data-name="Trazado 150356" d="M89.947,278.893l3.47-1.977c.448-.261.808-.143.808.261a1.6,1.6,0,0,1-.808,1.194l-3.439,1.984c-.448.261-.808.143-.808-.261A1.6,1.6,0,0,1,89.947,278.893Z" transform="translate(-61.822 -196.695)" fill="#e0e0e0"/>
        <path id="Trazado_150357" data-name="Trazado 150357" d="M62.868,219.563,45.19,209.352V171.44l17.678,10.2Z" transform="translate(-45.19 -156.858)" fill="#e0e0e0"/>
        <path id="Trazado_150358" data-name="Trazado 150358" d="M73.62,178.982,98.878,164.4v37.919L73.62,216.9Z" transform="translate(-55.942 -154.196)" fill="#ebebeb"/>
        <path id="Trazado_150359" data-name="Trazado 150359" d="M88.127,158.194,62.868,172.776l-17.678-10.2L70.448,147.99Z" transform="translate(-45.19 -147.99)" fill="#f5f5f5"/>
        <path id="Trazado_150360" data-name="Trazado 150360" d="M77.68,183.105,97.889,171.44l.466.267v14.047L78.146,197.42l-.466-.274Z" transform="translate(-57.477 -156.858)" fill="#e0e0e0"/>
        <path id="Trazado_150361" data-name="Trazado 150361" d="M90.678,185.812l3.432-1.984c.448-.255.808-.137.808.267a1.617,1.617,0,0,1-.808,1.194l-3.432,1.984c-.448.255-.808.143-.808-.261a1.623,1.623,0,0,1,.808-1.2Z" transform="translate(-62.087 -161.493)" fill="#e0e0e0"/>
        <path id="Trazado_150362" data-name="Trazado 150362" d="M76.94,211.685l20.2-11.665v14.041l.466.267L77.4,225.993l-.46-.267Z" transform="translate(-57.197 -167.667)" fill="#e0e0e0"/>
        <path id="Trazado_150363" data-name="Trazado 150363" d="M77.68,212.115,97.889,200.45v14.041L77.68,226.156Z" transform="translate(-57.477 -167.829)" fill="#f5f5f5"/>
        <path id="Trazado_150364" data-name="Trazado 150364" d="M89.928,214.392l3.47-1.984c.441-.255.808-.137.808.267a1.642,1.642,0,0,1-.808,1.194l-3.47,1.965c-.448.255-.808.137-.808-.261a1.623,1.623,0,0,1,.808-1.181Z" transform="translate(-61.804 -172.301)" fill="#e0e0e0"/>
        <path id="Trazado_150365" data-name="Trazado 150365" d="M77.68,183.105,97.889,171.44v14.041L77.68,197.146Z" transform="translate(-57.477 -156.858)" fill="#e0e0e0"/>
        <path id="Trazado_150366" data-name="Trazado 150366" d="M119.7,178.716,108.64,172.33V184.7l11.062,6.38Z" transform="translate(-69.186 -157.195)" fill="#e0e0e0"/>
        <path id="Trazado_150367" data-name="Trazado 150367" d="M89.87,200.033v-17.5l4.334-2.512.715,1.057,12.629-7.294v16.043Z" transform="translate(-62.087 -157.743)" fill="#ebebeb"/>
        <path id="Trazado_150368" data-name="Trazado 150368" d="M89.87,200.479l1.262-15.315,17.678-10.2-1.262,15.309Z" transform="translate(-62.087 -158.19)" fill="#f5f5f5"/>
        <path id="Trazado_150369" data-name="Trazado 150369" d="M88.068,197.975,78.43,192.41v12.374l9.638,5.559Z" transform="translate(-57.761 -164.789)" fill="#ebebeb"/>
        <path id="Trazado_150370" data-name="Trazado 150370" d="M93.93,192.485l20.209-11.665v14.041L93.93,206.526Z" transform="translate(-63.623 -160.406)" fill="#f5f5f5"/>
        <path id="Trazado_150371" data-name="Trazado 150371" d="M106.178,194.762l3.432-1.984c.448-.255.808-.137.808.267a1.623,1.623,0,0,1-.808,1.194l-3.432,1.984c-.448.255-.808.137-.808-.261A1.623,1.623,0,0,1,106.178,194.762Z" transform="translate(-67.949 -164.877)" fill="#e0e0e0"/>
        <path id="Trazado_150372" data-name="Trazado 150372" d="M93.522,199.346l-.672-.386V213l.672.386Z" transform="translate(-63.214 -167.266)" fill="#e0e0e0"/>
        <path id="Trazado_150373" data-name="Trazado 150373" d="M92.85,191.862l20.2-11.672.678.392L93.522,192.247Z" transform="translate(-63.214 -160.167)" fill="#ebebeb"/>
        <path id="Trazado_150374" data-name="Trazado 150374" d="M398.745,247.113,381.06,236.9V198.99l17.685,10.2Z" transform="translate(-172.21 -167.277)" fill="#e0e0e0"/>
        <path id="Trazado_150375" data-name="Trazado 150375" d="M409.5,206.532l25.258-14.582v37.918L409.5,244.45Z" transform="translate(-182.965 -164.615)" fill="#ebebeb"/>
        <path id="Trazado_150376" data-name="Trazado 150376" d="M424,185.74l-25.258,14.582-17.685-10.2,25.264-14.588Z" transform="translate(-172.21 -158.405)" fill="#f5f5f5"/>
        <path id="Trazado_150377" data-name="Trazado 150377" d="M413.56,210.655l20.209-11.665.466.267-.006,14.041-20.2,11.665-.466-.267Z" transform="translate(-184.501 -167.277)" fill="#e0e0e0"/>
        <path id="Trazado_150378" data-name="Trazado 150378" d="M414.31,211.085l20.209-11.665-.006,14.041-20.2,11.665Z" transform="translate(-184.784 -167.44)" fill="#f5f5f5"/>
        <path id="Trazado_150379" data-name="Trazado 150379" d="M426.558,213.362l3.432-1.984c.448-.255.808-.137.808.261a1.623,1.623,0,0,1-.808,1.2l-3.432,1.984c-.448.255-.808.137-.808-.261a1.623,1.623,0,0,1,.808-1.2Z" transform="translate(-189.111 -171.911)" fill="#e0e0e0"/>
        <path id="Trazado_150380" data-name="Trazado 150380" d="M412.81,239.232l20.209-11.672v14.047l.466.267L413.276,253.54l-.466-.267Z" transform="translate(-184.217 -178.082)" fill="#e0e0e0"/>
        <path id="Trazado_150381" data-name="Trazado 150381" d="M413.56,239.665,433.769,228v14.041L413.56,253.706Z" transform="translate(-184.501 -178.248)" fill="#f5f5f5"/>
        <path id="Trazado_150382" data-name="Trazado 150382" d="M425.808,241.942l3.439-1.984c.441-.255.8-.137.8.261a1.635,1.635,0,0,1-.8,1.2l-3.439,1.984c-.448.255-.808.137-.808-.267a1.623,1.623,0,0,1,.808-1.194Z" transform="translate(-188.827 -182.72)" fill="#e0e0e0"/>
      </g>
      <g id="freepik--folder-2--inject-169" transform="translate(98.451 95.559)">
        <path id="Trazado_150396" data-name="Trazado 150396" d="M138.62,161.963v96.245l98.508-56.872-.006-87.5-73.244,42.29-2.531-7.294Z" transform="translate(-138.62 -113.84)" fill="#727997"/>
        <path id="Trazado_150397" data-name="Trazado 150397" d="M138.62,161.963v96.245l98.508-56.872-.006-87.5-73.244,42.29-2.531-7.294Z" transform="translate(-138.62 -113.84)" opacity="0.7"/>
        <path id="Trazado_150398" data-name="Trazado 150398" d="M138.62,258.208l5.049-87.5,98.508-56.872-5.049,87.5Z" transform="translate(-138.62 -113.84)" fill="#e0e0e0"/>
        <path id="Trazado_150399" data-name="Trazado 150399" d="M138.62,259.093l7.574-86.035L244.7,116.18l-7.574,86.041Z" transform="translate(-138.62 -114.725)" fill="#727997"/>
        <path id="Trazado_150400" data-name="Trazado 150400" d="M138.62,259.093l7.574-86.035L244.7,116.18l-7.574,86.041Z" transform="translate(-138.62 -114.725)" opacity="0.7"/>
      </g>
      <g id="freepik--folder-1--inject-169" transform="translate(113.605 104.308)">
        <path id="Trazado_150401" data-name="Trazado 150401" d="M162.99,176.033v96.251L261.5,215.406v-87.5l-73.25,42.29-2.525-7.294Z" transform="translate(-162.99 -127.91)" fill="#727997"/>
        <path id="Trazado_150402" data-name="Trazado 150402" d="M162.99,176.033v96.251L261.5,215.406v-87.5l-73.25,42.29-2.525-7.294Z" transform="translate(-162.99 -127.91)" opacity="0.5"/>
        <path id="Trazado_150403" data-name="Trazado 150403" d="M162.99,272.284l5.049-87.5,98.508-56.872-5.049,87.5Z" transform="translate(-162.99 -127.91)" fill="#e0e0e0"/>
        <path id="Trazado_150404" data-name="Trazado 150404" d="M162.99,273.169l7.574-86.041,98.508-56.878L261.5,216.291Z" transform="translate(-162.99 -128.795)" fill="#727997"/>
        <path id="Trazado_150405" data-name="Trazado 150405" d="M162.99,273.169l7.574-86.041,98.508-56.878L261.5,216.291Z" transform="translate(-162.99 -128.795)" opacity="0.5"/>
      </g>
      <g id="freepik--Documents--inject-169" transform="translate(131.283 65.5)">
        <path id="Trazado_150406" data-name="Trazado 150406" d="M271.715,380.47c-17.685-10.21-34.088-21.31-41.575-34.331L252.9,333Z" transform="translate(-206.063 -166.663)" fill="#e0e0e0"/>
        <path id="Trazado_150407" data-name="Trazado 150407" d="M191.42,192.453V288.7l98.508-56.871v-87.5l-73.25,42.29-2.525-7.294Z" transform="translate(-191.42 -95.312)" fill="#727997"/>
        <path id="Trazado_150408" data-name="Trazado 150408" d="M191.42,192.453V288.7l98.508-56.871v-87.5l-73.25,42.29-2.525-7.294Z" transform="translate(-191.42 -95.312)" opacity="0.2"/>
        <path id="Trazado_150409" data-name="Trazado 150409" d="M236.886,191.3c-.249,0-.286-.286-.286-.454v-82.08a2.064,2.064,0,0,1,.92-1.592l71.1-41.04a.659.659,0,0,1,.323-.1c.249,0,.286.286.286.454v82.08a2.071,2.071,0,0,1-.92,1.6l-71.1,41.04A.678.678,0,0,1,236.886,191.3Z" transform="translate(-208.506 -65.7)" fill="#fff"/>
        <path id="Trazado_150410" data-name="Trazado 150410" d="M308.72,66.116a.621.621,0,0,1,0,.137v82.08a1.785,1.785,0,0,1-.765,1.331l-71.1,41.04-.124.056a.379.379,0,0,1,0-.137v-82.08a1.785,1.785,0,0,1,.765-1.324l71.1-41.04a.348.348,0,0,1,.131-.056m.037-.622a.97.97,0,0,0-.479.143l-71.1,41.04a2.394,2.394,0,0,0-1.076,1.865v82.08c0,.485.243.765.622.765a.958.958,0,0,0,.479-.143l71.1-41.04a2.369,2.369,0,0,0,1.076-1.865V66.265c0-.485-.242-.771-.622-.765Z" transform="translate(-208.321 -65.5)" fill="#727997"/>
        <path id="Trazado_150411" data-name="Trazado 150411" d="M308.72,66.116a.621.621,0,0,1,0,.137v82.08a1.785,1.785,0,0,1-.765,1.331l-71.1,41.04-.124.056a.379.379,0,0,1,0-.137v-82.08a1.785,1.785,0,0,1,.765-1.324l71.1-41.04a.348.348,0,0,1,.131-.056m.037-.622a.97.97,0,0,0-.479.143l-71.1,41.04a2.394,2.394,0,0,0-1.076,1.865v82.08c0,.485.243.765.622.765a.958.958,0,0,0,.479-.143l71.1-41.04a2.369,2.369,0,0,0,1.076-1.865V66.265c0-.485-.242-.771-.622-.765Z" transform="translate(-208.321 -65.5)" fill="#fff" opacity="0.7"/>
        <path id="Trazado_150412" data-name="Trazado 150412" d="M248.29,130.892l25.258-14.582v29.163L248.29,160.055Z" transform="translate(-212.927 -84.715)" fill="#727997"/>
        <path id="Trazado_150413" data-name="Trazado 150413" d="M248.29,130.892l25.258-14.582v29.163L248.29,160.055Z" transform="translate(-212.927 -84.715)" fill="#fff" opacity="0.8"/>
        <path id="Trazado_150414" data-name="Trazado 150414" d="M272.072,128v8.768l-.8.441v-2.68c0-1.48-1.2-1.984-2.692-1.125l-10.7,6.187a5.576,5.576,0,0,0-2.692,4.235v2.68l-.79.473v-8.749Z" transform="translate(-215.238 -89.136)" fill="#fff"/>
        <path id="Trazado_150415" data-name="Trazado 150415" d="M268.741,154.294c-1.293.746-2.344-.037-2.344-1.76V138.5l-3.252,1.766v14.146a5.563,5.563,0,0,1-2.344,4.458l-2.35,1.356v.933l12.629-7.294v-.927Z" transform="translate(-216.77 -93.107)" fill="#fff"/>
        <path id="Trazado_150416" data-name="Trazado 150416" d="M297,103.74c0,.808.728,1.038,1.617.529L323.191,90.06a3.246,3.246,0,0,0,1.617-2.394c0-.8-.728-1.038-1.617-.522l-24.556,14.177A3.233,3.233,0,0,0,297,103.74Z" transform="translate(-231.348 -73.582)" fill="#455a64"/>
        <path id="Trazado_150417" data-name="Trazado 150417" d="M297,117.759c0,.808.728,1.045,1.617.529l24.556-14.177a3.246,3.246,0,0,0,1.617-2.394c0-.8-.728-1.038-1.617-.522l-24.556,14.177A3.246,3.246,0,0,0,297,117.759Z" transform="translate(-231.348 -78.895)" fill="#455a64"/>
        <path id="Trazado_150418" data-name="Trazado 150418" d="M297,131.859c0,.808.728,1.045,1.617.529l24.556-14.177a3.246,3.246,0,0,0,1.617-2.388c0-.808-.728-1.045-1.617-.529l-24.556,14.177A3.246,3.246,0,0,0,297,131.859Z" transform="translate(-231.348 -84.228)" fill="#455a64"/>
        <path id="Trazado_150419" data-name="Trazado 150419" d="M297,145.929c0,.808.728,1.045,1.617.529l24.556-14.177a3.246,3.246,0,0,0,1.617-2.388c0-.808-.728-1.045-1.617-.529l-24.556,14.177A3.246,3.246,0,0,0,297,145.929Z" transform="translate(-231.348 -89.549)" fill="#455a64"/>
        <path id="Trazado_150420" data-name="Trazado 150420" d="M248.29,177.486c0,.808.721,1.045,1.617.529L304.77,146.3a3.233,3.233,0,0,0,1.617-2.388c0-.808-.728-1.038-1.617-.529L249.907,175.1A3.227,3.227,0,0,0,248.29,177.486Z" transform="translate(-212.927 -94.852)" fill="#455a64"/>
        <path id="Trazado_150421" data-name="Trazado 150421" d="M248.29,191.577c0,.808.721,1.045,1.617.529L304.77,160.43a3.246,3.246,0,0,0,1.617-2.394c0-.8-.728-1.038-1.617-.522l-54.863,31.675A3.227,3.227,0,0,0,248.29,191.577Z" transform="translate(-212.927 -100.194)" fill="#455a64"/>
        <path id="Trazado_150422" data-name="Trazado 150422" d="M248.29,205.653c0,.8.721,1.038,1.617.522L304.77,174.5a3.246,3.246,0,0,0,1.617-2.394c0-.8-.728-1.038-1.617-.522l-54.863,31.675A3.227,3.227,0,0,0,248.29,205.653Z" transform="translate(-212.927 -105.515)" fill="#455a64"/>
        <path id="Trazado_150423" data-name="Trazado 150423" d="M191.42,294.9,209.1,217.618l98.508-56.878-17.678,77.292Z" transform="translate(-191.42 -101.518)" fill="#727997"/>
        <path id="Trazado_150424" data-name="Trazado 150424" d="M230.18,253.96v57.325l22.734-13.127V240.84Z" transform="translate(-206.078 -131.81)" fill="#727997"/>
        <path id="Trazado_150425" data-name="Trazado 150425" d="M230.18,253.96v57.325l22.734-13.127V240.84Z" transform="translate(-206.078 -131.81)" opacity="0.2"/>
        <path id="Trazado_150426" data-name="Trazado 150426" d="M272.666,328.569c-1.934-1.443-20.576-15.688-30.052-36.065-10.086-21.664-10.073-46.935-10.073-56.442v-.3l67.579-39.013c0,9.595,0,34.9,10.129,56.641,9.259,19.9,27.186,33.964,30.028,36.115Z" transform="translate(-206.971 -115.136)" fill="#fff"/>
        <path id="Trazado_150427" data-name="Trazado 150427" d="M299.6,196.988c0,10,.193,34.822,10.161,56.237,8.948,19.214,25.961,33.031,29.748,35.947l-67.032,38.7c-2.618-1.971-20.557-15.981-29.785-35.8-10.073-21.6-10.073-46.823-10.073-56.318v-.118l66.957-38.658m.622-1.076L232,235.286c0,8.948-.187,34.946,10.1,57.052,10.129,21.7,30.314,36.283,30.314,36.283l68.22-39.386s-20.209-14.588-30.307-36.283c-10.3-22.106-10.1-48.1-10.1-57.052Z" transform="translate(-206.766 -114.815)" fill="#727997"/>
        <path id="Trazado_150428" data-name="Trazado 150428" d="M299.6,196.988c0,10,.193,34.822,10.161,56.237,8.948,19.214,25.961,33.031,29.748,35.947l-67.032,38.7c-2.618-1.971-20.557-15.981-29.785-35.8-10.073-21.6-10.073-46.823-10.073-56.318v-.118l66.957-38.658m.622-1.076L232,235.286c0,8.948-.187,34.946,10.1,57.052,10.129,21.7,30.314,36.283,30.314,36.283l68.22-39.386s-20.209-14.588-30.307-36.283c-10.3-22.106-10.1-48.1-10.1-57.052Z" transform="translate(-206.766 -114.815)" fill="#fff" opacity="0.7"/>
        <path id="Trazado_150429" data-name="Trazado 150429" d="M315.242,216.982l-21.565,12.436a3.059,3.059,0,0,0-1.567,2.357c.031.79.783,1.014,1.673.5l21.571-12.436a3.059,3.059,0,0,0,1.561-2.326C316.877,216.69,316.137,216.466,315.242,216.982Z" transform="translate(-229.499 -122.683)" fill="#455a64"/>
        <path id="Trazado_150430" data-name="Trazado 150430" d="M316.019,230.632l-21.565,12.436a2.873,2.873,0,0,0-1.5,2.326c.068.765.852.97,1.741.454l21.571-12.436a2.835,2.835,0,0,0,1.486-2.319C317.686,230.321,316.915,230.134,316.019,230.632Z" transform="translate(-229.817 -127.845)" fill="#455a64"/>
        <path id="Trazado_150431" data-name="Trazado 150431" d="M317.444,243.895l-21.571,12.436a2.675,2.675,0,0,0-1.43,2.282c.106.74.92.933,1.816.417l21.571-12.436a2.63,2.63,0,0,0,1.412-2.276C319.129,243.578,318.333,243.379,317.444,243.895Z" transform="translate(-230.377 -132.857)" fill="#455a64"/>
        <path id="Trazado_150432" data-name="Trazado 150432" d="M319.563,256.758l-21.571,12.436a2.469,2.469,0,0,0-1.356,2.245c.149.721.995.883,1.865.367l21.565-12.436a2.436,2.436,0,0,0,1.343-2.239C321.26,256.41,320.483,256.242,319.563,256.758Z" transform="translate(-231.202 -137.717)" fill="#455a64"/>
        <path id="Trazado_150433" data-name="Trazado 150433" d="M322.435,269.193l-21.571,12.436a2.179,2.179,0,0,0-1.244,2.189c.224.69,1.076.846,1.965.33l21.571-12.436a2.184,2.184,0,0,0,1.244-2.189C324.189,268.826,323.324,268.677,322.435,269.193Z" transform="translate(-232.321 -142.417)" fill="#455a64"/>
        <path id="Trazado_150434" data-name="Trazado 150434" d="M307.271,281.175,254.7,311.526c-.889.516-1.43,1.474-1.188,2.139s1.169.79,2.058.274l52.569-30.351a2.024,2.024,0,0,0,1.169-2.139C309.068,280.777,308.129,280.659,307.271,281.175Z" transform="translate(-214.881 -146.943)" fill="#455a64"/>
        <path id="Trazado_150435" data-name="Trazado 150435" d="M311.767,292.62l-52.562,30.351c-.9.516-1.387,1.449-1.088,2.083s1.244.734,2.151.218l52.569-30.351c.9-.516,1.374-1.449,1.076-2.083S312.663,292.111,311.767,292.62Z" transform="translate(-216.61 -151.269)" fill="#455a64"/>
        <path id="Trazado_150436" data-name="Trazado 150436" d="M317.357,303.521l-52.569,30.351c-.9.516-1.337,1.424-.982,2.027s1.368.665,2.263.149L318.6,305.7c.889-.51,1.318-1.412.964-2.015S318.227,303,317.357,303.521Z" transform="translate(-218.749 -155.385)" fill="#455a64"/>
        <path id="Trazado_150437" data-name="Trazado 150437" d="M323.865,313.831,271.3,344.176c-.9.516-1.293,1.405-.889,1.971a1.865,1.865,0,0,0,2.363.1L325.339,315.9c.9-.516,1.281-1.393.877-1.965A1.847,1.847,0,0,0,323.865,313.831Z" transform="translate(-221.234 -159.278)" fill="#455a64"/>
        <path id="Trazado_150438" data-name="Trazado 150438" d="M331.277,323.628l-52.569,30.345c-.889.516-1.244,1.38-.8,1.921a2.042,2.042,0,0,0,2.444.05l52.569-30.363c.889-.516,1.244-1.368.783-1.909A2,2,0,0,0,331.277,323.628Z" transform="translate(-224.057 -162.974)" fill="#455a64"/>
        <path id="Trazado_150439" data-name="Trazado 150439" d="M339.452,332.964,286.9,363.309c-.9.516-1.244,1.362-.721,1.865a2.244,2.244,0,0,0,2.518,0l52.569-30.351c.9-.516,1.206-1.349.709-1.865A2.239,2.239,0,0,0,339.452,332.964Z" transform="translate(-227.164 -166.503)" fill="#455a64"/>
        <path id="Trazado_150440" data-name="Trazado 150440" d="M348.477,341.887l-52.569,30.345c-.889.516-1.181,1.343-.622,1.834a2.417,2.417,0,0,0,2.6-.044l52.525-30.351c.889-.516,1.169-1.324.622-1.822A2.33,2.33,0,0,0,348.477,341.887Z" transform="translate(-230.592 -169.874)" fill="#455a64"/>
        <path id="Trazado_150441" data-name="Trazado 150441" d="M266.978,244.44l-24.8,14.3a144.675,144.675,0,0,0,5.055,35l24.8-14.3A144.452,144.452,0,0,1,266.978,244.44Z" transform="translate(-210.616 -133.172)" fill="#727997"/>
        <path id="Trazado_150442" data-name="Trazado 150442" d="M266.978,244.44l-24.8,14.3a144.675,144.675,0,0,0,5.055,35l24.8-14.3A144.452,144.452,0,0,1,266.978,244.44Z" transform="translate(-210.616 -133.172)" fill="#fff" opacity="0.8"/>
        <path id="Trazado_150443" data-name="Trazado 150443" d="M252.291,262.346a4.1,4.1,0,0,0-1.206-3.146l-8.9,5.136c.075,2.375.2,5.03.417,7.891a5.839,5.839,0,0,0,3.364-.622C249.461,270,252.291,265.841,252.291,262.346Z" transform="translate(-210.616 -138.754)" fill="#727997"/>
        <path id="Trazado_150444" data-name="Trazado 150444" d="M252.291,262.346a4.1,4.1,0,0,0-1.206-3.146l-8.9,5.136c.075,2.375.2,5.03.417,7.891a5.839,5.839,0,0,0,3.364-.622C249.461,270,252.291,265.841,252.291,262.346Z" transform="translate(-210.616 -138.754)" fill="#fff" opacity="0.6"/>
        <path id="Trazado_150445" data-name="Trazado 150445" d="M275.718,279.827h0c-1.654-2.083-5.018-8.519-6.454-11.323a.622.622,0,0,0-1.15.106,68.245,68.245,0,0,0-2.686,16.323,23.629,23.629,0,0,1-5.267-5.857.553.553,0,0,0-.989.174,60.987,60.987,0,0,0-1.349,20.713h0l20-11.553C276.993,285.523,276.3,282.65,275.718,279.827Z" transform="translate(-216.403 -142.144)" fill="#727997"/>
        <path id="Trazado_150446" data-name="Trazado 150446" d="M275.718,279.827h0c-1.654-2.083-5.018-8.519-6.454-11.323a.622.622,0,0,0-1.15.106,68.245,68.245,0,0,0-2.686,16.323,23.629,23.629,0,0,1-5.267-5.857.553.553,0,0,0-.989.174,60.987,60.987,0,0,0-1.349,20.713h0l20-11.553C276.993,285.523,276.3,282.65,275.718,279.827Z" transform="translate(-216.403 -142.144)" fill="#fff" opacity="0.6"/>
      </g>
    </g>
  </g>
</svg>
