<svg xmlns="http://www.w3.org/2000/svg" width="316.174" height="227.399" viewBox="0 0 316.174 227.399">
  <g id="Customer_Survey-pana" data-name="Customer Survey-pana" transform="translate(-92.9 -41.617)">
    <g id="freepik--background-complete--inject-72" transform="translate(94.742 96.596)">
      <path id="Trazado_147926" data-name="Trazado 147926" d="M475,194.006v23.676a7.727,7.727,0,0,0,7.76,7.593h84.883a7.76,7.76,0,0,0,7.776-7.754V197.507L585.986,186.4l-103.217-.322a7.8,7.8,0,0,0-7.77,7.926Z" transform="translate(-271.654 -163.483)" fill="#f5f5f5"/>
      <path id="Trazado_147927" data-name="Trazado 147927" d="M572.224,210.448l-77.054-.36.011-2.368,77.049.36Z" transform="translate(-280.993 -173.502)" fill="#e0e0e0"/>
      <path id="Trazado_147928" data-name="Trazado 147928" d="M572.224,224.958l-77.054-.36.011-2.368,77.049.36Z" transform="translate(-280.993 -180.221)" fill="#e0e0e0"/>
      <rect id="Rectángulo_33060" data-name="Rectángulo 33060" width="2.368" height="30.485" transform="translate(260.735 52.178) rotate(-89.72)" fill="#e0e0e0"/>
      <path id="Trazado_147929" data-name="Trazado 147929" d="M162.643,354.955c11.873-8.3,14.563-23.692,14.1-37.536-.081-2.309.172-4.747-.924-6.772s-3.662-3.415-5.735-2.438c-1.713.806-2.459,2.8-3.421,4.452a13.51,13.51,0,0,1-5.418,5.177c-1.471.763-3.292,1.23-4.742.43-2-1.1-2.229-3.856-2.218-6.154l.081-12.845a22.506,22.506,0,0,0-.693-6.825,7.134,7.134,0,0,0-4.479-4.833c-2.186-.628-4.887.644-5.37,2.894a22.06,22.06,0,0,0-.07,2.862,2.426,2.426,0,0,1-1.412,2.277,2.76,2.76,0,0,1-2.524-1.074,30.446,30.446,0,0,1-5.483-8.281,42.185,42.185,0,0,0-5.118-8.544c-2.153-2.529-5.128-4.538-8.42-4.726s-6.8,1.847-7.625,5.08,1.074,6.525,3.109,9.129a51.343,51.343,0,0,0,10.681,10.2,4.383,4.383,0,0,1,1.788,1.917c.494,1.536-.956,3.056-2.465,3.56-1.713.569-3.576.392-5.37.6s-3.759,1-4.409,2.685c-.945,2.347,1.02,4.833,2.953,6.444a44.034,44.034,0,0,0,13.006,7.518A14.861,14.861,0,0,1,137.3,322.5c1.364,1.187,2.186,3.254,1.364,4.871s-2.937,2.148-4.709,1.81a31.919,31.919,0,0,1-5.042-1.922c-3.158-1.192-7.233-.977-9.258,1.756a7.31,7.31,0,0,0-.773,6.444,16.608,16.608,0,0,0,3.485,5.676A43.976,43.976,0,0,0,141.227,354.4c7.325,2.518,14.112,3.222,21.394.569" transform="translate(-104.035 -203.731)" fill="#f5f5f5"/>
      <path id="Trazado_147930" data-name="Trazado 147930" d="M165.862,366.9a100.657,100.657,0,0,0-3.759-18.935,204.819,204.819,0,0,0-8.173-22.167q-1.23-2.894-2.438-5.7c-.806-1.869-1.611-3.721-2.5-5.488a102.872,102.872,0,0,0-5.708-9.843c-1.971-3.045-3.947-5.864-5.821-8.485s-3.668-5.021-5.37-7.147a81.393,81.393,0,0,0-8.9-9.4c-1.133-1.026-2.041-1.794-2.685-2.3l-.725-.585a1.535,1.535,0,0,0-.247-.183,1.875,1.875,0,0,0,.22.215l.682.612c.6.537,1.493,1.316,2.6,2.357a86.089,86.089,0,0,1,8.78,9.473q2.561,3.222,5.343,7.164c1.858,2.626,3.823,5.445,5.778,8.49a103.646,103.646,0,0,1,5.671,9.822c.886,1.756,1.675,3.593,2.481,5.467l2.438,5.7a210.8,210.8,0,0,1,8.189,22.114,102.679,102.679,0,0,1,3.829,18.854" transform="translate(-107.076 -205.422)" fill="#e0e0e0"/>
      <path id="Trazado_147931" data-name="Trazado 147931" d="M174.167,325.534a4.3,4.3,0,0,0,.226-.977c.124-.634.263-1.563.424-2.685.328-2.288.666-5.461,1.031-8.962s.746-6.664,1.106-8.941c.177-1.138.328-2.057.44-2.685a4.484,4.484,0,0,0,.129-.993,4.6,4.6,0,0,0-.29.961c-.161.623-.36,1.541-.575,2.685-.435,2.272-.87,5.44-1.23,8.952l-.908,8.968c-.113,1.074-.215,1.987-.29,2.717a4.693,4.693,0,0,0-.064.961Z" transform="translate(-132.367 -216.362)" fill="#e0e0e0"/>
      <path id="Trazado_147932" data-name="Trazado 147932" d="M119.16,336.972a5.778,5.778,0,0,0,1.176.14c.757.07,1.858.161,3.222.317,2.685.3,6.444.827,10.514,1.611s7.749,1.638,10.38,2.336c1.316.344,2.379.644,3.115.854a6.617,6.617,0,0,0,1.149.279,6.337,6.337,0,0,0-1.074-.44c-.725-.252-1.772-.6-3.088-.983-2.615-.773-6.283-1.686-10.38-2.465a103.248,103.248,0,0,0-10.557-1.477c-1.359-.118-2.465-.166-3.222-.177A6.377,6.377,0,0,0,119.16,336.972Z" transform="translate(-106.9 -233.331)" fill="#e0e0e0"/>
      <path id="Trazado_147933" data-name="Trazado 147933" d="M198.14,375.914a1.693,1.693,0,0,0,.2-.36c.14-.29.306-.644.5-1.074.435-.934,1.031-2.293,1.74-3.99,1.428-3.383,3.249-8.119,5.187-13.371s3.716-10,5.069-13.425l1.611-4.033c.172-.44.311-.806.43-1.074a1.252,1.252,0,0,0,.124-.4,1.671,1.671,0,0,0-.2.365c-.14.285-.306.639-.5,1.074-.435.934-1.031,2.293-1.74,3.99-1.428,3.383-3.249,8.119-5.187,13.377s-3.716,10-5.069,13.425c-.666,1.659-1.208,3.023-1.611,4.033-.172.44-.311.806-.43,1.1a1.293,1.293,0,0,0-.124.36Z" transform="translate(-143.468 -233.91)" fill="#e0e0e0"/>
      <path id="Trazado_147934" data-name="Trazado 147934" d="M125,384.88a1.844,1.844,0,0,0,.392.156l1.138.387,4.2,1.359c3.55,1.155,8.431,2.8,13.828,4.624s10.3,3.431,13.876,4.511c1.783.537,3.222.961,4.242,1.23l1.165.306a1.877,1.877,0,0,0,.413.081,1.642,1.642,0,0,0-.392-.161l-1.138-.381-4.2-1.364c-3.55-1.149-8.436-2.8-13.828-4.624s-10.3-3.431-13.876-4.511c-1.783-.537-3.222-.961-4.242-1.23l-1.149-.317A1.4,1.4,0,0,0,125,384.88Z" transform="translate(-109.604 -255.528)" fill="#e0e0e0"/>
      <path id="Trazado_147935" data-name="Trazado 147935" d="M182.33,150.02v18.349a6.014,6.014,0,0,1-6.009,6.014H110.528a6.014,6.014,0,0,1-6.009-6.014v-15.5l-8.189-8.592L176.305,144a6.009,6.009,0,0,1,6.025,6.02Z" transform="translate(-96.33 -144)" fill="#e0e0e0"/>
      <path id="Trazado_147936" data-name="Trazado 147936" d="M129.635,162.9l59.7-.274-.005-1.837-59.7.274Z" transform="translate(-111.748 -151.774)" fill="#fafafa"/>
      <path id="Trazado_147937" data-name="Trazado 147937" d="M129.635,174.14l59.7-.274-.005-1.837-59.7.279Z" transform="translate(-111.748 -156.978)" fill="#fafafa"/>
      <rect id="Rectángulo_33061" data-name="Rectángulo 33061" width="23.623" height="1.837" transform="translate(17.874 21.219) rotate(-0.28)" fill="#fafafa"/>
    </g>
    <g id="freepik--Character--inject-72" transform="translate(148.506 54.521)">
      <rect id="Rectángulo_33062" data-name="Rectángulo 33062" width="138.599" height="198.904" rx="11.55" transform="translate(0 214.355) rotate(-90)" fill="#263238"/>
      <rect id="Rectángulo_33063" data-name="Rectángulo 33063" width="129.862" height="166.11" transform="translate(13.608 209.99) rotate(-90)" fill="#fff"/>
      <circle id="Elipse_4607" data-name="Elipse 4607" cx="5.316" cy="5.316" r="5.316" transform="matrix(0.229, -0.973, 0.973, 0.229, 182.534, 149.033)" fill="#455a64"/>
      <rect id="Rectángulo_33064" data-name="Rectángulo 33064" width="41.746" height="2.196" rx="1.098" transform="translate(5.724 165.929) rotate(-90)" fill="#455a64"/>
      <circle id="Elipse_4608" data-name="Elipse 4608" cx="13.42" cy="13.42" r="13.42" transform="matrix(0.55, -0.835, 0.835, 0.55, 30.931, 152.776)" fill="#7e5ee3"/>
      <circle id="Elipse_4609" data-name="Elipse 4609" cx="13.42" cy="13.42" r="13.42" transform="matrix(0.55, -0.835, 0.835, 0.55, 30.931, 152.776)" fill="#fff" opacity="0.3"/>
      <path id="Trazado_147938" data-name="Trazado 147938" d="M279.3,336.738c.5-.043.967.537,1.031,1.257s-.306,1.359-.816,1.4-.967-.537-1.026-1.251S278.807,336.781,279.3,336.738Z" transform="translate(-234.429 -191.161)" fill="#263238"/>
      <path id="Trazado_147939" data-name="Trazado 147939" d="M295.076,336.41c-.5,0-.945.537-.977,1.3s.36,1.348.87,1.369.95-.537.977-1.294S295.586,336.431,295.076,336.41Z" transform="translate(-241.66 -191.011)" fill="#263238"/>
      <path id="Trazado_147940" data-name="Trazado 147940" d="M289.015,347.75a54.99,54.99,0,0,1-11.175,0,27.569,27.569,0,0,1,5.59-.29C286.518,347.46,289.015,347.583,289.015,347.75Z" transform="translate(-234.134 -196.127)" fill="#263238"/>
      <path id="Trazado_147941" data-name="Trazado 147941" d="M279.535,333.589c-.032.161-.671.156-1.418.274s-1.353.311-1.434.172.483-.6,1.348-.736S279.535,333.439,279.535,333.589Z" transform="translate(-233.595 -189.554)" fill="#263238"/>
      <path id="Trazado_147942" data-name="Trazado 147942" d="M297.99,334.146c-.1.129-.677-.172-1.423-.4s-1.391-.306-1.407-.473.714-.344,1.573-.075S298.092,334.033,297.99,334.146Z" transform="translate(-242.153 -189.461)" fill="#263238"/>
      <circle id="Elipse_4610" data-name="Elipse 4610" cx="13.908" cy="13.908" r="13.908" transform="translate(130.752 159.401) rotate(-80.95)" fill="#7e5ee3"/>
      <circle id="Elipse_4611" data-name="Elipse 4611" cx="13.908" cy="13.908" r="13.908" transform="translate(130.752 159.401) rotate(-80.95)" opacity="0.3"/>
      <path id="Trazado_147943" data-name="Trazado 147943" d="M459.9,334.438c.537-.043,1.01.537,1.074,1.3s-.311,1.412-.838,1.455-1.01-.537-1.074-1.3S459.375,334.481,459.9,334.438Z" transform="translate(-318.037 -190.097)" fill="#263238"/>
      <path id="Trazado_147944" data-name="Trazado 147944" d="M476.223,334.1c-.537,0-.983.58-1.015,1.342s.376,1.4.9,1.418.983-.58,1.015-1.342S476.755,334.121,476.223,334.1Z" transform="translate(-325.515 -189.941)" fill="#263238"/>
      <path id="Trazado_147945" data-name="Trazado 147945" d="M469.959,343.993a9.607,9.607,0,0,1-1.611-.848,8.984,8.984,0,0,0-4.14-1.02,10.332,10.332,0,0,0-4.151,1.074,9.158,9.158,0,0,1-1.659.795c-.048-.075.478-.537,1.471-1.149a9.017,9.017,0,0,1,4.328-1.294,8.168,8.168,0,0,1,4.35,1.241A4.157,4.157,0,0,1,469.959,343.993Z" transform="translate(-317.73 -193.39)" fill="#263238"/>
      <path id="Trazado_147946" data-name="Trazado 147946" d="M460.073,331.438c.048.059-.043.236-.274.435a2.25,2.25,0,0,1-1.074.537,2.062,2.062,0,0,1-1.208-.134c-.285-.129-.414-.279-.381-.349s.725.07,1.487-.081S459.971,331.309,460.073,331.438Z" transform="translate(-317.146 -188.696)" fill="#263238"/>
      <path id="Trazado_147947" data-name="Trazado 147947" d="M479.233,331.938c0,.07-.129.2-.44.3a2.04,2.04,0,0,1-1.246-.043,2.508,2.508,0,0,1-1.026-.682c-.2-.236-.279-.424-.226-.478s.682.354,1.434.618S479.179,331.777,479.233,331.938Z" transform="translate(-326.011 -188.52)" fill="#263238"/>
      <path id="Trazado_147948" data-name="Trazado 147948" d="M420.759,417.287l7.467-3.7,7.293,4.057L434.3,409.4l6.11-5.675-8.226-1.394-3.509-7.567-3.858,7.393-8.276,1,5.824,5.962Z" transform="translate(-270.498 -217.532)" fill="#b0c0d2"/>
      <path id="Trazado_147949" data-name="Trazado 147949" d="M396.279,417.287l7.467-3.7,7.293,4.057-1.22-8.252,6.111-5.675-8.226-1.394-3.51-7.567-3.858,7.393-8.276,1,5.824,5.962Z" transform="translate(-276.484 -217.532)" fill="#ff9d00"/>
      <path id="Trazado_147950" data-name="Trazado 147950" d="M371.8,417.287l7.467-3.7,7.28,4.057-1.207-8.252,6.111-5.675-8.226-1.394-3.51-7.567-3.858,7.393-8.276,1,5.824,5.962Z" transform="translate(-282.469 -217.532)" fill="#ff9d00"/>
      <path id="Trazado_147951" data-name="Trazado 147951" d="M347.319,417.287l7.467-3.7,7.28,4.057-1.207-8.252,6.111-5.675-8.226-1.394-3.509-7.567-3.858,7.393-8.276,1,5.824,5.962Z" transform="translate(-288.455 -217.532)" fill="#ff9d00"/>
      <path id="Trazado_147952" data-name="Trazado 147952" d="M322.839,417.287l7.467-3.7,7.28,4.057-1.207-8.252,6.11-5.675-8.226-1.394-3.51-7.567-3.858,7.393-8.276,1,5.824,5.962Z" transform="translate(-294.439 -217.532)" fill="#ff9d00"/>
      <path id="Trazado_147953" data-name="Trazado 147953" d="M380.44,265.39c0,.081-14.424.145-32.22.145S316,265.47,316,265.39s14.418-.14,32.22-.14S380.44,265.314,380.44,265.39Z" transform="translate(-251.802 -158.063)" fill="#263238"/>
      <path id="Trazado_147954" data-name="Trazado 147954" d="M379.067,258.185c0,.081-7.121.145-15.906.145s-15.911-.064-15.911-.145,7.121-.145,15.911-.145S379.067,258.1,379.067,258.185Z" transform="translate(-266.271 -154.725)" fill="#263238"/>
      <circle id="Elipse_4612" data-name="Elipse 4612" cx="18.322" cy="18.322" r="18.322" transform="matrix(0.307, -0.952, 0.952, 0.307, 76.128, 156.477)" fill="#7e5ee3"/>
      <path id="Trazado_147955" data-name="Trazado 147955" d="M368.4,326.4c.693-.054,1.321.709,1.407,1.713s-.414,1.858-1.106,1.917-1.326-.709-1.407-1.708S367.706,326.457,368.4,326.4Z" transform="translate(-275.546 -186.374)" fill="#263238"/>
      <path id="Trazado_147956" data-name="Trazado 147956" d="M389.9,326c-.693-.032-1.294.763-1.332,1.767s.489,1.842,1.181,1.869,1.294-.763,1.337-1.767S390.6,326,389.9,326Z" transform="translate(-285.4 -186.19)" fill="#263238"/>
      <path id="Trazado_147957" data-name="Trazado 147957" d="M381.615,337.141c.032.032-.118.22-.414.537a10.442,10.442,0,0,1-1.375,1.24,9.784,9.784,0,0,1-2.422,1.326,8.543,8.543,0,0,1-3.362.537,9.8,9.8,0,0,1-3.3-.763,14.1,14.1,0,0,1-2.433-1.273,7.363,7.363,0,0,1-1.949-1.611,21.157,21.157,0,0,1,2.148,1.246,17.04,17.04,0,0,0,2.411,1.133,10.268,10.268,0,0,0,3.141.682,8.635,8.635,0,0,0,3.158-.456,10.935,10.935,0,0,0,2.368-1.16c.623-.43,1.128-.789,1.455-1.074S381.588,337.114,381.615,337.141Z" transform="translate(-275.117 -191.344)" fill="#263238"/>
      <path id="Trazado_147958" data-name="Trazado 147958" d="M367.543,318.431c-.032.161-.908.1-1.949.269s-1.858.483-1.939.338.693-.725,1.853-.9S367.6,318.28,367.543,318.431Z" transform="translate(-273.863 -182.525)" fill="#263238"/>
      <path id="Trazado_147959" data-name="Trazado 147959" d="M395.041,319.125c-.1.129-.875-.333-1.917-.644s-1.939-.376-1.944-.537.961-.365,2.116,0S395.143,319.012,395.041,319.125Z" transform="translate(-286.61 -182.366)" fill="#263238"/>
      <path id="Trazado_147960" data-name="Trazado 147960" d="M365.341,334.7c.07,0,.188.177.2.537a2.094,2.094,0,0,1-.4,1.267,2.073,2.073,0,0,1-1.074.795c-.333.1-.537.048-.564,0,0-.161.677-.4,1.16-1.106S365.18,334.727,365.341,334.7Z" transform="translate(-273.799 -190.219)" fill="#263238"/>
      <path id="Trazado_147961" data-name="Trazado 147961" d="M395.843,336.557c0,.07-.14.183-.424.2a1.656,1.656,0,0,1-1.659-1.23c-.059-.279,0-.456.075-.462.161,0,.344.537.881.908S395.805,336.4,395.843,336.557Z" transform="translate(-287.793 -190.39)" fill="#263238"/>
      <path id="Trazado_147962" data-name="Trazado 147962" d="M383.463,314.99a3.226,3.226,0,0,0-.032-.371l-.07-1.074c0-.236-.027-.5-.043-.795s-.1-.607-.145-.95-.113-.714-.177-1.106a12.534,12.534,0,0,0-.3-1.246,21.726,21.726,0,0,0-2.524-6.036,22.64,22.64,0,0,0-5.762-6.444l-.983-.725c-.344-.226-.7-.435-1.074-.655a11.348,11.348,0,0,0-1.106-.639l-1.176-.564-.6-.285-.628-.226-1.278-.467c-.43-.145-.886-.236-1.332-.354a10.552,10.552,0,0,0-1.369-.311,20.941,20.941,0,0,0-2.862-.333c-.489,0-.983-.064-1.477-.054l-1.5.075a3.989,3.989,0,0,0-.757.048l-.757.118c-.5.081-1.015.14-1.52.247a22.976,22.976,0,0,0-3.018.886,23.8,23.8,0,0,0-2.953,1.294c-.478.263-.934.564-1.407.843-.231.15-.478.274-.7.44l-.666.5a25.874,25.874,0,0,0-2.567,2.18l-1.149,1.267-.29.322-.263.344-.537.693-.537.693-.456.746L341,303.8l-.226.376-.193.392-.768,1.611-.612,1.675a22.4,22.4,0,0,0,0,14.279c.209.537.413,1.117.618,1.675s.51,1.074.768,1.611l.193.4.226.376.456.746.456.746.537.7.537.693.258.344.29.317,1.149,1.267a25.827,25.827,0,0,0,2.567,2.186l.671.494c.22.172.467.3.7.446.473.279.929.58,1.407.843a25.014,25.014,0,0,0,5.971,2.18c.5.107,1.02.166,1.525.247l.752.118c.252.032.5.032.757.048l1.5.075c.494,0,.988-.038,1.477-.054a20.839,20.839,0,0,0,2.862-.333,11.514,11.514,0,0,0,1.369-.311c.451-.118.9-.215,1.337-.354l1.273-.467.628-.226.6-.285,1.176-.564a12.346,12.346,0,0,0,1.106-.639c.36-.22.725-.43,1.074-.655l.977-.73a22.645,22.645,0,0,0,5.767-6.444,21.818,21.818,0,0,0,2.518-6.063,12.456,12.456,0,0,0,.3-1.24c.064-.392.124-.763.177-1.106s.113-.661.145-.95.032-.537.043-.795c.032-.467.054-.827.07-1.074s.032-.371.032-.371v.371c0,.247-.027.612-.043,1.074a6.83,6.83,0,0,1-.032.8c-.032.263-.086.612-.129.956s-.107.72-.166,1.117a12.719,12.719,0,0,1-.285,1.246,21.553,21.553,0,0,1-2.486,6.106,22.689,22.689,0,0,1-5.778,6.508l-.988.741c-.344.231-.709.44-1.074.666a9.576,9.576,0,0,1-1.117.644l-1.181.575-.6.306-.634.231-1.283.473c-.44.15-.9.242-1.348.365a11.815,11.815,0,0,1-1.385.322,21.213,21.213,0,0,1-2.894.338c-.489,0-.988.07-1.487.064l-1.514-.075a3.959,3.959,0,0,1-.768-.048l-.763-.118c-.51-.081-1.031-.14-1.541-.247a24.668,24.668,0,0,1-3.056-.891,24.3,24.3,0,0,1-2.986-1.3c-.489-.263-.951-.569-1.428-.854a7.473,7.473,0,0,1-.709-.446l-.677-.5a25.639,25.639,0,0,1-2.6-2.2l-1.165-1.283-.3-.322-.263-.349-.537-.7-.537-.709-.462-.752-.462-.757-.231-.381-.193-.4-.779-1.611c-.209-.564-.413-1.133-.623-1.7a22.7,22.7,0,0,1,0-14.456l.623-1.7.779-1.611.2-.4.231-.381.462-.757.462-.752.537-.7.537-.7.263-.349.29-.322c.392-.424.779-.854,1.165-1.278a26.4,26.4,0,0,1,2.6-2.207l.677-.5c.226-.167.473-.3.709-.446.478-.279.945-.585,1.428-.848a24.3,24.3,0,0,1,2.986-1.3,24.667,24.667,0,0,1,3.056-.891c.51-.107,1.031-.166,1.541-.247l.763-.118c.252-.032.51-.032.763-.048l1.514-.075c.5,0,1,.043,1.493.064a21.2,21.2,0,0,1,2.894.338,13.286,13.286,0,0,1,1.385.317c.451.129.908.22,1.342.365l1.289.473.634.236.6.29,1.187.569c.4.183.746.44,1.112.65s.73.435,1.074.666l.988.741a22.688,22.688,0,0,1,5.778,6.5,21.592,21.592,0,0,1,2.492,6.09c.1.446.242.854.285,1.251s.113.768.166,1.117.1.661.129.956,0,.537.032.795c0,.473.032.832.043,1.074A2.459,2.459,0,0,1,383.463,314.99Z" transform="translate(-261.886 -170.509)" fill="#7e5ee3"/>
      <rect id="Rectángulo_33065" data-name="Rectángulo 33065" width="166.11" height="8.286" transform="translate(13.608 80.127)" fill="#e0e0e0"/>
      <path id="Trazado_147963" data-name="Trazado 147963" d="M229.835,221.182a1.122,1.122,0,1,1-1.122-1.122A1.122,1.122,0,0,1,229.835,221.182Z" transform="translate(-210.868 -137.14)" fill="#fff"/>
      <path id="Trazado_147964" data-name="Trazado 147964" d="M236.775,221.182a1.122,1.122,0,1,1-1.122-1.122A1.122,1.122,0,0,1,236.775,221.182Z" transform="translate(-214.081 -137.14)" fill="#fff"/>
      <path id="Trazado_147965" data-name="Trazado 147965" d="M243.725,221.182a1.122,1.122,0,1,1-1.122-1.122,1.122,1.122,0,0,1,1.122,1.122Z" transform="translate(-217.299 -137.14)" fill="#fff"/>
      <path id="Trazado_147966" data-name="Trazado 147966" d="M386,277.56c0,.081-28.821.145-64.37.145s-64.375-.064-64.375-.145,28.821-.14,64.375-.14S386,277.484,386,277.56Z" transform="translate(-224.6 -163.698)" fill="#e0e0e0"/>
      <path id="Trazado_147967" data-name="Trazado 147967" d="M386,283.505c0,.075-28.821.14-64.37.14s-64.375-.064-64.375-.14,28.821-.145,64.375-.145S386,283.424,386,283.505Z" transform="translate(-224.6 -166.448)" fill="#e0e0e0"/>
      <path id="Trazado_147968" data-name="Trazado 147968" d="M335.487,183.284s-1.133-2.572-1.348-3.136c-.575-1.541-4.3-11.868-3.4-13.425,4.119-7.233,7.314-12.351,15.439-12.351l14.354-.1s13.6-2.771,23.182,28.16Z" transform="translate(-258.562 -106.652)" fill="#455a64"/>
      <path id="Trazado_147969" data-name="Trazado 147969" d="M281.152,185.825l18.795-4.049,22.092-11.615.081-15.858c-3.313-.913-9.666,1.385-21.077,7.2l-16.964,8.758a10.042,10.042,0,0,0-2.927,15.573Z" transform="translate(-234.503 -106.605)" fill="#455a64"/>
      <path id="Trazado_147970" data-name="Trazado 147970" d="M350.871,263.126c-.274-.891-.086-1.466,1.214-1.026,2.868.961,5.429.644,6.052.091s.054-1.611-.881-1.53a11.313,11.313,0,0,1-3.018-.419,7.378,7.378,0,0,1-2.25-.95c-.6-.381-1.117-.741-1.573-1.074a14.809,14.809,0,0,1-3.474-3.448l-9.07,3.883,1.461,4.543a4.833,4.833,0,0,0,3.066,3.512,21.948,21.948,0,0,0,6.718.537c.757-.494,3.673,3.727,4.559,5.214s1.933,1.675,2.277.768c.231-.623-2.363-5.246-3.265-6.7a17.617,17.617,0,0,1-1.815-3.41" transform="translate(-261.928 -153.211)" fill="#b77153"/>
      <path id="Trazado_147971" data-name="Trazado 147971" d="M349.1,275.514c0,.032-.226,0-.537-.129a2.239,2.239,0,0,1-.95-.924,2.325,2.325,0,0,1-.3-1.294c.032-.344.14-.537.172-.537A3,3,0,0,0,349.1,275.5Z" transform="translate(-266.299 -161.48)" fill="#995037"/>
      <path id="Trazado_147972" data-name="Trazado 147972" d="M354.557,275.839c0,.032-.215,0-.5-.145a2.25,2.25,0,0,1-.886-.908,2.3,2.3,0,0,1-.279-1.241c.032-.328.124-.537.161-.5a4.238,4.238,0,0,0,.371,1.611,4.361,4.361,0,0,0,1.138,1.181Z" transform="translate(-268.879 -161.671)" fill="#995037"/>
      <path id="Trazado_147973" data-name="Trazado 147973" d="M282.32,202.277s28.794,33.09,28.756,32.542,12.888-10.2,12.888-10.2L295.756,191Z" transform="translate(-236.208 -123.686)" fill="#455a64"/>
      <path id="Trazado_147974" data-name="Trazado 147974" d="M314.84,199.92a2.257,2.257,0,0,1,.2.193l.537.6,1.933,2.234c1.611,1.89,3.85,4.522,6.3,7.437s4.656,5.569,6.24,7.518l1.863,2.293.5.634c.107.145.167.226.156.231a1.1,1.1,0,0,1-.2-.193l-.537-.6c-.489-.537-1.138-1.316-1.933-2.234-1.611-1.89-3.856-4.522-6.3-7.437s-4.65-5.569-6.24-7.518l-1.863-2.293c-.2-.252-.365-.462-.494-.634a1.192,1.192,0,0,1-.161-.231Z" transform="translate(-251.265 -127.816)" fill="#263238"/>
      <path id="Trazado_147975" data-name="Trazado 147975" d="M405.266,195.777a9.72,9.72,0,0,0,.344-2.148,6.342,6.342,0,0,0-1.879-4.64c-.7-.736-1.45-1.369-2.057-2.035a6.2,6.2,0,0,1-1.289-2.008,3.549,3.549,0,0,1-.236-1.611,1.482,1.482,0,0,1,.15-.575,4.038,4.038,0,0,0,.274,2.094,6.486,6.486,0,0,0,1.294,1.906c.6.639,1.353,1.262,2.067,2.014a6.578,6.578,0,0,1,1.552,2.481,6.359,6.359,0,0,1,.328,2.363,5.547,5.547,0,0,1-.306,1.579,1.9,1.9,0,0,1-.242.58Z" transform="translate(-290.757 -119.87)" fill="#263238"/>
      <path id="Trazado_147976" data-name="Trazado 147976" d="M328.98,158.643s.145-.075.419-.2a11.958,11.958,0,0,1,1.246-.451,10.742,10.742,0,0,1,2.062-.419,7.014,7.014,0,0,1,2.782.258,6.481,6.481,0,0,1,2.841,1.826,7.518,7.518,0,0,1,1.729,3.5,13.264,13.264,0,0,1,.274,4.3,9.333,9.333,0,0,1-1.611,4.3,11.814,11.814,0,0,1-3.442,3.056c-1.262.795-2.529,1.439-3.732,2.073l-6.4,3.362-4.3,2.239-1.181.6a2.292,2.292,0,0,1-.424.188,3.5,3.5,0,0,1,.4-.242l1.155-.644,4.3-2.32,6.358-3.41c1.2-.639,2.47-1.294,3.711-2.084a11.669,11.669,0,0,0,3.362-2.98,9.037,9.037,0,0,0,1.547-4.183,13.194,13.194,0,0,0-.252-4.189,7.314,7.314,0,0,0-1.611-3.378,6.234,6.234,0,0,0-2.728-1.794,6.981,6.981,0,0,0-2.685-.3,11.072,11.072,0,0,0-2.046.371c-.537.156-.972.3-1.257.4A2.2,2.2,0,0,1,328.98,158.643Z" transform="translate(-253.306 -108.191)" fill="#263238"/>
      <path id="Trazado_147977" data-name="Trazado 147977" d="M316.9,199.644a14.717,14.717,0,0,0-1.611-3.84,16.3,16.3,0,0,0-2.846-3.034,3.689,3.689,0,0,1,1.074.655,9.226,9.226,0,0,1,3.222,4.983,3.631,3.631,0,0,1,.161,1.235Z" transform="translate(-250.152 -124.505)" fill="#263238"/>
      <path id="Trazado_147978" data-name="Trazado 147978" d="M384.02,189.844a3.48,3.48,0,0,1-.612.166,6.234,6.234,0,0,1-1.815.081,6.744,6.744,0,0,1-2.728-.9,6.278,6.278,0,0,1-2.519-2.83,6.675,6.675,0,0,1-.349-4.57,3.759,3.759,0,0,1,1.52-2.105,1.885,1.885,0,0,1,1.375-.285,2.03,2.03,0,0,1,1.192.795,6.648,6.648,0,0,1,.644,5.73,6.8,6.8,0,0,1-1.611,2.685,6.213,6.213,0,0,1-2.8,1.611,6.4,6.4,0,0,1-6.014-1.439,6.277,6.277,0,0,1-1.8-5.456,5.44,5.44,0,0,1,1.074-2.524,2.733,2.733,0,0,1,1.074-.822,1.729,1.729,0,0,1,1.321,0,2.459,2.459,0,0,1,1.4,1.955,4.124,4.124,0,0,1-.435,2.191,10.5,10.5,0,0,1-2.288,3.05,10.843,10.843,0,0,1-2.347,1.659,10.122,10.122,0,0,1-1.675.7c-.193.064-.349.1-.451.124a.634.634,0,0,1-.161.032.537.537,0,0,1,.15-.059c.1-.038.252-.081.446-.156a11.274,11.274,0,0,0,1.638-.741,11.1,11.1,0,0,0,2.293-1.681,10.419,10.419,0,0,0,2.212-3.013,3.974,3.974,0,0,0,.4-2.084,2.245,2.245,0,0,0-1.273-1.761,1.493,1.493,0,0,0-1.138,0,2.465,2.465,0,0,0-.967.752,5.133,5.133,0,0,0-1.031,2.411,6.009,6.009,0,0,0,1.729,5.209,6.116,6.116,0,0,0,5.735,1.337,5.864,5.864,0,0,0,2.685-1.5,6.5,6.5,0,0,0,1.563-2.551,6.981,6.981,0,0,0,.317-2.884,5.7,5.7,0,0,0-.3-1.38,3.98,3.98,0,0,0-.6-1.219,1.793,1.793,0,0,0-1.042-.7,1.611,1.611,0,0,0-1.187.247,3.485,3.485,0,0,0-1.439,1.939,6.481,6.481,0,0,0,.3,4.42,6.1,6.1,0,0,0,2.422,2.776,6.626,6.626,0,0,0,2.658.924,7.34,7.34,0,0,0,2.427-.134Z" transform="translate(-274.961 -118.303)" fill="#fafafa"/>
      <path id="Trazado_147979" data-name="Trazado 147979" d="M402.4,135.407a6.509,6.509,0,0,1-1.283-2.551,1.708,1.708,0,0,1-.032-.929.709.709,0,0,1,.693-.537c.322,0,.537.328.714.6a13.864,13.864,0,0,1,1.321,2.513,1.9,1.9,0,0,1,.156.763.768.768,0,0,1-.371.65.8.8,0,0,1-.811-.107,2.4,2.4,0,0,1-.537-.65" transform="translate(-291.175 -96.086)" fill="#995037"/>
      <path id="Trazado_147980" data-name="Trazado 147980" d="M404.671,133.687l-1.418-2.975a2.39,2.39,0,0,1-.3-.924.806.806,0,0,1,.456-.795.8.8,0,0,1,.784.2,2.244,2.244,0,0,1,.478.7l.671,1.3a4.177,4.177,0,0,1,.44,1.106,1.428,1.428,0,0,1-.22,1.144.875.875,0,0,1-1.074.252" transform="translate(-292.062 -94.962)" fill="#995037"/>
      <path id="Trazado_147981" data-name="Trazado 147981" d="M392.537,142.127s-1.976-2.561-2.148-3.909,1.477-3.759,5.026-4.3a8.678,8.678,0,0,0,3.652-1.246,1.144,1.144,0,0,0,.413-1.385,20.073,20.073,0,0,1-1.24-3.517c.166-.725.639-.709,1.863,1.074s2.647,3.619,2.374,4.446-4.6,3.388-4.6,3.388l1.181,1.906Z" transform="translate(-286.239 -94.203)" fill="#b77153"/>
      <path id="Trazado_147982" data-name="Trazado 147982" d="M404.514,176.678,390.89,149.984l8.775-4.914,18.43,29.213s.972,1.869,2.331,4.054H404.975" transform="translate(-286.476 -102.42)" fill="#455a64"/>
      <path id="Trazado_147983" data-name="Trazado 147983" d="M399.3,145.07a1.265,1.265,0,0,1-.15.107l-.462.279-1.761,1.026-6.337,3.609.048-.161c1.326,2.685,3.05,5.826,4.785,9.226,2.583,5.021,4.833,9.623,6.39,12.974.784,1.675,1.407,3.039,1.831,3.979.2.456.36.816.478,1.074a1.952,1.952,0,0,1,.15.387,2.031,2.031,0,0,1-.2-.365c-.129-.269-.306-.623-.537-1.074l-1.912-3.942c-1.611-3.324-3.877-7.91-6.444-12.931-1.734-3.394-3.448-6.525-4.752-9.242l-.048-.107.1-.059,6.385-3.517,1.8-.972.478-.247A.628.628,0,0,1,399.3,145.07Z" transform="translate(-286.24 -102.42)" fill="#263238"/>
      <path id="Trazado_147984" data-name="Trazado 147984" d="M337.742,202.942a16.5,16.5,0,0,1-2.272-6.272c.086,0,.456,1.428,1.074,3.152S337.817,202.9,337.742,202.942Z" transform="translate(-260.816 -126.311)" fill="#263238"/>
      <path id="Trazado_147985" data-name="Trazado 147985" d="M393.8,116.106a5.37,5.37,0,0,0,6.353-8.146c3.077-.779,4.994-4.328,4.371-7.443a8.4,8.4,0,0,0-6.5-6.213,6.981,6.981,0,0,0-3.6.091,4.425,4.425,0,0,0-2.685,2.3" transform="translate(-286.869 -78.826)" fill="#263238"/>
      <path id="Trazado_147986" data-name="Trazado 147986" d="M391.578,121.962c0,.032-.4.107-1.047.446a4.623,4.623,0,0,0-2.057,2.212,4.554,4.554,0,0,0,.344,4.328,4.337,4.337,0,0,0,.859.977,4.263,4.263,0,0,0,1.149.714,4.511,4.511,0,0,0,5.2-1.187,4.377,4.377,0,0,0,.725-1.144,4.452,4.452,0,0,0,.349-1.251,4.6,4.6,0,0,0-4.382-5.155c-.736-.027-1.138.091-1.144.054a1.123,1.123,0,0,1,.29-.081,3.9,3.9,0,0,1,.854-.086,4.718,4.718,0,0,1,4.667,5.295,4.243,4.243,0,0,1-.36,1.326,4.414,4.414,0,0,1-.763,1.219,4.768,4.768,0,0,1-5.526,1.262,4.564,4.564,0,0,1-1.214-.768,4.442,4.442,0,0,1-.9-1.036,4.833,4.833,0,0,1-.746-2.406,4.7,4.7,0,0,1,2.626-4.377,3.662,3.662,0,0,1,.811-.3,1.181,1.181,0,0,1,.263-.048Z" transform="translate(-285.08 -91.641)" fill="#7e5ee3"/>
      <path id="Trazado_147987" data-name="Trazado 147987" d="M364.471,87.5a5.279,5.279,0,0,0,2.481-9.757,6.557,6.557,0,0,0-9.789-7.674,8.7,8.7,0,0,0-16.11,2.578,8.409,8.409,0,0,0-10.794,11.411,6.516,6.516,0,1,0,1.106,12.985,5.746,5.746,0,0,0,8.71,6.444,6.294,6.294,0,0,0,11.309-1.3" transform="translate(-255.643 -65.647)" fill="#263238"/>
      <path id="Trazado_147988" data-name="Trazado 147988" d="M373.009,121.754c.113-2.615.252-4.983.252-4.983s5.848-.736,6.1-6.7-.344-19.7-.344-19.7L368.278,85.2,356.7,94.522l1.815,27.387a7.271,7.271,0,0,0,7.588,6.777h0A7.26,7.26,0,0,0,373.009,121.754Z" transform="translate(-270.646 -74.7)" fill="#b77153"/>
      <path id="Trazado_147989" data-name="Trazado 147989" d="M395.182,113.069c-.1.1-.655-.365-1.455-.4s-1.4.376-1.477.269.054-.231.311-.424a1.89,1.89,0,0,1,1.187-.338,1.922,1.922,0,0,1,1.155.446C395.144,112.838,395.225,113.026,395.182,113.069Z" transform="translate(-287.095 -87.189)" fill="#263238"/>
      <path id="Trazado_147990" data-name="Trazado 147990" d="M378.66,113.069c-.1.1-.65-.365-1.455-.4s-1.391.376-1.477.269.054-.231.311-.424a1.89,1.89,0,0,1,1.187-.338,1.923,1.923,0,0,1,1.155.446C378.623,112.838,378.7,113.026,378.66,113.069Z" transform="translate(-279.444 -87.189)" fill="#263238"/>
      <path id="Trazado_147991" data-name="Trazado 147991" d="M386.584,118.873a4.779,4.779,0,0,1,1.3-.2c.2,0,.4-.054.435-.2a1.2,1.2,0,0,0-.124-.655q-.279-.806-.58-1.692a30.113,30.113,0,0,1-1.289-4.42,30.607,30.607,0,0,1,1.611,4.3l.537,1.7a1.407,1.407,0,0,1,.091.865.537.537,0,0,1-.344.306,1.176,1.176,0,0,1-.344.038,4.892,4.892,0,0,1-1.3-.043Z" transform="translate(-284.361 -86.974)" fill="#263238"/>
      <path id="Trazado_147992" data-name="Trazado 147992" d="M380.868,141.815a14.22,14.22,0,0,1-7.738-2.535s1.82,4.344,7.636,4Z" transform="translate(-278.253 -99.739)" fill="#995037"/>
      <path id="Trazado_147993" data-name="Trazado 147993" d="M370.87,85.012a7.883,7.883,0,0,0,.107,9.129,4.582,4.582,0,0,0,3.614,2.014,2.567,2.567,0,0,0,2.513-2.809,2.964,2.964,0,1,0,5.681.1,5.414,5.414,0,0,0,.671,1.826,1.81,1.81,0,0,0,1.649.87c.9-.118,1.418-1.074,1.611-1.971a8.093,8.093,0,0,0-2.282-7.454,9.784,9.784,0,0,0-7.454-2.615,12.453,12.453,0,0,0-7.319,3.222" transform="translate(-276.557 -74.179)" fill="#263238"/>
      <path id="Trazado_147994" data-name="Trazado 147994" d="M362.172,89.74a13.834,13.834,0,0,1,1.2,5.37,7.18,7.18,0,0,1-1.933,5.026,4.881,4.881,0,0,1-5.075,1.219,5.649,5.649,0,0,1-.741,4.763,3.61,3.61,0,0,1-4.42,1.16,4.838,4.838,0,0,1-2.073-3.813,12.211,12.211,0,0,1,13.28-13.624" transform="translate(-267.102 -76.802)" fill="#263238"/>
      <path id="Trazado_147995" data-name="Trazado 147995" d="M356.812,116.021a2.09,2.09,0,0,0-2.513.6,3.431,3.431,0,0,0,3.415,5.628" transform="translate(-269.12 -88.869)" fill="#b77153"/>
      <path id="Trazado_147996" data-name="Trazado 147996" d="M357.707,122c0,.032-.263.07-.677-.043a1.81,1.81,0,0,1-1.224-1.074,1.327,1.327,0,0,1,.032-.956,1.434,1.434,0,0,1,.494-.585c.371-.242.65-.236.655-.2s-.242.113-.537.365a1.176,1.176,0,0,0-.381,1.289,1.793,1.793,0,0,0,1.026.993C357.487,121.918,357.713,121.956,357.707,122Z" transform="translate(-270.198 -90.405)" fill="#995037"/>
      <path id="Trazado_147997" data-name="Trazado 147997" d="M378.693,108.634c-.075.231-.95.145-1.987.193s-1.9.177-1.992-.048.752-.768,1.96-.811S378.774,108.413,378.693,108.634Z" transform="translate(-278.983 -85.24)" fill="#263238"/>
      <path id="Trazado_147998" data-name="Trazado 147998" d="M395.44,108.089c-.091.081-.268,0-.478-.027a2.073,2.073,0,0,0-.73-.043c-.311,0-.655.086-.918.081s-.446-.059-.478-.177.086-.258.306-.408a2.336,2.336,0,0,1,1.015-.354,1.353,1.353,0,0,1,1.155.408C395.51,107.81,395.526,108.014,395.44,108.089Z" transform="translate(-287.374 -84.862)" fill="#263238"/>
      <path id="Trazado_147999" data-name="Trazado 147999" d="M383.852,127.639a1.815,1.815,0,0,1,1.509-.215,1.128,1.128,0,0,1,.746,1.235,1.2,1.2,0,0,1-.483.687,1.563,1.563,0,0,1-1.24.3,1.219,1.219,0,0,1-.929-.843,1,1,0,0,1,.489-1.117" transform="translate(-283.02 -94.214)" fill="#995037"/>
      <path id="Trazado_148000" data-name="Trazado 148000" d="M386.667,127.824a1.367,1.367,0,0,1-.575.247,2.572,2.572,0,0,1-1.514-.145,2.631,2.631,0,0,1-1.171-.972c-.215-.328-.258-.569-.226-.585s.15.188.387.467a3.1,3.1,0,0,0,1.117.827,3.055,3.055,0,0,0,1.375.209C386.425,127.846,386.651,127.782,386.667,127.824Z" transform="translate(-282.903 -93.761)" fill="#263238"/>
      <path id="Trazado_148001" data-name="Trazado 148001" d="M358.968,130.257a9.018,9.018,0,0,0-.2-1.128,4.607,4.607,0,0,0-1.7-2.492,4.521,4.521,0,0,0-1.917-.838,4.618,4.618,0,0,0-2.379.2,4.3,4.3,0,0,0-1.144.623,4.146,4.146,0,0,0-.95.961,4.5,4.5,0,0,0,0,5.332,4.146,4.146,0,0,0,.95.961,4.3,4.3,0,0,0,1.144.623,4.586,4.586,0,0,0,5.993-3.125c.188-.709.167-1.128.2-1.122a1.794,1.794,0,0,1,0,.3,3.683,3.683,0,0,1-.1.854,4.623,4.623,0,0,1-1.686,2.626,4.726,4.726,0,0,1-2,.913,4.785,4.785,0,0,1-2.513-.193,4.5,4.5,0,0,1-1.214-.65,4.44,4.44,0,0,1-1.015-1.015,4.742,4.742,0,0,1,0-5.665,4.441,4.441,0,0,1,1.015-1.015,4.5,4.5,0,0,1,1.214-.65,4.715,4.715,0,0,1,4.511.72,4.623,4.623,0,0,1,1.686,2.626,3.683,3.683,0,0,1,.1.854,1.843,1.843,0,0,1,0,.3Z" transform="translate(-267.313 -93.348)" fill="#7e5ee3"/>
      <path id="Trazado_148002" data-name="Trazado 148002" d="M386.6,84.66a.44.44,0,0,1,.15.038,1.149,1.149,0,0,1,.376.242,1.735,1.735,0,0,1,.478,1.568,2.245,2.245,0,0,1-1.858,1.643A4.666,4.666,0,0,1,382.6,87.4l-1.106-.639,1.214.4a1.316,1.316,0,0,1,.843.945,1.67,1.67,0,0,1-.172,1.283,1.788,1.788,0,0,1-1.074.773,2.54,2.54,0,0,1-1.359-.032,4.634,4.634,0,0,1-2.341-2.019l-.816-1.117.988.961a2.148,2.148,0,0,1,.537,2.03,2.2,2.2,0,0,1-1.192,1.509,2.878,2.878,0,0,1-3.056-.371,3.646,3.646,0,0,1-1.181-1.745,3.69,3.69,0,0,1-.129-.537,1.041,1.041,0,0,1,0-.193c.027,0,.059.258.231.7a3.711,3.711,0,0,0,1.176,1.611,2.717,2.717,0,0,0,2.841.3,1.971,1.971,0,0,0,1.047-1.353,1.9,1.9,0,0,0-.467-1.772l.209-.177a4.4,4.4,0,0,0,2.186,1.9,1.89,1.89,0,0,0,2.148-.612,1.285,1.285,0,0,0-.5-1.831l.107-.242a4.484,4.484,0,0,0,2.964.768,2.078,2.078,0,0,0,1.751-1.482,1.7,1.7,0,0,0-.381-1.477A2.041,2.041,0,0,0,386.6,84.66Z" transform="translate(-278.541 -74.45)" fill="#455a64"/>
      <path id="Trazado_148003" data-name="Trazado 148003" d="M356.2,94.566s0,.038-.07.1a2.476,2.476,0,0,1-.252.269,3.5,3.5,0,0,1-1.2.714,3.415,3.415,0,0,1-2.148.032,3.587,3.587,0,0,1-2.148-1.842l.226-.032a3.474,3.474,0,1,1-5.843-3.05l.188.2a3.56,3.56,0,0,1-2.255.822,3.893,3.893,0,0,1-2.121-.58,3.222,3.222,0,0,1-1.273-1.493,3.791,3.791,0,0,1-.263-1.659,3.651,3.651,0,0,1,.881-2.18,2.329,2.329,0,0,1,.655-.537,3.831,3.831,0,0,0-1.364,2.755,3.635,3.635,0,0,0,.285,1.568,3.029,3.029,0,0,0,1.2,1.369,3.646,3.646,0,0,0,1.992.537,3.356,3.356,0,0,0,2.084-.763l.183.2a3.324,3.324,0,0,0-.682,3.614,3.286,3.286,0,0,0,3.587,1.82,3.34,3.34,0,0,0,2.513-2.615l.059-.376.166.344a3.415,3.415,0,0,0,1.976,1.761,3.276,3.276,0,0,0,2.067,0,3.576,3.576,0,0,0,1.192-.634C356.1,94.685,356.2,94.556,356.2,94.566Z" transform="translate(-262.467 -74.76)" fill="#455a64"/>
      <path id="Trazado_148004" data-name="Trazado 148004" d="M340.81,114.587a1.343,1.343,0,0,1-.467.279,3.163,3.163,0,0,1-1.487.231,3.066,3.066,0,0,1-2.046-1,3.313,3.313,0,0,1-.811-2.755l.247.107a5.52,5.52,0,0,1-2.014,1.649,4.3,4.3,0,0,1-1.96.413,3.926,3.926,0,0,1-1.8-.494,3.184,3.184,0,0,1-1.713-2.54,3.039,3.039,0,0,1,.537-2.014,2.205,2.205,0,0,1,.4-.408.537.537,0,0,1,.172-.107,3.347,3.347,0,0,0-.483.58,3.029,3.029,0,0,0-.44,1.933,2.98,2.98,0,0,0,1.654,2.347,3.85,3.85,0,0,0,3.507.048,5.284,5.284,0,0,0,1.917-1.552l.349-.451-.1.537a3.1,3.1,0,0,0,.714,2.545,2.948,2.948,0,0,0,1.89.988,3.34,3.34,0,0,0,1.434-.145C340.633,114.668,340.8,114.571,340.81,114.587Z" transform="translate(-257.704 -85.233)" fill="#455a64"/>
      <path id="Trazado_148005" data-name="Trazado 148005" d="M404.377,98.65a1.853,1.853,0,0,1,.118.993,3.582,3.582,0,0,1-3.141,3.281,1.777,1.777,0,0,1-.993-.075c0-.048.381,0,.961-.124a3.689,3.689,0,0,0,2.97-3.109C404.387,99.031,404.328,98.655,404.377,98.65Z" transform="translate(-290.861 -80.927)" fill="#455a64"/>
      <path id="Trazado_148006" data-name="Trazado 148006" d="M408.166,109.12a1.026,1.026,0,0,1,.134.408,2.325,2.325,0,0,1-.113,1.176,1.836,1.836,0,0,1-1.3,1.2,1.874,1.874,0,0,1-1.074-.1,1.5,1.5,0,0,1-.854-.827l.268-.091a1.885,1.885,0,0,1,.07.537,2.148,2.148,0,0,1-1.348,1.912,1.783,1.783,0,0,1-1.074.048,2.052,2.052,0,0,1-.805-.446,1.928,1.928,0,0,1-.65-1.128,1.179,1.179,0,0,1,0-.473,1.613,1.613,0,0,0,.091.451,2.008,2.008,0,0,0,.671.993,1.675,1.675,0,0,0,1.654.306,1.9,1.9,0,0,0,1.155-1.67,1.454,1.454,0,0,0-.059-.44l.274-.091a1.455,1.455,0,0,0,1.611.773,1.654,1.654,0,0,0,1.171-1.015,2.455,2.455,0,0,0,.188-1.074C408.166,109.27,408.118,109.125,408.166,109.12Z" transform="translate(-291.342 -85.775)" fill="#455a64"/>
      <path id="Trazado_148007" data-name="Trazado 148007" d="M382.279,124c.038,0,.059.124,0,.306a1.262,1.262,0,0,1-1.074.881c-.188,0-.3-.032-.3-.07a3.343,3.343,0,0,0,.779-.435C382.054,124.365,382.2,124,382.279,124Z" transform="translate(-281.855 -92.665)" fill="#263238"/>
    </g>
    <g id="freepik--Floor--inject-72" transform="translate(92.9 268.737)">
      <path id="Trazado_148008" data-name="Trazado 148008" d="M402.362,464.7c0,.081-69.273.14-154.72.14S92.9,464.8,92.9,464.7s69.273-.14,154.742-.14S402.362,464.624,402.362,464.7Z" transform="translate(-92.9 -464.56)" fill="#263238"/>
    </g>
    <g id="freepik--Plant--inject-72" transform="translate(360.376 219.995)">
      <path id="Trazado_148009" data-name="Trazado 148009" d="M614.081,393.661c-1.343,1.912-3.947,1.278-5.155.113a9.743,9.743,0,0,1-2.186-4.479c-1.074-3.689-2.148-7.561-1.343-11.32a6.277,6.277,0,0,1,1.45-3.077,3.265,3.265,0,0,1,3.109-1.036,4.694,4.694,0,0,1,2.723,2.857,27.027,27.027,0,0,1,2.685,11.578,9.444,9.444,0,0,1-1.267,5.37" transform="translate(-597.533 -373.794)" fill="#00bcd4"/>
      <g id="Grupo_75724" data-name="Grupo 75724" transform="translate(7.583 0.057)" opacity="0.2">
        <path id="Trazado_148010" data-name="Trazado 148010" d="M614.081,393.661c-1.343,1.912-3.947,1.278-5.155.113a9.743,9.743,0,0,1-2.186-4.479c-1.074-3.689-2.148-7.561-1.343-11.32a6.277,6.277,0,0,1,1.45-3.077,3.265,3.265,0,0,1,3.109-1.036,4.694,4.694,0,0,1,2.723,2.857,27.027,27.027,0,0,1,2.685,11.578,9.444,9.444,0,0,1-1.267,5.37" transform="translate(-605.116 -373.794)"/>
      </g>
      <path id="Trazado_148011" data-name="Trazado 148011" d="M602.522,427.9a11.615,11.615,0,0,0-7.228-.881,5.907,5.907,0,0,0-3.56,1.611c-.875,1-1.074,2.712-.038,3.555a3.4,3.4,0,0,0,2.245.569c1.906,0,4.022-.354,5.542.789.87.655,1.45,1.745,2.486,2.067a2.465,2.465,0,0,0,2.685-1.2,4.2,4.2,0,0,0,.306-3.1,4.72,4.72,0,0,0-2.438-3.41Z" transform="translate(-590.995 -398.331)" fill="#00bcd4"/>
      <path id="Trazado_148012" data-name="Trazado 148012" d="M627.451,401.7a6.9,6.9,0,0,1-1.074-6.406,12.351,12.351,0,0,1,3.8-5.51,20.407,20.407,0,0,1,6.8-4.011,7.153,7.153,0,0,1,3.061-.537,3.222,3.222,0,0,1,2.561,1.552c.72,1.364.032,3.018-.709,4.371a51.868,51.868,0,0,1-4.479,6.836,12.052,12.052,0,0,1-4.914,4.21c-2.041.779-4.156.687-5.241-.725" transform="translate(-607.22 -379.087)" fill="#00bcd4"/>
      <path id="Trazado_148013" data-name="Trazado 148013" d="M613.37,449.388a4.1,4.1,0,0,1-.124-.87c-.059-.628-.14-1.428-.231-2.374a34.3,34.3,0,0,0-.537-3.48,26.983,26.983,0,0,0-1.267-4.113,15.035,15.035,0,0,0-2.1-3.716,7.835,7.835,0,0,0-2.653-2.207,7.433,7.433,0,0,0-2.234-.7,4.177,4.177,0,0,1-.865-.124,3.672,3.672,0,0,1,.881,0,6.83,6.83,0,0,1,2.331.607,7.878,7.878,0,0,1,2.8,2.229,14.877,14.877,0,0,1,2.175,3.791,25.3,25.3,0,0,1,1.257,4.178,28.81,28.81,0,0,1,.462,3.528c.075,1.01.107,1.826.118,2.39a4.1,4.1,0,0,1-.011.859Z" transform="translate(-596.72 -400.642)" fill="#263238"/>
      <path id="Trazado_148014" data-name="Trazado 148014" d="M617.832,427.325a2.145,2.145,0,0,1,0-.4v-1.155c0-1,0-2.449-.054-4.242-.086-3.582-.4-8.522-.993-13.962s-1.4-10.321-2.116-13.828c-.172-.881-.344-1.67-.537-2.363s-.285-1.294-.414-1.777-.2-.827-.268-1.122a1.393,1.393,0,0,1-.07-.4,1.99,1.99,0,0,1,.14.381l.333,1.106c.15.478.3,1.074.478,1.767s.371,1.477.537,2.357a131.285,131.285,0,0,1,2.229,13.844c.6,5.445.865,10.4.886,13.989,0,1.794,0,3.249-.059,4.253-.032.467-.054.848-.075,1.155a1.289,1.289,0,0,1-.016.4Z" transform="translate(-601.359 -380.404)" fill="#263238"/>
      <path id="Trazado_148015" data-name="Trazado 148015" d="M621.609,420.294a7.45,7.45,0,0,1,0-1.208c.048-.773.156-1.9.371-3.265a43.74,43.74,0,0,1,1.074-4.763,42.467,42.467,0,0,1,1.976-5.633,30.073,30.073,0,0,1,5.843-9.1,15.134,15.134,0,0,1,1.38-1.278c.209-.177.4-.354.585-.494l.537-.371a7.828,7.828,0,0,1,1.015-.65,37.583,37.583,0,0,0-3.324,2.97,31.533,31.533,0,0,0-5.7,9.1,49.051,49.051,0,0,0-3.131,10.294c-.263,1.353-.392,2.465-.483,3.222A7.432,7.432,0,0,1,621.609,420.294Z" transform="translate(-605.158 -382.932)" fill="#263238"/>
    </g>
    <g id="freepik--speech-bubble--inject-72" transform="translate(167.797 41.617)">
      <path id="Trazado_148016" data-name="Trazado 148016" d="M252.794,41.618a3.571,3.571,0,0,1-.376.048l-1.074.091a11.9,11.9,0,0,0-1.761.252c-.349.075-.73.107-1.117.226s-.805.236-1.24.36a20.68,20.68,0,0,0-5.907,3.013,21.067,21.067,0,0,0-5.762,6.562,22.554,22.554,0,0,0-2.733,13.071c.032.494.14.983.209,1.482a11.234,11.234,0,0,0,.3,1.487,21.013,21.013,0,0,0,2.309,5.832,20.733,20.733,0,0,0,9.9,8.791,19.2,19.2,0,0,0,6.927,1.477,18.682,18.682,0,0,0,7.2-1.138l.7-.268.091-.032.086.038,10.2,5.037-.3.263L267.2,78.494l-.038-.124.086-.091a21.63,21.63,0,0,0,5.225-8.914,22.248,22.248,0,0,0,.666-9.435,21.7,21.7,0,0,0-7.4-13.522,22.554,22.554,0,0,0-5.021-3.115,21.786,21.786,0,0,0-4.226-1.278l-1.579-.247-1.165-.07-.714-.048a1.2,1.2,0,0,1-.242-.027,1.025,1.025,0,0,1,.242,0h.714l1.176.032,1.611.22a21.324,21.324,0,0,1,4.3,1.23,22.151,22.151,0,0,1,5.107,3.1,21.749,21.749,0,0,1,4.742,5.6,22.071,22.071,0,0,1,2.841,8.055,22.553,22.553,0,0,1-.644,9.6,21.953,21.953,0,0,1-5.3,9.1l.038-.215c1.074,3.115,2.148,6.363,3.265,9.709l.166.489-.462-.226-10.2-5.032h.177l-.72.274a18.983,18.983,0,0,1-7.362,1.144,19.579,19.579,0,0,1-7.078-1.509A21.142,21.142,0,0,1,235.32,74.2a21.368,21.368,0,0,1-2.347-5.907,10.475,10.475,0,0,1-.3-1.514c-.07-.5-.183-1-.209-1.5a21.974,21.974,0,0,1-.075-2.964,22.773,22.773,0,0,1,.854-5.536,22.372,22.372,0,0,1,2.03-4.747,21.2,21.2,0,0,1,5.907-6.61,20.471,20.471,0,0,1,5.988-2.975l1.262-.344a11.143,11.143,0,0,1,1.122-.2,10.951,10.951,0,0,1,1.777-.215l1.1-.054Z" transform="translate(-232.374 -41.617)" fill="#263238"/>
      <path id="Trazado_148017" data-name="Trazado 148017" d="M268.587,70.073H267.1l-3.3-4.484-.032-2.97s-2.3-.113-1.987,3.759,0,2.894,0,2.894-4.876.075-5.279.5c-.29.311-.371,5.161-.387,7.786a2.846,2.846,0,0,0,2.084,2.873,2.239,2.239,0,0,0,.537.064c1.219,0,7.421-1.074,7.421-1.074l2.572-.032Z" transform="translate(-243.366 -51.341)" fill="#81d4fa"/>
      <path id="Trazado_148018" data-name="Trazado 148018" d="M284.268,74.89l-.8,10.176-2.545.032-.113-9.961Z" transform="translate(-254.8 -57.022)" fill="#81d4fa"/>
    </g>
  </g>
</svg>
