<svg xmlns="http://www.w3.org/2000/svg" width="86" height="86" viewBox="0 0 86 86">
  <g id="Grupo_76027" data-name="Grupo 76027" transform="translate(8490 1121)">
    <g id="Grupo_75960" data-name="Grupo 75960" transform="translate(-8784 -11843)">
      <g id="covid-test_1_" data-name="covid-test (1)" transform="translate(285 10722)">
        <circle id="Elipse_4677" data-name="Elipse 4677" cx="43" cy="43" r="43" transform="translate(9)" fill="#7e5ee3"/>
      </g>
      <g id="contract" transform="translate(308 10736)">
        <path id="Trazado_150447" data-name="Trazado 150447" d="M42.378,10.184H33.892V1.7a1.681,1.681,0,0,0-1.7-1.7H5.092A5.085,5.085,0,0,0,0,5.092v47.75a5.085,5.085,0,0,0,5.092,5.092H38.984a5.085,5.085,0,0,0,5.092-5.092V11.881A1.681,1.681,0,0,0,42.378,10.184Z" fill="#cae8f9"/>
        <path id="Trazado_150448" data-name="Trazado 150448" d="M216.59,11.881V52.842a5.085,5.085,0,0,1-5.092,5.092H194.525V0h10.184a1.681,1.681,0,0,1,1.7,1.7v8.486h8.486A1.681,1.681,0,0,1,216.59,11.881Z" transform="translate(-172.514)" fill="#b7e0f6"/>
        <path id="Trazado_150449" data-name="Trazado 150449" d="M283.1,13.578H271.222a1.7,1.7,0,0,1-1.7-1.7V0h3.7a5.1,5.1,0,0,1,3.58,1.483L281.621,6.3A5.1,5.1,0,0,1,283.1,9.879Z" transform="translate(-239.028)" fill="#cae8f9"/>
        <path id="Trazado_150450" data-name="Trazado 150450" d="M415.184,149.426a5.187,5.187,0,0,0-7.2,0l-1.731,1.765-1.222,1.188a1.64,1.64,0,0,0,0,2.376l2.41,2.41,2.41,2.41a1.641,1.641,0,0,0,2.376,0l1.222-1.188,1.731-1.765A5.061,5.061,0,0,0,415.184,149.426Z" transform="translate(-358.752 -131.231)" fill="#dee4f0"/>
        <path id="Trazado_150451" data-name="Trazado 150451" d="M275.057,304l-3.5-3.5a.127.127,0,0,0-.2,0l-.1.068a1.584,1.584,0,0,0-.408.679l-2.41,7.23a1.591,1.591,0,0,0,.407,1.731v.034a1.64,1.64,0,0,0,1.731.374l7.23-2.41a1.582,1.582,0,0,0,.679-.407l.068-.068a.127.127,0,0,0,0-.2C277.433,306.373,276.211,305.151,275.057,304Z" transform="translate(-237.974 -266.453)" fill="#fedbab"/>
        <g id="Grupo_75960-2" data-name="Grupo 75960" transform="translate(6.806 16.973)">
          <path id="Trazado_150452" data-name="Trazado 150452" d="M85.54,153.395H61.832a1.7,1.7,0,0,1,0-3.395H85.54A1.7,1.7,0,0,1,85.54,153.395Z" transform="translate(-60.152 -150)" fill="#17ace8"/>
          <path id="Trazado_150453" data-name="Trazado 150453" d="M78.751,213.395H61.832a1.7,1.7,0,0,1,0-3.395H78.751A1.7,1.7,0,0,1,78.751,213.395Z" transform="translate(-60.152 -203.211)" fill="#17ace8"/>
          <path id="Trazado_150454" data-name="Trazado 150454" d="M78.751,273.395H61.832a1.7,1.7,0,0,1,0-3.395H78.751A1.7,1.7,0,0,1,78.751,273.395Z" transform="translate(-60.152 -256.422)" fill="#17ace8"/>
          <path id="Trazado_150455" data-name="Trazado 150455" d="M78.751,333.395H61.832a1.7,1.7,0,0,1,0-3.395H78.751A1.7,1.7,0,0,1,78.751,333.395Z" transform="translate(-60.152 -309.633)" fill="#17ace8"/>
          <path id="Trazado_150456" data-name="Trazado 150456" d="M191.541,425.395H181.357a1.7,1.7,0,0,1,0-3.395h10.184A1.7,1.7,0,0,1,191.541,425.395Z" transform="translate(-166.153 -391.223)" fill="#17ace8"/>
        </g>
        <path id="Trazado_150457" data-name="Trazado 150457" d="M279.037,331.8c1.154,1.154,2.376,2.376,3.5,3.53a.127.127,0,0,1,0,.2l-.068.068a1.581,1.581,0,0,1-.679.407l-7.23,2.41a1.64,1.64,0,0,1-1.731-.374v-.034Z" transform="translate(-241.954 -294.256)" fill="#fec478"/>
        <path id="Trazado_150458" data-name="Trazado 150458" d="M438.065,168l-1.731,1.765-1.222,1.188a1.641,1.641,0,0,1-2.376,0l-2.41-2.41,7.74-7.74A5.061,5.061,0,0,1,438.065,168Z" transform="translate(-381.633 -142.604)" fill="#b0c0d2"/>
        <path id="Trazado_150459" data-name="Trazado 150459" d="M312.35,183.33l-1.222,1.188c-6.721,6.687-4.481,4.447-10.523,10.489,0,.068-2.41,2.478-2.444,2.512a1.58,1.58,0,0,1-.679.407l-6.959-6.959a1.583,1.583,0,0,1,.408-.679c.034-.034,2.444-2.444,2.512-2.444,4.413-4.413,2.24-2.206,10.489-10.523l1.188-1.222Z" transform="translate(-257.65 -156.174)" fill="#fd003a"/>
        <path id="Trazado_150460" data-name="Trazado 150460" d="M339.754,211.8l-1.222,1.188c-6.721,6.687-4.481,4.447-10.523,10.489,0,.068-2.41,2.478-2.444,2.512a1.581,1.581,0,0,1-.679.407l-3.463-3.463L336.156,208.2Z" transform="translate(-285.053 -184.642)" fill="#e50027"/>
        <g id="Grupo_75961" data-name="Grupo 75961" transform="translate(22.011 16.973)">
          <path id="Trazado_150461" data-name="Trazado 150461" d="M197.92,333.395h-3.395V330h3.395A1.7,1.7,0,0,1,197.92,333.395Z" transform="translate(-194.525 -309.633)" fill="#1689fc"/>
          <path id="Trazado_150462" data-name="Trazado 150462" d="M197.92,273.395h-3.395V270h3.395A1.7,1.7,0,0,1,197.92,273.395Z" transform="translate(-194.525 -256.422)" fill="#1689fc"/>
          <path id="Trazado_150463" data-name="Trazado 150463" d="M197.92,213.395h-3.395V210h3.395A1.7,1.7,0,0,1,197.92,213.395Z" transform="translate(-194.525 -203.211)" fill="#1689fc"/>
          <path id="Trazado_150464" data-name="Trazado 150464" d="M204.709,425.395H194.525V422h10.184A1.7,1.7,0,0,1,204.709,425.395Z" transform="translate(-194.525 -391.223)" fill="#1689fc"/>
          <path id="Trazado_150465" data-name="Trazado 150465" d="M204.709,153.395H194.525V150h10.184A1.7,1.7,0,0,1,204.709,153.395Z" transform="translate(-194.525 -150)" fill="#1689fc"/>
        </g>
      </g>
    </g>
  </g>
</svg>
