<svg xmlns="http://www.w3.org/2000/svg" width="296.569" height="254.713" viewBox="0 0 296.569 254.713">
  <g id="Mailbox-pana" transform="translate(-54.88 -79.78)">
    <g id="freepik--background-complete--inject-37" transform="translate(235.523 79.78)">
      <path id="Trazado_147843" data-name="Trazado 147843" d="M356.09,175.308,326.11,189.53l54.644,12.686L360,176.2A3.22,3.22,0,0,0,356.09,175.308Z" transform="translate(-306.468 -104.684)" fill="#e0e0e0"/>
      <path id="Trazado_147844" data-name="Trazado 147844" d="M.266,0H56.04a.273.273,0,0,1,.273.273V32.129a.657.657,0,0,1-.657.657h-55A.657.657,0,0,1,0,32.129V.273A.273.273,0,0,1,.266,0Z" transform="translate(19.643 84.851) rotate(13.07)" fill="#e0e0e0"/>
      <path id="Trazado_147845" data-name="Trazado 147845" d="M378.227,202.1l-25.646,8.625L330,191.979l3.98-15a3.057,3.057,0,0,1,3.692-2.215l41.544,9.637a3.072,3.072,0,0,1,2.289,3.692Z" transform="translate(-307.485 -104.6)" fill="#fff"/>
      <path id="Trazado_147846" data-name="Trazado 147846" d="M347.484,220l-30.7,10.707h0a2.5,2.5,0,0,0,1.876,3.005l50.014,11.608a2.5,2.5,0,0,0,3.005-1.876l.044-.185L350.26,220.7A2.644,2.644,0,0,0,347.484,220Z" transform="translate(-304.012 -116.421)" fill="#e0e0e0"/>
      <rect id="Rectángulo_33055" data-name="Rectángulo 33055" width="16.681" height="1.706" transform="matrix(0.974, 0.226, -0.226, 0.974, 30.604, 77.371)" fill="#e0e0e0"/>
      <rect id="Rectángulo_33056" data-name="Rectángulo 33056" width="37.018" height="1.927" transform="matrix(0.974, 0.226, -0.226, 0.974, 29.632, 81.584)" fill="#f5f5f5"/>
      <rect id="Rectángulo_33057" data-name="Rectángulo 33057" width="37.018" height="1.927" transform="matrix(0.974, 0.226, -0.226, 0.974, 28.566, 86.158)" fill="#f5f5f5"/>
      <path id="Trazado_147847" data-name="Trazado 147847" d="M371.8,212.285l-1.514.495L339.837,206.1l-3.087-2.614.059-.443,35.939,8.337-.14.62Z" transform="translate(-309.251 -112.021)" fill="#f5f5f5"/>
      <path id="Trazado_147848" data-name="Trazado 147848" d="M364.083,218.2l-13.639-3.16-3.264-2.732,20.381,4.726Z" transform="translate(-311.979 -114.446)" fill="#f5f5f5"/>
      <path id="Trazado_147849" data-name="Trazado 147849" d="M346.3,220.58a6.741,6.741,0,0,1-1.145.473l-3.183,1.145c-2.688.953-6.4,2.215-10.515,3.64s-7.85,2.651-10.56,3.537l-3.2,1.034a6.646,6.646,0,0,1-1.2.325,8.125,8.125,0,0,1,1.145-.473l3.175-1.145c2.688-.953,6.4-2.215,10.515-3.64s7.842-2.651,10.552-3.537l3.212-1.026a8.445,8.445,0,0,1,1.2-.332Z" transform="translate(-303.954 -116.609)" fill="#ebebeb"/>
      <path id="Trazado_147850" data-name="Trazado 147850" d="M383.977,243.949c-.074.074-4.711-4.674-10.338-10.6s-10.161-10.788-10.08-10.862,4.711,4.667,10.338,10.6S384.058,243.875,383.977,243.949Z" transform="translate(-316.263 -117.108)" fill="#ebebeb"/>
      <path id="Trazado_147851" data-name="Trazado 147851" d="M388.334,211.24a6.091,6.091,0,0,1-.93.421c-.606.244-1.477.591-2.585,1-2.215.827-5.228,1.927-8.6,3.087s-6.461,2.149-8.7,2.836c-1.122.34-2.031.613-2.658.783a4.674,4.674,0,0,1-.99.236,5.62,5.62,0,0,1,.945-.377l2.621-.9,8.654-2.954,8.64-2.954,2.621-.886a5.376,5.376,0,0,1,.982-.3Z" transform="translate(-316.345 -114.166)" fill="#ebebeb"/>
      <path id="Trazado_147852" data-name="Trazado 147852" d="M348.814,213.8a7.24,7.24,0,0,1-.923-.738l-2.437-2.038-8.123-6.646c-3.175-2.592-6.026-4.97-8.042-6.749-1.012-.886-1.824-1.61-2.37-2.127a5.958,5.958,0,0,1-.82-.834,8.26,8.26,0,0,1,.923.738l2.437,2.038,8.123,6.646c3.175,2.592,6.026,4.977,8.042,6.749,1.012.886,1.824,1.617,2.37,2.134a6.24,6.24,0,0,1,.82.827Z" transform="translate(-306.465 -109.832)" fill="#ebebeb"/>
      <path id="Trazado_147853" data-name="Trazado 147853" d="M378.237,202.041a1.173,1.173,0,0,1,0-.214,4.1,4.1,0,0,1,.126-.613c.118-.561.288-1.344.5-2.333l1.935-8.588q.155-.687.31-1.4a9.813,9.813,0,0,0,.281-1.433,2.88,2.88,0,0,0-1.285-2.562,3.8,3.8,0,0,0-1.477-.546l-1.676-.384-3.5-.8-15.574-3.6-15.573-3.633-3.5-.82a14.73,14.73,0,0,0-1.654-.347,2.9,2.9,0,0,0-2.636,1.337,4.541,4.541,0,0,0-.517,1.41c-.266.975-.517,1.913-.738,2.813l-2.319,8.492c-.273.982-.487,1.75-.65,2.3q-.1.369-.177.6a.635.635,0,0,1-.074.2.946.946,0,0,1,.037-.214l.14-.606c.14-.554.332-1.329.583-2.319.524-2.038,1.27-4.947,2.215-8.521.236-.9.48-1.846.738-2.821a4.786,4.786,0,0,1,.546-1.477,3.2,3.2,0,0,1,1.226-1.137,3.16,3.16,0,0,1,1.691-.362,15.965,15.965,0,0,1,1.713.34l3.5.8,15.574,3.6,15.573,3.611,3.493.82,1.676.391a4.15,4.15,0,0,1,1.6.6,3.2,3.2,0,0,1,1.4,2.843,9.963,9.963,0,0,1-.3,1.477c-.111.473-.222.938-.332,1.388-.857,3.6-1.558,6.513-2.045,8.558l-.576,2.326c-.066.244-.118.443-.162.6a.8.8,0,0,1-.1.214Z" transform="translate(-307.496 -104.545)" fill="#e0e0e0"/>
      <path id="Trazado_147854" data-name="Trazado 147854" d="M299.51,89.291l51.136-9.511,7.643,34.559-53.108,8.972Z" transform="translate(-299.51 -79.78)" fill="#ebebeb"/>
      <path id="Trazado_147855" data-name="Trazado 147855" d="M350.646,79.78s0,.052-.089.148l-.288.4-1.137,1.521-4.216,5.568c-3.692,4.7-8.7,11.18-14.267,18.372l-.1.126-.148-.074-.989-.524L308.231,94.054l-6.4-3.448-1.728-.96-.443-.258a.606.606,0,0,1-.148-.1.5.5,0,0,1,.162.066l.465.222,1.765.893,6.454,3.345c5.464,2.865,12.959,6.808,21.237,11.165l1,.524-.244.052,14.318-18.306,4.349-5.494,1.2-1.477.318-.377A.621.621,0,0,1,350.646,79.78Z" transform="translate(-299.51 -79.78)" fill="#e0e0e0"/>
      <path id="Trazado_147856" data-name="Trazado 147856" d="M307.189,130.553c-.089-.059,3.2-5.272,7.34-11.645s7.584-11.5,7.672-11.438-3.2,5.272-7.347,11.645S307.278,130.612,307.189,130.553Z" transform="translate(-301.518 -87.023)" fill="#e0e0e0"/>
      <path id="Trazado_147857" data-name="Trazado 147857" d="M371.624,120.673c-.066.081-4.852-3.581-10.685-8.174s-10.508-8.4-10.449-8.5,4.852,3.581,10.685,8.182S371.683,120.592,371.624,120.673Z" transform="translate(-312.845 -86.115)" fill="#e0e0e0"/>
      <path id="Trazado_147858" data-name="Trazado 147858" d="M408.493,125.02l33.916,8.219L437.6,156.485,402.63,147.4Z" transform="translate(-326.483 -91.613)" fill="#f5f5f5"/>
      <path id="Trazado_147859" data-name="Trazado 147859" d="M444.489,133.239a2.262,2.262,0,0,1-.377.244L443,134.11l-4.12,2.215-13.75,7.384-.14.074-.1-.126-.465-.591-9.851-12.708c-1.226-1.61-2.215-2.954-2.954-3.884l-.79-1.063a2.836,2.836,0,0,1-.258-.391,1.765,1.765,0,0,1,.318.34l.849,1.026c.738.938,1.78,2.215,3.05,3.8,2.57,3.279,6.077,7.731,9.947,12.657l.465.591-.244-.052,13.8-7.259,4.18-2.149,1.137-.561A1.514,1.514,0,0,1,444.489,133.239Z" transform="translate(-328.562 -91.613)" fill="#e0e0e0"/>
      <path id="Trazado_147860" data-name="Trazado 147860" d="M402.63,151.782c-.059-.089,3.367-2.407,7.658-5.169s7.813-4.933,7.864-4.844-3.367,2.407-7.658,5.169S402.689,151.871,402.63,151.782Z" transform="translate(-326.483 -95.994)" fill="#e0e0e0"/>
      <path id="Trazado_147861" data-name="Trazado 147861" d="M447.033,161.972c-.089.052-2.038-3.493-4.349-7.909S438.57,146,438.659,146s2.045,3.493,4.357,7.909S447.114,161.928,447.033,161.972Z" transform="translate(-335.906 -97.101)" fill="#e0e0e0"/>
    </g>
    <g id="freepik--Plant--inject-37" transform="translate(268.616 235.541)">
      <path id="Trazado_147862" data-name="Trazado 147862" d="M357.968,375.587l.82.3c.532.207,1.344.48,2.422.783a28.585,28.585,0,0,0,9.681.982,38.971,38.971,0,0,0,6.971-1.122,44.21,44.21,0,0,0,7.923-2.762,48.6,48.6,0,0,0,16.157-12.347,15.087,15.087,0,0,0,2.954-4.933,7.709,7.709,0,0,0-.281-5.826,5.73,5.73,0,0,0-2.06-2.215,7.3,7.3,0,0,0-2.954-1.019,11.615,11.615,0,0,0-6.343,1.034,23.582,23.582,0,0,1-3.212,1.137,6.269,6.269,0,0,1-3.478-.089,3.692,3.692,0,0,1-2.511-2.452,4.327,4.327,0,0,1,.687-3.508,6.646,6.646,0,0,1,2.821-2.311,26.341,26.341,0,0,1,3.448-1.248,46.586,46.586,0,0,0,13.329-6.816,15.373,15.373,0,0,0,2.85-2.555,5.427,5.427,0,0,0,1.477-3.419,3.374,3.374,0,0,0-.539-1.772,4.142,4.142,0,0,0-1.381-1.292A8.662,8.662,0,0,0,403,323.084a22.41,22.41,0,0,1-4.039-.554,4.512,4.512,0,0,1-3.131-2.658,2.43,2.43,0,0,1,.258-2.134,5.361,5.361,0,0,1,1.6-1.41c1.152-.738,2.289-1.543,3.389-2.385a54.36,54.36,0,0,0,6.247-5.583,26.9,26.9,0,0,0,5.073-6.742,8.463,8.463,0,0,0,.871-4.084,6.247,6.247,0,0,0-1.6-3.81,8.3,8.3,0,0,0-7.687-2.525,13.565,13.565,0,0,0-7.178,4.15c-3.892,4.1-5.811,9.5-9,13.986a22.616,22.616,0,0,1-2.651,3.153,7.324,7.324,0,0,1-1.625,1.292,2.149,2.149,0,0,1-2.112.074,2.658,2.658,0,0,1-1.108-1.787,7.6,7.6,0,0,1,0-2.045,5.554,5.554,0,0,0-.074-1.92,3.485,3.485,0,0,0-.93-1.61,4.778,4.778,0,0,0-3.426-1.351,5.406,5.406,0,0,0-3.382,1.477,8.566,8.566,0,0,0-2.141,3.05,14.028,14.028,0,0,0-.916,3.626c-.155,1.241-.2,2.481-.244,3.692s-.081,2.474-.118,3.692q-.126,3.692-.244,7.251c-.044,1.189-.066,2.363-.126,3.552a11.527,11.527,0,0,1-.672,3.463,4.069,4.069,0,0,1-2.415,2.489,5.014,5.014,0,0,1-3.412-.222,13.58,13.58,0,0,1-5.272-3.988,14.594,14.594,0,0,1-1.758-2.717,28.841,28.841,0,0,0-1.477-2.769,4.327,4.327,0,0,0-2.215-1.876,4.024,4.024,0,0,0-2.843.2,5.789,5.789,0,0,0-2.252,1.75,6.646,6.646,0,0,0-1.152,2.562,40.158,40.158,0,0,0-.487,5.516c-.126,1.8-.185,3.567-.207,5.272a67.49,67.49,0,0,0,.583,9.644,47.339,47.339,0,0,0,1.794,8.2c.34,1.248.842,2.385,1.248,3.493.229.539.48,1.056.738,1.565s.45,1.012.738,1.477a31.012,31.012,0,0,0,5.834,7.8,10.473,10.473,0,0,0,1.086,1l.82.694.65.569-.679-.539-.827-.679a10.284,10.284,0,0,1-1.1-.982,30.808,30.808,0,0,1-5.907-7.783,16.021,16.021,0,0,1-.738-1.477c-.236-.509-.5-1.026-.738-1.573-.414-1.108-.923-2.215-1.27-3.493a47.032,47.032,0,0,1-1.824-8.233,65.53,65.53,0,0,1-.62-9.666c0-1.713.074-3.478.192-5.287a41.793,41.793,0,0,1,.48-5.568,6.941,6.941,0,0,1,1.2-2.666,6.019,6.019,0,0,1,2.356-1.839,4.3,4.3,0,0,1,3.05-.222,4.711,4.711,0,0,1,2.4,1.994,28.9,28.9,0,0,1,1.477,2.8,14.03,14.03,0,0,0,1.721,2.651,13.4,13.4,0,0,0,5.169,3.892,4.778,4.778,0,0,0,3.2.214,3.766,3.766,0,0,0,2.215-2.3c.812-2.134.635-4.541.738-6.912s.155-4.8.236-7.244c.037-1.226.074-2.459.118-3.692s.081-2.5.244-3.759a14.111,14.111,0,0,1,.93-3.692,8.862,8.862,0,0,1,2.215-3.183,5.8,5.8,0,0,1,3.611-1.543,5.125,5.125,0,0,1,3.692,1.477,3.825,3.825,0,0,1,1.026,1.78,5.759,5.759,0,0,1,.089,2.038,7.121,7.121,0,0,0,0,1.942,2.215,2.215,0,0,0,.93,1.536,1.735,1.735,0,0,0,1.743-.081,7.132,7.132,0,0,0,1.543-1.226,23.325,23.325,0,0,0,2.6-3.1,80.335,80.335,0,0,0,4.216-7.1,33.631,33.631,0,0,1,4.822-6.934,13.9,13.9,0,0,1,7.384-4.261,8.684,8.684,0,0,1,8.049,2.651,6.645,6.645,0,0,1,1.7,4.039,8.861,8.861,0,0,1-.908,4.268,26.739,26.739,0,0,1-5.169,6.845A54.426,54.426,0,0,1,401.3,314.3c-1.108.849-2.252,1.647-3.412,2.4a4.977,4.977,0,0,0-1.477,1.3,2.038,2.038,0,0,0-.221,1.809,4.157,4.157,0,0,0,2.88,2.415,21.414,21.414,0,0,0,3.973.539,9.082,9.082,0,0,1,3.9,1.108,4.556,4.556,0,0,1,1.477,1.41,3.787,3.787,0,0,1,.6,1.964,5.811,5.811,0,0,1-1.543,3.692,15.7,15.7,0,0,1-2.954,2.607,47.032,47.032,0,0,1-13.432,6.86,25.214,25.214,0,0,0-3.411,1.226,6.24,6.24,0,0,0-2.681,2.215,4,4,0,0,0-.657,3.234,3.375,3.375,0,0,0,2.3,2.215,5.907,5.907,0,0,0,3.3.081,23.026,23.026,0,0,0,3.168-1.115,12.051,12.051,0,0,1,6.506-1.049,7.768,7.768,0,0,1,3.065,1.078,5.974,5.974,0,0,1,2.164,2.333,7.99,7.99,0,0,1,.281,6.055A15.255,15.255,0,0,1,402.1,361.7a48.619,48.619,0,0,1-16.246,12.361,44.1,44.1,0,0,1-7.968,2.747,39.77,39.77,0,0,1-7,1.1,28.519,28.519,0,0,1-9.718-1.063,24.944,24.944,0,0,1-2.415-.82Z" transform="translate(-344.326 -290.715)" fill="#263238"/>
      <path id="Trazado_147863" data-name="Trazado 147863" d="M368.39,367.408a218.059,218.059,0,0,1,9.533-23.069c.945-1.994,1.883-3.973,2.813-5.907s1.839-3.862,2.858-5.693a109.488,109.488,0,0,1,6.432-10.161c2.215-3.131,4.431-6.026,6.491-8.713s4.076-5.169,5.989-7.325a86.552,86.552,0,0,1,9.777-9.563c1.241-1.034,2.215-1.809,2.9-2.319l.775-.583a1.838,1.838,0,0,1,.273-.185l-.244.222-.738.613c-.657.539-1.625,1.329-2.85,2.385a91.715,91.715,0,0,0-9.651,9.644c-1.89,2.178-3.862,4.652-5.907,7.34s-4.253,5.6-6.446,8.728a110.155,110.155,0,0,0-6.38,10.131c-1.012,1.817-1.92,3.729-2.843,5.671l-2.806,5.907a221.125,221.125,0,0,0-9.548,23.009" transform="translate(-350.62 -291.545)" fill="#263238"/>
      <path id="Trazado_147864" data-name="Trazado 147864" d="M388.257,336.977a5.167,5.167,0,0,1-.192-1.049c-.1-.672-.222-1.654-.34-2.872-.251-2.429-.48-5.789-.738-9.5s-.517-7.067-.8-9.481c-.14-1.211-.266-2.215-.362-2.865a4.185,4.185,0,0,1-.089-1.056,5.34,5.34,0,0,1,.266,1.026c.14.672.31,1.647.495,2.85.369,2.415.694,5.782.93,9.5s.436,6.978.591,9.511c.081,1.137.148,2.1.2,2.88a4.9,4.9,0,0,1,.037,1.063Z" transform="translate(-355.157 -295.798)" fill="#263238"/>
      <path id="Trazado_147865" data-name="Trazado 147865" d="M420.555,340.181a6.517,6.517,0,0,1-1.248.1c-.8.044-1.964.1-3.4.207-2.865.2-6.816.606-11.158,1.255-3.847.576-7.591,1.263-11.076,2.038-1.4.31-2.533.583-3.316.738a7.075,7.075,0,0,1-1.233.258,5.816,5.816,0,0,1,1.189-.428c.738-.236,1.89-.561,3.293-.908a119.52,119.52,0,0,1,22.286-3.3c1.44-.074,2.607-.074,3.412-.059A5.813,5.813,0,0,1,420.555,340.181Z" transform="translate(-356.042 -303.624)" fill="#263238"/>
      <path id="Trazado_147866" data-name="Trazado 147866" d="M363.923,378.367a1.549,1.549,0,0,1-.2-.384l-.487-1.152c-.421-1-1-2.459-1.676-4.276-1.366-3.633-3.094-8.706-4.925-14.333s-3.515-10.715-4.807-14.362c-.628-1.78-1.152-3.242-1.536-4.327-.162-.473-.3-.857-.414-1.181a1.668,1.668,0,0,1-.118-.421,1.418,1.418,0,0,1,.2.391l.495,1.145c.421,1,.99,2.466,1.669,4.283,1.366,3.626,3.1,8.706,4.933,14.333s4.246,11.52,5.538,15.175c.628,1.78.414,2.422.8,3.508.17.473.3.864.414,1.181A1.766,1.766,0,0,1,363.923,378.367Z" transform="translate(-345.747 -303.065)" fill="#263238"/>
      <path id="Trazado_147867" data-name="Trazado 147867" d="M410.906,376.78a1.862,1.862,0,0,1-.421.155l-1.218.354-4.49,1.263c-3.8,1.071-9.016,2.614-14.769,4.32-5.4,1.6-10.419,3.042-14.828,4.187-1.905.5-3.456.886-4.534,1.13l-1.241.273a1.61,1.61,0,0,1-.436.066,1.683,1.683,0,0,1,.421-.155l1.218-.354,4.49-1.263c3.8-1.071,9.016-2.614,14.769-4.32s11.01-3.2,14.828-4.187c1.905-.5,3.456-.886,4.527-1.13l1.241-.273A1.645,1.645,0,0,1,410.906,376.78Z" transform="translate(-350.772 -313.227)" fill="#263238"/>
    </g>
    <g id="freepik--Character--inject-37" transform="translate(54.88 101.577)">
      <path id="Trazado_147868" data-name="Trazado 147868" d="M257.685,148.518s-.428-2.053-1.145-7.99l-6.528-12.8s1.477-2.681,4.807,2.991c1.536,2.585,6.646,1.477,5.819-2.555s-6.114-5.907-9.349-1.89c0,0-2.09.214-2.333-1.418s4.475-5.664,8.492-4.49a12.184,12.184,0,0,1,4.431,2.511s-.871-13.454.221-13.572,2.607.738,3.434,15.455c0,0,.458-11.645.687-13.129s2.215-2.489,2.481,1.241c0,.414.738,11.859.738,11.859s1.307-7.569,1.477-8.174c.369-1.6,1.942-1.425,2.1.687.111,1.6.628,8.44.628,8.44l.99,21.053h.133" transform="translate(-105.642 -109.298)" fill="#ffbe9d"/>
      <path id="Trazado_147869" data-name="Trazado 147869" d="M232.347,152.775l-24.516-.635-2.437,59.326L177.659,199.3l-.044.1c-1.669-.738-3.124-1.4-3.9-1.831-15.322-8.352-25.38-9.371-41.825-3.5h0l-31.5,12.612c-6.1,2.872-21.968,5.523-27.411,30.615l-.738,3,25.21,18.084,17.287,45.561,20.676,45.606L183,347.994l24.87-31.014-21.1-40.311-13.115-45.148c9.267,6.151,26.465,14.525,47.06,10.161C243.054,236.956,232.347,152.775,232.347,152.775Z" transform="translate(-59.421 -120.504)" fill="#7e5ee3"/>
      <g id="Grupo_75722" data-name="Grupo 75722" transform="translate(55.153 149.645)" opacity="0.3">
        <path id="Trazado_147870" data-name="Trazado 147870" d="M129.57,345.268a48.265,48.265,0,0,0,12.132,5.265c2.319.694,4.977,1.2,7.037-.066s2.378-5.029.074-5.782l19.975-4.512c-2.71-7.8,1.757-16.7,8.514-21.415s14.436-6.092,22.662-6.808l9.961,30.9-33.3,45.414-27.263.79Z" transform="translate(-129.57 -311.95)"/>
      </g>
      <path id="Trazado_147871" data-name="Trazado 147871" d="M99.652,289.383s-12.487,27.322-9.6,40.939c1.6,7.621,26.532,14.126,42.423,16.068l-4.763,26.672S68.638,367.443,57.6,344.057c-6.277-13.292.081-45.783,12.036-82.557Z" transform="translate(-54.948 -149.109)" fill="#7e5ee3"/>
      <path id="Trazado_147872" data-name="Trazado 147872" d="M176.55,342.59a2.132,2.132,0,0,1-.421.229l-1.248.576c-1.085.5-2.673,1.189-4.645,2.016-3.943,1.639-9.467,3.751-15.677,5.745s-11.933,3.485-16.1,4.431c-2.082.48-3.773.842-4.947,1.063l-1.351.251a1.911,1.911,0,0,1-.473.066,2.12,2.12,0,0,1,.458-.14l1.337-.325c1.167-.266,2.843-.672,4.918-1.181,4.143-1.026,9.836-2.562,16.039-4.549s11.726-4.054,15.692-5.634c1.986-.783,3.581-1.433,4.689-1.89l1.27-.517A2.252,2.252,0,0,1,176.55,342.59Z" transform="translate(-74.971 -170.32)" fill="#fff"/>
      <path id="Trazado_147873" data-name="Trazado 147873" d="M177.837,214.81c0,.1-23.238,8.536-51.978,18.845S73.777,252.241,73.74,252.115s23.238-8.536,51.986-18.845S177.8,214.706,177.837,214.81Z" transform="translate(-59.813 -136.896)" fill="#fff"/>
      <path id="Trazado_147874" data-name="Trazado 147874" d="M100.242,300.57a.672.672,0,0,1,.059-.162l.192-.458.738-1.765c.65-1.536,1.573-3.773,2.511-6.6A50.45,50.45,0,0,0,106,281.371a34.138,34.138,0,0,0-.916-12.664,24.915,24.915,0,0,0-6.158-11.01,21.415,21.415,0,0,0-8.824-5.324,18.46,18.46,0,0,0-6.949-.738l-1.1.14c-.318.044-.576.111-.8.148l-.487.1H80.6a.4.4,0,0,0,.155-.052l.487-.133c.214-.052.48-.133.8-.192l1.1-.17a17.922,17.922,0,0,1,7.037.628,21.37,21.37,0,0,1,9,5.332,25.107,25.107,0,0,1,6.277,11.158,34.116,34.116,0,0,1,.9,12.8,49.667,49.667,0,0,1-2.363,10.242c-.975,2.828-1.935,5.051-2.629,6.572-.354.738-.635,1.344-.834,1.735l-.229.45A.452.452,0,0,1,100.242,300.57Z" transform="translate(-61.608 -146.458)" fill="#263238"/>
      <path id="Trazado_147875" data-name="Trazado 147875" d="M187.55,206.48a1.875,1.875,0,0,1,.421.185,9.427,9.427,0,0,1,1.145.672,15.61,15.61,0,0,1,3.567,3.33,24.227,24.227,0,0,1,3.5,6.336,83.212,83.212,0,0,1,2.562,8.47l4.113,15.507,1.2,4.719.31,1.285a1.876,1.876,0,0,1,.081.458,2.038,2.038,0,0,1-.155-.436c-.1-.332-.222-.738-.377-1.27l-1.322-4.682-4.216-15.507c-.812-3.028-1.558-5.907-2.525-8.448a24.752,24.752,0,0,0-3.382-6.291,16.482,16.482,0,0,0-3.434-3.375C188.1,206.8,187.528,206.51,187.55,206.48Z" transform="translate(-89.582 -134.718)" fill="#263238"/>
      <path id="Trazado_147876" data-name="Trazado 147876" d="M196.241,228l-.325.155-.982.428-3.751,1.58c-3.279,1.388-8.042,3.352-13.934,5.76-11.815,4.807-28.134,11.3-46.307,18.151s-34.706,12.782-46.765,16.984c-6.011,2.09-10.884,3.751-14.259,4.881l-3.892,1.292-1.012.325-.354.1.34-.14,1-.362,3.862-1.359,14.222-5c12-4.239,28.54-10.205,46.721-17.058s34.529-13.292,46.337-18.047l13.979-5.642,3.8-1.536,1-.391Z" transform="translate(-57.438 -140.347)" fill="#fff"/>
      <path id="Trazado_147877" data-name="Trazado 147877" d="M173.061,267.87l-.281.133-.842.362-3.256,1.351c-2.828,1.174-6.934,2.821-12.029,4.822-10.19,3.995-24.368,9.3-40.149,14.71S86.229,299.12,75.75,302.2c-5.25,1.536-9.511,2.747-12.465,3.552l-3.4.923L59,306.9a1.608,1.608,0,0,1-.3.066,1.972,1.972,0,0,1,.288-.1l.879-.266,3.382-.975c2.954-.849,7.185-2.1,12.428-3.692,10.478-3.138,24.907-7.65,40.7-13.048s29.966-10.67,40.178-14.606c5.1-1.964,9.223-3.574,12.066-4.7l3.286-1.285.857-.325Z" transform="translate(-55.879 -150.775)" fill="#fff"/>
      <path id="Trazado_147878" data-name="Trazado 147878" d="M274.031,233.25a3.241,3.241,0,0,1-.428.369l-1.292,1c-.561.436-1.255.96-2.075,1.543s-1.743,1.27-2.8,1.972c-2.09,1.44-4.637,3.072-7.525,4.785s-6.136,3.478-9.6,5.169-6.875,3.16-9.991,4.431-5.981,2.215-8.4,2.991c-1.2.4-2.311.738-3.279,1s-1.8.517-2.489.687l-1.588.406a3.46,3.46,0,0,1-.554.111,3.132,3.132,0,0,1,.532-.192l1.565-.465c.679-.2,1.477-.443,2.474-.738s2.053-.628,3.249-1.049c2.407-.8,5.243-1.831,8.359-3.064s6.483-2.725,9.954-4.431,6.7-3.463,9.6-5.169,5.442-3.3,7.547-4.711c1.063-.687,1.994-1.351,2.828-1.92s1.536-1.071,2.112-1.477l1.329-.945A2.953,2.953,0,0,1,274.031,233.25Z" transform="translate(-99.119 -141.72)" fill="#fff"/>
      <path id="Trazado_147879" data-name="Trazado 147879" d="M282.536,206.569c.037.1-6.742,2.828-15.138,6.092s-15.241,5.826-15.278,5.723,6.734-2.821,15.138-6.085S282.5,206.473,282.536,206.569Z" transform="translate(-106.472 -134.74)" fill="#fff"/>
      <path id="Trazado_147880" data-name="Trazado 147880" d="M281.834,181.688c0,.1-5.907,1.883-13.292,3.973s-13.373,3.692-13.4,3.6,5.907-1.876,13.292-3.965S281.8,181.585,281.834,181.688Z" transform="translate(-107.262 -128.232)" fill="#fff"/>
      <path id="Trazado_147881" data-name="Trazado 147881" d="M280.391,157.348c0,.1-5.738,1.477-12.863,3.02s-12.915,2.754-12.937,2.651,5.73-1.477,12.856-3.02S280.361,157.244,280.391,157.348Z" transform="translate(-107.118 -121.865)" fill="#fff"/>
      <path id="Trazado_147882" data-name="Trazado 147882" d="M193.826,295.4c0,.1-16.393,6.646-36.693,14.665s-36.8,14.414-36.833,14.318,16.386-6.646,36.693-14.673S193.789,295.3,193.826,295.4Z" transform="translate(-71.992 -157.976)" fill="#fff"/>
      <path id="Trazado_147883" data-name="Trazado 147883" d="M89.845,339.43a1.648,1.648,0,0,1-.332.162l-.989.406c-.864.34-2.119.82-3.692,1.4-3.116,1.152-7.451,2.666-12.28,4.2s-9.245,2.813-12.45,3.692c-1.6.428-2.909.738-3.81.99l-1.041.244a1.233,1.233,0,0,1-.369.059,1.344,1.344,0,0,1,.347-.133l1.026-.318,3.773-1.108c3.183-.93,7.576-2.215,12.406-3.781s9.164-3.013,12.3-4.1l3.692-1.277,1.012-.34a1.167,1.167,0,0,1,.406-.1Z" transform="translate(-54.88 -169.493)" fill="#fff"/>
      <path id="Trazado_147884" data-name="Trazado 147884" d="M101.453,364.769c.044.1-7.916,3.419-17.774,7.421s-17.892,7.17-17.929,7.074,7.916-3.426,17.781-7.429S101.416,364.666,101.453,364.769Z" transform="translate(-57.723 -176.12)" fill="#fff"/>
      <path id="Trazado_147885" data-name="Trazado 147885" d="M126.563,371.77c.081.074-4.386,5.361-9.969,11.815s-10.183,11.63-10.264,11.564,4.386-5.361,9.969-11.815S126.481,371.7,126.563,371.77Z" transform="translate(-68.337 -177.952)" fill="#fff"/>
      <path id="Trazado_147886" data-name="Trazado 147886" d="M150.835,376.87c.1.037-1.691,5.664-4,12.553s-4.268,12.487-4.364,12.45,1.691-5.656,4-12.553S150.732,376.833,150.835,376.87Z" transform="translate(-77.789 -179.286)" fill="#fff"/>
      <path id="Trazado_147887" data-name="Trazado 147887" d="M278.241,264.348c.044.1-4.2,1.853-9.481,3.921s-9.6,3.655-9.6,3.559,4.209-1.853,9.489-3.921S278.2,264.245,278.241,264.348Z" transform="translate(-108.313 -149.853)" fill="#fff"/>
      <g id="Grupo_75723" data-name="Grupo 75723" transform="translate(106.903 83.644)" opacity="0.3">
        <path id="Trazado_147888" data-name="Trazado 147888" d="M199.65,222.57c6.853,18.557,19.2,28.932,36.634,38.236a64.3,64.3,0,0,1-28.8-10.552" transform="translate(-199.65 -222.57)"/>
      </g>
      <path id="Trazado_147889" data-name="Trazado 147889" d="M191.24,396.341H322.777V340.146a19.059,19.059,0,0,0-19.059-19.066H210.306a19.066,19.066,0,0,0-19.066,19.066Z" transform="translate(-90.547 -164.693)" fill="#455a64"/>
      <path id="Trazado_147890" data-name="Trazado 147890" d="M208.293,321.08h20.9a7.724,7.724,0,0,1,7.724,7.724v66.555a.982.982,0,0,1-.982.982h-43.7a.982.982,0,0,1-.982-.982V338.13a17.05,17.05,0,0,1,17.043-17.05Z" transform="translate(-90.55 -164.693)" fill="#455a64"/>
      <path id="Trazado_147891" data-name="Trazado 147891" d="M200.684,396.341V340.065a18.985,18.985,0,0,1,18.978-18.985H206.134s-15.884,2.112-15.884,21.99.51,53.27.51,53.27Z" transform="translate(-90.289 -164.693)" fill="#263238"/>
      <rect id="Rectángulo_33058" data-name="Rectángulo 33058" width="110.359" height="6.262" transform="translate(36.006 226.301)" fill="#263238"/>
      <rect id="Rectángulo_33059" data-name="Rectángulo 33059" width="90.162" height="6.262" transform="translate(146.365 226.301)" fill="#455a64"/>
      <path id="Trazado_147892" data-name="Trazado 147892" d="M245.269,394.128a.857.857,0,0,1,0-.222V381.4c.037-7.894.1-18.741.162-30.734,0-3,.1-5.907-.089-8.743a31.427,31.427,0,0,0-1.418-7.96,18.416,18.416,0,0,0-17.316-12.708,12.817,12.817,0,0,0-1.477.037,8.941,8.941,0,0,0-1.063.1l-.65.089h-.229l.222-.052.65-.126a7.819,7.819,0,0,1,1.063-.14,10.846,10.846,0,0,1,1.477-.074,18.461,18.461,0,0,1,8.979,2.282,17.848,17.848,0,0,1,8.677,10.456,31.981,31.981,0,0,1,1.477,8.056c.185,2.836.126,5.775.1,8.773-.111,11.985-.207,22.84-.281,30.726-.052,3.914-.1,7.089-.126,9.319,0,1.078-.044,1.927-.052,2.533v.657A1.265,1.265,0,0,1,245.269,394.128Z" transform="translate(-98.905 -164.695)" fill="#263238"/>
      <path id="Trazado_147893" data-name="Trazado 147893" d="M341.853,415.5c0,.1-20.543.229-45.871.273s-45.871,0-45.871-.118,20.528-.229,45.871-.273S341.853,415.4,341.853,415.5Z" transform="translate(-105.946 -189.357)" fill="#263238"/>
      <path id="Trazado_147894" data-name="Trazado 147894" d="M342.088,424.454c0,.1-20.4.133-45.539.066S251,424.314,251.01,424.2s20.381-.133,45.539-.066S342.088,424.344,342.088,424.454Z" transform="translate(-106.181 -191.64)" fill="#263238"/>
      <path id="Trazado_147895" data-name="Trazado 147895" d="M356.767,413.591v-7.353c0-4.771-.049-11.716-.078-20.5l.147.217-78.431.136c.108-.15-.265.353.245-.353h0V413.6l-.255-.34,55.931.15,16.495.1h6.015a1.735,1.735,0,0,1-.373,0h-5.524l-16.436.1-56.108.163h-.245V385.552h0c.51-.707.147-.19.265-.353l78.431.136H357v.217c0,8.834-.069,15.82-.088,20.632v6.8A3.34,3.34,0,0,1,356.767,413.591Z" transform="translate(-127.303 -191.151)" fill="#263238"/>
      <path id="Trazado_147900" data-name="Trazado 147900" d="M339.149,296.3V285.22H318.473v44.409a8.773,8.773,0,1,0,8.5-.236V296.3Z" transform="translate(-122.7 -155.314)" fill="#81d4fa"/>
      <circle id="Elipse_4606" data-name="Elipse 4606" cx="3.382" cy="3.382" r="3.382" transform="translate(197.073 178.347)" fill="#263238"/>
      <path id="Trazado_147901" data-name="Trazado 147901" d="M144.329,209.28a3.035,3.035,0,0,1,.192.45,11.815,11.815,0,0,1,.436,1.351,16.741,16.741,0,0,1,.5,5.169,17.1,17.1,0,0,1-2.149,7.384,15.426,15.426,0,0,1-6.9,6.373,14.532,14.532,0,0,1-9.319,1.108,15.507,15.507,0,0,1-6.83-3.544A15.788,15.788,0,0,1,117,223.5a11.721,11.721,0,0,1-.62-1.27,2.038,2.038,0,0,1-.17-.465c.044,0,.288.62.923,1.661a16.393,16.393,0,0,0,3.3,3.936,15.389,15.389,0,0,0,6.727,3.4,14.274,14.274,0,0,0,9.083-1.115,15.226,15.226,0,0,0,6.764-6.2,17.124,17.124,0,0,0,2.178-7.244,17.39,17.39,0,0,0-.377-5.125C144.544,209.922,144.285,209.295,144.329,209.28Z" transform="translate(-70.922 -135.45)" fill="#263238"/>
      <path id="Trazado_147902" data-name="Trazado 147902" d="M239.41,364.033l10.08-.133-.391,34.241-9.356.369Z" transform="translate(-103.147 -175.894)" fill="#ebebeb"/>
      <path id="Trazado_147903" data-name="Trazado 147903" d="M239.86,407.247a59.914,59.914,0,0,1,4.431-5.1,58.986,58.986,0,0,1,4.756-4.844,62.6,62.6,0,0,1-4.475,5.1,61.16,61.16,0,0,1-4.711,4.844Z" transform="translate(-103.265 -184.63)" fill="#263238"/>
      <path id="Trazado_147904" data-name="Trazado 147904" d="M249.495,375.549q-2.72-2.609-5.169-5.479a72.56,72.56,0,0,1-4.9-5.73,73.549,73.549,0,0,1,5.169,5.479A74.527,74.527,0,0,1,249.495,375.549Z" transform="translate(-103.152 -176.009)" fill="#263238"/>
      <path id="Trazado_147905" data-name="Trazado 147905" d="M118.549,150.238a2.658,2.658,0,0,0,4.49,1.927c1.425-1.351.938-3.729.052-5.487s-2.112-3.537-1.853-5.479c.2-1.477,1.233-2.71,1.927-4.047a8.47,8.47,0,0,0,.185-7.562,7.141,7.141,0,0,0-6.314-3.951c-2.666.052-5.479,1.721-7.85.495-1.721-.894-2.437-2.954-3.936-4.224-2.311-1.913-5.8-1.277-8.544,0s-5.361,3.042-8.366,3.19c-2.5.118-4.911-.93-7.384-1.27a13.159,13.159,0,0,0-11.209,22.2,8.4,8.4,0,0,0,5.073,2.688" transform="translate(-57.799 -112.282)" fill="#263238"/>
      <path id="Trazado_147906" data-name="Trazado 147906" d="M124.971,210.817h0a14.946,14.946,0,0,1-18.86-9.474c-1.477-4.475-2.74-8.241-2.74-8.241s-11.889,1.817-15.61-9.474-9.6-36.412-9.6-36.412l-.362-1.521c11.342-9.784,27.47-11.416,41.537-6.284l.738,2.341,14.769,51.181a14.946,14.946,0,0,1-9.873,17.885Z" transform="translate(-60.875 -116.429)" fill="#ffbe9d"/>
      <path id="Trazado_147907" data-name="Trazado 147907" d="M90.782,172.424a1.743,1.743,0,0,0-.857-3.138,1.6,1.6,0,0,0-1.174.325,1.743,1.743,0,0,0,.849,3.153,1.6,1.6,0,0,0,1.181-.34Z" transform="translate(-63.549 -124.986)" fill="#263238"/>
      <path id="Trazado_147908" data-name="Trazado 147908" d="M85.352,170.658c.244.14,1.085-1.071,2.644-1.573s2.954-.052,3.05-.3c.059-.118-.229-.414-.842-.635a4.032,4.032,0,0,0-4.549,1.477C85.293,170.2,85.241,170.6,85.352,170.658Z" transform="translate(-62.837 -124.637)" fill="#263238"/>
      <path id="Trazado_147909" data-name="Trazado 147909" d="M111.021,164.789a1.728,1.728,0,1,0,2.437-.177A1.728,1.728,0,0,0,111.021,164.789Z" transform="translate(-69.455 -123.657)" fill="#263238"/>
      <path id="Trazado_147910" data-name="Trazado 147910" d="M108.35,165.51c.236.14,1.078-1.063,2.636-1.565s2.954-.052,3.057-.31c.059-.111-.229-.414-.842-.628a4.032,4.032,0,0,0-4.549,1.477C108.291,165.045,108.232,165.451,108.35,165.51Z" transform="translate(-68.852 -123.293)" fill="#263238"/>
      <path id="Trazado_147911" data-name="Trazado 147911" d="M103.8,181.68a8.5,8.5,0,0,0-2.688.281c-.421.089-.783.1-.893-.126a2.215,2.215,0,0,1-.081-1.27c.074-1.152.148-2.333.229-3.567.273-5.058.3-9.164.066-9.179s-.665,4.076-.945,9.134c-.059,1.233-.111,2.407-.162,3.567a2.7,2.7,0,0,0,.31,1.75,1.086,1.086,0,0,0,.886.421,2.665,2.665,0,0,0,.738-.126A8.388,8.388,0,0,0,103.8,181.68Z" transform="translate(-66.497 -124.605)" fill="#263238"/>
      <path id="Trazado_147912" data-name="Trazado 147912" d="M110.539,186.668c1.322-1.477-3.692,3.788-6.949,4.637a4.519,4.519,0,0,0,5.634.111C112.222,189.1,110.539,186.668,110.539,186.668Z" transform="translate(-67.621 -129.468)" fill="#fff"/>
      <path id="Trazado_147913" data-name="Trazado 147913" d="M112.34,209.781a27.654,27.654,0,0,0,13.447-8.861s-.916,9.26-12.553,11.815Z" transform="translate(-69.91 -133.263)" fill="#eb996e"/>
      <path id="Trazado_147914" data-name="Trazado 147914" d="M137.27,153.859c.229-.162,8.248-3.308,9.91,6.683s-8.979,8.352-9.046,8.071S137.27,153.859,137.27,153.859Z" transform="translate(-76.431 -120.798)" fill="#ffbe9d"/>
      <path id="Trazado_147915" data-name="Trazado 147915" d="M141.64,165.7c0-.044.192.089.51.177a1.787,1.787,0,0,0,1.307-.192c.989-.561,1.6-2.385,1.351-4.187a5.907,5.907,0,0,0-.9-2.415,2.045,2.045,0,0,0-1.536-1.115.894.894,0,0,0-.945.65.842.842,0,0,0,0,.51c0,.022-.244-.126-.236-.554a1.167,1.167,0,0,1,.3-.694,1.344,1.344,0,0,1,.916-.414,2.488,2.488,0,0,1,2.075,1.248,6.025,6.025,0,0,1,1,2.688c.273,2.016-.443,4.076-1.817,4.726a1.868,1.868,0,0,1-1.639,0C141.7,165.94,141.611,165.726,141.64,165.7Z" transform="translate(-77.456 -121.898)" fill="#eb996e"/>
      <path id="Trazado_147916" data-name="Trazado 147916" d="M75.745,151.531s7.835,1.41,15.566-5.59c5.066-4.593,11.534-7.96,13.388-7.2s3.862,6.749,10.205,6.882c0,0,2.843,11.7,7.347,10s-3.412-18.852-3.412-18.852l-12.708-4.66-12.989,1.13-13.188,5.324-6.424,6.853Z" transform="translate(-59.758 -115.265)" fill="#263238"/>
      <path id="Trazado_147917" data-name="Trazado 147917" d="M130.831,125a12.191,12.191,0,0,0-2.407,1.218,11.813,11.813,0,0,0-1.824,1.994A4.468,4.468,0,0,1,130.831,125Z" transform="translate(-73.64 -113.405)" fill="#263238"/>
      <path id="Trazado_147918" data-name="Trazado 147918" d="M124.155,120.61a2.954,2.954,0,0,1,.532.975,10.766,10.766,0,0,1,.738,2.585,7.51,7.51,0,0,1-.074,2.688,2.348,2.348,0,0,1-.384,1.049,15.382,15.382,0,0,0,.074-3.692C124.731,122.205,124.037,120.654,124.155,120.61Z" transform="translate(-72.997 -112.257)" fill="#263238"/>
      <path id="Trazado_147919" data-name="Trazado 147919" d="M165.26,360.011,216.4,350.5l7.643,34.559-53.108,8.965Z" transform="translate(-83.752 -172.389)" fill="#e0e0e0"/>
      <path id="Trazado_147920" data-name="Trazado 147920" d="M216.4,350.5s0,.052-.089.14l-.288.406-1.137,1.521-4.253,5.56c-3.648,4.711-8.654,11.187-14.23,18.38l-.1.126-.14-.074-1-.524-21.186-11.261-6.395-3.456-1.735-.953-.443-.258a.687.687,0,0,1-.148-.1l.162.066.465.222,1.765.916c1.558.8,3.751,1.949,6.461,3.345l21.23,11.143.99.524-.244.052,14.318-18.306,4.349-5.494c.51-.62.908-1.115,1.2-1.477.133-.148.236-.273.318-.377Z" transform="translate(-83.752 -172.389)" fill="#263238"/>
      <path id="Trazado_147921" data-name="Trazado 147921" d="M172.939,401.263c-.089-.059,3.2-5.272,7.347-11.645s7.576-11.5,7.665-11.438-3.2,5.272-7.384,11.645S173.028,401.322,172.939,401.263Z" transform="translate(-85.76 -179.629)" fill="#263238"/>
      <path id="Trazado_147922" data-name="Trazado 147922" d="M237.376,391.4c-.066.081-4.852-3.581-10.685-8.182s-10.508-8.4-10.441-8.477,4.844,3.574,10.685,8.174S237.48,391.31,237.376,391.4Z" transform="translate(-97.089 -178.729)" fill="#263238"/>
      <path id="Trazado_147923" data-name="Trazado 147923" d="M163.606,373.82s.362,6.7,3.589,6.646,14.614-6.269,15.935-4.113-2.171,5.169-2.171,5.169,4.01-.059,2.518,2.341-5.959,13.639-10.087,14.695c-5.907,1.514-19.591,2.1-19.591,2.1l4.216-23.534Z" transform="translate(-80.754 -178.489)" fill="#ffbe9d"/>
      <path id="Trazado_147924" data-name="Trazado 147924" d="M187.353,382.28a2.732,2.732,0,0,1-.428.48c-.3.288-.738.694-1.3,1.167a36.588,36.588,0,0,1-9.858,5.907c-.687.273-1.248.473-1.639.6a2.215,2.215,0,0,1-.628.155,19.611,19.611,0,0,1,2.164-1,49,49,0,0,0,9.792-5.907,18.909,18.909,0,0,1,1.9-1.4Z" transform="translate(-85.907 -180.701)" fill="#eb996e"/>
      <path id="Trazado_147925" data-name="Trazado 147925" d="M188,391.26a7.317,7.317,0,0,1-1.174,1.684,18.853,18.853,0,0,1-8.123,5.6,7.562,7.562,0,0,1-1.994.51,17.618,17.618,0,0,1,1.9-.738,22.153,22.153,0,0,0,7.982-5.523A19.867,19.867,0,0,1,188,391.26Z" transform="translate(-86.747 -183.05)" fill="#eb996e"/>
    </g>
  </g>
</svg>
