<svg xmlns="http://www.w3.org/2000/svg" width="323.886" height="245.814" viewBox="0 0 323.886 245.814">
  <g id="Call_center-pana" data-name="Call center-pana" transform="translate(-22.49 -42.85)">
    <g id="freepik--background-complete--inject-38" transform="translate(28.971 42.85)">
      <rect id="Rectángulo_33040" data-name="Rectángulo 33040" width="36.94" height="36.94" rx="6.37" transform="translate(0 139.674) rotate(-12.08)" fill="#ebebeb"/>
      <path id="Trazado_147668" data-name="Trazado 147668" d="M74.541,302.286a2.4,2.4,0,0,0-.223-.8l-.1-.252a6.545,6.545,0,0,0-2.813-2.649,14.239,14.239,0,0,0-3.375-1.3l-.147-.035a.211.211,0,0,0-.24.1l-2.291,3.92-8.409-5.391,2.291-4.237a.217.217,0,0,0,0-.17.2.2,0,0,0-.117-.129l-1.928-.926c-.316-.147-.516-.24-.645-.281a1.312,1.312,0,0,0-.188-.1l-.111-.059a2.886,2.886,0,0,0-.434-.188,5.96,5.96,0,0,0-2.3-.352,5.9,5.9,0,0,0-3.434,1.307,5.461,5.461,0,0,0-2.063,4.366,3.838,3.838,0,0,0,1.242,2.66,7.332,7.332,0,0,0,1.225.9l12.792,8.2c.158.094.316.2.475.3a12.261,12.261,0,0,0,1.172.7,7.294,7.294,0,0,0,1.916.674,6.935,6.935,0,0,0,1.389.141,6.627,6.627,0,0,0,2.7-.586,6.165,6.165,0,0,0,2.994-2.836,4.936,4.936,0,0,0,.4-.955l.053-.17a2.748,2.748,0,0,0,.182-.85l.035-.551ZM58.514,291.739l-2.4,4.237a.223.223,0,0,0,.064.293l9.259,6.071a.193.193,0,0,0,.17.029.217.217,0,0,0,.141-.1l2.385-4.037a13.126,13.126,0,0,1,2.86,1.172,5.86,5.86,0,0,1,2.438,2.256c.029.082.059.164.094.246a1.517,1.517,0,0,1,.152.551l.064.381-.041.469a2.15,2.15,0,0,1-.135.633l-.059.182a3.89,3.89,0,0,1-.34.809,5.379,5.379,0,0,1-2.572,2.414,5.924,5.924,0,0,1-3.569.369,6.769,6.769,0,0,1-1.688-.586c-.369-.187-.738-.428-1.1-.656l-.481-.3-12.821-8.139a7.322,7.322,0,0,1-1.119-.8,3.065,3.065,0,0,1-1.025-2.121,4.823,4.823,0,0,1,1.758-3.809,5.391,5.391,0,0,1,3.03-1.225h.393a5.514,5.514,0,0,1,2.238.439l.193.076c.117.076.3.176.586.328Z" transform="translate(-39.54 -144.938)" fill="#fff"/>
      <path id="Trazado_147669" data-name="Trazado 147669" d="M72.4,292.667a16.022,16.022,0,0,0,2.572-.41c.492,2.473.674,2.737.856,2.737h.07c.205-.041.369-.076-.158-2.883,2.86-.621,2.836-.785,2.8-.99h0a.252.252,0,0,0-.105-.152,8.2,8.2,0,0,0-2.848.375,8.59,8.59,0,0,0-.744-2.69.246.246,0,0,0-.328.059,8.708,8.708,0,0,0,.311,2.789c-2.631.586-2.737.762-2.778.832a.246.246,0,0,0,0,.193C72.064,292.6,72.087,292.667,72.4,292.667Z" transform="translate(-49.48 -144.6)" fill="#fff"/>
      <rect id="Rectángulo_33041" data-name="Rectángulo 33041" width="63.995" height="105.928" transform="translate(246.413 10.091)" fill="#e0e0e0"/>
      <rect id="Rectángulo_33042" data-name="Rectángulo 33042" width="63.995" height="105.928" transform="translate(244.286 10.091)" fill="#ebebeb"/>
      <rect id="Rectángulo_33043" data-name="Rectángulo 33043" width="58.546" height="101.633" transform="translate(247.011 12.241)" fill="#fafafa"/>
      <rect id="Rectángulo_33044" data-name="Rectángulo 33044" width="35.997" height="75.217" transform="translate(258.157 25.449)" fill="#ebebeb"/>
      <path id="Trazado_147670" data-name="Trazado 147670" d="M372.4,149.612c-.082-7.032,6.235-13.888,13.191-14.872,3.323-.463,6.844.193,9.962-1.078,5.538-2.268,7.3-9.622,12.862-11.8l.258,54.368H372.4Z" transform="translate(-114.243 -75.561)" fill="#e0e0e0"/>
      <rect id="Rectángulo_33045" data-name="Rectángulo 33045" width="49.223" height="51.315" transform="translate(154.514 9.891)" fill="#e0e0e0"/>
      <rect id="Rectángulo_33046" data-name="Rectángulo 33046" width="49.223" height="51.315" transform="translate(150.196 9.891)" fill="#fafafa"/>
      <path id="Trazado_147671" data-name="Trazado 147671" d="M280.7,111.044H231.44V59.7H280.7Zm-49.223,0h49.193V59.735H231.475Z" transform="translate(-81.261 -49.826)" fill="#e0e0e0"/>
      <rect id="Rectángulo_33047" data-name="Rectángulo 33047" width="35.991" height="37.515" transform="translate(156.54 16.788)" fill="#fafafa"/>
      <path id="Trazado_147672" data-name="Trazado 147672" d="M238.127,136a5.573,5.573,0,0,1-.885,1.031c-.586.586-1.383,1.43-2.291,2.344s-1.758,1.688-2.344,2.25a6.17,6.17,0,0,1-1.037.867,5.52,5.52,0,0,1,.879-1.031c.586-.586,1.389-1.43,2.3-2.344s1.758-1.693,2.344-2.256A5.472,5.472,0,0,1,238.127,136Z" transform="translate(-87.269 -81.416)" fill="#e0e0e0"/>
      <path id="Trazado_147673" data-name="Trazado 147673" d="M304.18,135.79a5.788,5.788,0,0,1,1.031.891c.586.586,1.43,1.383,2.344,2.285s1.688,1.758,2.25,2.344a6.047,6.047,0,0,1,.867,1.043,6.064,6.064,0,0,1-1.031-.885c-.586-.586-1.424-1.383-2.344-2.291s-1.694-1.758-2.256-2.344A5.6,5.6,0,0,1,304.18,135.79Z" transform="translate(-106.976 -81.329)" fill="#e0e0e0"/>
      <path id="Trazado_147674" data-name="Trazado 147674" d="M304,67.083a6.041,6.041,0,0,1,.891-1.031c.586-.586,1.383-1.43,2.285-2.344s1.758-1.688,2.344-2.25a6.048,6.048,0,0,1,1.043-.867,5.806,5.806,0,0,1-.885,1.031c-.586.586-1.383,1.43-2.291,2.344s-1.758,1.693-2.344,2.256a5.6,5.6,0,0,1-1.043.861Z" transform="translate(-106.916 -50.195)" fill="#e0e0e0"/>
      <path id="Trazado_147675" data-name="Trazado 147675" d="M238.007,67.193a6.318,6.318,0,0,1-1.031-.891c-.586-.586-1.424-1.383-2.344-2.285s-1.682-1.758-2.25-2.344a5.5,5.5,0,0,1-.861-1.043,5.925,5.925,0,0,1,1.025.885c.586.586,1.43,1.383,2.344,2.291s1.688,1.758,2.25,2.344A5.3,5.3,0,0,1,238.007,67.193Z" transform="translate(-87.263 -50.211)" fill="#e0e0e0"/>
      <path id="Trazado_147676" data-name="Trazado 147676" d="M278.546,108.862v-2.731c0-1.758,0-4.36-.035-7.618,0-6.575-.041-15.933-.07-27.143l.135.141H242.69l.158-.158v37.5l-.141-.135,25.988.07,7.3.035h2.549a.674.674,0,0,1-.158,0H276l-7.266.035-26.076.07h-.135V71.13h36.19v.141c-.029,11.245-.053,20.638-.07,27.231,0,3.27-.029,5.86-.035,7.618v2.508a.773.773,0,0,1-.059.234Z" transform="translate(-86.128 -54.558)" fill="#e0e0e0"/>
      <rect id="Rectángulo_33048" data-name="Rectángulo 33048" width="12.007" height="12.007" transform="translate(168.112 29.545)" fill="#ebebeb"/>
      <path id="Trazado_147677" data-name="Trazado 147677" d="M449.832,428.45l-1.9,19.507H437.861L435.88,428.45Z" transform="translate(-140.525 -202.494)" fill="#e0e0e0"/>
      <rect id="Rectángulo_33049" data-name="Rectángulo 33049" width="16.654" height="1.43" transform="translate(310.813 225.955) rotate(180)" fill="#ebebeb"/>
      <path id="Trazado_147678" data-name="Trazado 147678" d="M448.669,421.82l1.664,2.778H437.09l.639-2.778Z" transform="translate(-141.026 -199.75)" fill="#ebebeb"/>
      <path id="Trazado_147679" data-name="Trazado 147679" d="M449.661,439.66l-.68,6.961H437.719l-.709-6.961Z" transform="translate(-140.993 -207.136)" fill="#f5f5f5"/>
      <path id="Trazado_147680" data-name="Trazado 147680" d="M445.34,445.777a3.212,3.212,0,0,1,.522-1.723c.281-.434.621-.809.9-1.172a3.627,3.627,0,0,0,.586-1.1,2.038,2.038,0,0,0,.088-.486l.076.041a1.758,1.758,0,0,1,.738,1.172,3.275,3.275,0,0,1-.064,1.389,2.988,2.988,0,0,1-.732,1.477,2.01,2.01,0,0,1-1.758.545A1.49,1.49,0,0,1,445.34,445.777Z" transform="translate(-144.442 -207.815)" fill="#fafafa"/>
      <path id="Trazado_147681" data-name="Trazado 147681" d="M443.866,444.127a6.028,6.028,0,0,1,.357-1.828,2.01,2.01,0,0,1,1.336-1.231,1.541,1.541,0,0,1,.967.041,2.276,2.276,0,0,1-.117.492,3.814,3.814,0,0,1-.586,1.031c-.275.363-.621.738-.914,1.172a3.164,3.164,0,0,0-.516,1.436,2.789,2.789,0,0,0,0,.311,1.172,1.172,0,0,1-.387-.387A1.91,1.91,0,0,1,443.866,444.127Z" transform="translate(-143.824 -207.694)" fill="#fafafa"/>
      <path id="Trazado_147682" data-name="Trazado 147682" d="M265.708,364.4c9.094-9.1,9.048-22.982,6.481-35.013-.428-2-.586-4.172-1.858-5.778s-3.739-2.408-5.4-1.236c-1.371.973-1.717,2.836-2.3,4.424a11.96,11.96,0,0,1-3.932,5.368,4.618,4.618,0,0,1-4.1,1.119c-1.916-.656-2.549-3.024-2.895-5.034q-.967-5.625-1.928-11.245a19.081,19.081,0,0,0-1.67-5.86,6.321,6.321,0,0,0-4.688-3.516c-2.027-.193-4.172,1.324-4.225,3.364a18.494,18.494,0,0,0,.387,2.514,2.145,2.145,0,0,1-.879,2.209,2.488,2.488,0,0,1-2.373-.527,27.185,27.185,0,0,1-6.083-6.387,36.97,36.97,0,0,0-5.807-6.674,11.049,11.049,0,0,0-8.092-2.819c-2.906.352-5.655,2.672-5.86,5.625s1.94,5.543,4.149,7.512a45.261,45.261,0,0,0,10.923,7.237,3.8,3.8,0,0,1,1.858,1.4c.68,1.266-.357,2.819-1.6,3.516a23.737,23.737,0,0,1-4.594,1.359c-1.535.463-3.106,1.459-3.434,3.041-.457,2.2,1.641,4.049,3.58,5.157a39.115,39.115,0,0,0,12.54,4.541A13.085,13.085,0,0,1,238.5,340c1.377.826,2.42,2.5,1.951,4.043s-2.233,2.344-3.832,2.315a26.689,26.689,0,0,1-4.688-.9c-2.93-.551-6.475.275-7.823,2.977a6.5,6.5,0,0,0,.328,5.743,14.814,14.814,0,0,0,3.926,4.418,39.2,39.2,0,0,0,18.564,8.655c6.8,1.084,12.839.627,18.787-2.836" transform="translate(-73.939 -149.004)" fill="#f5f5f5"/>
      <path id="Trazado_147683" data-name="Trazado 147683" d="M262.964,359.086a182.992,182.992,0,0,0-10.606-18.107l-3.018-4.6c-1-1.512-1.986-3.006-3.041-4.412a89.933,89.933,0,0,0-6.522-7.706c-2.2-2.344-4.366-4.512-6.4-6.51s-4-3.821-5.86-5.409a72.8,72.8,0,0,0-9.223-6.833c-1.172-.721-2.057-1.248-2.684-1.594l-.709-.4a1.646,1.646,0,0,0-.246-.117,1.31,1.31,0,0,0,.229.152l.691.428c.586.369,1.506.92,2.643,1.652a76.969,76.969,0,0,1,9.147,6.909c1.828,1.594,3.756,3.428,5.8,5.426s4.19,4.172,6.37,6.528a92.115,92.115,0,0,1,6.487,7.7c1.049,1.4,2.027,2.883,3.024,4.395l3.018,4.606a186.921,186.921,0,0,1,10.6,18.054" transform="translate(-77.359 -150.722)" fill="#e0e0e0"/>
      <path id="Trazado_147684" data-name="Trazado 147684" d="M267.666,336.175a4.638,4.638,0,0,0,.041-.891c0-.586,0-1.406-.047-2.432-.07-2.051-.27-4.881-.5-8s-.387-5.942-.428-7.987v-2.426a3.817,3.817,0,0,0-.047-.891,4.347,4.347,0,0,0-.1.885c-.047.586-.076,1.406-.088,2.432,0,2.051.088,4.893.316,8.01s.445,5.86.586,7.987c.064.961.117,1.758.164,2.42a3.717,3.717,0,0,0,.1.891Z" transform="translate(-97.455 -154.924)" fill="#e0e0e0"/>
      <path id="Trazado_147685" data-name="Trazado 147685" d="M222.94,351.126a5.1,5.1,0,0,0,1.055-.059c.674-.059,1.647-.152,2.854-.223,2.408-.164,5.749-.281,9.434-.24s7.032.223,9.44.422c1.207.094,2.18.193,2.854.258a5.862,5.862,0,0,0,1.055.07,5.731,5.731,0,0,0-1.037-.217c-.668-.111-1.641-.252-2.848-.375-2.408-.27-5.76-.5-9.458-.539a93.326,93.326,0,0,0-9.464.352c-1.207.111-2.18.24-2.854.346A5.566,5.566,0,0,0,222.94,351.126Z" transform="translate(-82.503 -170.104)" fill="#e0e0e0"/>
      <path id="Trazado_147686" data-name="Trazado 147686" d="M296.41,372.776a1.466,1.466,0,0,0,.123-.346c.07-.275.164-.586.275-1.014.234-.879.539-2.162.9-3.756.721-3.182,1.576-7.618,2.455-12.5s1.688-9.329,2.344-12.517c.316-1.553.586-2.83.779-3.78.082-.41.152-.75.211-1.031a1.506,1.506,0,0,0,.047-.363,1.084,1.084,0,0,0-.123.346l-.275,1.014c-.234.879-.545,2.162-.9,3.756-.715,3.182-1.57,7.618-2.449,12.5s-1.693,9.323-2.344,12.511c-.322,1.553-.586,2.83-.779,3.78-.088.41-.152.75-.211,1.031a1.506,1.506,0,0,0-.047.363Z" transform="translate(-104.77 -164.827)" fill="#e0e0e0"/>
      <path id="Trazado_147687" data-name="Trazado 147687" d="M234.48,389.267a1.587,1.587,0,0,0,.363.076l1.055.158,3.891.533c3.282.457,7.805,1.137,12.81,1.893s9.54,1.395,12.833,1.758c1.647.193,2.977.334,3.9.416l1.061.082a1.4,1.4,0,0,0,.375,0,1.46,1.46,0,0,0-.363-.082l-1.061-.152-3.885-.539c-3.281-.451-7.811-1.131-12.81-1.887s-9.54-1.395-12.833-1.758c-1.647-.193-2.977-.34-3.9-.416l-1.067-.088A1.172,1.172,0,0,0,234.48,389.267Z" transform="translate(-84.09 -186.265)" fill="#e0e0e0"/>
      <rect id="Rectángulo_33050" data-name="Rectángulo 33050" width="41.523" height="43.287" transform="translate(6.933 0.025) rotate(0.13)" fill="#e0e0e0"/>
      <rect id="Rectángulo_33051" data-name="Rectángulo 33051" width="41.523" height="43.287" transform="translate(4.121 0.013) rotate(0.13)" fill="#455a64"/>
      <path id="Trazado_147688" data-name="Trazado 147688" d="M81.946,86.254,40.4,86.16l.1-43.31,41.546.094Z" transform="translate(-36.386 -42.85)" fill="#f5f5f5"/>
      <rect id="Rectángulo_33052" data-name="Rectángulo 33052" width="30.36" height="31.649" transform="translate(9.692 5.844) rotate(0.13)" fill="#fff"/>
      <path id="Trazado_147689" data-name="Trazado 147689" d="M46.075,107.19a5.228,5.228,0,0,1-.75.867c-.486.51-1.172,1.172-1.94,1.951s-1.465,1.424-1.986,1.9a4.389,4.389,0,0,1-.879.727,5.151,5.151,0,0,1,.732-.867c.486-.51,1.172-1.172,1.94-1.951s1.471-1.424,1.986-1.9a4.811,4.811,0,0,1,.9-.727Z" transform="translate(-36.436 -69.488)" fill="#e0e0e0"/>
      <path id="Trazado_147690" data-name="Trazado 147690" d="M101.78,107.18a5.15,5.15,0,0,1,.867.75c.51.486,1.172,1.172,1.951,1.934s1.418,1.471,1.893,1.986a5.414,5.414,0,0,1,.732.879,4.4,4.4,0,0,1-.867-.744c-.51-.486-1.172-1.172-1.957-1.94s-1.424-1.477-1.9-1.992a4.687,4.687,0,0,1-.721-.873Z" transform="translate(-61.798 -69.484)" fill="#e0e0e0"/>
      <path id="Trazado_147691" data-name="Trazado 147691" d="M101.76,49.244a4.788,4.788,0,0,1,.727-.873c.486-.51,1.172-1.2,1.934-1.951s1.471-1.418,1.986-1.893a4.811,4.811,0,0,1,.879-.727,4.688,4.688,0,0,1-.7.861c-.486.516-1.172,1.207-1.94,1.957s-1.471,1.424-1.992,1.9A4.688,4.688,0,0,1,101.76,49.244Z" transform="translate(-61.79 -43.243)" fill="#e0e0e0"/>
      <path id="Trazado_147692" data-name="Trazado 147692" d="M46.133,49.179a4.893,4.893,0,0,1-.867-.75c-.516-.486-1.172-1.172-1.957-1.934s-1.447-1.477-1.922-1.986a4.811,4.811,0,0,1-.727-.879,4.834,4.834,0,0,1,.867.744c.51.486,1.172,1.172,1.951,1.94s1.424,1.471,1.9,1.992A4.688,4.688,0,0,1,46.133,49.179Z" transform="translate(-36.494 -43.173)" fill="#e0e0e0"/>
      <path id="Trazado_147693" data-name="Trazado 147693" d="M80.177,84.465a.78.78,0,0,1,0-.152V52.822l.117.117-30.319-.088h0l.135-.129c-.035,11.614-.064,22.478-.094,31.643l-.111-.117,21.922.111,6.159.047h1.629l-1.57.059H49.8v-.117c0-9.165.035-20.029.053-31.643V52.57h.141l30.272.082h.117v.117c-.047,9.487-.088,17.41-.111,22.971,0,2.76-.035,4.928-.047,6.446V84.3A.276.276,0,0,1,80.177,84.465Z" transform="translate(-40.278 -46.874)" fill="#e0e0e0"/>
      <path id="Trazado_147694" data-name="Trazado 147694" d="M65.077,80.927a6.721,6.721,0,0,1-.281-8.837c.85-.961,1.969-1.67,2.754-2.684,1.7-2.2,1.682-5.678,4.043-7.155a4.312,4.312,0,0,1,5.438,1.143,5.766,5.766,0,0,1,.527,5.772c-.586,1.371-1.652,2.537-2.08,3.967s-.2,3.076-.645,4.571c-.586,1.758-2.426,2.877-4.16,3.516a7.8,7.8,0,0,1-5.584-.264" transform="translate(-45.857 -50.661)" fill="#f5f5f5"/>
      <path id="Trazado_147695" data-name="Trazado 147695" d="M72.629,69.66a5.416,5.416,0,0,1-.3.832c-.2.533-.522,1.3-.943,2.221a63.387,63.387,0,0,1-3.768,7.032,62.7,62.7,0,0,1-4.641,6.446c-.65.791-1.172,1.412-1.576,1.834a6.312,6.312,0,0,1-.621.633,4.789,4.789,0,0,1,.539-.7c.363-.439.879-1.084,1.506-1.881a73.82,73.82,0,0,0,8.356-13.442c.439-.914.791-1.658,1.025-2.18A4.962,4.962,0,0,1,72.629,69.66Z" transform="translate(-44.824 -53.95)" fill="#e0e0e0"/>
      <path id="Trazado_147696" data-name="Trazado 147696" d="M70.239,79a10.119,10.119,0,0,1,.24,1.6c.117,1,.264,2.391.41,3.967l-.205-.111.656-.381c1.518-.885,2.93-1.67,3.909-2.227A13.032,13.032,0,0,1,76.908,81a12.106,12.106,0,0,1-1.535,1.02c-.979.586-2.344,1.412-3.867,2.291l-.656.381-.182.105v-.211c-.141-1.57-.252-2.971-.322-3.973A9.909,9.909,0,0,1,70.239,79Z" transform="translate(-48.739 -57.817)" fill="#e0e0e0"/>
      <path id="Trazado_147697" data-name="Trazado 147697" d="M80.688,73.708a5.227,5.227,0,0,1-1.025.586c-.65.322-1.547.744-2.555,1.172l-.311.141-.164.076v-.176c-.152-1.014-.281-1.916-.357-2.567a4.36,4.36,0,0,1-.07-1.061,4.307,4.307,0,0,1,.252,1.031c.129.645.287,1.541.445,2.555l-.234-.076.311-.141c1-.457,1.916-.856,2.584-1.131A5.52,5.52,0,0,1,80.688,73.708Z" transform="translate(-51.207 -54.869)" fill="#e0e0e0"/>
    </g>
    <g id="freepik--Floor--inject-38" transform="translate(22.49 288.161)">
      <path id="Trazado_147698" data-name="Trazado 147698" d="M346.377,461.632c0,.088-72.53.152-161.936.152s-161.95-.064-161.95-.152,72.53-.152,161.95-.152S346.377,461.55,346.377,461.632Z" transform="translate(-22.49 -461.48)" fill="#263238"/>
    </g>
    <g id="freepik--Plant--inject-38" transform="translate(75.221 199.241)">
      <path id="Trazado_147699" data-name="Trazado 147699" d="M142.781,372.29a14.593,14.593,0,0,1,9.071-1.1,7.518,7.518,0,0,1,4.483,2c1.119,1.236,1.336,3.416.047,4.477a4.331,4.331,0,0,1-2.824.721c-2.4,0-5.063-.451-6.979.99-1.09.826-1.822,2.192-3.129,2.6a3.088,3.088,0,0,1-3.4-1.512,5.274,5.274,0,0,1-.387-3.9A5.954,5.954,0,0,1,142.781,372.29Z" transform="translate(-112.383 -335.072)" fill="#00bcd4"/>
      <path id="Trazado_147700" data-name="Trazado 147700" d="M133.208,334.748c1.688,2.408,4.969,1.611,6.493.141s2.162-3.6,2.748-5.637c1.336-4.647,2.684-9.522,1.693-14.251a7.94,7.94,0,0,0-1.822-3.879,4.143,4.143,0,0,0-3.92-1.3c-1.652.434-2.684,2.057-3.428,3.6A33.952,33.952,0,0,0,131.62,328a11.86,11.86,0,0,0,1.588,6.751" transform="translate(-109.139 -309.737)" fill="#00bcd4"/>
      <path id="Trazado_147701" data-name="Trazado 147701" d="M112.7,343.688a8.762,8.762,0,0,0,1.359-8.069,15.612,15.612,0,0,0-4.776-6.938,25.883,25.883,0,0,0-8.555-5.051,9.094,9.094,0,0,0-3.856-.639,4.043,4.043,0,0,0-3.235,1.951c-.9,1.723-.035,3.8.9,5.5a64.8,64.8,0,0,0,5.625,8.567c1.688,2.168,3.616,4.313,6.182,5.274s5.239.867,6.6-.914" transform="translate(-93.255 -315.219)" fill="#00bcd4"/>
      <path id="Trazado_147702" data-name="Trazado 147702" d="M134.1,398.8a5.42,5.42,0,0,0,.152-1.1c.076-.8.176-1.8.293-2.989a42.927,42.927,0,0,1,.645-4.395,34.642,34.642,0,0,1,1.594-5.174,19.167,19.167,0,0,1,2.643-4.688,9.815,9.815,0,0,1,3.34-2.778,9.376,9.376,0,0,1,2.819-.879,4.817,4.817,0,0,0,1.09-.158,5.439,5.439,0,0,0-1.113,0,8.586,8.586,0,0,0-2.93.768,9.827,9.827,0,0,0-3.516,2.8,18.622,18.622,0,0,0-2.737,4.776,31.383,31.383,0,0,0-1.582,5.274,36.732,36.732,0,0,0-.586,4.436c-.094,1.272-.129,2.3-.146,3.012A5.032,5.032,0,0,0,134.1,398.8Z" transform="translate(-110.147 -337.424)" fill="#263238"/>
      <path id="Trazado_147703" data-name="Trazado 147703" d="M134.324,375.64a2.151,2.151,0,0,0,0-.51c0-.381,0-.861,0-1.453,0-1.26,0-3.088.07-5.338.111-4.512.5-9.376,1.248-16.2.709-6.446,1.664-13.917,2.666-18.781.217-1.108.434-2.1.639-2.977s.363-1.629.522-2.238.252-1.043.34-1.412a2.122,2.122,0,0,0,.088-.5,2.2,2.2,0,0,0-.176.475c-.111.363-.252.826-.422,1.395s-.381,1.348-.586,2.221-.469,1.863-.7,2.965a164.545,164.545,0,0,0-2.8,17.421c-.75,6.85-1.09,13.091-1.119,17.615,0,2.256,0,4.1.076,5.35.041.586.07,1.066.094,1.453a2.063,2.063,0,0,0,.064.516Z" transform="translate(-110.161 -316.565)" fill="#263238"/>
      <path id="Trazado_147704" data-name="Trazado 147704" d="M123.153,366.2a8.644,8.644,0,0,0,0-1.518,40.611,40.611,0,0,0-.463-4.1,54.375,54.375,0,0,0-1.336-5.995,49.027,49.027,0,0,0-2.508-7.09,37.8,37.8,0,0,0-7.36-11.462,19.048,19.048,0,0,0-1.758-1.611c-.27-.223-.5-.445-.744-.621l-.668-.463a8.977,8.977,0,0,0-1.277-.82,46.085,46.085,0,0,1,4.19,3.739,39.848,39.848,0,0,1,7.172,11.415,55.627,55.627,0,0,1,2.52,7.032,59.3,59.3,0,0,1,1.424,5.936c.316,1.711.5,3.106.586,4.073a10.291,10.291,0,0,0,.223,1.488Z" transform="translate(-98.961 -319.169)" fill="#263238"/>
      <path id="Trazado_147705" data-name="Trazado 147705" d="M114.69,426.24l1.207,16.525h21.224l1.207-16.525Z" transform="translate(-102.13 -357.971)" fill="#263238"/>
      <rect id="Rectángulo_33053" data-name="Rectángulo 33053" width="28.227" height="6.51" transform="translate(10.51 61.759)" fill="#263238"/>
      <path id="Trazado_147706" data-name="Trazado 147706" d="M111.19,453.36v1.8h27.758v-1.8Z" transform="translate(-100.68 -369.199)" fill="#455a64"/>
      <path id="Trazado_147707" data-name="Trazado 147707" d="M114.751,459.622l-1.3-3.182h25.42l-1.512,3.182Z" transform="translate(-101.616 -370.474)" fill="#455a64"/>
      <path id="Trazado_147708" data-name="Trazado 147708" d="M138.176,433.841a.881.881,0,0,1-.1.152l-.316.416L136.524,436l-.059.07-.053-.076c-.773-1.072-1.811-2.514-3.035-4.2h.176c-.908,1.277-1.91,2.707-2.994,4.237l-.094.129-.105-.123-3.528-4.219h.205l-.193.246-3.176,3.979-.105.129-.094-.135-3.012-4.219h.176l-3.686,4.2-.07.076-.047-.082-1.172-1.94c-.123-.211-.217-.381-.3-.516a.68.68,0,0,1-.088-.188,1.024,1.024,0,0,1,.123.164l.328.5,1.213,1.9h-.117l3.627-4.248.094-.105.082.111,3.018,4.219h-.205l3.164-3.985.2-.246.1-.123.105.123,3.516,4.225h-.2l3.024-4.213.088-.123.088.123,2.971,4.248h-.105l1.283-1.541.346-.4C138.129,433.882,138.17,433.835,138.176,433.841Z" transform="translate(-102.37 -360.169)" fill="#e0e0e0"/>
      <path id="Trazado_147709" data-name="Trazado 147709" d="M138.752,425.965c0,.07-5.321.129-11.884.129s-11.878-.059-11.878-.129,5.315-.135,11.878-.135S138.752,425.889,138.752,425.965Z" transform="translate(-102.254 -357.801)" fill="#455a64"/>
      <path id="Trazado_147710" data-name="Trazado 147710" d="M139.153,456.655c0,.07-5.784.129-12.892.129s-12.892-.059-12.892-.129,5.778-.135,12.892-.135S139.153,456.579,139.153,456.655Z" transform="translate(-101.583 -370.507)" fill="#263238"/>
    </g>
    <g id="freepik--character-2--inject-38" transform="translate(192.258 125.742)">
      <path id="Trazado_147711" data-name="Trazado 147711" d="M412.6,234.508c-.463-1.986,1.881-8.854.369-9.007-1.928-.193-2.256,7.618-2.344,8.309s-1.078.586-.984,0c.141-.9,1.424-9.733-.522-9.751-1.078,0-1.125,1.951-1.125,1.951s-.727,8.7-1.647,8.661-.264-4.993-.17-6.833-.791-2.783-1.447-2.022c-.955,1.119-.949,5.608-1.072,7.372s-.586,6.844-2.414,4.307-4.161-3.826-5.022-3.739-1.02,1.33-.187,1.817a11.5,11.5,0,0,1,2.279,2.174,11.289,11.289,0,0,1,1.318,2.162,9.723,9.723,0,0,1,.955,3.076,6.047,6.047,0,0,0,2.684,4.178l-.105,13.941-.416,6.868,10.858,3.768-1.43-24.611c.533-4.729,2.619-10.706,3.375-13.478,1.213-4.424.645-4.612.105-4.635C414.462,228.976,413.044,236.448,412.6,234.508Z" transform="translate(-287.088 -200.766)" fill="#a36957"/>
      <path id="Trazado_147712" data-name="Trazado 147712" d="M416.882,252.079a10.307,10.307,0,0,0-1.33.223,5.209,5.209,0,0,0-2.654,1.811,5.153,5.153,0,0,0-.527.861l-.07.141-.105-.105a7.758,7.758,0,0,0-2.057-1.506c-.586-.287-.943-.4-.938-.434a3.164,3.164,0,0,1,1,.3,6.943,6.943,0,0,1,2.156,1.471l-.176.035a5,5,0,0,1,.545-.9,5.139,5.139,0,0,1,1.395-1.254,4.752,4.752,0,0,1,1.4-.586,4.284,4.284,0,0,1,1-.117A1.435,1.435,0,0,1,416.882,252.079Z" transform="translate(-292.766 -212.342)" fill="#7c3b29"/>
      <path id="Trazado_147713" data-name="Trazado 147713" d="M418.088,263.262a8.092,8.092,0,0,1-4.688.152c0-.07,1.061.094,2.344.053S418.07,263.2,418.088,263.262Z" transform="translate(-294.505 -216.991)" fill="#7c3b29"/>
      <path id="Trazado_147714" data-name="Trazado 147714" d="M309.41,194.206a8.157,8.157,0,0,1,6.68-7.331,10.547,10.547,0,0,0,2.754-.516,15.661,15.661,0,0,0,1.9-1.277,5.45,5.45,0,0,1,6.739.908c1.559,1.723,1.957-.856,5.461.9,2.93,1.459,1.617,3.867,1.617,3.867a6.247,6.247,0,0,1,6.54,4.5c.463,1.758.252,3.985,1.758,5.057.721.522,1.676.586,2.42,1.1,1.371.914,1.559,2.848,1.377,4.489s-.557,3.387.152,4.875c1.172,2.444,4.811,3.182,5.444,5.813.3,1.242-.123,2.783.82,3.651a4.4,4.4,0,0,0,1.371.674,5.707,5.707,0,0,1,.938,10.091c-.486.311-1.072.586-1.231,1.172s.275,1.225.586,1.758a5.485,5.485,0,0,1-7.272,7.647,8.6,8.6,0,0,1-4.741,4.354,5.215,5.215,0,0,1-2.983.293,6.023,6.023,0,0,1-2.145-1.119c-3.088-2.344-7.448-5.913-7.993-9.739" transform="translate(-251.452 -184.308)" fill="#263238"/>
      <path id="Trazado_147715" data-name="Trazado 147715" d="M309.195,206.82l-.135-2.742,16.372-3.645c5.069-.7,10.718,4.225,11.2,9.311.533,5.655.961,12.581.422,16.829-1.09,8.544-7.571,9.827-7.571,9.827l.229,8.438-18.793.82Z" transform="translate(-251.307 -190.957)" fill="#a36957"/>
      <path id="Trazado_147716" data-name="Trazado 147716" d="M349.311,226.243a1.09,1.09,0,0,1-1.02,1.131,1.049,1.049,0,0,1-1.172-.949,1.1,1.1,0,0,1,1.02-1.131,1.043,1.043,0,0,1,1.172.949Z" transform="translate(-267.064 -201.273)" fill="#263238"/>
      <path id="Trazado_147717" data-name="Trazado 147717" d="M350.187,221.884c-.135.146-.979-.439-2.151-.4s-2.016.65-2.145.516.064-.322.428-.586a3.012,3.012,0,0,1,1.717-.586,2.872,2.872,0,0,1,1.711.492C350.117,221.567,350.251,221.819,350.187,221.884Z" transform="translate(-266.539 -199.427)" fill="#263238"/>
      <path id="Trazado_147718" data-name="Trazado 147718" d="M330.625,227.174a1.1,1.1,0,0,1-1.014,1.137,1.043,1.043,0,0,1-1.172-.949,1.1,1.1,0,0,1,1.014-1.137,1.049,1.049,0,0,1,1.172.949Z" transform="translate(-259.33 -201.659)" fill="#263238"/>
      <path id="Trazado_147719" data-name="Trazado 147719" d="M330.517,222.87c-.129.146-.979-.439-2.151-.4s-2.016.656-2.145.516.064-.322.434-.586a3.018,3.018,0,0,1,1.711-.586,2.889,2.889,0,0,1,1.717.5C330.453,222.547,330.581,222.8,330.517,222.87Z" transform="translate(-258.395 -199.833)" fill="#263238"/>
      <path id="Trazado_147720" data-name="Trazado 147720" d="M340.7,231.346a7.571,7.571,0,0,1,1.9-.4c.3-.041.586-.111.621-.316a1.535,1.535,0,0,0-.223-.879c-.3-.715-.627-1.465-.961-2.256a39.746,39.746,0,0,1-2.174-5.9,40.323,40.323,0,0,1,2.649,5.713c.316.791.627,1.547.914,2.268a1.7,1.7,0,0,1,.193,1.172.732.732,0,0,1-.481.451,1.938,1.938,0,0,1-.5.088,7.934,7.934,0,0,1-1.934.064Z" transform="translate(-264.054 -199.743)" fill="#263238"/>
      <path id="Trazado_147721" data-name="Trazado 147721" d="M335.6,260a22.5,22.5,0,0,1-11.772-2.7s3.059,5.86,11.831,4.811Z" transform="translate(-257.422 -214.528)" fill="#7c3b29"/>
      <path id="Trazado_147722" data-name="Trazado 147722" d="M338.153,242.56a2.109,2.109,0,0,0-1.922-.727,1.928,1.928,0,0,0-1.307.756,1.219,1.219,0,0,0-.053,1.4,1.43,1.43,0,0,0,1.553.34,4.46,4.46,0,0,0,1.471-.938,1.337,1.337,0,0,0,.322-.357.4.4,0,0,0,0-.439" transform="translate(-261.912 -208.115)" fill="#7c3b29"/>
      <path id="Trazado_147723" data-name="Trazado 147723" d="M335.338,239.8c.188,0,.229,1.26,1.348,2.127s2.467.691,2.485.867c0,.082-.293.258-.867.293a3.194,3.194,0,0,1-2.063-.65,2.766,2.766,0,0,1-1.055-1.787C335.116,240.116,335.251,239.8,335.338,239.8Z" transform="translate(-262.115 -207.282)" fill="#263238"/>
      <path id="Trazado_147724" data-name="Trazado 147724" d="M330.08,215.174c-.105.328-1.277.211-2.649.422s-2.473.615-2.666.334c-.088-.135.1-.439.539-.762a4.653,4.653,0,0,1,4.049-.586C329.863,214.781,330.127,215.021,330.08,215.174Z" transform="translate(-257.8 -196.749)" fill="#263238"/>
      <path id="Trazado_147725" data-name="Trazado 147725" d="M349.5,216.044c-.2.275-1.014,0-1.987.041s-1.787.234-1.987-.041c-.088-.129.035-.4.387-.668a2.871,2.871,0,0,1,3.2,0C349.468,215.64,349.592,215.909,349.5,216.044Z" transform="translate(-266.395 -196.969)" fill="#263238"/>
      <path id="Trazado_147726" data-name="Trazado 147726" d="M337.39,198.033c-1.172,3.065-3.891,7.7-7.12,8.251a9.622,9.622,0,0,1-8.79-3.229c-.375,2.444-3,3.856-5.414,4.377a9.768,9.768,0,0,1-5.18-.1,5.145,5.145,0,0,1-3.451-3.627c-.346-1.711,1.9-6.071,3.6-6.446" transform="translate(-250.619 -189.67)" fill="#263238"/>
      <path id="Trazado_147727" data-name="Trazado 147727" d="M301.178,243.365a6.7,6.7,0,0,1-4.465,6.282,4.746,4.746,0,0,1-9.03,2.5,5.725,5.725,0,0,0-.8-1.553c-.9-.99-2.508-.668-3.809-.99-2.344-.586-3.545-3.317-3.457-5.737a6.08,6.08,0,0,0-.035-1.424,6.349,6.349,0,0,0-1.635-2.391c-2.543-3.106-1.922-7.928.416-11.192.779-1.084,1.758-2.238,1.606-3.563a7.182,7.182,0,0,0-.879-2.051,6.083,6.083,0,0,1,1.172-6.721,1.324,1.324,0,0,0,.586-1.594,7.1,7.1,0,0,1,5.438-7.987,1.676,1.676,0,0,0,.615-.188c.527-.322.492-1.072.516-1.688.076-1.629,1.108-4.729,2.262-5.86,3.211-3.164,6.7-1.025,7.964,0,0,0,3.176,11.444,2.877,13.642s-1.5,7.7-.7,10.1,2.2,7.348,1.365,9.622S301.178,243.365,301.178,243.365Z" transform="translate(-237.746 -189.787)" fill="#263238"/>
      <path id="Trazado_147728" data-name="Trazado 147728" d="M349.867,438.4s24.811,6.868,25.783,7.219c1.494.522,1.242,6-1.084,5.913-1.1-.041-19.056.668-21.324.527s-9.112-2.836-9.112-2.836Z" transform="translate(-265.826 -289.506)" fill="#81d4fa"/>
      <path id="Trazado_147729" data-name="Trazado 147729" d="M371.527,451.049a21.46,21.46,0,0,1,1.1-2.66c.8-1.365,1.828-2.186,1.758-2.285a4.2,4.2,0,0,0-2.115,2.08A4.572,4.572,0,0,0,371.527,451.049Z" transform="translate(-277.149 -292.691)" fill="#263238"/>
      <path id="Trazado_147730" data-name="Trazado 147730" d="M367.121,449.2c.123,0,.375-1.172,1.037-2.444s1.441-2.2,1.348-2.291a4.467,4.467,0,0,0-1.717,2.1A5.147,5.147,0,0,0,367.121,449.2Z" transform="translate(-275.333 -292.015)" fill="#263238"/>
      <path id="Trazado_147731" data-name="Trazado 147731" d="M362.881,447.925a17.272,17.272,0,0,1,.586-2.619c.557-1.377,1.442-2.227,1.354-2.344s-1.172.674-1.758,2.168A3.835,3.835,0,0,0,362.881,447.925Z" transform="translate(-273.52 -291.39)" fill="#263238"/>
      <path id="Trazado_147732" data-name="Trazado 147732" d="M362.368,441.929a4.436,4.436,0,0,0,.264-1.846,8.671,8.671,0,0,0-.252-2.022,7.663,7.663,0,0,0-.369-1.172,1.354,1.354,0,0,0-.4-.586.656.656,0,0,0-.85.041,1.125,1.125,0,0,0-.334.7,5.01,5.01,0,0,0-.029.656,5.4,5.4,0,0,0,.152,1.213,7.483,7.483,0,0,0,.762,1.9,4.974,4.974,0,0,0,1.119,1.488c.053-.035-.363-.615-.856-1.629a8,8,0,0,1-.65-1.84,5.493,5.493,0,0,1-.123-1.137c0-.381,0-.855.229-1.037a.24.24,0,0,1,.328-.029,1.008,1.008,0,0,1,.275.434,9.711,9.711,0,0,1,.375,1.1,10.262,10.262,0,0,1,.328,1.934C362.409,441.2,362.3,441.929,362.368,441.929Z" transform="translate(-272.561 -288.581)" fill="#263238"/>
      <path id="Trazado_147733" data-name="Trazado 147733" d="M360.186,445.351a3.516,3.516,0,0,0-1.6-.258,7.207,7.207,0,0,0-1.758.217,3.839,3.839,0,0,0-1.014.375,1.043,1.043,0,0,0-.586,1.131,1.254,1.254,0,0,0,.9.891,2.3,2.3,0,0,0,1.113,0,4.359,4.359,0,0,0,1.611-.791,4.289,4.289,0,0,0,1.172-1.137,11.65,11.65,0,0,0-1.318.9,4.384,4.384,0,0,1-1.524.656,1.952,1.952,0,0,1-.92,0,.844.844,0,0,1-.586-.586.645.645,0,0,1,.369-.691,3.8,3.8,0,0,1,.9-.352,8.584,8.584,0,0,1,1.67-.293C359.57,445.322,360.174,445.422,360.186,445.351Z" transform="translate(-270.414 -292.273)" fill="#263238"/>
      <path id="Trazado_147734" data-name="Trazado 147734" d="M377.934,452.036a12.913,12.913,0,0,1,.486-2.238,18.814,18.814,0,0,1,1.213-1.945c-.082-.1-1.078.492-1.6,1.787A2.9,2.9,0,0,0,377.934,452.036Z" transform="translate(-279.742 -293.415)" fill="#263238"/>
      <path id="Trazado_147735" data-name="Trazado 147735" d="M348.52,456.992a4.69,4.69,0,0,0,.961.451,21.115,21.115,0,0,0,2.76.856,39.59,39.59,0,0,0,9.452.879c3.715-.041,7.067-.211,9.5-.311l2.871-.152a5.374,5.374,0,0,0,1.055-.111,5.085,5.085,0,0,0-1.061-.053H371.18l-9.487.2a44.341,44.341,0,0,1-9.376-.773C349.932,457.5,348.549,456.893,348.52,456.992Z" transform="translate(-267.644 -297.199)" fill="#263238"/>
      <path id="Trazado_147736" data-name="Trazado 147736" d="M347.27,456.452c.035.053.715-.34,1.858-.844a8.637,8.637,0,0,1,4.688-.779,7.438,7.438,0,0,1,4.061,2.414,14.066,14.066,0,0,0,1.43,1.459,7.855,7.855,0,0,0-1.213-1.658,9.891,9.891,0,0,0-1.647-1.541,5.9,5.9,0,0,0-2.567-1.084,8.2,8.2,0,0,0-4.881.926A6.58,6.58,0,0,0,347.27,456.452Z" transform="translate(-267.126 -296.113)" fill="#263238"/>
      <g id="Grupo_75713" data-name="Grupo 75713" transform="translate(78.304 148.894)" opacity="0.3">
        <path id="Trazado_147737" data-name="Trazado 147737" d="M349.867,438.4s24.811,6.868,25.783,7.219c1.494.522,1.242,6-1.084,5.913-1.1-.041-19.056.668-21.324.527s-9.112-2.836-9.112-2.836Z" transform="translate(-344.13 -438.4)"/>
      </g>
      <path id="Trazado_147738" data-name="Trazado 147738" d="M266.978,389.77l-5.356,11s-28.637-8.708-35.85-8.309-13.126,3.3-14.532,9.159-1.594,13.946,6.827,19.56S268.32,429.9,268.32,429.9h16.554l27.061-35.681-4.36-3.516Z" transform="translate(-210.502 -269.372)" fill="#263238"/>
      <path id="Trazado_147739" data-name="Trazado 147739" d="M286.868,419.168a2.4,2.4,0,0,1-.545,0,8.135,8.135,0,0,1-1.553-.123,32.6,32.6,0,0,1-5.614-1.172,54.025,54.025,0,0,1-7.911-3.1c-2.895-1.365-5.983-3.047-9.229-4.788a94.821,94.821,0,0,0-9.376-4.483,41.641,41.641,0,0,0-8.087-2.42,28.02,28.02,0,0,0-5.666-.492c-.674,0-1.172.053-1.553.059a3,3,0,0,1-.545,0,2.926,2.926,0,0,1,.539-.076c.357-.029.873-.123,1.553-.129a26.632,26.632,0,0,1,5.719.381,40.508,40.508,0,0,1,8.163,2.344,90.91,90.91,0,0,1,9.376,4.477c3.246,1.758,6.323,3.428,9.2,4.805a56.424,56.424,0,0,0,7.846,3.153,34.7,34.7,0,0,0,5.555,1.26c.668.117,1.172.141,1.541.193a3.564,3.564,0,0,1,.586.111Z" transform="translate(-221.386 -274.61)" fill="#455a64"/>
      <path id="Trazado_147740" data-name="Trazado 147740" d="M340.015,421.872c5.321-2.092,34.573-11.4,44.927-23.363a11.439,11.439,0,0,0,2.83-9.932c-1.442-7.981-8.79-13.3-16.408-10.29-1.084.434-3.569,1.4-4.612,1.957-2.836,1.524-48.853,30.711-48.853,30.711s8.016,15.634,7.817,16.232Z" transform="translate(-254.966 -264.265)" fill="#263238"/>
      <path id="Trazado_147741" data-name="Trazado 147741" d="M354.631,394.059a.622.622,0,0,1-.123.1l-.387.264-1.5.979-5.561,3.516-18.4,11.567-10,6.229.064-.205c2.133,5.121,3.944,9.493,5.274,12.61.621,1.529,1.119,2.748,1.471,3.621.158.4.281.721.381.967a1.609,1.609,0,0,1,.111.34,1.931,1.931,0,0,1-.164-.316c-.105-.24-.246-.557-.428-.949l-1.559-3.58c-1.324-3.112-3.182-7.46-5.362-12.564l-.053-.129.117-.076,9.962-6.252,18.447-11.468,5.62-3.44,1.535-.926.4-.229A.6.6,0,0,1,354.631,394.059Z" transform="translate(-255.174 -271.148)" fill="#455a64"/>
      <path id="Trazado_147742" data-name="Trazado 147742" d="M305.687,413.514a4.767,4.767,0,0,1-1.359-.51,19,19,0,0,1-3.006-1.8,19.207,19.207,0,0,1-2.625-2.344,4.784,4.784,0,0,1-.9-1.143c.082-.076,1.547,1.582,3.733,3.17S305.734,413.414,305.687,413.514Z" transform="translate(-246.645 -276.802)" fill="#455a64"/>
      <path id="Trazado_147743" data-name="Trazado 147743" d="M338.3,395.48a10.459,10.459,0,0,1,.07,1.828c0,1.131.064,2.684.217,4.395s.393,3.252.586,4.366a10.677,10.677,0,0,1,.258,1.817,7.933,7.933,0,0,1-.51-1.758,34.12,34.12,0,0,1-.8-8.79A8.267,8.267,0,0,1,338.3,395.48Z" transform="translate(-263.328 -271.736)" fill="#455a64"/>
      <path id="Trazado_147744" data-name="Trazado 147744" d="M342.993,394.825a.672.672,0,0,1,.363.047,1.646,1.646,0,0,1,.756.639,1.758,1.758,0,0,1,.223,1.477,1.594,1.594,0,0,1-1.506,1.043,1.541,1.541,0,0,1-1.565-.914,1.635,1.635,0,0,1,.2-1.477,1.459,1.459,0,0,1,.8-.586.539.539,0,0,1,.363,0,1.758,1.758,0,0,0-.949.733,1.412,1.412,0,0,0-.111,1.219,1.248,1.248,0,0,0,1.242.68,1.283,1.283,0,0,0,1.172-.8,1.518,1.518,0,0,0-.123-1.23,2.145,2.145,0,0,0-.867-.832Z" transform="translate(-264.601 -271.462)" fill="#455a64"/>
      <path id="Trazado_147745" data-name="Trazado 147745" d="M313.762,392.85a1.594,1.594,0,0,1,.252.545,4.822,4.822,0,0,1,.24,1.617,5.748,5.748,0,0,1-.533,2.344,5.309,5.309,0,0,1-4.752,3.2,5.743,5.743,0,0,1-2.4-.4,5.1,5.1,0,0,1-1.406-.832,1.7,1.7,0,0,1-.41-.44,9.078,9.078,0,0,0,1.9,1.084,5.859,5.859,0,0,0,2.3.311,5.145,5.145,0,0,0,4.471-3.012,5.789,5.789,0,0,0,.586-2.238A8.583,8.583,0,0,0,313.762,392.85Z" transform="translate(-249.522 -270.648)" fill="#455a64"/>
      <path id="Trazado_147746" data-name="Trazado 147746" d="M363.993,398.329a1.881,1.881,0,0,1-1.084-.152,4.1,4.1,0,0,1-2.748-4.2,1.9,1.9,0,0,1,.3-1.055c.059,0-.053.416-.041,1.061A4.319,4.319,0,0,0,363,397.942C363.577,398.241,364,398.27,363.993,398.329Z" transform="translate(-272.458 -270.677)" fill="#455a64"/>
      <path id="Trazado_147747" data-name="Trazado 147747" d="M388.6,413.893a1.577,1.577,0,0,1,.176-.094l.522-.258,2.027-.979c1.758-.856,4.307-2.086,7.378-3.744a56.5,56.5,0,0,0,10.184-6.78,30.049,30.049,0,0,0,4.87-5.3,11.761,11.761,0,0,0,1.758-7.36,11.6,11.6,0,0,0-.967-3.768,10.206,10.206,0,0,0-.943-1.652,13.686,13.686,0,0,0-1.207-1.453,31.712,31.712,0,0,0-2.737-2.467,8.2,8.2,0,0,0-2.983-1.758,11.058,11.058,0,0,0-3.311-.369,17.08,17.08,0,0,0-3.147.346,19.339,19.339,0,0,0-5.3,2l-7.237,4.014-1.975,1.084-.516.275-.176.088a1.023,1.023,0,0,1,.164-.105l.5-.3,1.951-1.125c1.7-.967,4.149-2.379,7.208-4.1a19.373,19.373,0,0,1,5.338-2.051,17.452,17.452,0,0,1,3.182-.363,11.366,11.366,0,0,1,3.375.369,8.385,8.385,0,0,1,3.071,1.817,32.9,32.9,0,0,1,2.76,2.485,15,15,0,0,1,1.231,1.471,10.552,10.552,0,0,1,.967,1.7,12.118,12.118,0,0,1-.82,11.351,30.137,30.137,0,0,1-4.916,5.338,55.667,55.667,0,0,1-10.249,6.762c-3.088,1.641-5.649,2.854-7.419,3.68l-2.045.938-.539.234Z" transform="translate(-282.751 -264.36)" fill="#455a64"/>
      <path id="Trazado_147748" data-name="Trazado 147748" d="M302.242,438.66s-24.893,6.563-25.895,6.9c-1.5.51-1.318,5.989,1.008,5.93,1.1,0,19.05.908,21.318.791s8.409-2.449,8.409-2.449Z" transform="translate(-237.363 -289.614)" fill="#81d4fa"/>
      <path id="Trazado_147749" data-name="Trazado 147749" d="M301.41,451.075a21.5,21.5,0,0,0-1.061-2.678c-.785-1.377-1.8-2.209-1.723-2.3s1.266.586,2.086,2.1A4.552,4.552,0,0,1,301.41,451.075Z" transform="translate(-246.985 -292.688)" fill="#263238"/>
      <path id="Trazado_147750" data-name="Trazado 147750" d="M306.171,449.28c-.123,0-.357-1.172-1-2.461s-1.412-2.221-1.324-2.3a4.561,4.561,0,0,1,1.7,2.121A4.771,4.771,0,0,1,306.171,449.28Z" transform="translate(-249.145 -292.036)" fill="#263238"/>
      <path id="Trazado_147751" data-name="Trazado 147751" d="M310.675,448.074a15.238,15.238,0,0,0-.545-2.625,24.437,24.437,0,0,0-1.324-2.344,3.557,3.557,0,0,1,1.711,2.192A4.069,4.069,0,0,1,310.675,448.074Z" transform="translate(-251.199 -291.451)" fill="#263238"/>
      <path id="Trazado_147752" data-name="Trazado 147752" d="M311.109,442.069a4.4,4.4,0,0,1-.24-1.852,8.508,8.508,0,0,1,.275-2.022,8.709,8.709,0,0,1,.381-1.143,1.354,1.354,0,0,1,.4-.586.662.662,0,0,1,.856.053,1.066,1.066,0,0,1,.316.7,5.021,5.021,0,0,1,.029.656,5.658,5.658,0,0,1-.17,1.213,7.5,7.5,0,0,1-.785,1.887,5.068,5.068,0,0,1-1.137,1.483c-.053-.041.369-.615.873-1.623a7.916,7.916,0,0,0,.674-1.834,5.429,5.429,0,0,0,.135-1.131c0-.381,0-.861-.217-1.043a.24.24,0,0,0-.328-.035,1.131,1.131,0,0,0-.275.434,8.689,8.689,0,0,0-.387,1.09,9.5,9.5,0,0,0-.352,1.934C311.074,441.354,311.179,442.057,311.109,442.069Z" transform="translate(-252.049 -288.651)" fill="#263238"/>
      <path id="Trazado_147753" data-name="Trazado 147753" d="M311.35,445.51a3.434,3.434,0,0,1,1.606-.24,6.981,6.981,0,0,1,1.758.24,3.865,3.865,0,0,1,1.014.381,1.061,1.061,0,0,1,.545,1.172,1.225,1.225,0,0,1-.9.873,2.226,2.226,0,0,1-1.113,0,4.3,4.3,0,0,1-1.606-.809,4.465,4.465,0,0,1-1.137-1.172,10.461,10.461,0,0,1,1.307.908,4.536,4.536,0,0,0,1.518.68,1.952,1.952,0,0,0,.92,0,.826.826,0,0,0,.586-.586.639.639,0,0,0-.357-.7,4.165,4.165,0,0,0-.9-.363,8.368,8.368,0,0,0-1.67-.311C311.971,445.481,311.362,445.575,311.35,445.51Z" transform="translate(-252.255 -292.345)" fill="#263238"/>
      <path id="Trazado_147754" data-name="Trazado 147754" d="M295.71,452.024a15.351,15.351,0,0,0-.463-2.244,19.956,19.956,0,0,0-1.172-1.957c.094-.1,1.072.5,1.576,1.8A3.026,3.026,0,0,1,295.71,452.024Z" transform="translate(-245.099 -293.403)" fill="#263238"/>
      <path id="Trazado_147755" data-name="Trazado 147755" d="M307.569,457.285a4.939,4.939,0,0,1-.967.44,20.186,20.186,0,0,1-2.772.82,39.516,39.516,0,0,1-9.481.785c-3.721-.088-7.067-.3-9.493-.428l-2.877-.188a5.218,5.218,0,0,1-1.049-.123,5.032,5.032,0,0,1,1.061-.035l2.877.053,9.487.3a44.328,44.328,0,0,0,9.417-.627C306.168,457.8,307.54,457.209,307.569,457.285Z" transform="translate(-239.66 -297.322)" fill="#263238"/>
      <path id="Trazado_147756" data-name="Trazado 147756" d="M319.089,456.729c-.035.059-.709-.346-1.852-.861a8.543,8.543,0,0,0-4.688-.838,7.569,7.569,0,0,0-4.1,2.344A14.3,14.3,0,0,1,307,458.815a8.053,8.053,0,0,1,1.236-1.647,10.044,10.044,0,0,1,1.664-1.518,5.943,5.943,0,0,1,2.578-1.055,8.2,8.2,0,0,1,4.87.984,6.67,6.67,0,0,1,1.74,1.148Z" transform="translate(-250.454 -296.192)" fill="#263238"/>
      <path id="Trazado_147757" data-name="Trazado 147757" d="M284.383,455.237c-.041-.029.176-.357.375-.932a4.541,4.541,0,0,0-.768-4.459c-.381-.475-.691-.709-.662-.75s.393.135.844.586a4.231,4.231,0,0,1,.809,4.688C284.706,454.979,284.413,455.26,284.383,455.237Z" transform="translate(-240.653 -293.932)" fill="#263238"/>
      <path id="Trazado_147758" data-name="Trazado 147758" d="M310.218,273l-12.8,3.586,4.16,39.818s-2.391,14.216-2.391,17.949a7.43,7.43,0,0,0,3.774,6.68l40.89,1.231,2.086-1.8a5.9,5.9,0,0,0,1.365-4.565l-7.618-60.755-14.234-3.088Z" transform="translate(-246.487 -220.634)" fill="#81d4fa"/>
      <path id="Trazado_147759" data-name="Trazado 147759" d="M300.975,326.429a1.757,1.757,0,0,1-.076-.3l-.17-.873c-.147-.785-.346-1.875-.586-3.211-.48-2.742-1.131-6.481-1.858-10.612s-1.324-7.887-1.787-10.63c-.211-1.342-.387-2.438-.516-3.229-.053-.363-.094-.656-.129-.879a1.231,1.231,0,0,1,0-.311,2.912,2.912,0,0,1,.076.3c.041.223.1.51.17.867.141.785.346,1.881.586,3.217.48,2.737,1.137,6.481,1.858,10.618l1.793,10.624c.211,1.342.387,2.438.51,3.229.053.363.1.65.129.879A1.119,1.119,0,0,1,300.975,326.429Z" transform="translate(-245.835 -230.707)" fill="#263238"/>
      <path id="Trazado_147760" data-name="Trazado 147760" d="M335.414,273.29a4.9,4.9,0,0,1-.586.469c-.2.141-.457.287-.744.469a6.722,6.722,0,0,1-1.049.522,14.21,14.21,0,0,1-2.93.908,21.725,21.725,0,0,1-3.692.393,35.824,35.824,0,0,1-3.715-.111,21.569,21.569,0,0,1-3.012-.4,8.678,8.678,0,0,1-1.945-.645c-.217-.111-.381-.2-.492-.27l-.158-.111a6.991,6.991,0,0,1,.686.293,10.463,10.463,0,0,0,1.946.586,22.719,22.719,0,0,0,2.994.34c1.131.076,2.385.129,3.692.1a23.275,23.275,0,0,0,3.668-.363,14.783,14.783,0,0,0,2.883-.844A16.407,16.407,0,0,0,335.414,273.29Z" transform="translate(-254.631 -221.148)" fill="#263238"/>
      <path id="Trazado_147761" data-name="Trazado 147761" d="M351.59,375.749a.916.916,0,0,1-.275.059l-.8.117c-.352.047-.779.105-1.277.147s-1.072.111-1.7.141c-1.26.094-2.766.129-4.436.105a53.767,53.767,0,0,1-5.42-.369c-1.9-.223-3.727-.586-5.356-.92a35.576,35.576,0,0,1-4.289-1.172c-.586-.176-1.172-.375-1.617-.539s-.879-.311-1.172-.445l-.756-.3a1.021,1.021,0,0,1-.258-.123,1.477,1.477,0,0,1,.275.076l.768.264c.334.117.738.258,1.219.4s1.014.334,1.623.5c1.2.363,2.655.738,4.284,1.1s3.428.662,5.338.891,3.733.34,5.4.393,3.164,0,4.418-.053c.633,0,1.172-.076,1.7-.111s.926-.07,1.277-.105l.809-.07Z" transform="translate(-257.587 -262.202)" fill="#263238"/>
      <path id="Trazado_147762" data-name="Trazado 147762" d="M376.715,309.567a2.652,2.652,0,0,1-.2-.557c-.105-.357-.258-.885-.434-1.535-.357-1.3-.809-3.106-1.26-5.11s-.8-3.838-1.031-5.163c-.111-.668-.2-1.2-.252-1.576a2.7,2.7,0,0,1-.059-.586,2.689,2.689,0,0,1,.152.586c.082.416.193.938.328,1.559.27,1.318.65,3.141,1.1,5.145s.873,3.815,1.172,5.121c.141.621.264,1.143.363,1.553a3.3,3.3,0,0,1,.123.563Z" transform="translate(-277.977 -230.153)" fill="#263238"/>
      <g id="Grupo_75714" data-name="Grupo 75714" transform="translate(65.303 54.17)" opacity="0.3">
        <path id="Trazado_147763" data-name="Trazado 147763" d="M324.836,276.75c.516,1.758.035,4.377.287,5.965a84.855,84.855,0,0,1,1.025,19.3,2.631,2.631,0,0,0,.064,1.049,3.287,3.287,0,0,0,.522.809A8.45,8.45,0,0,1,328.1,310a24.779,24.779,0,0,1-1.852,6.159c-.041-1.717.047-4.289.182-6,0-.346.205-.123.211-.469a6.968,6.968,0,0,0-1.758-5.444,4.529,4.529,0,0,1-.82-.92,3.082,3.082,0,0,1-.275-1.1q-1.336-10.8-1.822-21.681a1.723,1.723,0,0,1,.234-1.172,3.168,3.168,0,0,1,.8-.551c.586-.363.9-1.008,1.5-1.3" transform="translate(-321.944 -276.75)"/>
      </g>
      <path id="Trazado_147764" data-name="Trazado 147764" d="M290.852,279.79s-11.684,2.754-8.854,20.263a108.284,108.284,0,0,0,6.973,24.869c1.916,4.506,6.252,7.618,11.134,6.973,2.121-.275,4.219.059,5.643-.8,2.156-1.3,3.094-5.684,3.516-10.407.275-3.223.164-6.575.586-9.323.7-4.489-1.359-6.6-4-7.131l-10.366-2.057-.586,5.461Z" transform="translate(-239.919 -223.839)" fill="#81d4fa"/>
      <path id="Trazado_147765" data-name="Trazado 147765" d="M311.46,332.356c.029,0,.2.211.586.51a4.1,4.1,0,0,0,1.928.768,6.405,6.405,0,0,0,3.059-.434,9.88,9.88,0,0,0,3.3-1.9,5.824,5.824,0,0,0,1.711-3.3,5.655,5.655,0,0,0-.363-3.047,8.052,8.052,0,0,0-1.647-2.373,2.034,2.034,0,0,1,.645.475,5.555,5.555,0,0,1,1.266,1.758,5.789,5.789,0,0,1,.475,3.223,6.089,6.089,0,0,1-1.8,3.545,9.791,9.791,0,0,1-3.457,1.963,6.445,6.445,0,0,1-3.229.363,3.926,3.926,0,0,1-1.986-.932A1.576,1.576,0,0,1,311.46,332.356Z" transform="translate(-252.3 -241.551)" fill="#263238"/>
      <path id="Trazado_147766" data-name="Trazado 147766" d="M293.14,345.624c.041,0,.223.551.7,1.5a13.36,13.36,0,0,0,2.66,3.574,12.622,12.622,0,0,0,5.719,3.164,12.833,12.833,0,0,0,7.911-.557c1.324-.533,1.8-2,2.309-3.235a20.861,20.861,0,0,0,.984-3.785,66.344,66.344,0,0,0,.662-6.633c.135-1.858.246-3.381.328-4.506.047-.492.082-.9.111-1.225a1.84,1.84,0,0,1,.064-.422,1.339,1.339,0,0,1,0,.428c0,.328,0,.732,0,1.231-.053,1.125-.117,2.649-.205,4.512a59.42,59.42,0,0,1-.586,6.692,20.922,20.922,0,0,1-.979,3.867,14.208,14.208,0,0,1-.873,1.94,3.469,3.469,0,0,1-1.641,1.529,13.015,13.015,0,0,1-8.2.545,12.856,12.856,0,0,1-8.432-7.032,9.616,9.616,0,0,1-.451-1.172,1.8,1.8,0,0,1-.082-.416Z" transform="translate(-244.715 -246.076)" fill="#263238"/>
      <path id="Trazado_147767" data-name="Trazado 147767" d="M299.751,332a10.182,10.182,0,0,1,0-2.1c.07-1.3.193-3.082.352-5.057.088-.99.152-1.922.258-2.783a4.318,4.318,0,0,1,.8-2.2,2.344,2.344,0,0,1,1.324-.867.855.855,0,0,1,.586,0c0,.041-.211,0-.539.141a2.344,2.344,0,0,0-1.137.885c-.762,1.008-.674,2.883-.873,4.84s-.328,3.756-.469,5.045A11.417,11.417,0,0,1,299.751,332Z" transform="translate(-247.43 -240.048)" fill="#263238"/>
      <path id="Trazado_147768" data-name="Trazado 147768" d="M302.282,297.184c-.105-.551-.27-1.354-.48-2.344-.422-1.975-1.031-4.688-1.729-7.7a43.354,43.354,0,0,0-1.113-4.213,9.675,9.675,0,0,0-1.711-3.147l-.229.182a9.892,9.892,0,0,1,1.582,3.088c.416,1.248.709,2.684,1.067,4.184.7,3,1.354,5.713,1.852,7.671.246.979.451,1.758.586,2.315a3.458,3.458,0,0,0,.281.832A3.945,3.945,0,0,0,302.282,297.184Z" transform="translate(-246.322 -223.835)" fill="#263238"/>
      <g id="Grupo_75715" data-name="Grupo 75715" transform="translate(49.631 77.017)" opacity="0.3">
        <path id="Trazado_147769" data-name="Trazado 147769" d="M301.64,315.84a4.542,4.542,0,0,0-2.625.891,8.731,8.731,0,0,0-3.481,4.922,10.237,10.237,0,0,0,.27,6.059c.217.586.627,1.289,1.266,1.26.756-.029,1.055-.967,1.172-1.711q.434-3.094.867-6.194a5.819,5.819,0,0,1,.545-2.039,1.957,1.957,0,0,1,1.705-1.078l.193-2.209" transform="translate(-295.199 -315.74)"/>
      </g>
      <path id="Trazado_147770" data-name="Trazado 147770" d="M416.935,317.273a17.3,17.3,0,0,0,2.414-8.11,27.085,27.085,0,0,0-1.172-8.884l-12.411-3.85-.076,4.149Z" transform="translate(-291.313 -230.728)" fill="#81d4fa"/>
      <path id="Trazado_147771" data-name="Trazado 147771" d="M390.767,292.638,369.59,277.32v1.061l2.285,23.844s17.509,7.84,22.144,8.995a9.235,9.235,0,0,0,7.969-1.863Z" transform="translate(-276.367 -222.816)" fill="#81d4fa"/>
      <path id="Trazado_147772" data-name="Trazado 147772" d="M411.832,314.985a1.829,1.829,0,0,1-.481-.258,8.393,8.393,0,0,1-1.172-.908,13.068,13.068,0,0,1-2.824-3.949,25.535,25.535,0,0,1-1.617-4.577c-.158-.586-.27-1.09-.346-1.43a2.083,2.083,0,0,1-.082-.533,13.253,13.253,0,0,1,.639,1.9,32.277,32.277,0,0,0,1.682,4.506,14.342,14.342,0,0,0,2.7,3.926C411.2,314.534,411.861,314.938,411.832,314.985Z" transform="translate(-291.156 -233.585)" fill="#263238"/>
      <path id="Trazado_147773" data-name="Trazado 147773" d="M418.24,304.033a1.761,1.761,0,0,1-.551,0,13.743,13.743,0,0,1-1.483-.158,18.206,18.206,0,0,1-8.848-4.1,12.35,12.35,0,0,1-1.084-1.031c-.24-.258-.363-.41-.346-.422s.586.51,1.565,1.289a21.214,21.214,0,0,0,4.137,2.549,20.963,20.963,0,0,0,4.612,1.512C417.467,303.916,418.24,303.992,418.24,304.033Z" transform="translate(-291.411 -231.511)" fill="#263238"/>
      <path id="Trazado_147774" data-name="Trazado 147774" d="M406.322,312.931a4.324,4.324,0,0,1-.662-1.313,12.893,12.893,0,0,1-.7-3.475,25.512,25.512,0,0,1,.029-3.516,6.289,6.289,0,0,1,.182-1.447,7.514,7.514,0,0,1,.035,1.459c0,.9-.035,2.145.059,3.516a15.608,15.608,0,0,0,.586,3.428A10.773,10.773,0,0,1,406.322,312.931Z" transform="translate(-290.99 -233.523)" fill="#263238"/>
      <path id="Trazado_147775" data-name="Trazado 147775" d="M369.05,293a3.253,3.253,0,0,1,.217.645c.123.422.287,1.037.486,1.8.387,1.524.885,3.639,1.377,5.983s.885,4.489,1.137,6.041c.129.774.223,1.4.275,1.84a2.677,2.677,0,0,1,.059.68,3.212,3.212,0,0,1-.176-.662l-.369-1.822c-.328-1.606-.756-3.7-1.225-6.012s-.943-4.395-1.289-5.995c-.152-.721-.287-1.33-.393-1.822a2.887,2.887,0,0,1-.1-.674Z" transform="translate(-276.143 -229.308)" fill="#263238"/>
      <path id="Trazado_147776" data-name="Trazado 147776" d="M305.11,301.393l2.59-28.713,8.6,3.393,1.108,29.205s-2.754,4.16-7.4,2.455a7.542,7.542,0,0,1-4.9-6.34Z" transform="translate(-249.671 -220.895)" fill="#a36957"/>
      <path id="Trazado_147777" data-name="Trazado 147777" d="M306.507,229.78l16.079,14.14-2.912,10.559-1.166.346L304.45,240.439l.891-10.313Z" transform="translate(-249.398 -203.134)" fill="#263238"/>
      <path id="Trazado_147778" data-name="Trazado 147778" d="M304.517,230.37,320.6,244.51l-2.912,10.559-15.224-14.04Z" transform="translate(-248.574 -203.378)" fill="#455a64"/>
      <path id="Trazado_147779" data-name="Trazado 147779" d="M316.661,261.945a6.235,6.235,0,0,0,1.611-3.95c-.035-2.162-.633-7.372-.633-7.372s2.8-5.86,2.725-6.663-.2-.768-1.172-.451-4.1,5.672-4.1,5.672l-1.02-3.973s2.59-4.172,2.8-4.758.545-1.061-.1-1.113S311.253,244,311.253,244l.393,4.354s-.1.346-.8-.264-.522-5.807-.522-5.807a22.516,22.516,0,0,0,1.617-3.516c-.041-.439.3-.926,0-1.688s-1.283.117-1.283.117l-3.276,4.213-1.172-4.184s.047-.9-1.113-.9l.451,13.577,2.93,10.448Z" transform="translate(-249.667 -205.842)" fill="#a36957"/>
      <path id="Trazado_147780" data-name="Trazado 147780" d="M317.364,290.122a4.111,4.111,0,0,0-.047-.51c-.047-.334-.047-.861-.082-1.5-.059-1.33-.141-3.252-.252-5.7-.193-4.952-.475-12.007-.815-20.545v-.064l.07-.064a5.573,5.573,0,0,0,1.559-2.2,6.37,6.37,0,0,0,.322-2.824c-.1-1.987-.346-4.055-.627-6.17v-.111c.527-1.113,1.055-2.268,1.565-3.451.252-.586.51-1.172.738-1.793.117-.3.229-.615.316-.92l.059-.229v-.188a1.171,1.171,0,0,0-.082-.41c.035-.094-.41,0-.691.1a.932.932,0,0,0-.381.193,3.045,3.045,0,0,0-.34.334,16.055,16.055,0,0,0-1.231,1.6c-.773,1.125-1.5,2.309-2.209,3.516l-.258.434-.123-.486c-.322-1.254-.668-2.608-1.014-3.973v-.082l.047-.076,1.313-2.151c.5-.844,1.049-1.711,1.453-2.543.082-.234.2-.475.252-.674.035-.105,0-.152,0-.141a.3.3,0,0,0-.193-.041,2.053,2.053,0,0,0-.234.117c-.094.053-.193.135-.287.193-.193.141-.387.287-.586.439-1.488,1.225-2.883,2.543-4.243,3.844l.059-.164q.205,2.2.393,4.354v.07a.369.369,0,0,1-.387.246.691.691,0,0,1-.281-.094,1.841,1.841,0,0,1-.4-.275,1.541,1.541,0,0,1-.416-.885,11.908,11.908,0,0,1-.2-1.758,32.517,32.517,0,0,1,0-3.381v-.088a29.613,29.613,0,0,0,1.559-3.235.933.933,0,0,0,.035-.164v-.24a2.575,2.575,0,0,1,.082-.451,1.518,1.518,0,0,0-.029-.779c-.088-.287-.176-.4-.393-.363a1.547,1.547,0,0,0-.656.369h0l-3.241,4.219-.205.275-.094-.334q-.586-2.174-1.137-4.19v-.047a.7.7,0,0,0-.293-.586,1.2,1.2,0,0,0-.662-.17l.158-.158c.158,5.52.293,10.1.393,13.577h0c.645,2.49,1.143,4.424,1.488,5.754l.369,1.488c.082.334.105.51.105.51s-.059-.164-.158-.5-.24-.838-.416-1.477c-.369-1.318-.9-3.246-1.582-5.731h0L305,236.223v-.164h.158a1.482,1.482,0,0,1,.838.223,1,1,0,0,1,.434.844v-.053q.586,2.016,1.172,4.184l-.3-.059,3.223-4.237h0a1.922,1.922,0,0,1,.838-.463.662.662,0,0,1,.586.152,1.025,1.025,0,0,1,.246.463,1.893,1.893,0,0,1,.041.955,3.955,3.955,0,0,1-.07.422,1.128,1.128,0,0,0,0,.205,1.213,1.213,0,0,1-.053.27,28.091,28.091,0,0,1-1.582,3.311v-.082c-.029,1.1,0,2.221.035,3.352a11.373,11.373,0,0,0,.193,1.676,1.236,1.236,0,0,0,.287.662,1.757,1.757,0,0,0,.316.229.463.463,0,0,0,.135.047h0v.041h0c.094.041-.123-.047-.1-.035v.082q-.193-2.145-.4-4.354V243.8l.07-.07c1.365-1.307,2.754-2.625,4.266-3.873.193-.152.387-.3.586-.451.105-.07.2-.146.316-.211a1.125,1.125,0,0,1,.434-.176.651.651,0,0,1,.492.152.527.527,0,0,1,.1.545c-.076.275-.182.48-.264.709-.457.943-.979,1.758-1.488,2.619l-1.313,2.151v-.158l1.014,3.973-.375-.053c.715-1.213,1.447-2.4,2.233-3.516a16.99,16.99,0,0,1,1.266-1.641,3.362,3.362,0,0,1,.387-.375,1.353,1.353,0,0,1,.51-.258,4.319,4.319,0,0,1,.51-.135.938.938,0,0,1,.322,0,.486.486,0,0,1,.34.24,1.758,1.758,0,0,1,.123.586,2.765,2.765,0,0,1,0,.3l-.064.252c-.1.334-.211.645-.328.955-.24.586-.5,1.219-.75,1.811-.516,1.172-1.049,2.344-1.576,3.463v-.111c.275,2.127.516,4.2.615,6.206a6.785,6.785,0,0,1-.363,2.971,5.942,5.942,0,0,1-1.676,2.344l.07-.146c.275,8.544.5,15.6.668,20.55.07,2.449.123,4.371.158,5.707,0,.639,0,1.137.029,1.494A4.244,4.244,0,0,0,317.364,290.122Z" transform="translate(-249.626 -205.733)" fill="#7c3b29"/>
      <path id="Trazado_147781" data-name="Trazado 147781" d="M309.66,252.324a17.515,17.515,0,0,1-.5-3.709,17.13,17.13,0,0,1-.088-3.744,34.052,34.052,0,0,1,.586,7.454Z" transform="translate(-251.286 -209.382)" fill="#7c3b29"/>
    </g>
    <g id="freepik--character-1--inject-38" transform="translate(29.979 58.132)">
      <path id="Trazado_147782" data-name="Trazado 147782" d="M174.576,184.3l-9.182-18.564a68.2,68.2,0,1,0-14.064,20v.035Z" transform="translate(-35.27 -68.929)" fill="#fafafa"/>
      <path id="Trazado_147783" data-name="Trazado 147783" d="M174.582,184.391l-23.24,1.535h-.123l.064-.111v-.035l.105.082a71.158,71.158,0,0,1-5.344,4.752c-.973.82-2.051,1.57-3.123,2.379a40.635,40.635,0,0,1-3.457,2.291,67.388,67.388,0,0,1-17.04,7.618,68.965,68.965,0,0,1-21.623,2.631,67.8,67.8,0,0,1-23.955-5.373,68.153,68.153,0,0,1-41.113-70.576c.111-1.324.369-2.637.586-3.961s.527-2.619.8-3.938A68.325,68.325,0,0,1,52.058,92.638l1.412-1.553.7-.779.744-.738,1.477-1.477,1.535-1.447A66.99,66.99,0,0,1,71.407,77.2c1.172-.668,2.414-1.219,3.633-1.811s2.479-1.061,3.709-1.588c1.266-.439,2.508-.938,3.78-1.33s2.537-.815,3.832-1.107a69.89,69.89,0,0,1,15.476-2.186,68.226,68.226,0,0,1,64.886,42.455,71.23,71.23,0,0,1,3.4,10.882c.182.9.357,1.793.533,2.678s.27,1.758.41,2.649l.193,1.313c.047.434.088.867.135,1.3.1.861.164,1.717.211,2.572a67.9,67.9,0,0,1-1.365,18.6,69.887,69.887,0,0,1-2.156,7.676c-.82,2.344-1.717,4.541-2.619,6.528v-.053c5.907,12.042,8.925,18.165,9.124,18.587-.205-.4-3.252-6.528-9.241-18.535h0c.9-1.986,1.758-4.155,2.6-6.522a68.068,68.068,0,0,0,3.446-26.252c-.053-.85-.117-1.705-.217-2.567l-.141-1.3-.193-1.307c-.141-.867-.229-1.758-.416-2.637s-.352-1.758-.533-2.672a70.57,70.57,0,0,0-3.4-10.841A67.974,67.974,0,0,0,101.82,69.491a69.732,69.732,0,0,0-15.411,2.18c-1.283.293-2.537.727-3.809,1.1s-2.5.891-3.762,1.33c-1.231.527-2.485,1-3.7,1.582s-2.438,1.131-3.616,1.8a66.509,66.509,0,0,0-13.39,9.376l-1.529,1.4-1.471,1.471-.738.738-.7.773L52.287,92.8a68.36,68.36,0,0,0-14.872,28.959c-.27,1.307-.586,2.608-.8,3.92s-.451,2.619-.586,3.944a68.214,68.214,0,0,0,3.463,30.512,67.506,67.506,0,0,0,15.282,24.611,68.49,68.49,0,0,0,22.168,15.236,67.687,67.687,0,0,0,23.867,5.379,68.741,68.741,0,0,0,21.552-2.6,67.27,67.27,0,0,0,16.994-7.547c1.219-.727,2.344-1.524,3.457-2.279s2.145-1.547,3.117-2.344a71.209,71.209,0,0,0,5.35-4.729l.352-.334-.246.416v.035l-.059-.105Z" transform="translate(-35.276 -69.022)" fill="#263238"/>
      <path id="Trazado_147784" data-name="Trazado 147784" d="M92,285.461l70.177-.111s-16.777,11.134-36.917,9.8C107.745,294.017,92,285.461,92,285.461Z" transform="translate(-58.757 -158.531)" fill="#455a64"/>
      <path id="Trazado_147785" data-name="Trazado 147785" d="M136.128,201.6l4,14.65,14.62-19.742-3.446,51.766H130.432l-6.082.293s.9-8.157,1.272-12.769a51.414,51.414,0,0,1,1.852-10.876C130.591,214.787,136.128,201.6,136.128,201.6Z" transform="translate(-72.151 -121.75)" fill="#fafafa"/>
      <path id="Trazado_147786" data-name="Trazado 147786" d="M144.913,244.3c.053.064-2.309,1.963-5.274,4.243s-5.4,4.067-5.45,4,2.3-1.969,5.274-4.243S144.86,244.228,144.913,244.3Z" transform="translate(-76.224 -141.534)" fill="#263238"/>
      <path id="Trazado_147787" data-name="Trazado 147787" d="M187.047,185.415l-11.368-5.467-4.459-5.3-6.305,6.551L148.19,239.079h28.678l3.674-9.932,6.5-38.347Z" transform="translate(-82.021 -112.699)" fill="#7e5ee3"/>
      <path id="Trazado_147788" data-name="Trazado 147788" d="M126.658,247.488l-.768-12.306,34.638-5.86s5.918-28.584,9.563-33.266a7.168,7.168,0,0,1,7.753-2.824s3.955,2.707,3.012,13.073c-.5,5.432-2.485,24.254-3.2,31.057a10.894,10.894,0,0,1-1.582,4.588h0a10.864,10.864,0,0,1-9.218,5.121Z" transform="translate(-72.788 -120.288)" fill="#7e5ee3"/>
      <path id="Trazado_147789" data-name="Trazado 147789" d="M190.47,262.258c-.053,0-.1-.545-.352-1.383a8.256,8.256,0,0,0-4.272-5.069c-.785-.393-1.324-.527-1.307-.586a3.786,3.786,0,0,1,1.395.387,7.565,7.565,0,0,1,4.389,5.2A3.844,3.844,0,0,1,190.47,262.258Z" transform="translate(-97.07 -146.056)" fill="#263238"/>
      <g id="Grupo_75716" data-name="Grupo 75716" transform="translate(73.693 68.08)" opacity="0.2">
        <path id="Trazado_147790" data-name="Trazado 147790" d="M180.1,185.11a53.764,53.764,0,0,1-2.069,10.671l-2.6-.762a6.774,6.774,0,0,1,.774,5.385,20.054,20.054,0,0,1-2.25,5.11q-6.446,11.608-12.927,23.228l13.032-29.592-.34-5.473,2.508-.533Z" transform="translate(-161.03 -185.11)"/>
      </g>
      <g id="Grupo_75717" data-name="Grupo 75717" transform="translate(87.276 108.713)" opacity="0.2">
        <path id="Trazado_147791" data-name="Trazado 147791" d="M184.562,254.462a6.921,6.921,0,0,1,7.085,5.127,1.758,1.758,0,0,1,0,1.113.75.75,0,0,1-.908.463,1.172,1.172,0,0,1-.5-.674,10.548,10.548,0,0,0-6.024-5.608" transform="translate(-184.21 -254.45)"/>
      </g>
      <path id="Trazado_147792" data-name="Trazado 147792" d="M161.19,228.006a3.842,3.842,0,0,1,.176-.475l.586-1.342,2.1-4.893,7.067-16.109c1.008-2.285,1.981-4.489,2.895-6.551v.064c-.111-1.945-.223-3.774-.322-5.467v-.117h.105l2.514-.522-.082.064,3.123-6.323.873-1.729.24-.445a1.1,1.1,0,0,1,.088-.152.487.487,0,0,1-.059.164l-.205.463c-.2.428-.469,1.02-.815,1.758l-3.03,6.37v.053h-.059l-2.508.545.105-.135q.158,2.54.352,5.467v.07c-.914,2.069-1.881,4.272-2.889,6.557L164.307,221.4c-.92,2.027-1.664,3.68-2.2,4.858l-.586,1.313A3.644,3.644,0,0,1,161.19,228.006Z" transform="translate(-87.403 -116.574)" fill="#263238"/>
      <path id="Trazado_147793" data-name="Trazado 147793" d="M126.562,253.763a1.458,1.458,0,0,1-.029-.205,2.84,2.84,0,0,0-.047-.586c-.041-.551-.1-1.324-.17-2.344-.135-2.022-.328-4.922-.586-8.491v-.1h.094l25.063-4.606,9.241-1.676-.117.111c2.033-7.717,3.791-14.415,5.057-19.209.633-2.344,1.172-4.26,1.494-5.584.182-.639.316-1.137.416-1.494l.111-.387.047-.123a.393.393,0,0,1,0,.135l-.088.387c-.088.363-.211.867-.369,1.506l-1.412,5.608c-1.236,4.8-2.965,11.509-4.952,19.232v.094h-.094l-9.264,1.711-25.068,4.512.094-.117c.193,3.575.352,6.475.463,8.5.047.99.082,1.758.105,2.315v.586A1.1,1.1,0,0,1,126.562,253.763Z" transform="translate(-72.722 -126.95)" fill="#263238"/>
      <path id="Trazado_147794" data-name="Trazado 147794" d="M206.351,191.38c0,.053-.586.141-1.465.469a9.34,9.34,0,0,0-5.233,4.9,13.792,13.792,0,0,1-.586,1.43c-.076-.018,0-.146.041-.416a6.036,6.036,0,0,1,.322-1.1,8.626,8.626,0,0,1,5.362-5.022,6.446,6.446,0,0,1,1.113-.252C206.2,191.362,206.345,191.356,206.351,191.38Z" transform="translate(-103.071 -119.62)" fill="#263238"/>
      <path id="Trazado_147795" data-name="Trazado 147795" d="M95.988,162.305c1.025-1.893.586-9.534,2.151-9.264,2.022.346.152,8.38,0,9.112s.932.908,1.008.246c.117-.955,1.289-10.3,3.276-9.774,1.1.287.586,2.3.586,2.3s-1.711,9.059-.762,9.276,1.67-5,2.092-6.9,1.594-2.608,2.045-1.647c.656,1.406-.586,5.971-.984,7.8s-1.324,7.131,1.248,5.057,5.274-2.719,6.159-2.385.662,1.641-.322,1.9a12.44,12.44,0,0,0-2.93,1.57,11.721,11.721,0,0,0-1.945,1.828,10.272,10.272,0,0,0-1.84,2.86,6.411,6.411,0,0,1-3.9,3.516h0l-1.5,7.137-9.716-2.08,2.162-7.553c.791-4.963.357-11.632.363-14.65,0-4.84.639-4.875,1.172-4.746C95.643,156.152,94.986,164.151,95.988,162.305Z" transform="translate(-58.198 -103.571)" fill="#ffd1bd"/>
      <path id="Trazado_147796" data-name="Trazado 147796" d="M99.29,180.234a11.36,11.36,0,0,1,1.3.586,5.461,5.461,0,0,1,2.192,2.59,6.23,6.23,0,0,1,.293,1.02l.029.164.141-.076a8.028,8.028,0,0,1,2.514-.955c.662-.129,1.072-.141,1.072-.176a3.253,3.253,0,0,0-1.1,0,7.366,7.366,0,0,0-2.608.9l.17.088a5.274,5.274,0,0,0-.3-1.078,5.642,5.642,0,0,0-1.066-1.664,5.315,5.315,0,0,0-1.266-.984,4.33,4.33,0,0,0-.984-.393A1.172,1.172,0,0,0,99.29,180.234Z" transform="translate(-61.775 -115.007)" fill="#cc8f75"/>
      <path id="Trazado_147797" data-name="Trazado 147797" d="M97.09,191.836a8.543,8.543,0,0,0,4.752,1.483c0-.07-1.107-.2-2.42-.615S97.119,191.772,97.09,191.836Z" transform="translate(-60.865 -119.812)" fill="#cc8f75"/>
      <path id="Trazado_147798" data-name="Trazado 147798" d="M151.869,178.937,144.45,193.8l4,14.644,10.659-11.263,10.507-19.519Z" transform="translate(-80.472 -113.945)" fill="#ffd1bd"/>
      <path id="Trazado_147799" data-name="Trazado 147799" d="M115.275,179.43s-10.548,3.75-10.548,4.448h0c-1.863,1.459-8.069,16.466-10.044,19.3l-5.649,8.35h0l4.735-18.482-10.413-3.059s-8.9,21.459-9.973,26.229a17.58,17.58,0,0,0,.176,8.585l.059-.047a9.874,9.874,0,0,0,3.9,5.245c4.412,2.83,8.538,3.364,12.757.246,2.391-1.758,5.121-3.9,7.618-5.889l.656,15.517H104.3c0-.873-.176-11.5-.176-11.5a59.459,59.459,0,0,0,1.758-7.671c.522-3.657,9.089-27.67,9.089-27.67l6.639-12.81.158-4.741Z" transform="translate(-50.864 -113.043)" fill="#7e5ee3"/>
      <path id="Trazado_147800" data-name="Trazado 147800" d="M115.612,248.359a3.1,3.1,0,0,1-.047-.48q-.035-.516-.088-1.389c-.064-1.242-.152-2.989-.264-5.145-.2-4.389-.469-10.431-.773-17.2V224.1c.123-.639.258-1.324.393-2.016,1.389-7.114,2.655-13.56,3.574-18.253l1.119-5.52c.129-.633.24-1.131.316-1.5l.088-.387a.715.715,0,0,1,.041-.129.34.34,0,0,1,0,.135l-.064.393-.264,1.512-1.02,5.543c-.9,4.688-2.127,11.134-3.516,18.271-.129.686-.264,1.371-.387,2.01v-.035c.27,6.774.51,12.821.68,17.2.07,2.162.129,3.909.17,5.151,0,.586,0,1.049.035,1.395A3.006,3.006,0,0,1,115.612,248.359Z" transform="translate(-68.048 -121.663)" fill="#263238"/>
      <path id="Trazado_147801" data-name="Trazado 147801" d="M126.51,228.738a2.55,2.55,0,0,1,.053-.486c.053-.34.117-.8.205-1.383.205-1.231.486-2.93.832-5.086.732-4.313,1.758-10.22,2.848-16.753.744-4.272,1.442-8.28,2.039-11.72v-.035c1.465-3.317,2.69-6.088,3.557-8.063.428-.949.774-1.705,1.02-2.256l.275-.586a.921.921,0,0,1,.111-.2.967.967,0,0,1-.07.211c-.064.164-.141.363-.24.586-.234.551-.551,1.318-.949,2.279-.85,1.986-2.039,4.776-3.457,8.11h0c-.586,3.416-1.266,7.43-2,11.72-1.172,6.528-2.18,12.429-2.93,16.742-.387,2.115-.7,3.838-.926,5.063l-.264,1.377a3.581,3.581,0,0,1-.105.48Z" transform="translate(-73.045 -115.813)" fill="#263238"/>
      <path id="Trazado_147802" data-name="Trazado 147802" d="M92,249.542c-.041-.029.41-.674,1.043-1.758a31.644,31.644,0,0,0,2.121-4.512,38.189,38.189,0,0,0,1.453-4.688c.293-1.236.428-2.01.475-2a1.758,1.758,0,0,1,0,.557c-.035.357-.111.867-.234,1.494a29.158,29.158,0,0,1-1.377,4.8,26.035,26.035,0,0,1-2.215,4.477c-.346.545-.639.967-.861,1.248A1.293,1.293,0,0,1,92,249.542Z" transform="translate(-58.755 -138.339)" fill="#263238"/>
      <g id="Grupo_75718" data-name="Grupo 75718" transform="translate(33.537 99.237)" opacity="0.2">
        <path id="Trazado_147803" data-name="Trazado 147803" d="M93.011,249.39a.645.645,0,0,0-.445.908.961.961,0,0,0,1.008.457A2.016,2.016,0,0,0,94.6,250.2a6.973,6.973,0,0,0,1.758-3.129,30.2,30.2,0,0,0,.973-8.79,35.933,35.933,0,0,1-4.3,10.97" transform="translate(-92.502 -238.28)"/>
      </g>
      <g id="Grupo_75719" data-name="Grupo 75719" transform="translate(44.655 89.381)" opacity="0.2">
        <path id="Trazado_147804" data-name="Trazado 147804" d="M113.675,243.8a15.575,15.575,0,0,1-2.127-9.493c.316-4.512,2.508-8.637,4.143-12.851-.938,4.43-1.477,8.831-2.344,13.091,0,0,.451,6.334.463,9.141" transform="translate(-111.475 -221.46)"/>
      </g>
      <g id="Grupo_75720" data-name="Grupo 75720" transform="translate(54.133 69.258)" opacity="0.2">
        <path id="Trazado_147805" data-name="Trazado 147805" d="M127.65,226.762a185.832,185.832,0,0,1,2.11-20.17,64.458,64.458,0,0,1,6.8-19.472c-.85,2.672-3.469,8.286-3.469,8.286s-3.78,19.923-5.42,29.979" transform="translate(-127.65 -187.12)"/>
      </g>
      <path id="Trazado_147806" data-name="Trazado 147806" d="M112.9,265.671l.943,10.466H108.9l-4.371-.07a30.509,30.509,0,0,1-5.016.129.527.527,0,0,1-.234-.047,3.945,3.945,0,0,1-.762-.187h0c-.445-.164-.9-.451-.832-.943.217-1.5,1.108-1.623,1.108-1.623h.445l.035-.129a11.812,11.812,0,0,1-1.547-.053c-.141,0-.223-.029-.234-.053s-1.758-.205-1.617-1.131c.193-1.547,1.084-1.67,1.084-1.67l1.442-.094a12.58,12.58,0,0,1-1.6-.053c-.141,0-.223-.029-.234-.053s-1.758-.205-1.617-1.131c.217-1.5,1.108-1.623,1.108-1.623l1.172-.082a9.352,9.352,0,0,1-1.3-.047c-.141,0-.223-.029-.234-.053s-1.758-.205-1.617-1.131c.24-1.506,1.125-1.594,1.125-1.594s2.754-.2,4.647-.275c0,0,2.151-1.934,2.994-1.846,1.266.135,8.614,2.848,8.614,2.848Z" transform="translate(-59.613 -149.019)" fill="#ffd1bd"/>
      <path id="Trazado_147807" data-name="Trazado 147807" d="M106.935,280.541a9.8,9.8,0,0,1-2.449.234,9.851,9.851,0,0,1-2.426-.076,9.862,9.862,0,0,1,2.449-.24A9.337,9.337,0,0,1,106.935,280.541Z" transform="translate(-62.922 -156.488)" fill="#cc8f75"/>
      <path id="Trazado_147808" data-name="Trazado 147808" d="M105.457,275.493a19.143,19.143,0,0,1-3.481.287,19.671,19.671,0,0,1-3.516-.035,18.862,18.862,0,0,1,3.481-.281,19.371,19.371,0,0,1,3.516.029Z" transform="translate(-61.432 -154.41)" fill="#cc8f75"/>
      <g id="Grupo_75721" data-name="Grupo 75721" transform="translate(36.759 117.969)" opacity="0.78">
        <path id="Trazado_147809" data-name="Trazado 147809" d="M105.032,270.349a19.673,19.673,0,0,1-3.516.281A19.083,19.083,0,0,1,98,270.595a19.647,19.647,0,0,1,3.481-.281A19.132,19.132,0,0,1,105.032,270.349Z" transform="translate(-98 -270.247)" fill="#cc8f75"/>
      </g>
      <path id="Trazado_147810" data-name="Trazado 147810" d="M102.6,265.512a4.935,4.935,0,0,0,1.108.088l2.678.088,2.678.1a5.474,5.474,0,0,0,1.113,0,4.49,4.49,0,0,0-1.1-.176c-.686-.064-1.635-.135-2.684-.17s-1.992-.035-2.684,0A4.689,4.689,0,0,0,102.6,265.512Z" transform="translate(-63.146 -150.277)" fill="#cc8f75"/>
      <path id="Trazado_147811" data-name="Trazado 147811" d="M194.8,117.524c1.242-3.018,5.168-4.395,8.239-3.27a9.038,9.038,0,0,1,5.479,7.512,6.733,6.733,0,0,1-.938,4.618,6.241,6.241,0,0,1-4.289,2.414,8.555,8.555,0,0,1-9.042-11.854" transform="translate(-100.801 -87.533)" fill="#263238"/>
      <path id="Trazado_147812" data-name="Trazado 147812" d="M209.817,120.789a2.2,2.2,0,0,1-.223.4,7.213,7.213,0,0,1-.785.961,8.743,8.743,0,0,1-7.524,2.584,7.677,7.677,0,0,1-1.213-.275,1.254,1.254,0,0,1-.422-.182c0-.053.633.146,1.658.24a9.376,9.376,0,0,0,7.348-2.52C209.389,121.293,209.758,120.76,209.817,120.789Z" transform="translate(-103.326 -90.399)" fill="#455a64"/>
      <path id="Trazado_147813" data-name="Trazado 147813" d="M211.5,126.668a2.584,2.584,0,0,1-.334.316,10.374,10.374,0,0,1-1.02.738,11.719,11.719,0,0,1-3.821,1.606,9.481,9.481,0,0,1-2.291.176,8.24,8.24,0,0,1-1.846-.3,6.353,6.353,0,0,1-1.172-.44c-.264-.129-.41-.211-.4-.229s.621.223,1.635.463a9.463,9.463,0,0,0,1.8.234,10.319,10.319,0,0,0,2.221-.2,13.173,13.173,0,0,0,3.768-1.494C210.945,127.014,211.472,126.627,211.5,126.668Z" transform="translate(-103.727 -92.833)" fill="#455a64"/>
      <path id="Trazado_147814" data-name="Trazado 147814" d="M140.375,120.088c-7.255-15.956,10-23.967,19.414-21.312,8.848,2.5,12.622,6.9,14.064,12.821a29.342,29.342,0,0,1-.932,17.972c-1.172,2.778-3.205,5.608-6.194,5.954" transform="translate(-78.067 -81.079)" fill="#263238"/>
      <path id="Trazado_147815" data-name="Trazado 147815" d="M150.336,163.564c-.129-7.618-.217-18.1-.217-18.048s-6.551-1.09-7.911-9.639c-.674-4.248-.463-11.222-.105-16.917.328-5.133,3.721-11.421,8.837-10.882L166.9,112.12a3.006,3.006,0,0,1,2.69,3.053h0l-1.043,33" transform="translate(-79.362 -85.123)" fill="#ffd1bd"/>
      <path id="Trazado_147816" data-name="Trazado 147816" d="M149,136.314a1.1,1.1,0,0,0,1.037,1.113,1.043,1.043,0,0,0,1.137-.967,1.09,1.09,0,0,0-1.037-1.113,1.043,1.043,0,0,0-1.137.967Z" transform="translate(-82.356 -96.425)" fill="#263238"/>
      <path id="Trazado_147817" data-name="Trazado 147817" d="M169.2,136.314a1.09,1.09,0,0,0,1.037,1.113,1.043,1.043,0,0,0,1.137-.967,1.1,1.1,0,0,0-1.037-1.113,1.043,1.043,0,0,0-1.137.967Z" transform="translate(-90.719 -96.425)" fill="#263238"/>
      <path id="Trazado_147818" data-name="Trazado 147818" d="M155.015,140.417a8.139,8.139,0,0,0-1.916-.346c-.3-.029-.586-.088-.639-.293a1.535,1.535,0,0,1,.2-.9l.891-2.291a40.423,40.423,0,0,0,2-6,40.042,40.042,0,0,0-2.479,5.825c-.3.8-.586,1.57-.856,2.309a1.717,1.717,0,0,0-.158,1.172.762.762,0,0,0,.5.445,2.2,2.2,0,0,0,.51.07A7.431,7.431,0,0,0,155.015,140.417Z" transform="translate(-83.607 -94.457)" fill="#263238"/>
      <path id="Trazado_147819" data-name="Trazado 147819" d="M156,169.889a21.746,21.746,0,0,0,11.45-3.059s-2.9,5.959-11.45,5.151Z" transform="translate(-85.254 -109.462)" fill="#cc8f75"/>
      <path id="Trazado_147820" data-name="Trazado 147820" d="M186.11,138.293c.129-.059,4.577-2.027,4.629,3.088s-5.1,4.1-5.11,3.973S186.11,138.293,186.11,138.293Z" transform="translate(-97.521 -97.472)" fill="#ffd1bd"/>
      <path id="Trazado_147821" data-name="Trazado 147821" d="M188.267,144.428a1.94,1.94,0,0,0,.24.129.885.885,0,0,0,.668,0,2.209,2.209,0,0,0,1-1.986,2.983,2.983,0,0,0-.264-1.277,1.025,1.025,0,0,0-.68-.674.451.451,0,0,0-.522.246c-.07.146-.035.246-.064.258s-.111-.088-.07-.3a.586.586,0,0,1,.2-.322.68.68,0,0,1,.492-.135,1.254,1.254,0,0,1,.938.785,2.93,2.93,0,0,1,.322,1.424,2.277,2.277,0,0,1-1.277,2.221.932.932,0,0,1-.815-.129C188.279,144.551,188.249,144.439,188.267,144.428Z" transform="translate(-98.611 -98.503)" fill="#cc8f75"/>
      <path id="Trazado_147822" data-name="Trazado 147822" d="M157.637,152.122a4.652,4.652,0,0,0,.639,1.248,1.658,1.658,0,0,0,1.172.686,1.506,1.506,0,0,0,1.283-.7,2.432,2.432,0,0,0,.352-1.43c0-.451-.229-.99-.674-1.043a1.108,1.108,0,0,0-.545.123l-2.344.949" transform="translate(-85.884 -102.858)" fill="#cc8f75"/>
      <path id="Trazado_147823" data-name="Trazado 147823" d="M158.215,153.9a3.252,3.252,0,0,0,1.26-.152,1.811,1.811,0,0,0,.949-.861,1.9,1.9,0,0,0,0-1.541,1.759,1.759,0,0,0-.205-.352c-.094-.1-.076-.094-.176-.076a3.285,3.285,0,0,0-.381.146l-.387.158c-.5.205-.961.381-1.342.527a4.031,4.031,0,0,1-1.283.381,4.277,4.277,0,0,1,1.172-.656c.369-.182.815-.387,1.307-.586l.381-.17a4.1,4.1,0,0,1,.434-.176.539.539,0,0,1,.346,0,.7.7,0,0,1,.264.205,2.459,2.459,0,0,1,.264.451,2.192,2.192,0,0,1-.076,1.881,2,2,0,0,1-1.172.967,1.928,1.928,0,0,1-1.02.041C158.32,154,158.209,153.921,158.215,153.9Z" transform="translate(-85.523 -102.705)" fill="#263238"/>
      <path id="Trazado_147824" data-name="Trazado 147824" d="M193.115,132.609c-.527-.035-4.752.51-4.418,8.368.311,7.342,5.456,5.725,7.1,2.965C197.352,141.323,198.242,132.972,193.115,132.609Z" transform="translate(-98.783 -95.293)" fill="#455a64"/>
      <path id="Trazado_147825" data-name="Trazado 147825" d="M196.86,126.528a1.174,1.174,0,0,1,0-.205v-.586c0-.539-.035-1.3-.064-2.238-.035-1.928-.088-4.606-.152-7.706l.094.094H194.51l.1-.1c0,.586.035,1.2.047,1.828.076,2.93.147,5.69.2,7.993v.064h-.07a3.973,3.973,0,0,0-2.244,1.442,5.362,5.362,0,0,0-.9,1.9,8.367,8.367,0,0,0-.229,1.342v.48a.34.34,0,0,1,0-.123v-.363a7.746,7.746,0,0,1,.188-1.359,5.274,5.274,0,0,1,.885-1.951,4.1,4.1,0,0,1,2.344-1.529l-.064.082c-.064-2.3-.146-5.039-.229-7.987,0-.627-.035-1.248-.047-1.834v-.1h2.373v.094c.035,3.094.064,5.778.088,7.706v2.824a1.436,1.436,0,0,1-.094.234Z" transform="translate(-99.915 -88.28)" fill="#455a64"/>
      <path id="Trazado_147826" data-name="Trazado 147826" d="M186.5,108.652a16.894,16.894,0,0,0-7.483-7.729,31.373,31.373,0,0,0-6.311-2.344s3.076-.727,8.051,1.483a15.584,15.584,0,0,1,6.042,4.278,13.031,13.031,0,0,1,2.145,4.307Z" transform="translate(-92.172 -81.157)" fill="#455a64"/>
      <path id="Trazado_147827" data-name="Trazado 147827" d="M193.6,146.358a.422.422,0,0,1-.152-.041,2.6,2.6,0,0,1-.393-.205,3.469,3.469,0,0,1-1.108-1.172,5.766,5.766,0,0,1-.68-2.3,16.354,16.354,0,0,1,0-2.93,17.951,17.951,0,0,1,.486-2.895,8.169,8.169,0,0,1,.844-2.25,3.475,3.475,0,0,1,1.113-1.172,2.044,2.044,0,0,1,.393-.2.422.422,0,0,1,.152-.041,3.582,3.582,0,0,0-.5.3,3.668,3.668,0,0,0-1.037,1.172,8.589,8.589,0,0,0-.785,2.221,19.2,19.2,0,0,0-.469,2.871,17.8,17.8,0,0,0,0,2.9,5.8,5.8,0,0,0,.621,2.256,3.557,3.557,0,0,0,1.031,1.172C193.426,146.27,193.6,146.34,193.6,146.358Z" transform="translate(-99.827 -95.517)" fill="#263238"/>
      <rect id="Rectángulo_33054" data-name="Rectángulo 33054" width="6.118" height="2.303" rx="1.151" transform="translate(71.794 50.641) rotate(-11.1)" fill="#455a64"/>
      <path id="Trazado_147828" data-name="Trazado 147828" d="M167.5,150.666l17.96-5.637a.856.856,0,0,1,1.084.551h0a.85.85,0,0,1-.586,1.078l-18.371,4.963Z" transform="translate(-90.015 -100.418)" fill="#455a64"/>
      <path id="Trazado_147829" data-name="Trazado 147829" d="M187.865,148.219a5.091,5.091,0,0,1,.586-.205l1.641-.5c.691-.211,1.535-.434,2.432-.727a1.676,1.676,0,0,0,.586-.363.885.885,0,0,0,.252-.627.545.545,0,0,0-.369-.516,1.43,1.43,0,0,0-.75,0l-5.385,1.758-1.641.51a4.375,4.375,0,0,1-.586.158,4.252,4.252,0,0,1,.586-.234l1.623-.586c1.371-.463,3.258-1.113,5.379-1.758a1.482,1.482,0,0,1,.861,0,.732.732,0,0,1,.5.691,1.055,1.055,0,0,1-.311.762,1.8,1.8,0,0,1-.656.4c-.926.293-1.758.492-2.455.691l-1.658.439a3.315,3.315,0,0,1-.633.105Z" transform="translate(-97.107 -100.449)" fill="#263238"/>
      <path id="Trazado_147830" data-name="Trazado 147830" d="M170.116,131.947c-.141.217-1.371-.451-2.895-.182s-2.467,1.3-2.666,1.143c-.1-.064,0-.445.41-.908a3.68,3.68,0,0,1,2.1-1.131,3.639,3.639,0,0,1,2.344.363C169.963,131.508,170.186,131.854,170.116,131.947Z" transform="translate(-88.781 -94.549)" fill="#cc8f75"/>
      <path id="Trazado_147831" data-name="Trazado 147831" d="M169.983,132.65a6.913,6.913,0,0,1-.838-.211,4.568,4.568,0,0,0-3.85.873c-.416.328-.633.586-.668.551s.129-.328.527-.715a4.067,4.067,0,0,1,4.043-.908C169.725,132.4,170,132.6,169.983,132.65Z" transform="translate(-88.824 -95.058)" fill="#263238"/>
      <path id="Trazado_147832" data-name="Trazado 147832" d="M170.873,126.453c-.129.41-1.436.381-2.989.457s-2.865.164-3.012-.234c-.07-.2.2-.5.732-.768a5.936,5.936,0,0,1,4.483-.164C170.638,125.973,170.925,126.254,170.873,126.453Z" transform="translate(-88.923 -92.302)" fill="#263238"/>
      <path id="Trazado_147833" data-name="Trazado 147833" d="M149.716,132.888c-.117.064-.346-.152-.721-.41a3.692,3.692,0,0,0-1.553-.627c-1.324-.217-2.391.393-2.543.176-.07-.088.111-.393.586-.686a3.182,3.182,0,0,1,2.1-.4,2.877,2.877,0,0,1,1.869,1.078C149.787,132.478,149.816,132.835,149.716,132.888Z" transform="translate(-80.652 -94.588)" fill="#cc8f75"/>
      <path id="Trazado_147834" data-name="Trazado 147834" d="M149.487,133.971c-.041,0-.24-.264-.656-.633a4.1,4.1,0,0,0-4-.867c-.527.164-.832.346-.856.3s.24-.281.785-.51a3.873,3.873,0,0,1,2.25-.188,3.821,3.821,0,0,1,1.969,1.107A1.717,1.717,0,0,1,149.487,133.971Z" transform="translate(-80.277 -95.038)" fill="#263238"/>
      <path id="Trazado_147835" data-name="Trazado 147835" d="M150.311,127.4c-.076.416-1.324.539-2.8.557s-2.731-.094-2.813-.516,1.172-1,2.8-1.014S150.393,126.992,150.311,127.4Z" transform="translate(-80.573 -92.735)" fill="#263238"/>
      <path id="Trazado_147836" data-name="Trazado 147836" d="M175.951,107.322a16.894,16.894,0,0,0-2.344,4.412,5.737,5.737,0,0,0,.5,4.823c.9,1.318,2.444,2.016,3.85,2.783s2.842,1.822,3.194,3.381c.105.486-.1,2.2.264,2.537a1.237,1.237,0,0,0,1.758-.393,9.206,9.206,0,0,0,.645-3.135l.088-6.387a11.976,11.976,0,0,0-.779-5.274c-1.1-2.274-3.358-3-6.663-2.836" transform="translate(-92.413 -84.779)" fill="#263238"/>
      <path id="Trazado_147837" data-name="Trazado 147837" d="M141.864,118.623a12.042,12.042,0,0,1,2.426-5.971,8.831,8.831,0,0,1,5.461-3.27c2.156-.328,4.336.27,6.516.393s4.653-.41,5.79-2.268a1.643,1.643,0,0,0,.07-1.9,1.957,1.957,0,0,0-.639-.422,16.408,16.408,0,0,0-9.317-1.506,12.851,12.851,0,0,0-8.163,4.565,10.606,10.606,0,0,0-2.063,9.042" transform="translate(-79.322 -83.258)" fill="#263238"/>
      <path id="Trazado_147838" data-name="Trazado 147838" d="M139.558,116.337a1.108,1.108,0,0,1-.1-.275,5.607,5.607,0,0,1-.176-.832,7.325,7.325,0,0,1,.293-3.106,8.257,8.257,0,0,1,2.572-3.838,10.653,10.653,0,0,1,5.157-2.344,14.479,14.479,0,0,1,5.661.252,19.814,19.814,0,0,1,2.344.715,19.156,19.156,0,0,0,2.01.732,8.643,8.643,0,0,0,3.035.27,2.256,2.256,0,0,0,1-.486.944.944,0,0,1-.2.223,1.822,1.822,0,0,1-.768.381,8.069,8.069,0,0,1-3.123-.182c-.645-.158-1.313-.445-2.033-.7a20.259,20.259,0,0,0-2.344-.68,14.515,14.515,0,0,0-5.549-.229,10.548,10.548,0,0,0-5.022,2.233,8.2,8.2,0,0,0-2.549,3.686,7.407,7.407,0,0,0-.375,3.024C139.47,115.938,139.587,116.331,139.558,116.337Z" transform="translate(-78.311 -84.183)" fill="#455a64"/>
      <path id="Trazado_147839" data-name="Trazado 147839" d="M155.93,100.759a1.758,1.758,0,0,1,.539-.105,7.342,7.342,0,0,1,1.494,0,8.7,8.7,0,0,1,4.547,1.817c.756.586,1.389,1.26,2.063,1.711a5.385,5.385,0,0,0,1.975.8,4.365,4.365,0,0,0,1.442.1c.34-.041.51-.135.527-.111a.961.961,0,0,1-.5.229,4.014,4.014,0,0,1-1.506,0,5.315,5.315,0,0,1-2.092-.773c-.709-.463-1.359-1.119-2.092-1.705a9.13,9.13,0,0,0-4.383-1.846C156.709,100.7,155.936,100.841,155.93,100.759Z" transform="translate(-85.225 -82.047)" fill="#455a64"/>
      <path id="Trazado_147840" data-name="Trazado 147840" d="M189.288,125.3a6.382,6.382,0,0,0-.363-.527,3.645,3.645,0,0,0-1.359-1.049,5.86,5.86,0,0,0-2.5-.5,19.737,19.737,0,0,0-3.158.434,11.526,11.526,0,0,1-3.24.246,8.854,8.854,0,0,1-2.578-.621,8.409,8.409,0,0,1-1.576-.844A2.056,2.056,0,0,1,174,122a16.883,16.883,0,0,0,2.156,1.066,9.4,9.4,0,0,0,2.526.539,11.755,11.755,0,0,0,3.158-.264,17.949,17.949,0,0,1,3.211-.416,5.8,5.8,0,0,1,2.6.586,3.557,3.557,0,0,1,1.365,1.172,2.787,2.787,0,0,1,.223.434C189.282,125.246,189.3,125.3,189.288,125.3Z" transform="translate(-92.706 -90.901)" fill="#455a64"/>
      <path id="Trazado_147841" data-name="Trazado 147841" d="M188.771,117.361a4.306,4.306,0,0,0-.363-.516,3.434,3.434,0,0,0-1.365-.961,5.086,5.086,0,0,0-2.473-.264c-.943.094-1.969.381-3.076.586a6.686,6.686,0,0,1-3.182-.047,5.127,5.127,0,0,1-2.215-1.377,4.934,4.934,0,0,1-.979-1.453,3.38,3.38,0,0,1-.123-.445.439.439,0,0,1,0-.164,6.844,6.844,0,0,0,1.313,1.916,5.174,5.174,0,0,0,2.139,1.26,6.528,6.528,0,0,0,3.053,0c1.084-.205,2.121-.486,3.106-.586a5.127,5.127,0,0,1,2.578.346,3.252,3.252,0,0,1,1.377,1.09A1.277,1.277,0,0,1,188.771,117.361Z" transform="translate(-93.115 -87.059)" fill="#455a64"/>
      <path id="Trazado_147842" data-name="Trazado 147842" d="M161,193.863l.111-.094.322-.258a14.33,14.33,0,0,0,1.172-1.078,20.092,20.092,0,0,0,1.682-1.957c.586-.8,1.272-1.758,1.992-2.824,1.442-2.133,3.129-4.735,4.922-7.729.9-1.5,1.822-3.1,2.754-4.788.234-.422.463-.85.7-1.277a7.751,7.751,0,0,1,.8-1.277,2.783,2.783,0,0,1,1.242-.9,1.506,1.506,0,0,1,.791-.088.821.821,0,0,1,.375.205,1.031,1.031,0,0,1,.205.387h0v.029a1.342,1.342,0,0,1-.275.486.779.779,0,0,1-.516.246,1.647,1.647,0,0,1-1.014-.352,1.717,1.717,0,0,1-.621-1.963,1.5,1.5,0,0,1,.744-.85,1.688,1.688,0,0,1,1.108-.158,1.172,1.172,0,0,1,.9.7.586.586,0,0,1-.129.621,1.119,1.119,0,0,1-.527.287,1.553,1.553,0,0,1-1.717-.785,1.4,1.4,0,0,1-.105-1.008,1.758,1.758,0,0,1,.527-.85,1.365,1.365,0,0,1,.908-.352,1.078,1.078,0,0,1,.867.451.7.7,0,0,1,.105.522.668.668,0,0,1-.287.439,1.037,1.037,0,0,1-.949.117,1.172,1.172,0,0,1-.645-.7,2.69,2.69,0,0,1-.141-.932,3.223,3.223,0,0,1,.463-1.758,1.307,1.307,0,0,1,.732-.551,1.172,1.172,0,0,1,.885.158.867.867,0,0,1,.445.791.809.809,0,0,1-.586.68.944.944,0,0,1-.861-.135,1.231,1.231,0,0,1-.434-.756,1.723,1.723,0,0,1,.076-.85,3.728,3.728,0,0,1,.287-.774,1.471,1.471,0,0,1,.557-.586,1.758,1.758,0,0,1,.756-.258.773.773,0,0,1,.41.053.95.95,0,0,1,.311.275.99.99,0,0,1,.17.375.586.586,0,0,1-.047.428.68.68,0,0,1-.727.281,1.248,1.248,0,0,1-.668-.346,2,2,0,0,1-.586-1.318,2.157,2.157,0,0,1,.357-1.348,1.647,1.647,0,0,1,.5-.469,1.4,1.4,0,0,1,.639-.176.943.943,0,0,1,.627.188.709.709,0,0,1,.264.586.967.967,0,0,1-.844.82,1.02,1.02,0,0,1-.961-.545,1.758,1.758,0,0,1-.24-1.037,6.358,6.358,0,0,1,.639-1.758l.639-1.453c.381-.867.686-1.541.891-2l.234-.521a1.872,1.872,0,0,1,.088-.176,1.4,1.4,0,0,1-.07.182l-.217.527-.856,2.022-.6,1.4a6.487,6.487,0,0,0-.586,1.758,1.623,1.623,0,0,0,.229.967.914.914,0,0,0,.85.481.844.844,0,0,0,.721-.7.586.586,0,0,0-.217-.481.867.867,0,0,0-.533-.152,1.324,1.324,0,0,0-.586.164,1.565,1.565,0,0,0-.451.428,1.981,1.981,0,0,0-.322,1.248,1.828,1.828,0,0,0,.533,1.213,1.066,1.066,0,0,0,.586.3.533.533,0,0,0,.586-.2.621.621,0,0,0-.111-.586.756.756,0,0,0-.252-.223.65.65,0,0,0-.328-.041,1.447,1.447,0,0,0-1.172.785,3.639,3.639,0,0,0-.275.732,1.57,1.57,0,0,0-.064.768,1.02,1.02,0,0,0,.369.639.756.756,0,0,0,.7.111.621.621,0,0,0,.457-.522.692.692,0,0,0-.363-.615,1.008,1.008,0,0,0-.744-.135,1.172,1.172,0,0,0-.621.48,3.106,3.106,0,0,0-.428,1.652,2.45,2.45,0,0,0,.135.856,1,1,0,0,0,.527.586.861.861,0,0,0,.774-.1.492.492,0,0,0,.129-.686.885.885,0,0,0-.709-.363,1.172,1.172,0,0,0-.779.3,1.3,1.3,0,0,0,1.125,2.291.885.885,0,0,0,.434-.229.393.393,0,0,0,.082-.41.985.985,0,0,0-.756-.586,1.424,1.424,0,0,0-1.629.879,1.512,1.512,0,0,0,.586,1.758,1.453,1.453,0,0,0,.891.316.75.75,0,0,0,.621-.586v.053a.586.586,0,0,0-.434-.445,1.354,1.354,0,0,0-.691.082,2.584,2.584,0,0,0-1.172.838,8.541,8.541,0,0,0-.785,1.242q-.352.65-.7,1.283c-.938,1.688-1.869,3.282-2.772,4.782-1.8,2.994-3.516,5.584-4.957,7.717-.732,1.061-1.395,2.016-2.022,2.813a20.251,20.251,0,0,1-1.711,1.94A10.547,10.547,0,0,1,161,193.863Z" transform="translate(-87.324 -104.957)" fill="#263238"/>
    </g>
  </g>
</svg>
