<svg xmlns="http://www.w3.org/2000/svg" xmlns:xlink="http://www.w3.org/1999/xlink" width="374.4" height="347.075" viewBox="0 0 374.4 347.075">
  <defs>
    <linearGradient id="linear-gradient" x1="0.5" x2="0.5" y2="1" gradientUnits="objectBoundingBox">
      <stop offset="0" stop-color="#00bcd4"/>
      <stop offset="1" stop-color="#81d4fa"/>
    </linearGradient>
  </defs>
  <g id="Person_with_medical_mask-pana" data-name="Person with medical mask-pana" transform="translate(-34.804 -51.79)">
    <g id="freepik--background-complete--inject-51" transform="translate(34.804 51.79)">
      <path id="Trazado_148654" data-name="Trazado 148654" d="M84.6,401.8c1.191-4.719-1.927-9.422-5.413-12.848s-7.64-6.441-9.465-10.946c-2.964-7.315.908-16.814-4.111-22.9-2.946-3.572-8.214-4.745-10.835-8.565-1.37-2-1.833-4.48-2.381-6.852A69.722,69.722,0,0,0,34.878,307.34a60.377,60.377,0,0,0,6.946,31.238c2.039,3.829,4.531,7.563,5.225,11.846,1.131,6.955-2.715,14.15-.968,20.976,2,7.812,10.809,12.994,11.272,21.036.394,6.809-5.507,12.848-5.019,19.606A18.336,18.336,0,0,0,55.4,420.1c5.31,8.711,13.079,14.69,24.788,14.433l14.355.42Z" transform="translate(-34.804 -88.453)" fill="#f5f5f5"/>
      <path id="Trazado_148655" data-name="Trazado 148655" d="M106.763,426.957a11.521,11.521,0,0,0,3.957-.111,23.127,23.127,0,0,0,4.651-1.2,19.623,19.623,0,0,0,5.739-3.186,8.026,8.026,0,0,0,2.355-3.169,14.9,14.9,0,0,0,.651-4.283,41.543,41.543,0,0,1,.308-4.642,12.762,12.762,0,0,1,1.713-4.625c1.67-2.981,4.463-5.807,5.353-9.85s.223-8.266-.463-12.574-1.362-8.994.257-13.482,4.634-8.565,6.184-13.636.771-10.612,1.071-16.034a21.353,21.353,0,0,1,1.824-7.974c1.148-2.57,2.749-4.951,3.991-7.632,2.51-5.422,2.929-11.555,3.589-17.559q.488-4.531.976-9.173a45.021,45.021,0,0,1,1.542-9.182,82.411,82.411,0,0,1,3.383-8.908,28.867,28.867,0,0,0,1.636-4.642,44.461,44.461,0,0,0,.437-4.942,57.6,57.6,0,0,0-.437-9.927c-.411-3.306-1.028-6.587-1.4-9.9,0-.2-.051-.394-.069-.574l-.077-.66-.591.291a22.167,22.167,0,0,0-7.709,6.57,35.255,35.255,0,0,0-4.7,8.771c-2.355,6.176-3.186,12.642-4.36,18.844s-2.664,12.24-5.8,17.388c-1.55,2.57-3.426,4.908-5.1,7.409a20.258,20.258,0,0,0-3.512,8.2c-.857,6.073,2.57,11.383,1.893,16.762a18.5,18.5,0,0,1-2.57,7.469c-1.285,2.3-2.8,4.428-4.283,6.578a41.783,41.783,0,0,0-3.812,6.638,21.088,21.088,0,0,0-1.713,7.2c-.325,4.839.385,9.422.06,13.764a31.511,31.511,0,0,1-3.478,11.812c-1.713,3.546-3.623,6.741-5.225,9.85-.805,1.55-1.542,3.066-2.15,4.582a22.638,22.638,0,0,0-1.191,4.54,28.583,28.583,0,0,0-.06,8.188,20.737,20.737,0,0,0,4.163,10.424,10.6,10.6,0,0,0,1.173,1.251,5.378,5.378,0,0,0,.942.788,10.044,10.044,0,0,0,.857.574,18.515,18.515,0,0,1-2.792-2.732A20.651,20.651,0,0,1,100.04,413.9a28.266,28.266,0,0,1,.137-8.077,21.962,21.962,0,0,1,1.242-4.437c.6-1.482,1.353-2.989,2.158-4.522,1.619-3.075,3.546-6.27,5.3-9.833a32.292,32.292,0,0,0,3.6-11.991c.351-4.428-.343-9.036,0-13.764a20.145,20.145,0,0,1,1.713-6.955,41.327,41.327,0,0,1,3.769-6.51c1.439-2.133,2.981-4.283,4.283-6.629a19.366,19.366,0,0,0,2.69-7.76c.66-5.73-2.69-11.084-1.859-16.728a19.434,19.434,0,0,1,3.426-7.837c1.619-2.458,3.52-4.805,5.139-7.435,3.229-5.293,4.779-11.478,5.936-17.679s2.013-12.608,4.334-18.655a33.987,33.987,0,0,1,4.574-8.565,21.191,21.191,0,0,1,7.358-6.287l-.66-.368a4.679,4.679,0,0,0,.069.582c.377,3.358.994,6.638,1.4,9.91a56.8,56.8,0,0,1,.437,9.782,47.639,47.639,0,0,1-.411,4.788,28.487,28.487,0,0,1-1.585,4.48,82.232,82.232,0,0,0-3.495,9,45.439,45.439,0,0,0-1.559,9.336q-.488,4.642-.968,9.182c-.651,6-1.071,12.069-3.495,17.293-1.191,2.612-2.784,5.019-3.966,7.649a22.15,22.15,0,0,0-1.876,8.274c-.283,5.542.471,10.947-1,15.863s-4.565,8.976-6.124,13.619-.934,9.533-.223,13.816,1.43,8.514.531,12.334-3.52,6.664-5.233,9.73a13.19,13.19,0,0,0-1.713,4.814,41.022,41.022,0,0,0-.274,4.694,14.707,14.707,0,0,1-.591,4.18,7.777,7.777,0,0,1-2.21,3.032,19.7,19.7,0,0,1-5.6,3.195,24.709,24.709,0,0,1-4.591,1.276,18.492,18.492,0,0,1-2.912.3C107.089,426.949,106.763,426.957,106.763,426.957Z" transform="translate(-44.069 -80.096)" fill="#e0e0e0"/>
      <path id="Trazado_148656" data-name="Trazado 148656" d="M152.365,259.09a1.423,1.423,0,0,0-.137.437c-.086.343-.188.771-.308,1.293-.283,1.131-.608,2.844-1.139,4.976s-1.833,4.54-2.929,7.512-2.3,6.355-3.358,10.193-2.013,8.086-3.006,12.651-2.039,9.422-4.514,14.039c-1.165,2.338-2.475,4.7-3.512,7.289a33.678,33.678,0,0,0-2.013,8.248,167.02,167.02,0,0,1-3,17.37c-2.809,11.777-5.49,23-7.923,33.208s-4.754,19.349-6.647,27.075-3.349,13.893-4.4,18.278l-1.156,4.985c-.111.522-.206.951-.274,1.293a2.294,2.294,0,0,0-.069.454,1.713,1.713,0,0,0,.163-.428l.36-1.276c.325-1.2.762-2.852,1.319-4.942,1.131-4.368,2.724-10.57,4.694-18.2l6.852-27.032c2.458-10.218,5.139-21.413,8-33.216a164.605,164.605,0,0,0,2.972-17.473,33.4,33.4,0,0,1,1.944-8.043c1-2.518,2.287-4.874,3.426-7.238,2.5-4.7,3.52-9.73,4.5-14.261s1.867-8.805,2.9-12.634,2.116-7.238,3.2-10.184a77.443,77.443,0,0,0,2.8-7.606c.514-2.2.745-3.872.968-5.028.086-.531.163-.959.214-1.31A1.987,1.987,0,0,0,152.365,259.09Z" transform="translate(-45.302 -81.531)" fill="#e0e0e0"/>
      <path id="Trazado_148657" data-name="Trazado 148657" d="M102.066,419.465c9.345-5.627,11.94-22.552,7.966-32.711S99.17,367.337,98.04,356.493c-.857-8.334,1.824-16.917-.171-25.054C95.188,320.45,84.4,311.988,84.455,300.673c0-6.347,3.615-12.334,3.289-18.672-.394-7.777-6.4-13.91-10.141-20.745-5.713-10.45-6.158-22.852-8.163-34.6s-6.535-24.308-17-30.03c-1.482,9.987-4.069,16.839-3.169,30.355.325,4.857,6,14.124,6.852,24.762.5,6.355.857,12.728,1.276,19.092.411,6.193.857,12.5,3.1,18.278,1.713,4.437,4.488,8.454,5.773,13.036,2.433,8.608-.642,17.987,1.328,26.7,1.713,7.4,6.852,13.7,7.923,21.242,1.525,10.544-5.242,21.542-1.713,31.589,1.764,4.985,5.893,8.968,7.092,14.116.925,4,0,8.24.805,12.257,1.353,6.467,13.7,11.418,20.325,10.981" transform="translate(-36.853 -72.57)" fill="#e0e0e0"/>
      <path id="Trazado_148658" data-name="Trazado 148658" d="M56.1,208.18a2.57,2.57,0,0,0,0,.565c.06.42.128.959.223,1.636.223,1.439.48,3.555.976,6.3s1.979,5.833,3.135,9.567,2.424,8.009,3.5,12.848,2.021,10.124,3,15.846,2.03,11.991,4.908,17.9c1.328,2.989,2.818,6,3.949,9.165a41.233,41.233,0,0,1,2.03,10.124A204.792,204.792,0,0,0,80.7,313.945c2.955,14.775,5.764,28.839,8.325,41.653,2.7,12.754,5.139,24.248,7.169,33.927l4.916,22.852c.582,2.647,1.045,4.728,1.379,6.2.154.668.283,1.2.377,1.61a2.457,2.457,0,0,0,.163.54,2.5,2.5,0,0,0-.069-.557c-.077-.42-.171-.951-.291-1.627-.291-1.49-.694-3.58-1.208-6.244-1.1-5.465-2.681-13.285-4.625-22.912s-4.308-21.191-6.938-34-5.328-26.878-8.248-41.645a205.271,205.271,0,0,1-2.887-21.782,41.841,41.841,0,0,0-2.1-10.278c-1.165-3.255-2.672-6.253-4.009-9.216-2.852-5.867-3.88-11.991-4.925-17.7s-1.97-11.041-3.109-15.854-2.39-9.113-3.657-12.848-2.69-6.852-3.272-9.49-.857-4.814-1.148-6.236c-.128-.677-.231-1.208-.308-1.627a2.569,2.569,0,0,0-.137-.54Z" transform="translate(-37.857 -74.227)" fill="#ebebeb"/>
      <rect id="Rectángulo_33245" data-name="Rectángulo 33245" width="97.233" height="101.353" transform="translate(55.671 0.026)" fill="#e0e0e0"/>
      <rect id="Rectángulo_33246" data-name="Rectángulo 33246" width="97.233" height="101.353" transform="translate(49.084 0.026)" fill="#fafafa"/>
      <path id="Trazado_148659" data-name="Trazado 148659" d="M189.365,153.2H92.08V51.79h97.285Zm-97.225-.06H189.3V51.85H92.14Z" transform="translate(-43.021 -51.79)" fill="#e0e0e0"/>
      <rect id="Rectángulo_33247" data-name="Rectángulo 33247" width="71.092" height="74.107" transform="translate(62.155 13.653)" fill="#fafafa"/>
      <path id="Trazado_148660" data-name="Trazado 148660" d="M105.2,154.82a10.9,10.9,0,0,1-1.756,2.039c-1.131,1.2-2.724,2.827-4.514,4.582s-3.426,3.332-4.642,4.445A11.726,11.726,0,0,1,92.23,167.6a11.135,11.135,0,0,1,1.713-2.03c1.139-1.2,2.741-2.827,4.531-4.591s3.426-3.34,4.651-4.454A11.923,11.923,0,0,1,105.2,154.82Z" transform="translate(-43.043 -66.572)" fill="#e0e0e0"/>
      <path id="Trazado_148661" data-name="Trazado 148661" d="M190.37,154.61a11.691,11.691,0,0,1,2.039,1.713c1.2,1.131,2.818,2.732,4.582,4.514s3.332,3.426,4.445,4.651a11.032,11.032,0,0,1,1.713,2.056,11.522,11.522,0,0,1-2.03-1.713c-1.2-1.139-2.827-2.741-4.591-4.531s-3.34-3.426-4.454-4.651a11.075,11.075,0,0,1-1.7-2.039Z" transform="translate(-57.123 -66.541)" fill="#e0e0e0"/>
      <path id="Trazado_148662" data-name="Trazado 148662" d="M190.14,65.859a11.692,11.692,0,0,1,1.756-2.039c1.139-1.2,2.732-2.818,4.522-4.582s3.426-3.332,4.642-4.445a11.366,11.366,0,0,1,2.056-1.713,11.075,11.075,0,0,1-1.713,2.03c-1.139,1.2-2.732,2.827-4.531,4.591s-3.426,3.34-4.651,4.454a11.075,11.075,0,0,1-2.081,1.7Z" transform="translate(-57.09 -51.975)" fill="#e0e0e0"/>
      <path id="Trazado_148663" data-name="Trazado 148663" d="M105,66.005a11.589,11.589,0,0,1-2.039-1.713c-1.2-1.131-2.818-2.724-4.582-4.514s-3.332-3.426-4.445-4.642A10.929,10.929,0,0,1,92.22,53.08a11.554,11.554,0,0,1,2.03,1.713c1.2,1.139,2.818,2.741,4.591,4.531s3.34,3.426,4.454,4.66a10.9,10.9,0,0,1,1.7,2.021Z" transform="translate(-43.041 -51.975)" fill="#e0e0e0"/>
      <path id="Trazado_148664" data-name="Trazado 148664" d="M178.231,141.757v-5.4c0-3.512,0-8.617-.077-15.1,0-12.985-.077-31.469-.137-53.61l.274.274H107.4l.317-.317v74.107l-.274-.274,51.332.137,14.424.077h.111l-14.364.069-51.5.137h-.266v-.266c0-21.465,0-46.9-.051-74.107V67.17h71.486v.274c-.06,22.21-.1,40.762-.137,53.782,0,6.458-.051,11.546-.069,15.041v4.951A2.458,2.458,0,0,1,178.231,141.757Z" transform="translate(-45.181 -53.997)" fill="#e0e0e0"/>
      <rect id="Rectángulo_33248" data-name="Rectángulo 33248" width="23.726" height="23.717" transform="translate(85.838 38.844)" fill="#ebebeb"/>
      <path id="Trazado_148665" data-name="Trazado 148665" d="M399.389,109.56V198H272.374l-4.574-87.82Z" transform="translate(-68.232 -60.078)" fill="#e0e0e0"/>
      <rect id="Rectángulo_33249" data-name="Rectángulo 33249" width="87.632" height="127.015" transform="translate(199.56 137.73) rotate(-90)" fill="#fff"/>
      <path id="Trazado_148666" data-name="Trazado 148666" d="M395.313,198.419H267.09V109.58H395.313ZM268.3,197.212H394.105V110.8H268.3Z" transform="translate(-68.13 -60.081)" fill="#e0e0e0"/>
      <rect id="Rectángulo_33250" data-name="Rectángulo 33250" width="99.503" height="65.859" transform="translate(213.324 60.994)" fill="#fff"/>
      <path id="Trazado_148667" data-name="Trazado 148667" d="M383.28,122.938h-7.375l-20.505.077-71.623.137.283-.283v65.842h0l-.308-.308,99.5.06-.257.248c.06-20.043.1-36.471.137-47.914,0-5.722.051-10.184.06-13.251v-.1c0,3.049,0,7.495.069,13.191,0,11.478.069,27.966.128,48.069v.248h-.111l-99.5.069h-.317V188.7h0V122.57h.291l71.812.146,20.445.077h6.784A1.607,1.607,0,0,0,383.28,122.938Z" transform="translate(-70.478 -61.945)" fill="#e0e0e0"/>
      <path id="Trazado_148668" data-name="Trazado 148668" d="M267.8,110a10.553,10.553,0,0,1,2.184,1.413c1.293.942,3.066,2.27,4.976,3.794s3.589,2.981,4.771,4.06a10.629,10.629,0,0,1,1.824,1.867c-.12.128-3.178-2.39-6.989-5.43S267.688,110.146,267.8,110Z" transform="translate(-68.231 -60.141)" fill="#e0e0e0"/>
      <path id="Trazado_148669" data-name="Trazado 148669" d="M413.785,110.289a63.258,63.258,0,0,1-6.69,5.687,64.1,64.1,0,0,1-7.066,5.2,62.022,62.022,0,0,1,6.681-5.7A64.318,64.318,0,0,1,413.785,110.289Z" transform="translate(-87.202 -60.182)" fill="#e0e0e0"/>
      <path id="Trazado_148670" data-name="Trazado 148670" d="M413.628,210.688,399.47,199.21" transform="translate(-87.122 -72.94)" fill="#fff"/>
      <path id="Trazado_148671" data-name="Trazado 148671" d="M399.44,199.209c.1-.137,3.366,2.321,7.272,5.49s7,5.85,6.852,6-3.366-2.33-7.281-5.5S399.328,199.338,399.44,199.209Z" transform="translate(-87.117 -72.939)" fill="#e0e0e0"/>
      <path id="Trazado_148672" data-name="Trazado 148672" d="M267.8,210.786c-.111-.137,2.852-2.655,6.612-5.627s6.9-5.276,7-5.139-2.852,2.655-6.612,5.627S267.9,210.923,267.8,210.786Z" transform="translate(-68.231 -73.055)" fill="#e0e0e0"/>
      <rect id="Rectángulo_33251" data-name="Rectángulo 33251" width="22.047" height="62.612" transform="translate(233.53 103.563) rotate(-90)" fill="#e0e0e0"/>
    </g>
    <g id="freepik--Character--inject-51" transform="translate(40.501 91.056)">
      <path id="Trazado_148673" data-name="Trazado 148673" d="M409.92,245.956l10.6-12.848s2.664-17.4,2.3-19.846a82.655,82.655,0,0,0-2.929-9.61,1.507,1.507,0,0,1,1.191-1.987c1.927-.317,5.079,0,7.529,4.651,2.244,4.283,3.426,10.056,3.991,13.816a3.246,3.246,0,0,0,4.18,2.57,110.014,110.014,0,0,1,14.887-3.606c2.9-.334,6.176,2.433,6.809,4.505.48,1.559-1.961,4.54-1.961,4.54a7.325,7.325,0,0,1,3.426,2.784c.12.231.231.454.325.677a4.54,4.54,0,0,1-.548,4.471l-.668.857s3.084.522,3.623,2.21a10.279,10.279,0,0,1,.283,3.8l-2.527,3.186a4.805,4.805,0,0,1,1.713,2.57c.3,1.567-3.538,5.91-3.538,5.91l-19.452,7.383-6.852,6.535Z" transform="translate(-94.318 -112.546)" fill="#b78876"/>
      <path id="Trazado_148674" data-name="Trazado 148674" d="M462.458,231.966a1.884,1.884,0,0,1-.4.24l-1.208.608-4.463,2.176-6.647,3.169c-1.259.574-2.57,1.268-3.991,1.782a5.139,5.139,0,0,1-4.677-.351,3.537,3.537,0,0,1-1.328-2.09,4.959,4.959,0,0,1,.086-2.381,6.7,6.7,0,0,1,2.638-3.529,26.368,26.368,0,0,1,3.426-2.013l3.032-1.6,4.4-2.287,1.208-.608a1.876,1.876,0,0,1,.437-.18,2.021,2.021,0,0,1-.394.257l-1.165.677-4.334,2.415-3.006,1.653a27.237,27.237,0,0,0-3.34,2.013,6.381,6.381,0,0,0-2.467,3.315,3.692,3.692,0,0,0,1.088,3.991,3.8,3.8,0,0,0,2.1.668,6.236,6.236,0,0,0,2.176-.36c1.4-.488,2.69-1.182,3.957-1.713l6.681-3.084,4.522-2.047,1.242-.54A1.807,1.807,0,0,1,462.458,231.966Z" transform="translate(-98.582 -115.892)" fill="#aa6550"/>
      <path id="Trazado_148675" data-name="Trazado 148675" d="M465.349,243.343a5.241,5.241,0,0,1-.934.5c-.617.291-1.508.694-2.63,1.165-2.227.951-5.353,2.176-8.857,3.366a24.57,24.57,0,0,1-2.612.779,5.079,5.079,0,0,1-2.57-.051,3.957,3.957,0,0,1-2.681-3.272,3.863,3.863,0,0,1,.814-2.784,3.335,3.335,0,0,1,.565-.557c.146-.1.231-.146.24-.137a6.111,6.111,0,0,0-.668.8,3.9,3.9,0,0,0-.642,2.638,3.666,3.666,0,0,0,2.492,2.921,4.754,4.754,0,0,0,2.381,0,25.269,25.269,0,0,0,2.57-.779c3.5-1.182,6.63-2.355,8.882-3.229l2.681-1.036A5.077,5.077,0,0,1,465.349,243.343Z" transform="translate(-99.358 -118.395)" fill="#aa6550"/>
      <path id="Trazado_148676" data-name="Trazado 148676" d="M466.319,252.818a3.949,3.949,0,0,1-.925.308l-2.57.685c-2.176.557-5.182,1.293-8.505,2.081a23.488,23.488,0,0,1-2.475.505,4.42,4.42,0,0,1-2.39-.3,2.57,2.57,0,0,1-1.482-1.627,2.844,2.844,0,0,1,.12-1.9,3.966,3.966,0,0,1,1.841-1.961,2.4,2.4,0,0,1,.908-.368s-.308.171-.857.514a4.06,4.06,0,0,0-1.636,1.927,2.629,2.629,0,0,0-.06,1.713,2.244,2.244,0,0,0,1.3,1.353,4.137,4.137,0,0,0,2.167.248,23.239,23.239,0,0,0,2.424-.514c3.323-.788,6.347-1.473,8.565-1.953l2.57-.548a4.9,4.9,0,0,1,1-.163Z" transform="translate(-99.762 -119.527)" fill="#aa6550"/>
      <path id="Trazado_148677" data-name="Trazado 148677" d="M466.453,261.382a17.544,17.544,0,0,1-2.878.146H454.65a7.582,7.582,0,0,1-1.876-.163,2.655,2.655,0,0,1-1.507-.925,1.773,1.773,0,0,1-.326-1.516,2.57,2.57,0,0,1,1.43-1.6,1.354,1.354,0,0,1,.771-.163c0,.043-.274.077-.694.317a2.441,2.441,0,0,0-1.2,1.525,1.448,1.448,0,0,0,.308,1.216,2.467,2.467,0,0,0,1.311.754,8.566,8.566,0,0,0,1.79.12h1.979c2.707,0,5.139.069,6.938.12a19.071,19.071,0,0,1,2.878.171Z" transform="translate(-100.196 -120.519)" fill="#aa6550"/>
      <path id="Trazado_148678" data-name="Trazado 148678" d="M446.55,253.11a25.046,25.046,0,0,0-4.779-1.516,24.607,24.607,0,0,0-5.011-.06,11.015,11.015,0,0,1,9.79,1.576Z" transform="translate(-98.169 -119.639)" fill="#aa6550"/>
      <path id="Trazado_148679" data-name="Trazado 148679" d="M294.838,294.083l64.857-46.655,23.058,26.424-50.758,52.317c-22.681,20.514-30.621,25.7-68.223,4.283l-23.863-13.7,8.814,108.839H140.8c-11.854-.377,15.418-30.116,13.55-30.116l-23.675-79.923L94.05,340.164l34.715,27.143-12.848,29.73L56.56,369.6c-21.516-14.313-18.63-42.193-.274-60.385,33.062-32.762,58.647-56.6,86.912-61.43,14.561-4.377,23.126-5.139,23.126-5.139,22.749-.326,24.445-.248,36.634.325a51.852,51.852,0,0,1,7.066.857,82.75,82.75,0,0,1,36.754,15.126Z" transform="translate(-41.455 -118.41)" fill="#7e5ee3"/>
      <path id="Trazado_148680" data-name="Trazado 148680" d="M338.557,324.384a3.2,3.2,0,0,1-.5-.788,18.851,18.851,0,0,1-1.062-2.3,24.07,24.07,0,0,1-1.088-3.606,28.1,28.1,0,0,1-.582-4.574,27.181,27.181,0,0,1,.257-4.608,24.351,24.351,0,0,1,.857-3.675,18.683,18.683,0,0,1,.857-2.373,3.657,3.657,0,0,1,.437-.857c.086,0-.445,1.242-1,3.28a29.854,29.854,0,0,0-.711,3.64,29.444,29.444,0,0,0-.214,4.531,30.667,30.667,0,0,0,.531,4.505,29.385,29.385,0,0,0,.977,3.572C338.018,323.176,338.634,324.341,338.557,324.384Z" transform="translate(-83.615 -126.896)" fill="#263238"/>
      <path id="Trazado_148681" data-name="Trazado 148681" d="M268.708,349.582a35.118,35.118,0,0,0-10.4-53.362" transform="translate(-72.567 -126.124)" fill="#7e5ee3"/>
      <path id="Trazado_148682" data-name="Trazado 148682" d="M258.27,298.19a2.031,2.031,0,0,1,.463.274c.283.2.737.471,1.259.857a36.312,36.312,0,0,1,4.283,3.734,53.448,53.448,0,0,1,10.347,15.529,24.043,24.043,0,0,1,2.261,10.081,27.709,27.709,0,0,1-1.336,8.317,42.166,42.166,0,0,1-2.056,5.293l-.694,1.379a2.874,2.874,0,0,1-.265.471,2.2,2.2,0,0,1,.188-.505c.154-.368.36-.857.608-1.413a51.646,51.646,0,0,0,1.919-5.31,28.738,28.738,0,0,0,1.225-8.231,23.983,23.983,0,0,0-2.278-9.867,56.017,56.017,0,0,0-10.158-15.5,42.322,42.322,0,0,0-4.163-3.812c-.514-.428-.942-.719-1.208-.951A2.571,2.571,0,0,1,258.27,298.19Z" transform="translate(-72.561 -126.407)" fill="#263238"/>
      <path id="Trazado_148683" data-name="Trazado 148683" d="M226.251,334.07a.95.95,0,0,1,0,.368,6.572,6.572,0,0,1-.069,1.045,20.941,20.941,0,0,1-.754,3.777,22.655,22.655,0,0,1-18.15,16.06,20.553,20.553,0,0,1-3.846.291c-.454,0-.814-.051-1.045-.06a1.2,1.2,0,0,1-.368-.06,13.522,13.522,0,0,1,1.413-.06,24.118,24.118,0,0,0,3.786-.42,23.075,23.075,0,0,0,17.91-15.863,24.958,24.958,0,0,0,.857-3.717,12.855,12.855,0,0,1,.266-1.362Z" transform="translate(-64.491 -131.554)" fill="#263238"/>
      <path id="Trazado_148684" data-name="Trazado 148684" d="M178.633,381.25a1.781,1.781,0,0,1,.12.48c.069.368.146.857.248,1.4a21.223,21.223,0,0,1,.308,2.227c.077.857.214,1.867.231,2.972,0,.548.043,1.131.06,1.713s0,1.225,0,1.876c0,1.3-.146,2.681-.266,4.137a57.52,57.52,0,0,1-1.859,9.31,56.681,56.681,0,0,1-3.512,8.822c-.685,1.285-1.319,2.527-2.03,3.615-.343.548-.651,1.1-.994,1.593l-.994,1.422a29.422,29.422,0,0,1-1.807,2.364c-.54.651-1.045,1.251-1.465,1.713s-.719.762-.976,1.036a1.941,1.941,0,0,1-.36.343,3.006,3.006,0,0,1,.291-.4l.908-1.088c.4-.463.857-1.036,1.4-1.713a20.3,20.3,0,0,0,1.713-2.4l.959-1.422c.334-.5.634-1.045.968-1.593.694-1.1,1.31-2.33,1.979-3.606a54.1,54.1,0,0,0,5.328-17.987c.128-1.448.291-2.818.3-4.1,0-.642.069-1.268.06-1.867s0-1.173,0-1.713c0-1.1-.111-2.081-.163-2.955s-.146-1.619-.231-2.227-.12-1.036-.163-1.4A3.088,3.088,0,0,1,178.633,381.25Z" transform="translate(-59.229 -138.323)" fill="#263238"/>
      <path id="Trazado_148685" data-name="Trazado 148685" d="M76.19,351.212a3.5,3.5,0,0,1,.925-.317,10.829,10.829,0,0,1,1.122-.274c.437-.086.942-.206,1.5-.266a24.741,24.741,0,0,1,3.974-.266,28.578,28.578,0,0,1,4.839.514,29.849,29.849,0,0,1,4.677,1.388,26.061,26.061,0,0,1,3.563,1.764,11.942,11.942,0,0,1,1.285.857c.377.274.677.48.925.677a3.871,3.871,0,0,1,.737.651c-.051.068-1.148-.8-3.109-1.884a28.168,28.168,0,0,0-3.555-1.653,31.24,31.24,0,0,0-4.608-1.336,31.691,31.691,0,0,0-4.762-.54,30.236,30.236,0,0,0-3.923.163C77.552,350.912,76.207,351.289,76.19,351.212Z" transform="translate(-46.438 -133.852)" fill="#263238"/>
      <path id="Trazado_148686" data-name="Trazado 148686" d="M158.131,292.492a1.988,1.988,0,0,1,.069-.505c.077-.377.163-.857.283-1.439a50.625,50.625,0,0,0,.711-5.293,35.975,35.975,0,0,0-.24-7.9,26.552,26.552,0,0,0-3.058-9.113,20.917,20.917,0,0,0-6.39-7.109,18.484,18.484,0,0,0-7.255-2.9,16.349,16.349,0,0,0-5.293,0c-1.251.206-1.91.445-1.927.394a2.913,2.913,0,0,1,.48-.18,10.822,10.822,0,0,1,1.413-.385,15.7,15.7,0,0,1,5.379-.128,18.228,18.228,0,0,1,7.435,2.878,20.822,20.822,0,0,1,6.544,7.229,26.553,26.553,0,0,1,3.075,9.268,34.672,34.672,0,0,1,.146,7.983,40.923,40.923,0,0,1-.857,5.311c-.137.617-.257,1.088-.351,1.413A2.568,2.568,0,0,1,158.131,292.492Z" transform="translate(-54.88 -120.606)" fill="#263238"/>
      <path id="Trazado_148687" data-name="Trazado 148687" d="M122.573,290.428a57.131,57.131,0,0,1-.188-7.049,55.193,55.193,0,0,1,.266-7.049,56.131,56.131,0,0,1,.18,7.049,56.249,56.249,0,0,1-.257,7.049Z" transform="translate(-53.061 -123.27)" fill="#fafafa"/>
      <path id="Trazado_148688" data-name="Trazado 148688" d="M102.533,315.513a28.019,28.019,0,0,1-3.358-3.572,26.821,26.821,0,0,1-3.015-3.872,27.768,27.768,0,0,1,3.358,3.58,26.5,26.5,0,0,1,3.015,3.863Z" transform="translate(-49.304 -127.824)" fill="#fafafa"/>
      <path id="Trazado_148689" data-name="Trazado 148689" d="M133.434,312.05a43.387,43.387,0,0,1-6.047,1.807,44.7,44.7,0,0,1-6.167,1.379,43.3,43.3,0,0,1,6.056-1.807,44.453,44.453,0,0,1,6.158-1.379Z" transform="translate(-52.899 -128.395)" fill="#fafafa"/>
      <path id="Trazado_148690" data-name="Trazado 148690" d="M148.634,299.6a6.389,6.389,0,0,1-.36-1.713c-.146-1.079-.291-2.57-.36-4.283a41.568,41.568,0,0,1,.051-4.283,6.467,6.467,0,0,1,.223-1.756c.128,0,.051,2.69.171,6S148.763,299.587,148.634,299.6Z" transform="translate(-56.724 -124.883)" fill="#fafafa"/>
      <path id="Trazado_148691" data-name="Trazado 148691" d="M99.058,343.417a39.2,39.2,0,0,1-.223-5.859,38.459,38.459,0,0,1,.231-5.859,38.543,38.543,0,0,1,.214,5.859,39.194,39.194,0,0,1-.223,5.859Z" transform="translate(-49.684 -131.214)" fill="#fafafa"/>
      <path id="Trazado_148692" data-name="Trazado 148692" d="M74.7,337.126a65.8,65.8,0,0,1-7.246-2.638,66.756,66.756,0,0,1-7.075-3.058,65.8,65.8,0,0,1,7.246,2.647,68.755,68.755,0,0,1,7.075,3.049Z" transform="translate(-44.17 -131.175)" fill="#fafafa"/>
      <path id="Trazado_148693" data-name="Trazado 148693" d="M58,361.037a38.142,38.142,0,0,1,.428-5.884,39.8,39.8,0,0,1,.857-5.833,38.09,38.09,0,0,1-.428,5.884A39.3,39.3,0,0,1,58,361.037Z" transform="translate(-43.829 -133.742)" fill="#fafafa"/>
      <path id="Trazado_148694" data-name="Trazado 148694" d="M86.655,382.9a12.662,12.662,0,0,1-2.253-.522c-1.379-.36-3.272-.857-5.388-1.345s-4.034-.857-5.43-1.173a13.706,13.706,0,0,1-2.244-.522,10.493,10.493,0,0,1,2.3.214c1.4.206,3.349.548,5.473,1.045s4.017,1.036,5.37,1.482A11.679,11.679,0,0,1,86.655,382.9Z" transform="translate(-45.743 -138.049)" fill="#fafafa"/>
      <path id="Trazado_148695" data-name="Trazado 148695" d="M99.707,372.3A80.4,80.4,0,0,1,97.18,360.57a41.257,41.257,0,0,1,1.482,5.824,41.214,41.214,0,0,1,1.045,5.91Z" transform="translate(-49.45 -135.356)" fill="#fafafa"/>
      <path id="Trazado_148696" data-name="Trazado 148696" d="M108.962,403.418a7.708,7.708,0,0,1-2-.154A42.209,42.209,0,0,1,97.7,400.8a7.854,7.854,0,0,1-1.8-.857,10.391,10.391,0,0,1,1.91.557c1.165.377,2.775.857,4.582,1.362s3.426.857,4.651,1.088a9.894,9.894,0,0,1,1.919.471Z" transform="translate(-49.266 -141.005)" fill="#fafafa"/>
      <path id="Trazado_148697" data-name="Trazado 148697" d="M123.557,398.6a10.279,10.279,0,0,1,.094-2.1c.1-1.293.24-3.075.317-5.054s.094-3.76.1-5.054a11.563,11.563,0,0,1,.069-2.107,8.668,8.668,0,0,1,.248,2.1,45.348,45.348,0,0,1,0,5.088,49.682,49.682,0,0,1-.445,5.062,9.217,9.217,0,0,1-.385,2.064Z" transform="translate(-53.232 -138.759)" fill="#fafafa"/>
      <path id="Trazado_148698" data-name="Trazado 148698" d="M169.965,329.5c-.1.077-1.833-2.141-4.146-4.7s-4.334-4.522-4.24-4.625a7.605,7.605,0,0,1,1.439,1.156,44.392,44.392,0,0,1,3.126,3.169c1.165,1.293,2.15,2.527,2.827,3.426a7.041,7.041,0,0,1,.994,1.576Z" transform="translate(-58.689 -129.56)" fill="#fafafa"/>
      <path id="Trazado_148699" data-name="Trazado 148699" d="M198.3,305.89a27.41,27.41,0,0,1-3.769,3.3,28.484,28.484,0,0,1-4.051,2.946,28.835,28.835,0,0,1,3.769-3.3A28.488,28.488,0,0,1,198.3,305.89Z" transform="translate(-62.835 -127.511)" fill="#fafafa"/>
      <path id="Trazado_148700" data-name="Trazado 148700" d="M183.851,289.143a74.522,74.522,0,0,1-.111-8.206,74.71,74.71,0,0,1,.343-8.2,75.939,75.939,0,0,1,.1,8.206A76.313,76.313,0,0,1,183.851,289.143Z" transform="translate(-61.859 -122.755)" fill="#fafafa"/>
      <path id="Trazado_148701" data-name="Trazado 148701" d="M229.65,262.988a60.406,60.406,0,0,1,3.161-6.5,58.806,58.806,0,0,1,3.555-6.287,57.037,57.037,0,0,1-3.161,6.492A57.777,57.777,0,0,1,229.65,262.988Z" transform="translate(-68.455 -119.521)" fill="#fafafa"/>
      <path id="Trazado_148702" data-name="Trazado 148702" d="M224.735,292.725a74.593,74.593,0,0,1-4.942-6.45,74.967,74.967,0,0,1-4.582-6.715,71.464,71.464,0,0,1,4.942,6.45,77.226,77.226,0,0,1,4.582,6.715Z" transform="translate(-66.383 -123.734)" fill="#fafafa"/>
      <path id="Trazado_148703" data-name="Trazado 148703" d="M259.251,274.57a44.2,44.2,0,0,1-4.128,4.839,46.25,46.25,0,0,1-4.463,4.54,46.157,46.157,0,0,1,4.137-4.839,48.014,48.014,0,0,1,4.454-4.54Z" transform="translate(-71.469 -123.018)" fill="#fafafa"/>
      <path id="Trazado_148704" data-name="Trazado 148704" d="M248.538,320.5a64.9,64.9,0,0,1-4.548-6.167,67.045,67.045,0,0,1-4.18-6.415,67.223,67.223,0,0,1,4.548,6.159A65.3,65.3,0,0,1,248.538,320.5Z" transform="translate(-69.913 -127.802)" fill="#fafafa"/>
      <path id="Trazado_148705" data-name="Trazado 148705" d="M211.81,335.8a47.5,47.5,0,0,1,2.261-6.073,48.485,48.485,0,0,1,2.681-5.91,47.861,47.861,0,0,1-2.261,6.081A48.7,48.7,0,0,1,211.81,335.8Z" transform="translate(-65.896 -130.084)" fill="#fafafa"/>
      <path id="Trazado_148706" data-name="Trazado 148706" d="M183.454,357.527c-.06.1-3.846-1.773-8.454-4.2s-8.3-4.488-8.24-4.591,3.837,1.764,8.445,4.2S183.505,357.416,183.454,357.527Z" transform="translate(-59.432 -133.658)" fill="#fafafa"/>
      <path id="Trazado_148707" data-name="Trazado 148707" d="M203,393.366a11,11,0,0,1,1.113-2.133,57.845,57.845,0,0,1,3.221-4.831,56.169,56.169,0,0,1,3.7-4.48,11.279,11.279,0,0,1,1.713-1.713,15.205,15.205,0,0,1-1.49,1.893c-.942,1.139-2.227,2.732-3.572,4.54s-2.493,3.5-3.315,4.728a15.924,15.924,0,0,1-1.37,2Z" transform="translate(-64.632 -138.174)" fill="#fafafa"/>
      <path id="Trazado_148708" data-name="Trazado 148708" d="M170.339,387.27a24.838,24.838,0,0,1-.351-4.677,23.794,23.794,0,0,1,.094-4.694,25.859,25.859,0,0,1,.351,4.685A25.309,25.309,0,0,1,170.339,387.27Z" transform="translate(-59.885 -137.842)" fill="#fafafa"/>
      <path id="Trazado_148709" data-name="Trazado 148709" d="M199.279,423.648c-.1.077-1.619-1.824-3.632-4.043s-3.743-3.931-3.657-4.026a32.077,32.077,0,0,1,7.289,8.069Z" transform="translate(-63.052 -143.248)" fill="#fafafa"/>
      <path id="Trazado_148710" data-name="Trazado 148710" d="M182.317,439a47.307,47.307,0,0,1-5.225,4.06,50.862,50.862,0,0,1-5.482,3.7,47.3,47.3,0,0,1,5.225-4.06,49.359,49.359,0,0,1,5.482-3.7Z" transform="translate(-60.128 -146.608)" fill="#fafafa"/>
      <path id="Trazado_148711" data-name="Trazado 148711" d="M219.812,440.817a12.5,12.5,0,0,1-2.013.437c-1.251.24-2.964.591-4.831,1.1s-3.537,1.054-4.728,1.473a11.36,11.36,0,0,1-1.97.634,8.446,8.446,0,0,1,1.85-.925,37.749,37.749,0,0,1,4.728-1.61,38.486,38.486,0,0,1,4.9-.985,8.017,8.017,0,0,1,2.064-.12Z" transform="translate(-65.101 -146.866)" fill="#fafafa"/>
      <path id="Trazado_148712" data-name="Trazado 148712" d="M237.6,434.437c-.12,0-.857-4.043-1.627-9.079s-1.3-9.131-1.182-9.148.857,4.043,1.627,9.079S237.717,434.42,237.6,434.437Z" transform="translate(-69.19 -143.339)" fill="#fafafa"/>
      <path id="Trazado_148713" data-name="Trazado 148713" d="M239.262,397.895a11.519,11.519,0,0,1-2.347-.54c-1.43-.4-3.426-1.028-5.516-1.807s-4.034-1.576-5.388-2.193a12.567,12.567,0,0,1-2.141-1.1,13.9,13.9,0,0,1,2.27.814c1.379.54,3.289,1.285,5.413,2.064s4.051,1.448,5.456,1.927a14.272,14.272,0,0,1,2.253.839Z" transform="translate(-67.626 -139.901)" fill="#fafafa"/>
      <path id="Trazado_148714" data-name="Trazado 148714" d="M268.45,418.77a53.389,53.389,0,0,1-3.572,5.9,54.025,54.025,0,0,1-3.949,5.662,52.686,52.686,0,0,1,3.572-5.9,54.016,54.016,0,0,1,3.949-5.662Z" transform="translate(-72.943 -143.706)" fill="#fafafa"/>
      <path id="Trazado_148715" data-name="Trazado 148715" d="M262.993,452.295a44.535,44.535,0,0,1-5.079-3.6,43.175,43.175,0,0,1-4.814-3.957,44.542,44.542,0,0,1,5.079,3.6A43.165,43.165,0,0,1,262.993,452.295Z" transform="translate(-71.82 -147.432)" fill="#fafafa"/>
      <path id="Trazado_148716" data-name="Trazado 148716" d="M258.493,377.29a56.329,56.329,0,0,1-1.713,6.964,57.489,57.489,0,0,1-2.15,6.852,114.264,114.264,0,0,1,3.863-13.816Z" transform="translate(-72.039 -137.755)" fill="#fafafa"/>
      <path id="Trazado_148717" data-name="Trazado 148717" d="M249.518,361.052a25,25,0,0,1-8.848-6.253c.094-.094,1.893,1.533,4.343,3.246S249.518,360.966,249.518,361.052Z" transform="translate(-70.036 -134.528)" fill="#fafafa"/>
      <path id="Trazado_148718" data-name="Trazado 148718" d="M262.291,337.79a23.581,23.581,0,0,1-2.287,3.9,23.22,23.22,0,0,1-2.664,3.649,23.578,23.578,0,0,1,2.287-3.9,23.221,23.221,0,0,1,2.664-3.649Z" transform="translate(-72.428 -132.088)" fill="#fafafa"/>
      <path id="Trazado_148719" data-name="Trazado 148719" d="M283.51,289.976a53.382,53.382,0,0,1,1.713-6.7,55.977,55.977,0,0,1,2.158-6.578,54.162,54.162,0,0,1-1.713,6.7A53.844,53.844,0,0,1,283.51,289.976Z" transform="translate(-76.182 -123.323)" fill="#fafafa"/>
      <path id="Trazado_148720" data-name="Trazado 148720" d="M297.069,322.748a11.189,11.189,0,0,1-1.987-1.328,47.444,47.444,0,0,1-4.351-3.777,44.839,44.839,0,0,1-3.837-4.283,9.975,9.975,0,0,1-1.353-1.97,16.634,16.634,0,0,1,1.593,1.765c.968,1.113,2.321,2.612,3.914,4.188s3.118,2.9,4.231,3.846a14.809,14.809,0,0,1,1.79,1.559Z" transform="translate(-76.474 -128.3)" fill="#fafafa"/>
      <path id="Trazado_148721" data-name="Trazado 148721" d="M311.439,309.387c-.111-.069,1.1-2.081,2.244-4.737s1.79-4.925,1.919-4.891a22.27,22.27,0,0,1-4.163,9.627Z" transform="translate(-80.188 -126.632)" fill="#fafafa"/>
      <path id="Trazado_148722" data-name="Trazado 148722" d="M321.16,335.3a26.113,26.113,0,0,1,.857-4.737,26.779,26.779,0,0,1,1.259-4.634,25.35,25.35,0,0,1-.857,4.737A25.9,25.9,0,0,1,321.16,335.3Z" transform="translate(-81.584 -130.386)" fill="#fafafa"/>
      <path id="Trazado_148723" data-name="Trazado 148723" d="M342.7,350.838a39.859,39.859,0,0,1-4.8-3.5,39.239,39.239,0,0,1-4.522-3.854,39.853,39.853,0,0,1,4.8,3.5A38.268,38.268,0,0,1,342.7,350.838Z" transform="translate(-83.337 -132.904)" fill="#fafafa"/>
      <path id="Trazado_148724" data-name="Trazado 148724" d="M359.38,320.13a11.051,11.051,0,0,1-.917,1.919c-.6,1.165-1.4,2.784-2.176,4.625s-1.4,3.529-1.824,4.771a11.989,11.989,0,0,1-.754,1.987,9.056,9.056,0,0,1,.445-2.081,41.391,41.391,0,0,1,1.713-4.857,39.819,39.819,0,0,1,2.313-4.6,9.293,9.293,0,0,1,1.2-1.764Z" transform="translate(-86.254 -129.554)" fill="#fafafa"/>
      <path id="Trazado_148725" data-name="Trazado 148725" d="M370.087,303.049a78.084,78.084,0,0,1-8.137-2.261,79.073,79.073,0,0,1-8-2.7,83.071,83.071,0,0,1,8.137,2.27,83.188,83.188,0,0,1,8,2.69Z" transform="translate(-86.288 -126.392)" fill="#fafafa"/>
      <path id="Trazado_148726" data-name="Trazado 148726" d="M384.737,318.53a18.415,18.415,0,0,1-1.439,1.8,41.044,41.044,0,0,0-5.79,9.422,15.87,15.87,0,0,1-.968,2.09,9.217,9.217,0,0,1,.677-2.218,30.715,30.715,0,0,1,5.842-9.482,8.907,8.907,0,0,1,1.679-1.61Z" transform="translate(-89.529 -129.325)" fill="#fafafa"/>
      <path id="Trazado_148727" data-name="Trazado 148727" d="M392.5,293.3a17.559,17.559,0,0,1,0-2.484c.043-1.533.068-3.649,0-6s-.24-4.445-.377-6a17.753,17.753,0,0,1-.171-2.484,11.545,11.545,0,0,1,.488,2.441,58.123,58.123,0,0,1,.505,6,56.025,56.025,0,0,1-.12,6,11.72,11.72,0,0,1-.325,2.527Z" transform="translate(-91.74 -123.272)" fill="#fafafa"/>
      <path id="Trazado_148728" data-name="Trazado 148728" d="M415.422,294.46a40.129,40.129,0,0,1-4.839-3.709A41.53,41.53,0,0,1,406,286.7a42.916,42.916,0,0,1,4.848,3.709,40.912,40.912,0,0,1,4.574,4.051Z" transform="translate(-93.756 -124.758)" fill="#fafafa"/>
      <path id="Trazado_148729" data-name="Trazado 148729" d="M425.571,276.453a17.333,17.333,0,0,1-.9-2.355c-.522-1.465-1.268-3.469-2.176-5.662s-1.8-4.137-2.467-5.542a16.146,16.146,0,0,1-1.019-2.3,12.355,12.355,0,0,1,1.3,2.167,50.3,50.3,0,0,1,2.57,5.507c.857,2.2,1.61,4.24,2.064,5.739A11.906,11.906,0,0,1,425.571,276.453Z" transform="translate(-95.622 -121.012)" fill="#fafafa"/>
      <g id="Grupo_75799" data-name="Grupo 75799" transform="translate(125.966 210.456)" opacity="0.3">
        <path id="Trazado_148730" data-name="Trazado 148730" d="M222.1,343.34c-3.426,9.019-12.745,13.079-21.413,13.653h-.5a34.262,34.262,0,0,0-11.674,1.473A18.535,18.535,0,0,0,222.1,343.374Z" transform="translate(-188.52 -343.34)"/>
      </g>
      <g id="Grupo_75800" data-name="Grupo 75800" transform="translate(99.25 231.175)" opacity="0.3">
        <path id="Trazado_148731" data-name="Trazado 148731" d="M157.33,367.53c2.09,7.794,5.045,16.959,7.135,24.754,1.833,6.852,4.634,14.347,6.467,21.173l.805-.077C175.266,397.5,169.27,378.571,157.33,367.53Z" transform="translate(-157.33 -367.53)"/>
      </g>
      <g id="Grupo_75801" data-name="Grupo 75801" transform="translate(194.634 180.118)" opacity="0.3">
        <path id="Trazado_148732" data-name="Trazado 148732" d="M286.086,323.68a31.469,31.469,0,0,0-17.4-15.76c4.283,6.167,9.122,13.61,9.61,21.6l6.381,3.666C286.669,331.269,287.285,326.156,286.086,323.68Z" transform="translate(-268.69 -307.92)"/>
      </g>
      <path id="Trazado_148733" data-name="Trazado 148733" d="M181.518,256.037a10.51,10.51,0,0,0-2.441,1.088,9.928,9.928,0,0,0-1.79,1.979c-.051,0,0-.343.214-.814a4.283,4.283,0,0,1,1.319-1.533,4.343,4.343,0,0,1,1.859-.771C181.2,255.917,181.518,255.994,181.518,256.037Z" transform="translate(-60.94 -120.348)" fill="#263238"/>
      <path id="Trazado_148734" data-name="Trazado 148734" d="M194.367,270.659c-.051,0-.2-.36-.248-1a5.721,5.721,0,0,1,.42-2.475,5.55,5.55,0,0,1,1.43-2.064c.48-.428.857-.591.857-.548a10.869,10.869,0,0,0-1.9,2.775,11.263,11.263,0,0,0-.557,3.315Z" transform="translate(-63.356 -121.582)" fill="#263238"/>
      <path id="Trazado_148735" data-name="Trazado 148735" d="M181.407,269.537a4.12,4.12,0,0,1,.171-1.653,10.535,10.535,0,0,1,4.617-6.4,4.137,4.137,0,0,1,1.507-.685A13.251,13.251,0,0,0,181.407,269.537Z" transform="translate(-61.531 -121.042)" fill="#263238"/>
      <path id="Trazado_148736" data-name="Trazado 148736" d="M172.809,252.085c-.043,0,.111-.377.54-.857a4.694,4.694,0,0,1,4.428-1.173c.591.171.857.394.857.445a7.8,7.8,0,0,0-3.126,0A7.983,7.983,0,0,0,172.809,252.085Z" transform="translate(-60.299 -119.48)" fill="#263238"/>
      <path id="Trazado_148737" data-name="Trazado 148737" d="M208.144,270.083a11.137,11.137,0,0,1-.522-2.176,12.292,12.292,0,0,1-.531-2.167,3.88,3.88,0,0,1,.959,2.064A4.094,4.094,0,0,1,208.144,270.083Z" transform="translate(-65.219 -121.751)" fill="#263238"/>
      <path id="Trazado_148738" data-name="Trazado 148738" d="M222.033,269.8a14.664,14.664,0,0,0-3.863-7.169,7.221,7.221,0,0,1,2.835,3.1,7.058,7.058,0,0,1,1.028,4.069Z" transform="translate(-66.808 -121.305)" fill="#263238"/>
      <path id="Trazado_148739" data-name="Trazado 148739" d="M228.274,259.521c-.12.051-.445-.634-1.208-1.071s-1.5-.42-1.516-.548.171-.146.505-.163a2.253,2.253,0,0,1,1.233.334,2.176,2.176,0,0,1,.857.925C228.316,259.29,228.325,259.5,228.274,259.521Z" transform="translate(-67.867 -120.603)" fill="#263238"/>
      <path id="Trazado_148740" data-name="Trazado 148740" d="M238.553,254.516a15.088,15.088,0,0,1-1.285-.925,9.293,9.293,0,0,0-3.426-1.388,9.422,9.422,0,0,0-3.726.086c-.934.223-1.482.488-1.516.42a3.426,3.426,0,0,1,1.439-.719,8.231,8.231,0,0,1,7.435,1.345,3.761,3.761,0,0,1,1.079,1.182Z" transform="translate(-68.305 -119.726)" fill="#263238"/>
      <path id="Trazado_148741" data-name="Trazado 148741" d="M236.242,245.962a14.815,14.815,0,0,0-2.51-.18,16.429,16.429,0,0,0-2.433.642A4.009,4.009,0,0,1,236.242,245.962Z" transform="translate(-68.692 -118.821)" fill="#263238"/>
      <path id="Trazado_148742" data-name="Trazado 148742" d="M178.144,213.519c-9.1.206-22.158-.857-27.589-8.18s-3.075-20.642-.24-29.293c-8.069-9.011-7.709-24.325.857-32.925,1.533-1.559,3.315-2.938,4.437-4.814,2.116-3.529,1.49-7.974,2-12.069a21.036,21.036,0,0,1,30.236-16.214c5.071-4.428,10.347-8.9,16.7-11.135s14.124-1.653,18.9,3.084c2.621,2.57,4.283,6.321,7.555,8s7.375.8,11.006,1.653c6.929,1.636,10.758,9.062,12.574,15.949S257.3,142,261.964,147.386c2.424,2.809,5.739,4.839,7.709,7.974a11.914,11.914,0,0,1-9.259,18.261c4.223,5.336,5.139,12.848,3.272,19.392s-5.773,14.827-12.548,16.968a19.135,19.135,0,0,1-13.585-.976s-3.52,6.7-19.7,6.047c-25.251-1.028-35.854,7.906-39.7-1.567" transform="translate(-56.238 -97.633)" fill="#263238"/>
      <path id="Trazado_148743" data-name="Trazado 148743" d="M240.13,186.318c1.182-10.561-.146-27.717-1.713-41.73-1.379-12.608-10.467-27.734-23.006-25.816l-38.887,11.76a7.418,7.418,0,0,0-6.287,7.82l8.206,92.951a6.15,6.15,0,0,0,1.173,3.126,23.854,23.854,0,0,0,23.126,9.73c15.281-1.979,18.707-11.777,19.409-14.9a6.209,6.209,0,0,0,.154-1.593c-.385-12.051-.608-16.771-.6-16.685S237.758,207.552,240.13,186.318Z" transform="translate(-59.929 -100.642)" fill="#b78876"/>
      <path id="Trazado_148744" data-name="Trazado 148744" d="M241.248,164.72a2.715,2.715,0,0,1-2.484,2.852,2.57,2.57,0,0,1-2.9-2.313,2.7,2.7,0,0,1,2.475-2.844,2.57,2.57,0,0,1,2.9,2.3Z" transform="translate(-69.347 -106.924)" fill="#263238"/>
      <path id="Trazado_148745" data-name="Trazado 148745" d="M244.738,161.1c-.317.368-2.441-1.054-5.345-.908s-4.976,1.713-5.31,1.353c-.163-.154.154-.805,1.054-1.525a7.4,7.4,0,0,1,4.223-1.516,7.1,7.1,0,0,1,4.283,1.165C244.559,160.316,244.893,160.941,244.738,161.1Z" transform="translate(-69.085 -106.365)" fill="#263238"/>
      <path id="Trazado_148746" data-name="Trazado 148746" d="M208.918,166.209a2.707,2.707,0,0,1-2.475,2.852,2.57,2.57,0,0,1-2.9-2.313,2.715,2.715,0,0,1,2.475-2.852,2.57,2.57,0,0,1,2.9,2.313Z" transform="translate(-64.709 -107.136)" fill="#263238"/>
      <path id="Trazado_148747" data-name="Trazado 148747" d="M211.11,162.224c-.317.368-2.441-1.045-5.345-.908s-4.976,1.713-5.3,1.353c-.163-.146.146-.805,1.045-1.525a7.469,7.469,0,0,1,4.223-1.516,7.1,7.1,0,0,1,4.283,1.165C210.93,161.436,211.264,162.061,211.11,162.224Z" transform="translate(-64.262 -106.526)" fill="#263238"/>
      <path id="Trazado_148748" data-name="Trazado 148748" d="M225.735,182.322c0-.163,1.773-.557,4.685-1.071.737-.111,1.43-.291,1.533-.805a3.786,3.786,0,0,0-.591-2.176c-.788-1.764-1.6-3.615-2.458-5.55-3.426-7.914-5.936-14.433-5.619-14.561s3.358,6.167,6.775,14.081c.857,1.953,1.619,3.812,2.364,5.593a4.283,4.283,0,0,1,.522,2.9,1.841,1.841,0,0,1-1.173,1.139,5.053,5.053,0,0,1-1.251.24C227.585,182.391,225.752,182.485,225.735,182.322Z" transform="translate(-67.538 -106.316)" fill="#263238"/>
      <path id="Trazado_148749" data-name="Trazado 148749" d="M225.565,225.407A53.679,53.679,0,0,1,197,219.18s7.8,14.561,28.814,11.606Z" transform="translate(-63.771 -115.071)" fill="#aa6550"/>
      <path id="Trazado_148750" data-name="Trazado 148750" d="M223.651,194.322a5.268,5.268,0,0,0-4.788-1.713,4.8,4.8,0,0,0-3.221,1.927,3.032,3.032,0,0,0-.069,3.478,3.511,3.511,0,0,0,3.854.788,11.031,11.031,0,0,0,3.615-2.39,3.281,3.281,0,0,0,.788-.857.968.968,0,0,0-.051-1.079" transform="translate(-66.362 -111.249)" fill="#aa6550"/>
      <path id="Trazado_148751" data-name="Trazado 148751" d="M216.193,189.18c.471-.051.625,3.109,3.426,5.225s6.15,1.619,6.193,2.056c.051.2-.719.651-2.141.754a7.855,7.855,0,0,1-5.139-1.542,6.852,6.852,0,0,1-2.672-4.385C215.662,189.976,215.971,189.171,216.193,189.18Z" transform="translate(-66.468 -110.767)" fill="#263238"/>
      <path id="Trazado_148752" data-name="Trazado 148752" d="M211.706,155.417c-.257.805-3.178.565-6.57,1.131s-6.107,1.627-6.6.942c-.223-.334.231-1.1,1.3-1.919a11.589,11.589,0,0,1,10.03-1.576C211.149,154.44,211.774,155.04,211.706,155.417Z" transform="translate(-63.984 -105.646)" fill="#263238"/>
      <path id="Trazado_148753" data-name="Trazado 148753" d="M244.147,155.059c-.48.685-2.518.094-4.925.171s-4.428.651-4.934,0c-.223-.326.069-1,.934-1.713a7.126,7.126,0,0,1,7.94-.12C244.044,154.057,244.361,154.725,244.147,155.059Z" transform="translate(-69.11 -105.468)" fill="#263238"/>
      <path id="Trazado_148754" data-name="Trazado 148754" d="M190.313,117.253a14.433,14.433,0,0,0,17.636,13.49c3.195-.728,6.655-2.51,9.516-.916,3.015,1.713,3.323,6.09,6,8.231,3.854,3.066,9.627-.223,14.407.968,3.692.925,6.124,4.283,8.668,7.126s6.3,5.448,9.893,4.206a42.826,42.826,0,0,0-1.876-9.653A14.321,14.321,0,0,0,248.686,133c-1.55-.917-3.323-1.439-4.771-2.51-3.135-2.3-4.026-6.527-6-9.85a15.82,15.82,0,0,0-12.394-7.46c-4.163-.24-8.385,1.191-12.471.351-3.015-.625-5.713-2.45-8.762-2.9-5.944-.857-11.238,3.615-15.332,8.017" transform="translate(-62.617 -99.483)" fill="#263238"/>
      <path id="Trazado_148755" data-name="Trazado 148755" d="M174.413,172.9c-.334-.146-13.353-3.949-12.925,9.336s13.7,10.124,13.7,9.739S174.413,172.9,174.413,172.9Z" transform="translate(-58.675 -108.343)" fill="#b78876"/>
      <path id="Trazado_148756" data-name="Trazado 148756" d="M171.526,187.815c-.06,0-.223.163-.608.36a2.338,2.338,0,0,1-1.713.086c-1.422-.471-2.672-2.655-2.818-5.054a7.76,7.76,0,0,1,.54-3.332,2.681,2.681,0,0,1,1.713-1.833,1.173,1.173,0,0,1,1.388.591c.188.368.111.634.188.651s.274-.231.146-.771a1.439,1.439,0,0,0-.548-.857,1.713,1.713,0,0,0-1.285-.291,3.238,3.238,0,0,0-2.355,2.133,7.9,7.9,0,0,0-.685,3.734c.171,2.672,1.619,5.139,3.563,5.627a2.484,2.484,0,0,0,2.107-.42C171.509,188.132,171.569,187.833,171.526,187.815Z" transform="translate(-59.248 -109.068)" fill="#aa6550"/>
      <path id="Trazado_148757" data-name="Trazado 148757" d="M169.249,164.647A14.561,14.561,0,0,0,186.9,149.375c4.9-.24,9.131-4.026,11.075-8.565s1.953-9.619,1.353-14.5a6.852,6.852,0,0,0-1-3.255c-1.456-2.021-4.42-2-6.9-1.79-6.4.557-12.994,1.182-18.638,4.283s-10.107,9.259-9.1,15.6c.5,3.1,2.218,6.15,1.448,9.191-.574,2.261-2.475,4.094-2.7,6.415a6.27,6.27,0,0,0,1.979,4.822,18.193,18.193,0,0,0,4.42,3.041" transform="translate(-58.812 -101.01)" fill="#263238"/>
      <path id="Trazado_148758" data-name="Trazado 148758" d="M171.616,196.63c2.57.411,5.242,1.173,6.707,3.332a9.67,9.67,0,0,1,1.43,7.452c2.064-.1,3.752,1.713,4.54,3.615,2,4.9-.257,10.852-4.428,14.116a7.112,7.112,0,0,1-5.139,1.79c-1.867-.248-3.126-1.413-4.4-2.57a31.323,31.323,0,0,1-5.61-6.244,11.88,11.88,0,0,1,.857-15.126c1.713-2.039,3.8-4.848,6-6.355" transform="translate(-58.806 -111.836)" fill="#263238"/>
      <path id="Trazado_148759" data-name="Trazado 148759" d="M152.7,143.825a3.743,3.743,0,0,0,2.03.077,5.859,5.859,0,0,0,2.124-1.1,14.559,14.559,0,0,0,2.236-2.321,9.422,9.422,0,0,1,3.015-2.57,8.63,8.63,0,0,1,4.548-.377,10.691,10.691,0,0,0,2.4,0,5.9,5.9,0,0,0,2.3-.857,9.67,9.67,0,0,0,3.426-3.923,39.319,39.319,0,0,0,1.893-4.985,26.434,26.434,0,0,1,2-4.608,14.732,14.732,0,0,1,6-6A10.587,10.587,0,0,1,190.25,116a5.927,5.927,0,0,1,2.047.463,14.562,14.562,0,0,0-2.056-.291,10.7,10.7,0,0,0-5.43,1.285,14.5,14.5,0,0,0-5.739,5.919,25.859,25.859,0,0,0-1.944,4.557,38.542,38.542,0,0,1-1.919,5.045,9.953,9.953,0,0,1-3.555,4.086,6.4,6.4,0,0,1-2.467.857,12.086,12.086,0,0,1-2.493,0,8.349,8.349,0,0,0-4.36.3,9.259,9.259,0,0,0-2.929,2.475,15.04,15.04,0,0,1-2.321,2.3,6,6,0,0,1-2.244,1.071,3.28,3.28,0,0,1-1.567,0A1.808,1.808,0,0,1,152.7,143.825Z" transform="translate(-57.415 -100.264)" fill="#455a64"/>
      <path id="Trazado_148760" data-name="Trazado 148760" d="M144.7,161.448a.66.66,0,0,1,0-.2,1.8,1.8,0,0,1,0-.574,7.084,7.084,0,0,1,.617-2.124,16.275,16.275,0,0,1,1.756-3.041,15.965,15.965,0,0,1,1.4-1.713,8.385,8.385,0,0,1,1.927-1.559,6.544,6.544,0,0,1,5.567-.043,11.47,11.47,0,0,1,2.724,1.6,15.915,15.915,0,0,0,2.784,1.713,12.223,12.223,0,0,0,6.775,1.191,9.567,9.567,0,0,0,6.347-3.529c1.55-2.013,1.919-4.788,3.889-6.561a4.36,4.36,0,0,1,1.713-.9,7.109,7.109,0,0,1,1.833-.223,23.979,23.979,0,0,0,3.426-.086,13.01,13.01,0,0,0,5.816-2.347,12.265,12.265,0,0,0,3.632-4.1,13.122,13.122,0,0,0,1.473-7.769,14.448,14.448,0,0,0-.428-2.141,4.453,4.453,0,0,1-.214-.745,9.422,9.422,0,0,1,.857,2.869,12.848,12.848,0,0,1-11.032,14.638,23.761,23.761,0,0,1-3.495.111,6.853,6.853,0,0,0-1.713.206,3.88,3.88,0,0,0-1.508.857c-1.816,1.593-2.2,4.343-3.82,6.493a10,10,0,0,1-6.647,3.7,12.608,12.608,0,0,1-7.015-1.259,15.873,15.873,0,0,1-2.844-1.764,11.239,11.239,0,0,0-2.63-1.567,6.218,6.218,0,0,0-5.268,0,8.1,8.1,0,0,0-1.876,1.482,16.862,16.862,0,0,0-1.4,1.636,17.329,17.329,0,0,0-1.79,2.964,7.469,7.469,0,0,0-.694,2.064,2.484,2.484,0,0,0,0,.565A.7.7,0,0,1,144.7,161.448Z" transform="translate(-56.264 -102.033)" fill="#455a64"/>
      <path id="Trazado_148761" data-name="Trazado 148761" d="M262.7,130.492a7.186,7.186,0,0,0-1.61-2.313,11.975,11.975,0,0,0-7.1-2.7c-1.636-.154-3.426-.154-5.388-.334a13.156,13.156,0,0,1-5.953-1.807,19.332,19.332,0,0,1-4.831-4.9,35.4,35.4,0,0,0-4.694-5.567,13.422,13.422,0,0,0-6.467-3.015,25.842,25.842,0,0,0-6.767-.24,60.124,60.124,0,0,0-6.116.857c-1.919.351-3.709.582-5.353.728a23.126,23.126,0,0,1-7.8-.385,11.7,11.7,0,0,1-2.7-.976,4.78,4.78,0,0,1,.7.231,7.708,7.708,0,0,0,.857.274,11.806,11.806,0,0,0,1.182.3,24.342,24.342,0,0,0,7.709.248c1.636-.171,3.426-.454,5.328-.779s3.957-.685,6.141-.857a25.952,25.952,0,0,1,6.852.223,13.893,13.893,0,0,1,6.681,3.109,35,35,0,0,1,4.754,5.645,19.229,19.229,0,0,0,4.7,4.814,12.771,12.771,0,0,0,5.773,1.782c1.919.188,3.726.214,5.379.385a11.921,11.921,0,0,1,7.186,2.9,6.048,6.048,0,0,1,1.242,1.713,5.144,5.144,0,0,1,.2.522Q262.717,130.492,262.7,130.492Z" transform="translate(-63.903 -99.282)" fill="#455a64"/>
      <path id="Trazado_148762" data-name="Trazado 148762" d="M272.722,152.883a.5.5,0,0,0-.214.086,6.541,6.541,0,0,1-.642.206,7.837,7.837,0,0,1-2.57.231,7.6,7.6,0,0,1-1.85-.4,8.856,8.856,0,0,1-1.987-1.036,13.927,13.927,0,0,1-3.666-4.026c-1.079-1.713-1.713-3.872-2.792-5.944a8.933,8.933,0,0,0-2.184-2.809,8.188,8.188,0,0,0-3.426-1.559c-2.57-.582-5.37-.343-8.266-.762a15.709,15.709,0,0,1-11-7.375,42.932,42.932,0,0,0-2.39-3.666,8.283,8.283,0,0,0-3.221-2.57,12.12,12.12,0,0,0-3.872-.925,54.424,54.424,0,0,0-7.495.325,22.09,22.09,0,0,1-15.161-4.514,15.82,15.82,0,0,1-2.57-2.373,1.167,1.167,0,0,1,.18.146l.488.454a22.724,22.724,0,0,0,10.544,5.5,22.27,22.27,0,0,0,6.475.42,53.019,53.019,0,0,1,7.546-.368,12.489,12.489,0,0,1,4.017.951,8.565,8.565,0,0,1,3.426,2.664,43.015,43.015,0,0,1,2.415,3.709,15.572,15.572,0,0,0,2.852,3.426,15.323,15.323,0,0,0,7.846,3.743c2.818.428,5.645.2,8.291.8a8.566,8.566,0,0,1,3.563,1.662,9.208,9.208,0,0,1,2.261,2.938c1.088,2.124,1.713,4.283,2.741,5.953a13.644,13.644,0,0,0,3.537,3.983A8.667,8.667,0,0,0,267.5,152.8a7.168,7.168,0,0,0,1.79.42A9.7,9.7,0,0,0,272.722,152.883Z" transform="translate(-64.118 -100.235)" fill="#455a64"/>
      <path id="Trazado_148763" data-name="Trazado 148763" d="M273.831,211.16a10.988,10.988,0,0,0,1.713-2.1,13.422,13.422,0,0,0,1.636-7.084,14.561,14.561,0,0,0-.942-4.959,10.425,10.425,0,0,0-1.345-2.45,16.77,16.77,0,0,0-2.013-2.218c-1.49-1.422-3.272-2.69-4.942-4.283a12.745,12.745,0,0,1-3.906-5.833,10.021,10.021,0,0,1-.171-3.6c.137-1.182.394-2.3.625-3.426a20.892,20.892,0,0,0,.48-3.255,8.094,8.094,0,0,0-.411-3.058,11.263,11.263,0,0,0-3.366-4.625,47.969,47.969,0,0,0-4.077-3.092,18.33,18.33,0,0,1-5.319-5.139,8.969,8.969,0,0,1-.857-1.859,3.89,3.89,0,0,1-.146-.694,10.6,10.6,0,0,0,1.113,2.458,18.955,18.955,0,0,0,5.353,5.019,44.827,44.827,0,0,1,4.137,3.066,11.623,11.623,0,0,1,3.512,4.771,8.642,8.642,0,0,1,.454,3.221,22.092,22.092,0,0,1-.48,3.315c-.454,2.2-1.036,4.531-.445,6.809a12.266,12.266,0,0,0,3.769,5.627c1.636,1.525,3.426,2.809,4.925,4.283a16.968,16.968,0,0,1,2.047,2.278,10.912,10.912,0,0,1,1.37,2.57,14.638,14.638,0,0,1,.917,5.079,13.242,13.242,0,0,1-1.8,7.178,6.692,6.692,0,0,1-.7.951,4.147,4.147,0,0,1-.591.617,3.366,3.366,0,0,1-.54.428Z" transform="translate(-71.488 -105.647)" fill="#455a64"/>
      <path id="Trazado_148764" data-name="Trazado 148764" d="M152.046,184.472a5.507,5.507,0,0,1-1.173-1.764,9.1,9.1,0,0,1-.531-5.67,10.818,10.818,0,0,1,4.959-6.758,14.193,14.193,0,0,1,4.677-1.91,28.352,28.352,0,0,1,5.379-.54c3.666-.077,7.221,0,10.193-1.1a14.287,14.287,0,0,0,6.6-4.942,14.8,14.8,0,0,0,2.475-5.054c.334-1.3.377-2.056.428-2.047a2.141,2.141,0,0,1,0,.54,10.948,10.948,0,0,1-.231,1.55,14.741,14.741,0,0,1-9.1,10.338c-3.066,1.156-6.681,1.079-10.33,1.156a28.515,28.515,0,0,0-5.293.522,14,14,0,0,0-4.548,1.824,10.612,10.612,0,0,0-4.874,6.484,9.208,9.208,0,0,0,.377,5.533,14.244,14.244,0,0,0,1,1.833Z" transform="translate(-57.044 -105.819)" fill="#455a64"/>
      <path id="Trazado_148765" data-name="Trazado 148765" d="M189.2,181.281l-5.43,11.931s9.165,15,16.274,20.069a31.572,31.572,0,0,0,28.857,4.283s15.332-5.67,14.176-32.471c0,0-10.364-3.863-16.968-4.463s-21.285,3.426-26.861,2.707a77.634,77.634,0,0,1-10.047-2.056Z" transform="translate(-61.873 -109.532)" fill="#f5f5f5"/>
      <path id="Trazado_148766" data-name="Trazado 148766" d="M187.947,180.353a61.436,61.436,0,0,1-6.261-3.88,62.6,62.6,0,0,1-6-4.283,61.44,61.44,0,0,1,6.261,3.88,62.6,62.6,0,0,1,6,4.283Z" transform="translate(-60.714 -108.329)" fill="#263238"/>
      <path id="Trazado_148767" data-name="Trazado 148767" d="M182.522,194.993a17.372,17.372,0,0,1-3.854.608,17.6,17.6,0,0,1-3.9.171,17.653,17.653,0,0,1,3.854-.617A17.26,17.26,0,0,1,182.522,194.993Z" transform="translate(-60.582 -111.595)" fill="#263238"/>
      <path id="Trazado_148768" data-name="Trazado 148768" d="M237.794,210.644a2.5,2.5,0,0,1-.522.24c-.351.146-.857.36-1.533.617a39.981,39.981,0,0,1-5.867,1.576,41.327,41.327,0,0,1-9,.685,41.97,41.97,0,0,1-10.887-1.833,40.506,40.506,0,0,1-5.345-2.081,49.843,49.843,0,0,1-4.668-2.57c-2.9-1.782-5.388-3.555-7.495-4.994s-3.846-2.57-5.071-3.332L186,198.1a2.219,2.219,0,0,1-.48-.326,3.059,3.059,0,0,1,.522.24c.334.171.857.428,1.456.788,1.242.7,3.015,1.8,5.139,3.212s4.642,3.161,7.529,4.908c1.448.857,3,1.713,4.651,2.527a40.9,40.9,0,0,0,5.293,2.047,42.313,42.313,0,0,0,19.7,1.268,45.06,45.06,0,0,0,5.867-1.439l1.559-.531a3.033,3.033,0,0,1,.557-.146Z" transform="translate(-62.124 -111.999)" fill="#e0e0e0"/>
      <path id="Trazado_148769" data-name="Trazado 148769" d="M242.455,198.245a2.039,2.039,0,0,1-.522.094l-1.525.188c-1.328.146-3.246.325-5.619.505a116.076,116.076,0,0,1-18.612,0,68.308,68.308,0,0,1-18.158-4.009,47.964,47.964,0,0,1-5.139-2.3c-.6-.291-1.045-.565-1.353-.737a2.57,2.57,0,0,1-.445-.283,2,2,0,0,1,.488.206c.326.146.779.385,1.388.66,1.2.574,2.955,1.345,5.191,2.158a71.863,71.863,0,0,0,18.09,3.854,128.754,128.754,0,0,0,18.552.12l5.619-.368,1.533-.094A2.484,2.484,0,0,1,242.455,198.245Z" transform="translate(-62.922 -111.13)" fill="#263238"/>
      <path id="Trazado_148770" data-name="Trazado 148770" d="M242.285,190.681c-4.985-1.627-10.021-3.238-15.246-3.692s-10.218.231-15.323.557-10.8,0-15.58-1.816H194.85a66.81,66.81,0,0,0,47.46,5.576.353.353,0,0,0,.334-.231C242.679,190.938,242.456,190.741,242.285,190.681Z" transform="translate(-63.462 -110.272)" fill="#e0e0e0"/>
      <path id="Trazado_148771" data-name="Trazado 148771" d="M243.8,190.483a3.375,3.375,0,0,1-.54-.111l-1.516-.377c-1.319-.334-3.221-.857-5.585-1.388a72.485,72.485,0,0,0-8.368-1.507,61.045,61.045,0,0,0-10.4-.171c-3.7.2-7.238.454-10.458.4a38.012,38.012,0,0,1-8.505-.968,23.041,23.041,0,0,1-5.4-2.013c-.6-.334-1.054-.6-1.345-.805a2.569,2.569,0,0,1-.445-.325c0-.043.651.377,1.867.976a24.918,24.918,0,0,0,5.4,1.859,38.9,38.9,0,0,0,8.428.857c3.2,0,6.724-.24,10.433-.437a60.01,60.01,0,0,1,10.467.206,67.245,67.245,0,0,1,8.4,1.61c2.364.591,4.283,1.139,5.55,1.525l1.5.463a2.245,2.245,0,0,1,.514.206Z" transform="translate(-62.943 -109.911)" fill="#263238"/>
      <path id="Trazado_148772" data-name="Trazado 148772" d="M190.4,195.47c4.471,2.57,8.857,5.388,13.756,6.929a85.328,85.328,0,0,0,30.167,4.043c.788,0,1.833.137,1.919.917s-.711,1.131-1.388,1.328a27.212,27.212,0,0,1-6.852.925,54.732,54.732,0,0,1-20.18-2.964,43.409,43.409,0,0,1-17.131-10.989" transform="translate(-62.824 -111.669)" fill="#e0e0e0"/>
      <path id="Trazado_148773" data-name="Trazado 148773" d="M236.132,207.223a11.3,11.3,0,0,1-2.475.557,36.763,36.763,0,0,1-6.107.394,35.886,35.886,0,0,1-6.09-.642,11.478,11.478,0,0,1-2.45-.651,20.555,20.555,0,0,1,2.51.343,47.64,47.64,0,0,0,12.094.24,19.86,19.86,0,0,1,2.518-.24Z" transform="translate(-66.929 -113.306)" fill="#263238"/>
      <path id="Trazado_148774" data-name="Trazado 148774" d="M140.513,390.94c.154.283,3.6,2.955,3.6,2.955l6.313-2.278,7.88,4.026s7.075.745,7.135,3.3,4.206,15.092-1.173,23.675-9.191,11.426-9.191,11.426l-19.118-17.859-5.876-1.208Z" transform="translate(-54.17 -139.713)" fill="#b78876"/>
    </g>
    <g id="freepik--Desk--inject-51" transform="translate(37.207 398.377)">
      <path id="Trazado_148775" data-name="Trazado 148775" d="M396.308,456.653c0,.12-80.308.223-179.341.223s-179.358-.1-179.358-.223,80.283-.223,179.358-.223S396.308,456.524,396.308,456.653Z" transform="translate(-37.61 -456.43)" fill="#263238"/>
    </g>
    <g id="freepik--speech-bubble--inject-51" transform="translate(274.647 55.67)">
      <path id="Trazado_148776" data-name="Trazado 148776" d="M356.57,56.32a40.942,40.942,0,0,0-30.21,68.591c.163.18.343.351.514.531l-7.769,19.914,24.839-8.745.06-.36c3.957,1.268,8.12,2.9,12.5,2.9,22.612,0,40.994-19.263,40.994-41.884A40.942,40.942,0,0,0,356.57,56.32Z" transform="translate(-314.934 -56.32)" fill="#fff"/>
      <path id="Trazado_148777" data-name="Trazado 148777" d="M356.413,56.988a3.693,3.693,0,0,1,.737,0l2.15.06a21.415,21.415,0,0,1,3.478.343c.685.1,1.43.171,2.218.334l2.467.608a41.466,41.466,0,0,1,4.805,78.313,40.788,40.788,0,0,1-13.842,3.049,39.631,39.631,0,0,1-14.475-1.8l-.428-.137h.334l-24.2,8.308-.985.343.317-.994,6.261-20.128.1.48a41.379,41.379,0,0,1-9.7-35.829,40.787,40.787,0,0,1,6.236-14.912,42.064,42.064,0,0,1,9.585-10,44.39,44.39,0,0,1,5.019-3.255,46.468,46.468,0,0,1,4.839-2.218,33.229,33.229,0,0,1,4.351-1.388,28.078,28.078,0,0,1,3.734-.779c1.131-.146,2.133-.317,3-.394l2.2-.069h1.345a1.842,1.842,0,0,1,.454,0,1.936,1.936,0,0,1-.454.069l-1.336.111-2.184.146c-.857.1-1.85.3-2.964.471a27.939,27.939,0,0,0-3.683.857,31.564,31.564,0,0,0-4.283,1.439,47.855,47.855,0,0,0-4.728,2.218,44.677,44.677,0,0,0-4.917,3.315,41.524,41.524,0,0,0-9.336,9.919,40.815,40.815,0,0,0,3.58,49.627l.188.214-.086.274c-2,6.458-4.086,13.2-6.236,20.163l-.677-.651,24.188-8.394.171-.06.171.051.42.137a38.758,38.758,0,0,0,14.107,1.756,39.974,39.974,0,0,0,13.49-2.955,40.763,40.763,0,0,0-4.5-76.934l-2.433-.651c-.771-.18-1.508-.257-2.184-.385a23.657,23.657,0,0,0-3.426-.437l-2.141-.163a3.8,3.8,0,0,1-.754-.077Z" transform="translate(-314.821 -56.405)" fill="#263238"/>
      <path id="Trazado_148778" data-name="Trazado 148778" d="M334.98,105.367,341.344,99l12.283,10.912L377.721,86.72l5.919,6.373-30.921,29.1Z" transform="translate(-317.713 -60.681)" fill="#ff9d00"/>
    </g>
    <g id="freepik--Plant--inject-51" transform="translate(314.429 326.384)">
      <path id="Trazado_148779" data-name="Trazado 148779" d="M388.233,402.033c-2.047,2.8-5.9,1.773-7.657,0s-2.458-4.283-3.092-6.724c-1.456-5.507-2.921-11.3-1.627-16.848a9.422,9.422,0,0,1,2.253-4.522,4.865,4.865,0,0,1,4.651-1.439c1.944.557,3.109,2.5,3.949,4.334a40.052,40.052,0,0,1,3.58,17.285c-.051,2.767-.437,5.662-2.056,7.914" transform="translate(-363.288 -372.378)" fill="url(#linear-gradient)"/>
      <g id="Grupo_75802" data-name="Grupo 75802" transform="translate(12.07)" opacity="0.2">
        <path id="Trazado_148780" data-name="Trazado 148780" d="M388.233,402.033c-2.047,2.8-5.9,1.773-7.657,0s-2.458-4.283-3.092-6.724c-1.456-5.507-2.921-11.3-1.627-16.848a9.422,9.422,0,0,1,2.253-4.522,4.865,4.865,0,0,1,4.651-1.439c1.944.557,3.109,2.5,3.949,4.334a40.052,40.052,0,0,1,3.58,17.285c-.051,2.767-.437,5.662-2.056,7.914" transform="translate(-375.358 -372.378)"/>
      </g>
      <path id="Trazado_148781" data-name="Trazado 148781" d="M378.443,423.278a17.251,17.251,0,0,0-10.672-1.542,9.187,9.187,0,0,0-5.345,2.244c-1.353,1.388-1.662,3.991-.171,5.276a5.088,5.088,0,0,0,3.315.925c2.835,0,6-.4,8.206,1.353,1.268.994,2.09,2.63,3.623,3.143a3.649,3.649,0,0,0,4.051-1.713,6.261,6.261,0,0,0,.548-4.591A7.015,7.015,0,0,0,378.443,423.278Z" transform="translate(-361.266 -379.422)" fill="#00bcd4"/>
      <path id="Trazado_148782" data-name="Trazado 148782" d="M396.34,407.834a10.345,10.345,0,0,1-1.4-9.55,18.373,18.373,0,0,1,5.824-8.051,30.313,30.313,0,0,1,10.227-5.739,10.792,10.792,0,0,1,4.557-.668,4.779,4.779,0,0,1,3.76,2.39c1.019,2.047-.06,4.48-1.2,6.467a76.813,76.813,0,0,1-6.852,9.944c-2.039,2.57-4.377,5-7.426,6.09s-6.2.857-7.76-1.251" transform="translate(-366.016 -374.017)" fill="#00bcd4"/>
      <path id="Trazado_148783" data-name="Trazado 148783" d="M387.063,452.567a5.991,5.991,0,0,1-.154-1.293c-.069-.942-.163-2.124-.266-3.538a50.34,50.34,0,0,0-.677-5.182,39.9,39.9,0,0,0-1.713-6.15,22.149,22.149,0,0,0-3-5.585,11.581,11.581,0,0,0-3.863-3.366,11.135,11.135,0,0,0-3.3-1.1,6.512,6.512,0,0,1-1.285-.214,6.132,6.132,0,0,1,1.31,0,10.209,10.209,0,0,1,3.426.976,11.761,11.761,0,0,1,4.086,3.426,22.1,22.1,0,0,1,3.1,5.7,37.405,37.405,0,0,1,1.713,6.244,43.524,43.524,0,0,1,.574,5.251c.077,1.5.094,2.715.094,3.555A6.471,6.471,0,0,1,387.063,452.567Z" transform="translate(-362.922 -380.085)" fill="#263238"/>
      <path id="Trazado_148784" data-name="Trazado 148784" d="M388.343,444.075a2.474,2.474,0,0,1,0-.6c0-.454,0-1.019.043-1.713,0-1.49.086-3.64.06-6.3,0-5.319-.308-12.668-1.019-20.754s-1.713-15.375-2.69-20.6c-.231-1.31-.463-2.492-.677-3.529s-.385-1.927-.557-2.655-.266-1.233-.368-1.67a2.375,2.375,0,0,1-.086-.591,2.392,2.392,0,0,1,.2.565c.12.428.274.976.454,1.653s.42,1.6.651,2.638.505,2.21.754,3.512a193.074,193.074,0,0,1,2.852,20.634,207.221,207.221,0,0,1,.857,20.8c0,2.664-.128,4.822-.231,6.313-.06.694-.1,1.259-.146,1.713a1.971,1.971,0,0,1-.094.591Z" transform="translate(-364.392 -374.284)" fill="#263238"/>
      <path id="Trazado_148785" data-name="Trazado 148785" d="M389.557,430.695a10.488,10.488,0,0,1,.051-1.79,47.979,47.979,0,0,1,.651-4.839,65.594,65.594,0,0,1,1.713-7.032,61.664,61.664,0,0,1,3.135-8.291,44.453,44.453,0,0,1,8.976-13.328,22.27,22.27,0,0,1,2.081-1.85c.325-.257.608-.522.857-.72l.805-.531a11.3,11.3,0,0,1,1.533-.934,53.8,53.8,0,0,0-5.045,4.283,47.108,47.108,0,0,0-8.754,13.285,81.311,81.311,0,0,0-4.891,15.195c-.437,2-.66,3.649-.814,4.788a11.265,11.265,0,0,1-.3,1.764Z" transform="translate(-365.323 -375.104)" fill="#263238"/>
    </g>
  </g>
</svg>
