<svg xmlns="http://www.w3.org/2000/svg" width="1103.63" height="457.436" viewBox="0 0 1103.63 457.436">
  <g id="audi-01" transform="translate(-9.6 -83.968)">
    <path id="Trazado_151944" data-name="Trazado 151944" d="M1155.233,355.019c-.972,43.277-14.85,82.769-36.459,121.673l-199.513.026c-290.669.038-796.3.1-796.342.075l-.608-.414C98.629,460.2,89.981,436.594,95.2,410.3c5.641-28.638,27.451-59.734,61.272-86.02,48.371-37.6,87.018-47.409,61.636-126.272-7.17-22.286-5.465-42.363,1.649-60.152C242.28,81.5,319.04,48.191,339.415,40.747c68.073-24.894,164.048-23.761,236.434-10.42,116.29,21.45,157.13,78.81,191.889,110.12,12.9,11.6,24.916,19.46,39.646,20.321,24.055,1.366,58.355-10.048,100.009-13.416,31.113-2.514,66.279-.538,104.224,14.635,41.633,16.611,82.521,48.922,105.727,78.512C1144.217,274.749,1156.15,313.6,1155.233,355.019Z" transform="translate(-48.099 62.983)" fill="#ebf3fa" opacity="0.5"/>
    <g id="Grupo_76001" data-name="Grupo 76001" transform="translate(507.388 260.878)" opacity="0.5">
      <rect id="Rectángulo_33712" data-name="Rectángulo 33712" width="222.668" height="274.259" transform="translate(304.135 3.863)" fill="#98baf4"/>
      <rect id="Rectángulo_33713" data-name="Rectángulo 33713" width="200.459" height="29.876" transform="translate(326.344 17.274)" fill="#edf4ff"/>
      <rect id="Rectángulo_33714" data-name="Rectángulo 33714" width="251.477" height="212.59" transform="translate(161.281 66.471)" fill="#ebf3ff"/>
      <rect id="Rectángulo_33715" data-name="Rectángulo 33715" width="261.628" height="7.727" transform="translate(155.061 58.749)" fill="#fff"/>
      <rect id="Rectángulo_33716" data-name="Rectángulo 33716" width="231.29" height="7.727" transform="translate(299.646)" fill="#fff"/>
      <rect id="Rectángulo_33717" data-name="Rectángulo 33717" width="162.707" height="39.513" transform="translate(161.281 85.69)" fill="#afcdfb"/>
      <rect id="Rectángulo_33718" data-name="Rectángulo 33718" width="151.785" height="84.187" transform="translate(9.496 91.657)" fill="#afcdfb"/>
      <rect id="Rectángulo_33719" data-name="Rectángulo 33719" width="151.785" height="84.187" transform="translate(9.496 193.358)" fill="#afcdfb"/>
      <rect id="Rectángulo_33720" data-name="Rectángulo 33720" width="130.746" height="17.514" transform="translate(30.531 175.844)" fill="#7fa8e5"/>
      <path id="Trazado_151945" data-name="Trazado 151945" d="M1659.61,811.2h3.024v5.44h5.568V811.2h3.024v13.745H1668.2v-5.517h-5.568v5.517h-3.024Z" transform="translate(-1450.661 -712.626)" fill="#fff"/>
      <path id="Trazado_151946" data-name="Trazado 151946" d="M1693,817.756a7.305,7.305,0,1,1,7.286,7.11A7.107,7.107,0,0,1,1693,817.756Zm11.445,0a4.165,4.165,0,0,0-4.159-4.318,4.323,4.323,0,1,0,4.172,4.318Z" transform="translate(-1469.75 -712.311)" fill="#fff"/>
      <path id="Trazado_151947" data-name="Trazado 151947" d="M1731,822.676l1.786-2.142a6.291,6.291,0,0,0,4.1,1.67c1.238,0,1.983-.493,1.983-1.336,0-.762-.471-1.156-2.767-1.748-2.771-.707-4.557-1.469-4.557-4.24,0-2.493,2-4.142,4.81-4.142a7.967,7.967,0,0,1,5.105,1.748l-1.572,2.279a6.362,6.362,0,0,0-3.572-1.358c-1.156,0-1.769.531-1.769,1.238,0,.9.591,1.2,2.968,1.807,2.784.728,4.356,1.713,4.356,4.163,0,2.728-2.082,4.283-5.046,4.283A8.738,8.738,0,0,1,1731,822.676Z" transform="translate(-1491.473 -712.361)" fill="#fff"/>
      <path id="Trazado_151948" data-name="Trazado 151948" d="M1762.53,811.2h5.615c3.277,0,5.26,1.945,5.26,4.789,0,3.182-2.471,4.832-5.568,4.832h-2.3v4.125h-3Zm5.418,6.93a2.138,2.138,0,0,0,2.394-2.142c0-1.354-.942-2.082-2.454-2.082h-2.339v4.2Z" transform="translate(-1509.498 -712.626)" fill="#fff"/>
      <path id="Trazado_151949" data-name="Trazado 151949" d="M1793.47,811.2h3.024v13.745h-3.024Z" transform="translate(-1527.186 -712.626)" fill="#fff"/>
      <path id="Trazado_151950" data-name="Trazado 151950" d="M1810.42,813.988h-4.18V811.2h11.389v2.788h-4.185v10.957h-3.024Z" transform="translate(-1534.486 -712.626)" fill="#fff"/>
      <path id="Trazado_151951" data-name="Trazado 151951" d="M1837.264,811h2.788l5.889,13.843h-3.165l-1.255-3.084h-5.812l-1.255,3.084h-3.084Zm3.182,8.091-1.829-4.459-1.837,4.446Z" transform="translate(-1548.852 -712.511)" fill="#fff"/>
      <path id="Trazado_151952" data-name="Trazado 151952" d="M1870.35,811.2h3.02v11h6.853v2.75h-9.873Z" transform="translate(-1571.136 -712.626)" fill="#fff"/>
      <rect id="Rectángulo_33721" data-name="Rectángulo 33721" width="101.41" height="66.925" transform="translate(425.393 177.399)" fill="#afcdfb"/>
      <rect id="Rectángulo_33722" data-name="Rectángulo 33722" width="101.41" height="66.925" transform="translate(425.393 78.854)" fill="#afcdfb"/>
      <rect id="Rectángulo_33723" data-name="Rectángulo 33723" width="198.348" height="26.368" transform="translate(328.455 18.868)" fill="#afcdfb"/>
      <path id="Trazado_151953" data-name="Trazado 151953" d="M1548.32,738.9l251.473,7.586V736.25H1548.32Z" transform="translate(-1387.039 -669.779)" fill="#dfebfd"/>
      <rect id="Rectángulo_33724" data-name="Rectángulo 33724" width="161.281" height="8.335" transform="translate(0 91.156)" fill="#fff"/>
      <rect id="Rectángulo_33725" data-name="Rectángulo 33725" width="176.705" height="92.312" transform="translate(200.417 184.56)" fill="#98baf4"/>
      <rect id="Rectángulo_33726" data-name="Rectángulo 33726" width="165.65" height="86.166" transform="translate(206.353 191.015)" fill="#fff"/>
      <rect id="Rectángulo_33727" data-name="Rectángulo 33727" width="153.442" height="19.797" transform="translate(212.628 196.467)" fill="#afcdfb"/>
      <rect id="Rectángulo_33728" data-name="Rectángulo 33728" width="44.871" height="55.168" transform="translate(212.628 221.644)" fill="#afcdfb"/>
      <rect id="Rectángulo_33729" data-name="Rectángulo 33729" width="55.164" height="55.168" transform="translate(261.765 221.644)" fill="#afcdfb"/>
      <rect id="Rectángulo_33730" data-name="Rectángulo 33730" width="45.347" height="55.168" transform="translate(320.724 221.644)" fill="#afcdfb"/>
      <path id="Trazado_151954" data-name="Trazado 151954" d="M1811.114,1098.53H1848.2v20.414l-6.609,34.754H1800.62Z" transform="translate(-1531.273 -876.886)" fill="#cce1ff"/>
      <rect id="Rectángulo_33731" data-name="Rectángulo 33731" width="41.269" height="44.734" transform="translate(268.995 232.138)" fill="#fff"/>
      <rect id="Rectángulo_33732" data-name="Rectángulo 33732" width="37.333" height="42.708" transform="translate(270.966 234.16)" fill="#98baf4"/>
      <rect id="Rectángulo_33733" data-name="Rectángulo 33733" width="1.392" height="42.708" transform="translate(288.938 234.16)" fill="#fff"/>
      <path id="Trazado_151955" data-name="Trazado 151955" d="M1838.59,1176.432a.882.882,0,1,1,.882.882A.882.882,0,0,1,1838.59,1176.432Z" transform="translate(-1552.98 -920.916)" fill="#fff"/>
      <path id="Trazado_151956" data-name="Trazado 151956" d="M1853.25,1176.432a.882.882,0,1,1,.882.882A.882.882,0,0,1,1853.25,1176.432Z" transform="translate(-1561.361 -920.916)" fill="#fff"/>
      <path id="Trazado_151957" data-name="Trazado 151957" d="M1691.842,1098.53h22.718l-7.252,55.168H1684.59Z" transform="translate(-1464.942 -876.886)" fill="#cce1ff"/>
      <path id="Trazado_151958" data-name="Trazado 151958" d="M1728.488,1039.75l-2.6,19.8H1703.17l2.6-19.8Z" transform="translate(-1475.563 -843.283)" fill="#cce1ff"/>
      <path id="Trazado_151959" data-name="Trazado 151959" d="M1935.946,1098.53h22.714l-7.252,55.168H1928.69Z" transform="translate(-1604.488 -876.886)" fill="#cce1ff"/>
      <path id="Trazado_151960" data-name="Trazado 151960" d="M1972.592,1039.75l-2.6,19.8H1947.27l2.6-19.8Z" transform="translate(-1615.11 -843.283)" fill="#cce1ff"/>
      <path id="Trazado_151961" data-name="Trazado 151961" d="M1872.248,1039.75l-3.765,19.8H1827.51l3.765-19.8Z" transform="translate(-1546.646 -843.283)" fill="#cce1ff"/>
      <path id="Trazado_151962" data-name="Trazado 151962" d="M1920.65,1108.02h.086l-.086.437Z" transform="translate(-1599.892 -882.311)" fill="#cce1ff"/>
      <path id="Trazado_151963" data-name="Trazado 151963" d="M2230.815,832.085H2197.26l14.678-66.925h33.555Z" transform="translate(-1758.023 -686.306)" fill="#bdd7fd"/>
      <path id="Trazado_151964" data-name="Trazado 151964" d="M2300.225,1062.156H2266.67l14.683-66.926H2314.9Z" transform="translate(-1797.703 -817.831)" fill="#cce1ff"/>
      <path id="Trazado_151965" data-name="Trazado 151965" d="M2194.349,995.23l-14.679,66.926h-14.73V995.23Z" transform="translate(-1739.547 -817.831)" fill="#cce1ff"/>
      <path id="Trazado_151966" data-name="Trazado 151966" d="M2352.467,765.16v66.925H2315.58l16.383-66.925Z" transform="translate(-1825.664 -686.306)" fill="#cce1ff"/>
      <rect id="Rectángulo_33734" data-name="Rectángulo 33734" width="2.797" height="26.368" transform="translate(377.023 18.868)" fill="#edf4ff"/>
      <rect id="Rectángulo_33735" data-name="Rectángulo 33735" width="2.797" height="26.368" transform="translate(433.471 18.868)" fill="#edf4ff"/>
      <rect id="Rectángulo_33736" data-name="Rectángulo 33736" width="2.797" height="26.368" transform="translate(488.52 18.868)" fill="#edf4ff"/>
      <g id="Grupo_75999" data-name="Grupo 75999" transform="translate(26.265 121.001)" opacity="0.5">
        <rect id="Rectángulo_33737" data-name="Rectángulo 33737" width="16.816" height="26.539" transform="translate(1.015 0.874)" fill="#98baf4"/>
        <path id="Trazado_151967" data-name="Trazado 151967" d="M1251.621,891.829H1233.1V863.56h18.521Zm-16.812-1.713h15.1V865.273h-15.1Z" transform="translate(-1233.1 -863.56)" fill="#fff"/>
        <rect id="Rectángulo_33738" data-name="Rectángulo 33738" width="15.531" height="1.281" transform="translate(1.495 9.749)" fill="#fff"/>
        <rect id="Rectángulo_33739" data-name="Rectángulo 33739" width="15.531" height="1.281" transform="translate(1.495 18.581)" fill="#fff"/>
        <rect id="Rectángulo_33740" data-name="Rectángulo 33740" width="26.667" height="1.281" transform="translate(9.898 0.745) rotate(90)" fill="#fff"/>
        <rect id="Rectángulo_33741" data-name="Rectángulo 33741" width="16.816" height="26.539" transform="translate(49.566 0.874)" fill="#98baf4"/>
        <path id="Trazado_151968" data-name="Trazado 151968" d="M1364.975,891.829H1346.45V863.56h18.525Zm-16.816-1.713h15.1V865.273h-15.1Z" transform="translate(-1297.9 -863.56)" fill="#fff"/>
        <rect id="Rectángulo_33742" data-name="Rectángulo 33742" width="15.531" height="1.281" transform="translate(50.045 9.749)" fill="#fff"/>
        <rect id="Rectángulo_33743" data-name="Rectángulo 33743" width="15.531" height="1.281" transform="translate(50.045 18.581)" fill="#fff"/>
        <rect id="Rectángulo_33744" data-name="Rectángulo 33744" width="26.667" height="1.281" transform="translate(58.449 0.745) rotate(90)" fill="#fff"/>
        <rect id="Rectángulo_33745" data-name="Rectángulo 33745" width="16.816" height="26.539" transform="translate(98.116 0.874)" fill="#98baf4"/>
        <path id="Trazado_151969" data-name="Trazado 151969" d="M1478.325,891.829H1459.8V863.56h18.525Zm-16.816-1.713h15.1V865.273h-15.1Z" transform="translate(-1362.699 -863.56)" fill="#fff"/>
        <rect id="Rectángulo_33746" data-name="Rectángulo 33746" width="15.531" height="1.281" transform="translate(98.596 9.749)" fill="#fff"/>
        <rect id="Rectángulo_33747" data-name="Rectángulo 33747" width="15.531" height="1.281" transform="translate(98.596 18.581)" fill="#fff"/>
        <rect id="Rectángulo_33748" data-name="Rectángulo 33748" width="26.667" height="1.285" transform="translate(107.004 0.75) rotate(90)" fill="#fff"/>
      </g>
      <g id="Grupo_76000" data-name="Grupo 76000" transform="translate(26.265 211.994)" opacity="0.5">
        <rect id="Rectángulo_33749" data-name="Rectángulo 33749" width="16.816" height="26.539" transform="translate(1.015 0.882)" fill="#98baf4"/>
        <path id="Trazado_151970" data-name="Trazado 151970" d="M1251.621,1104.269H1233.1V1076h18.521Zm-16.812-1.713h15.1v-24.843h-15.1Z" transform="translate(-1233.1 -1076)" fill="#fff"/>
        <rect id="Rectángulo_33750" data-name="Rectángulo 33750" width="15.531" height="1.281" transform="translate(1.495 9.761)" fill="#fff"/>
        <rect id="Rectángulo_33751" data-name="Rectángulo 33751" width="15.531" height="1.285" transform="translate(1.495 18.589)" fill="#fff"/>
        <rect id="Rectángulo_33752" data-name="Rectángulo 33752" width="26.663" height="1.281" transform="translate(9.903 0.758) rotate(90)" fill="#fff"/>
        <rect id="Rectángulo_33753" data-name="Rectángulo 33753" width="16.816" height="26.539" transform="translate(49.566 0.882)" fill="#98baf4"/>
        <path id="Trazado_151971" data-name="Trazado 151971" d="M1364.975,1104.269H1346.45V1076h18.525Zm-16.816-1.713h15.1v-24.843h-15.1Z" transform="translate(-1297.9 -1076)" fill="#fff"/>
        <rect id="Rectángulo_33754" data-name="Rectángulo 33754" width="15.531" height="1.281" transform="translate(50.045 9.761)" fill="#fff"/>
        <rect id="Rectángulo_33755" data-name="Rectángulo 33755" width="15.531" height="1.285" transform="translate(50.045 18.589)" fill="#fff"/>
        <rect id="Rectángulo_33756" data-name="Rectángulo 33756" width="26.663" height="1.281" transform="translate(58.453 0.758) rotate(90)" fill="#fff"/>
        <rect id="Rectángulo_33757" data-name="Rectángulo 33757" width="16.816" height="26.539" transform="translate(98.116 0.882)" fill="#98baf4"/>
        <path id="Trazado_151972" data-name="Trazado 151972" d="M1478.325,1104.269H1459.8V1076h18.525Zm-16.816-1.713h15.1v-24.843h-15.1Z" transform="translate(-1362.699 -1076)" fill="#fff"/>
        <rect id="Rectángulo_33758" data-name="Rectángulo 33758" width="15.531" height="1.281" transform="translate(98.596 9.761)" fill="#fff"/>
        <rect id="Rectángulo_33759" data-name="Rectángulo 33759" width="15.531" height="1.285" transform="translate(98.596 18.589)" fill="#fff"/>
        <rect id="Rectángulo_33760" data-name="Rectángulo 33760" width="26.663" height="1.285" transform="translate(107.004 0.758) rotate(90)" fill="#fff"/>
      </g>
      <rect id="Rectángulo_33761" data-name="Rectángulo 33761" width="262.793" height="9.247" transform="translate(157.37 156.638)" fill="#d4e6ff"/>
      <rect id="Rectángulo_33762" data-name="Rectángulo 33762" width="196.335" height="4.103" transform="translate(192.912 274.958)" fill="#7fa8e5"/>
      <path id="Trazado_151973" data-name="Trazado 151973" d="M1610.592,1207.46s-1.092-9.65,8.695-12.1,13.625-11.188,24.988-3.855,7.766,15.942,7.766,15.942Z" transform="translate(-1422.618 -928.399)" fill="#acd29a"/>
    </g>
    <path id="Trazado_151974" data-name="Trazado 151974" d="M1042.8,871.05s3.127,10.987,2.386,13.732-4.035,7.877-5.5,7.71,0-17.561,0-17.561Z" transform="translate(-588.507 -485.963)" fill="#ffb27d"/>
    <path id="Trazado_151975" data-name="Trazado 151975" d="M903.618,581.7c-1.139-2.2,24.843-10.108,25.271,11.565,0,0,48.692-1.2,25.442-28.338-8.048-9.4-7.221-17.167-6.982-24.414s-5.011-28.269-23.035-26.128c0,0-4.712-1.919-10.61,1.135C900.3,522.494,870.294,589.694,903.618,581.7Z" transform="translate(-502.415 -281.726)" fill="#163560"/>
    <path id="Trazado_151976" data-name="Trazado 151976" d="M1030.256,739.141s-.274,1.315-3,1.983a18.887,18.887,0,0,1-5.568.3c-.535-.039-1.114-.086-1.713-.159-1.156-.124-2.441-.317-3.855-.587l1.007-59.618-4.2-46.524s8.961,4.236,13.355,17.99c3.375,10.55,3.941,55.982,4.022,76.5C1030.277,735.217,1030.256,739.141,1030.256,739.141Z" transform="translate(-573.581 -350.756)" fill="#aec3ff"/>
    <g id="Grupo_76002" data-name="Grupo 76002" transform="translate(448.108 346.26)" opacity="0.3">
      <path id="Trazado_151977" data-name="Trazado 151977" d="M1041.946,822.526s-.274,1.315-3,1.983a18.888,18.888,0,0,1-5.568.3l.809-44.413s.664,24.252,7.778,32C1041.968,818.6,1041.946,822.526,1041.946,822.526Z" transform="translate(-1033.38 -780.4)" fill="#8c9df4"/>
    </g>
    <path id="Trazado_151978" data-name="Trazado 151978" d="M840.956,1169.971s-5.457,4.977-4.39,8.515,6,5.9,6.652,10.22,3.328,6.686,5.722,6.686h11.423s1.76-3.045-2.5-3.962-5.864-6-5.6-10.708a83.408,83.408,0,0,0-.4-11.008l-9.05-2.094Z" transform="translate(-472.678 -655.505)" fill="#23417c"/>
    <path id="Trazado_151979" data-name="Trazado 151979" d="M953.759,1178s-1.962,21.095.428,22.273l30.659-.06s0-3.538-4.926-4.326-13.574-3.666-15.038-10.087S953.759,1178,953.759,1178Z" transform="translate(-539.321 -661.439)" fill="#23417c"/>
    <path id="Trazado_151980" data-name="Trazado 151980" d="M973.719,773.854s8.836,27.511,9.423,36.879-16.9,133.063-17.6,137.376c-.664,4.069-5.714,6.665-5.714,6.665a7.663,7.663,0,0,1-5.641.428c-4.6-1.285-6.052-2.857-6.052-2.857s-6.879-88.235-2.621-119.729A499.758,499.758,0,0,0,949.8,773.85Z" transform="translate(-534.246 -430.396)" fill="#233862"/>
    <path id="Trazado_151981" data-name="Trazado 151981" d="M883.206,772s-13.484,18.088-14.739,30.317-1.974,55.181-4.652,67.105S851.3,904.283,851.3,941.466a7.382,7.382,0,0,0,4.18,3.268,36.234,36.234,0,0,0,3.675,1.015,5.778,5.778,0,0,0,6.463-3.071c6.652-13.389,27.841-56.581,28.929-65.533.767-6.343,5.281-44.43,19.874-69.071,3.5-5.915,3.294-31.7,3.294-31.7Z" transform="translate(-481.181 -429.338)" fill="#2b478b"/>
    <path id="Trazado_151982" data-name="Trazado 151982" d="M899.437,653.424a122.867,122.867,0,0,0,0,14.169c.3,5.14,5.487,11.993,6.224,13.685,1.846,4.258,3.923,4.947,3.923,4.947l16.1,3.932,1.349,8.618s13.509,5.769,22.877-3.161c8.138-7.77,7.41-32.09,4.146-44.863a98.2,98.2,0,0,0-8.241-21.63s-12.1-4.776-33.525-1.208Z" transform="translate(-508.583 -346.211)" fill="#2b478b"/>
    <path id="Trazado_151983" data-name="Trazado 151983" d="M924.63,626.59a92.861,92.861,0,0,0-10.884,2.5l-3.037,37.084h27.965L928.168,638.63Z" transform="translate(-515.144 -346.211)" fill="#aec3ff"/>
    <path id="Trazado_151984" data-name="Trazado 151984" d="M912.4,709.15l-3.071,114.319s-15.321,7.281-44.584,0l7.547-121.7Z" transform="translate(-488.864 -389.189)" fill="#aec3ff"/>
    <path id="Trazado_151985" data-name="Trazado 151985" d="M864.046,732.2l20.692,18.015a3.594,3.594,0,0,0,5.067-.347l26.4-30.321a3.594,3.594,0,0,0-.351-5.063l-20.692-18.02a3.589,3.589,0,0,0-5.063.351l-26.4,30.321a3.585,3.585,0,0,0,.347,5.063Z" transform="translate(-487.763 -385.652)" fill="#c65447"/>
    <path id="Trazado_151986" data-name="Trazado 151986" d="M934.732,775.76c.3.077,10.991,1.336,11,3.547,0,2.57-3.135,6-6.091,5.817-1.2-.064-6.716-5.14-6.716-5.14Z" transform="translate(-527.841 -431.488)" fill="#ffb27d"/>
    <path id="Trazado_151987" data-name="Trazado 151987" d="M949.569,609.578c1.216-2.951,1.927-7.444,1.906-13.008l.81.159,13.561,2.69s-.308,4.283-.317,8.305v.1c0,3.5,2.36,7.012-3.251,8.4C960.56,616.65,947,615.78,949.569,609.578Z" transform="translate(-537.174 -329.049)" fill="#ffb27d"/>
    <path id="Trazado_151988" data-name="Trazado 151988" d="M969.855,599.63s-.308,4.283-.317,8.305c-7.607-.214-11.625-7.153-13.278-11Z" transform="translate(-541.184 -329.261)" fill="#e8945b"/>
    <path id="Trazado_151989" data-name="Trazado 151989" d="M969.727,571.6s-17.99.3-17.99-10.905-2.343-18.718,9.145-19.382,13.706,3.611,14.636,7.35S974.391,571.241,969.727,571.6Z" transform="translate(-538.486 -297.424)" fill="#ffb27d"/>
    <path id="Trazado_151990" data-name="Trazado 151990" d="M961.282,537.73s-4.926,13.15-12.481,15.094-10.841-.086-10.841-.086a21.416,21.416,0,0,0,7-12.644S957.569,531.472,961.282,537.73Z" transform="translate(-530.722 -294.11)" fill="#163560"/>
    <path id="Trazado_151991" data-name="Trazado 151991" d="M989.56,540.4s3.654,1.366,5.14,4.031a18.118,18.118,0,0,1,2.433,10.28s3.709-8.935-.458-13.989C992.267,535.365,989.56,540.4,989.56,540.4Z" transform="translate(-560.221 -295.711)" fill="#163560"/>
    <path id="Trazado_151992" data-name="Trazado 151992" d="M937.15,774.924a12.287,12.287,0,0,1,4.283-.582c1.713.24,3-.034,3,.428s-2.214.7-2.681.934S937.15,774.924,937.15,774.924Z" transform="translate(-530.259 -430.652)" fill="#ffb27d"/>
    <path id="Trazado_151993" data-name="Trazado 151993" d="M887.18,629.68s-12.773.9-17.668,12.794-14.182,31.889-14.182,35.242,5.187,13.706,33.049,19.677c0,0,2.883-3.033,2.707-5.427,0,0-17.39-14.94-17.343-16.7.086-3.3,2.848-7.663,18.122-22.937C896.016,648.188,887.18,629.68,887.18,629.68Z" transform="translate(-483.484 -347.977)" fill="#aec3ff"/>
    <path id="Trazado_151994" data-name="Trazado 151994" d="M948.36,642.6s-4.8-13.12-3.855-22.992a10.982,10.982,0,0,0-5.675,3.726s-.857,15.1,1.872,22.106c0,0,4.091.184,4.981-.3,0,0-1.782,3-1.508,3.362s10.5,13.672,10.5,13.672Z" transform="translate(-531.147 -342.22)" fill="#8c9df4"/>
    <path id="Trazado_151995" data-name="Trazado 151995" d="M998.773,661.135l3,117.575s7.144.274,11.265-4.12L1009.28,647.2s-3.923-15.342-11.633-17.27L989.89,628Z" transform="translate(-560.409 -347.017)" fill="#aec3ff"/>
    <path id="Trazado_151996" data-name="Trazado 151996" d="M987.3,622.61a40.836,40.836,0,0,0,.471,5.093c1.285,8.849,10.708,26.6,9.629,34.523,0,0,.994-13.783.994-16.7l-2.75-1.923,3.572-1.465S992.551,625.484,987.3,622.61Z" transform="translate(-558.929 -343.935)" fill="#8c9df4"/>
    <rect id="Rectángulo_33763" data-name="Rectángulo 33763" width="26.697" height="2.724" transform="matrix(0.997, 0.072, -0.072, 0.997, 387.587, 387.056)" fill="#8c9df4"/>
    <g id="Grupo_76003" data-name="Grupo 76003" transform="translate(386.527 389.777)" opacity="0.3">
      <path id="Trazado_151997" data-name="Trazado 151997" d="M890.469,882s-1.94,16.516,0,18.024,22.208,3.427,24.093,1.923,2.536-18.015,2.536-18.015Z" transform="translate(-889.607 -882)" fill="#8c9df4"/>
    </g>
    <path id="Trazado_151998" data-name="Trazado 151998" d="M556.84,248.518s10.871-18.281,36.874-16.251c0,0,37.752-30.467,78.006-4.06,0,0,42.794-6.545,74.485,5.662,21.129,8.138,28.107,16.679,28.107,16.679Z" transform="translate(268.118 -109.927)" fill="#f8fcff"/>
    <path id="Trazado_151999" data-name="Trazado 151999" d="M1074.44,202.127s7.95-20.041,26.924-17.831c0,0,27.558-33.409,56.967-4.455,0,0,31.242-7.174,54.4,6.211,15.42,8.926,20.517,18.285,20.517,18.285Z" transform="translate(-333.222 -18.78)" fill="#f8fcff"/>
    <path id="Trazado_152000" data-name="Trazado 152000" d="M1653.38,508.242s5.457-13.484,18.5-11.993c0,0,18.945-22.474,39.144-3,0,0,21.472-4.823,37.375,4.18,10.605,6,14.1,12.3,14.1,12.3Z" transform="translate(-939.711 -265.444)" fill="#f8fcff"/>
    <path id="Trazado_152001" data-name="Trazado 152001" d="M934.47,381.779s6.313-11.136,21.416-9.907c0,0,21.926-18.576,45.308-2.476,0,0,24.843-3.992,43.261,3.452,12.271,4.964,16.328,10.168,16.328,10.168Z" transform="translate(-528.727 -195.426)" fill="#f8fcff"/>
    <path id="Trazado_152002" data-name="Trazado 152002" d="M2304.469,1074.435v7.547a4.223,4.223,0,0,1-4.228,4.228h-1.354a4.24,4.24,0,0,1-4.228-4.228v-7.547a4.175,4.175,0,0,1,.613-2.172h0a4.253,4.253,0,0,1,3.615-2.043h1.353A4.24,4.24,0,0,1,2304.469,1074.435Z" transform="translate(-1306.316 -599.824)" fill="#233862"/>
    <g id="Grupo_76004" data-name="Grupo 76004" transform="translate(988.344 472.439)" opacity="0.3">
      <path id="Trazado_152003" data-name="Trazado 152003" d="M2304.027,1086.593a4.24,4.24,0,0,1-3.786,2.343h-1.354a4.24,4.24,0,0,1-4.228-4.228v-7.547a4.174,4.174,0,0,1,.613-2.172C2295.354,1075.457,2297.148,1085.809,2304.027,1086.593Z" transform="translate(-2294.66 -1074.99)" fill="#233862"/>
    </g>
    <path id="Trazado_152004" data-name="Trazado 152004" d="M2159.864,1180.865h20.9V1159.77h-21.8Z" transform="translate(-1228.74 -651.018)" fill="#172944"/>
    <path id="Trazado_152005" data-name="Trazado 152005" d="M2177.887,1036.033l-102.677,2.531V984.42h67.422a17.134,17.134,0,0,1,15.25,9.318l4.41,8.611Z" transform="translate(-1180.862 -550.774)" fill="#fff"/>
    <path id="Trazado_152006" data-name="Trazado 152006" d="M2178.45,1184.93c0,5.731,2.951,12.044,2.951,12.044h5c4.39,0,7.95-5.393,7.95-12.044s-8.566-12.04-12.953-12.04S2178.45,1178.283,2178.45,1184.93Z" transform="translate(-1239.754 -658.518)" fill="#233862"/>
    <ellipse id="Elipse_4709" data-name="Elipse 4709" cx="7.954" cy="12.04" rx="7.954" ry="12.04" transform="translate(933.694 514.372)" fill="#2b478b"/>
    <ellipse id="Elipse_4710" data-name="Elipse 4710" cx="5.992" cy="9.072" rx="5.992" ry="9.072" transform="translate(935.758 517.34)" fill="#afcdfb"/>
    <path id="Trazado_152007" data-name="Trazado 152007" d="M2312.7,1184.93c0,5.731,2.955,12.044,2.955,12.044h5c4.39,0,7.954-5.393,7.954-12.044s-8.567-12.04-12.953-12.04S2312.7,1178.283,2312.7,1184.93Z" transform="translate(-1316.503 -658.518)" fill="#233862"/>
    <path id="Trazado_152008" data-name="Trazado 152008" d="M2301.29,1184.93c0,6.652,3.563,12.044,7.958,12.044s7.95-5.393,7.95-12.044-3.559-12.04-7.95-12.04S2301.29,1178.283,2301.29,1184.93Z" transform="translate(-1310.107 -658.518)" fill="#2b478b"/>
    <path id="Trazado_152009" data-name="Trazado 152009" d="M2004.439,1184.93c0,5.731,2.951,12.044,2.951,12.044h5c4.39,0,7.954-5.393,7.954-12.044s-8.566-12.04-12.957-12.04S2004.439,1178.283,2004.439,1184.93Z" transform="translate(-1140.274 -658.518)" fill="#233862"/>
    <path id="Trazado_152010" data-name="Trazado 152010" d="M1993.07,1184.93c0,6.652,3.559,12.044,7.95,12.044s7.954-5.393,7.954-12.044-3.559-12.04-7.954-12.04S1993.07,1178.283,1993.07,1184.93Z" transform="translate(-1133.904 -658.518)" fill="#2b478b"/>
    <path id="Trazado_152011" data-name="Trazado 152011" d="M2202.8,1137.587c0,5.033-3.889,7.1-8.909,7.1l-56.5.488c.171-.989-2.313-.488-2.313-1.546,0-7.783-4.673-14.1-10.426-14.1s-11.235,4.236-11.235,12.019c0,1.058-1.255,2.506-1.084,3.5l-30.274-2.66s-3.392-11.047-3.221-18.752c.137-6.7.137-19.844-.261-23.048,0-.48,33.187-.535,41.547-.57H2122l.116.077.124.09c1.546,1.084,10.207,7.153,15.582,10.708,4.737,3.127,39.723,4.4,53.442,4.784,3.427.09,5.512.124,5.512.124a24.972,24.972,0,0,1,3.534,4.956,18.665,18.665,0,0,1,2.433,8.682c0,2.06.021,4.536.021,6.969C2202.8,1136.79,2202.8,1137.188,2202.8,1137.587Z" transform="translate(-1182.783 -616.854)" fill="#fff"/>
    <path id="Trazado_152012" data-name="Trazado 152012" d="M2215.316,1061.589h-46.143a2.729,2.729,0,0,1-2.48-1.593l-11.419-25.412a1.259,1.259,0,0,1,1.148-1.773H2205.1a2.715,2.715,0,0,1,2.48,1.623l8.181,18.7,2.047,4.673a2.711,2.711,0,0,1-2.489,3.786Z" transform="translate(-1226.57 -578.437)" fill="#98baf4"/>
    <path id="Trazado_152013" data-name="Trazado 152013" d="M2148.115,1070.339c0,.8-.047,1.546-.09,2.214-.33,4.425-4.771,8.091-4.771,8.091h-10.37a18.278,18.278,0,0,0-1.225-10.306c-1.833-4.112-5.14-6.853-8.943-6.853s-7.131,2.754-8.96,6.853c-.929,2.112-3.118,4.429-3.118,7.072,0,1.058-.9,1.041-.732,2.03l-34.694,1.2V984.43h29.983l.141,17.925a28.282,28.282,0,0,0,1.529,5.088c.912,2.142,2.142,5,3.457,8.108,2.729,6.369,5.915,13.8,7.907,18.388,1,2.317,1.713,3.9,1.885,4.236.561,1.067,8.879,5.568,15.908,9.573,1.756,1,3.427,1.962,4.883,2.835a35.156,35.156,0,0,1,4.454,3C2147.263,1055.3,2148.218,1064.286,2148.115,1070.339Z" transform="translate(-1180.862 -550.78)" fill="#dfebfd"/>
    <path id="Trazado_152014" data-name="Trazado 152014" d="M2254.787,1115.774h-54.693l-19.969-15.707-.115-.077h55.172l15.707,12.635Z" transform="translate(-1240.774 -616.843)" fill="#fff"/>
    <path id="Trazado_152015" data-name="Trazado 152015" d="M2230.722,1144.767l-4.943-.488a3.855,3.855,0,0,1-3.427-3.174l-1.139-6.249a.846.846,0,0,1,0-.3,60.183,60.183,0,0,1,7.615,4.84C2229.621,1140.141,2230.268,1142.188,2230.722,1144.767Z" transform="translate(-1264.321 -636.606)" fill="#a8302d"/>
    <path id="Trazado_152016" data-name="Trazado 152016" d="M2190.52,1002.35h-56.967a33.122,33.122,0,0,0-1.649-7.808c-1.285-3.679-3.474-7.778-7.324-10.121h46.559c7.59,0,14.315,4.056,16.987,10.121.124.248.231.5.33.754A47.907,47.907,0,0,1,2190.52,1002.35Z" transform="translate(-1209.085 -550.774)" fill="#fff"/>
    <path id="Trazado_152017" data-name="Trazado 152017" d="M2230.734,1144.75l-4.956-.488a3.854,3.854,0,0,1-3.427-3.174l-1.139-6.249a.934.934,0,0,1,0-.308,63,63,0,0,1,7.616,4.853C2229.621,1140.124,2230.268,1142.171,2230.734,1144.75Z" transform="translate(-1264.321 -636.588)" fill="#a2c2dd"/>
    <path id="Trazado_152018" data-name="Trazado 152018" d="M2276.234,1186.128c0,5.033-3,9.59-9.6,9.329h-59.044a23,23,0,0,0,.63-3.474,17.183,17.183,0,0,0-1.187-7.063h69.191C2276.234,1185.331,2276.234,1185.729,2276.234,1186.128Z" transform="translate(-1256.22 -665.395)" fill="#233862"/>
    <path id="Trazado_152019" data-name="Trazado 152019" d="M2112.284,1192.217a18,18,0,0,0,.253,3.071H2075.2V1185h38.549A18.059,18.059,0,0,0,2112.284,1192.217Z" transform="translate(-1180.856 -665.441)" fill="#233862"/>
    <path id="Trazado_152020" data-name="Trazado 152020" d="M2277.125,1137.88h22.363c.715,0,1.285.964,1.152,2.03l-.792,7.774c-.116,1.144-.767,1.987-1.533,1.987H2279.9c-1.178,0-2.223-1.169-2.57-2.878l-1.328-6.609C2275.763,1139.036,2276.332,1137.88,2277.125,1137.88Z" transform="translate(-1295.617 -638.504)" fill="#233862"/>
    <path id="Trazado_152021" data-name="Trazado 152021" d="M2230.418,1053.12a82.45,82.45,0,0,1-49.608-20.32h38.948a2.716,2.716,0,0,1,2.48,1.623Z" transform="translate(-1241.231 -578.432)" fill="#afcdfb"/>
    <path id="Trazado_152022" data-name="Trazado 152022" d="M1966.662,984.42v91.46l-99.782,1.311V984.42Z" transform="translate(-1061.764 -550.774)" fill="#fff"/>
    <path id="Trazado_152023" data-name="Trazado 152023" d="M2200.3,1015.858h-56.967a33.122,33.122,0,0,0-1.649-7.808H2197.9c.124.248.231.5.33.754a47.9,47.9,0,0,1,2.065,7.054Z" transform="translate(-1218.861 -564.283)" fill="#dfebfd"/>
    <path id="Trazado_152024" data-name="Trazado 152024" d="M2349.687,1137.617a1.838,1.838,0,0,1-1.169.942l-7.671,1.422c-.651.124-1.152-1-.981-2.142l.75-5.161.026-.124.146-1.058a2.231,2.231,0,0,1,1.024-1.795l.428-.171,3.9,3.148A24.983,24.983,0,0,1,2349.687,1137.617Z" transform="translate(-1332.14 -633.73)" fill="#233862"/>
    <rect id="Rectángulo_33764" data-name="Rectángulo 33764" width="159.362" height="8.108" transform="translate(805.116 496.969)" fill="#ea6a60"/>
    <rect id="Rectángulo_33765" data-name="Rectángulo 33765" width="99.782" height="8.108" transform="translate(805.116 450.316)" fill="#ea6a60"/>
    <path id="Trazado_152025" data-name="Trazado 152025" d="M1950.2,1067.883a14.2,14.2,0,1,1,14.2,14.2A14.2,14.2,0,0,1,1950.2,1067.883Z" transform="translate(-1109.396 -590.368)" fill="#ea6a60"/>
    <path id="Trazado_152026" data-name="Trazado 152026" d="M1966.573,1082.629a12.576,12.576,0,1,1,8.892-3.684A12.576,12.576,0,0,1,1966.573,1082.629Zm0-23.986a4.732,4.732,0,1,0,0-.009Z" transform="translate(-1111.566 -592.539)" fill="#fff"/>
    <path id="Trazado_152027" data-name="Trazado 152027" d="M1980.642,1073.949h-6.069v-6.069h-4.1v6.069H1964.4v4.1h6.069v6.069h4.1v-6.069h6.069Z" transform="translate(-1117.514 -598.486)" fill="#fff"/>
    <path id="Trazado_152028" data-name="Trazado 152028" d="M2240.128,1142.821l-9.376-.929h0l-4.943-.488a3.855,3.855,0,0,1-3.427-3.174l-1.139-6.249a.858.858,0,0,1,0-.3h0a2.082,2.082,0,0,1,2.5-2.112l14.6,2.964a2.527,2.527,0,0,1,1.923,1.8l1.713,6.339a1.713,1.713,0,0,1-1.854,2.146Z" transform="translate(-1264.338 -633.73)" fill="#233862"/>
    <path id="Trazado_152029" data-name="Trazado 152029" d="M2130.742,1038.091l9.809,24.213h-16.863s-3.461-.583-3.9-7.65c-.475-7.551-.475-20.56-.475-20.56l7.406-.034C2129.534,1034.463,2129.975,1036.017,2130.742,1038.091Z" transform="translate(-1206.073 -579.152)" fill="#98baf4"/>
    <path id="Trazado_152030" data-name="Trazado 152030" d="M2151.915,1071s.857,9.787-3.975,12.464h9.021Z" transform="translate(-1222.44 -600.27)" fill="#233862"/>
    <path id="Trazado_152031" data-name="Trazado 152031" d="M2157.365,1082.721s-2.039-1.448-2.214-2.651v6.853h2.668Z" transform="translate(-1226.562 -605.455)" fill="#233862"/>
    <path id="Trazado_152032" data-name="Trazado 152032" d="M2142.058,1074.435v7.547a4.223,4.223,0,0,1-4.228,4.228h-1.354a4.24,4.24,0,0,1-4.228-4.228v-7.547a4.175,4.175,0,0,1,.613-2.172h0a4.244,4.244,0,0,1,3.615-2.043h1.354a4.241,4.241,0,0,1,4.228,4.215Z" transform="translate(-1213.47 -599.824)" fill="#233862"/>
    <path id="Trazado_152033" data-name="Trazado 152033" d="M2008.98,1192.217a10.132,10.132,0,0,0,.463,3.071h-68.7V1185h70.96A11.466,11.466,0,0,0,2008.98,1192.217Z" transform="translate(-1103.988 -665.441)" fill="#233862"/>
    <path id="Trazado_152034" data-name="Trazado 152034" d="M1935.12,1192.217a10.125,10.125,0,0,0,.458,3.071h-68.7V1185h70.96A11.441,11.441,0,0,0,1935.12,1192.217Z" transform="translate(-1061.764 -665.441)" fill="#233862"/>
    <path id="Trazado_152035" data-name="Trazado 152035" d="M1909.8,1184.99h-24.543c-.518-2.214-2.082-17.99,11.672-17.99C1909.422,1167,1910.339,1181.4,1909.8,1184.99Z" transform="translate(-1072.084 -655.151)" fill="#172944"/>
    <path id="Trazado_152036" data-name="Trazado 152036" d="M1903.3,1184.93c0,5.731,2.955,12.044,2.955,12.044h5c4.395,0,7.954-5.393,7.954-12.044s-8.566-12.04-12.952-12.04S1903.3,1178.283,1903.3,1184.93Z" transform="translate(-1082.459 -658.518)" fill="#233862"/>
    <path id="Trazado_152037" data-name="Trazado 152037" d="M1891.93,1184.93c0,6.652,3.559,12.044,7.954,12.044s7.954-5.393,7.954-12.044-3.563-12.04-7.954-12.04S1891.93,1178.283,1891.93,1184.93Z" transform="translate(-1076.085 -658.518)" fill="#2b478b"/>
    <ellipse id="Elipse_4711" data-name="Elipse 4711" cx="5.992" cy="9.072" rx="5.992" ry="9.072" transform="translate(817.905 517.34)" fill="#afcdfb"/>
    <path id="Trazado_152038" data-name="Trazado 152038" d="M1185.076,504.366s-4.866-10.34-3.889-15.792.758-12.691,8.027-15.488,7.915-.1,15.818-.942c7.658-.814,10.4,8.883,11.136,13,1.529,8.708-1.092,14.16-3.4,17.094-2,2.54-2.9,3.812-2.9,3.812Z" transform="translate(-669.695 -257.709)" fill="#233862"/>
    <path id="Trazado_152039" data-name="Trazado 152039" d="M1143.26,1209.454s0-5.1.728-6.793,3.392-8.6,3.392-8.6H1157.8s1.94,6.3,2.06,8.357,0,7.037,0,7.037Z" transform="translate(-648.087 -670.62)" fill="#233862"/>
    <path id="Trazado_152040" data-name="Trazado 152040" d="M1275.476,1209.454s0-5.1-.728-6.793-3.392-8.6-3.392-8.6h-10.417s-1.94,6.3-2.06,8.357,0,7.037,0,7.037Z" transform="translate(-714.154 -670.62)" fill="#233862"/>
    <path id="Trazado_152041" data-name="Trazado 152041" d="M1143.485,817.66s1.825,55.682-.9,87.421,0,75.959,0,75.959a20.612,20.612,0,0,0,18.165,0s10.361-61.357,10.28-75.959c-.069-15.548,11.278-84.992,11.278-84.992Z" transform="translate(-647.006 -455.441)" fill="#6bb7bf"/>
    <path id="Trazado_152042" data-name="Trazado 152042" d="M1243.831,980.909a20.6,20.6,0,0,1-18.165,0s-10.361-61.353-10.28-75.955c.03-6.566-1.975-22.753-4.283-39.252-3.187-22.573-6.973-45.741-6.973-45.741l40.365-2.523s-3.333,55.759-.6,87.515S1243.831,980.909,1243.831,980.909Z" transform="translate(-682.885 -455.315)" fill="#6bb7bf"/>
    <path id="Trazado_152043" data-name="Trazado 152043" d="M1128.228,606.36s-15.017,1.782-18.315,15.274-16.276,47.775-3.3,55.519c0,0,13.736-18.418,18.958-33.238S1128.228,606.36,1128.228,606.36Z" transform="translate(-623.907 -334.646)" fill="#aec3ff"/>
    <path id="Trazado_152044" data-name="Trazado 152044" d="M1280.093,623.047s15.111-1.9,18.418,11.59,13.839,43.616.857,51.365c0,0-14.657-17.767-19.878-32.6S1280.093,623.047,1280.093,623.047Z" transform="translate(-724.724 -344.133)" fill="#aec3ff"/>
    <path id="Trazado_152045" data-name="Trazado 152045" d="M1182.465,553.808s-.368,11.359-1.82,16.448l-11.5,8.027,43.308,6.5-10.327-14.272s-3.118-15.227-1.486-20.859S1182.465,553.808,1182.465,553.808Z" transform="translate(-662.882 -301.227)" fill="#ffb27d"/>
    <path id="Trazado_152046" data-name="Trazado 152046" d="M1200.1,565.36s3.427,8.241,9.877,8.061,7.92-7.479,7.92-7.479Z" transform="translate(-680.581 -311.207)" fill="#ed985f"/>
    <path id="Trazado_152047" data-name="Trazado 152047" d="M1203.708,535.156c-4.673-.081-13.278-6.3-13.278-14.015V509.114c0-2.814,1.962-5.114,4.36-5.114h17.831c2.4,0,4.36,2.3,4.36,5.114V520.46C1216.986,528.543,1209.092,535.268,1203.708,535.156Z" transform="translate(-675.053 -276.129)" fill="#ffb27d"/>
    <path id="Trazado_152048" data-name="Trazado 152048" d="M1207.188,718.106c-33.443,5.77-69.3,1.1-69.3,1.1l3.332-67.585c-.09-.977-.154-1.983-.18-3-.039-1.349,0-2.947.068-4.712.672-14.182,4.956-39.7,8.224-41.076a60.3,60.3,0,0,1,13.445-2.686c0,.171,4.986,7.457,10.9,8.271,3.675-1.452,6.558-2.694,10.58-8.035,2.356.274,4.836.617,7.466,1.118.193.03.394.069.591.107a80.471,80.471,0,0,1,9.239,2.377s4.249,1.645,3.307,31.268Z" transform="translate(-645.017 -331.096)" fill="#abddda"/>
    <path id="Trazado_152049" data-name="Trazado 152049" d="M1212.74,558.231a5.14,5.14,0,0,0,4,1.9,4.759,4.759,0,0,0,3.735-1.9A25.234,25.234,0,0,0,1212.74,558.231Z" transform="translate(-687.807 -306.952)" fill="#fff"/>
    <path id="Trazado_152050" data-name="Trazado 152050" d="M1124.907,666.257l-1.868,100.63s15.077,3.9,28.038,4.712l3.358-123.019-4.617-41.637-4.193-6.853s-13.865,1.084-22.166,7.847c-5.662,4.613-8.28,20.35-8.28,20.35l13.051,13.706Z" transform="translate(-632.035 -331.061)" fill="#aec3ff"/>
    <path id="Trazado_152051" data-name="Trazado 152051" d="M1265.912,666.274l1.867,100.63s-15.077,3.9-28.038,4.712L1237,652.277l3.988-45.3,4.193-6.853s13.826,1.135,22.166,7.847c8.948,7.2,10.742,24.928,10.742,24.928l-15.514,9.128Z" transform="translate(-701.676 -331.078)" fill="#aec3ff"/>
    <path id="Trazado_152052" data-name="Trazado 152052" d="M1113.725,735.956c15.176,4.086,23.716-6.472,59.224-21.069l-1.075-5.667s-40.828.475-47.972,4.347C1114.591,718.6,1112.479,735.622,1113.725,735.956Z" transform="translate(-631.017 -393.448)" fill="#ffb27d"/>
    <path id="Trazado_152053" data-name="Trazado 152053" d="M1162.627,700.143s-15.334-.857-15.5,6.952l14.173-.647Z" transform="translate(-650.3 -388.243)" fill="#ffb27d"/>
    <path id="Trazado_152054" data-name="Trazado 152054" d="M1273.921,708.769s11.475-2.908,13.4,4.776-16.5,0-16.5,0Z" transform="translate(-721.011 -392.882)" fill="#ed985f"/>
    <path id="Trazado_152055" data-name="Trazado 152055" d="M1190.983,724.983s-4.365-5.251-14.923-11.9l17.921,3.384,5.474,4.485-2.493,1.285Z" transform="translate(-666.838 -395.655)" fill="#ed985f"/>
    <path id="Trazado_152056" data-name="Trazado 152056" d="M1253.22,709.348l15.283-1.118-1.067,4.365Z" transform="translate(-710.949 -392.882)" fill="#ed985f"/>
    <path id="Trazado_152057" data-name="Trazado 152057" d="M1147.13,712.606s10.485-1.795,10.28-1.932-3.812-1.238-4.643-.827S1147.13,712.606,1147.13,712.606Z" transform="translate(-650.3 -393.755)" fill="#ed985f"/>
    <path id="Trazado_152058" data-name="Trazado 152058" d="M1186.991,586.35s-6.348,3.512-7.461,6.806c0,0-3.075,13.389.981,22.41l6.48-1.572-3.328,4.091s1.713,18.6,6.922,22.654C1190.584,640.738,1186.524,591.34,1186.991,586.35Z" transform="translate(-668.183 -323.206)" fill="#8c9df4"/>
    <path id="Trazado_152059" data-name="Trazado 152059" d="M1239.874,586.35s6.348,3.512,7.457,6.806c0,0,4.056,12.447,0,21.463l-7.457-.625,5.337,4.4s-2.973,21.96-8.181,26.008C1237.017,644.4,1240.341,591.34,1239.874,586.35Z" transform="translate(-701.694 -323.206)" fill="#8c9df4"/>
    <path id="Trazado_152060" data-name="Trazado 152060" d="M1237.526,730.15s-31.5-3.427-68.386-26.693l6.069-3.277s48.4,5.251,54.444,9.8C1239.162,717.133,1244.662,728.484,1237.526,730.15Z" transform="translate(-662.882 -388.28)" fill="#ffb27d"/>
    <rect id="Rectángulo_33766" data-name="Rectángulo 33766" width="10.344" height="4.545" transform="translate(501.983 296.45)" fill="#ebf3fa"/>
    <path id="Trazado_152061" data-name="Trazado 152061" d="M1195.515,494.745s4.754,4.313,10.837,3.461,5.941-3.4,6.793-2.322.942,9.813,2.142,10.387l.63-11.526-12.062-6.935-17.3,1.992,1.683,16.889s-.321-6.189,2.3-7.971A50.246,50.246,0,0,0,1195.515,494.745Z" transform="translate(-672.835 -266.873)" fill="#233862"/>
    <path id="Trazado_152062" data-name="Trazado 152062" d="M315.31,1208.618s0-5.1.724-6.8,3.392-8.6,3.392-8.6h10.421s1.936,6.3,2.056,8.357,0,7.042,0,7.042Z" transform="translate(-174.767 -670.14)" fill="#233862"/>
    <path id="Trazado_152063" data-name="Trazado 152063" d="M447.514,1208.618s0-5.1-.728-6.8-3.392-8.6-3.392-8.6H432.977s-1.936,6.3-2.06,8.357,0,7.042,0,7.042Z" transform="translate(-240.825 -670.14)" fill="#233862"/>
    <path id="Trazado_152064" data-name="Trazado 152064" d="M315.538,816.79s1.82,55.682-.9,87.416,0,75.959,0,75.959a20.623,20.623,0,0,0,18.169,0s10.361-61.357,10.28-75.959c-.073-15.548,11.278-84.992,11.278-84.992Z" transform="translate(-173.689 -454.944)" fill="#2b478b"/>
    <path id="Trazado_152065" data-name="Trazado 152065" d="M415.843,980.029a20.585,20.585,0,0,1-18.161,0s-10.365-61.353-10.28-75.955c.03-6.566-1.979-22.753-4.309-39.252-3.187-22.573-6.973-45.741-6.973-45.741l40.365-2.523s-3.328,55.759-.6,87.515S415.843,980.029,415.843,980.029Z" transform="translate(-209.531 -454.812)" fill="#2b478b"/>
    <path id="Trazado_152066" data-name="Trazado 152066" d="M396.669,942.68c.03-6.566-1.979-22.753-4.309-39.252,2.416-9.851,8.305-19.339,8.305-19.339C408.118,904.988,396.669,942.68,396.669,942.68Z" transform="translate(-218.815 -493.418)" fill="#233862"/>
    <path id="Trazado_152067" data-name="Trazado 152067" d="M300.275,605.48s-15.017,1.782-18.311,15.274-16.276,47.775-3.3,55.524c0,0,13.736-18.418,18.953-33.242S300.275,605.48,300.275,605.48Z" transform="translate(-150.588 -334.143)" fill="#ffb27d"/>
    <path id="Trazado_152068" data-name="Trazado 152068" d="M452.145,622.167s15.107-1.9,18.418,11.59,13.835,43.616.857,51.365c0,0-14.661-17.767-19.878-32.6S452.145,622.167,452.145,622.167Z" transform="translate(-251.406 -343.63)" fill="#ffb27d"/>
    <path id="Trazado_152069" data-name="Trazado 152069" d="M354.515,552.913s-.368,11.355-1.82,16.443l-11.5,8.048,43.308,6.459-10.331-14.272s-3.118-15.227-1.482-20.859S354.515,552.913,354.515,552.913Z" transform="translate(-189.562 -300.704)" fill="#ffb27d"/>
    <path id="Trazado_152070" data-name="Trazado 152070" d="M372.15,564.48s3.427,8.241,9.877,8.061,7.915-7.474,7.915-7.474Z" transform="translate(-207.262 -310.704)" fill="#ed985f"/>
    <path id="Trazado_152071" data-name="Trazado 152071" d="M357.383,505.1s-2.082-10.4-3.538-13.548-2.664-17.2,13.449-17.93c0,0,6.176.728,9.569-1.332,0,0,0,2.06-.857,2.784a10.708,10.708,0,0,1,9.941,3.517c4.36,4.844-2.9,21.806-2.544,25.8Z" transform="translate(-196.345 -258.001)" fill="#2c3a64"/>
    <path id="Trazado_152072" data-name="Trazado 152072" d="M375.758,534.248c-4.673-.081-13.278-6.3-13.278-14.01V508.21c0-2.814,1.962-5.14,4.36-5.14h17.835c2.4,0,4.36,2.3,4.36,5.14v11.346C389.036,527.634,381.121,534.342,375.758,534.248Z" transform="translate(-201.733 -275.597)" fill="#ffb27d"/>
    <path id="Trazado_152073" data-name="Trazado 152073" d="M361.685,511.02s.026-7.226,5.748-8.339,18.534,3.525,20.354-1.748-24.761-5.178-26.1-1.816S361.685,511.02,361.685,511.02Z" transform="translate(-200.938 -271.987)" fill="#2c3a64"/>
    <path id="Trazado_152074" data-name="Trazado 152074" d="M381.089,634.534l-1.85,82.666c-33.443,5.765-69.3,1.1-69.3,1.1l3.328-67.585c-.086-.977-.154-1.983-.18-3-.039-1.353,0-2.951.073-4.712.668-14.182,4.956-39.7,8.224-41.076a60.292,60.292,0,0,1,13.445-2.686c0,.171,4.981,7.457,10.892,8.271,3.675-1.452,6.562-2.694,10.584-8.035,2.356.278,4.836.617,7.466,1.118l.587.111a80.251,80.251,0,0,1,9.243,2.373s4.245,1.645,3.307,31.268Z" transform="translate(-171.697 -330.575)" fill="#abddda"/>
    <path id="Trazado_152075" data-name="Trazado 152075" d="M384.79,557.361a5.14,5.14,0,0,0,4,1.9,4.75,4.75,0,0,0,3.739-1.9A25.24,25.24,0,0,0,384.79,557.361Z" transform="translate(-214.487 -306.454)" fill="#fff"/>
    <path id="Trazado_152076" data-name="Trazado 152076" d="M285.775,735.08c15.175,4.082,23.712-6.476,59.224-21.073l-1.062-5.667s-40.823.475-47.972,4.352C286.636,717.725,284.529,734.75,285.775,735.08Z" transform="translate(-157.697 -392.945)" fill="#ffb27d"/>
    <path id="Trazado_152077" data-name="Trazado 152077" d="M307.53,601.34h0l-3.581,10.588-.163.48-.051.146-.257.775-4.433,13.137-.428,1.285L293.738,642.2l-1.345.116c-12.7.887-18.983-2.9-18.983-2.9s2.613-16.9,8.931-26.513c4.129-6.288,13.642-9.3,19.7-10.64l.57-.12C305.534,601.55,307.53,601.34,307.53,601.34Z" transform="translate(-150.814 -331.776)" fill="#abddda"/>
    <path id="Trazado_152078" data-name="Trazado 152078" d="M445.915,605.48s11.226,1.649,18.641,10.468,9.342,24.2,9.342,24.2a51.489,51.489,0,0,1-22.388,3.294C439.422,642.346,445.915,605.48,445.915,605.48Z" transform="translate(-248.436 -334.143)" fill="#abddda"/>
    <rect id="Rectángulo_33767" data-name="Rectángulo 33767" width="15.488" height="5.894" transform="translate(184.24 294.758)" fill="#ebf3fa"/>
    <path id="Trazado_152079" data-name="Trazado 152079" d="M331.1,653.059l.732-.334c-.047-.1-4.442-9.873-1.482-20.448a8.082,8.082,0,0,1,6.592-5.821c2.9-.385,5.538,1.028,7.226,3.855,4,6.746-3.285,23.078-3.358,23.241l.732.334a69.714,69.714,0,0,0,3.251-9.243c1.825-6.78,1.846-11.74.064-14.743-1.859-3.131-4.784-4.682-8.022-4.253a8.9,8.9,0,0,0-7.247,6.412C326.533,642.925,331.052,652.961,331.1,653.059Z" transform="translate(-182.324 -345.631)" fill="#2b478b"/>
    <path id="Trazado_152080" data-name="Trazado 152080" d="M357.621,690.038a1.156,1.156,0,1,0-1.422.8A1.156,1.156,0,0,0,357.621,690.038Z" transform="translate(-197.658 -381.642)" fill="#2b478b"/>
    <path id="Trazado_152081" data-name="Trazado 152081" d="M335.16,688.179a1.156,1.156,0,1,0-1.426.8A1.156,1.156,0,0,0,335.16,688.179Z" transform="translate(-184.817 -380.58)" fill="#2b478b"/>
    <path id="Trazado_152082" data-name="Trazado 152082" d="M351.2,610.552a.165.165,0,0,1-.064,0,.27.27,0,0,1-.206-.326c0-.077,1.786-7.748,5.722-12.19a.274.274,0,0,1,.385-.026.278.278,0,0,1,.026.39c-3.855,4.335-5.568,11.869-5.6,11.946A.274.274,0,0,1,351.2,610.552Z" transform="translate(-195.127 -329.834)" fill="#2b478b"/>
    <path id="Trazado_152083" data-name="Trazado 152083" d="M334.667,699.263s-15.33-.857-15.5,6.952l14.177-.643Z" transform="translate(-176.974 -387.74)" fill="#ffb27d"/>
    <path id="Trazado_152084" data-name="Trazado 152084" d="M445.967,707.9s11.475-2.913,13.4,4.771-16.495,0-16.495,0Z" transform="translate(-247.691 -392.383)" fill="#ed985f"/>
    <path id="Trazado_152085" data-name="Trazado 152085" d="M427.727,611.878a.283.283,0,0,1-.261-.18,45.4,45.4,0,0,0-7.3-12.691.28.28,0,1,1,.428-.36A46.052,46.052,0,0,1,428,611.5a.274.274,0,0,1-.163.351A.4.4,0,0,1,427.727,611.878Z" transform="translate(-234.672 -330.179)" fill="#2b478b"/>
    <path id="Trazado_152086" data-name="Trazado 152086" d="M437,626.826a2.681,2.681,0,1,0-.784,1.9,2.686,2.686,0,0,0,.784-1.9Z" transform="translate(-241.265 -344.81)" fill="#2b478b"/>
    <path id="Trazado_152087" data-name="Trazado 152087" d="M437.49,628.769a1.225,1.225,0,1,0-1.221,1.221A1.225,1.225,0,0,0,437.49,628.769Z" transform="translate(-243.214 -346.754)" fill="#6980e2"/>
    <path id="Trazado_152088" data-name="Trazado 152088" d="M363.077,724.113s-4.369-5.251-14.927-11.9l17.925,3.379,5.47,4.484-2.493,1.285Z" transform="translate(-193.541 -395.158)" fill="#ed985f"/>
    <path id="Trazado_152089" data-name="Trazado 152089" d="M425.26,708.468l15.283-1.118-1.067,4.365Z" transform="translate(-237.623 -392.379)" fill="#ed985f"/>
    <path id="Trazado_152090" data-name="Trazado 152090" d="M409.576,729.27s-31.5-3.427-68.386-26.693l6.065-3.277s48.4,5.251,54.444,9.809C411.212,716.253,416.708,727.6,409.576,729.27Z" transform="translate(-189.562 -387.777)" fill="#ffb27d"/>
    <path id="Trazado_152091" data-name="Trazado 152091" d="M319.17,711.73s10.485-1.795,10.305-1.932-3.812-1.238-4.643-.822S319.17,711.73,319.17,711.73Z" transform="translate(-176.974 -393.256)" fill="#ed985f"/>
    <path id="Trazado_152092" data-name="Trazado 152092" d="M1415.412,699.353c-.531,1-4.056,38.549-1.285,43.475s15.848-9.423,16.169-33.641C1430.571,688.795,1415.412,699.353,1415.412,699.353Z" transform="translate(-802.335 -386.246)" fill="#ffb27d"/>
    <rect id="Rectángulo_33768" data-name="Rectángulo 33768" width="54.093" height="38.142" transform="translate(638.891 387.554) rotate(-162.78)" fill="#233862"/>
    <path id="Trazado_152093" data-name="Trazado 152093" d="M1415.67,987.57l5.324,1.983s23.129-32.06,25.961-60.269a42.776,42.776,0,0,0-.762-14.422s.227-1.285.625-3.572c.18-1.067.407-2.347.664-3.816.75-4.283,1.786-10.2,2.968-16.906,2.72-15.42,6.241-35.174,8.995-49.685l-1.435-.463-15.518-5-3.208-10.185-11.565-3.041s-2.57,5.046-4.887,28.9c-.428,3.127-.814,6.579-1.1,10.318a204.189,204.189,0,0,0,1.1,41.779c.531,4.146,1.2,8.425,2.03,12.824a56.5,56.5,0,0,1,.428,12.661C1424.134,951.736,1415.67,987.57,1415.67,987.57Z" transform="translate(-803.818 -458.031)" fill="#2b478b"/>
    <path id="Trazado_152094" data-name="Trazado 152094" d="M1429.81,861.411,1454.9,911.29c.18-1.067.407-2.347.664-3.816.75-4.283,1.786-10.2,2.968-16.906,2.72-15.42,6.241-35.174,8.995-49.685l-1.435-.463-15.518-5-3.208-10.186L1435.8,822.19s-2.57,5.046-4.887,28.9C1430.487,854.233,1430.1,857.659,1429.81,861.411Z" transform="translate(-811.901 -458.031)" fill="#233862"/>
    <path id="Trazado_152095" data-name="Trazado 152095" d="M1455.58,820.853l.583-4.981c9.727,2.57,35.726-7.222,35.726-7.222s9.423,8.288,8.189,28.149c-.6,9.693-1.713,50.889-2.861,63.079-.428,4.42-.78,7.564-.929,8.819a1.773,1.773,0,0,0,.283,1.079,57.644,57.644,0,0,1,4.257,8.943c11.308,30.145-1.743,67.247-1.743,67.247L1495.7,984.6s-7.427-41.312-13.466-59.563a36.082,36.082,0,0,0-2.9-6.982c-2.626-4.236-5.063-11.158-7.281-19.39-4.176-15.561-7.538-35.808-9.779-51.433C1461.962,847.281,1455.58,820.853,1455.58,820.853Z" transform="translate(-826.634 -450.29)" fill="#2b478b"/>
    <path id="Trazado_152096" data-name="Trazado 152096" d="M1511.16,1209h26.8a14.724,14.724,0,0,0-.758-7.187c-1.341-2.973-3.427-4.326-2.938-7.924a9.658,9.658,0,0,1-8.357,3.2c-.475.771-3.062,4.892-4.652,6.031C1519.508,1204.375,1511.7,1203.926,1511.16,1209Z" transform="translate(-858.407 -670.523)" fill="#233862"/>
    <path id="Trazado_152097" data-name="Trazado 152097" d="M1376.78,1210.619h26.809s1-4.283-.758-7.187c-1.559-2.57-.964-4.039.193-6.168a10.442,10.442,0,0,1-4.515.857,9.423,9.423,0,0,1-3.988-1.4c-1.152,1.315-6.095,6.913-7.637,8.022C1385.132,1205.993,1377.3,1205.543,1376.78,1210.619Z" transform="translate(-781.585 -672.141)" fill="#233862"/>
    <path id="Trazado_152098" data-name="Trazado 152098" d="M1493.361,507.406c.21-.724,2.754-8.412,14.79-5.8,0,0-6.044-.784-7.71,1.538,0,0,4.8-2.176,7.8-.326s3.461,8.031,3,9.911-3.791,7.466-6,7.457a6.515,6.515,0,0,1-2.5-.63,28.77,28.77,0,0,1,.857,3.268c2.287,10.978-5.037,19.275-8.8,17.21-2.416-1.332-4.283,2.9-4.283,2.9l-19.968-26.689S1484.653,499.486,1493.361,507.406Z" transform="translate(-835.186 -274.451)" fill="#2c3a64"/>
    <path id="Trazado_152099" data-name="Trazado 152099" d="M1480.356,630.872c16.538,5.161,19.176-20.765,18.122-20.9-1.782-1.593-4.15-7.71-4.073-16.974l-.81.154-13.539,2.626s.287,4.283.287,8.271c0,3.135-.2,6.117-.857,6.8-1.049.146-1.683.248-1.683.248h0C1477.624,611.388,1475.944,629.5,1480.356,630.872Z" transform="translate(-839.074 -327.008)" fill="#ffb27d"/>
    <path id="Trazado_152100" data-name="Trazado 152100" d="M1483.68,596s.291,4.258.283,8.267c7.573-.184,11.6-7.072,13.278-10.892Z" transform="translate(-842.698 -327.22)" fill="#ed985f"/>
    <path id="Trazado_152101" data-name="Trazado 152101" d="M1469.908,568.03s17.912.364,17.99-10.794,2.407-18.623-9.029-19.33-13.676,3.542-14.6,7.281S1465.252,567.649,1469.908,568.03Z" transform="translate(-831.47 -295.468)" fill="#ffb27d"/>
    <path id="Trazado_152102" data-name="Trazado 152102" d="M1463.156,535.909c2.784-3.345,4.874-2.6,6.039-1.589a12.522,12.522,0,0,1,16.092,2.638,21.305,21.305,0,0,0,6.922,12.618s-3.272,2-10.794.039a12.778,12.778,0,0,1-6.078-4.228,41.794,41.794,0,0,0,7.17,8.811c-8.995-4.189-12.537-16.7-12.888-18.032-1.1.977-3.264,3.1-3.928,5.191-.9,2.835-1.328,8.682-3.032,8.477C1462.647,549.834,1458.985,540.925,1463.156,535.909Z" transform="translate(-829.824 -292.409)" fill="#2c3a64"/>
    <path id="Trazado_152103" data-name="Trazado 152103" d="M1505.1,625.5s2.814.912,2.964,2.9c0,0-7.543,14.092-15.882,14.893Z" transform="translate(-847.557 -345.588)" fill="#91cecf"/>
    <path id="Trazado_152104" data-name="Trazado 152104" d="M1418.443,696.4l-6.472,36.909c3.816,2.339,7.508,4.347,11.055,6.069a44.477,44.477,0,0,1,2.9-6.356c-.514,1.9.788,6.1,1.61,8.412,33.007,14.22,52.937,3.294,52.937,3.294-4.956-36.459-1.285-96.484-2.172-100.776-1.713-8.138-17.561-11.685-17.561-11.685a39.833,39.833,0,0,1-15.886,14.9c-3.791-3.744-4.776-13.771-4.776-13.771l-6.622,1.628a25.035,25.035,0,0,0-11.423,6.215c-.283.278-.57.561-.857.857-3.272,3.5-11.792,26.089-11.792,26.089s1.79,6.206,5.076,9.329a38.67,38.67,0,0,0,6.463,4.712Z" transform="translate(-800.222 -349.458)" fill="#abddda"/>
    <path id="Trazado_152105" data-name="Trazado 152105" d="M1482.6,646.374s-4.133-13.681-3.654-15.454c0,0-3.238.4-3.521,2.274C1475.43,633.212,1479.1,644.631,1482.6,646.374Z" transform="translate(-837.981 -348.686)" fill="#91cecf"/>
    <path id="Trazado_152106" data-name="Trazado 152106" d="M1478.606,593.359s-.8,1.743-1.919,1.936a9.177,9.177,0,0,1-3.272,0c-.394-.188-1.024-1.413-1.285-1.79a54.631,54.631,0,0,1,6.219-.146Z" transform="translate(-836.095 -327.196)" fill="#fff"/>
    <path id="Trazado_152107" data-name="Trazado 152107" d="M1421.25,717.576a45.934,45.934,0,0,0,6.463,4.712s4.96-18.555,3.482-19.844S1427,713.335,1421.25,717.576Z" transform="translate(-807.008 -389.52)" fill="#91cecf"/>
    <path id="Trazado_152108" data-name="Trazado 152108" d="M1572.938,688.54s23.129,31.477,20.881,42.168c-1.786,8.515-25.181,28.089-25.181,28.089l-6.039-3.9s14.606-21.172,13.325-27.374c-.994-4.827-15.484-23.129-15.484-23.129Z" transform="translate(-886.58 -381.626)" fill="#ffb27d"/>
    <path id="Trazado_152109" data-name="Trazado 152109" d="M1542.7,641.41s12.824,6.887,23.862,28.749a42.027,42.027,0,0,1-19.48,12.871c-12.965,4.206-12.528-20.846-12.528-20.846Z" transform="translate(-871.782 -354.683)" fill="#abddda"/>
    <path id="Trazado_152110" data-name="Trazado 152110" d="M1469.3,698.87l-15.9.039-.1,13.06,6.977,3.928,8.669-3.345Z" transform="translate(-825.324 -387.532)" fill="#91cecf"/>
    <path id="Trazado_152111" data-name="Trazado 152111" d="M1549.86,842.071s-6.523-2.484-10.173-1.512c-2.06.553-5.881,7.83-3.5,8.931s5.076-2.793,8.005-2.06,6.558,4.99,10.151-1.855Z" transform="translate(-872.282 -468.403)" fill="#ffb27d"/>
    <path id="Trazado_152112" data-name="Trazado 152112" d="M1561.944,839.6a31.83,31.83,0,0,1-3.641-1.923c-1.131-.792-1.82.617,0,1.923s2.471.72,2.471.72Z" transform="translate(-884.717 -466.751)" fill="#ffb27d"/>
    <path id="Trazado_152113" data-name="Trazado 152113" d="M1362.052,838.676s7.4-3.512,8.9.428-1.1,7.247-3.572,6.468S1360.484,842.158,1362.052,838.676Z" transform="translate(-772.978 -466.632)" fill="#ffb27d"/>
    <path id="Trazado_152114" data-name="Trazado 152114" d="M1522.411,691.857l-.578-.557c.073-.077,7.444-7.86,8.138-18.82a8.087,8.087,0,0,0-4.283-7.667c-2.617-1.319-5.568-.857-8.1,1.285-6,5.046-4.506,22.868-4.489,23.048l-.8.073a69.113,69.113,0,0,1,0-9.8c.51-7,2.142-11.7,4.8-13.942,2.788-2.343,6.061-2.844,8.973-1.371a8.884,8.884,0,0,1,4.746,8.434C1530.061,683.8,1522.488,691.784,1522.411,691.857Z" transform="translate(-858.959 -367.185)" fill="#2b478b"/>
    <path id="Trazado_152115" data-name="Trazado 152115" d="M1510.717,722.126a1.156,1.156,0,1,1,1.084,1.229,1.157,1.157,0,0,1-1.084-1.229Z" transform="translate(-858.153 -400.208)" fill="#2b478b"/>
    <path id="Trazado_152116" data-name="Trazado 152116" d="M1532.557,727.737a1.156,1.156,0,1,1,1.079,1.229A1.156,1.156,0,0,1,1532.557,727.737Z" transform="translate(-870.638 -403.416)" fill="#2b478b"/>
    <path id="Trazado_152117" data-name="Trazado 152117" d="M1538.641,647.13h-.034a.274.274,0,0,1-.24-.3c0-.077.857-7.766-1.345-13.124a.276.276,0,1,1,.51-.21c2.249,5.491,1.388,13.317,1.379,13.394a.27.27,0,0,1-.27.244Z" transform="translate(-873.18 -350.059)" fill="#2b478b"/>
    <path id="Trazado_152118" data-name="Trazado 152118" d="M1461.8,650.411h0a.274.274,0,0,1-.261-.283,46.05,46.05,0,0,1,3.1-14.512.274.274,0,0,1,.36-.146.27.27,0,0,1,.146.36,45.574,45.574,0,0,0-3.058,14.319.274.274,0,0,1-.287.261Z" transform="translate(-830.041 -351.275)" fill="#2b478b"/>
    <path id="Trazado_152119" data-name="Trazado 152119" d="M1456.429,668.293a2.686,2.686,0,1,1,3.38,1.713A2.686,2.686,0,0,1,1456.429,668.293Z" transform="translate(-827.042 -368.035)" fill="#2b478b"/>
    <path id="Trazado_152120" data-name="Trazado 152120" d="M1459.781,669.812a1.221,1.221,0,1,1,1.538.788A1.221,1.221,0,0,1,1459.781,669.812Z" transform="translate(-829.002 -370.008)" fill="#6980e2"/>
    <path id="Trazado_152121" data-name="Trazado 152121" d="M614.22,1215.128h17.317a41.909,41.909,0,0,0-1.383-6.215,17.416,17.416,0,0,0-.981-2.5c-1.683-3.358-12.379-1.221-12.379-1.221s-.994.857-1.769,4.1A34.172,34.172,0,0,0,614.22,1215.128Z" transform="translate(-345.647 -676.603)" fill="#233862"/>
    <path id="Trazado_152122" data-name="Trazado 152122" d="M685.848,609.19s13.8,2.424,16.914,10.567S723.506,759.45,723.506,759.45s-8.721,6.926-27.46,4.442S685.848,609.19,685.848,609.19Z" transform="translate(-385.485 -336.264)" fill="#aec3ff"/>
    <path id="Trazado_152123" data-name="Trazado 152123" d="M736.388,1201.513c.047,2.356.343,4.583,1.2,5.465h34.266c-.428-1.242-1.671-3.105-5.187-3.675-3.992-.647-10.22-2.57-13.856-6.425a10.3,10.3,0,0,1-2.686-4.857c-1.611-7.174-13.325,2.2-13.325,2.2a58.054,58.054,0,0,0-.407,7.294Z" transform="translate(-415.487 -667.909)" fill="#233862"/>
    <path id="Trazado_152124" data-name="Trazado 152124" d="M697.751,990.355c-3.825,1.221-11.136,4.947-15.788,3.2-3-1.131-19.793-49.685-20.881-70.935a54.833,54.833,0,0,0-.857-6.326c-.994-5.483-2.733-13.012-4.737-21.326-5.371-22.273-12.635-50.135-12.481-59.04.244-13.822,41.192-2.9,41.192-2.9a147.773,147.773,0,0,1,3.38,27.751c1.114,32.587,4.168,87.626,12.486,125.85a3.285,3.285,0,0,1-2.313,3.726Z" transform="translate(-362.103 -461.883)" fill="#59a9ad"/>
    <path id="Trazado_152125" data-name="Trazado 152125" d="M643.161,838.7l-21.647,156.89s-9.5,2.3-16.9.458c0,0-6.335-83.442-5.808-103.611s-4.549-53.969,1.161-57.708S643.161,838.7,643.161,838.7Z" transform="translate(-335.933 -464.617)" fill="#6bb7bf"/>
    <path id="Trazado_152126" data-name="Trazado 152126" d="M597.23,613.549s22.748-14.709,39.067-7.187c2.6,1.2,5.568,4.544,7.688,6.883,5.9,6.5,17.42,109.736,17.42,109.736s-32.715,11.081-64.176-3.756Z" transform="translate(-335.935 -333.423)" fill="#fff"/>
    <path id="Trazado_152127" data-name="Trazado 152127" d="M691.46,608.32s23.027,9.423,26.128,16.7,13.278,51.784,13.278,57.006-17.651,1.169-20.5-7.256c-2.36-6.995-10.318-28.479-14.516-42.07Z" transform="translate(-389.804 -335.766)" fill="#aec3ff"/>
    <path id="Trazado_152128" data-name="Trazado 152128" d="M656.508,597.647a25.9,25.9,0,0,1-17.818-3.628,51.691,51.691,0,0,0,3.795-13.415c.021-.159.039-.313.051-.458a13.561,13.561,0,0,0,.064-3.075h13s3.551,1.628,3.551,2.75v1.713c.026,1.495.086,2.8.163,3.919a35.547,35.547,0,0,0,.668,5.367S661.584,596.653,656.508,597.647Z" transform="translate(-359.636 -317.901)" fill="#ffb27d"/>
    <path id="Trazado_152129" data-name="Trazado 152129" d="M664.03,588.661c-9.851,1.906-15.565-3.478-16.846-4.857-.18-.2-.274-.313-.274-.313.1-.056.214-.1.326-.146,3.667-1.486,11.993-.3,16.632,1.4C663.893,586.237,663.953,587.543,664.03,588.661Z" transform="translate(-364.335 -321.102)" fill="#e2915a"/>
    <path id="Trazado_152130" data-name="Trazado 152130" d="M636.712,540.262c1.76,9.47,13.98,9.158,19.275,8.566,1.486-.167,2.42-.355,2.42-.355,1.679-.428,2.613-3.088,3.045-6.545.857-6.853-.227-16.885-1.383-19.454-1.739-3.855-5.016-8.044-17.321-5.028S634.471,528.123,636.712,540.262Z" transform="translate(-357.097 -283.226)" fill="#ffb27d"/>
    <path id="Trazado_152131" data-name="Trazado 152131" d="M649.654,506.783a28.067,28.067,0,0,0-8.485-6.926c-6.96-3.765-15.848.116-15.9.133-10.049,4.42-12.674,12.109-7.346,24.089,5.637,12.67,11,11.244,11,11.244s-1.139-.711-1.037-4.656a4.441,4.441,0,0,1,.021-.574,2.639,2.639,0,0,0-.857-2.142c-1.251-1.118-1.859-4.485-.814-5.423,1.285-1.135,3.037.24,3.6,1.285a1.542,1.542,0,0,0,2.206.488c3.127-1.979,1.1-5.932,4.086-8.352s9.055-.39,13.539-2.317C655.561,511.439,650.922,508.535,649.654,506.783Z" transform="translate(-346.22 -272.821)" fill="#233862"/>
    <path id="Trazado_152132" data-name="Trazado 152132" d="M632.122,768.68q-2.968.762-5.889,1.251-2.57.428-5.14.655c-9.736.857-19.514-.523-30.946-3.8q-3.855-1.105-7.992-2.5c-.291-.1.754-30.325,1.957-61.5.124-3.217.248-6.451.373-9.654.056-1.362.107-2.711.163-4.061,1.1-27.575,2.18-52.478,2.407-53.819.523-3.033,1.011-5.62,1.546-7.86,1.555-6.532,3.491-10.117,7.71-13.2.428-.313,3.782-2.013,6.759-3.491,2.463-1.225,4.652-2.292,4.652-2.292h0c.981.48,2.142,2.724,3.392,5.881a215.517,215.517,0,0,1,6.425,21.36v.03h0c1.092,4.283,1.88,7.637,2.1,8.6.377,1.619.878,4.754,1.469,8.995.8,5.782,1.76,13.634,2.771,22.543q.154,1.375.308,2.78c.12,1.067.244,2.142.364,3.242l.116,1.054c.39,3.525.78,7.166,1.169,10.871.326,3.058,4.969,5.268,5.286,8.382.184,1.829.57,18.688,1.067,24.067C632.516,730.067,632.264,766.872,632.122,768.68Z" transform="translate(-327.288 -335.818)" fill="#aec3ff"/>
    <path id="Trazado_152133" data-name="Trazado 152133" d="M603.3,697c0,.064-.788,27.884,20.131,31.268s7.024,4.283,7.024,4.283-39.376-1.675-40.023-2.716S603.3,697,603.3,697Z" transform="translate(-332.034 -386.463)" fill="#9db0f4"/>
    <path id="Trazado_152134" data-name="Trazado 152134" d="M612.467,790.355s-.394.278-1.148.767l-.039.021a98.21,98.21,0,0,1-26.462,11.321c-1.448.39-2.947.762-4.489,1.105.124-3.217.248-6.451.373-9.654a40.953,40.953,0,0,1-5.183-.72c.051-.428.111-.857.167-1.285,1.752-.72,3.5-1.414,5.178-2.069,1.371-.54,2.694-1.045,3.953-1.521,5.667-2.142,9.851-3.611,9.851-3.611l16.777,5.316Z" transform="translate(-323.523 -436.604)" fill="#9db0f4"/>
    <path id="Trazado_152135" data-name="Trazado 152135" d="M599.6,689.083s-2.142.535-5.568,1.229a.052.052,0,0,0-.034,0c-6.331,1.285-16.966,3.054-26.466,2.955-1.4,0-2.78-.069-4.116-.171a40.955,40.955,0,0,1-5.183-.72c-3.474-.732-6.382-1.975-8.288-3.911-14.135-14.4,7.71-66.069,12.31-71.1,5.363-5.872,15.15-7.928,20.56-8.635l.655-.086c1.9-.227,3.118-.274,3.187-.274h0l-1.157,3.7c-.274.9-.6,1.932-.947,3.088-3.32,10.875-9.727,32.24-12.55,44.289-1.032,4.407-1.585,7.568-1.336,8.511,1.105,4.116,12.524,6.232,19.759,7.17,3,.39,5.307.574,5.821.612a.469.469,0,0,1,.107,0l.428,1.713,1,4.116.985,4.043Z" transform="translate(-306.217 -335.795)" fill="#aec3ff"/>
    <path id="Trazado_152136" data-name="Trazado 152136" d="M699.392,771.159l-48.542-2.047L660.7,708.62l48.542,2.047Z" transform="translate(-366.588 -393.105)" fill="#233862"/>
    <path id="Trazado_152137" data-name="Trazado 152137" d="M660.962,765.526s9.449-.66,9.92,1.542c1.105,5.14-8.138,9.35-11.111,9.063S658.787,765.184,660.962,765.526Z" transform="translate(-370.828 -425.585)" fill="#ffb27d"/>
    <path id="Trazado_152138" data-name="Trazado 152138" d="M767.11,740.037s-9.038-2.827-10.01-.8c-2.262,4.742,5.74,10.978,8.716,11.389S769.294,740.2,767.11,740.037Z" transform="translate(-427.101 -410.191)" fill="#ffb27d"/>
    <path id="Trazado_152139" data-name="Trazado 152139" d="M636.187,601.32s-3.975,1.893-5.967,4.75c0,0,14.859,25.8,14.794,25.558S639.977,604.609,636.187,601.32Z" transform="translate(-354.794 -331.764)" fill="#9db0f4"/>
    <path id="Trazado_152140" data-name="Trazado 152140" d="M687.36,602.16a11.348,11.348,0,0,1,4.386,4.489l1.765,22.521s-3.769-16.529-5.688-23.986A12.614,12.614,0,0,1,687.36,602.16Z" transform="translate(-387.46 -332.245)" fill="#9db0f4"/>
    <path id="Trazado_152141" data-name="Trazado 152141" d="M711.41,708.2A2.206,2.206,0,0,1,714,706.719c2.206.193,14.623.805,14.623.805s2.394-.039,2.172,1.495Z" transform="translate(-401.209 -392.01)" fill="#c65447"/>
    <path id="Trazado_152142" data-name="Trazado 152142" d="M678.17,575.289a5.182,5.182,0,0,0,4.21,1.015c1.542-.27,2.4-2.274,2.4-2.274A11.615,11.615,0,0,0,678.17,575.289Z" transform="translate(-382.206 -316.121)" fill="#fff"/>
    <rect id="Rectángulo_33769" data-name="Rectángulo 33769" width="12.567" height="5.637" transform="translate(267.361 290.822)" fill="#ebf3fa"/>
    <path id="Trazado_152143" data-name="Trazado 152143" d="M210.441,1195.9c-1.242-1.953-4.99-7.029-9.98-6.356-5.435.732,6,4.313,9.509,6.373a5.866,5.866,0,0,1-1.94-.227c-2.339-.835-6.352.767-7.633,1.328H222.67a3.53,3.53,0,0,0-1.593-2.039,4,4,0,0,0-2.052-.184c1.324-1.559,2.244-6.553-1.448-5.268-2.694.938-2.686,3.988-2.42,5.791-.574.09-1.156.184-1.713.266-1.109-5.658-5.037-22.239-13-22.68-8.065-.428,6.853,17.193,11.8,22.838C211.623,1195.815,211.011,1195.871,210.441,1195.9Z" transform="translate(-107.762 -658.519)" fill="#82b378"/>
    <rect id="Rectángulo_33770" data-name="Rectángulo 33770" width="1103.63" height="2.925" rx="1.463" transform="translate(9.6 538.478)" fill="#2e3552"/>
  </g>
</svg>
