<svg xmlns="http://www.w3.org/2000/svg" width="291.601" height="281.896" viewBox="0 0 291.601 281.896">
  <g id="Fill_out-pana" data-name="Fill out-pana" transform="translate(-23.42 -29.12)">
    <g id="freepik--background-complete--inject-207" transform="translate(34.282 29.12)">
      <rect id="Rectángulo_33448" data-name="Rectángulo 33448" width="143.226" height="201.648" transform="translate(121.219 42.2)" fill="#ebebeb"/>
      <path id="Trazado_150636" data-name="Trazado 150636" d="M415,56.249a19.067,19.067,0,0,1,4.652-2.021l.959-4.607,7.786-.142,1.12,4.575a19.035,19.035,0,0,1,4.73,1.86l3.932-2.574,5.6,5.405-2.439,4.022a19.1,19.1,0,0,1,2.021,4.659l4.607.959.135,7.786-4.569,1.12a19.141,19.141,0,0,1-1.86,4.723l2.574,3.938-5.412,5.6-4.022-2.439a19.085,19.085,0,0,1-4.652,2.027l-.959,4.607-7.786.135-1.12-4.569a19.144,19.144,0,0,1-4.723-1.86l-3.938,2.574-5.6-5.412,2.439-4.022a18.776,18.776,0,0,1-2.027-4.659l-4.607-.959-.135-7.786,4.569-1.12a19.344,19.344,0,0,1,1.86-4.723l-2.574-3.932,5.412-5.6Zm4.15,10.373a5.906,5.906,0,1,1,0,.013Z" transform="translate(-169.149 -36.379)" fill="#e0e0e0"/>
      <path id="Trazado_150637" data-name="Trazado 150637" d="M427.416,74.635a6.261,6.261,0,0,1,1.557-1.377,8.275,8.275,0,0,1,5.444-1.287,8.4,8.4,0,0,1,3.706,1.287,8.6,8.6,0,0,1-3.275,15.669,8.044,8.044,0,0,1-2.574.039,7.908,7.908,0,0,1-2.368-.643,8.466,8.466,0,0,1-3.829-12.02,6.364,6.364,0,0,1,1.287-1.6c.045.039-.5.547-1.145,1.692a8.32,8.32,0,0,0-.927,5.347,8.165,8.165,0,0,0,1.435,3.481,8.157,8.157,0,0,0,8.018,3.275,8.108,8.108,0,0,0,6.666-6.9,8.268,8.268,0,0,0-.74-4.659,8.173,8.173,0,0,0-2.818-3.217,8.044,8.044,0,0,0-3.526-1.287,8.307,8.307,0,0,0-5.309,1.113A13.308,13.308,0,0,0,427.416,74.635Z" transform="translate(-177.417 -44.378)" fill="#e0e0e0"/>
      <path id="Trazado_150638" data-name="Trazado 150638" d="M414.895,56.182a1.571,1.571,0,0,1-.257-.135l-.772-.444L410.8,53.82h.1l-5.373,5.637V59.3l2.574,3.925.129.032-.039.077a18.847,18.847,0,0,0-1.827,4.691v.09h-.09L401.7,69.251l.129-.167q.077,3.681.154,7.786l-.193-.1,4.607.946h.122l.032.116a18.7,18.7,0,0,0,2.008,4.6l.064.109-.064.109-2.432,4.022-.032-.264,5.6,5.405h-.277l3.932-2.574.116-.077.122.071a19.163,19.163,0,0,0,4.665,1.834h.135l.039.135c.348,1.429.734,2.992,1.12,4.569l-.232-.174,7.786-.142-.232.187.959-4.607.032-.142.142-.039a18.841,18.841,0,0,0,4.588-1.995h0l.129-.071.122.071,4.022,2.445h-.3l5.405-5.6v.3l-2.574-3.938-.084-.116.071-.129a18.84,18.84,0,0,0,1.84-4.659l.032-.142h.135l4.575-1.113-.174.225q-.064-3.99-.129-7.786l.174.212L443.24,67.6h-.129l-.032-.129a19.049,19.049,0,0,0-1.995-4.607l-.064-.109.026-.135,2.445-4.022.032.251-5.592-5.425h.232L434.218,56l-.084.058-.09-.051a18.874,18.874,0,0,0-4.678-1.853h-.1v-.09c-.405-1.667-.766-3.159-1.107-4.575l.142.109-7.786.1.1-.084c-.4,1.84-.721,3.346-.991,4.6v.045h-.045a20.18,20.18,0,0,0-3.565,1.371l-.837.438a1.929,1.929,0,0,1-.277.142,3.014,3.014,0,0,1,.257-.174c.18-.109.45-.277.824-.476A18.861,18.861,0,0,1,419.54,54.1l-.051.058c.251-1.287.553-2.767.927-4.614v-.084h.084l7.786-.174h.109V49.4c.347,1.416.721,2.909,1.133,4.569l-.116-.116a19.259,19.259,0,0,1,4.775,1.86h-.18l3.925-2.574.122-.077.109.1,5.611,5.4.116.109-.084.135c-.791,1.287-1.6,2.651-2.432,4.028v-.212a19.413,19.413,0,0,1,2.053,4.7l-.161-.154,4.607.959h.174v.18q.077,3.79.148,7.78v.187l-.174.039-4.569,1.126.167-.167a19.446,19.446,0,0,1-1.879,4.781v-.245l2.574,3.938.1.154-.135.135-5.405,5.6-.129.135-.167-.1-3.97-2.419h.245a19.2,19.2,0,0,1-4.71,2.046l.167-.18-.959,4.607-.039.187h-.193l-7.786.129h-.187l-.045-.18c-.386-1.583-.766-3.14-1.113-4.575l.167.174a19.756,19.756,0,0,1-4.781-1.885h.238l-3.938,2.574-.148.1-.129-.122c-1.93-1.885-3.861-3.719-5.6-5.418l-.122-.122.09-.142,2.445-4.022v.219a19.465,19.465,0,0,1-2.033-4.71l.116.129-4.607-.965h-.148v-.148q-.071-4.1-.122-7.786v-.135l.129-.032,4.575-1.107-.109.109a19.156,19.156,0,0,1,1.9-4.736V63.4l-2.574-3.945-.051-.084.071-.064,5.437-5.6.045-.045.051.032,2.96,1.847.766.483A3.024,3.024,0,0,1,414.895,56.182Z" transform="translate(-169.046 -36.311)" fill="#e0e0e0"/>
      <path id="Trazado_150639" data-name="Trazado 150639" d="M365.157,33.287a11.653,11.653,0,0,1,2.793-1.21l.573-2.754,4.659-.084.643,2.735a11.319,11.319,0,0,1,2.831,1.113l2.355-1.544,3.353,3.217L380.9,37.168a11.225,11.225,0,0,1,1.268,2.806l2.761.579.084,4.659-2.741.643a11.32,11.32,0,0,1-1.113,2.831l1.544,2.355-3.217,3.353-2.465-1.435a11.467,11.467,0,0,1-2.78,1.223l-.573,2.761-4.665.077-.643-2.735a11.274,11.274,0,0,1-2.825-1.113l-2.355,1.544L359.829,51.5l1.429-2.465a11.717,11.717,0,0,1-1.21-2.786l-2.754-.573-.084-4.665,2.735-.643a11.43,11.43,0,0,1,1.113-2.825l-1.544-2.355,3.217-3.359,2.407,1.461Zm2.49,6.21a4.993,4.993,0,1,0,3.514-1.532,5,5,0,0,0-3.514,1.532Z" transform="translate(-153.284 -29.163)" fill="#f5f5f5"/>
      <path id="Trazado_150640" data-name="Trazado 150640" d="M372.586,44.282a3.739,3.739,0,0,1,.927-.817,4.98,4.98,0,0,1,3.262-.772,5.071,5.071,0,0,1,4.009,2.812,4.606,4.606,0,0,1,.457,1.4,4.735,4.735,0,0,1,0,1.538,5.1,5.1,0,0,1-4.215,4.376,4.981,4.981,0,0,1-1.544,0,5.116,5.116,0,0,1-3.5-2.13,5.013,5.013,0,0,1-.862-2.188,4.961,4.961,0,0,1,.643-3.288,3.861,3.861,0,0,1,.785-.959,5.843,5.843,0,0,0-.689,1.017,4.91,4.91,0,0,0,2.3,6.9,4.5,4.5,0,0,0,1.351.373,4.26,4.26,0,0,0,1.454-.032,4.826,4.826,0,0,0,3.99-4.131,4.409,4.409,0,0,0,0-1.454,4.807,4.807,0,0,0-.418-1.332,4.942,4.942,0,0,0-1.692-1.93,4.833,4.833,0,0,0-2.085-.785,5.013,5.013,0,0,0-3.217.643C372.9,43.974,372.605,44.308,372.586,44.282Z" transform="translate(-158.223 -33.948)" fill="#f5f5f5"/>
      <path id="Trazado_150641" data-name="Trazado 150641" d="M365.1,33.245l-.154-.077-.457-.27-1.815-1.068h.051L359.508,35.2v-.09l1.551,2.349v.09a11.687,11.687,0,0,0-1.094,2.812v.051h-.051l-2.735.682.077-.1c0,1.467.058,3.024.09,4.659l-.09-.109,2.761.573h.071v.071a11.391,11.391,0,0,0,1.2,2.754l.039.064-.039.064-1.454,2.407V51.32l3.359,3.217h-.167l2.355-1.544.071-.045.071.039a11.325,11.325,0,0,0,2.793,1.094h.084v.084c.212.856.444,1.789.676,2.735l-.142-.1,4.659-.084-.135.109c.18-.869.38-1.808.573-2.754v-.09h.084a11.531,11.531,0,0,0,2.748-1.2h0l.077-.045.077.045,2.407,1.461h-.18c1.094-1.133,2.175-2.246,3.217-3.353v.18l-1.544-2.355-.045-.077.039-.071a11.267,11.267,0,0,0,1.1-2.793V45.69h.077l2.735-.643-.1.135q-.039-2.381-.077-4.659l.109.129-2.761-.579h-.077v-.077a11.4,11.4,0,0,0-1.19-2.761l-.045-.064.045-.064,1.461-2.4v.142q-1.766-1.708-3.346-3.217h.135l-2.362,1.538-.051.039h-.051a11.332,11.332,0,0,0-2.76-1.184h-.058v-.051c-.238-1-.457-1.892-.643-2.741l.084.064-4.659.058.064-.045c-.238,1.1-.431,2-.592,2.754h0a12.227,12.227,0,0,0-2.175.843l-.5.264a.6.6,0,0,1-.167.084l.161-.1c.1-.064.264-.167.489-.283A11.223,11.223,0,0,1,367.88,32l-.032.039c.148-.753.328-1.66.553-2.767v-.045h.051l4.659-.1h.064v.071c.212.843.431,1.737.643,2.735l-.064-.071a11.4,11.4,0,0,1,2.851,1.113h-.1l2.394-1.557.077-.051.064.064,3.359,3.217.064.064-.045.084L380.955,37.2v-.129a11.41,11.41,0,0,1,1.229,2.818l-.1-.09,2.761.573h.1v.1c.032,1.519.058,3.069.09,4.665v.1l-.1.032-2.741.643.1-.1a11.46,11.46,0,0,1-1.12,2.863v-.142l1.576,2.387.058.09-.077.084-3.217,3.353-.077.084-.1-.058-2.413-1.461h.148a11.486,11.486,0,0,1-2.818,1.223l.1-.1c-.2.946-.393,1.885-.579,2.754V57h-.116l-4.659.077H368.9V56.97c-.232-.946-.457-1.879-.643-2.741l.1.1a11.807,11.807,0,0,1-2.973-1.094h.142l-2.355,1.544-.09.058L363,54.782c-1.158-1.126-2.3-2.22-3.346-3.217l-.077-.071.058-.084L361.1,49v.129a11.583,11.583,0,0,1-1.216-2.818l.09.084-2.76-.624h-.09v-.09c0-1.634-.045-3.217-.071-4.659v-.084h.077l2.741-.643-.071.071a11.416,11.416,0,0,1,1.133-2.851v.09L359.4,35.246l-.032-.051.039-.039c1.326-1.358,2.419-2.484,3.256-3.333h.032l1.776,1.107.45.29Z" transform="translate(-153.227 -29.12)" fill="#f5f5f5"/>
      <rect id="Rectángulo_33449" data-name="Rectángulo 33449" width="84.238" height="139.442" transform="translate(2.799 14.395)" fill="#e0e0e0"/>
      <rect id="Rectángulo_33450" data-name="Rectángulo 33450" width="84.238" height="139.442" transform="translate(0 14.395)" fill="#ebebeb"/>
      <rect id="Rectángulo_33451" data-name="Rectángulo 33451" width="77.07" height="133.786" transform="translate(3.584 17.22)" fill="#fafafa"/>
      <rect id="Rectángulo_33452" data-name="Rectángulo 33452" width="47.392" height="99.019" transform="translate(18.256 34.606)" fill="#ebebeb"/>
      <path id="Trazado_150642" data-name="Trazado 150642" d="M68.669,162.084c-.109-9.247,8.211-18.275,17.374-19.568,4.369-.643,9.009.251,13.088-1.422,7.284-2.986,9.6-12.664,16.936-15.534l.335,71.568H68.669Z" transform="translate(-50.414 -63.503)" fill="#e0e0e0"/>
      <path id="Trazado_150643" data-name="Trazado 150643" d="M351.014,417.153a12.423,12.423,0,0,1,3.063-1.332l.643-3.031,5.116-.09.74,3.005a12.7,12.7,0,0,1,3.108,1.223l2.574-1.692,3.681,3.552-1.6,2.645a12.639,12.639,0,0,1,1.332,3.063l3.031.643.09,5.148-3.031.7a12.8,12.8,0,0,1-1.223,3.108l1.692,2.574-3.552,3.681-2.651-1.6a12.426,12.426,0,0,1-3.063,1.332l-.643,3.031-5.116.09-.74-3.012a12.675,12.675,0,0,1-3.108-1.216l-2.574,1.692-3.681-3.558,1.6-2.645a12.425,12.425,0,0,1-1.332-3.063l-3.031-.643-.09-5.116,3.057-.714a12.7,12.7,0,0,1,1.223-3.108l-1.692-2.574,3.552-3.687,2.651,1.609Zm2.728,6.821A5.489,5.489,0,1,0,357.6,422.3,5.5,5.5,0,0,0,353.743,423.974Z" transform="translate(-147.951 -165.873)" fill="#f5f5f5"/>
    </g>
    <g id="freepik--Table--inject-207" transform="translate(23.42 310.753)">
      <path id="Trazado_150644" data-name="Trazado 150644" d="M311.3,466.867h3.719v.058c-14.478.071-73.441.129-143.934.129L66.662,467l-31.64-.077h-8.6l8.6-.032,31.64-.052,104.424-.051c70.493,0,129.456.058,143.934.129v.006h-2.8C311.6,466.88,311.3,466.867,311.3,466.867Z" transform="translate(-23.42 -466.79)" fill="#263238"/>
    </g>
    <g id="freepik--Form--inject-207" transform="translate(142.837 60.638)">
      <rect id="Rectángulo_33453" data-name="Rectángulo 33453" width="144.223" height="203.501" transform="translate(0.167 0.174)" fill="#fff"/>
      <path id="Trazado_150645" data-name="Trazado 150645" d="M353.391,281.775c0-1.358-.064-83.286-.154-203.5l.154.148H209.18l.167-.167c0,76.259,0,146.778-.032,203.5l-.135-.135,144.224.135-144.224.135H209V78.1H353.545v.154C353.455,198.489,353.391,280.417,353.391,281.775Z" transform="translate(-209 -78.1)" fill="#263238"/>
      <rect id="Rectángulo_33454" data-name="Rectángulo 33454" width="61.568" height="14.118" rx="6.69" transform="translate(9.877 135.286)" fill="#f5f5f5"/>
      <rect id="Rectángulo_33455" data-name="Rectángulo 33455" width="60.204" height="14.118" rx="6.69" transform="translate(75.487 135.286)" fill="#f5f5f5"/>
      <rect id="Rectángulo_33456" data-name="Rectángulo 33456" width="126.952" height="14.118" rx="6.69" transform="translate(9.588 164.216)" fill="#f5f5f5"/>
      <path id="Trazado_150646" data-name="Trazado 150646" d="M253.556,279.417c0,.09-5.946.167-13.288.167s-13.288-.077-13.288-.167,5.946-.167,13.288-.167S253.556,279.327,253.556,279.417Z" transform="translate(-215.41 -149.814)" fill="#263238"/>
      <path id="Trazado_150647" data-name="Trazado 150647" d="M354.4,279.417c0,.09-4.685.167-10.463.167s-10.469-.077-10.469-.167,4.685-.167,10.469-.167S354.4,279.327,354.4,279.417Z" transform="translate(-253.376 -149.814)" fill="#263238"/>
      <path id="Trazado_150648" data-name="Trazado 150648" d="M270.613,324.157c0,.09-9.652.167-21.557.167s-21.557-.077-21.557-.167,9.652-.167,21.557-.167S270.613,324.067,270.613,324.157Z" transform="translate(-215.596 -165.764)" fill="#263238"/>
      <rect id="Rectángulo_33457" data-name="Rectángulo 33457" width="129.217" height="15.431" rx="6.51" transform="translate(7.323 103.234)" fill="#e0e0e0"/>
      <path id="Trazado_150649" data-name="Trazado 150649" d="M335.185,250.427c0,.1-11.467.167-25.6.167s-25.611-.071-25.611-.167,11.467-.167,25.611-.167S335.185,250.337,335.185,250.427Z" transform="translate(-235.728 -139.478)" fill="#263238"/>
      <rect id="Rectángulo_33458" data-name="Rectángulo 33458" width="129.217" height="15.431" rx="6.51" transform="translate(7.323 9.414)" fill="#e0e0e0"/>
      <path id="Trazado_150650" data-name="Trazado 150650" d="M335.185,104.627c0,.09-11.467.167-25.6.167s-25.611-.077-25.611-.167,11.467-.167,25.611-.167S335.185,104.531,335.185,104.627Z" transform="translate(-235.728 -87.498)" fill="#263238"/>
      <path id="Trazado_150651" data-name="Trazado 150651" d="M353.409,122.417c0,.1-32.316.174-72.173.174s-72.186-.077-72.186-.174,32.316-.167,72.186-.167S353.409,122.327,353.409,122.417Z" transform="translate(-209.018 -93.84)" fill="#ebebeb"/>
      <path id="Trazado_150652" data-name="Trazado 150652" d="M353.409,228.507c0,.1-32.316.167-72.173.167s-72.186-.071-72.186-.167,32.316-.167,72.186-.167S353.409,228.417,353.409,228.507Z" transform="translate(-209.018 -131.663)" fill="#ebebeb"/>
      <rect id="Rectángulo_33459" data-name="Rectángulo 33459" width="61.568" height="14.118" rx="6.69" transform="translate(9.877 44.053)" fill="#f5f5f5"/>
      <rect id="Rectángulo_33460" data-name="Rectángulo 33460" width="60.204" height="14.118" rx="6.69" transform="translate(75.487 44.053)" fill="#f5f5f5"/>
      <rect id="Rectángulo_33461" data-name="Rectángulo 33461" width="126.952" height="14.118" rx="6.69" transform="translate(9.588 72.984)" fill="#f5f5f5"/>
      <path id="Trazado_150653" data-name="Trazado 150653" d="M253.556,137.637c0,.09-5.946.167-13.288.167s-13.288-.077-13.288-.167,5.946-.167,13.288-.167S253.556,137.547,253.556,137.637Z" transform="translate(-215.41 -99.267)" fill="#263238"/>
      <path id="Trazado_150654" data-name="Trazado 150654" d="M354.4,137.637c0,.09-4.685.167-10.463.167s-10.469-.077-10.469-.167,4.685-.167,10.469-.167S354.4,137.547,354.4,137.637Z" transform="translate(-253.376 -99.267)" fill="#263238"/>
      <path id="Trazado_150655" data-name="Trazado 150655" d="M270.613,182.377c0,.09-9.652.167-21.557.167s-21.557-.077-21.557-.167,9.652-.167,21.557-.167S270.613,182.287,270.613,182.377Z" transform="translate(-215.596 -115.217)" fill="#263238"/>
      <path id="Trazado_150656" data-name="Trazado 150656" d="M390.971,368.477c0,.1-9.414.167-21.029.167s-21.023-.071-21.023-.167,9.408-.167,21.023-.167S390.971,368.387,390.971,368.477Z" transform="translate(-258.884 -181.565)" fill="#263238"/>
      <path id="Trazado_150657" data-name="Trazado 150657" d="M279.574,156.937a7.254,7.254,0,0,1-1,.251,11.8,11.8,0,0,1-7.432-1.062,4.157,4.157,0,0,1-1.139-.869,2.677,2.677,0,0,1-.689-1.371,2.02,2.02,0,0,1,.328-1.6,1.544,1.544,0,0,1,1.628-.515,1.158,1.158,0,0,1,.714.6,1.487,1.487,0,0,1,.122.939,3.385,3.385,0,0,1-.888,1.654A8.153,8.153,0,0,1,268,157.176a7.793,7.793,0,0,1-4.17.373,4.6,4.6,0,0,1-2.04-.894,2.426,2.426,0,0,1-.991-2.059,2.239,2.239,0,0,1,.444-1.126,1.789,1.789,0,0,1,1.017-.708,1.287,1.287,0,0,1,1.2.4,1.808,1.808,0,0,1,.431,1.19,2.49,2.49,0,0,1-.3,1.223,2.786,2.786,0,0,1-.875.92,7.818,7.818,0,0,1-2.3.92,10.1,10.1,0,0,1-5.006.534,4.691,4.691,0,0,1-2.3-1.248,3.314,3.314,0,0,1-1-2.465,2.207,2.207,0,0,1,.7-1.564,1.6,1.6,0,0,1,1.7-.18,1.287,1.287,0,0,1,.714,1.512,2.51,2.51,0,0,1-1,1.332,13.14,13.14,0,0,1-5.791,2.2,5.939,5.939,0,0,1-3.018-.264,3.044,3.044,0,0,1-1.853-2.278,2.066,2.066,0,0,1,1.531-2.31,1.441,1.441,0,0,1,1.377.489,2.226,2.226,0,0,1,.483,1.338,2.69,2.69,0,0,1-.3,1.358,3.166,3.166,0,0,1-.914,1,7.078,7.078,0,0,1-2.362.991,7.878,7.878,0,0,1-4.71.167,4.028,4.028,0,0,1-1.789-1.287,2.947,2.947,0,0,1-.643-1.988,2.78,2.78,0,0,1,.862-1.744,1.885,1.885,0,0,1,1.718-.515h.064v.064a4.987,4.987,0,0,1-1.287,3.423,5.193,5.193,0,0,1-2.259,1.538,4.2,4.2,0,0,1-1.686.219c-.386-.058-.579-.109-.579-.109a4.466,4.466,0,0,0,2.233-.206,5.148,5.148,0,0,0,2.181-1.531,4.871,4.871,0,0,0,1.184-3.32l.071.084a1.725,1.725,0,0,0-1.538.483,2.574,2.574,0,0,0-.779,1.615,3.226,3.226,0,0,0,2.291,3.037,8.048,8.048,0,0,0,4.556-.2,6.834,6.834,0,0,0,2.265-.959,2.9,2.9,0,0,0,.824-.9,2.362,2.362,0,0,0,.257-1.21,1.93,1.93,0,0,0-.412-1.152,1.139,1.139,0,0,0-1.094-.393,1.77,1.77,0,0,0-1.287,1.976,2.728,2.728,0,0,0,1.667,2.021,5.617,5.617,0,0,0,2.857.238,12.767,12.767,0,0,0,5.63-2.149,2.233,2.233,0,0,0,.882-1.139.959.959,0,0,0-.54-1.133,1.287,1.287,0,0,0-1.332.135,1.866,1.866,0,0,0-.586,1.326,2.979,2.979,0,0,0,.907,2.207,4.363,4.363,0,0,0,2.136,1.158,9.815,9.815,0,0,0,4.845-.521,7.683,7.683,0,0,0,2.207-.875,2.445,2.445,0,0,0,.779-.8,2.194,2.194,0,0,0,.257-1.062,1.493,1.493,0,0,0-.347-.985.952.952,0,0,0-.9-.3,1.808,1.808,0,0,0-1.216,1.557,2.13,2.13,0,0,0,.914,1.782,4.4,4.4,0,0,0,1.93.843,7.548,7.548,0,0,0,4.015-.354,7.786,7.786,0,0,0,3.134-2.117,3.16,3.16,0,0,0,.837-1.519,1.055,1.055,0,0,0-.643-1.287,1.287,1.287,0,0,0-1.377.431,1.814,1.814,0,0,0-.3,1.416,3.076,3.076,0,0,0,1.712,2.111,11.744,11.744,0,0,0,4.408,1.287,12.65,12.65,0,0,0,2.921-.1l.753-.142A1.719,1.719,0,0,1,279.574,156.937Z" transform="translate(-217.581 -104.346)" fill="#ff725e"/>
      <path id="Trazado_150658" data-name="Trazado 150658" d="M381.2,155.914a4.31,4.31,0,0,1-.811.4,7.226,7.226,0,0,1-2.535.534,7.8,7.8,0,0,1-3.977-.927,4.942,4.942,0,0,1-1.93-1.705,2.246,2.246,0,0,1-.348-1.4,1.931,1.931,0,0,1,.746-1.326,1.223,1.223,0,0,1,.785-.257,1.184,1.184,0,0,1,.779.328,1.93,1.93,0,0,1,.521,1.589,2.813,2.813,0,0,1-.811,1.525,6.551,6.551,0,0,1-1.4,1.075,8.365,8.365,0,0,1-3.52,1.126,6.7,6.7,0,0,1-3.861-.714,3.823,3.823,0,0,1-1.493-1.441,2.9,2.9,0,0,1-.341-1.03,2.638,2.638,0,0,1,1.692-2.632,1.486,1.486,0,0,1,1.158.116,1.8,1.8,0,0,1,.772.862,2.671,2.671,0,0,1-.084,2.259,4.7,4.7,0,0,1-1.531,1.686,8.488,8.488,0,0,1-8.79.528,6.68,6.68,0,0,1-1.815-1.351,3.063,3.063,0,0,1-.9-2.066,2.04,2.04,0,0,1,1.235-1.834,1.236,1.236,0,0,1,1.158.135,1.673,1.673,0,0,1,.643.939,2.439,2.439,0,0,1-.431,2.085,6.506,6.506,0,0,1-1.486,1.429,9.06,9.06,0,0,1-7.252,1.583,4.871,4.871,0,0,1-2.947-1.763,2.709,2.709,0,0,1-.547-1.564,2.947,2.947,0,0,1,.386-1.544,1.93,1.93,0,0,1,1.19-.946,1.679,1.679,0,0,1,1.4.315,2.574,2.574,0,0,1,.952,2.362,3.172,3.172,0,0,1-1.139,1.93,4.2,4.2,0,0,1-1.679.849,8.16,8.16,0,0,1-2.574.161l-.643-.058a.908.908,0,0,1-.225,0,1,1,0,0,1,.225,0h.676a8.7,8.7,0,0,0,2.574-.219,4.157,4.157,0,0,0,1.609-.849,3.005,3.005,0,0,0,1-1.892,2.4,2.4,0,0,0-.888-2.162,1.493,1.493,0,0,0-1.229-.264,1.744,1.744,0,0,0-1.036.849,2.574,2.574,0,0,0,.161,2.831,4.659,4.659,0,0,0,2.8,1.647,8.777,8.777,0,0,0,7.027-1.531,6.274,6.274,0,0,0,1.4-1.371,2.111,2.111,0,0,0,.38-1.815,1.338,1.338,0,0,0-.508-.759.914.914,0,0,0-.862-.1,1.718,1.718,0,0,0-1.023,1.538,2.76,2.76,0,0,0,.817,1.834A6.493,6.493,0,0,0,356.4,156.2a8.307,8.307,0,0,0,4.292.92,8.063,8.063,0,0,0,4.144-1.435,4.343,4.343,0,0,0,1.454-1.531,2.362,2.362,0,0,0,.084-1.976,1.287,1.287,0,0,0-1.544-.8,2.323,2.323,0,0,0-1.467,2.291,2.522,2.522,0,0,0,.3.907,3.481,3.481,0,0,0,1.371,1.326,6.4,6.4,0,0,0,3.661.695,8.114,8.114,0,0,0,3.385-1.087,6.3,6.3,0,0,0,1.351-1.017,2.574,2.574,0,0,0,.746-1.377,1.673,1.673,0,0,0-.438-1.377.952.952,0,0,0-1.255-.058,1.731,1.731,0,0,0-.643,1.158,2.13,2.13,0,0,0,.309,1.287A4.833,4.833,0,0,0,374,155.76a7.664,7.664,0,0,0,3.861.965,7.8,7.8,0,0,0,2.51-.463C380.925,156.056,381.188,155.9,381.2,155.914Z" transform="translate(-256.257 -104.088)" fill="#ff725e"/>
      <path id="Trazado_150659" data-name="Trazado 150659" d="M282.028,200.945a1.288,1.288,0,0,1-.245.122l-.74.335c-.643.29-1.615.714-2.883,1.19a23.551,23.551,0,0,1-4.775,1.287,18.237,18.237,0,0,1-3.089.187,10.4,10.4,0,0,1-3.436-.515,4.1,4.1,0,0,1-2.613-2.722,2.683,2.683,0,0,1,.257-2.053,2.317,2.317,0,0,1,1.776-1.2,1.975,1.975,0,0,1,1.847,1.19,3.037,3.037,0,0,1,.161,2.291,4.5,4.5,0,0,1-1.345,1.93,8.815,8.815,0,0,1-2.021,1.287,6.93,6.93,0,0,1-4.884.573,4.961,4.961,0,0,1-3.4-3.745,4.008,4.008,0,0,1,0-1.358,2.574,2.574,0,0,1,.553-1.287,1.718,1.718,0,0,1,1.235-.714,1.235,1.235,0,0,1,1.19.83,3.314,3.314,0,0,1-.476,2.735,8.289,8.289,0,0,1-1.8,2.136,7.619,7.619,0,0,1-10.083-.154,4.292,4.292,0,0,1-1.287-2.3,2.632,2.632,0,0,1,.084-1.338,2.741,2.741,0,0,1,.753-1.1,2.2,2.2,0,0,1,1.2-.56,1.583,1.583,0,0,1,1.287.393,2.452,2.452,0,0,1,.573,2.413,4.5,4.5,0,0,1-1.332,2.021,10.733,10.733,0,0,1-1.873,1.4,10.843,10.843,0,0,1-4.2,1.428,9.517,9.517,0,0,1-4.131-.367,4.569,4.569,0,0,1-1.7-1.023,3.172,3.172,0,0,1-.92-1.66,2.9,2.9,0,0,1,.167-1.808,1.776,1.776,0,0,1,1.351-1.049,2,2,0,0,1,1.57.431,1.467,1.467,0,0,1,.5,1.429,2.233,2.233,0,0,1-.74,1.216,4.9,4.9,0,0,1-1.087.721,12.059,12.059,0,0,1-2.117.811,11.847,11.847,0,0,1-3.089.457,7.079,7.079,0,0,1-1.087-.045h1.087a12.7,12.7,0,0,0,3.05-.515,12.871,12.871,0,0,0,2.085-.83,4.665,4.665,0,0,0,1.042-.708,2.078,2.078,0,0,0,.643-1.12,1.287,1.287,0,0,0-.444-1.248,1.84,1.84,0,0,0-1.409-.373,1.557,1.557,0,0,0-1.178.939,2.651,2.651,0,0,0-.142,1.66,3.507,3.507,0,0,0,2.471,2.49,9.144,9.144,0,0,0,4.009.335,10.553,10.553,0,0,0,5.9-2.767,4.176,4.176,0,0,0,1.248-1.885,2.143,2.143,0,0,0-.489-2.1,1.525,1.525,0,0,0-2.046.18,2.426,2.426,0,0,0-.644.959,2.342,2.342,0,0,0-.071,1.178,4,4,0,0,0,1.216,2.123,7.3,7.3,0,0,0,9.652.135,7.761,7.761,0,0,0,1.731-2.053,3.694,3.694,0,0,0,.5-1.2,2.252,2.252,0,0,0-.039-1.242.927.927,0,0,0-.869-.643,1.422,1.422,0,0,0-.991.592,2.979,2.979,0,0,0-.483,2.368,4.646,4.646,0,0,0,3.166,3.494,6.628,6.628,0,0,0,4.659-.541,5.838,5.838,0,0,0,3.217-3.05,2.748,2.748,0,0,0-.142-2.072,1.686,1.686,0,0,0-1.57-1.042,2.053,2.053,0,0,0-1.564,1.055,2.4,2.4,0,0,0-.238,1.853,3.861,3.861,0,0,0,2.445,2.574,10.135,10.135,0,0,0,3.359.528,17.978,17.978,0,0,0,3.057-.161,23.9,23.9,0,0,0,4.755-1.2c1.287-.457,2.239-.862,2.9-1.126l.753-.309Z" transform="translate(-216.908 -120.697)" fill="#ff725e"/>
    </g>
    <g id="freepik--Plant--inject-207" transform="translate(244.997 216.591)">
      <path id="Trazado_150660" data-name="Trazado 150660" d="M391.724,395.539s-14.8-17.039-20.4-34.1-2.928-15.083-2.928-15.083,7.542,16.55,13.269,24.549,15.926,19.729,15.926,19.729Z" transform="translate(-367.761 -329.664)" fill="#455a64"/>
      <path id="Trazado_150661" data-name="Trazado 150661" d="M408.728,350.3a.862.862,0,0,0-1.6.547c.9,5.991,2.851,20.038,2.78,29.15-.1,11.834,0,16.409,0,16.409h6.145s-1.094-24.452-2.49-31.93A50.343,50.343,0,0,0,408.728,350.3Z" transform="translate(-381.792 -330.942)" fill="#455a64"/>
      <path id="Trazado_150662" data-name="Trazado 150662" d="M414.85,393.24a65.391,65.391,0,0,0,5.071-18.4c.508-4.363-.4-10.251-1.744-18.108a47.894,47.894,0,0,1-.779-8.706,1.467,1.467,0,0,1,2.76-.689,39.208,39.208,0,0,1,3.443,8.7c1.493,7.76,3.179,11.641,1.892,19s-6.042,18.7-6.042,18.7Z" transform="translate(-384.549 -329.766)" fill="#455a64"/>
      <path id="Trazado_150663" data-name="Trazado 150663" d="M423.459,388.513s16.261-34.935,17.374-40.121,4.955-17.123,5.405-16.447,1.133,6.982-1.8,14.2-15.444,43.441-15.444,43.441H423.44" transform="translate(-387.611 -324.543)" fill="#455a64"/>
      <path id="Trazado_150664" data-name="Trazado 150664" d="M396.393,392.334a3.133,3.133,0,0,1-.457-.309c-.29-.219-.727-.528-1.287-.965a58.082,58.082,0,0,1-4.369-3.861,73.62,73.62,0,0,1-11.8-15.141,99.446,99.446,0,0,1-8.05-17.438c-.817-2.323-1.409-4.221-1.8-5.54-.193-.643-.335-1.171-.431-1.525a3.316,3.316,0,0,1-.122-.534,2.988,2.988,0,0,1,.193.515l.489,1.506c.431,1.287,1.062,3.217,1.93,5.5a105.6,105.6,0,0,0,8.121,17.374,76.63,76.63,0,0,0,11.666,15.141c1.744,1.731,3.217,3.044,4.286,3.925.515.45.94.772,1.216,1.01A3.868,3.868,0,0,1,396.393,392.334Z" transform="translate(-367.875 -329.928)" fill="#263238"/>
      <path id="Trazado_150665" data-name="Trazado 150665" d="M412.533,377.032a7.067,7.067,0,0,1-.142-1.03l-.3-2.8c-.257-2.362-.643-5.624-1.235-9.2s-1.216-6.808-1.712-9.131l-.592-2.754a5.215,5.215,0,0,1-.18-1.017,6.979,6.979,0,0,1,.309.984c.187.643.425,1.577.7,2.735.56,2.317,1.242,5.534,1.821,9.125s.939,6.866,1.133,9.234c.1,1.19.161,2.149.193,2.818a5.85,5.85,0,0,1,.006,1.036Z" transform="translate(-382.239 -331.382)" fill="#263238"/>
      <path id="Trazado_150666" data-name="Trazado 150666" d="M419.858,347.34a2.268,2.268,0,0,1,.193.444c.122.328.283.759.489,1.287s.463,1.255.695,2.078.553,1.744.792,2.8l.405,1.641c.135.573.232,1.178.354,1.8.264,1.242.431,2.574.643,4a59.842,59.842,0,0,1-.643,18.468c-.3,1.39-.56,2.722-.914,3.938-.167.611-.309,1.21-.483,1.77s-.354,1.1-.521,1.609c-.309,1.036-.689,1.93-.991,2.735s-.586,1.48-.843,2.027l-.579,1.287a2.127,2.127,0,0,1-.225.425,3.476,3.476,0,0,1,.161-.457c.135-.322.3-.753.521-1.287s.508-1.236.785-2.04.643-1.712.939-2.741c.154-.515.322-1.055.5-1.609s.3-1.158.463-1.77c.341-1.216.586-2.542.875-3.925a61.7,61.7,0,0,0,.643-18.378c-.187-1.4-.341-2.741-.592-3.977-.116-.643-.206-1.223-.335-1.8s-.257-1.12-.38-1.641c-.219-1.055-.515-1.982-.74-2.8s-.444-1.525-.643-2.1L420,347.842A2.224,2.224,0,0,1,419.858,347.34Z" transform="translate(-385.754 -330.042)" fill="#263238"/>
      <path id="Trazado_150667" data-name="Trazado 150667" d="M447.569,333.05a1.417,1.417,0,0,1,0,.154,3.371,3.371,0,0,1-.077.457c-.071.393-.161.985-.322,1.737-.309,1.506-.837,3.668-1.647,6.287s-1.93,5.708-3.217,9.086-2.838,7.078-4.279,10.991-2.574,7.722-3.655,11.209-2.053,6.583-3.011,9.157a59.573,59.573,0,0,1-2.574,5.978c-.335.689-.643,1.2-.83,1.564l-.225.4a.6.6,0,0,1-.09.129l.058-.148c.058-.109.122-.251.2-.418.174-.36.45-.888.766-1.589.643-1.383,1.531-3.417,2.458-6s1.93-5.695,2.934-9.17,2.169-7.3,3.636-11.235,2.979-7.612,4.311-10.984,2.465-6.435,3.3-9.041,1.4-4.755,1.75-6.248c.18-.74.29-1.326.386-1.718.039-.18.077-.328.1-.45A.476.476,0,0,1,447.569,333.05Z" transform="translate(-389.109 -324.947)" fill="#263238"/>
      <path id="Trazado_150668" data-name="Trazado 150668" d="M379.39,320.839a1.4,1.4,0,0,0-2.3,1.429,39.579,39.579,0,0,0,2.04,5.257c2.233,4.749,8.8,21.788,11.872,31.151s7.406,26.82,7.406,26.82l6.563-1.068s-6-28.686-11.872-39.027C388.38,337.1,383.669,325.092,379.39,320.839Z" transform="translate(-371.064 -320.458)" fill="#455a64"/>
      <path id="Trazado_150669" data-name="Trazado 150669" d="M401.53,388.94a3.664,3.664,0,0,1,.341.792c.193.515.457,1.287.759,2.2.6,1.873,1.338,4.5,2.085,7.394s1.364,5.547,1.8,7.464c.2.907.36,1.667.5,2.271a3.86,3.86,0,0,1,.135.849,4,4,0,0,1-.27-.817c-.154-.6-.36-1.351-.6-2.246-.5-1.975-1.165-4.569-1.892-7.439s-1.448-5.521-1.988-7.406l-.643-2.233a4.5,4.5,0,0,1-.219-.83Z" transform="translate(-379.8 -344.873)" fill="#263238"/>
      <path id="Trazado_150670" data-name="Trazado 150670" d="M402.115,385.112a.645.645,0,0,1-.039-.174,4.241,4.241,0,0,0-.071-.521c-.071-.45-.129-1.126-.27-1.982a73.182,73.182,0,0,0-1.377-7.239,103.426,103.426,0,0,0-3.069-10.489c-1.345-3.861-3.037-8.089-4.948-12.432-3.861-8.687-7.722-16.389-10.251-22.091-1.287-2.838-2.271-5.148-2.928-6.776-.335-.8-.573-1.435-.74-1.866-.071-.2-.129-.36-.18-.489a.644.644,0,0,1-.051-.174.8.8,0,0,1,.084.161l.212.476c.193.444.463,1.062.8,1.84.695,1.6,1.718,3.9,3.024,6.731,2.574,5.663,6.48,13.346,10.347,22.046,1.93,4.356,3.6,8.565,4.936,12.471a99.552,99.552,0,0,1,3,10.534,73.524,73.524,0,0,1,1.287,7.278c.116.862.161,1.538.206,1.995a2.84,2.84,0,0,0,.039.521A.641.641,0,0,1,402.115,385.112Z" transform="translate(-371.479 -320.608)" fill="#263238"/>
      <path id="Trazado_150671" data-name="Trazado 150671" d="M416.468,404.59a6.434,6.434,0,0,1-.225-1.1c-.129-.772-.3-1.789-.508-3.018-.45-2.574-1.145-6.042-2.136-9.858s-2.091-7.207-2.941-9.652l-1.03-2.883a7.407,7.407,0,0,1-.347-1.068,6.336,6.336,0,0,1,.476,1.023c.283.643.676,1.634,1.133,2.844a94.714,94.714,0,0,1,3.044,9.652,100.125,100.125,0,0,1,2.046,9.9c.187,1.287.328,2.317.4,3.037a8.355,8.355,0,0,1,.09,1.12Z" transform="translate(-382.563 -340.62)" fill="#263238"/>
      <rect id="Rectángulo_33462" data-name="Rectángulo 33462" width="25.617" height="31.209" transform="translate(21.756 63.03)" fill="#ff725e"/>
      <g id="Grupo_75980" data-name="Grupo 75980" transform="translate(21.756 63.03)" opacity="0.3">
        <rect id="Rectángulo_33463" data-name="Rectángulo 33463" width="25.617" height="31.209"/>
      </g>
      <rect id="Rectángulo_33464" data-name="Rectángulo 33464" width="22.728" height="31.209" transform="translate(16.473 63.03)" fill="#ff9d00"/>
    </g>
    <g id="freepik--Character--inject-207" transform="translate(27.513 76.979)">
      <path id="Trazado_150672" data-name="Trazado 150672" d="M104.774,145.636l-.727,58.634c-.122,9.968,1.731,24.639,17.5,24.118h0c13.655-1.486,17.277-14.408,17.374-23.712.051-4.414.1-8.1.135-8.545,0,0,14.942-1.223,16.2-15.984.611-7.13.643-21.923.573-35.308a27.586,27.586,0,0,0-25.591-27.29l-1.429-.109C113.384,117.22,104.575,130.2,104.774,145.636Z" transform="translate(-56.256 -108.465)" fill="#ffbe9d"/>
      <path id="Trazado_150673" data-name="Trazado 150673" d="M148.045,235.808a35.83,35.83,0,0,1-18.815-7.078s3.9,11.132,18.738,10.875Z" transform="translate(-65.236 -148.144)" fill="#eb996e"/>
      <path id="Trazado_150674" data-name="Trazado 150674" d="M140.292,167.974c-.29.3-1.995-1.075-4.472-1.139s-4.318,1.145-4.575.83c-.129-.142.174-.689.985-1.255a6.177,6.177,0,0,1,3.674-1.042,5.946,5.946,0,0,1,3.546,1.287C140.2,167.279,140.44,167.845,140.292,167.974Z" transform="translate(-65.944 -125.552)" fill="#263238"/>
      <path id="Trazado_150675" data-name="Trazado 150675" d="M142.992,176.3a2.008,2.008,0,0,1-2.072,1.873,1.93,1.93,0,0,1-1.93-1.93,2,2,0,0,1,2.066-1.873,1.93,1.93,0,0,1,1.937,1.93Z" transform="translate(-68.716 -128.763)" fill="#263238"/>
      <path id="Trazado_150676" data-name="Trazado 150676" d="M155,185.622a15.074,15.074,0,0,1,3.732-.393c.586,0,1.145-.1,1.287-.483a2.947,2.947,0,0,0-.257-1.744l-1.448-4.556c-1.93-6.435-3.262-11.75-3.005-11.827s2.033,5.1,3.951,11.583c.463,1.6.9,3.108,1.287,4.562a3.344,3.344,0,0,1,.135,2.3,1.448,1.448,0,0,1-1.017.779,3.925,3.925,0,0,1-.991.064A14.218,14.218,0,0,1,155,185.622Z" transform="translate(-74.424 -126)" fill="#263238"/>
      <path id="Trazado_150677" data-name="Trazado 150677" d="M138.59,153.971c-.238.553-2.22.135-4.588.257s-4.324.643-4.594.122c-.122-.257.245-.759,1.049-1.248a7.471,7.471,0,0,1,3.475-.978,7.316,7.316,0,0,1,3.52.695C138.287,153.218,138.693,153.694,138.59,153.971Z" transform="translate(-65.291 -120.829)" fill="#263238"/>
      <path id="Trazado_150678" data-name="Trazado 150678" d="M175.18,161.025c-.257.45-2.188-.045-4.5-.116s-4.279.225-4.5-.245c-.1-.219.283-.643,1.094-.978a8.262,8.262,0,0,1,3.462-.573,8.436,8.436,0,0,1,3.436.849C174.922,160.382,175.3,160.813,175.18,161.025Z" transform="translate(-78.401 -123.321)" fill="#263238"/>
      <path id="Trazado_150679" data-name="Trazado 150679" d="M100.08,177.995c-.245-.129-9.935-3.745-10.347,6.377s9.82,8.455,9.865,8.166S100.08,177.995,100.08,177.995Z" transform="translate(-51.151 -129.795)" fill="#ffbe9d"/>
      <path id="Trazado_150680" data-name="Trazado 150680" d="M98.093,190.381c-.045-.032-.187.116-.489.238a1.757,1.757,0,0,1-1.287,0c-1.055-.438-1.885-2.169-1.86-4a5.837,5.837,0,0,1,.6-2.5,2.021,2.021,0,0,1,1.383-1.287.888.888,0,0,1,1.017.521c.129.29.051.489.109.508s.225-.161.154-.579a1.107,1.107,0,0,0-.367-.643,1.351,1.351,0,0,0-.965-.3,2.5,2.5,0,0,0-1.93,1.5,6.087,6.087,0,0,0-.727,2.793c0,2.046.952,4,2.394,4.5a1.93,1.93,0,0,0,1.628-.2C98.061,190.626,98.125,190.4,98.093,190.381Z" transform="translate(-52.58 -131.602)" fill="#eb996e"/>
      <path id="Trazado_150681" data-name="Trazado 150681" d="M148.256,203.438c.109-.257-1.873-.849-3.269-2.715a11.453,11.453,0,0,1-1.4-2.638c-.3-.74-.521-1.2-.643-1.165s-.084.528.084,1.332a7.535,7.535,0,0,0,1.287,2.96,6.023,6.023,0,0,0,2.574,1.975C147.7,203.5,148.223,203.521,148.256,203.438Z" transform="translate(-70.099 -136.802)" fill="#263238"/>
      <path id="Trazado_150682" data-name="Trazado 150682" d="M175.31,169.424c-.3.3-2-1.075-4.5-1.139s-4.318,1.145-4.582.83c-.129-.142.18-.689.985-1.255a6.177,6.177,0,0,1,3.674-1.042,5.965,5.965,0,0,1,3.552,1.287C175.207,168.729,175.452,169.289,175.31,169.424Z" transform="translate(-78.416 -126.069)" fill="#263238"/>
      <path id="Trazado_150683" data-name="Trazado 150683" d="M177.512,177.42a2.008,2.008,0,0,1-2.072,1.873,1.93,1.93,0,0,1-1.93-1.93,2.008,2.008,0,0,1,2.072-1.873A1.93,1.93,0,0,1,177.512,177.42Z" transform="translate(-81.023 -129.162)" fill="#263238"/>
      <path id="Trazado_150684" data-name="Trazado 150684" d="M161.487,120.267a7.992,7.992,0,0,0-9.961-3.153,10.939,10.939,0,0,0-18.835-9.433,4.453,4.453,0,0,0-2.181-2.992,8.783,8.783,0,0,0-3.629-1.087,17.374,17.374,0,0,0-15.875,6.924,18.912,18.912,0,0,0-16.029,5.849c-4.755,5.27-5.656,17.477-.444,28.024l1.223,6.609c1.634,0,3.127.116,4.138,1.017,1.371,1.229,1.982,3.546,4.253,2.67,1.158-.45,2.214-2.876,2.574-4.054a57.7,57.7,0,0,0,2.5-24.388,18.487,18.487,0,0,1,5.714-4.125l-.174.161c4.125-1.435,8.79-2.844,12.7-.907,3.037,1.5,4.826,4.652,7.078,7.162a23.165,23.165,0,0,0,16.518,7.632c.219,4.157-.129,10.032.09,14.157l3.558-6.615h0a15.848,15.848,0,0,0,.753-1.467l.077-.154h0c.643-.521,1.12-1.474,2.2-2.709a8.713,8.713,0,0,0,1.435-8.925,7.986,7.986,0,0,0,2.317-10.193Z" transform="translate(-51.607 -103.495)" fill="#263238"/>
      <path id="Trazado_150685" data-name="Trazado 150685" d="M193.13,159.86Z" transform="translate(-88.018 -123.59)" fill="#263238"/>
      <path id="Trazado_150686" data-name="Trazado 150686" d="M181.561,129.8a1.061,1.061,0,0,1,.077.219,3.133,3.133,0,0,1,.09.643,4.382,4.382,0,0,1-.586,2.368,4.64,4.64,0,0,1-1.133,1.287,4.035,4.035,0,0,1-1.847.785,4.569,4.569,0,0,1-4.221-1.589l.251-.212a2.741,2.741,0,0,1,.714,1.982,3.623,3.623,0,0,1-1.133,2.574,4.105,4.105,0,0,1-2.394,1.023,6.435,6.435,0,0,1-4.157-1.145A13.559,13.559,0,0,1,165,135.842a6.437,6.437,0,0,1-.708-.8,7.18,7.18,0,0,1,.8.708,15.959,15.959,0,0,0,2.265,1.782,6.267,6.267,0,0,0,4,1.036,3.861,3.861,0,0,0,2.207-.952,3.34,3.34,0,0,0,1.017-2.317,2.458,2.458,0,0,0-.643-1.75l.251-.219a4.292,4.292,0,0,0,3.912,1.506,3.951,3.951,0,0,0,2.831-1.93,4.5,4.5,0,0,0,.643-2.259A6.29,6.29,0,0,0,181.561,129.8Z" transform="translate(-77.736 -112.873)" fill="#455a64"/>
      <path id="Trazado_150687" data-name="Trazado 150687" d="M165.985,112.56a.451.451,0,0,1,.219.1,4.809,4.809,0,0,1,.56.38,4.948,4.948,0,0,1,1.531,1.982,3.9,3.9,0,0,1-.347,3.649,3.011,3.011,0,0,1-1.847,1.287,3.057,3.057,0,0,1-2.362-.457,2.883,2.883,0,0,1-.56-.56l.29-.167a2.825,2.825,0,0,1-.077,2.278,3.069,3.069,0,0,1-1.467,1.506,4.093,4.093,0,0,1-3.449,0,5.54,5.54,0,0,1-1.86-1.4,2.748,2.748,0,0,1-.5-.695s.206.225.586.6a5.913,5.913,0,0,0,1.86,1.287,3.919,3.919,0,0,0,3.217-.058,2.838,2.838,0,0,0,1.287-1.371,2.529,2.529,0,0,0,.064-2.008l-.541-1.242.83,1.081a2.258,2.258,0,0,0,.483.476,2.715,2.715,0,0,0,2.1.412,2.683,2.683,0,0,0,1.654-1.12,3.668,3.668,0,0,0,.38-3.385,5.109,5.109,0,0,0-1.39-1.969C166.248,112.747,165.965,112.586,165.985,112.56Z" transform="translate(-74.823 -106.727)" fill="#455a64"/>
      <path id="Trazado_150688" data-name="Trazado 150688" d="M291.384,226.4l-23.391,17.85a3.031,3.031,0,0,0-.444,4.389h0a3.018,3.018,0,0,0,4.138.405l23.165-18.017,3.134-6.184Z" transform="translate(-114.286 -146.757)" fill="#ff725e"/>
      <path id="Trazado_150689" data-name="Trazado 150689" d="M308.469,225.93l1.654,1.93-1.789,3.552a1.422,1.422,0,0,1-1.557-1.615,1.287,1.287,0,0,1-1.416-1.622s-1.216-.109-.528-1.39Z" transform="translate(-127.767 -147.145)" fill="#fff" opacity="0.5"/>
      <path id="Trazado_150690" data-name="Trazado 150690" d="M268.65,254.36l3.835,4.685,1.287-1L270.1,253.26Z" transform="translate(-114.942 -156.889)" fill="#263238"/>
      <path id="Trazado_150691" data-name="Trazado 150691" d="M265.533,290.619l-.843-.154L281.9,260.388l-2.728-8.674s-3.153-12.348-.528-15.5c0,0,5.746-6.769,7.612-6.673s3.353.463,3.726,1.866c0,0,3.172-.373,4.009.643a16.041,16.041,0,0,1,1.493,2.239s3.449-.283,4.382,2.7c0,0,3.262,1.679,3.546,4.1s-.643,13.706-1.679,16.6-4.852,8.951-5.965,17.9-5.064,14.761-8.571,27.837l-9.517,3.764Z" transform="translate(-113.53 -148.432)" fill="#ffbe9d"/>
      <path id="Trazado_150692" data-name="Trazado 150692" d="M301.947,232.14a17.509,17.509,0,0,0-2.008,2.329,21.771,21.771,0,0,0-1.229,2.818,5.83,5.83,0,0,1,3.217-5.148Z" transform="translate(-125.659 -149.359)" fill="#eb996e"/>
      <path id="Trazado_150693" data-name="Trazado 150693" d="M310.431,236.92A18.8,18.8,0,0,0,308.468,239a19.322,19.322,0,0,0-1.287,2.574,4.339,4.339,0,0,1,.972-2.78A4.5,4.5,0,0,1,310.431,236.92Z" transform="translate(-128.667 -151.063)" fill="#eb996e"/>
      <path id="Trazado_150694" data-name="Trazado 150694" d="M317.469,241c.071.09-.785.843-1.57,1.975s-1.21,2.194-1.319,2.156a4.569,4.569,0,0,1,1-2.374A4.5,4.5,0,0,1,317.469,241Z" transform="translate(-131.317 -152.518)" fill="#eb996e"/>
      <path id="Trazado_150695" data-name="Trazado 150695" d="M291.9,242.121a6.7,6.7,0,0,0-1.93-.328,6.435,6.435,0,0,0-1.853.586c-.032,0,.09-.245.405-.476a2.818,2.818,0,0,1,2.889-.193A1.132,1.132,0,0,1,291.9,242.121Z" transform="translate(-121.881 -152.661)" fill="#eb996e"/>
      <path id="Trazado_150696" data-name="Trazado 150696" d="M302.716,247.687a7.723,7.723,0,0,0-1.422-1.7,7.883,7.883,0,0,0-2.014-.92c.013-.116.264-.109.695-.058A3.423,3.423,0,0,1,302.581,247C302.748,247.4,302.761,247.674,302.716,247.687Z" transform="translate(-125.862 -153.935)" fill="#eb996e"/>
      <path id="Trazado_150697" data-name="Trazado 150697" d="M312.718,250.559a8.9,8.9,0,0,0-2.117-1.1,8.456,8.456,0,0,0-2.381-.116c0-.045.225-.2.682-.309a3.861,3.861,0,0,1,3.385.914C312.621,250.27,312.75,250.533,312.718,250.559Z" transform="translate(-129.05 -155.353)" fill="#eb996e"/>
      <path id="Trazado_150698" data-name="Trazado 150698" d="M39.838,302.44s-10.56,59.9-10.038,65.5,3.314,14.51,9.652,16.036a28.024,28.024,0,0,0,12.226,0l-7.6-73.569Z" transform="translate(-29.781 -174.423)" fill="#7e5ee3"/>
      <path id="Trazado_150699" data-name="Trazado 150699" d="M76.216,247.934s-12.625,9.009-15.444,11.615C49.1,270.585,46.661,275.1,45.329,278.853s8.108,90.428,8.108,90.428l1.93,15.154h0l88.588.225h0v-77.4l-13.3-54.484-8.192-2.329-1.654-6.493s-10.173-7.516-26.955-7.722c-5.148-.071-12.471,1.963-16.55,5.148h0Z" transform="translate(-35.278 -150.817)" fill="#7e5ee3"/>
      <path id="Trazado_150700" data-name="Trazado 150700" d="M158.487,262.14s9.105-.405,9.91-.225c2.806.643,10.508,7.722,19.3,16.422,8.365,8.3,24.851,25.578,24.851,25.578s2.96-2.986,6.338,1L231.9,286s19.536,2.394,22.573,17.136c0,0-5.984,11.428-10.888,19.594,0,0-18.14,30.109-32.47,24.652-13.088-4.993-29.5-18.3-31.814-21.145l-19.3-13.751s-13.2-25.173-7.368-37.759Z" transform="translate(-73.046 -159.958)" fill="#7e5ee3"/>
      <path id="Trazado_150701" data-name="Trazado 150701" d="M139.639,256a2.052,2.052,0,0,1-.463-.1l-1.287-.347c-1.139-.29-2.8-.689-4.871-1.081a136.776,136.776,0,0,0-16.351-2.014,111.317,111.317,0,0,0-16.467.051c-2.1.18-3.79.444-4.948.644l-1.332.264a1.635,1.635,0,0,1-.47.064,2.226,2.226,0,0,1,.45-.142L95.22,253a44.249,44.249,0,0,1,4.955-.779,101.271,101.271,0,0,1,16.518-.161,121.123,121.123,0,0,1,16.364,2.136c2.072.431,3.726.869,4.865,1.21l1.287.418A2.008,2.008,0,0,1,139.639,256Z" transform="translate(-52.48 -156.37)" fill="#263238"/>
      <path id="Trazado_150702" data-name="Trazado 150702" d="M111.082,247.619a14.484,14.484,0,0,1-.643-3.314,15.348,15.348,0,0,1-.27-3.365,15.115,15.115,0,0,1,.643,3.314A14.522,14.522,0,0,1,111.082,247.619Z" transform="translate(-58.427 -152.497)" fill="#263238"/>
      <path id="Trazado_150703" data-name="Trazado 150703" d="M116.3,247.165a10.572,10.572,0,0,1-.463-6.705c.116,0-.058,1.519.071,3.365S116.414,247.133,116.3,247.165Z" transform="translate(-60.342 -152.326)" fill="#263238"/>
      <g id="Grupo_75981" data-name="Grupo 75981" transform="translate(41.227 95.7)" opacity="0.3">
        <path id="Trazado_150704" data-name="Trazado 150704" d="M93.85,253.564c13.861,2.452,27.914,0,42.586,1.757-14.157-2.934-28.918-4.324-42.586-1.757" transform="translate(-93.85 -252.217)"/>
      </g>
      <g id="Grupo_75982" data-name="Grupo 75982" transform="translate(10.368 150.932)" opacity="0.3">
        <path id="Trazado_150705" data-name="Trazado 150705" d="M52.4,396.787c-7.8-18.268-6.872-38.911-5.791-58.737Z" transform="translate(-45.893 -338.05)"/>
      </g>
      <path id="Trazado_150706" data-name="Trazado 150706" d="M45.409,322.73a1.1,1.1,0,0,1,.039.232c0,.174.051.4.084.676.064.643.161,1.5.277,2.619.225,2.3.553,5.579.952,9.652.791,8.121,1.873,19.349,3.166,31.737s2.574,23.59,3.616,31.685c.508,4.048.946,7.323,1.287,9.581.148,1.113.264,1.988.341,2.606.039.283.064.508.084.682a1.287,1.287,0,0,1,0,.232.965.965,0,0,1-.051-.225l-.122-.676c-.1-.643-.238-1.486-.412-2.574-.354-2.259-.837-5.527-1.383-9.569-1.1-8.089-2.439-19.3-3.732-31.685s-2.329-23.622-3.05-31.749c-.347-4.048-.643-7.336-.83-9.652-.084-1.12-.154-1.995-.2-2.619a3.045,3.045,0,0,0-.045-.689,1.075,1.075,0,0,1-.019-.264Z" transform="translate(-35.352 -181.656)" fill="#263238"/>
      <path id="Trazado_150707" data-name="Trazado 150707" d="M107.825,307.425a2.955,2.955,0,0,1-.566.032h-1.641c-1.416,0-3.475,0-6.01.071-5.077.116-12.085.489-19.774,1.4s-14.594,2.22-19.555,3.327c-2.484.534-4.5,1-5.862,1.338l-1.6.373a3.388,3.388,0,0,1-.56.1,3.162,3.162,0,0,1,.541-.18l1.577-.444c1.371-.386,3.365-.888,5.843-1.461A185.047,185.047,0,0,1,99.6,307.29c2.574,0,4.6,0,6.023.051l1.634.064A3.524,3.524,0,0,1,107.825,307.425Z" transform="translate(-37.795 -176.152)" fill="#263238"/>
      <path id="Trazado_150708" data-name="Trazado 150708" d="M85.734,317.122c-.109,0,.1-8.294.45-18.519s.74-18.519.849-18.513-.1,8.294-.457,18.526S85.837,317.129,85.734,317.122Z" transform="translate(-49.719 -166.454)" fill="#263238"/>
      <path id="Trazado_150709" data-name="Trazado 150709" d="M150.589,308.992a4.84,4.84,0,0,1-.328-.521q-.341-.573-.888-1.525l-3.269-5.618A48.358,48.358,0,0,1,142,292.6a28.435,28.435,0,0,1-1.223-5.585,33.685,33.685,0,0,1,0-6.139,32.676,32.676,0,0,1,2.921-11.435,19.066,19.066,0,0,1,2.889-4.3,16.415,16.415,0,0,1,3.462-2.889,13.2,13.2,0,0,1,6.145-2.059,8.545,8.545,0,0,1,2.381.135,22.207,22.207,0,0,0-2.368,0,13.359,13.359,0,0,0-6.01,2.136,16.344,16.344,0,0,0-3.372,2.876,18.842,18.842,0,0,0-2.8,4.247,32.708,32.708,0,0,0-2.864,11.312,33.949,33.949,0,0,0,0,6.055,28.758,28.758,0,0,0,1.184,5.515,50.312,50.312,0,0,0,4,8.713l3.159,5.676.83,1.564a3.5,3.5,0,0,1,.251.579Z" transform="translate(-69.305 -159.347)" fill="#263238"/>
      <g id="Grupo_75983" data-name="Grupo 75983" transform="translate(15.585 131.456)" opacity="0.3">
        <path id="Trazado_150710" data-name="Trazado 150710" d="M54.315,314.171a105.962,105.962,0,0,0,16.647-2.194,25.5,25.5,0,0,0-.933,7.445,17.116,17.116,0,0,0,3.7-6.814,10.3,10.3,0,0,0,4.2,6.9,22.6,22.6,0,0,0,.373-7.587q12.426-1.493,24.684-4.086A167.409,167.409,0,0,0,54,313.927" transform="translate(-54 -307.784)"/>
      </g>
      <path id="Trazado_150711" data-name="Trazado 150711" d="M200.62,367.413a1.758,1.758,0,0,1-.38-.225l-1.062-.708c-.914-.643-2.226-1.525-3.861-2.664-3.217-2.265-7.664-5.45-12.5-9.054s-9.15-6.95-12.226-9.4c-1.544-1.223-2.793-2.226-3.649-2.928l-.978-.811a2.071,2.071,0,0,1-.328-.3,2.573,2.573,0,0,1,.373.251l1.017.759,3.713,2.844c3.134,2.407,7.471,5.714,12.3,9.318s9.208,6.814,12.426,9.144l3.784,2.754,1.023.753a2.681,2.681,0,0,1,.341.27Z" transform="translate(-78.217 -188.284)" fill="#263238"/>
      <path id="Trazado_150712" data-name="Trazado 150712" d="M250.8,342.206c-.058,0,0-.978-.135-2.529a26.537,26.537,0,0,0-3.578-11.525c-.791-1.345-1.371-2.124-1.326-2.162a2.62,2.62,0,0,1,.457.515,17.9,17.9,0,0,1,1.068,1.525,23.538,23.538,0,0,1,3.616,11.634,16.639,16.639,0,0,1,0,1.86,2.612,2.612,0,0,1-.1.682Z" transform="translate(-106.78 -182.819)" fill="#263238"/>
      <path id="Trazado_150713" data-name="Trazado 150713" d="M258.94,341.551a18.665,18.665,0,0,1,.161-1.982,25.276,25.276,0,0,0-.09-4.762,24.9,24.9,0,0,0-1-4.659c-.367-1.171-.643-1.873-.6-1.9a1.794,1.794,0,0,1,.264.47,13.755,13.755,0,0,1,.566,1.351,20.669,20.669,0,0,1,1.094,9.523c-.077.611-.161,1.107-.238,1.441A1.932,1.932,0,0,1,258.94,341.551Z" transform="translate(-110.933 -183.624)" fill="#263238"/>
      <path id="Trazado_150714" data-name="Trazado 150714" d="M294.411,325.7a.351.351,0,0,0-.148-.245.759.759,0,0,1-.264-.283c-.071-.135-.122-.3-.212-.45-.174-.328-.6-.573-.914-1.049a6.8,6.8,0,0,1-.772-1.7,11.422,11.422,0,0,0-2.214-4.17,18.664,18.664,0,0,0-1.988-1.982,21.232,21.232,0,0,0-2.4-1.834,19.69,19.69,0,0,0-2.574-1.589l-2.574-1.248c-.811-.386-1.57-.785-2.31-1.1l-2.059-.882a8.166,8.166,0,0,1-.894-.405c-.277-.161-.5-.341-.734-.47l-.643-.354c-.206-.109-.38-.257-.534-.354-.315-.2-.592-.309-.772-.405s-.27-.148-.264-.161a1.288,1.288,0,0,1,.29.1,6.079,6.079,0,0,1,.817.354,8.95,8.95,0,0,0,1.223.643c.251.122.489.3.746.444s.579.245.888.38l2.072.837c.74.3,1.512.7,2.336,1.081l2.574,1.229a19.5,19.5,0,0,1,2.606,1.609,19.888,19.888,0,0,1,2.432,1.866,18.018,18.018,0,0,1,2.008,2.027,11.332,11.332,0,0,1,2.2,4.292,7.109,7.109,0,0,0,.7,1.673c.27.45.689.714.869,1.087.1.18.135.348.193.47a.85.85,0,0,0,.219.283C294.475,325.565,294.417,325.713,294.411,325.7Z" transform="translate(-116.186 -176.055)" fill="#263238"/>
      <path id="Trazado_150715" data-name="Trazado 150715" d="M178.367,424.286c-.09,0-.167-16.28-.167-36.363s.077-36.363.167-36.363.167,16.28.167,36.363S178.464,424.286,178.367,424.286Z" transform="translate(-82.695 -191.935)" fill="#263238"/>
    </g>
  </g>
</svg>
