<svg xmlns="http://www.w3.org/2000/svg" xmlns:xlink="http://www.w3.org/1999/xlink" width="882.657" height="882.532" viewBox="0 0 882.657 882.532">
  <defs>
    <linearGradient id="linear-gradient" x1="-4.419" y1="5.903" x2="-3.418" y2="5.903" gradientUnits="objectBoundingBox">
      <stop offset="0" stop-color="#dbdbdb"/>
      <stop offset="0.33" stop-color="#eee"/>
      <stop offset="0.67" stop-color="#fbfbfb"/>
      <stop offset="1" stop-color="#fff"/>
    </linearGradient>
  </defs>
  <g id="Grupo_76023" data-name="Grupo 76023" transform="translate(9288.328 7839.265)">
    <path id="Trazado_151081" data-name="Trazado 151081" d="M473.049,389.713A216.8,216.8,0,0,1,238.4,290.026L93.424,216.19,21.06,358.493A442.247,442.247,0,0,0,424.2,619.74a448.031,448.031,0,0,0,45.969-2.266l-112.4-112.419Z" transform="translate(-9271.238 -7576.475)" fill="#00bcd4"/>
    <path id="Trazado_151082" data-name="Trazado 151082" d="M463.329,101.064A443.4,443.4,0,0,0,372.184,30.83L397.105,188.4,236.7,213.8A217.068,217.068,0,0,1,368.105,413.016q0,9.674-.861,19.167l74.04,145.271,141.737-72.228a444.706,444.706,0,0,0,9.629-92.142,438.3,438.3,0,0,0-129.321-312.02Z" transform="translate(-8998.322 -7811.068)" fill="#81d4fa"/>
    <path id="Trazado_151083" data-name="Trazado 151083" d="M259.734,494.2A216.388,216.388,0,0,1,282.39,240.064l25.4-160.292L150.192,54.85q-8.519,7.68-16.7,15.859A442.043,442.043,0,0,0,42.371,562.687l72.5-142.19Z" transform="translate(-9292.55 -7780.669)" fill="#7e5ee3"/>
    <path id="Trazado_151084" data-name="Trazado 151084" d="M200.823,303.437a216.434,216.434,0,0,1,248.56-56.64l160.405-25.4L584.867,63.826A441.794,441.794,0,0,0,68.67,118.2l157.6,24.922Z" transform="translate(-9210.982 -7844.042)" fill="#ff9d00"/>
    <path id="Trazado_151085" data-name="Trazado 151085" d="M452.03,208A217.227,217.227,0,0,1,284.942,400.056L169.69,515.307l112.4,112.42A441.635,441.635,0,0,0,667.762,281.089L526.093,353.226Z" transform="translate(-9083.131 -7586.841)" fill="#d2e1f1"/>
    <path id="Trazado_152148" data-name="Trazado 152148" d="M211.472,0C328.265,0,422.944,94.679,422.944,211.472S328.265,422.944,211.472,422.944,0,328.265,0,211.472,94.679,0,211.472,0Z" transform="translate(-9057.783 -7609.026)" fill="url(#linear-gradient)"/>
    <path id="Trazado_152149" data-name="Trazado 152149" d="M74.9,12.984l6.03,18.8,6.012-18.8h8.572V40H88.981V33.691l.631-12.914L83.08,40h-4.3l-6.55-19.241.631,12.933V40H66.344V12.984Zm34.178,27.387a10.32,10.32,0,0,1-7.478-2.755,9.515,9.515,0,0,1-2.857-7.171v-.52a12.329,12.329,0,0,1,1.141-5.437,8.35,8.35,0,0,1,3.331-3.646,10.054,10.054,0,0,1,5.2-1.29,8.69,8.69,0,0,1,6.68,2.625,10.317,10.317,0,0,1,2.449,7.32v2.431H105.1a4.507,4.507,0,0,0,1.466,2.653,4.362,4.362,0,0,0,2.932.965,5.62,5.62,0,0,0,4.639-2.078L117,36.846a7.988,7.988,0,0,1-3.312,2.57A11.192,11.192,0,0,1,109.075,40.371Zm-.705-15.994q-2.746,0-3.266,3.637h6.309v-.482a3.1,3.1,0,0,0-.761-2.329A3.027,3.027,0,0,0,108.37,24.377Zm-.074-12.9H114.9l-5.158,5.826-5.1-.009Zm19.037,3.451v4.991h3.3v4.342h-3.3V33.45a2.345,2.345,0,0,0,.408,1.577,2.19,2.19,0,0,0,1.614.445,9.173,9.173,0,0,0,1.559-.111v4.472a11.54,11.54,0,0,1-3.525.538,6.55,6.55,0,0,1-4.769-1.521,6.236,6.236,0,0,1-1.54-4.62V24.266H118.52V19.924h2.561V14.933Zm4.416,14.844a11.849,11.849,0,0,1,1.169-5.353,8.359,8.359,0,0,1,3.358-3.609,10.115,10.115,0,0,1,5.14-1.262,9.231,9.231,0,0,1,7.106,2.792,10.715,10.715,0,0,1,2.6,7.6v.223a10.4,10.4,0,0,1-2.607,7.45,9.256,9.256,0,0,1-7.06,2.755,9.361,9.361,0,0,1-6.884-2.57,10.051,10.051,0,0,1-2.8-6.967Zm6.253.39a7.47,7.47,0,0,0,.872,4.082,2.905,2.905,0,0,0,2.579,1.3q3.34,0,3.414-5.14v-.631q0-5.4-3.451-5.4-3.136,0-3.4,4.657Zm15.085-.353a12.264,12.264,0,0,1,2.06-7.515,6.779,6.779,0,0,1,5.752-2.746,5.766,5.766,0,0,1,4.527,2.115V11.5H171.7V40h-5.622l-.315-2.152a5.921,5.921,0,0,1-4.9,2.523,6.767,6.767,0,0,1-5.678-2.746Q153.087,34.879,153.087,29.813Zm6.253.39q0,5.344,3.117,5.344a3.078,3.078,0,0,0,2.969-1.744V26.158a3,3,0,0,0-2.932-1.781q-2.895,0-3.136,4.676Zm15.122-.427a11.849,11.849,0,0,1,1.169-5.353,8.359,8.359,0,0,1,3.358-3.609,10.115,10.115,0,0,1,5.14-1.262,9.231,9.231,0,0,1,7.106,2.792,10.715,10.715,0,0,1,2.6,7.6v.223a10.4,10.4,0,0,1-2.607,7.45,9.256,9.256,0,0,1-7.06,2.755,9.361,9.361,0,0,1-6.884-2.57,10.051,10.051,0,0,1-2.8-6.967Zm6.253.39a7.47,7.47,0,0,0,.872,4.082,2.905,2.905,0,0,0,2.579,1.3q3.34,0,3.414-5.14v-.631q0-5.4-3.451-5.4-3.136,0-3.4,4.657ZM207.1,34.359a1.445,1.445,0,0,0-.835-1.28,12.7,12.7,0,0,0-3.173-1,14.468,14.468,0,0,1-3.859-1.364,6.465,6.465,0,0,1-2.319-2.05,4.9,4.9,0,0,1-.8-2.765,5.549,5.549,0,0,1,2.282-4.555,9.4,9.4,0,0,1,5.975-1.791,10.416,10.416,0,0,1,6.383,1.8,5.628,5.628,0,0,1,2.412,4.731H206.9q0-2.412-2.542-2.412a2.52,2.52,0,0,0-1.651.547,1.7,1.7,0,0,0-.668,1.364,1.556,1.556,0,0,0,.816,1.354,7.714,7.714,0,0,0,2.607.854,22.528,22.528,0,0,1,3.145.8q4.527,1.559,4.527,5.585a5.258,5.258,0,0,1-2.44,4.472,10.7,10.7,0,0,1-6.318,1.726,10.919,10.919,0,0,1-4.6-.928,7.7,7.7,0,0,1-3.154-2.523,5.714,5.714,0,0,1-1.132-3.358h5.845a2.416,2.416,0,0,0,.928,2.032,3.816,3.816,0,0,0,2.282.64,3,3,0,0,0,1.92-.52A1.662,1.662,0,0,0,207.1,34.359ZM73.877,67.583l-2.06-.148q-2.95,0-3.785,1.855V82H61.78V61.924h5.863l.2,2.579a4.842,4.842,0,0,1,4.4-2.95,6.1,6.1,0,0,1,1.744.223ZM85.845,82.371a10.32,10.32,0,0,1-7.478-2.755,9.515,9.515,0,0,1-2.857-7.171v-.52a12.329,12.329,0,0,1,1.141-5.437,8.35,8.35,0,0,1,3.331-3.646,10.054,10.054,0,0,1,5.2-1.29,8.69,8.69,0,0,1,6.68,2.625,10.317,10.317,0,0,1,2.449,7.32v2.431H81.874a4.507,4.507,0,0,0,1.466,2.653,4.362,4.362,0,0,0,2.932.965,5.62,5.62,0,0,0,4.639-2.078l2.857,3.377a7.988,7.988,0,0,1-3.312,2.57A11.192,11.192,0,0,1,85.845,82.371ZM85.14,66.377q-2.746,0-3.266,3.637h6.309v-.482a3.1,3.1,0,0,0-.761-2.329A3.027,3.027,0,0,0,85.14,66.377ZM108.129,82a7.06,7.06,0,0,1-.594-1.8,5.814,5.814,0,0,1-4.824,2.171,7.123,7.123,0,0,1-4.824-1.716A5.463,5.463,0,0,1,95.9,76.341a5.615,5.615,0,0,1,2.412-4.936q2.412-1.67,7.014-1.67h1.93V68.673q0-2.778-2.394-2.778a1.956,1.956,0,0,0-2.227,2.2H96.384a5.605,5.605,0,0,1,2.477-4.726,10.41,10.41,0,0,1,6.318-1.816,9.127,9.127,0,0,1,6.067,1.874,6.516,6.516,0,0,1,2.282,5.14v8.888a9.1,9.1,0,0,0,.854,4.23V82Zm-3.915-4.082a3.488,3.488,0,0,0,1.939-.5,3.14,3.14,0,0,0,1.1-1.132v-3.21h-1.818q-3.266,0-3.266,2.932a1.79,1.79,0,0,0,.575,1.382A2.082,2.082,0,0,0,104.214,77.918Zm21.264-.371a2.781,2.781,0,0,0,2.041-.714,2.62,2.62,0,0,0,.705-1.995h5.863a6.941,6.941,0,0,1-2.366,5.418,8.8,8.8,0,0,1-6.1,2.115,8.91,8.91,0,0,1-6.9-2.746q-2.523-2.746-2.523-7.607v-.26a12.228,12.228,0,0,1,1.123-5.372,8.173,8.173,0,0,1,3.238-3.581,9.654,9.654,0,0,1,5.01-1.252,8.689,8.689,0,0,1,6.216,2.171,7.7,7.7,0,0,1,2.3,5.882h-5.863a3.432,3.432,0,0,0-.761-2.394,2.626,2.626,0,0,0-2.041-.835q-2.431,0-2.839,3.1a21.865,21.865,0,0,0-.13,2.709,8.588,8.588,0,0,0,.724,4.193A2.505,2.505,0,0,0,125.478,77.547Zm18.536-20.614v4.991h3.3v4.342h-3.3V75.45a2.345,2.345,0,0,0,.408,1.577,2.19,2.19,0,0,0,1.614.445,9.173,9.173,0,0,0,1.559-.111v4.472a11.54,11.54,0,0,1-3.525.538A6.55,6.55,0,0,1,139.3,80.85a6.236,6.236,0,0,1-1.54-4.62V66.266H135.2V61.924h2.561V56.933ZM156.371,82H150.1V61.924h6.271Zm-6.643-25.253a2.791,2.791,0,0,1,.965-2.189,4.1,4.1,0,0,1,5.01,0,2.967,2.967,0,0,1,0,4.379,4.1,4.1,0,0,1-5.01,0A2.791,2.791,0,0,1,149.729,56.747Zm18.5,17.813L171.4,61.924h6.587L171.438,82h-6.383l-6.55-20.076h6.605Zm10.558-2.783a11.849,11.849,0,0,1,1.169-5.353,8.359,8.359,0,0,1,3.358-3.609,10.115,10.115,0,0,1,5.14-1.262,9.231,9.231,0,0,1,7.106,2.792,10.715,10.715,0,0,1,2.6,7.6v.223a10.4,10.4,0,0,1-2.607,7.45,9.256,9.256,0,0,1-7.06,2.755,9.361,9.361,0,0,1-6.884-2.57,10.051,10.051,0,0,1-2.8-6.967Zm6.253.39a7.47,7.47,0,0,0,.872,4.082,2.905,2.905,0,0,0,2.579,1.3q3.34,0,3.414-5.14v-.631q0-5.4-3.451-5.4-3.136,0-3.4,4.657Zm26.385,4.193a1.445,1.445,0,0,0-.835-1.28,12.7,12.7,0,0,0-3.173-1,14.468,14.468,0,0,1-3.859-1.364,6.465,6.465,0,0,1-2.319-2.05,4.9,4.9,0,0,1-.8-2.765,5.549,5.549,0,0,1,2.282-4.555,9.4,9.4,0,0,1,5.975-1.791,10.416,10.416,0,0,1,6.383,1.8,5.628,5.628,0,0,1,2.412,4.731h-6.271q0-2.412-2.542-2.412a2.52,2.52,0,0,0-1.651.547,1.7,1.7,0,0,0-.668,1.364,1.556,1.556,0,0,0,.816,1.354,7.714,7.714,0,0,0,2.607.854,22.529,22.529,0,0,1,3.145.8q4.527,1.559,4.527,5.585a5.258,5.258,0,0,1-2.44,4.472,10.7,10.7,0,0,1-6.318,1.726,10.919,10.919,0,0,1-4.6-.928,7.7,7.7,0,0,1-3.154-2.523,5.714,5.714,0,0,1-1.132-3.358h5.845a2.416,2.416,0,0,0,.928,2.032,3.816,3.816,0,0,0,2.282.64,3,3,0,0,0,1.92-.52A1.662,1.662,0,0,0,211.423,76.359Z" transform="translate(-8986.5 -7443.554)" fill="#12263f"/>
    <path id="Trazado_152150" data-name="Trazado 152150" d="M77.717,64.779A39.407,39.407,0,0,1,74.752,80.7a27.338,27.338,0,0,1-8.221,10.849L77.4,100.088l-8.58,7.592L54.9,96.494a29.477,29.477,0,0,1-4.941.4,27.211,27.211,0,0,1-14.51-3.908,25.964,25.964,0,0,1-9.883-11.163,38.354,38.354,0,0,1-3.549-16.688V61.9a39.277,39.277,0,0,1,3.481-17,25.921,25.921,0,0,1,9.838-11.275A27.061,27.061,0,0,1,49.865,29.7,27.061,27.061,0,0,1,64.4,33.626,25.921,25.921,0,0,1,74.235,44.9a39.165,39.165,0,0,1,3.481,16.958ZM64.061,61.814q0-10.287-3.684-15.633a12,12,0,0,0-10.512-5.346A12.008,12.008,0,0,0,39.4,46.114Q35.715,51.393,35.67,61.59v3.189q0,10.018,3.684,15.543a11.973,11.973,0,0,0,10.6,5.525,11.865,11.865,0,0,0,10.422-5.323Q64.016,75.2,64.061,65Z" transform="translate(-8897 -7786.32)" fill="#fff"/>
    <path id="Trazado_152151" data-name="Trazado 152151" d="M39.646,72.955V96H26.169V30.594H51.685a29.52,29.52,0,0,1,12.96,2.7,19.862,19.862,0,0,1,8.6,7.659,21.356,21.356,0,0,1,3.01,11.3q0,9.613-6.581,15.161T51.46,72.955Zm0-10.916H51.685q5.346,0,8.153-2.516a9.15,9.15,0,0,0,2.808-7.187,10.788,10.788,0,0,0-2.83-7.771A10.572,10.572,0,0,0,52,41.51H39.646Z" transform="translate(-9186.545 -7540.605)" fill="#fff"/>
    <path id="Trazado_152152" data-name="Trazado 152152" d="M50.7,72.057H39.96V96H26.483V30.594h24.3q11.59,0,17.879,5.166t6.289,14.6a20.123,20.123,0,0,1-2.9,11.163,19.761,19.761,0,0,1-8.782,7.12l14.15,26.729V96H62.96ZM39.96,61.141H50.831q5.076,0,7.861-2.583a9.232,9.232,0,0,0,2.785-7.12A9.882,9.882,0,0,0,58.85,44.16q-2.628-2.65-8.063-2.65H39.96Z" transform="translate(-8615.545 -7540.605)" fill="#fff"/>
    <path id="Trazado_152153" data-name="Trazado 152153" d="M69.99,69.271H44.115V96H30.639V30.594H73.225V41.51H44.115V58.4H69.99Z" transform="translate(-9098.545 -7195.32)" fill="#fff"/>
    <path id="Trazado_152154" data-name="Trazado 152154" d="M61.478,78.84a6.916,6.916,0,0,0-2.7-5.862q-2.7-2.044-9.7-4.312a68.785,68.785,0,0,1-11.1-4.47q-11.141-6.02-11.141-16.217a15.794,15.794,0,0,1,2.987-9.456,19.486,19.486,0,0,1,8.58-6.491A32.294,32.294,0,0,1,50.966,29.7a29.4,29.4,0,0,1,12.488,2.538A19.885,19.885,0,0,1,71.967,39.4,18.749,18.749,0,0,1,75,49.91H61.522a8.82,8.82,0,0,0-2.83-6.985q-2.83-2.493-7.951-2.493-4.941,0-7.682,2.089a6.589,6.589,0,0,0-2.74,5.5,6.31,6.31,0,0,0,3.212,5.346,36.288,36.288,0,0,0,9.456,4.043q11.5,3.459,16.756,8.58A17.087,17.087,0,0,1,75,78.75a15.74,15.74,0,0,1-6.424,13.319Q62.151,96.9,51.28,96.9a33.4,33.4,0,0,1-13.746-2.763,21.752,21.752,0,0,1-9.456-7.569,19.384,19.384,0,0,1-3.257-11.141H38.343q0,10.826,12.938,10.826,4.807,0,7.5-1.954A6.357,6.357,0,0,0,61.478,78.84Z" transform="translate(-8707.5 -7195.32)" fill="#fff"/>
  </g>
</svg>
