<svg xmlns="http://www.w3.org/2000/svg" width="308.702" height="222.535" viewBox="0 0 308.702 222.535">
  <g id="House_searching-pana" data-name="House searching-pana" transform="translate(-14.81 -61.32)">
    <g id="freepik--background-complete--inject-99" transform="translate(75.237 61.32)">
      <rect id="Rectángulo_33327" data-name="Rectángulo 33327" width="34.944" height="46.088" transform="translate(206.513 175.902)" fill="#f5f5f5"/>
      <rect id="Rectángulo_33328" data-name="Rectángulo 33328" width="16.384" height="46.088" transform="translate(225.073 175.902)" fill="#ebebeb"/>
      <rect id="Rectángulo_33329" data-name="Rectángulo 33329" width="3.143" height="7.633" transform="translate(213.837 182.141)" fill="#ebebeb"/>
      <rect id="Rectángulo_33330" data-name="Rectángulo 33330" width="3.143" height="7.633" transform="translate(213.837 212.016)" fill="#ebebeb"/>
      <path id="Trazado_150244" data-name="Trazado 150244" d="M439.39,354.458c0,.066-4.155.118-9.277.118s-9.283-.053-9.283-.118,4.155-.118,9.283-.118S439.39,354.393,439.39,354.458Z" transform="translate(-214.317 -161.693)" fill="#ebebeb"/>
      <rect id="Rectángulo_33331" data-name="Rectángulo 33331" width="3.143" height="7.633" transform="translate(213.837 197.19)" fill="#ebebeb"/>
      <path id="Trazado_150245" data-name="Trazado 150245" d="M439.39,377.355c0,.066-4.155.118-9.277.118s-9.283-.053-9.283-.118,4.155-.125,9.283-.125S439.39,377.289,439.39,377.355Z" transform="translate(-214.317 -169.533)" fill="#ebebeb"/>
      <rect id="Rectángulo_33332" data-name="Rectángulo 33332" width="3.143" height="7.633" transform="translate(228.551 182.141)" fill="#e0e0e0"/>
      <rect id="Rectángulo_33333" data-name="Rectángulo 33333" width="3.143" height="7.633" transform="translate(235.369 182.141)" fill="#e0e0e0"/>
      <rect id="Rectángulo_33334" data-name="Rectángulo 33334" width="3.143" height="7.633" transform="translate(228.551 196.625)" fill="#e0e0e0"/>
      <rect id="Rectángulo_33335" data-name="Rectángulo 33335" width="3.143" height="7.633" transform="translate(235.369 196.625)" fill="#e0e0e0"/>
      <rect id="Rectángulo_33336" data-name="Rectángulo 33336" width="3.143" height="7.633" transform="translate(228.551 211.109)" fill="#e0e0e0"/>
      <rect id="Rectángulo_33337" data-name="Rectángulo 33337" width="3.143" height="7.633" transform="translate(235.369 211.109)" fill="#e0e0e0"/>
      <rect id="Rectángulo_33338" data-name="Rectángulo 33338" width="40.197" height="1.663" transform="translate(203.883 174.291)" fill="#e0e0e0"/>
      <path id="Trazado_150246" data-name="Trazado 150246" d="M456.175,329.128c0,.066-7.811.118-17.442.118s-17.442-.053-17.442-.118,7.811-.118,17.442-.118S456.175,329.063,456.175,329.128Z" transform="translate(-214.474 -153.016)" fill="#f5f5f5"/>
      <rect id="Rectángulo_33339" data-name="Rectángulo 33339" width="62.3" height="163.062" transform="translate(105.429 59.473)" fill="#ebebeb"/>
      <rect id="Rectángulo_33340" data-name="Rectángulo 33340" width="31.15" height="163.062" transform="translate(136.573 59.473)" fill="#e0e0e0"/>
      <rect id="Rectángulo_33341" data-name="Rectángulo 33341" width="21.998" height="19.382" transform="translate(112.543 40.092)" fill="#ebebeb"/>
      <rect id="Rectángulo_33342" data-name="Rectángulo 33342" width="5.24" height="19.382" transform="translate(129.295 40.092)" fill="#e0e0e0"/>
      <rect id="Rectángulo_33343" data-name="Rectángulo 33343" width="69.309" height="1.131" transform="translate(100.236 58.343)" fill="#e0e0e0"/>
      <rect id="Rectángulo_33344" data-name="Rectángulo 33344" width="5.273" height="11.118" transform="translate(117.724 67.928)" fill="#fff"/>
      <path id="Trazado_150247" data-name="Trazado 150247" d="M298.224,188.077c0,.118-6.969.21-15.569.21s-15.575-.092-15.575-.21,6.969-.217,15.575-.217S298.224,187.952,298.224,188.077Z" transform="translate(-161.651 -104.666)" fill="#e0e0e0"/>
      <rect id="Rectángulo_33345" data-name="Rectángulo 33345" width="5.273" height="11.118" transform="translate(149.144 67.928)" fill="#f5f5f5"/>
      <path id="Trazado_150248" data-name="Trazado 150248" d="M346.014,188.077c0,.118-6.969.21-15.569.21s-15.575-.092-15.575-.21,6.969-.217,15.575-.217S346.014,187.952,346.014,188.077Z" transform="translate(-178.021 -104.666)" fill="#ebebeb"/>
      <rect id="Rectángulo_33346" data-name="Rectángulo 33346" width="5.273" height="11.118" transform="translate(149.144 89.999)" fill="#f5f5f5"/>
      <path id="Trazado_150249" data-name="Trazado 150249" d="M346.014,221.65c0,.118-6.969.217-15.569.217s-15.575-.1-15.575-.217,6.969-.21,15.575-.21S346.014,221.539,346.014,221.65Z" transform="translate(-178.021 -116.168)" fill="#ebebeb"/>
      <rect id="Rectángulo_33347" data-name="Rectángulo 33347" width="5.273" height="11.118" transform="translate(149.144 112.74)" fill="#f5f5f5"/>
      <path id="Trazado_150250" data-name="Trazado 150250" d="M346.014,256.24c0,.118-6.969.217-15.569.217s-15.575-.1-15.575-.217,6.969-.21,15.575-.21S346.014,256.129,346.014,256.24Z" transform="translate(-178.021 -128.017)" fill="#ebebeb"/>
      <rect id="Rectángulo_33348" data-name="Rectángulo 33348" width="5.273" height="11.118" transform="translate(149.144 135.488)" fill="#f5f5f5"/>
      <path id="Trazado_150251" data-name="Trazado 150251" d="M346.014,290.83c0,.118-6.969.217-15.569.217s-15.575-.1-15.575-.217,6.969-.21,15.575-.21S346.014,290.719,346.014,290.83Z" transform="translate(-178.021 -139.866)" fill="#ebebeb"/>
      <rect id="Rectángulo_33349" data-name="Rectángulo 33349" width="5.273" height="11.118" transform="translate(149.144 157.579)" fill="#f5f5f5"/>
      <path id="Trazado_150252" data-name="Trazado 150252" d="M346.014,324.437c0,.112-6.969.21-15.569.21s-15.575-.1-15.575-.21,6.969-.217,15.575-.217S346.014,324.319,346.014,324.437Z" transform="translate(-178.021 -151.375)" fill="#ebebeb"/>
      <rect id="Rectángulo_33350" data-name="Rectángulo 33350" width="5.273" height="11.118" transform="translate(149.144 179.755)" fill="#f5f5f5"/>
      <rect id="Rectángulo_33351" data-name="Rectángulo 33351" width="5.273" height="11.118" transform="translate(149.144 202.227)" fill="#f5f5f5"/>
      <path id="Trazado_150253" data-name="Trazado 150253" d="M346.014,358.17c0,.118-6.969.217-15.569.217s-15.575-.1-15.575-.217,6.969-.21,15.575-.21S346.014,358.052,346.014,358.17Z" transform="translate(-178.021 -162.933)" fill="#ebebeb"/>
      <rect id="Rectángulo_33352" data-name="Rectángulo 33352" width="5.273" height="11.118" transform="translate(117.724 90.341)" fill="#fff"/>
      <path id="Trazado_150254" data-name="Trazado 150254" d="M298.224,222.167c0,.112-6.969.21-15.569.21s-15.575-.1-15.575-.21,6.969-.217,15.575-.217S298.224,222.049,298.224,222.167Z" transform="translate(-161.651 -116.343)" fill="#e0e0e0"/>
      <rect id="Rectángulo_33353" data-name="Rectángulo 33353" width="5.273" height="11.118" transform="translate(117.724 112.754)" fill="#fff"/>
      <path id="Trazado_150255" data-name="Trazado 150255" d="M298.224,256.257c0,.112-6.969.21-15.569.21s-15.575-.1-15.575-.21,6.969-.217,15.575-.217S298.224,256.139,298.224,256.257Z" transform="translate(-161.651 -128.02)" fill="#e0e0e0"/>
      <rect id="Rectángulo_33354" data-name="Rectángulo 33354" width="5.273" height="11.118" transform="translate(117.724 135.166)" fill="#fff"/>
      <path id="Trazado_150256" data-name="Trazado 150256" d="M298.224,290.347c0,.112-6.969.21-15.569.21s-15.575-.1-15.575-.21,6.969-.217,15.575-.217S298.224,290.229,298.224,290.347Z" transform="translate(-161.651 -139.698)" fill="#e0e0e0"/>
      <rect id="Rectángulo_33355" data-name="Rectángulo 33355" width="5.273" height="11.118" transform="translate(117.724 157.579)" fill="#fff"/>
      <path id="Trazado_150257" data-name="Trazado 150257" d="M298.224,324.437c0,.112-6.969.21-15.569.21s-15.575-.1-15.575-.21,6.969-.217,15.575-.217S298.224,324.319,298.224,324.437Z" transform="translate(-161.651 -151.375)" fill="#e0e0e0"/>
      <rect id="Rectángulo_33356" data-name="Rectángulo 33356" width="5.273" height="11.118" transform="translate(117.724 179.991)" fill="#fff"/>
      <path id="Trazado_150258" data-name="Trazado 150258" d="M298.224,358.527c0,.112-6.969.21-15.569.21s-15.575-.1-15.575-.21,6.969-.217,15.575-.217S298.224,358.409,298.224,358.527Z" transform="translate(-161.651 -163.052)" fill="#e0e0e0"/>
      <rect id="Rectángulo_33357" data-name="Rectángulo 33357" width="5.273" height="11.118" transform="translate(117.724 202.404)" fill="#fff"/>
      <rect id="Rectángulo_33358" data-name="Rectángulo 33358" width="47.771" height="63.01" transform="translate(33.142 159.242)" fill="#ebebeb"/>
      <rect id="Rectángulo_33359" data-name="Rectángulo 33359" width="22.399" height="63.01" transform="translate(58.513 159.242)" fill="#e0e0e0"/>
      <rect id="Rectángulo_33360" data-name="Rectángulo 33360" width="4.293" height="10.434" transform="translate(43.155 167.769)" fill="#f5f5f5"/>
      <rect id="Rectángulo_33361" data-name="Rectángulo 33361" width="4.293" height="10.434" transform="translate(43.155 208.617)" fill="#f5f5f5"/>
      <path id="Trazado_150259" data-name="Trazado 150259" d="M182.5,338.5c0,.112-5.68.21-12.689.21s-12.682-.1-12.682-.21,5.68-.217,12.682-.217S182.5,338.379,182.5,338.5Z" transform="translate(-123.988 -156.191)" fill="#f5f5f5"/>
      <rect id="Rectángulo_33362" data-name="Rectángulo 33362" width="4.293" height="10.434" transform="translate(43.155 188.348)" fill="#f5f5f5"/>
      <path id="Trazado_150260" data-name="Trazado 150260" d="M182.5,369.79c0,.118-5.68.217-12.689.217s-12.682-.1-12.682-.217,5.68-.21,12.682-.21S182.5,369.679,182.5,369.79Z" transform="translate(-123.988 -166.913)" fill="#f5f5f5"/>
      <rect id="Rectángulo_33363" data-name="Rectángulo 33363" width="4.293" height="10.434" transform="translate(63.267 167.769)" fill="#f5f5f5"/>
      <rect id="Rectángulo_33364" data-name="Rectángulo 33364" width="4.293" height="10.434" transform="translate(72.59 167.769)" fill="#f5f5f5"/>
      <rect id="Rectángulo_33365" data-name="Rectángulo 33365" width="4.293" height="10.434" transform="translate(63.267 187.572)" fill="#f5f5f5"/>
      <rect id="Rectángulo_33366" data-name="Rectángulo 33366" width="4.293" height="10.434" transform="translate(72.59 187.572)" fill="#f5f5f5"/>
      <rect id="Rectángulo_33367" data-name="Rectángulo 33367" width="4.293" height="10.434" transform="translate(63.267 207.374)" fill="#f5f5f5"/>
      <rect id="Rectángulo_33368" data-name="Rectángulo 33368" width="4.293" height="10.434" transform="translate(72.59 207.374)" fill="#f5f5f5"/>
      <rect id="Rectángulo_33369" data-name="Rectángulo 33369" width="54.957" height="2.275" transform="translate(29.553 157.046)" fill="#e0e0e0"/>
      <path id="Trazado_150261" data-name="Trazado 150261" d="M205.448,303.89c0,.118-10.677.217-23.846.217s-23.852-.1-23.852-.217,10.677-.21,23.852-.21S205.448,303.759,205.448,303.89Z" transform="translate(-124.2 -144.339)" fill="#ebebeb"/>
      <path id="Trazado_150262" data-name="Trazado 150262" d="M384.63,180l42.32.2s-4.01-9.2-12.577-9.2c-6.529,0-6.818,4.063-10.743,5.227S391.448,170.277,384.63,180Z" transform="translate(-201.917 -98.89)" fill="#ebebeb"/>
      <path id="Trazado_150263" data-name="Trazado 150263" d="M106.72,107.9l74.424.309S174.1,92.087,159.034,92.08c-11.479,0-11.992,7.147-18.882,9.2S118.738,90.8,106.72,107.9Z" transform="translate(-106.72 -71.857)" fill="#f5f5f5"/>
      <path id="Trazado_150264" data-name="Trazado 150264" d="M333.76,73.246l56.074.23s-5.293-12.15-16.66-12.156c-8.652,0-9.033,5.385-14.227,6.923S342.793,60.36,333.76,73.246Z" transform="translate(-184.491 -61.32)" fill="#fafafa"/>
    </g>
    <g id="freepik--Floor--inject-99" transform="translate(14.81 283.158)">
      <path id="Trazado_150265" data-name="Trazado 150265" d="M323.511,398.911c0,.1-69.112.171-154.344.171S14.81,399.01,14.81,398.911s69.092-.171,154.357-.171S323.511,398.819,323.511,398.911Z" transform="translate(-14.81 -398.74)" fill="#263238"/>
    </g>
    <g id="freepik--Buildings--inject-99" transform="translate(147.701 143.896)">
      <rect id="Rectángulo_33370" data-name="Rectángulo 33370" width="36.43" height="95.351" transform="translate(107.77 44.003)" fill="#455a64"/>
      <rect id="Rectángulo_33371" data-name="Rectángulo 33371" width="18.212" height="95.351" transform="translate(125.982 44.003)" fill="#263238"/>
      <rect id="Rectángulo_33372" data-name="Rectángulo 33372" width="12.866" height="11.335" transform="translate(111.932 32.669)" fill="#455a64"/>
      <rect id="Rectángulo_33373" data-name="Rectángulo 33373" width="3.064" height="11.335" transform="translate(121.728 32.669)" fill="#263238"/>
      <rect id="Rectángulo_33374" data-name="Rectángulo 33374" width="40.532" height="0.664" transform="translate(104.733 43.339)" fill="#455a64"/>
      <rect id="Rectángulo_33375" data-name="Rectángulo 33375" width="3.083" height="6.502" transform="translate(114.963 48.948)" fill="#263238"/>
      <path id="Trazado_150266" data-name="Trazado 150266" d="M399.071,275.075c0,.066-4.076.125-9.106.125s-9.106-.059-9.106-.125,4.076-.125,9.106-.125S399.071,274.983,399.071,275.075Z" transform="translate(-273.09 -217.074)" fill="#263238"/>
      <rect id="Rectángulo_33376" data-name="Rectángulo 33376" width="3.083" height="6.502" transform="translate(133.332 48.948)" fill="#455a64"/>
      <path id="Trazado_150267" data-name="Trazado 150267" d="M427.021,275.075c0,.066-4.076.125-9.106.125s-9.106-.059-9.106-.125,4.076-.125,9.106-.125S427.021,274.983,427.021,275.075Z" transform="translate(-282.664 -217.074)" fill="#455a64"/>
      <rect id="Rectángulo_33377" data-name="Rectángulo 33377" width="3.083" height="6.502" transform="translate(133.332 61.853)" fill="#455a64"/>
      <path id="Trazado_150268" data-name="Trazado 150268" d="M427.021,294.7c0,.072-4.076.125-9.106.125s-9.106-.053-9.106-.125,4.076-.125,9.106-.125S427.021,294.639,427.021,294.7Z" transform="translate(-282.664 -223.798)" fill="#455a64"/>
      <rect id="Rectángulo_33378" data-name="Rectángulo 33378" width="3.083" height="6.502" transform="translate(133.332 75.154)" fill="#455a64"/>
      <path id="Trazado_150269" data-name="Trazado 150269" d="M427.021,314.935c0,.066-4.076.125-9.106.125s-9.106-.059-9.106-.125,4.076-.125,9.106-.125S427.021,314.863,427.021,314.935Z" transform="translate(-282.664 -230.728)" fill="#455a64"/>
      <rect id="Rectángulo_33379" data-name="Rectángulo 33379" width="3.083" height="6.502" transform="translate(133.332 88.447)" fill="#455a64"/>
      <path id="Trazado_150270" data-name="Trazado 150270" d="M427.021,335.158c0,.072-4.076.125-9.106.125s-9.106-.053-9.106-.125,4.076-.118,9.106-.118S427.021,335.093,427.021,335.158Z" transform="translate(-282.664 -237.658)" fill="#455a64"/>
      <rect id="Rectángulo_33380" data-name="Rectángulo 33380" width="3.083" height="6.502" transform="translate(133.332 101.366)" fill="#455a64"/>
      <path id="Trazado_150271" data-name="Trazado 150271" d="M427.021,354.8c0,.072-4.076.125-9.106.125s-9.106-.053-9.106-.125,4.076-.125,9.106-.125S427.021,354.739,427.021,354.8Z" transform="translate(-282.664 -244.385)" fill="#455a64"/>
      <rect id="Rectángulo_33381" data-name="Rectángulo 33381" width="3.083" height="6.502" transform="translate(133.332 114.338)" fill="#455a64"/>
      <rect id="Rectángulo_33382" data-name="Rectángulo 33382" width="3.083" height="6.502" transform="translate(133.332 127.481)" fill="#455a64"/>
      <path id="Trazado_150272" data-name="Trazado 150272" d="M427.021,374.535c0,.072-4.076.125-9.106.125s-9.106-.053-9.106-.125,4.076-.125,9.106-.125S427.021,374.469,427.021,374.535Z" transform="translate(-282.664 -251.144)" fill="#455a64"/>
      <rect id="Rectángulo_33383" data-name="Rectángulo 33383" width="3.083" height="6.502" transform="translate(114.963 62.051)" fill="#263238"/>
      <path id="Trazado_150273" data-name="Trazado 150273" d="M399.071,295c0,.066-4.076.125-9.106.125s-9.106-.059-9.106-.125,4.076-.125,9.106-.125S399.071,294.959,399.071,295Z" transform="translate(-273.09 -223.901)" fill="#263238"/>
      <rect id="Rectángulo_33384" data-name="Rectángulo 33384" width="3.083" height="6.502" transform="translate(114.963 75.154)" fill="#263238"/>
      <path id="Trazado_150274" data-name="Trazado 150274" d="M399.071,314.938c0,.072-4.076.125-9.106.125s-9.106-.053-9.106-.125,4.076-.118,9.106-.118S399.071,314.873,399.071,314.938Z" transform="translate(-273.09 -230.732)" fill="#263238"/>
      <rect id="Rectángulo_33385" data-name="Rectángulo 33385" width="3.083" height="6.502" transform="translate(114.963 88.263)" fill="#263238"/>
      <path id="Trazado_150275" data-name="Trazado 150275" d="M399.071,334.875c0,.066-4.076.125-9.106.125s-9.106-.059-9.106-.125,4.076-.125,9.106-.125S399.071,334.8,399.071,334.875Z" transform="translate(-273.09 -237.558)" fill="#263238"/>
      <rect id="Rectángulo_33386" data-name="Rectángulo 33386" width="3.083" height="6.502" transform="translate(114.963 101.366)" fill="#263238"/>
      <path id="Trazado_150276" data-name="Trazado 150276" d="M399.071,354.8c0,.072-4.076.125-9.106.125s-9.106-.053-9.106-.125,4.076-.125,9.106-.125S399.071,354.739,399.071,354.8Z" transform="translate(-273.09 -244.385)" fill="#263238"/>
      <rect id="Rectángulo_33387" data-name="Rectángulo 33387" width="3.083" height="6.502" transform="translate(114.963 114.476)" fill="#263238"/>
      <path id="Trazado_150277" data-name="Trazado 150277" d="M399.071,374.745c0,.066-4.076.125-9.106.125s-9.106-.059-9.106-.125,4.076-.125,9.106-.125S399.071,374.673,399.071,374.745Z" transform="translate(-273.09 -251.216)" fill="#263238"/>
      <rect id="Rectángulo_33388" data-name="Rectángulo 33388" width="3.083" height="6.502" transform="translate(114.963 127.579)" fill="#263238"/>
      <rect id="Rectángulo_33389" data-name="Rectángulo 33389" width="48.737" height="129.466" transform="translate(4.241 9.928)" fill="#455a64"/>
      <rect id="Rectángulo_33390" data-name="Rectángulo 33390" width="18.705" height="129.466" transform="translate(34.28 9.928)" fill="#263238"/>
      <rect id="Rectángulo_33391" data-name="Rectángulo 33391" width="3.701" height="7.811" transform="translate(41.781 20.144)" fill="#455a64"/>
      <rect id="Rectángulo_33392" data-name="Rectángulo 33392" width="3.701" height="7.811" transform="translate(41.781 33.846)" fill="#455a64"/>
      <rect id="Rectángulo_33393" data-name="Rectángulo 33393" width="3.701" height="7.811" transform="translate(41.781 49.191)" fill="#455a64"/>
      <rect id="Rectángulo_33394" data-name="Rectángulo 33394" width="3.701" height="7.811" transform="translate(41.781 63.852)" fill="#455a64"/>
      <rect id="Rectángulo_33395" data-name="Rectángulo 33395" width="3.701" height="7.811" transform="translate(41.781 78.52)" fill="#455a64"/>
      <rect id="Rectángulo_33396" data-name="Rectángulo 33396" width="3.701" height="7.811" transform="translate(41.781 93.181)" fill="#455a64"/>
      <rect id="Rectángulo_33397" data-name="Rectángulo 33397" width="3.701" height="7.811" transform="translate(41.781 107.849)" fill="#455a64"/>
      <rect id="Rectángulo_33398" data-name="Rectángulo 33398" width="3.701" height="7.811" transform="translate(41.781 123.97)" fill="#455a64"/>
      <rect id="Rectángulo_33399" data-name="Rectángulo 33399" width="55.41" height="1.512" transform="translate(0 9.112)" fill="#263238"/>
      <rect id="Rectángulo_33400" data-name="Rectángulo 33400" width="19.73" height="9.868" transform="translate(23.905 0)" fill="#263238"/>
      <rect id="Rectángulo_33401" data-name="Rectángulo 33401" width="10.375" height="9.112" transform="translate(23.905 0)" fill="#455a64"/>
      <rect id="Rectángulo_33402" data-name="Rectángulo 33402" width="3.701" height="7.811" transform="translate(11.177 19.822)" fill="#263238"/>
      <rect id="Rectángulo_33403" data-name="Rectángulo 33403" width="3.701" height="7.811" transform="translate(21.039 19.822)" fill="#263238"/>
      <rect id="Rectángulo_33404" data-name="Rectángulo 33404" width="3.701" height="7.811" transform="translate(11.177 34.7)" fill="#263238"/>
      <rect id="Rectángulo_33405" data-name="Rectángulo 33405" width="3.701" height="7.811" transform="translate(21.039 34.7)" fill="#263238"/>
      <rect id="Rectángulo_33406" data-name="Rectángulo 33406" width="3.701" height="7.811" transform="translate(11.177 49.579)" fill="#263238"/>
      <rect id="Rectángulo_33407" data-name="Rectángulo 33407" width="3.701" height="7.811" transform="translate(21.039 49.579)" fill="#263238"/>
      <rect id="Rectángulo_33408" data-name="Rectángulo 33408" width="3.701" height="7.811" transform="translate(11.177 64.457)" fill="#263238"/>
      <rect id="Rectángulo_33409" data-name="Rectángulo 33409" width="3.701" height="7.811" transform="translate(21.039 64.457)" fill="#263238"/>
      <rect id="Rectángulo_33410" data-name="Rectángulo 33410" width="3.701" height="7.811" transform="translate(11.177 79.335)" fill="#263238"/>
      <rect id="Rectángulo_33411" data-name="Rectángulo 33411" width="3.701" height="7.811" transform="translate(21.039 79.335)" fill="#263238"/>
      <rect id="Rectángulo_33412" data-name="Rectángulo 33412" width="3.701" height="7.811" transform="translate(11.177 94.213)" fill="#263238"/>
      <rect id="Rectángulo_33413" data-name="Rectángulo 33413" width="3.701" height="7.811" transform="translate(21.039 94.213)" fill="#263238"/>
      <rect id="Rectángulo_33414" data-name="Rectángulo 33414" width="3.701" height="7.811" transform="translate(11.177 109.091)" fill="#263238"/>
      <rect id="Rectángulo_33415" data-name="Rectángulo 33415" width="3.701" height="7.811" transform="translate(21.039 109.091)" fill="#263238"/>
      <rect id="Rectángulo_33416" data-name="Rectángulo 33416" width="3.701" height="7.811" transform="translate(11.177 123.97)" fill="#263238"/>
      <rect id="Rectángulo_33417" data-name="Rectángulo 33417" width="3.701" height="7.811" transform="translate(21.039 123.97)" fill="#263238"/>
      <path id="Trazado_150278" data-name="Trazado 150278" d="M253.429,233.49c0,.131-6.726.237-15.016.237s-15.023-.105-15.023-.237,6.726-.23,15.023-.23S253.429,233.365,253.429,233.49Z" transform="translate(-219.149 -202.794)" fill="#263238"/>
      <path id="Trazado_150279" data-name="Trazado 150279" d="M253.429,256.2c0,.132-6.726.237-15.016.237s-15.023-.105-15.023-.237,6.726-.23,15.023-.23S253.429,256.075,253.429,256.2Z" transform="translate(-219.149 -210.573)" fill="#263238"/>
      <path id="Trazado_150280" data-name="Trazado 150280" d="M253.429,279.187c0,.125-6.726.23-15.016.23s-15.023-.105-15.023-.23,6.726-.237,15.023-.237S253.429,279.055,253.429,279.187Z" transform="translate(-219.149 -218.444)" fill="#263238"/>
      <path id="Trazado_150281" data-name="Trazado 150281" d="M253.429,302.007c0,.125-6.726.23-15.016.23s-15.023-.105-15.023-.23,6.726-.237,15.023-.237S253.429,301.875,253.429,302.007Z" transform="translate(-219.149 -226.261)" fill="#263238"/>
      <path id="Trazado_150282" data-name="Trazado 150282" d="M253.429,324.5c0,.125-6.726.23-15.016.23s-15.023-.105-15.023-.23,6.726-.237,15.023-.237S253.429,324.365,253.429,324.5Z" transform="translate(-219.149 -233.965)" fill="#263238"/>
      <path id="Trazado_150283" data-name="Trazado 150283" d="M253.429,346.377c0,.125-6.726.23-15.016.23s-15.023-.105-15.023-.23,6.726-.237,15.023-.237S253.429,346.245,253.429,346.377Z" transform="translate(-219.149 -241.46)" fill="#263238"/>
      <path id="Trazado_150284" data-name="Trazado 150284" d="M253.429,370.627c0,.125-6.726.23-15.016.23s-15.023-.105-15.023-.23,6.726-.237,15.023-.237S253.429,370.5,253.429,370.627Z" transform="translate(-219.149 -249.767)" fill="#263238"/>
      <path id="Trazado_150285" data-name="Trazado 150285" d="M287.883,233.49a84.425,84.425,0,0,1-8.941.237A84.425,84.425,0,0,1,270,233.49a85.481,85.481,0,0,1,8.941-.23A87.7,87.7,0,0,1,287.883,233.49Z" transform="translate(-235.115 -202.794)" fill="#455a64"/>
      <path id="Trazado_150286" data-name="Trazado 150286" d="M287.883,256.2a84.415,84.415,0,0,1-8.941.237A84.416,84.416,0,0,1,270,256.2a85.494,85.494,0,0,1,8.941-.23A87.714,87.714,0,0,1,287.883,256.2Z" transform="translate(-235.115 -210.573)" fill="#455a64"/>
      <path id="Trazado_150287" data-name="Trazado 150287" d="M287.883,278.88a84.415,84.415,0,0,1-8.941.237A78.526,78.526,0,0,1,270,278.88a79.443,79.443,0,0,1,8.941-.23C283.885,278.65,287.883,278.775,287.883,278.88Z" transform="translate(-235.115 -218.342)" fill="#455a64"/>
      <path id="Trazado_150288" data-name="Trazado 150288" d="M287.583,302.007a87.808,87.808,0,0,1-8.941.23,87.807,87.807,0,0,1-8.941-.23,86.587,86.587,0,0,1,8.941-.237A84.416,84.416,0,0,1,287.583,302.007Z" transform="translate(-235.013 -226.261)" fill="#455a64"/>
      <path id="Trazado_150289" data-name="Trazado 150289" d="M287.583,324.5a87.818,87.818,0,0,1-8.941.23,87.818,87.818,0,0,1-8.941-.23,86.587,86.587,0,0,1,8.941-.237A84.426,84.426,0,0,1,287.583,324.5Z" transform="translate(-235.013 -233.965)" fill="#455a64"/>
      <path id="Trazado_150290" data-name="Trazado 150290" d="M287.583,346.987a87.824,87.824,0,0,1-8.941.23,87.823,87.823,0,0,1-8.941-.23,86.587,86.587,0,0,1,8.941-.237A84.426,84.426,0,0,1,287.583,346.987Z" transform="translate(-235.013 -241.669)" fill="#455a64"/>
      <path id="Trazado_150291" data-name="Trazado 150291" d="M287.583,370.627a87.818,87.818,0,0,1-8.941.23,87.818,87.818,0,0,1-8.941-.23,86.587,86.587,0,0,1,8.941-.237A84.416,84.416,0,0,1,287.583,370.627Z" transform="translate(-235.013 -249.767)" fill="#455a64"/>
    </g>
    <g id="freepik--House--inject-99" transform="translate(173.105 216.907)">
      <rect id="Rectángulo_33418" data-name="Rectángulo 33418" width="19.651" height="45.095" transform="translate(16.916 21.328)" fill="#727997"/>
      <rect id="Rectángulo_33419" data-name="Rectángulo 33419" width="19.651" height="45.095" transform="translate(16.916 21.328)" opacity="0.2"/>
      <path id="Trazado_150292" data-name="Trazado 150292" d="M274.32,321.786h48.487l9.06-12.86,9.494,13.228,11.164-.178L340.493,305.77,286.43,306Z" transform="translate(-261.999 -300.642)" fill="#727997"/>
      <path id="Trazado_150293" data-name="Trazado 150293" d="M274.32,321.786h48.487l9.06-12.86,9.494,13.228,11.164-.178L340.493,305.77,286.43,306Z" transform="translate(-261.999 -300.642)" fill="#fff" opacity="0.2"/>
      <path id="Trazado_150294" data-name="Trazado 150294" d="M311.2,323.62v45.088h48.422V323.62h-5.556L344.5,310.57l-9.093,12.847Z" transform="translate(-274.632 -302.286)" fill="#727997"/>
      <g id="Grupo_75955" data-name="Grupo 75955" transform="translate(43.412 46.877)" opacity="0.2">
        <path id="Trazado_150295" data-name="Trazado 150295" d="M321.61,388.816V369.27h11.321v19.546" transform="translate(-321.61 -369.27)"/>
      </g>
      <rect id="Rectángulo_33420" data-name="Rectángulo 33420" width="17.843" height="11.052" transform="translate(61.525 46.324)" fill="#fff" opacity="0.7"/>
      <rect id="Rectángulo_33421" data-name="Rectángulo 33421" width="17.843" height="11.052" transform="translate(61.525 24.207)" fill="#fff" opacity="0.7"/>
      <rect id="Rectángulo_33422" data-name="Rectángulo 33422" width="11.249" height="10.651" transform="translate(42.301 24.306)" fill="#fff" opacity="0.7"/>
      <rect id="Rectángulo_33423" data-name="Rectángulo 33423" width="0.164" height="11.157" transform="translate(66.594 46.324)" fill="#727997"/>
      <rect id="Rectángulo_33424" data-name="Rectángulo 33424" width="0.164" height="11.157" transform="translate(74.01 46.324)" fill="#727997"/>
      <rect id="Rectángulo_33425" data-name="Rectángulo 33425" width="7.416" height="0.164" transform="translate(66.672 52.156)" fill="#727997"/>
      <rect id="Rectángulo_33426" data-name="Rectángulo 33426" width="0.164" height="11.157" transform="translate(66.594 24.207)" fill="#727997"/>
      <rect id="Rectángulo_33427" data-name="Rectángulo 33427" width="0.164" height="11.157" transform="translate(74.01 24.207)" fill="#727997"/>
      <rect id="Rectángulo_33428" data-name="Rectángulo 33428" width="7.416" height="0.164" transform="translate(66.672 30.039)" fill="#727997"/>
      <rect id="Rectángulo_33429" data-name="Rectángulo 33429" width="0.164" height="10.651" transform="translate(47.843 24.306)" fill="#727997"/>
      <rect id="Rectángulo_33430" data-name="Rectángulo 33430" width="11.249" height="0.164" transform="translate(42.301 29.809)" fill="#727997"/>
      <path id="Trazado_150296" data-name="Trazado 150296" d="M362.953,322.417a2.387,2.387,0,1,1-2.387-2.387,2.387,2.387,0,0,1,2.387,2.387Z" transform="translate(-290.725 -305.527)" fill="#fff" opacity="0.7"/>
      <path id="Trazado_150297" data-name="Trazado 150297" d="M334.2,312.619l3.011-3.715V299.97h-6.3v12.715Z" transform="translate(-281.384 -298.655)" fill="#727997"/>
      <path id="Trazado_150298" data-name="Trazado 150298" d="M335.92,312.619V299.97h3.011V308.9Z" transform="translate(-283.1 -298.655)" opacity="0.2"/>
      <rect id="Rectángulo_33431" data-name="Rectángulo 33431" width="7.436" height="1.315" transform="translate(48.823)" fill="#727997"/>
      <rect id="Rectángulo_33432" data-name="Rectángulo 33432" width="37.126" height="25.371" transform="translate(0 41.058)" fill="#727997"/>
      <rect id="Rectángulo_33433" data-name="Rectángulo 33433" width="22.893" height="25.371" transform="translate(0 41.058)" opacity="0.2"/>
      <path id="Trazado_150299" data-name="Trazado 150299" d="M275.942,389.91a1.315,1.315,0,0,1-.033-.329v-.953c0-.881,0-2.078-.053-3.57,0-3.09-.039-7.357-.066-12.294l.184.184h-13.59l.178-.184c0,4.938-.046,9.2-.066,12.294,0,1.492-.039,2.689-.053,3.57a8.093,8.093,0,0,1-.033.953,1.591,1.591,0,0,1,0,.329.992.992,0,0,1-.033-.329v-.953c0-.881,0-2.078-.053-3.57,0-3.083-.039-7.357-.066-12.294v-.184h13.925v.184c-.033,4.938-.053,9.2-.072,12.294,0,1.492-.039,2.689-.053,3.57v.953a1.841,1.841,0,0,1-.118.329Z" transform="translate(-257.868 -323.527)" fill="#263238"/>
      <rect id="Rectángulo_33434" data-name="Rectángulo 33434" width="9.645" height="2.459" transform="translate(25.759 48.586)" opacity="0.2"/>
      <path id="Trazado_150300" data-name="Trazado 150300" d="M274.32,330.123v1.308h48.454V330.11Z" transform="translate(-261.999 -308.979)" fill="#727997"/>
      <path id="Trazado_150301" data-name="Trazado 150301" d="M348.02,324.738l9.066-12.722.026-1.446-9.06,12.86Z" transform="translate(-287.245 -302.286)" fill="#727997"/>
      <rect id="Rectángulo_33435" data-name="Rectángulo 33435" width="10.855" height="0.842" transform="translate(79.434 21.328)" fill="#727997"/>
      <rect id="Rectángulo_33436" data-name="Rectángulo 33436" width="4.004" height="1.525" transform="translate(46.87 43.879)" fill="#263238"/>
      <path id="Trazado_150302" data-name="Trazado 150302" d="M274.32,330.123v1.308h48.454V330.11Z" transform="translate(-261.999 -308.979)" opacity="0.3"/>
      <path id="Trazado_150303" data-name="Trazado 150303" d="M348.02,324.738l9.066-12.722.026-1.446-9.06,12.86Z" transform="translate(-287.245 -302.286)" opacity="0.3"/>
      <rect id="Rectángulo_33437" data-name="Rectángulo 33437" width="10.855" height="0.842" transform="translate(79.434 21.328)" opacity="0.3"/>
      <path id="Trazado_150304" data-name="Trazado 150304" d="M336.718,383.887a.713.713,0,0,0-.3-.44.565.565,0,0,0-.519-.059.539.539,0,0,0,0,1,.565.565,0,0,0,.519-.059c.27-.191.263-.447.3-.44s.112.283-.2.572a.723.723,0,0,1-.69.125.736.736,0,0,1,0-1.394.723.723,0,0,1,.69.125C336.83,383.611,336.738,383.907,336.718,383.887Z" transform="translate(-282.899 -327.148)" fill="#263238"/>
    </g>
    <g id="freepik--Character--inject-99" transform="translate(28.202 126.073)">
      <path id="Trazado_150305" data-name="Trazado 150305" d="M162.939,280.428s-10.2,38.79-23.905,46.074c-9.033,4.8-17.008-.927-22.353-10L97.352,285.392a7.232,7.232,0,0,1,4.6-8.77L118.068,271l16.055,28.619,20.545-24.983" transform="translate(-56.386 -197.898)" fill="#eb996e"/>
      <path id="Trazado_150306" data-name="Trazado 150306" d="M44.247,275.9c.355,2.525,6.713,21.085,6.713,21.085s28.849-8.159,28.547-9.592c-.25-1.164-4.76-19.651-10.782-30.072A14.773,14.773,0,0,0,57.718,249.9c-1.275-.145-4.109,1.039-4.891,1.427C46.686,254.4,41.5,256.4,44.247,275.9Z" transform="translate(-38.027 -190.667)" fill="#455a64"/>
      <path id="Trazado_150307" data-name="Trazado 150307" d="M86.632,246.6c11.078,3.083,11.578,8.12,17.127,17l8.738,15.91-14.556,9.277-2.669,5.983-1.44,51.452L35.18,345.93,45.7,304.281,41.5,276.93c-.388-4.313-1.63-12.373-.3-16.535,4.162-13,19.684-14.392,29.23-16.364a11.046,11.046,0,0,1,5.477.7" transform="translate(-35.18 -188.615)" fill="#455a64"/>
      <path id="Trazado_150308" data-name="Trazado 150308" d="M125.665,310.461a8.9,8.9,0,0,1-.039-1.315c0-.92,0-2.143.046-3.616V305.5h0a31.387,31.387,0,0,0,1.913-4.05,9.04,9.04,0,0,0,.487-5.22,29.575,29.575,0,0,0-2.295-5.26,16.279,16.279,0,0,1-1.315-4.6,15.7,15.7,0,0,1-.085-3.2,4.7,4.7,0,0,1,.105-.868.868.868,0,0,1,.072-.3,9.863,9.863,0,0,1,0,1.17,17.592,17.592,0,0,0,.2,3.156,16.489,16.489,0,0,0,1.361,4.471,29.766,29.766,0,0,1,2.341,5.325,9.257,9.257,0,0,1-.519,5.431,29.665,29.665,0,0,1-1.972,4.063v-.066c-.072,1.473-.125,2.7-.171,3.616A7.29,7.29,0,0,1,125.665,310.461Z" transform="translate(-65.719 -201.666)" fill="#263238"/>
      <path id="Trazado_150309" data-name="Trazado 150309" d="M102.066,244.452a1.532,1.532,0,0,1,.1.394,8.365,8.365,0,0,1,.131,1.164,10.7,10.7,0,0,1-.71,4.241,11.361,11.361,0,0,1-3.84,5.062,10.953,10.953,0,0,1-7.495,1.972,12.563,12.563,0,0,1-3.945-1.072,11.914,11.914,0,0,1-3.136-2.143,13.9,13.9,0,0,1-3.438-5.358,14.313,14.313,0,0,1-.822-4.221,9.2,9.2,0,0,1,0-1.17,1.552,1.552,0,0,1,.039-.4c.046,0,0,.559.092,1.565a15.4,15.4,0,0,0,.927,4.135,13.734,13.734,0,0,0,3.432,5.194,11.407,11.407,0,0,0,3.051,2.058,12.156,12.156,0,0,0,3.813,1.032,10.638,10.638,0,0,0,7.232-1.847,11.256,11.256,0,0,0,4.6-9.014C102.145,245.011,102.02,244.458,102.066,244.452Z" transform="translate(-50.153 -188.279)" fill="#263238"/>
      <path id="Trazado_150310" data-name="Trazado 150310" d="M142.533,290.75a11.836,11.836,0,0,1-1.736,1.078c-1.085.657-2.6,1.5-4.241,2.492s-3.11,1.92-4.175,2.59a11.381,11.381,0,0,1-1.762,1.032,10.616,10.616,0,0,1,1.617-1.256c1.026-.73,2.479-1.7,4.129-2.7s3.182-1.828,4.306-2.4a9.927,9.927,0,0,1,1.861-.842Z" transform="translate(-67.873 -204.663)" fill="#263238"/>
      <path id="Trazado_150311" data-name="Trazado 150311" d="M47.379,278.434s.039.118.112.348l.276,1.026,1.032,3.945c.874,3.419,2.124,8.3,3.642,14.208l-.191-.105,27.127-8.475.657-.243-.125.217a117.482,117.482,0,0,0-5.339-17.83,50.889,50.889,0,0,0-7.232-13.241,17.66,17.66,0,0,0-4.293-3.853A9.2,9.2,0,0,0,58.97,253a5.53,5.53,0,0,0-.842-.072l-.75.039a3.1,3.1,0,0,0-.657.046l-.513.112-.71.145a2.148,2.148,0,0,1-.243.039,1.072,1.072,0,0,1,.23-.079l.7-.178.519-.131c.2-.039.414-.039.657-.066l.756-.053a6.488,6.488,0,0,1,.855.046,9.328,9.328,0,0,1,4.168,1.4,17.672,17.672,0,0,1,4.365,3.846,49.218,49.218,0,0,1,7.383,13.281,116.621,116.621,0,0,1,5.391,17.883v.164l-.158.053-.657.243c-10.171,3.228-19.592,6.075-27.173,8.409l-.151.046-.039-.151c-1.466-5.917-2.669-10.815-3.517-14.24-.408-1.69-.723-3.018-.947-3.945l-.237-1.032a1.466,1.466,0,0,1-.026-.368Z" transform="translate(-39.358 -191.663)" fill="#263238"/>
      <path id="Trazado_150312" data-name="Trazado 150312" d="M81.027,302.778c0,.105-6.233,1.913-13.984,4.05S53,310.608,53,310.509s6.226-1.913,13.977-4.05S80.994,302.679,81.027,302.778Z" transform="translate(-41.284 -208.781)" fill="#263238"/>
      <path id="Trazado_150313" data-name="Trazado 150313" d="M74.348,172.176c-1.795-3.892-6.732-5.726-10.894-4.694s-7.449,4.431-9.2,8.33a31.152,31.152,0,0,0-2.255,12.571,33.394,33.394,0,0,1-.362,6.785,8.7,8.7,0,0,1-3.458,5.654c-1.5.973-3.34,1.262-4.951,2.038s-3.09,2.426-2.689,4.175c.473,2.084,3.09,2.709,5.214,2.926a6.824,6.824,0,0,0,11.242,5.01c-.657,2.63,1.663,5.339,4.333,5.654s5.26-1.354,6.745-3.616a15,15,0,0,0,2.018-7.712c.112-2.689-.079-5.411.184-8.041" transform="translate(-36.992 -162.341)" fill="#727997"/>
      <path id="Trazado_150314" data-name="Trazado 150314" d="M118.324,175.206s1.972-13.215-16.213-13.458c-20.342-.27-24.01,17.094-20.526,26.239L91.7,177.968Z" transform="translate(-50.678 -160.473)" fill="#727997"/>
      <path id="Trazado_150315" data-name="Trazado 150315" d="M102.127,222.158c.2-3.517.355-6.384.355-6.384s10.414.243,11.946-8.784,3.287-30.052,3.287-30.052h0a27.324,27.324,0,0,0-30.42.5l-.855.592-6.575,41.742A11.21,11.21,0,0,0,89.109,232.6h0a11.21,11.21,0,0,0,13.018-10.447Z" transform="translate(-50.438 -164.177)" fill="#ffbe9d"/>
      <path id="Trazado_150316" data-name="Trazado 150316" d="M130.675,202.9a1.144,1.144,0,1,1-1.006-1.315,1.157,1.157,0,0,1,1.006,1.315Z" transform="translate(-67.112 -174.118)" fill="#263238"/>
      <path id="Trazado_150317" data-name="Trazado 150317" d="M130.815,201.064c-.164.138-.92-.657-2.137-.888s-2.2.3-2.3.125.125-.342.559-.585a2.919,2.919,0,0,1,1.867-.289,2.958,2.958,0,0,1,1.67.9C130.808,200.7,130.894,201,130.815,201.064Z" transform="translate(-66.41 -173.365)" fill="#263238"/>
      <path id="Trazado_150318" data-name="Trazado 150318" d="M112.1,201.105a1.144,1.144,0,1,1-.427-1.115A1.144,1.144,0,0,1,112.1,201.105Z" transform="translate(-60.744 -173.492)" fill="#263238"/>
      <path id="Trazado_150319" data-name="Trazado 150319" d="M111.893,199.373c-.158.138-.92-.69-2.13-.888s-2.2.3-2.308.118c-.053-.079.131-.342.565-.579a2.913,2.913,0,0,1,1.867-.289,2.945,2.945,0,0,1,1.67.9C111.887,199.005,111.972,199.314,111.893,199.373Z" transform="translate(-59.935 -172.786)" fill="#263238"/>
      <path id="Trazado_150320" data-name="Trazado 150320" d="M116.6,208.922a7.626,7.626,0,0,1,2.018.145c.316.046.618.059.723-.151a1.887,1.887,0,0,0,0-1.019c-.1-.868-.2-1.775-.3-2.728a47.512,47.512,0,0,1-.44-7.048,47.464,47.464,0,0,1,.973,6.989c.085.953.171,1.861.25,2.728a2.071,2.071,0,0,1-.151,1.315.789.789,0,0,1-.611.342,2.091,2.091,0,0,1-.533-.059A7.311,7.311,0,0,1,116.6,208.922Z" transform="translate(-63.07 -172.933)" fill="#263238"/>
      <path id="Trazado_150321" data-name="Trazado 150321" d="M108.505,235.505a21.893,21.893,0,0,1-11.3-5.345s2.209,7.179,11.131,7.771Z" transform="translate(-56.428 -183.908)" fill="#eb996e"/>
      <path id="Trazado_150322" data-name="Trazado 150322" d="M112.882,218.86a2.406,2.406,0,0,0-1.19-1.92,1.907,1.907,0,0,0-1.578-.171,1.374,1.374,0,0,0-.894,1.249,1.578,1.578,0,0,0,1.111,1.315,4.378,4.378,0,0,0,1.828.105,1.315,1.315,0,0,0,.493-.112.447.447,0,0,0,.25-.408" transform="translate(-60.542 -179.288)" fill="#eb996e"/>
      <path id="Trazado_150323" data-name="Trazado 150323" d="M110.585,215c-.085,0-.283.3-.316.9a3.287,3.287,0,0,0,2.742,3.34c.6.085.953-.046.947-.138,0-.2-1.407-.276-2.387-1.473S110.782,215.033,110.585,215Z" transform="translate(-60.901 -178.715)" fill="#263238"/>
      <path id="Trazado_150324" data-name="Trazado 150324" d="M84.448,198.545c-.138-.1-5.181-2.275-6.621,3.662s5.45,5.332,5.5,5.161S84.448,198.545,84.448,198.545Z" transform="translate(-49.721 -172.918)" fill="#ffbe9d"/>
      <path id="Trazado_150325" data-name="Trazado 150325" d="M82.891,205.833a2.282,2.282,0,0,1-.335.085,1.2,1.2,0,0,1-.828-.158,2.5,2.5,0,0,1-.71-2.564,3.327,3.327,0,0,1,.657-1.414,1.315,1.315,0,0,1,1.026-.618.579.579,0,0,1,.585.421.623.623,0,0,1,0,.316c0,.02.158-.072.171-.329a.657.657,0,0,0-.164-.421.868.868,0,0,0-.572-.283,1.637,1.637,0,0,0-1.381.657,3.557,3.557,0,0,0-.789,1.571A2.646,2.646,0,0,0,81.543,206a1.315,1.315,0,0,0,1.052.059C82.845,205.971,82.911,205.846,82.891,205.833Z" transform="translate(-50.696 -173.874)" fill="#eb996e"/>
      <path id="Trazado_150326" data-name="Trazado 150326" d="M118.144,170.308a6.239,6.239,0,0,1,2.327,6.818c-.894,2.84-3.544,5.917-10.907,5.818l1.677-1.861a13,13,0,0,1-11.795,2.064l2.064-4s-9.31,9.868-14.51,10.3l.657-10.519C88.913,169,93.167,166.021,99.6,165.489a33.294,33.294,0,0,1,7.179.125A24.641,24.641,0,0,1,118.144,170.308Z" transform="translate(-52.931 -161.708)" fill="#727997"/>
      <path id="Trazado_150327" data-name="Trazado 150327" d="M79,159.81a4.28,4.28,0,0,1,1.374.6,11.834,11.834,0,0,1,4.806,5.325,4.32,4.32,0,0,1,.46,1.427,20.758,20.758,0,0,0-2.735-4.208A25.13,25.13,0,0,0,79,159.81Z" transform="translate(-50.19 -159.81)" fill="#727997"/>
      <path id="Trazado_150328" data-name="Trazado 150328" d="M48.1,197.658a2.276,2.276,0,0,0-.408-.309,2.485,2.485,0,0,0-1.394-.355,2.63,2.63,0,0,0-1.972.966A2.991,2.991,0,0,0,44,200.82a3.458,3.458,0,0,0,2.742,2.1,4.806,4.806,0,0,0,3.905-1.151,7.068,7.068,0,0,0,2.373-3.945,5.786,5.786,0,0,0,0-2.446,11.006,11.006,0,0,0-.881-2.413c-.368-.8-.763-1.578-1.072-2.4a10.019,10.019,0,0,1-.585-2.511,12.1,12.1,0,0,1,.559-4.813,16.18,16.18,0,0,1,4.451-6.8,29.769,29.769,0,0,1,4.339-3.366c.546-.348.98-.611,1.275-.782a3.169,3.169,0,0,1,.46-.243,2.471,2.471,0,0,1-.421.309l-1.229.842a32.684,32.684,0,0,0-4.254,3.419,16.344,16.344,0,0,0-4.306,6.713A11.933,11.933,0,0,0,50.841,188a10.519,10.519,0,0,0,.565,2.419c.3.8.7,1.565,1.072,2.373a11.3,11.3,0,0,1,.9,2.492,6.173,6.173,0,0,1,0,2.6,7.4,7.4,0,0,1-2.525,4.129,5.108,5.108,0,0,1-4.175,1.19,3.721,3.721,0,0,1-2.945-2.334,3.228,3.228,0,0,1,.4-3.083,2.748,2.748,0,0,1,2.15-.98,2.432,2.432,0,0,1,1.433.434,1.426,1.426,0,0,1,.381.421Z" transform="translate(-38.034 -164.003)" fill="#727997"/>
      <path id="Trazado_150329" data-name="Trazado 150329" d="M86.48,176.828a2.781,2.781,0,0,1-.368-1.164,7.594,7.594,0,0,1,.112-2.939,7.508,7.508,0,0,1,1.21-2.682c.447-.611.815-.907.842-.874a10.455,10.455,0,0,0-1.683,3.642A14.378,14.378,0,0,0,86.48,176.828Z" transform="translate(-52.594 -163.015)" fill="#263238"/>
      <path id="Trazado_150330" data-name="Trazado 150330" d="M77.853,210a2.88,2.88,0,0,0-.789,1.118,1.808,1.808,0,0,0,.118,1.381,1.887,1.887,0,0,0,1.427.881,1.972,1.972,0,0,0,1.617-.473,1.815,1.815,0,0,0,.533-1.282,2.63,2.63,0,0,0-.421-1.315.813.813,0,0,1,.309.256,1.821,1.821,0,0,1,.381,1.026,2.058,2.058,0,0,1-.552,1.545,2.288,2.288,0,0,1-1.92.6,2.183,2.183,0,0,1-1.663-1.045,2.032,2.032,0,0,1-.059-1.644,1.894,1.894,0,0,1,.657-.868A1.078,1.078,0,0,1,77.853,210Z" transform="translate(-49.399 -177.002)" fill="#455a64"/>
      <path id="Trazado_150331" data-name="Trazado 150331" d="M135.985,179.431c-.072,0,.217-1.012.224-2.63a11.749,11.749,0,0,0-6.2-10.473c-1.44-.782-2.459-1.006-2.439-1.078a2.228,2.228,0,0,1,.717.131,10.1,10.1,0,0,1,1.847.71,11.427,11.427,0,0,1,6.344,10.717,10.519,10.519,0,0,1-.263,1.972A2.5,2.5,0,0,1,135.985,179.431Z" transform="translate(-66.828 -161.673)" fill="#727997"/>
      <path id="Trazado_150332" data-name="Trazado 150332" d="M112.228,195.934c-.039.046-.289-.191-.743-.467a4.6,4.6,0,0,0-1.92-.657,4.529,4.529,0,0,0-2.018.256c-.506.178-.8.355-.828.3s.217-.3.723-.552a3.945,3.945,0,0,1,2.163-.388,4.057,4.057,0,0,1,2.038.822C112.083,195.606,112.267,195.908,112.228,195.934Z" transform="translate(-59.684 -171.661)" fill="#727997"/>
      <path id="Trazado_150333" data-name="Trazado 150333" d="M130.3,198.183a7.35,7.35,0,0,1-2.354,0,7.442,7.442,0,0,1-2.321-.362,15.268,15.268,0,0,1,4.674.362Z" transform="translate(-66.163 -172.798)" fill="#727997"/>
      <path id="Trazado_150334" data-name="Trazado 150334" d="M193.108,281.191s3.728-8.856-1.315-7.889c-7.725,1.473-6.575,8.987-6.575,8.987Z" transform="translate(-86.554 -198.661)" fill="#eb996e"/>
      <path id="Trazado_150335" data-name="Trazado 150335" d="M194.256,224.013a6.824,6.824,0,0,0-2.018-.388c4.195,3.116,5.332,11.137,2.393,19.237-2.867,7.889-8.665,13.274-13.807,13.235l-.408-.105c-4.083-3.189-5.161-11.111-2.262-19.119s8.876-13.478,14.076-13.248a6.91,6.91,0,0,0-1.729-.947c-5.562-2.025-12.794,3.734-16.081,12.86-3.215,8.862-1.545,17.62,3.675,19.967h-.105l-10.283,26.3a2.264,2.264,0,0,0,4.214,1.657l10.388-26.4h0c5.582,2.018,12.787-3.734,16.094-12.86S199.838,226.038,194.256,224.013Z" transform="translate(-80.523 -181.207)" fill="#263238"/>
      <path id="Trazado_150336" data-name="Trazado 150336" d="M201.11,250.327a3.687,3.687,0,0,1,.316-.8l.96-2.124a37.423,37.423,0,0,0,2.538-7.232,16.831,16.831,0,0,0,0-7.548,21.039,21.039,0,0,0-1.091-2.972,2.978,2.978,0,0,1,.473.723,10.579,10.579,0,0,1,.874,2.176,16.029,16.029,0,0,1,.112,7.7,32.651,32.651,0,0,1-2.663,7.232c-.44.881-.809,1.591-1.072,2.071A3.36,3.36,0,0,1,201.11,250.327Z" transform="translate(-92.019 -183.733)" fill="#263238"/>
      <path id="Trazado_150337" data-name="Trazado 150337" d="M198.581,264.295c.072.079-.243.519-.717.986s-.907.782-.98.71.243-.513.717-.98S198.509,264.222,198.581,264.295Z" transform="translate(-90.568 -195.597)" fill="#263238"/>
      <path id="Trazado_150338" data-name="Trazado 150338" d="M178.183,276.246c-.8-1.506-1.723-3.583-3.123-4.556s-3.346-2.1-4.99-.657a106.191,106.191,0,0,1,5.74,9.152Z" transform="translate(-81.386 -197.674)" fill="#eb996e"/>
      <path id="Trazado_150339" data-name="Trazado 150339" d="M192.757,274.658s-.309-1.749-2.873-.98-10.6,2.446-9.047,4.155,4.293.94,4.293.94-4.464.966-4.037,1.9,1.17,2.551,3.07,1.538a69.389,69.389,0,0,1,7.173-2.728Z" transform="translate(-85.007 -198.748)" fill="#eb996e"/>
      <path id="Trazado_150340" data-name="Trazado 150340" d="M193.437,280.389v-.44a.894.894,0,0,0-.6-.815,3.287,3.287,0,0,0-1.677.25l-2.137.572c-1.519.4-2.9.736-3.905.96a7.6,7.6,0,0,1-1.644.3,7.344,7.344,0,0,1,1.578-.552c.986-.3,2.354-.657,3.872-1.065l2.143-.546a3.288,3.288,0,0,1,1.861-.171,1.072,1.072,0,0,1,.657,1.078C193.562,280.251,193.45,280.4,193.437,280.389Z" transform="translate(-85.976 -200.574)" fill="#263238"/>
      <path id="Trazado_150341" data-name="Trazado 150341" d="M82.621,301.026l7.758,14.385,38.514-19.395s5.667-10.887,6.607-10.749a48.09,48.09,0,0,1,5.108,1.933s5.917-3.2,7.193-2.327,3,11.387,1.88,14.641-12.814,9.809-12.814,9.809-31.558,20.723-45.279,28c-9.033,4.8-17-.927-22.353-10L60.11,308.015" transform="translate(-43.72 -202.598)" fill="#ffbe9d"/>
    </g>
  </g>
</svg>
