<svg xmlns="http://www.w3.org/2000/svg" width="318.907" height="247.361" viewBox="0 0 318.907 247.361">
  <g id="Judge-pana" transform="translate(-23.92 -44.67)">
    <g id="freepik--background-complete--inject-101" transform="translate(41.192 44.67)">
      <path id="Trazado_150466" data-name="Trazado 150466" d="M389.785,117.44s70.584,169.888,59.29,185.692-59.806,3.9-59.806,3.9Z" transform="translate(-148.664 -66.076)" fill="#f5f5f5"/>
      <rect id="Rectángulo_33439" data-name="Rectángulo 33439" width="4.524" height="194.479" transform="translate(237.472 49.19)" fill="#fafafa"/>
      <ellipse id="Elipse_4698" data-name="Elipse 4698" cx="6.381" cy="6.522" rx="6.381" ry="6.522" transform="translate(233.357 38.313)" fill="#fafafa"/>
      <path id="Trazado_150467" data-name="Trazado 150467" d="M390.293,119.393h-9.825A1.468,1.468,0,0,1,379,117.925h0a1.468,1.468,0,0,1,1.468-1.475h9.825a1.475,1.475,0,0,1,1.475,1.475h0a1.475,1.475,0,0,1-1.475,1.468Z" transform="translate(-145.643 -65.785)" fill="#fafafa"/>
      <path id="Trazado_150468" data-name="Trazado 150468" d="M427.451,224.609l2.336,6.48L423.223,229l-5.435,4.221-.042-6.882-5.7-3.868,6.536-2.167,1.913-6.614,4.087,5.548.9.191Z" transform="translate(-155.365 -94.389)" fill="#fafafa"/>
      <path id="Trazado_150469" data-name="Trazado 150469" d="M448.511,282.7l2.336,6.48-6.557-2.089-5.442,4.221-.042-6.882-5.7-3.868,6.536-2.167,1.92-6.614,4.08,5.541.9.2Z" transform="translate(-161.56 -111.477)" fill="#fafafa"/>
      <path id="Trazado_150470" data-name="Trazado 150470" d="M328.915,66.27s82.477,198.58,69.313,217.052-69.878,4.56-69.878,4.56Z" transform="translate(-130.744 -51.024)" fill="#ebebeb"/>
      <rect id="Rectángulo_33440" data-name="Rectángulo 33440" width="5.287" height="227.315" transform="translate(193.886 12.712)" fill="#f5f5f5"/>
      <ellipse id="Elipse_4699" data-name="Elipse 4699" cx="7.461" cy="7.623" rx="7.461" ry="7.623" transform="translate(189.073)" fill="#f5f5f5"/>
      <rect id="Rectángulo_33441" data-name="Rectángulo 33441" width="14.914" height="3.444" rx="1.722" transform="translate(189.073 14.434)" fill="#f5f5f5"/>
      <path id="Trazado_150471" data-name="Trazado 150471" d="M330.567,230.276s23.589,7.355,32.356,4.524,10.3-8.661,10.3-8.661l6.049,17.06s-4.75,10.206-19.248,8.47c-12.867-1.525-29.462-7.764-29.462-7.764Z" transform="translate(-131.394 -98.052)" fill="#f5f5f5"/>
      <path id="Trazado_150472" data-name="Trazado 150472" d="M372.9,191.542l2.725,7.574-7.665-2.442-6.353,4.934-.056-8.047-6.656-4.517,7.637-2.534,2.245-7.729,4.771,6.48,1.059.233Z" transform="translate(-138.551 -84.12)" fill="#f5f5f5"/>
      <rect id="Rectángulo_33442" data-name="Rectángulo 33442" width="85.992" height="89.634" transform="translate(5.823 11.491)" fill="#e0e0e0"/>
      <rect id="Rectángulo_33443" data-name="Rectángulo 33443" width="85.992" height="89.634" transform="translate(0 11.491)" fill="#ebebeb"/>
      <rect id="Rectángulo_33444" data-name="Rectángulo 33444" width="62.869" height="65.537" transform="translate(11.562 23.54)" fill="#fafafa"/>
      <path id="Trazado_150473" data-name="Trazado 150473" d="M59.987,171.49a12.317,12.317,0,0,1-1.574,1.772c-1.009,1.052-2.421,2.485-4,4.037s-3.035,2.95-4.1,3.946a11.215,11.215,0,0,1-1.8,1.532,12.374,12.374,0,0,1,1.567-1.75c1.009-1.059,2.428-2.492,4.016-4.052s3.035-2.957,4.1-3.946a11.293,11.293,0,0,1,1.793-1.539Z" transform="translate(-48.425 -81.976)" fill="#e0e0e0"/>
      <path id="Trazado_150474" data-name="Trazado 150474" d="M153.84,171.26a12.092,12.092,0,0,1,1.779,1.574c1.059,1.009,2.485,2.421,4.044,4s2.95,3.035,3.946,4.1a11.215,11.215,0,0,1,1.532,1.8,12.375,12.375,0,0,1-1.772-1.567c-1.059-1.009-2.492-2.428-4.052-4.009s-2.957-3.042-3.946-4.108A11.293,11.293,0,0,1,153.84,171.26Z" transform="translate(-79.409 -81.908)" fill="#e0e0e0"/>
      <path id="Trazado_150475" data-name="Trazado 150475" d="M153.6,73.56a11.731,11.731,0,0,1,1.567-1.779c1.009-1.059,2.428-2.485,4.009-4.044s3.028-2.95,4.1-3.939a12.162,12.162,0,0,1,1.793-1.539,11.294,11.294,0,0,1-1.56,1.779c-1.009,1.052-2.428,2.485-4.016,4.044s-3.042,2.957-4.108,3.953A11.618,11.618,0,0,1,153.6,73.56Z" transform="translate(-79.339 -49.844)" fill="#e0e0e0"/>
      <path id="Trazado_150476" data-name="Trazado 150476" d="M59.81,73.72a12.091,12.091,0,0,1-1.779-1.574c-1.052-1.009-2.485-2.421-4.044-4s-2.95-3.035-3.939-4.1A12.162,12.162,0,0,1,48.51,62.25a10.919,10.919,0,0,1,1.758,1.56c1.052,1.009,2.485,2.428,4.052,4.016s3.007,3.035,3.967,4.129A11.823,11.823,0,0,1,59.81,73.72Z" transform="translate(-48.425 -49.841)" fill="#e0e0e0"/>
      <path id="Trazado_150477" data-name="Trazado 150477" d="M127.4,143.416v-4.757c0-3.1,0-7.616-.056-13.354,0-11.477-.056-27.838-.1-47.425l.2.212H64.753l.176-.226V143.4l-.2-.2,45.407.1,12.747.056h4.546a2.118,2.118,0,0,1-.282,0H122.97l-12.705.056-45.541.1h-.2V77.54h63.144v.325c-.042,19.643-.078,36.047-.106,47.559,0,5.717-.042,10.213-.056,13.305v4.383A.492.492,0,0,1,127.4,143.416Z" transform="translate(-53.135 -54.339)" fill="#e0e0e0"/>
      <rect id="Rectángulo_33445" data-name="Rectángulo 33445" width="2.576" height="11.505" transform="translate(42.548 42.943)" fill="#ebebeb"/>
      <path id="Trazado_150478" data-name="Trazado 150478" d="M120.526,102.161H83.541a.791.791,0,0,1-.791-.791h0a.791.791,0,0,1,.791-.791h36.986a.791.791,0,0,1,.791.791h0a.791.791,0,0,1-.791.791Z" transform="translate(-58.497 -61.117)" fill="#ebebeb"/>
      <path id="Trazado_150479" data-name="Trazado 150479" d="M127.83,122.252a2.964,2.964,0,0,1,.106-.36c.085-.282.2-.642.353-1.087.325-1,.783-2.379,1.355-4.1,1.193-3.529,2.823-8.47,4.764-14.173l.169-.5.169.5c.706,2.019,1.412,4.164,2.2,6.353,1.666,4.87,3.219,9.43,4.539,13.291l.071.212h-.191l-9.882-.085-2.717-.042h-.706a1.2,1.2,0,0,1-.226,0h.974l2.76-.042,9.733-.085-.155.2c-1.327-3.854-2.9-8.407-4.581-13.27-.755-2.216-1.5-4.369-2.188-6.353h.339c-1.962,5.6-3.663,10.468-4.891,13.976-.614,1.729-1.108,3.12-1.468,4.122-.162.459-.3.826-.4,1.115q-.053.165-.12.325Z" transform="translate(-71.758 -61.543)" fill="#e0e0e0"/>
      <path id="Trazado_150480" data-name="Trazado 150480" d="M73.985,122.252a1.461,1.461,0,0,1,.1-.36c.092-.282.212-.642.353-1.087.332-1,.791-2.379,1.355-4.1l4.771-14.173.169-.5.169.5c.706,2.019,1.412,4.164,2.2,6.353,1.659,4.87,3.219,9.43,4.531,13.291l.078.212h-.226L77.6,122.3l-2.717-.042h-.706a1.2,1.2,0,0,1-.226,0h.967l2.767-.042,9.726-.085-.148.2c-1.327-3.854-2.9-8.407-4.581-13.27-.762-2.216-1.5-4.369-2.188-6.353h.339c-1.962,5.6-3.663,10.468-4.9,13.976l-1.461,4.122c-.169.459-.3.826-.4,1.115S73.985,122.245,73.985,122.252Z" transform="translate(-55.909 -61.543)" fill="#e0e0e0"/>
      <path id="Trazado_150481" data-name="Trazado 150481" d="M116.079,147.232v.184a.988.988,0,0,1-.988.988H98.355a1,1,0,0,1-1-.988h0a1,1,0,0,1,1-1H115.3A.8.8,0,0,1,116.079,147.232Z" transform="translate(-62.795 -74.601)" fill="#e0e0e0"/>
      <path id="Trazado_150482" data-name="Trazado 150482" d="M111.5,138.935a2.936,2.936,0,0,1-.353.522h-3.579c-2.823-3.324,0-16.707,0-16.707h3.579S113.743,134.926,111.5,138.935Z" transform="translate(-65.429 -67.638)" fill="#ebebeb"/>
      <path id="Trazado_150483" data-name="Trazado 150483" d="M113.95,144.585h0a.988.988,0,0,1-.988.988h-9.374a.988.988,0,0,1-.988-.988h0a1,1,0,0,1,.988-1h9.395A1,1,0,0,1,113.95,144.585Z" transform="translate(-64.337 -73.769)" fill="#e0e0e0"/>
      <path id="Trazado_150484" data-name="Trazado 150484" d="M87.511,130.267a.233.233,0,0,1,.184.374,9.684,9.684,0,0,1-14.117,0,.233.233,0,0,1,.184-.381Z" transform="translate(-55.784 -69.847)" fill="#e0e0e0"/>
      <path id="Trazado_150485" data-name="Trazado 150485" d="M141.508,130.644a9.028,9.028,0,0,1-7.058,3.063,10.241,10.241,0,0,1-3.233-.508h0a8.061,8.061,0,0,1-3.819-2.548.233.233,0,0,1,.176-.381h13.764a.233.233,0,0,1,.169.374Z" transform="translate(-71.615 -69.85)" fill="#e0e0e0"/>
      <path id="Trazado_150486" data-name="Trazado 150486" d="M112.328,120.607a2.894,2.894,0,1,1-2.887-2.887,2.894,2.894,0,0,1,2.887,2.887Z" transform="translate(-65.496 -66.159)" fill="#e0e0e0"/>
      <path id="Trazado_150487" data-name="Trazado 150487" d="M113.27,100.378A4.475,4.475,0,1,1,108.8,95.91a4.475,4.475,0,0,1,4.468,4.468Z" transform="translate(-64.842 -59.743)" fill="#e0e0e0"/>
      <rect id="Rectángulo_33446" data-name="Rectángulo 33446" width="21.712" height="3.932" transform="translate(32.948 73.887)" fill="#e0e0e0"/>
    </g>
    <g id="freepik--Character--inject-101" transform="translate(53.332 89.042)">
      <path id="Trazado_150488" data-name="Trazado 150488" d="M254.907,112.8c-5.647-1.722-11.533,3.332-17.328,2.2-3.529-.706-6.169-3.529-9.3-5.251-4.68-2.612-11.293-3.035-16.079-.607s-7.856,5.019-8.505,10.341c-4.355-2.5-11.611,2.979-14.081,8.265s-1.856,10.743-.452,16.4a76.866,76.866,0,0,0,12.705,27.1c.529.706,1.369,1.51,2.174,1.136a1.962,1.962,0,0,0,.84-1.567c.826-5.174.169-10.461-.275-15.684s-.706-10.588.981-15.592,5.548-9.522,10.693-10.538c3.8-.748,7.764.487,11.124,2.386s6.353,4.433,9.564,6.593,6.832,3.974,10.7,4.143,8.025-1.659,9.67-5.16-.2-8.47-3.988-9.3a7.616,7.616,0,0,0,1.56-14.865Z" transform="translate(-101.578 -107.535)" fill="#263238"/>
      <path id="Trazado_150489" data-name="Trazado 150489" d="M241.288,206.694l-.551-11.209s14.773-2.823,14.434-17.681c-.162-7.171-1.7-21.881-3.247-35.242a27.683,27.683,0,0,0-28.473-24.478l-1.412.049c-15.415,1.412-22.8,15.345-20.928,30.711l3.529,59.834a18.352,18.352,0,0,0,19.291,17.237h0A18.352,18.352,0,0,0,241.288,206.694Z" transform="translate(-105.371 -110.632)" fill="#ffbe9d"/>
      <path id="Trazado_150490" data-name="Trazado 150490" d="M249.252,225.731A34.541,34.541,0,0,1,229.7,220.91s4.941,10.524,19.721,8.668Z" transform="translate(-113.865 -140.885)" fill="#eb996e"/>
      <path id="Trazado_150491" data-name="Trazado 150491" d="M262.637,168.6a2.118,2.118,0,0,1-1.976,2.209,2.033,2.033,0,0,1-2.252-1.835,2.118,2.118,0,0,1,1.969-2.209,2.04,2.04,0,0,1,2.259,1.835Z" transform="translate(-122.309 -124.954)" fill="#263238"/>
      <path id="Trazado_150492" data-name="Trazado 150492" d="M264.184,162.37c-.254.289-1.906-.847-4.186-.762s-3.91,1.292-4.171,1.016c-.127-.12.127-.628.833-1.186a5.858,5.858,0,0,1,3.332-1.151,5.555,5.555,0,0,1,3.339.953C264.05,161.749,264.3,162.243,264.184,162.37Z" transform="translate(-121.541 -123.051)" fill="#263238"/>
      <path id="Trazado_150493" data-name="Trazado 150493" d="M231.8,170.56a2.117,2.117,0,0,1-1.969,2.209,2.04,2.04,0,0,1-2.259-1.835,2.118,2.118,0,0,1,1.969-2.209,2.033,2.033,0,0,1,2.259,1.835Z" transform="translate(-113.237 -125.53)" fill="#263238"/>
      <path id="Trazado_150494" data-name="Trazado 150494" d="M233.807,164.061c-.254.282-1.9-.847-4.179-.762s-3.917,1.285-4.172,1.016c-.127-.12.12-.628.833-1.186a5.83,5.83,0,0,1,3.324-1.151,5.647,5.647,0,0,1,3.346.946C233.68,163.439,233.934,163.934,233.807,164.061Z" transform="translate(-112.607 -123.549)" fill="#263238"/>
      <path id="Trazado_150495" data-name="Trazado 150495" d="M249.156,180.582a15.8,15.8,0,0,1,3.677-.8c.586-.078,1.129-.219,1.214-.614a2.95,2.95,0,0,0-.452-1.715q-.889-2.118-1.878-4.376c-2.612-6.233-4.524-11.364-4.277-11.47s2.576,4.863,5.195,11.1q.939,2.308,1.807,4.4a3.4,3.4,0,0,1,.381,2.28,1.461,1.461,0,0,1-.932.882,3.959,3.959,0,0,1-.981.176A14.935,14.935,0,0,1,249.156,180.582Z" transform="translate(-119.077 -123.441)" fill="#263238"/>
      <path id="Trazado_150496" data-name="Trazado 150496" d="M233.233,157.507c-.219.621-2.5.353-5.174.706s-4.835,1.108-5.195.558c-.162-.268.212-.854,1.073-1.468a9.1,9.1,0,0,1,7.905-.96C232.831,156.731,233.332,157.211,233.233,157.507Z" transform="translate(-111.843 -121.746)" fill="#263238"/>
      <path id="Trazado_150497" data-name="Trazado 150497" d="M265.063,157.211c-.459.466-1.955-.254-3.833-.508s-3.529-.064-3.811-.649c-.127-.282.184-.762.939-1.172a5.647,5.647,0,0,1,6.155.932C265.112,156.421,265.267,156.979,265.063,157.211Z" transform="translate(-122.01 -121.309)" fill="#263238"/>
      <path id="Trazado_150498" data-name="Trazado 150498" d="M199.434,177.04c-.254-.1-10.305-2.661-9.628,7.482s10.722,7.362,10.722,7.058S199.434,177.04,199.434,177.04Z" transform="translate(-102.12 -127.875)" fill="#ffbe9d"/>
      <path id="Trazado_150499" data-name="Trazado 150499" d="M198.253,189.379c-.042,0-.169.134-.459.289a1.743,1.743,0,0,1-1.313.12c-1.1-.325-2.118-1.962-2.287-3.79a5.837,5.837,0,0,1,.325-2.562,2.033,2.033,0,0,1,1.235-1.412.911.911,0,0,1,1.08.409c.155.275.1.48.155.494s.2-.184.1-.593a1.158,1.158,0,0,0-.445-.614,1.369,1.369,0,0,0-1-.191,2.484,2.484,0,0,0-1.736,1.694,6.063,6.063,0,0,0-.424,2.873c.2,2.04,1.376,3.875,2.873,4.235a1.906,1.906,0,0,0,1.6-.381C198.253,189.619,198.3,189.393,198.253,189.379Z" transform="translate(-103.205 -129.294)" fill="#eb996e"/>
      <path id="Trazado_150500" data-name="Trazado 150500" d="M254.264,138.3a21.436,21.436,0,0,1-19.206-3.621c-3.72-2.936-6.656-7.242-11.237-8.47a12.1,12.1,0,0,0-9.176,1.588,23.236,23.236,0,0,0-6.762,6.67c3.127,7.447,1.5,15.938-.184,23.836a4.052,4.052,0,0,1-1.094,2.386c-1.172.967-2.993.3-4.08-.755-1.736-1.694-2.47-4.143-2.986-6.522a41.751,41.751,0,0,1-.48-16.467,28.473,28.473,0,0,1,7.312-14.625,26.956,26.956,0,0,1,18.641-7.764,33.1,33.1,0,0,1,19.418,6.19,19.329,19.329,0,0,1,6.487,6.96" transform="translate(-104.676 -109.601)" fill="#263238"/>
      <path id="Trazado_150501" data-name="Trazado 150501" d="M266.5,118.511a2.217,2.217,0,0,1-.056.882,4.15,4.15,0,0,1-1.348,2.118,6.473,6.473,0,0,1-3.748,1.412,10.588,10.588,0,0,1-2.527-.071,5.329,5.329,0,0,1-2.626-1.108,3.586,3.586,0,0,1-1.369-2.823,3.148,3.148,0,0,1,2.068-2.668,3.833,3.833,0,0,1,1.814-.3,3.268,3.268,0,0,1,1.772.706,4.644,4.644,0,0,1,1.638,3.494,5.357,5.357,0,0,1-1.468,3.783,8.16,8.16,0,0,1-3.607,2.216,13.364,13.364,0,0,1-8.71-.642,38.257,38.257,0,0,1-7.665-4.235,48.7,48.7,0,0,0-6.96-4.108,15.1,15.1,0,0,0-7.058-1.454,14.392,14.392,0,0,0-6.014,1.772,18.02,18.02,0,0,0-6.522,6.353,23.762,23.762,0,0,0-1.214,2.2,8,8,0,0,1-.4.783.594.594,0,0,1,.064-.212c.064-.141.12-.346.24-.614a19.061,19.061,0,0,1,1.136-2.259,17.794,17.794,0,0,1,6.515-6.571,14.766,14.766,0,0,1,6.169-1.878,15.437,15.437,0,0,1,7.249,1.412,48.6,48.6,0,0,1,7.058,4.122,38.384,38.384,0,0,0,7.574,4.2,12.915,12.915,0,0,0,8.378.635,7.651,7.651,0,0,0,3.4-2.068,4.891,4.891,0,0,0,1.362-3.444,4.179,4.179,0,0,0-1.447-3.162,3.049,3.049,0,0,0-3.155-.381A2.732,2.732,0,0,0,255.2,118.9a3.24,3.24,0,0,0,1.214,2.534,5.1,5.1,0,0,0,2.449,1.066,10.736,10.736,0,0,0,2.449.1,6.289,6.289,0,0,0,3.642-1.263,4.235,4.235,0,0,0,1.376-2.019A7.163,7.163,0,0,0,266.5,118.511Z" transform="translate(-108.805 -109.811)" fill="#455a64"/>
      <path id="Trazado_150502" data-name="Trazado 150502" d="M188.18,144.01a16.3,16.3,0,0,0,3.127.706,8.745,8.745,0,0,0,3.388-.473,14.823,14.823,0,0,0,3.741-1.962,11.879,11.879,0,0,0,4.313-6.211,24.817,24.817,0,0,0,.565-3.169,2.682,2.682,0,0,1,.085.882,10.22,10.22,0,0,1-.3,2.379,11.6,11.6,0,0,1-4.362,6.522,13.9,13.9,0,0,1-3.9,2,8.533,8.533,0,0,1-3.529.388,7.948,7.948,0,0,1-2.329-.621A2.406,2.406,0,0,1,188.18,144.01Z" transform="translate(-101.651 -114.996)" fill="#455a64"/>
      <path id="Trazado_150503" data-name="Trazado 150503" d="M189.17,154.332c0-.092,1.207.127,3.12-.049a13.933,13.933,0,0,0,11.583-8.223c.791-1.75.967-2.95,1.059-2.929a2.646,2.646,0,0,1-.078.847,11.632,11.632,0,0,1-.656,2.223,13.411,13.411,0,0,1-11.872,8.47,11.343,11.343,0,0,1-2.315-.113A2.612,2.612,0,0,1,189.17,154.332Z" transform="translate(-101.942 -118.005)" fill="#455a64"/>
      <path id="Trazado_150504" data-name="Trazado 150504" d="M226.912,178.814a.268.268,0,0,1-.311-.212.254.254,0,1,1,.487-.113.261.261,0,0,1-.176.325Z" transform="translate(-112.947 -128.336)" fill="#eb996e"/>
      <path id="Trazado_150505" data-name="Trazado 150505" d="M232.976,177.173a.325.325,0,1,1,.176-.367.3.3,0,0,1-.176.367Z" transform="translate(-114.692 -127.838)" fill="#eb996e"/>
      <path id="Trazado_150506" data-name="Trazado 150506" d="M237.194,176.841c-.141,0-.282-.141-.318-.367s.049-.424.184-.445.275.141.318.367S237.328,176.82,237.194,176.841Z" transform="translate(-115.973 -127.683)" fill="#eb996e"/>
      <path id="Trazado_150507" data-name="Trazado 150507" d="M230.111,182.684c-.141,0-.254-.064-.261-.155s.106-.162.247-.169.254.064.261.155S230.245,182.677,230.111,182.684Z" transform="translate(-113.909 -129.545)" fill="#eb996e"/>
      <path id="Trazado_150508" data-name="Trazado 150508" d="M235.688,181.073a.289.289,0,1,1,.212-.318A.275.275,0,0,1,235.688,181.073Z" transform="translate(-115.519 -128.999)" fill="#eb996e"/>
      <path id="Trazado_150509" data-name="Trazado 150509" d="M265.073,176.526a.8.8,0,1,1-.007.021Z" transform="translate(-124.188 -127.672)" fill="#eb996e"/>
      <path id="Trazado_150510" data-name="Trazado 150510" d="M269.264,175.958a.309.309,0,0,1-.3-.282.3.3,0,0,1,.212-.346.3.3,0,0,1,.289.282.3.3,0,0,1-.2.346Z" transform="translate(-125.414 -127.477)" fill="#eb996e"/>
      <path id="Trazado_150511" data-name="Trazado 150511" d="M261.356,176.821a.24.24,0,0,1-.3-.155.254.254,0,0,1,.487-.12A.24.24,0,0,1,261.356,176.821Z" transform="translate(-123.089 -127.79)" fill="#eb996e"/>
      <path id="Trazado_150512" data-name="Trazado 150512" d="M264.579,180.864a.275.275,0,0,1-.353-.155.268.268,0,0,1,.106-.367.289.289,0,0,1,.247.522Z" transform="translate(-124.011 -128.945)" fill="#eb996e"/>
      <path id="Trazado_150513" data-name="Trazado 150513" d="M268.233,180.064a.212.212,0,1,1,.219-.048A.212.212,0,0,1,268.233,180.064Z" transform="translate(-125.146 -128.746)" fill="#eb996e"/>
      <path id="Trazado_150514" data-name="Trazado 150514" d="M247.274,199.109a10.37,10.37,0,0,1-.8,2.859,3.529,3.529,0,0,1-2.16,1.913,3.127,3.127,0,0,1-2.9-.9,5.019,5.019,0,0,1-1.327-2.823c-.148-.946.056-2.118.967-2.442a2.3,2.3,0,0,1,1.179,0l5.3,1" transform="translate(-116.906 -134.041)" fill="#eb996e"/>
      <path id="Trazado_150515" data-name="Trazado 150515" d="M245.887,203.366a7.276,7.276,0,0,1-2.682.2,3.762,3.762,0,0,1-2.336-1.412,4.016,4.016,0,0,1-.706-3.19,3.671,3.671,0,0,1,.282-.812c.148-.247.12-.226.339-.24a4.7,4.7,0,0,1,.84.148l.875.169c1.129.212,2.117.388,3.014.529a9.2,9.2,0,0,0,2.823.268,9.4,9.4,0,0,0-2.7-.882c-.847-.219-1.856-.466-2.986-.706l-.861-.2c-.311-.056-.551-.141-.967-.191a1.214,1.214,0,0,0-.706.169,1.411,1.411,0,0,0-.452.536,4.107,4.107,0,0,0-.36,1.038,4.68,4.68,0,0,0,.932,3.889,4.285,4.285,0,0,0,2.894,1.51,4.087,4.087,0,0,0,2.117-.346C245.718,203.613,245.915,203.4,245.887,203.366Z" transform="translate(-116.662 -133.866)" fill="#263238"/>
      <path id="Trazado_150516" data-name="Trazado 150516" d="M196.144,239.155l2.118-5.689,18.253,19.679,18.994-20.815,5.089,7.009s5.6,27.372,5.1,27.888-27.139,16.94-27.139,16.94l-22.107-.776-14.907-28.4Z" transform="translate(-99.698 -144.245)" fill="#ebebeb"/>
      <path id="Trazado_150517" data-name="Trazado 150517" d="M86.555,341.243l-.2-38.115s22.184-33.308,26.328-37.452c5.858-5.858,9.811-9.924,12.451-12a4.341,4.341,0,0,1,5.336,0h0L168.5,240.449s-5.816,9.564,2.972,21.464a199.317,199.317,0,0,1,15.119,24.26s8.992-14.71,12.472-17.646,15.479-22.636,12.705-28.488L243.3,253.726s1.518-2.28,3.423-1.334,16.164,6.861,21.683,17.321,33.174,50.7,33.174,50.7l-30.153,26.455Z" transform="translate(-71.697 -146.513)" fill="#b0c0d2"/>
      <path id="Trazado_150518" data-name="Trazado 150518" d="M164.59,294.88a2.413,2.413,0,0,1-.275-.254l-.706-.776a15.059,15.059,0,0,1-1.094-1.263c-.388-.515-.9-1.066-1.376-1.736s-1.038-1.412-1.56-2.188-1.087-1.68-1.652-2.619a50.741,50.741,0,0,1-3.1-6.353,48.514,48.514,0,0,1-2.118-6.762c-.226-1.066-.445-2.075-.572-3.035s-.254-1.856-.339-2.675-.106-1.56-.148-2.209-.042-1.214-.035-1.673,0-.776,0-1.059a1.879,1.879,0,0,1,0-.367,1.277,1.277,0,0,1,.042.367c0,.282.035.628.056,1.052a15.821,15.821,0,0,0,.092,1.666c.092.649.085,1.412.2,2.2s.2,1.7.381,2.647.367,1.948.6,3.007a51.959,51.959,0,0,0,2.118,6.7,53.939,53.939,0,0,0,3.056,6.353c.551.932,1.066,1.821,1.609,2.619s1.038,1.539,1.51,2.2.939,1.242,1.334,1.765.748.953,1.045,1.3l.663.819a1.935,1.935,0,0,1,.261.275Z" transform="translate(-90.893 -152.946)" fill="#263238"/>
      <path id="Trazado_150519" data-name="Trazado 150519" d="M146.656,289.749a6.981,6.981,0,0,1,.085-1.962,18.31,18.31,0,0,1,1.228-4.567,18.549,18.549,0,0,1,2.365-4.108,6.946,6.946,0,0,1,1.327-1.412c.042.042-.438.607-1.115,1.6a21.782,21.782,0,0,0-3.529,8.562,17.05,17.05,0,0,1-.36,1.892Z" transform="translate(-89.426 -157.591)" fill="#263238"/>
      <path id="Trazado_150520" data-name="Trazado 150520" d="M138.075,319.395a3.174,3.174,0,0,1-.191-.565c-.106-.374-.275-.932-.459-1.645-.374-1.412-.875-3.529-1.369-6.134A98.731,98.731,0,0,1,134.4,290.42a53.644,53.644,0,0,1,1.256-11.35,23.25,23.25,0,0,1,3.847-8.47,16.319,16.319,0,0,1,4.616-4.235,11.782,11.782,0,0,1,1.518-.783,4.569,4.569,0,0,1,.558-.212,3.482,3.482,0,0,1-.529.282,14.166,14.166,0,0,0-1.475.84,16.779,16.779,0,0,0-4.475,4.284,23.165,23.165,0,0,0-3.727,8.4,54.667,54.667,0,0,0-1.221,11.293,104.547,104.547,0,0,0,1.546,20.519c.459,2.6.925,4.694,1.256,6.141.162.706.3,1.249.388,1.659A4.454,4.454,0,0,1,138.075,319.395Z" transform="translate(-85.821 -153.964)" fill="#263238"/>
      <path id="Trazado_150521" data-name="Trazado 150521" d="M150.835,315.382a3.705,3.705,0,0,1-.176-.84,18.785,18.785,0,0,1-.2-2.329,24.315,24.315,0,0,1,.127-3.473,27.528,27.528,0,0,1,.8-4.186,27.832,27.832,0,0,1,1.5-3.988,23.4,23.4,0,0,1,1.708-3.021,17.651,17.651,0,0,1,1.412-1.878,3.741,3.741,0,0,1,.586-.628c.056.042-.706.981-1.765,2.64a27.881,27.881,0,0,0-1.623,3.035,29.309,29.309,0,0,0-1.447,3.939,29.842,29.842,0,0,0-.833,4.122,27.108,27.108,0,0,0-.2,3.43C150.7,314.168,150.884,315.375,150.835,315.382Z" transform="translate(-90.549 -162.692)" fill="#263238"/>
      <path id="Trazado_150522" data-name="Trazado 150522" d="M156.571,326.706a4.425,4.425,0,0,1-.12-.967c-.056-.621-.106-1.525-.141-2.64a72.131,72.131,0,0,1,1.645-17.342c.24-1.087.459-1.962.628-2.562a5.189,5.189,0,0,1,.3-.925,4.941,4.941,0,0,1-.155.953c-.141.706-.311,1.553-.515,2.59-.424,2.181-.918,5.223-1.235,8.6s-.4,6.451-.4,8.675v2.64A5.932,5.932,0,0,1,156.571,326.706Z" transform="translate(-92.269 -164.818)" fill="#263238"/>
      <path id="Trazado_150523" data-name="Trazado 150523" d="M208.211,301.814c0,.1-9.677.184-21.62.184S165,301.891,165,301.814s9.677-.184,21.613-.184S208.211,301.715,208.211,301.814Z" transform="translate(-94.832 -164.63)" fill="#263238"/>
      <path id="Trazado_150524" data-name="Trazado 150524" d="M175.59,362.368c-.1,0-.092-12.762,0-28.509s.289-28.509.388-28.509.092,12.762,0,28.509S175.7,362.368,175.59,362.368Z" transform="translate(-97.927 -165.725)" fill="#263238"/>
      <path id="Trazado_150525" data-name="Trazado 150525" d="M194.24,362.909V362.3c0-.4.042-1.009.071-1.736.078-1.546.184-3.72.318-6.395.311-5.421.706-12.853,1.193-21.062s.967-15.648,1.306-21.069c.184-2.668.332-4.835.438-6.353.056-.706.1-1.306.134-1.736a3.678,3.678,0,0,1,.071-.6,3.325,3.325,0,0,1,0,.607q0,.642-.064,1.736c-.078,1.546-.191,3.72-.325,6.388-.3,5.421-.706,12.86-1.193,21.076s-.967,15.641-1.3,21.062c-.184,2.668-.332,4.835-.438,6.353-.056.706-.1,1.306-.134,1.736a3.126,3.126,0,0,1-.078.6Z" transform="translate(-103.434 -165.136)" fill="#263238"/>
      <path id="Trazado_150526" data-name="Trazado 150526" d="M220.457,359.933c-.1,0,.868-12.776,2.16-28.516s2.421-28.495,2.52-28.488-.868,12.776-2.16,28.516S220.556,359.94,220.457,359.933Z" transform="translate(-111.144 -165.013)" fill="#263238"/>
      <path id="Trazado_150527" data-name="Trazado 150527" d="M277.467,302.224c0,.1-10.284.184-22.975.184s-22.982-.085-22.982-.184,10.284-.184,22.982-.184S277.467,302.118,277.467,302.224Z" transform="translate(-114.397 -164.751)" fill="#263238"/>
      <path id="Trazado_150528" data-name="Trazado 150528" d="M247.073,361.506a3.73,3.73,0,0,1-.064-.565c0-.4-.064-.946-.113-1.623-.1-1.412-.2-3.466-.268-6-.148-5.061-.113-12.077.4-19.763s1.412-14.674,2.266-19.672c.416-2.5.783-4.517,1.073-5.908.134-.663.247-1.2.332-1.6a2.581,2.581,0,0,1,.141-.551,3.346,3.346,0,0,1-.071.565c-.064.4-.155.939-.261,1.609-.247,1.412-.579,3.416-.953,5.922-.762,5-1.638,11.943-2.16,19.651s-.593,14.7-.508,19.763c.035,2.534.092,4.581.148,6a14.929,14.929,0,0,0,.049,1.63A3.53,3.53,0,0,1,247.073,361.506Z" transform="translate(-118.822 -165.866)" fill="#263238"/>
      <path id="Trazado_150529" data-name="Trazado 150529" d="M271.5,368.913a.629.629,0,0,1,0-.162,2.471,2.471,0,0,0-.035-.48c0-.452-.056-1.059-.1-1.835-.078-1.6-.162-3.9-.226-6.755-.127-5.7-.127-13.587.24-22.29s1.052-16.559,1.631-22.206c.3-2.823.579-5.124.8-6.705q.162-1.151.254-1.821a2.439,2.439,0,0,1,.078-.473c.021-.127,0-.155.035-.155a.48.48,0,0,1,0,.162,2.043,2.043,0,0,1-.042.473c-.042.452-.106,1.059-.184,1.828-.169,1.588-.409,3.882-.706,6.72-.543,5.647-1.172,13.531-1.546,22.227s-.388,16.566-.325,22.213c.035,2.823.071,5.16.113,6.755v2.308A.775.775,0,0,1,271.5,368.913Z" transform="translate(-126.032 -165.925)" fill="#263238"/>
      <path id="Trazado_150530" data-name="Trazado 150530" d="M295.8,290.3a6.817,6.817,0,0,1,.416-1.136c.318-.776.706-1.8,1.235-3.042,1.031-2.576,2.386-6.169,3.776-10.164s2.626-7.574,3.529-10.256c.466-1.306.854-2.365,1.129-3.085a8.909,8.909,0,0,1,.466-1.115,6.742,6.742,0,0,1-.325,1.158L305,265.784c-.868,2.64-2.054,6.289-3.452,10.291s-2.823,7.588-3.882,10.143c-.551,1.278-1.009,2.3-1.341,3A8.013,8.013,0,0,1,295.8,290.3Z" transform="translate(-133.309 -152.826)" fill="#263238"/>
      <path id="Trazado_150531" data-name="Trazado 150531" d="M296.883,325.826a3.812,3.812,0,0,1-.423-.854c-.247-.551-.579-1.376-.953-2.4a46.266,46.266,0,0,1-2.118-8.251,40.809,40.809,0,0,1-.452-8.512c.064-1.094.155-1.976.247-2.576a4.235,4.235,0,0,1,.169-.932,4.384,4.384,0,0,1,0,.946c-.049.607-.1,1.482-.127,2.569a46.331,46.331,0,0,0,.558,8.47,53.93,53.93,0,0,0,2,8.2c.339,1.031.635,1.863.84,2.435a5.408,5.408,0,0,1,.254.9Z" transform="translate(-132.451 -164.827)" fill="#263238"/>
      <path id="Trazado_150532" data-name="Trazado 150532" d="M304.931,342.677a2.766,2.766,0,0,1-.155-.4c-.106-.3-.233-.671-.4-1.136-.318-1-.755-2.442-1.263-4.235-1.009-3.6-2.273-8.611-3.494-14.187s-2.118-10.665-2.6-14.378c-.233-1.856-.36-3.367-.409-4.411v-1.207a2.676,2.676,0,0,1,0-.416,1.5,1.5,0,0,1,.056.416c0,.311.049.706.085,1.2.092,1.038.254,2.541.522,4.383.529,3.7,1.5,8.767,2.7,14.336s2.442,10.588,3.388,14.194c.473,1.765.868,3.219,1.151,4.235.127.473.24.854.325,1.158a1.5,1.5,0,0,1,.085.445Z" transform="translate(-133.547 -164.83)" fill="#263238"/>
      <path id="Trazado_150533" data-name="Trazado 150533" d="M313.891,281.058c-.064,0-.261-.508-.748-1.278a12.7,12.7,0,0,0-2.287-2.682,13.038,13.038,0,0,0-2.908-2,14.288,14.288,0,0,1-1.348-.621,3.974,3.974,0,0,1,1.454.381,10.729,10.729,0,0,1,3.063,1.962,10.516,10.516,0,0,1,2.266,2.823A3.565,3.565,0,0,1,313.891,281.058Z" transform="translate(-136.486 -156.644)" fill="#263238"/>
      <path id="Trazado_150534" data-name="Trazado 150534" d="M316.164,274.119c-.056,0-.3-.473-.847-1.172a11.689,11.689,0,0,0-2.527-2.343,17.47,17.47,0,0,0-4.44-2.075,3.783,3.783,0,0,1,1.454.226,11.216,11.216,0,0,1,3.19,1.546,9.882,9.882,0,0,1,2.534,2.492A3.487,3.487,0,0,1,316.164,274.119Z" transform="translate(-137.001 -154.892)" fill="#263238"/>
      <path id="Trazado_150535" data-name="Trazado 150535" d="M84.464,326.64a18.02,18.02,0,0,0-6.458,4.313c-3.783,4.27-10.912,16.855-10.912,16.855s-2.118,24.853-1.327,24.655,37.847,0,37.847,0h44.919s-9.705-21.655-26.405-25.643l-11.837-2.329s-1.009-5.117-2.35-5.315S84.464,326.64,84.464,326.64Z" transform="translate(-65.59 -171.987)" fill="#b0c0d2"/>
      <path id="Trazado_150536" data-name="Trazado 150536" d="M313.52,350.1a4.941,4.941,0,0,1,3.932-2.019c2.583,0,12.155-.918,12.155-.918s7.058-5.541,10.545-6.649a6.776,6.776,0,0,1,3.882-5.534c2.9-1.313,10.891-2.386,14.159-2.788a3.317,3.317,0,0,1,2.541.755c3.19,2.689,12.493,10.835,17.646,18.458,5.414,8.032.706,21.21-3.529,22.693H311Z" transform="translate(-137.78 -173.612)" fill="#b0c0d2"/>
      <g id="Grupo_75972" data-name="Grupo 75972" transform="translate(23.625 157.293)" opacity="0.3">
        <path id="Trazado_150537" data-name="Trazado 150537" d="M99.06,330.38c5.746.325,10.948.861,15.719,4.073a30.786,30.786,0,0,0,4.56,3.056c1.68.734,3.529.875,5.287,1.475,3.07,1.066,5.435,3.529,7.672,5.851.706.706,5.647,4.828,5.244,5.146s-5.647-2.266-6.113-2.336l-7.15-1.087c-1.786-.268-3.769-.656-4.821-2.118-.558-.776-.769-1.765-1.285-2.569a7.551,7.551,0,0,0-3.226-2.435c-5.781-2.943-10.108-6.113-15.888-9.049" transform="translate(-99.06 -330.38)"/>
      </g>
      <g id="Grupo_75973" data-name="Grupo 75973" transform="translate(179.156 158.001)" opacity="0.3">
        <path id="Trazado_150538" data-name="Trazado 150538" d="M319.41,347.877c.918-1.581,4.5-2.943,6.353-3.042s3.748.064,5.4-.706c2.407-1.136,3.529-3.861,5.188-5.943a16.5,16.5,0,0,1,9.105-5.343c3.459-.854,10.157-2.894,15.2.176,0,0-6.713-.558-8.2-.4a30.356,30.356,0,0,0-4.433,1.108,9.072,9.072,0,0,0-6.2,7.242v.191a82.441,82.441,0,0,0-9.712,5.774c-.141.056-8.407.875-12.67.946" transform="translate(-319.41 -331.384)"/>
      </g>
      <g id="Grupo_75974" data-name="Grupo 75974" transform="translate(48.194 113.552)" opacity="0.3">
        <path id="Trazado_150539" data-name="Trazado 150539" d="M141.994,268.495a26.949,26.949,0,0,0-4.327,21.225c.621,2.823,1.7,5.52,2.28,8.35a12.52,12.52,0,0,1-.791,8.47,3.388,3.388,0,0,1-1.242,1.412,1.588,1.588,0,0,1-1.772-.078,2.463,2.463,0,0,1-.635-1.553c-1.045-6.649-2.118-13.411-1.412-20.074s3.24-13.46,8.35-17.837" transform="translate(-133.869 -268.41)"/>
      </g>
      <g id="Grupo_75975" data-name="Grupo 75975" transform="translate(170.284 117.886)" opacity="0.3">
        <path id="Trazado_150540" data-name="Trazado 150540" d="M306.84,274.55a18.285,18.285,0,0,1,4.482,8.188c.381,2.329.459,4.722,1.249,6.938.4,1.087,1.242,2.28,2.386,2.117s1.673-1.532,1.736-2.689a12.988,12.988,0,0,0-2.329-7.764,21.175,21.175,0,0,0-5.506-6.105" transform="translate(-306.84 -274.55)"/>
      </g>
      <g id="Grupo_75976" data-name="Grupo 75976" transform="translate(49.254 176.863)" opacity="0.3">
        <path id="Trazado_150541" data-name="Trazado 150541" d="M168.516,380.527a3.028,3.028,0,0,1,.325,1.2l-28.142-.071a6.519,6.519,0,0,1-3.762-1.073c-1.256-1.031-1.56-2.823-1.567-4.44a19.516,19.516,0,0,1,11.406-17.575s.946-1.412,3.529.706S168.516,380.527,168.516,380.527Z" transform="translate(-135.37 -358.107)"/>
      </g>
      <path id="Trazado_150542" data-name="Trazado 150542" d="M136.761,349.82a3.045,3.045,0,0,1-.416-.184l-1.165-.572a21.734,21.734,0,0,0-4.454-1.659c-1.955-.48-4.348-.649-7.009-1.023a16.124,16.124,0,0,1-2-.522,12,12,0,0,1-2.019-.8,4.341,4.341,0,0,1-1.348-1.856,10.18,10.18,0,0,0-1.045-1.962h0l.042.035L103.756,333.3l-4.1-2.449-1.108-.706a1.95,1.95,0,0,1-.367-.261,1.975,1.975,0,0,1,.409.2l1.136.621,4.157,2.35,13.651,7.891h0a9.811,9.811,0,0,1,1.1,2.047,3.974,3.974,0,0,0,1.2,1.7,12.134,12.134,0,0,0,1.941.783,18,18,0,0,0,1.962.522c2.619.388,5.04.586,7.009,1.1a20.472,20.472,0,0,1,4.454,1.779c.5.268.882.487,1.136.642a1.8,1.8,0,0,1,.423.3Z" transform="translate(-75.176 -172.94)" fill="#263238"/>
      <path id="Trazado_150543" data-name="Trazado 150543" d="M126.307,314a6.239,6.239,0,0,1,0,1.052v2.866c0,2.414.127,5.753.466,9.416s.861,6.967,1.292,9.345c.219,1.136.4,2.118.529,2.823a4.814,4.814,0,0,1,.162,1.038,6.352,6.352,0,0,1-.3-1.009c-.176-.649-.4-1.6-.649-2.788a86.515,86.515,0,0,1-1.765-18.811c0-1.214.071-2.2.12-2.866a5.647,5.647,0,0,1,.141-1.066Z" transform="translate(-83.37 -168.269)" fill="#263238"/>
      <g id="Grupo_75977" data-name="Grupo 75977" transform="translate(173.22 177.832)" opacity="0.3">
        <path id="Trazado_150544" data-name="Trazado 150544" d="M320.084,382.328a12,12,0,0,0,1.447-2.442,11.859,11.859,0,0,0,.318-6.388,22.071,22.071,0,0,0-8.512-14.018L311,382.13Z" transform="translate(-311 -359.48)"/>
      </g>
      <path id="Trazado_150545" data-name="Trazado 150545" d="M113.841,334.207a3.4,3.4,0,0,1-.176-.8c-.092-.593-.212-1.327-.353-2.2a27.873,27.873,0,0,0-2.054-7.009,15.112,15.112,0,0,0-4.39-5.724,18.016,18.016,0,0,0-2.6-1.567,3.007,3.007,0,0,1,.791.254,10.194,10.194,0,0,1,1.962,1.1,14.484,14.484,0,0,1,4.567,5.788,24.789,24.789,0,0,1,1.976,7.122c.127.939.2,1.694.247,2.223a3.791,3.791,0,0,1,.028.819Z" transform="translate(-76.968 -169.122)" fill="#263238"/>
      <path id="Trazado_150546" data-name="Trazado 150546" d="M348.521,342.941H346.9a22.043,22.043,0,0,0-4.348.6,20.617,20.617,0,0,0-5.978,2.478c-1.052.628-2.075,1.412-3.183,2.181a14.363,14.363,0,0,1-3.706,1.955,27.634,27.634,0,0,1-7.983.96,22.44,22.44,0,0,0-6.43.875,9.748,9.748,0,0,0-3.776,2.117c-.748.706-1.045,1.228-1.08,1.2a2.12,2.12,0,0,1,.212-.367,6.04,6.04,0,0,1,.769-.932,9.4,9.4,0,0,1,3.8-2.266,21.818,21.818,0,0,1,6.494-.967,28.382,28.382,0,0,0,7.884-.967c2.675-.889,4.687-2.823,6.825-4.08a20.6,20.6,0,0,1,6.1-2.442,20.106,20.106,0,0,1,4.4-.487,11.679,11.679,0,0,1,1.2.056A1.412,1.412,0,0,1,348.521,342.941Z" transform="translate(-137.61 -176.741)" fill="#263238"/>
      <path id="Trazado_150547" data-name="Trazado 150547" d="M370.453,333.476a4.943,4.943,0,0,1-.918-.064c-.586-.056-1.412-.148-2.478-.233a23.292,23.292,0,0,0-8.1.543,11.731,11.731,0,0,0-6.508,4.553,11,11,0,0,0-1.334,3.085v-.24a4.559,4.559,0,0,1,.12-.671,7.842,7.842,0,0,1,.988-2.315,11.618,11.618,0,0,1,6.628-4.764,21.669,21.669,0,0,1,8.223-.445c1.045.113,1.892.247,2.47.346a4.125,4.125,0,0,1,.9.2Z" transform="translate(-149.582 -173.776)" fill="#263238"/>
      <path id="Trazado_150548" data-name="Trazado 150548" d="M342.548,337.617a5.546,5.546,0,0,1-.388-.932l-.946-2.569c-.8-2.167-1.955-5.153-3.324-8.4s-2.71-6.155-3.706-8.244l-1.179-2.477a5.443,5.443,0,0,1-.4-.925,5.56,5.56,0,0,1,.522.861c.318.565.762,1.412,1.285,2.428,1.059,2.061,2.435,4.941,3.811,8.209s2.485,6.268,3.226,8.47c.374,1.094.663,1.99.84,2.612A5.212,5.212,0,0,1,342.548,337.617Z" transform="translate(-144.137 -168.29)" fill="#263238"/>
      <path id="Trazado_150549" data-name="Trazado 150549" d="M205.24,233.93a2.343,2.343,0,0,1,.339.311l.918.925,3.324,3.466L220.7,250.157l2.633,2.823.289.311H223.2a14.6,14.6,0,0,0-11.428,5.393,15.529,15.529,0,0,0-2.04,3.3c-.374.826-.529,1.306-.558,1.3a1.827,1.827,0,0,1,.092-.36,8.969,8.969,0,0,1,.353-.988,14.166,14.166,0,0,1,1.962-3.4,14.5,14.5,0,0,1,4.5-3.819A14.717,14.717,0,0,1,223.2,252.9l-.127.3-2.64-2.823-10.8-11.6-3.24-3.529-.868-.974A2.62,2.62,0,0,1,205.24,233.93Z" transform="translate(-106.67 -144.715)" fill="#263238"/>
      <path id="Trazado_150550" data-name="Trazado 150550" d="M215.66,265.7l4.863,9.529h8.985l5.188-7.058s-3.529-5.273-5.075-6.12l-6.508-.473C222.881,261.237,216.952,263.56,215.66,265.7Z" transform="translate(-109.735 -152.838)" fill="#b0c0d2"/>
      <path id="Trazado_150551" data-name="Trazado 150551" d="M221.6,280.93l-2.273,5.7s6.225,12.2,6.557,11.646,7.764-12.112,7.764-12.112l-3.077-5.216Z" transform="translate(-110.814 -158.541)" fill="#b0c0d2"/>
      <g id="Grupo_75978" data-name="Grupo 75978" transform="translate(105.925 108.705)" opacity="0.3">
        <path id="Trazado_150552" data-name="Trazado 150552" d="M215.66,265.7l4.863,9.529h8.985l5.188-7.058s-3.529-5.273-5.075-6.12l-6.508-.473C222.881,261.237,216.952,263.56,215.66,265.7Z" transform="translate(-215.66 -261.543)"/>
      </g>
      <g id="Grupo_75979" data-name="Grupo 75979" transform="translate(108.516 122.389)" opacity="0.3">
        <path id="Trazado_150553" data-name="Trazado 150553" d="M221.6,280.93l-2.273,5.7s6.225,12.2,6.557,11.646,7.764-12.112,7.764-12.112l-3.077-5.216Z" transform="translate(-219.33 -280.93)"/>
      </g>
      <path id="Trazado_150554" data-name="Trazado 150554" d="M231.231,281.176a43.214,43.214,0,0,0-4.348-.614,42.186,42.186,0,0,0-4.383.233,3.755,3.755,0,0,1,1.256-.374,13.931,13.931,0,0,1,3.148-.226,13.7,13.7,0,0,1,3.113.5,3.762,3.762,0,0,1,1.214.48Z" transform="translate(-111.747 -158.321)" fill="#263238"/>
      <path id="Trazado_150555" data-name="Trazado 150555" d="M232.808,265.088a3.667,3.667,0,0,1-.318.5,13.157,13.157,0,0,1-1.023,1.249,19.763,19.763,0,0,1-8.957,5.6,13.086,13.086,0,0,1-1.567.374,2.069,2.069,0,0,1-.593.064c0-.064.8-.247,2.082-.706a23.024,23.024,0,0,0,8.851-5.534C232.243,265.731,232.808,265.025,232.808,265.088Z" transform="translate(-111.114 -153.88)" fill="#263238"/>
      <path id="Trazado_150556" data-name="Trazado 150556" d="M229.369,288.075a22.127,22.127,0,0,1,0-7.715,34.817,34.817,0,0,1,0,3.854,35.238,35.238,0,0,1,0,3.861Z" transform="translate(-113.668 -158.373)" fill="#263238"/>
      <path id="Trazado_150557" data-name="Trazado 150557" d="M231.4,289.985c-.106,0-.184-2.019-.388-4.489s-.438-4.482-.339-4.5a19.157,19.157,0,0,1,.706,4.461,19.447,19.447,0,0,1,.021,4.524Z" transform="translate(-114.143 -158.562)" fill="#263238"/>
      <path id="Trazado_150558" data-name="Trazado 150558" d="M249.84,232.33s0,.042-.078.113l-.268.311-1.038,1.179-3.932,4.383-13.538,14.957-.184-.289a4.235,4.235,0,0,1,2.372-.1,5.033,5.033,0,0,1,1.99,1.412,18.979,18.979,0,0,1,3.127,3.819,18.119,18.119,0,0,1,2.513,7.094l-.3-.106a57.736,57.736,0,0,0,7.919-9.006,40.72,40.72,0,0,0,2.689-4.369,35.3,35.3,0,0,0,1.8-4.037,34.626,34.626,0,0,0,1.673-6.106c.141-.706.191-1.3.261-1.68a2.1,2.1,0,0,1,.071-.438,1.238,1.238,0,0,1,0-.148v.148a2.285,2.285,0,0,1-.035.445c-.049.381-.078.96-.2,1.694a32.891,32.891,0,0,1-1.574,6.169,36.518,36.518,0,0,1-1.779,4.087,42.389,42.389,0,0,1-2.675,4.419,57.539,57.539,0,0,1-7.941,9.028l-.254.24-.049-.346a17.984,17.984,0,0,0-2.47-6.953,18.875,18.875,0,0,0-3.07-3.748,4.715,4.715,0,0,0-1.842-1.306,3.91,3.91,0,0,0-2.167.092l-.607.176.423-.466,13.672-14.823,4-4.306,1.087-1.143.282-.289C249.84,232.358,249.84,232.323,249.84,232.33Z" transform="translate(-114.029 -144.244)" fill="#263238"/>
      <path id="Trazado_150559" data-name="Trazado 150559" d="M239.592,260.221a.3.3,0,0,1-.071.148l-.247.416c-.219.36-.558.9-1.016,1.567a61.455,61.455,0,0,1-4.27,5.484c-.48.558-1,1.136-1.553,1.729a20.871,20.871,0,0,0-1.645,1.906c-1.073,1.412-2.118,2.929-3.282,4.567-2.252,3.282-4.694,6.974-7.256,10.94l-.169.254-.141-.268c-1.292-2.414-2.626-4.941-4.059-7.44s-2.823-4.9-4.362-7.136-3.12-4.292-4.574-6.317a54.35,54.35,0,0,1-3.84-5.943,23.5,23.5,0,0,1-2.266-5.738,20.858,20.858,0,0,1-.268-8.872,16.513,16.513,0,0,1,.882-3.148.832.832,0,0,1-.042.212l-.176.607a23.3,23.3,0,0,0-.522,2.35,21.33,21.33,0,0,0,.381,8.795,23.553,23.553,0,0,0,2.28,5.647,55.284,55.284,0,0,0,3.847,5.887c1.461,2.012,3.056,4.073,4.6,6.317s2.965,4.651,4.383,7.15,2.767,5.04,4.059,7.454h-.311c2.569-3.96,5.026-7.644,7.305-10.919,1.143-1.638,2.23-3.176,3.317-4.56a20.467,20.467,0,0,1,1.68-1.906c.558-.586,1.073-1.165,1.567-1.715,1.948-2.209,3.388-4.087,4.334-5.407.48-.656.833-1.172,1.073-1.525l.268-.4Z" transform="translate(-105.193 -147.198)" fill="#263238"/>
      <path id="Trazado_150560" data-name="Trazado 150560" d="M178.786,341.6l-.946-23.822.706-5.343s7.447,2.026,28.579,2.026a249.467,249.467,0,0,0,47.764-5.011l2.23,4.412h0l-7.447,56.058H181.786Z" transform="translate(-98.609 -166.931)" fill="#fff"/>
      <path id="Trazado_150561" data-name="Trazado 150561" d="M147.406,355.213l9.776,1.108,3.706-5.146,5.075-3.106.318,4.906a56.605,56.605,0,0,0,6.55,2.2c2.463.508,5.428.748,6.882,1.856,1.066.819,1.052,3.36-.409,3.811l-3.593.783s12.373.614,13.411.706c2.52.155,3.72,1.708,2.972,3.529-.452,1.129-2.23,1.5-2.823,1.729l-.565.226s2.619.5,2.7,2.117a2.234,2.234,0,0,1-2.118,2.569c-.706.148-1.023.155-3.607.494s-6.4.445-6.4.445a1.461,1.461,0,0,1,.141,2.118c-.918,1.108-7.877,1.5-7.877,1.5l-5.88,1.207a22.685,22.685,0,0,1-10.637-.353h0l-4.814-2.322-14.879-1.066a23.985,23.985,0,0,1,1.5-8.6C140.588,357.542,147.406,355.213,147.406,355.213Z" transform="translate(-86.104 -178.291)" fill="#ffbe9d"/>
      <path id="Trazado_150562" data-name="Trazado 150562" d="M192.411,366.49a16.82,16.82,0,0,1-3.917.607,15.163,15.163,0,0,1-3.974,0,36.924,36.924,0,0,1,3.939-.367A30.212,30.212,0,0,1,192.411,366.49Z" transform="translate(-100.574 -183.709)" fill="#eb996e"/>
      <path id="Trazado_150563" data-name="Trazado 150563" d="M204.225,375.739a15.877,15.877,0,0,1-2.386.049c-1.468,0-3.529-.064-5.746-.141s-4.277-.162-5.753-.247a13.853,13.853,0,0,1-2.372-.219,15.444,15.444,0,0,1,2.386-.042c1.468,0,3.529.064,5.746.141s4.277.162,5.753.247A15.474,15.474,0,0,1,204.225,375.739Z" transform="translate(-101.589 -186.246)" fill="#eb996e"/>
      <path id="Trazado_150564" data-name="Trazado 150564" d="M194.946,383.614a8.875,8.875,0,0,1-1.955.092c-1.207,0-2.88-.056-4.715-.162l-4.708-.268a12.7,12.7,0,0,1-1.948-.162,9.176,9.176,0,0,1,1.955-.1c1.207,0,2.88.064,4.722.162l4.7.275A10.784,10.784,0,0,1,194.946,383.614Z" transform="translate(-99.721 -188.566)" fill="#eb996e"/>
      <path id="Trazado_150565" data-name="Trazado 150565" d="M263.742,361.582s-1.122-2.9,1.292-3.741L276,353.98l.162-2.209,5.026.522a14.483,14.483,0,0,1,3.621-1.6c1.567-.332,2.534-.212,3.981,1.842a48.7,48.7,0,0,0,4.941,5.308l4.694.48s5.16,4.581,6.317,10.517a42.577,42.577,0,0,1,.607,6.042c-.706,1.454-3.381,2-6.8,2.118l-3.981.106a2.456,2.456,0,0,1-2.209,2.315c-1.6.24-6.014-.268-7.263.064a24.109,24.109,0,0,1-3.91,0c-3.3-.565-12.585-1.412-12.8-4.891l-10.03.2a3.36,3.36,0,0,1-3.106-1.807,1.588,1.588,0,0,1-.162-1.249,2.746,2.746,0,0,1,.431-.762,3.021,3.021,0,0,1,2.125-1.052l13.411-1.5h0a.762.762,0,0,0-.543-1.369c-4.722.614-13.531,1.694-14.413,1.369-1.207-.452-1.708-2.118-1.708-2.936,0-1.278,2.188-2.329,4.426-2.767C261.632,362.161,263.742,361.582,263.742,361.582Z" transform="translate(-121.128 -179.021)" fill="#ffbe9d"/>
      <path id="Trazado_150566" data-name="Trazado 150566" d="M280.393,361.62a15.966,15.966,0,0,1-2.358.656l-5.731,1.369-5.731,1.362a17.643,17.643,0,0,1-2.393.5,2.556,2.556,0,0,1,.614-.24c.4-.134.981-.311,1.708-.515,1.454-.409,3.473-.932,5.717-1.461s4.277-.974,5.76-1.27A15.925,15.925,0,0,1,280.393,361.62Z" transform="translate(-124.007 -182.277)" fill="#eb996e"/>
      <path id="Trazado_150567" data-name="Trazado 150567" d="M287.461,383.968a60.609,60.609,0,0,1-6.635.4,60.49,60.49,0,0,1-6.656.042,59.877,59.877,0,0,1,6.642-.409A59.217,59.217,0,0,1,287.461,383.968Z" transform="translate(-126.946 -188.828)" fill="#eb996e"/>
      <path id="Trazado_150568" data-name="Trazado 150568" d="M291.224,352.31a44.924,44.924,0,0,1-7.764,2.626A46.582,46.582,0,0,1,291.224,352.31Z" transform="translate(-129.679 -179.538)" fill="#eb996e"/>
      <path id="Trazado_150569" data-name="Trazado 150569" d="M321.054,382.334a5.716,5.716,0,0,1,.508-.9c.169-.282.381-.621.593-1.031a5.8,5.8,0,0,0,.48-1.482,17.4,17.4,0,0,0-.925-8.985,22.749,22.749,0,0,0-4.666-7.807c-1.581-1.736-2.788-2.576-2.746-2.633a5.08,5.08,0,0,1,.854.572,19.76,19.76,0,0,1,2.082,1.885,21.641,21.641,0,0,1,4.821,7.863A16.99,16.99,0,0,1,322.89,379a5.871,5.871,0,0,1-.551,1.518c-.24.416-.473.748-.656,1.023A5.785,5.785,0,0,1,321.054,382.334Z" transform="translate(-138.75 -181.653)" fill="#263238"/>
      <path id="Trazado_150570" data-name="Trazado 150570" d="M253.436,343.682a4.658,4.658,0,0,1,.042-.515c.042-.339.1-.847.169-1.482.162-1.32.388-3.233.706-5.647.614-4.906,1.489-11.907,2.548-20.385l.184.162c-5.209,1.094-11.025,2.2-17.279,3.261-3.134.529-6.353,1.031-9.705,1.482s-6.769.847-10.284,1.038c-4.023.2-7.962.113-11.773,0s-7.5-.318-11.046-.522c-7.058-.438-13.552-.939-19.156-1.412l.155-.148c.247,7.348.452,13.333.593,17.5.056,2.061.106,3.67.141,4.786v1.673a3.217,3.217,0,0,0-.042-.423c-.042-.282-.035-.706-.064-1.249-.049-1.115-.12-2.725-.219-4.779-.169-4.164-.409-10.15-.706-17.491v-.162h.162c5.6.48,12.07.967,19.149,1.412,3.529.2,7.228.388,11.039.508s7.764.2,11.738,0c3.529-.191,6.924-.586,10.256-1.031s6.564-.946,9.691-1.468c6.254-1.045,12.07-2.118,17.279-3.2l.212-.042v.2c-1.115,8.47-2.033,15.472-2.682,20.37-.325,2.428-.586,4.341-.762,5.647l-.212,1.482C253.486,343.512,253.436,343.682,253.436,343.682Z" transform="translate(-98.568 -168.722)" fill="#263238"/>
      <path id="Trazado_150571" data-name="Trazado 150571" d="M257,314.429l-.2.056-.586.134-2.259.487c-1.962.431-4.821.974-8.357,1.588-1.772.289-3.713.621-5.8.911s-4.327.586-6.684.868c-4.722.529-9.924.981-15.4,1.221s-10.7.233-15.451.106c-2.372-.085-4.63-.162-6.734-.311s-4.073-.282-5.858-.431-3.4-.332-4.821-.473-2.64-.3-3.635-.431l-2.287-.311-.6-.092a.707.707,0,0,1-.2-.042h.2l.6.056,2.294.24c1,.106,2.216.247,3.642.367s3.028.3,4.821.424,3.748.289,5.851.381,4.362.2,6.734.275c4.736.106,9.952.092,15.423-.134s10.665-.706,15.38-1.193c2.35-.268,4.588-.529,6.677-.833s4.03-.593,5.8-.868c3.529-.572,6.4-1.08,8.371-1.461l2.273-.424.593-.1A.748.748,0,0,1,257,314.429Z" transform="translate(-98.695 -168.395)" fill="#263238"/>
      <path id="Trazado_150572" data-name="Trazado 150572" d="M257.116,311.36a1.66,1.66,0,0,1-.184.092l-.551.233c-.487.212-1.214.487-2.167.819a51.871,51.871,0,0,1-8.251,2.026,117.169,117.169,0,0,1-12.536,1.263c-4.736.268-9.938.551-15.4.762A244.345,244.345,0,0,1,190,316.223c-3.579-.261-6.458-.593-8.47-.84l-2.287-.318-.593-.092-.2-.042a.641.641,0,0,1,.2,0l.6.049,2.294.254c1.99.2,4.877.494,8.47.706a262.96,262.96,0,0,0,27.986.226c5.463-.212,10.665-.48,15.394-.706a122.333,122.333,0,0,0,12.493-1.186,56.551,56.551,0,0,0,8.251-1.906c.953-.311,1.687-.565,2.181-.755l.565-.2a.55.55,0,0,1,.226-.056Z" transform="translate(-98.789 -167.492)" fill="#263238"/>
      <path id="Trazado_150573" data-name="Trazado 150573" d="M136.911,381.749a1.193,1.193,0,0,1-.191-.226,6.562,6.562,0,0,1-.459-.706A8.794,8.794,0,0,1,135.2,377.9a13.03,13.03,0,0,1,.056-4.609,23.562,23.562,0,0,1,1.736-5.364,19.234,19.234,0,0,1,6.614-7.708,20.373,20.373,0,0,1,2.668-1.581c.325-.169.593-.275.769-.353s.268-.106.275-.092a9.921,9.921,0,0,1-.974.572,27.428,27.428,0,0,0-2.59,1.666,19.82,19.82,0,0,0-6.43,7.644,24.231,24.231,0,0,0-1.729,5.28,13.312,13.312,0,0,0-.141,4.5,9.635,9.635,0,0,0,.932,2.894C136.713,381.389,136.939,381.728,136.911,381.749Z" transform="translate(-86.013 -181.267)" fill="#263238"/>
    </g>
    <g id="freepik--Gavel--inject-101" transform="translate(254.693 244.34)">
      <rect id="Rectángulo_33447" data-name="Rectángulo 33447" width="43.155" height="3.402" transform="translate(33.479 41.776)" fill="#263238"/>
      <path id="Trazado_150574" data-name="Trazado 150574" d="M440.59,385.184H400.88a3.727,3.727,0,0,1,3.727-3.734h32.25a3.734,3.734,0,0,1,3.734,3.734Z" transform="translate(-365.58 -343.408)" fill="#455a64"/>
      <path id="Trazado_150575" data-name="Trazado 150575" d="M409.94,387.26a8.834,8.834,0,0,0-1.7.078,15.247,15.247,0,0,0-3.9,1.32,16.676,16.676,0,0,1-3.917,1.412,6.555,6.555,0,0,1-1.256.106h-.459a3.927,3.927,0,0,1,.459,0,7.171,7.171,0,0,0,1.242-.148,18.1,18.1,0,0,0,3.868-1.412,14.439,14.439,0,0,1,3.946-1.292,4.894,4.894,0,0,1,1.715-.064Z" transform="translate(-364.942 -345.103)" fill="#455a64"/>
      <path id="Trazado_150576" data-name="Trazado 150576" d="M408.57,390.42a7.016,7.016,0,0,1,.769-.628,10.961,10.961,0,0,1,2.372-1.313,11.858,11.858,0,0,1,3.924-.854,11.591,11.591,0,0,1,3.614.4,3.812,3.812,0,0,1,.621.212.755.755,0,0,1,.452.522.558.558,0,0,1-.409.551,4.457,4.457,0,0,1-.621.191q-.621.169-1.228.3a22.737,22.737,0,0,1-2.35.367,21.382,21.382,0,0,1-4.016,0,.762.762,0,0,1-.706-.4.4.4,0,0,1,.056-.4.981.981,0,0,1,.275-.24,3.528,3.528,0,0,1,1.094-.424,2.711,2.711,0,0,1,.988-.064h-.254a4,4,0,0,0-.706.1,3.884,3.884,0,0,0-1.059.445c-.184.106-.388.3-.289.529a.706.706,0,0,0,.642.332,23.434,23.434,0,0,0,4-.071,22.561,22.561,0,0,0,2.336-.374c.4-.085.8-.184,1.214-.3a5.521,5.521,0,0,0,.607-.184c.184-.071.346-.219.318-.4a.629.629,0,0,0-.374-.409,3.646,3.646,0,0,0-.593-.2,10.686,10.686,0,0,0-1.214-.268,11.181,11.181,0,0,0-2.35-.141,12.083,12.083,0,0,0-3.889.812,11.442,11.442,0,0,0-2.379,1.263c-.268.169-.459.339-.593.438Z" transform="translate(-367.842 -345.22)" fill="#455a64"/>
      <path id="Trazado_150577" data-name="Trazado 150577" d="M434.181,386.682c0,.035-.529,0-1.412.127a7.841,7.841,0,0,0-3.063,1.207,16.237,16.237,0,0,1-2.823,1.807,3.614,3.614,0,0,1-.988.261,1.411,1.411,0,0,1-.374,0,5.405,5.405,0,0,0,1.32-.374,18.415,18.415,0,0,0,2.788-1.828,7.44,7.44,0,0,1,3.134-1.186,6.491,6.491,0,0,1,1.023-.057,1.789,1.789,0,0,1,.4.042Z" transform="translate(-372.828 -344.934)" fill="#455a64"/>
      <path id="Trazado_150578" data-name="Trazado 150578" d="M452.015,388.229a1.814,1.814,0,0,1-.706.254,4.327,4.327,0,0,1-1.962-.155,14.825,14.825,0,0,0-2.823-.586c-1.087-.106-2.294-.113-3.529-.148a21.257,21.257,0,0,0-3.529.176,9.884,9.884,0,0,0-2.774.8,7.34,7.34,0,0,0-1.645,1.038c-.353.3-.522.494-.536.487a4.156,4.156,0,0,1,.5-.529,6.706,6.706,0,0,1,1.638-1.087,9.662,9.662,0,0,1,2.823-.847,20.6,20.6,0,0,1,3.572-.191c1.27.035,2.477.049,3.572.162a13.96,13.96,0,0,1,2.859.621,4.377,4.377,0,0,0,1.92.2,4.566,4.566,0,0,0,.621-.2Z" transform="translate(-375.473 -345.168)" fill="#455a64"/>
      <path id="Trazado_150579" data-name="Trazado 150579" d="M454,390.316a3.316,3.316,0,0,1-.5.12,6.639,6.639,0,0,1-1.412.071,25.98,25.98,0,0,1-4.531-.875,10.8,10.8,0,0,0-2.506-.311,6.2,6.2,0,0,0-2.012.339,4.941,4.941,0,0,0-1.616.974,2.39,2.39,0,0,1,.36-.367,4.314,4.314,0,0,1,1.221-.706,6.078,6.078,0,0,1,2.047-.381,11.294,11.294,0,0,1,2.534.3,29.441,29.441,0,0,0,4.51.925,8.26,8.26,0,0,0,1.412,0A4.23,4.23,0,0,1,454,390.316Z" transform="translate(-377.506 -345.682)" fill="#455a64"/>
      <path id="Trazado_150580" data-name="Trazado 150580" d="M351.081,378.841h0a3.233,3.233,0,0,0,4.136,1.878l54.469-20.173-2.732-5.386L353,374.648a3.233,3.233,0,0,0-1.92,4.193Z" transform="translate(-350.869 -335.674)" fill="#455a64"/>
      <path id="Trazado_150581" data-name="Trazado 150581" d="M424.248,338.2l2.054,6.691,20.935-7.143-1.835-6.727a3.939,3.939,0,0,0-2.336-2.619c-2.216-.889-5.541-1.412-10.588.134a13.545,13.545,0,0,0-7.941,6.564A3.875,3.875,0,0,0,424.248,338.2Z" transform="translate(-372.396 -327.553)" fill="#455a64"/>
      <path id="Trazado_150582" data-name="Trazado 150582" d="M448.111,340.881c.748,2.117-3.332,5.456-9.105,7.517s-11.06,2.04-11.8-.049,3.324-5.456,9.1-7.517S447.362,338.792,448.111,340.881Z" transform="translate(-373.298 -331.009)" fill="#263238"/>
      <path id="Trazado_150583" data-name="Trazado 150583" d="M449.445,344.87s-2.386-4.447-11.293-1.412c-7.242,2.492-7.9,6.176-7.891,7.454a2.524,2.524,0,0,0,.035.466l1.694,4.771a3.656,3.656,0,0,0,1.143,1.616l.339.275a3.684,3.684,0,0,0,3.769.529l11.893-5.075a3.677,3.677,0,0,0,2.23-3.374h0a3.677,3.677,0,0,0-.3-1.454Z" transform="translate(-374.223 -331.92)" fill="#455a64"/>
      <path id="Trazado_150584" data-name="Trazado 150584" d="M435.757,370.945,433.2,363.6s-1.115-5.738,9.176-8.95,12.557,3.663,12.557,3.663l2.117,6.162Z" transform="translate(-375.076 -335.274)" fill="#455a64"/>
      <path id="Trazado_150585" data-name="Trazado 150585" d="M457.959,367.532c.833,2.626-3.226,6.254-9.07,8.117s-11.293,1.235-12.091-1.412,3.226-6.254,9.07-8.11S457.126,364.913,457.959,367.532Z" transform="translate(-376.116 -338.588)" fill="#263238"/>
      <path id="Trazado_150586" data-name="Trazado 150586" d="M452.422,355.131a10.489,10.489,0,0,0-3.261-1.094,18.8,18.8,0,0,0-8.2,1.08,14.505,14.505,0,0,0-4.051,2.082,9.521,9.521,0,0,0-2.478,2.753,8.646,8.646,0,0,0-1.08,3.247v-.247a6.226,6.226,0,0,1,.049-.706,7.2,7.2,0,0,1,.833-2.442,9.373,9.373,0,0,1,2.5-2.887,14.115,14.115,0,0,1,4.143-2.16,17.743,17.743,0,0,1,8.357-.988,7.869,7.869,0,0,1,2.435.819,4.287,4.287,0,0,1,.593.374C452.365,355.067,452.429,355.117,452.422,355.131Z" transform="translate(-375.132 -335.214)" fill="#263238"/>
      <path id="Trazado_150587" data-name="Trazado 150587" d="M432.447,360.661a12.622,12.622,0,0,1-1.285-2.739,12.8,12.8,0,0,1-.953-2.873,12.62,12.62,0,0,1,1.263,2.717A12,12,0,0,1,432.447,360.661Z" transform="translate(-374.208 -335.642)" fill="#263238"/>
      <path id="Trazado_150588" data-name="Trazado 150588" d="M365.963,376.52l-.586.311a10.489,10.489,0,0,0-1.525.967,39.645,39.645,0,0,0-4.292,4.129,13.7,13.7,0,0,1-4.856,3.452,6.6,6.6,0,0,1-1.772.4,4.781,4.781,0,0,1-.663,0,4.832,4.832,0,0,0,.656-.064,7.135,7.135,0,0,0,1.743-.438,14.117,14.117,0,0,0,4.793-3.452,34.736,34.736,0,0,1,4.334-4.115,8.391,8.391,0,0,1,2.167-1.186Z" transform="translate(-351.281 -341.957)" fill="#263238"/>
      <path id="Trazado_150589" data-name="Trazado 150589" d="M383.414,373.616s-.191.056-.551.141-.889.226-1.56.416a45.267,45.267,0,0,0-5.611,1.955,1.158,1.158,0,0,0-.635.642.572.572,0,0,0,.325.755,1.969,1.969,0,0,0,1-.071l1.059-.247c1.412-.353,2.95-.8,4.517-1.341a48.85,48.85,0,0,0,4.814-1.976q1.228-.586,2.456-1.249a4.121,4.121,0,0,0,1.1-.833,1.249,1.249,0,0,0,.353-1.235,1.412,1.412,0,0,0-.988-.854,2.965,2.965,0,0,0-1.362,0c-.9.212-1.8.452-2.668.706-1.75.466-3.423.96-4.99,1.51a29.6,29.6,0,0,0-7.835,3.967,19.437,19.437,0,0,0-4.235,4.143c-.416.565-.706,1.023-.9,1.341s-.289.487-.289.487a12.987,12.987,0,0,1,1.115-1.856,19.171,19.171,0,0,1,4.235-4.193,29.646,29.646,0,0,1,7.856-4.009c1.567-.558,3.247-1.052,4.99-1.525.875-.233,1.765-.473,2.675-.706a3.071,3.071,0,0,1,1.412,0,1.567,1.567,0,0,1,1.094.946,1.412,1.412,0,0,1-.381,1.412,4.313,4.313,0,0,1-1.143.861c-.826.445-1.645.861-2.463,1.249a47.486,47.486,0,0,1-4.835,1.976,46.21,46.21,0,0,1-4.532,1.327l-1.059.247a2.117,2.117,0,0,1-1.066.064.628.628,0,0,1-.4-.374.783.783,0,0,1,0-.522,1.235,1.235,0,0,1,.706-.706,43.418,43.418,0,0,1,5.647-1.92C382.652,373.757,383.414,373.616,383.414,373.616Z" transform="translate(-355.738 -339.893)" fill="#263238"/>
      <path id="Trazado_150590" data-name="Trazado 150590" d="M410.139,361.3a7.989,7.989,0,0,0-1.165,1.136,16.5,16.5,0,0,0-1.962,3.423,11.236,11.236,0,0,1-2.167,3.317,4.129,4.129,0,0,1-1.355.932,7.447,7.447,0,0,0,1.285-1,12.182,12.182,0,0,0,2.118-3.317,15.529,15.529,0,0,1,2.012-3.416,4.546,4.546,0,0,1,1.235-1.073Z" transform="translate(-366.348 -337.48)" fill="#263238"/>
      <path id="Trazado_150591" data-name="Trazado 150591" d="M411,367.769a11.731,11.731,0,0,0,1.172-.889,10.009,10.009,0,0,0,3.367-6.049c.134-.9.106-1.461.141-1.461a2.961,2.961,0,0,1,0,.4,6.5,6.5,0,0,1-.063,1.08,9.466,9.466,0,0,1-3.4,6.113,6.215,6.215,0,0,1-.882.621,2.035,2.035,0,0,1-.332.191Z" transform="translate(-368.557 -336.913)" fill="#263238"/>
      <path id="Trazado_150592" data-name="Trazado 150592" d="M426.55,359.68a2.663,2.663,0,0,1-.487.071,11.327,11.327,0,0,0-1.306.226,12.218,12.218,0,0,0-7.157,4.708,11.282,11.282,0,0,0-.706,1.115,4.7,4.7,0,0,1-.254.416,8.61,8.61,0,0,1,.9-1.588,11.738,11.738,0,0,1,7.2-4.722A8.979,8.979,0,0,1,426.55,359.68Z" transform="translate(-370.216 -337.004)" fill="#263238"/>
      <path id="Trazado_150593" data-name="Trazado 150593" d="M443.52,349.849s-.12.035-.346.078l-1.009.2-1.588.3-.988.184a5.69,5.69,0,0,0-1.094.254c-.353.12-.741.431-.635.847a.988.988,0,0,0,1.016.614,18.607,18.607,0,0,0,2.943-.332,20.781,20.781,0,0,0,3.169-.854c.515-.184,1.136-.367,1.355-.9a1.334,1.334,0,0,0-.543-1.482,2.823,2.823,0,0,0-1.666-.4c-.586,0-1.165.071-1.736.127a21.748,21.748,0,0,0-3.233.536,11.463,11.463,0,0,0-4.906,2.463,8.252,8.252,0,0,0-2.174,3,7.911,7.911,0,0,0-.311.974c-.049.226-.085.346-.085.346a5.558,5.558,0,0,1,.339-1.341,8.11,8.11,0,0,1,2.16-3.056,11.455,11.455,0,0,1,4.941-2.513,21.136,21.136,0,0,1,3.254-.558c.572-.049,1.151-.106,1.743-.12a2.922,2.922,0,0,1,1.765.423,1.482,1.482,0,0,1,.593,1.652,1.37,1.37,0,0,1-.642.649,6.05,6.05,0,0,1-.8.332,21.424,21.424,0,0,1-3.19.847,18.867,18.867,0,0,1-2.972.318,1.094,1.094,0,0,1-1.122-.706.706.706,0,0,1,.169-.642,1.412,1.412,0,0,1,.536-.332,5.74,5.74,0,0,1,1.108-.247l1-.176,1.6-.275,1.009-.169Z" transform="translate(-374.643 -333.632)" fill="#263238"/>
      <path id="Trazado_150594" data-name="Trazado 150594" d="M452.446,346.318a5.092,5.092,0,0,1-.466-.289,10.94,10.94,0,0,0-1.313-.706,13.566,13.566,0,0,0-4.75-1.059,28.978,28.978,0,0,0-4.9.254l-1.482.176-.4.049h0l.4-.078,1.475-.226a26.564,26.564,0,0,1,4.941-.3,12.874,12.874,0,0,1,4.786,1.115A7.389,7.389,0,0,1,452.446,346.318Z" transform="translate(-376.794 -332.429)" fill="#263238"/>
      <path id="Trazado_150595" data-name="Trazado 150595" d="M446.018,336.051a5.109,5.109,0,0,0-.671-.607,5.887,5.887,0,0,0-2.216-1.052,8.033,8.033,0,0,0-3.628,0,19.057,19.057,0,0,0-4.235,1.56,40.4,40.4,0,0,1-4.136,1.821,10.164,10.164,0,0,1-3.642.628,6.621,6.621,0,0,1-2.435-.487,3.979,3.979,0,0,1-.8-.423l.212.1a5.77,5.77,0,0,0,.614.275,6.889,6.889,0,0,0,2.421.431,10.232,10.232,0,0,0,3.584-.649,41.056,41.056,0,0,0,4.124-1.829,19.016,19.016,0,0,1,4.235-1.56,8,8,0,0,1,3.677.035,5.724,5.724,0,0,1,2.23,1.1A3.6,3.6,0,0,1,446.018,336.051Z" transform="translate(-372.455 -329.468)" fill="#263238"/>
      <path id="Trazado_150596" data-name="Trazado 150596" d="M439.814,328.28a12.078,12.078,0,0,1-1.5,1.553,16.362,16.362,0,0,1-9.451,4.016,12.394,12.394,0,0,1-2.16,0,.4.4,0,0,1,.155,0h.424a14.82,14.82,0,0,0,1.574-.085,17.1,17.1,0,0,0,9.395-3.988c.5-.431.9-.8,1.151-1.073l.3-.3C439.772,328.308,439.807,328.273,439.814,328.28Z" transform="translate(-373.176 -327.767)" fill="#263238"/>
      <path id="Trazado_150597" data-name="Trazado 150597" d="M445.8,338.266s-.261-.169-.755-.424a9.113,9.113,0,0,0-2.216-.776,11.828,11.828,0,0,0-3.473-.169,19.354,19.354,0,0,0-4.164.925c-1.447.473-2.788,1.016-4.023,1.482s-2.365.854-3.332,1.122a18.349,18.349,0,0,1-2.308.5,7.053,7.053,0,0,1-.868.078h.219l.635-.1a19.617,19.617,0,0,0,2.294-.543c.96-.275,2.075-.706,3.31-1.151s2.576-1.016,4.03-1.5a18.542,18.542,0,0,1,4.235-.918,11.464,11.464,0,0,1,3.529.2,8.308,8.308,0,0,1,2.223.826A4.75,4.75,0,0,1,445.8,338.266Z" transform="translate(-372.575 -330.257)" fill="#263238"/>
      <path id="Trazado_150598" data-name="Trazado 150598" d="M455.262,360.56l-.353-.261a7.424,7.424,0,0,0-1.08-.663,7.531,7.531,0,0,0-4.51-.607,14.018,14.018,0,0,0-6.176,2.873,39.745,39.745,0,0,0-3.077,2.661l-1.567,1.482a5.6,5.6,0,0,1-1.842,1.263,2.555,2.555,0,0,1-2.209-.134,2.118,2.118,0,0,1-.911-1.927,4.553,4.553,0,0,1,.572-2.012,7.665,7.665,0,0,1,4.235-3.642,1.976,1.976,0,0,1,1.673.085.939.939,0,0,1,.388.706,1.588,1.588,0,0,1-.176.755,6.423,6.423,0,0,1-3.607,2.823,1.221,1.221,0,0,1-.706.056.438.438,0,0,1-.311-.416.346.346,0,0,1,.127-.3.241.241,0,0,1,.106-.035.3.3,0,0,0-.2.339.4.4,0,0,0,.3.374,1.179,1.179,0,0,0,.706-.071,6.528,6.528,0,0,0,1.772-.9,5.9,5.9,0,0,0,1.758-1.92,1.37,1.37,0,0,0,.162-.706.783.783,0,0,0-.346-.621,1.863,1.863,0,0,0-1.56-.064,7.588,7.588,0,0,0-3.035,1.99,5.78,5.78,0,0,0-1.7,3.529,1.983,1.983,0,0,0,.847,1.793,2.372,2.372,0,0,0,2.075.12,5.52,5.52,0,0,0,1.8-1.228l1.567-1.482a37.486,37.486,0,0,1,3.1-2.661,14.117,14.117,0,0,1,6.233-2.873,7.553,7.553,0,0,1,4.56.664,7.477,7.477,0,0,1,1.066.706C455.149,360.454,455.262,360.56,455.262,360.56Z" transform="translate(-375.184 -336.74)" fill="#263238"/>
      <path id="Trazado_150599" data-name="Trazado 150599" d="M459.413,363.5h-.134l-.381-.127a9.515,9.515,0,0,0-1.412-.367,11.524,11.524,0,0,0-2.117-.212,13.354,13.354,0,0,0-2.6.275,12.982,12.982,0,0,0-2.484.854,11.739,11.739,0,0,0-1.849,1.094,10.516,10.516,0,0,0-1.115.925l-.289.275-.106.085a8.292,8.292,0,0,1,1.412-1.369,10.91,10.91,0,0,1,1.849-1.129,11.385,11.385,0,0,1,5.16-1.143,10.444,10.444,0,0,1,2.153.247A8.562,8.562,0,0,1,459.413,363.5Z" transform="translate(-379.124 -337.88)" fill="#263238"/>
      <path id="Trazado_150600" data-name="Trazado 150600" d="M443.67,355.89a2.738,2.738,0,0,1,.466.078c.289.056.706.134,1.249.219a24,24,0,0,0,8.364-.085c.529-.092.953-.176,1.249-.247a3.32,3.32,0,0,1,.459-.085,4.109,4.109,0,0,1-.445.141q-.434.127-1.249.3a22.023,22.023,0,0,1-4.214.431,22.455,22.455,0,0,1-4.2-.36c-.529-.1-.96-.191-1.249-.268A3.4,3.4,0,0,1,443.67,355.89Z" transform="translate(-378.167 -335.854)" fill="#263238"/>
    </g>
    <g id="freepik--Table--inject-101" transform="translate(23.92 289.341)">
      <path id="Trazado_150635" data-name="Trazado 150635" d="M337.425,391.494c0,.1-70.188.184-156.745.184s-156.759-.085-156.759-.184,70.174-.184,156.759-.184S337.425,391.388,337.425,391.494Z" transform="translate(-23.92 -391.31)" fill="#263238"/>
    </g>
  </g>
</svg>
