<svg id="agreement" xmlns="http://www.w3.org/2000/svg" width="64.276" height="64.276" viewBox="0 0 64.276 64.276">
  <path id="Trazado_149577" data-name="Trazado 149577" d="M64.276,32.138A32.144,32.144,0,0,1,15.7,59.758c-.131-.078,1.427-1.056.4-2.481-.777-1.08-11.555-8.6-12.2-9.773A32.089,32.089,0,0,1,6.035,13.388,32.262,32.262,0,0,1,17.107,3.726a31.736,31.736,0,0,1,3.747-1.689,32.266,32.266,0,0,1,22.568,0A31.553,31.553,0,0,1,47.17,3.726l.267.144A32.17,32.17,0,0,1,64.276,32.138Z" fill="#7e5ee3"/>
  <g id="Grupo_75932" data-name="Grupo 75932" transform="translate(3.906 2.038)">
    <path id="Trazado_149578" data-name="Trazado 149578" d="M75.954,21.567v37.12h-8.2a5.337,5.337,0,0,0-5.337,5.338v8.238H40.357q-.232-.169-.459-.343A32.232,32.232,0,0,1,31.11,61.7V21.567a5.337,5.337,0,0,1,5.338-5.337H70.627a5.338,5.338,0,0,1,5.327,5.337Z" transform="translate(-31.11 -16.23)" fill="#faf7eb"/>
    <path id="Trazado_149579" data-name="Trazado 149579" d="M38.577,16.23a5.337,5.337,0,0,0-5.338,5.337V65.081A32.017,32.017,0,0,1,31.11,61.7V21.567a5.337,5.337,0,0,1,5.338-5.337Z" transform="translate(-31.11 -16.23)" fill="#ebe6db"/>
  </g>
  <g id="Grupo_75933" data-name="Grupo 75933" transform="translate(9.417 3.726)">
    <path id="Trazado_149580" data-name="Trazado 149580" d="M119.854,35.017v37.12h-8.2a5.337,5.337,0,0,0-5.337,5.338v8.238H81.292c-.131-.078-.261-.156-.39-.236q-1.354-.834-2.615-1.8a32.148,32.148,0,0,1-3.257-2.84c-.014-.153-.02-.309-.02-.466V35.017a5.337,5.337,0,0,1,5.338-5.337h34.169a5.336,5.336,0,0,1,5.33,5.094c.005.08.006.161.006.242Z" transform="translate(-75.01 -29.68)" fill="#faf7eb"/>
    <path id="Trazado_149581" data-name="Trazado 149581" d="M77.139,35.017V80.375a5.308,5.308,0,0,0,1.147,3.305,32.149,32.149,0,0,1-3.257-2.84c-.014-.153-.02-.309-.02-.466V35.017a5.337,5.337,0,0,1,5.338-5.337h2.129a5.331,5.331,0,0,0-5.338,5.337Z" transform="translate(-75.01 -29.68)" fill="#ebe6db"/>
  </g>
  <path id="Trazado_149582" data-name="Trazado 149582" d="M163.749,56.7v37.12a5.336,5.336,0,0,1-5.337,5.337H124.243a5.337,5.337,0,0,1-5.338-5.337V48.457a5.337,5.337,0,0,1,5.338-5.337h25.973v8.238a5.337,5.337,0,0,0,5.337,5.338Z" transform="translate(-103.978 -37.707)" fill="#faf7eb"/>
  <path id="Trazado_149583" data-name="Trazado 149583" d="M126.372,99.152h-2.129a5.337,5.337,0,0,1-5.338-5.337V48.457a5.337,5.337,0,0,1,5.338-5.337h2.129a5.337,5.337,0,0,0-5.338,5.337V93.815A5.337,5.337,0,0,0,126.372,99.152Z" transform="translate(-103.978 -37.707)" fill="#ebe6db"/>
  <path id="Trazado_149584" data-name="Trazado 149584" d="M381.848,56.7h-8.2a5.337,5.337,0,0,1-5.337-5.338V43.12Z" transform="translate(-322.077 -37.707)" fill="#ebe6db"/>
  <g id="Grupo_75935" data-name="Grupo 75935" transform="translate(26.728 15.498)">
    <g id="Grupo_75934" data-name="Grupo 75934" transform="translate(0.287)">
      <path id="Trazado_149585" data-name="Trazado 149585" d="M215.87,156.457a.676.676,0,0,1-.639-.9l2.7-7.8a.676.676,0,0,1,1.278,0l2.7,7.8a.676.676,0,1,1-1.277.442l-2.058-5.954L216.509,156A.676.676,0,0,1,215.87,156.457Z" transform="translate(-215.194 -144.309)" fill="#eebe61"/>
      <path id="Trazado_149586" data-name="Trazado 149586" d="M330.7,156.457a.676.676,0,0,1-.639-.455L328,150.048,325.945,156a.676.676,0,0,1-1.277-.442l2.7-7.8a.676.676,0,0,1,1.277,0l2.7,7.8a.676.676,0,0,1-.639.9Z" transform="translate(-310.892 -144.309)" fill="#eebe61"/>
      <path id="Trazado_149587" data-name="Trazado 149587" d="M291.293,123.453a.867.867,0,0,0-.867.867v15.012h1.734V124.32A.867.867,0,0,0,291.293,123.453Z" transform="translate(-280.981 -123.453)" fill="#eebe61"/>
    </g>
    <path id="Trazado_149588" data-name="Trazado 149588" d="M328.441,207.929h-7.706a3.66,3.66,0,0,0,3.66,3.66h.385A3.66,3.66,0,0,0,328.441,207.929Z" transform="translate(-307.199 -197.324)" fill="#f5dd62"/>
    <path id="Trazado_149589" data-name="Trazado 149589" d="M246.086,143.205H232.168a1.4,1.4,0,1,1,0-2.793h13.918a1.4,1.4,0,0,1,0,2.793Z" transform="translate(-228.528 -138.283)" fill="#f5dd62"/>
    <path id="Trazado_149590" data-name="Trazado 149590" d="M234.993,143.209h-2.825a1.4,1.4,0,1,1,0-2.793h2.825a1.4,1.4,0,1,0,0,2.793Z" transform="translate(-228.528 -138.286)" fill="#eebe61"/>
    <path id="Trazado_149591" data-name="Trazado 149591" d="M220.611,207.929h-7.705a3.66,3.66,0,0,0,3.66,3.66h.385A3.66,3.66,0,0,0,220.611,207.929Z" transform="translate(-212.906 -197.324)" fill="#f5dd62"/>
    <path id="Trazado_149592" data-name="Trazado 149592" d="M218.042,211.423a3.676,3.676,0,0,1-1.092.165h-.385a3.659,3.659,0,0,1-3.66-3.66h2.569a3.663,3.663,0,0,0,2.568,3.5Z" transform="translate(-212.905 -197.323)" fill="#eebe61"/>
    <path id="Trazado_149593" data-name="Trazado 149593" d="M325.871,211.423a3.676,3.676,0,0,1-1.092.165h-.385a3.659,3.659,0,0,1-3.66-3.66H323.3a3.663,3.663,0,0,0,2.568,3.5Z" transform="translate(-307.197 -197.323)" fill="#eebe61"/>
    <path id="Trazado_149594" data-name="Trazado 149594" d="M274.607,160.872a2.853,2.853,0,1,0,5.706,0" transform="translate(-266.861 -156.174)" fill="#f5dd62"/>
    <circle id="Elipse_4689" data-name="Elipse 4689" cx="1.156" cy="1.156" r="1.156" transform="translate(9.443 3.542)" fill="#eebe61"/>
    <path id="Trazado_149595" data-name="Trazado 149595" d="M271.98,246.212h-5.955a1.089,1.089,0,0,0,0,2.178h5.955a1.089,1.089,0,0,0,0-2.178Z" transform="translate(-258.404 -230.801)" fill="#eebe61"/>
  </g>
  <g id="Grupo_75936" data-name="Grupo 75936" transform="translate(19.252 37.107)">
    <path id="Trazado_149596" data-name="Trazado 149596" d="M187.857,298.962H155.044a1.691,1.691,0,0,1,0-3.382h32.813a1.691,1.691,0,0,1,0,3.382Z" transform="translate(-153.353 -295.58)" fill="#6b696f"/>
    <path id="Trazado_149597" data-name="Trazado 149597" d="M187.857,346.848H155.044a1.691,1.691,0,1,1,0-3.382h32.813a1.691,1.691,0,0,1,0,3.382Z" transform="translate(-153.353 -337.454)" fill="#6b696f"/>
    <path id="Trazado_149598" data-name="Trazado 149598" d="M171.45,394.734H155.044a1.691,1.691,0,0,1,0-3.382H171.45a1.691,1.691,0,1,1,0,3.382Z" transform="translate(-153.353 -379.329)" fill="#6b696f"/>
  </g>
</svg>
