<svg xmlns="http://www.w3.org/2000/svg" width="128" height="128" viewBox="0 0 128 128">
  <g id="Grupo_75800" data-name="Grupo 75800" transform="translate(374 9815)">
    <circle id="Elipse_4675" data-name="Elipse 4675" cx="64" cy="64" r="64" transform="translate(-374 -9815)" fill="#fff"/>
    <path id="Trazado_148459" data-name="Trazado 148459" d="M45.552,212.843H18.278V199.632a2.306,2.306,0,0,0-2.3-2.3H2.764v-44.6a1.382,1.382,0,0,0-2.764,0v45.978a1.386,1.386,0,0,0,.4.977L15.918,215.2a1.4,1.4,0,0,0,.977.4H45.552a1.382,1.382,0,0,0,0-2.764Zm-30.038-1.954-10.8-10.8h10.8Z" transform="translate(-349 -9924.085)" fill="#00bcd4"/>
    <path id="Trazado_148460" data-name="Trazado 148460" d="M74.986,173.44h41.081a1.382,1.382,0,0,0,0-2.764H74.986a1.382,1.382,0,0,0,0,2.764Z" transform="translate(-409.042 -9939.849)" fill="#00bcd4"/>
    <path id="Trazado_148461" data-name="Trazado 148461" d="M74.986,267.438h41.081a1.382,1.382,0,1,0,0-2.764H74.986a1.382,1.382,0,1,0,0,2.764Z" transform="translate(-409.042 -10016.527)" fill="#00bcd4"/>
    <path id="Trazado_148462" data-name="Trazado 148462" d="M74.986,361.437H93.463a1.382,1.382,0,1,0,0-2.764H74.986a1.382,1.382,0,1,0,0,2.764Z" transform="translate(-409.042 -10093.206)" fill="#00bcd4"/>
    <path id="Trazado_148463" data-name="Trazado 148463" d="M93.183,48.434,77.277,39.25a1.382,1.382,0,0,0-1.888.506l-4.422,7.659V20.191a2.306,2.306,0,0,0-2.3-2.3H58.415V14.229a2.306,2.306,0,0,0-2.3-2.3H51.524a2.306,2.306,0,0,0-2.3,2.3v3.658H21.748V14.229a2.306,2.306,0,0,0-2.3-2.3H14.857a2.306,2.306,0,0,0-2.3,2.3v3.658H2.3a2.306,2.306,0,0,0-2.3,2.3V32.549a1.382,1.382,0,1,0,2.764,0v-11.9h9.79v3.658a2.306,2.306,0,0,0,2.3,2.3h4.587a2.306,2.306,0,0,0,2.3-2.3V20.651H49.221v3.658a2.306,2.306,0,0,0,2.3,2.3h4.588a2.306,2.306,0,0,0,2.3-2.3V20.651H68.2V52.2L50.4,83.045a5.212,5.212,0,0,0,.8,6.264l-2.137,3.7a1.382,1.382,0,1,0,2.394,1.382l2.137-3.7a5.145,5.145,0,0,0,1.307.17,5.235,5.235,0,0,0,1.357-.18,5.175,5.175,0,0,0,3.163-2.427L68.2,73.039V99.107H52a1.382,1.382,0,0,0,0,2.764H68.664a2.306,2.306,0,0,0,2.3-2.3V68.252l6.546-11.337,8.08,4.665a2.312,2.312,0,0,0,3.451-2.325l-.675-4.836,4.526-1.834a2.315,2.315,0,0,0,.288-4.151Zm-74.2-24.585H15.318V14.69h3.666Zm36.668,0H51.985V14.69h3.666v9.159Zm21.44,18.486,4.236,2.445L63.94,74.895,59.7,72.449ZM57.025,86.872a2.445,2.445,0,0,1-4.236-2.446l5.533-9.584,4.236,2.446ZM87.007,51.988a2.313,2.313,0,0,0-1.424,2.466l.6,4.273-7.284-4.206,4.826-8.359,7.284,4.206Z" transform="translate(-349 -9810.351)" fill="#00bcd4"/>
  </g>
</svg>
