<svg id="hospital" xmlns="http://www.w3.org/2000/svg" width="129.068" height="134.863" viewBox="0 0 129.068 134.863">
  <g id="Grupo_75833" data-name="Grupo 75833" transform="translate(0 5.795)">
    <path id="Trazado_149436" data-name="Trazado 149436" d="M11,86.534a64.534,64.534,0,1,1,129.068,0Z" transform="translate(-11 -22)" fill="#3b3868"/>
  </g>
  <g id="Grupo_75834" data-name="Grupo 75834" transform="translate(0 36.063)">
    <path id="Trazado_149437" data-name="Trazado 149437" d="M33.39,220.048h84.288a64.385,64.385,0,0,0,22.39-48.872v-23.73a10.538,10.538,0,0,0-9.825-10.512q-.352-.024-.711-.024h-108q-.36,0-.711.024A10.538,10.538,0,0,0,11,147.446v23.73A64.386,64.386,0,0,0,33.39,220.048Z" transform="translate(-11 -136.91)" fill="#bec8f7"/>
  </g>
  <g id="Grupo_75840" data-name="Grupo 75840" transform="translate(102.727 43.966)">
    <g id="Grupo_75835" data-name="Grupo 75835" transform="translate(0 3.951)">
      <path id="Trazado_149438" data-name="Trazado 149438" d="M401,185.866l9.219-3.951,9.219,3.951v12.358a2.634,2.634,0,0,1-2.634,2.634h-13.17A2.634,2.634,0,0,1,401,198.224Z" transform="translate(-401 -181.915)" fill="#42c3fc"/>
    </g>
    <g id="Grupo_75836" data-name="Grupo 75836" transform="translate(0 4.516)">
      <path id="Trazado_149439" data-name="Trazado 149439" d="M408.9,199.8V184.058l-7.9,3.387V199.8a2.634,2.634,0,0,0,2.634,2.634h7.9A2.634,2.634,0,0,1,408.9,199.8Z" transform="translate(-401 -184.058)" fill="#1aa9e8"/>
    </g>
    <g id="Grupo_75837" data-name="Grupo 75837">
      <path id="Trazado_149440" data-name="Trazado 149440" d="M419.438,174.817H401v-5.268a2.634,2.634,0,0,1,2.634-2.634H416.8a2.634,2.634,0,0,1,2.634,2.634Z" transform="translate(-401 -166.915)" fill="#d3dcfb"/>
    </g>
    <g id="Grupo_75838" data-name="Grupo 75838">
      <path id="Trazado_149441" data-name="Trazado 149441" d="M411.536,166.915h-7.9A2.634,2.634,0,0,0,401,169.549v5.268h7.9v-5.268A2.634,2.634,0,0,1,411.536,166.915Z" transform="translate(-401 -166.915)" fill="#bec8f7"/>
    </g>
    <g id="Grupo_75839" data-name="Grupo 75839" transform="translate(3.951 2.634)">
      <path id="Trazado_149442" data-name="Trazado 149442" d="M425.219,179.549h-7.9a1.317,1.317,0,0,1,0-2.634h7.9a1.317,1.317,0,0,1,0,2.634Z" transform="translate(-416 -176.915)" fill="#bec8f7"/>
    </g>
  </g>
  <g id="Grupo_75846" data-name="Grupo 75846" transform="translate(102.727 70.811)">
    <g id="Grupo_75841" data-name="Grupo 75841" transform="translate(0 3.951)">
      <path id="Trazado_149443" data-name="Trazado 149443" d="M401,287.781l9.219-3.951,9.219,3.951v12.358a2.634,2.634,0,0,1-2.634,2.634h-13.17A2.634,2.634,0,0,1,401,300.139Z" transform="translate(-401 -283.83)" fill="#42c3fc"/>
    </g>
    <g id="Grupo_75842" data-name="Grupo 75842" transform="translate(0 4.516)">
      <path id="Trazado_149444" data-name="Trazado 149444" d="M408.9,301.717V285.973L401,289.36v12.358a2.634,2.634,0,0,0,2.634,2.634h7.9A2.634,2.634,0,0,1,408.9,301.717Z" transform="translate(-401 -285.973)" fill="#1aa9e8"/>
    </g>
    <g id="Grupo_75843" data-name="Grupo 75843">
      <path id="Trazado_149445" data-name="Trazado 149445" d="M419.438,276.732H401v-5.268a2.634,2.634,0,0,1,2.634-2.634H416.8a2.634,2.634,0,0,1,2.634,2.634Z" transform="translate(-401 -268.83)" fill="#d3dcfb"/>
    </g>
    <g id="Grupo_75844" data-name="Grupo 75844">
      <path id="Trazado_149446" data-name="Trazado 149446" d="M411.536,268.83h-7.9A2.634,2.634,0,0,0,401,271.464v5.268h7.9v-5.268A2.634,2.634,0,0,1,411.536,268.83Z" transform="translate(-401 -268.83)" fill="#bec8f7"/>
    </g>
    <g id="Grupo_75845" data-name="Grupo 75845" transform="translate(3.951 2.634)">
      <path id="Trazado_149447" data-name="Trazado 149447" d="M425.219,281.464h-7.9a1.317,1.317,0,1,1,0-2.634h7.9a1.317,1.317,0,1,1,0,2.634Z" transform="translate(-416 -278.83)" fill="#bec8f7"/>
    </g>
  </g>
  <g id="Grupo_75852" data-name="Grupo 75852" transform="translate(102.727 97.656)">
    <g id="Grupo_75847" data-name="Grupo 75847" transform="translate(0 3.951)">
      <path id="Trazado_149448" data-name="Trazado 149448" d="M416.88,388.6l-6.661-2.855L401,389.7v12.358a2.616,2.616,0,0,0,.338,1.285h3.6a64.868,64.868,0,0,0,11.94-13.646V388.6Z" transform="translate(-401 -385.745)" fill="#42c3fc"/>
    </g>
    <g id="Grupo_75848" data-name="Grupo 75848" transform="translate(0 4.516)">
      <path id="Trazado_149449" data-name="Trazado 149449" d="M404.942,404.918q2.057-1.775,3.96-3.714V387.888l-7.9,3.387v12.358a2.616,2.616,0,0,0,.338,1.285Z" transform="translate(-401 -387.888)" fill="#1aa9e8"/>
    </g>
    <g id="Grupo_75849" data-name="Grupo 75849">
      <path id="Trazado_149450" data-name="Trazado 149450" d="M419.438,374.381v-1a2.634,2.634,0,0,0-2.634-2.634h-13.17A2.634,2.634,0,0,0,401,373.378v5.268h15.88Q418.237,376.567,419.438,374.381Z" transform="translate(-401 -370.744)" fill="#d3dcfb"/>
    </g>
    <g id="Grupo_75850" data-name="Grupo 75850" transform="translate(0 0)">
      <path id="Trazado_149451" data-name="Trazado 149451" d="M411.536,370.745h-7.9A2.634,2.634,0,0,0,401,373.379v5.268h7.9v-5.268A2.634,2.634,0,0,1,411.536,370.745Z" transform="translate(-401 -370.745)" fill="#bec8f7"/>
    </g>
    <g id="Grupo_75851" data-name="Grupo 75851" transform="translate(3.951 2.634)">
      <path id="Trazado_149452" data-name="Trazado 149452" d="M425.219,383.379h-7.9a1.317,1.317,0,0,1,0-2.634h7.9a1.317,1.317,0,0,1,0,2.634Z" transform="translate(-416 -380.745)" fill="#bec8f7"/>
    </g>
  </g>
  <g id="Grupo_75858" data-name="Grupo 75858" transform="translate(7.902 43.966)">
    <g id="Grupo_75853" data-name="Grupo 75853" transform="translate(0 3.951)">
      <path id="Trazado_149453" data-name="Trazado 149453" d="M41,185.866l9.219-3.951,9.219,3.951v12.358a2.634,2.634,0,0,1-2.634,2.634H43.634A2.634,2.634,0,0,1,41,198.224Z" transform="translate(-41 -181.915)" fill="#42c3fc"/>
    </g>
    <g id="Grupo_75854" data-name="Grupo 75854" transform="translate(0 4.516)">
      <path id="Trazado_149454" data-name="Trazado 149454" d="M48.9,199.8V184.058L41,187.445V199.8a2.634,2.634,0,0,0,2.634,2.634h7.9A2.634,2.634,0,0,1,48.9,199.8Z" transform="translate(-41 -184.058)" fill="#1aa9e8"/>
    </g>
    <g id="Grupo_75855" data-name="Grupo 75855">
      <path id="Trazado_149455" data-name="Trazado 149455" d="M59.438,174.817H41v-5.268a2.634,2.634,0,0,1,2.634-2.634H56.8a2.634,2.634,0,0,1,2.634,2.634Z" transform="translate(-41 -166.915)" fill="#d3dcfb"/>
    </g>
    <g id="Grupo_75856" data-name="Grupo 75856">
      <path id="Trazado_149456" data-name="Trazado 149456" d="M51.536,166.915h-7.9A2.634,2.634,0,0,0,41,169.549v5.268h7.9v-5.268A2.634,2.634,0,0,1,51.536,166.915Z" transform="translate(-41 -166.915)" fill="#bec8f7"/>
    </g>
    <g id="Grupo_75857" data-name="Grupo 75857" transform="translate(3.951 2.634)">
      <path id="Trazado_149457" data-name="Trazado 149457" d="M65.219,179.549h-7.9a1.317,1.317,0,0,1,0-2.634h7.9a1.317,1.317,0,0,1,0,2.634Z" transform="translate(-56 -176.915)" fill="#bec8f7"/>
    </g>
  </g>
  <g id="Grupo_75864" data-name="Grupo 75864" transform="translate(7.902 70.811)">
    <g id="Grupo_75859" data-name="Grupo 75859" transform="translate(0 3.951)">
      <path id="Trazado_149458" data-name="Trazado 149458" d="M41,287.781l9.219-3.951,9.219,3.951v12.358a2.634,2.634,0,0,1-2.634,2.634H43.634A2.634,2.634,0,0,1,41,300.139Z" transform="translate(-41 -283.83)" fill="#42c3fc"/>
    </g>
    <g id="Grupo_75860" data-name="Grupo 75860" transform="translate(0 4.516)">
      <path id="Trazado_149459" data-name="Trazado 149459" d="M48.9,301.717V285.973L41,289.36v12.358a2.634,2.634,0,0,0,2.634,2.634h7.9A2.634,2.634,0,0,1,48.9,301.717Z" transform="translate(-41 -285.973)" fill="#1aa9e8"/>
    </g>
    <g id="Grupo_75861" data-name="Grupo 75861">
      <path id="Trazado_149460" data-name="Trazado 149460" d="M59.438,276.732H41v-5.268a2.634,2.634,0,0,1,2.634-2.634H56.8a2.634,2.634,0,0,1,2.634,2.634Z" transform="translate(-41 -268.83)" fill="#d3dcfb"/>
    </g>
    <g id="Grupo_75862" data-name="Grupo 75862">
      <path id="Trazado_149461" data-name="Trazado 149461" d="M51.536,268.83h-7.9A2.634,2.634,0,0,0,41,271.464v5.268h7.9v-5.268A2.634,2.634,0,0,1,51.536,268.83Z" transform="translate(-41 -268.83)" fill="#bec8f7"/>
    </g>
    <g id="Grupo_75863" data-name="Grupo 75863" transform="translate(3.951 2.634)">
      <path id="Trazado_149462" data-name="Trazado 149462" d="M65.219,281.464h-7.9a1.317,1.317,0,1,1,0-2.634h7.9a1.317,1.317,0,1,1,0,2.634Z" transform="translate(-56 -278.83)" fill="#bec8f7"/>
    </g>
  </g>
  <g id="Grupo_75870" data-name="Grupo 75870" transform="translate(7.902 97.656)">
    <g id="Grupo_75865" data-name="Grupo 75865" transform="translate(2.558 3.951)">
      <path id="Trazado_149463" data-name="Trazado 149463" d="M57.372,385.745,50.711,388.6v1.094a64.876,64.876,0,0,0,11.94,13.646h3.6a2.617,2.617,0,0,0,.338-1.285V389.7Z" transform="translate(-50.711 -385.745)" fill="#42c3fc"/>
    </g>
    <g id="Grupo_75866" data-name="Grupo 75866" transform="translate(2.558 4.516)">
      <path id="Trazado_149464" data-name="Trazado 149464" d="M50.711,390.178v1.094a64.679,64.679,0,0,0,5.344,7.082V387.888Z" transform="translate(-50.711 -387.888)" fill="#1aa9e8"/>
    </g>
    <g id="Grupo_75867" data-name="Grupo 75867">
      <path id="Trazado_149465" data-name="Trazado 149465" d="M56.8,370.745H43.634A2.634,2.634,0,0,0,41,373.379v1q1.2,2.186,2.558,4.266h15.88v-5.268A2.634,2.634,0,0,0,56.8,370.745Z" transform="translate(-41 -370.745)" fill="#d3dcfb"/>
    </g>
    <g id="Grupo_75868" data-name="Grupo 75868">
      <path id="Trazado_149466" data-name="Trazado 149466" d="M41,373.379v1q1.2,2.186,2.558,4.266H48.9v-5.268a2.634,2.634,0,0,1,2.634-2.634h-7.9A2.634,2.634,0,0,0,41,373.379Z" transform="translate(-41 -370.745)" fill="#bec8f7"/>
    </g>
    <g id="Grupo_75869" data-name="Grupo 75869" transform="translate(3.951 2.634)">
      <path id="Trazado_149467" data-name="Trazado 149467" d="M65.219,383.379h-7.9a1.317,1.317,0,0,1,0-2.634h7.9a1.317,1.317,0,1,1,0,2.634Z" transform="translate(-56 -380.745)" fill="#bec8f7"/>
    </g>
  </g>
  <g id="Grupo_75871" data-name="Grupo 75871" transform="translate(22.389 3.293)">
    <path id="Trazado_149468" data-name="Trazado 149468" d="M180.289,12.5V128.408a64.534,64.534,0,0,1-84.289,0V12.5Z" transform="translate(-96 -12.5)" fill="#e9efff"/>
  </g>
  <g id="Grupo_75872" data-name="Grupo 75872" transform="translate(22.389 3.293)">
    <path id="Trazado_149469" data-name="Trazado 149469" d="M117.072,12.5V140.551A64.438,64.438,0,0,1,96,128.408V12.5Z" transform="translate(-96 -12.5)" fill="#d3dcfb"/>
  </g>
  <g id="Grupo_75873" data-name="Grupo 75873" transform="translate(32.925 70.811)">
    <path id="Trazado_149470" data-name="Trazado 149470" d="M136,271.464v9.878a2.634,2.634,0,0,0,2.634,2.634h57.949a2.634,2.634,0,0,0,2.634-2.634v-9.878a2.634,2.634,0,0,0-2.634-2.634H138.634A2.634,2.634,0,0,0,136,271.464Z" transform="translate(-136 -268.83)" fill="#d3dcfb"/>
  </g>
  <g id="Grupo_75874" data-name="Grupo 75874" transform="translate(36.877 74.762)">
    <path id="Trazado_149471" data-name="Trazado 149471" d="M0,0H7.244V55.315H0Z" transform="translate(55.315 0) rotate(90)" fill="#8ae1ff"/>
  </g>
  <g id="Grupo_75875" data-name="Grupo 75875" transform="translate(36.877 74.762)">
    <path id="Trazado_149472" data-name="Trazado 149472" d="M158.9,287.452a3.622,3.622,0,0,1,3.622-3.622H151v7.244h11.524A3.622,3.622,0,0,1,158.9,287.452Z" transform="translate(-151 -283.83)" fill="#42c3fc"/>
  </g>
  <g id="Grupo_75876" data-name="Grupo 75876" transform="translate(40.169 93.2)">
    <path id="Trazado_149473" data-name="Trazado 149473" d="M163.5,353.83v35.695l1.964,1.964a64.312,64.312,0,0,0,20.426,3.97l1.975-1.777,1.975,1.777a64.311,64.311,0,0,0,20.426-3.97l1.964-1.964V353.83Z" transform="translate(-163.5 -353.83)" fill="#8ae1ff"/>
  </g>
  <g id="Grupo_75877" data-name="Grupo 75877" transform="translate(40.169 93.2)">
    <path id="Trazado_149474" data-name="Trazado 149474" d="M211.988,389.766,176.052,353.83H163.5v1.333l38.722,38.722a64.2,64.2,0,0,0,8.042-2.394Z" transform="translate(-163.5 -353.83)" fill="#42c3fc"/>
  </g>
  <g id="Grupo_75878" data-name="Grupo 75878" transform="translate(60.751 93.2)">
    <path id="Trazado_149475" data-name="Trazado 149475" d="M269.787,381.978v-6.19L247.829,353.83h-6.19Z" transform="translate(-241.639 -353.83)" fill="#42c3fc"/>
  </g>
  <g id="Grupo_75879" data-name="Grupo 75879" transform="translate(40.169 112.429)">
    <path id="Trazado_149476" data-name="Trazado 149476" d="M163.5,433.019l15.656,15.656a64.838,64.838,0,0,0,6.746.556l-22.4-22.4Z" transform="translate(-163.5 -426.829)" fill="#42c3fc"/>
  </g>
  <g id="Grupo_75880" data-name="Grupo 75880" transform="translate(62.558 93.2)">
    <path id="Trazado_149477" data-name="Trazado 149477" d="M248.5,395.46c.656.02,1.314.033,1.976.033s1.319-.013,1.976-.033V353.83H248.5Z" transform="translate(-248.5 -353.83)" fill="#d3dcfb"/>
  </g>
  <g id="Grupo_75881" data-name="Grupo 75881" transform="translate(86.923 93.2)">
    <path id="Trazado_149478" data-name="Trazado 149478" d="M341,391.5q2.008-.743,3.951-1.613V353.83H341Z" transform="translate(-341 -353.83)" fill="#d3dcfb"/>
  </g>
  <g id="Grupo_75882" data-name="Grupo 75882" transform="translate(38.194 93.2)">
    <path id="Trazado_149479" data-name="Trazado 149479" d="M156,389.887q1.943.87,3.951,1.613V353.83H156Z" transform="translate(-156 -353.83)" fill="#bec8f7"/>
  </g>
  <g id="Grupo_75883" data-name="Grupo 75883" transform="translate(32.925 89.908)">
    <path id="Trazado_149480" data-name="Trazado 149480" d="M195.924,347.915H139.293a3.293,3.293,0,0,1,0-6.585h56.632a3.293,3.293,0,1,1,0,6.585Z" transform="translate(-136 -341.33)" fill="#d3dcfb"/>
  </g>
  <g id="Grupo_75884" data-name="Grupo 75884" transform="translate(32.925 89.908)">
    <path id="Trazado_149481" data-name="Trazado 149481" d="M147.853,344.623a3.292,3.292,0,0,1,3.293-3.293H139.293a3.293,3.293,0,0,0,0,6.585h11.853A3.293,3.293,0,0,1,147.853,344.623Z" transform="translate(-136 -341.33)" fill="#bec8f7"/>
  </g>
  <g id="Grupo_75885" data-name="Grupo 75885" transform="translate(19.097 0)">
    <path id="Trazado_149482" data-name="Trazado 149482" d="M171.082,6.585H86.793a3.293,3.293,0,0,1,0-6.585h84.289a3.293,3.293,0,0,1,0,6.585Z" transform="translate(-83.5)" fill="#d3dcfb"/>
  </g>
  <g id="Grupo_75886" data-name="Grupo 75886" transform="translate(19.097 0)">
    <path id="Trazado_149483" data-name="Trazado 149483" d="M104.572,3.293A3.292,3.292,0,0,1,107.865,0H86.793a3.293,3.293,0,0,0,0,6.585h21.072A3.292,3.292,0,0,1,104.572,3.293Z" transform="translate(-83.5)" fill="#bec8f7"/>
  </g>
  <g id="Grupo_75887" data-name="Grupo 75887" transform="translate(48.73 77.396)">
    <ellipse id="Elipse_4686" data-name="Elipse 4686" cx="15.804" cy="15.804" rx="15.804" ry="15.804" fill="#fff"/>
  </g>
  <g id="Grupo_75888" data-name="Grupo 75888" transform="translate(48.73 77.396)">
    <path id="Trazado_149484" data-name="Trazado 149484" d="M209.829,323.463a1.976,1.976,0,0,1,1.976-1.975V297.781a1.976,1.976,0,1,1,0-3.951,15.8,15.8,0,0,0,0,31.608A1.976,1.976,0,0,1,209.829,323.463Z" transform="translate(-196 -293.83)" fill="#d3dcfb"/>
  </g>
  <g id="Grupo_75889" data-name="Grupo 75889" transform="translate(52.681 81.347)">
    <ellipse id="Elipse_4687" data-name="Elipse 4687" cx="11.853" cy="11.853" rx="11.853" ry="11.853" fill="#ff4155"/>
  </g>
  <g id="Grupo_75890" data-name="Grupo 75890" transform="translate(52.681 81.347)">
    <path id="Trazado_149485" data-name="Trazado 149485" d="M220.878,330.561a1.976,1.976,0,0,1,1.976-1.975v-15.8a1.976,1.976,0,1,1,0-3.951,11.853,11.853,0,0,0,0,23.706A1.976,1.976,0,0,1,220.878,330.561Z" transform="translate(-211 -308.83)" fill="#e80054"/>
  </g>
  <g id="Grupo_75891" data-name="Grupo 75891" transform="translate(56.632 85.298)">
    <path id="Trazado_149486" data-name="Trazado 149486" d="M240.487,328.44h-3.293v-3.293a1.317,1.317,0,0,0-1.317-1.317h-3.951a1.317,1.317,0,0,0-1.317,1.317v3.293h-3.293A1.317,1.317,0,0,0,226,329.757v3.951a1.317,1.317,0,0,0,1.317,1.317h3.293v3.293a1.317,1.317,0,0,0,1.317,1.317h3.951a1.317,1.317,0,0,0,1.317-1.317v-3.293h3.293a1.317,1.317,0,0,0,1.317-1.317v-3.951A1.317,1.317,0,0,0,240.487,328.44Z" transform="translate(-226 -323.83)" fill="#fff"/>
  </g>
  <g id="Grupo_75892" data-name="Grupo 75892" transform="translate(56.632 85.298)">
    <path id="Trazado_149487" data-name="Trazado 149487" d="M235.878,335.025a3.293,3.293,0,1,1,0-6.585h1.317v-3.293a1.317,1.317,0,0,0-1.317-1.317h-3.951a1.317,1.317,0,0,0-1.317,1.317v3.293h-3.293A1.317,1.317,0,0,0,226,329.757v3.951a1.317,1.317,0,0,0,1.317,1.317h3.293v3.293a1.317,1.317,0,0,0,1.317,1.317h3.951a1.317,1.317,0,0,0,1.317-1.317v-3.293Z" transform="translate(-226 -323.83)" fill="#e9efff"/>
  </g>
  <g id="Grupo_75898" data-name="Grupo 75898" transform="translate(32.925 17.121)">
    <g id="Grupo_75893" data-name="Grupo 75893" transform="translate(0 3.951)">
      <path id="Trazado_149488" data-name="Trazado 149488" d="M136,83.951,145.219,80l9.219,3.951V96.309a2.634,2.634,0,0,1-2.634,2.634h-13.17A2.634,2.634,0,0,1,136,96.309Z" transform="translate(-136 -80)" fill="#8ae1ff"/>
    </g>
    <g id="Grupo_75894" data-name="Grupo 75894" transform="translate(0 4.516)">
      <path id="Trazado_149489" data-name="Trazado 149489" d="M143.9,97.887V82.143L136,85.53V97.887a2.634,2.634,0,0,0,2.634,2.634h7.9A2.634,2.634,0,0,1,143.9,97.887Z" transform="translate(-136 -82.143)" fill="#42c3fc"/>
    </g>
    <g id="Grupo_75895" data-name="Grupo 75895">
      <path id="Trazado_149490" data-name="Trazado 149490" d="M154.438,72.9H136V67.634A2.634,2.634,0,0,1,138.634,65H151.8a2.634,2.634,0,0,1,2.634,2.634Z" transform="translate(-136 -65)" fill="#d3dcfb"/>
    </g>
    <g id="Grupo_75896" data-name="Grupo 75896">
      <path id="Trazado_149491" data-name="Trazado 149491" d="M146.536,65h-7.9A2.634,2.634,0,0,0,136,67.634V72.9h7.9V67.634A2.634,2.634,0,0,1,146.536,65Z" transform="translate(-136 -65)" fill="#bec8f7"/>
    </g>
    <g id="Grupo_75897" data-name="Grupo 75897" transform="translate(3.951 2.634)">
      <path id="Trazado_149492" data-name="Trazado 149492" d="M160.219,77.634h-7.9a1.317,1.317,0,1,1,0-2.634h7.9a1.317,1.317,0,1,1,0,2.634Z" transform="translate(-151 -75)" fill="#bec8f7"/>
    </g>
  </g>
  <g id="Grupo_75904" data-name="Grupo 75904" transform="translate(55.315 17.121)">
    <g id="Grupo_75899" data-name="Grupo 75899" transform="translate(0 3.951)">
      <path id="Trazado_149493" data-name="Trazado 149493" d="M221,83.951,230.219,80l9.219,3.951V96.309a2.634,2.634,0,0,1-2.634,2.634h-13.17A2.634,2.634,0,0,1,221,96.309Z" transform="translate(-221 -80)" fill="#8ae1ff"/>
    </g>
    <g id="Grupo_75900" data-name="Grupo 75900" transform="translate(0 4.516)">
      <path id="Trazado_149494" data-name="Trazado 149494" d="M228.9,97.887V82.143L221,85.53V97.887a2.634,2.634,0,0,0,2.634,2.634h7.9A2.634,2.634,0,0,1,228.9,97.887Z" transform="translate(-221 -82.143)" fill="#42c3fc"/>
    </g>
    <g id="Grupo_75901" data-name="Grupo 75901">
      <path id="Trazado_149495" data-name="Trazado 149495" d="M239.438,72.9H221V67.634A2.634,2.634,0,0,1,223.634,65H236.8a2.634,2.634,0,0,1,2.634,2.634Z" transform="translate(-221 -65)" fill="#d3dcfb"/>
    </g>
    <g id="Grupo_75902" data-name="Grupo 75902">
      <path id="Trazado_149496" data-name="Trazado 149496" d="M231.536,65h-7.9A2.634,2.634,0,0,0,221,67.634V72.9h7.9V67.634A2.634,2.634,0,0,1,231.536,65Z" transform="translate(-221 -65)" fill="#bec8f7"/>
    </g>
    <g id="Grupo_75903" data-name="Grupo 75903" transform="translate(3.951 2.634)">
      <path id="Trazado_149497" data-name="Trazado 149497" d="M245.219,77.634h-7.9a1.317,1.317,0,0,1,0-2.634h7.9a1.317,1.317,0,0,1,0,2.634Z" transform="translate(-236 -75)" fill="#bec8f7"/>
    </g>
  </g>
  <g id="Grupo_75910" data-name="Grupo 75910" transform="translate(77.704 17.121)">
    <g id="Grupo_75905" data-name="Grupo 75905" transform="translate(0 3.951)">
      <path id="Trazado_149498" data-name="Trazado 149498" d="M306,83.951,315.219,80l9.219,3.951V96.309a2.634,2.634,0,0,1-2.634,2.634h-13.17A2.634,2.634,0,0,1,306,96.309Z" transform="translate(-306 -80)" fill="#8ae1ff"/>
    </g>
    <g id="Grupo_75906" data-name="Grupo 75906" transform="translate(0 4.516)">
      <path id="Trazado_149499" data-name="Trazado 149499" d="M313.9,97.887V82.143L306,85.53V97.887a2.634,2.634,0,0,0,2.634,2.634h7.9A2.634,2.634,0,0,1,313.9,97.887Z" transform="translate(-306 -82.143)" fill="#42c3fc"/>
    </g>
    <g id="Grupo_75907" data-name="Grupo 75907">
      <path id="Trazado_149500" data-name="Trazado 149500" d="M324.438,72.9H306V67.634A2.634,2.634,0,0,1,308.634,65H321.8a2.634,2.634,0,0,1,2.634,2.634Z" transform="translate(-306 -65)" fill="#d3dcfb"/>
    </g>
    <g id="Grupo_75908" data-name="Grupo 75908">
      <path id="Trazado_149501" data-name="Trazado 149501" d="M316.536,65h-7.9A2.634,2.634,0,0,0,306,67.634V72.9h7.9V67.634A2.634,2.634,0,0,1,316.536,65Z" transform="translate(-306 -65)" fill="#bec8f7"/>
    </g>
    <g id="Grupo_75909" data-name="Grupo 75909" transform="translate(3.951 2.634)">
      <path id="Trazado_149502" data-name="Trazado 149502" d="M330.219,77.634h-7.9a1.317,1.317,0,0,1,0-2.634h7.9a1.317,1.317,0,0,1,0,2.634Z" transform="translate(-321 -75)" fill="#bec8f7"/>
    </g>
  </g>
  <g id="Grupo_75916" data-name="Grupo 75916" transform="translate(32.925 43.966)">
    <g id="Grupo_75911" data-name="Grupo 75911" transform="translate(0 3.951)">
      <path id="Trazado_149503" data-name="Trazado 149503" d="M136,185.866l9.219-3.951,9.219,3.951v12.358a2.634,2.634,0,0,1-2.634,2.634h-13.17A2.634,2.634,0,0,1,136,198.224Z" transform="translate(-136 -181.915)" fill="#8ae1ff"/>
    </g>
    <g id="Grupo_75912" data-name="Grupo 75912" transform="translate(0 4.516)">
      <path id="Trazado_149504" data-name="Trazado 149504" d="M143.9,199.8V184.058l-7.9,3.387V199.8a2.634,2.634,0,0,0,2.634,2.634h7.9A2.634,2.634,0,0,1,143.9,199.8Z" transform="translate(-136 -184.058)" fill="#42c3fc"/>
    </g>
    <g id="Grupo_75913" data-name="Grupo 75913">
      <path id="Trazado_149505" data-name="Trazado 149505" d="M154.438,174.817H136v-5.268a2.634,2.634,0,0,1,2.634-2.634H151.8a2.634,2.634,0,0,1,2.634,2.634Z" transform="translate(-136 -166.915)" fill="#d3dcfb"/>
    </g>
    <g id="Grupo_75914" data-name="Grupo 75914">
      <path id="Trazado_149506" data-name="Trazado 149506" d="M146.536,166.915h-7.9A2.634,2.634,0,0,0,136,169.549v5.268h7.9v-5.268A2.634,2.634,0,0,1,146.536,166.915Z" transform="translate(-136 -166.915)" fill="#bec8f7"/>
    </g>
    <g id="Grupo_75915" data-name="Grupo 75915" transform="translate(3.951 2.634)">
      <path id="Trazado_149507" data-name="Trazado 149507" d="M160.219,179.549h-7.9a1.317,1.317,0,1,1,0-2.634h7.9a1.317,1.317,0,0,1,0,2.634Z" transform="translate(-151 -176.915)" fill="#bec8f7"/>
    </g>
  </g>
  <g id="Grupo_75922" data-name="Grupo 75922" transform="translate(55.315 43.966)">
    <g id="Grupo_75917" data-name="Grupo 75917" transform="translate(0 3.951)">
      <path id="Trazado_149508" data-name="Trazado 149508" d="M221,185.866l9.219-3.951,9.219,3.951v12.358a2.634,2.634,0,0,1-2.634,2.634h-13.17A2.634,2.634,0,0,1,221,198.224Z" transform="translate(-221 -181.915)" fill="#8ae1ff"/>
    </g>
    <g id="Grupo_75918" data-name="Grupo 75918" transform="translate(0 4.516)">
      <path id="Trazado_149509" data-name="Trazado 149509" d="M228.9,199.8V184.058l-7.9,3.387V199.8a2.634,2.634,0,0,0,2.634,2.634h7.9A2.634,2.634,0,0,1,228.9,199.8Z" transform="translate(-221 -184.058)" fill="#42c3fc"/>
    </g>
    <g id="Grupo_75919" data-name="Grupo 75919">
      <path id="Trazado_149510" data-name="Trazado 149510" d="M239.438,174.817H221v-5.268a2.634,2.634,0,0,1,2.634-2.634H236.8a2.634,2.634,0,0,1,2.634,2.634Z" transform="translate(-221 -166.915)" fill="#d3dcfb"/>
    </g>
    <g id="Grupo_75920" data-name="Grupo 75920">
      <path id="Trazado_149511" data-name="Trazado 149511" d="M231.536,166.915h-7.9A2.634,2.634,0,0,0,221,169.549v5.268h7.9v-5.268A2.634,2.634,0,0,1,231.536,166.915Z" transform="translate(-221 -166.915)" fill="#bec8f7"/>
    </g>
    <g id="Grupo_75921" data-name="Grupo 75921" transform="translate(3.951 2.634)">
      <path id="Trazado_149512" data-name="Trazado 149512" d="M245.219,179.549h-7.9a1.317,1.317,0,0,1,0-2.634h7.9a1.317,1.317,0,0,1,0,2.634Z" transform="translate(-236 -176.915)" fill="#bec8f7"/>
    </g>
  </g>
  <g id="Grupo_75928" data-name="Grupo 75928" transform="translate(77.704 43.966)">
    <g id="Grupo_75923" data-name="Grupo 75923" transform="translate(0 3.951)">
      <path id="Trazado_149513" data-name="Trazado 149513" d="M306,185.866l9.219-3.951,9.219,3.951v12.358a2.634,2.634,0,0,1-2.634,2.634h-13.17A2.634,2.634,0,0,1,306,198.224Z" transform="translate(-306 -181.915)" fill="#8ae1ff"/>
    </g>
    <g id="Grupo_75924" data-name="Grupo 75924" transform="translate(0 4.516)">
      <path id="Trazado_149514" data-name="Trazado 149514" d="M313.9,199.8V184.058l-7.9,3.387V199.8a2.634,2.634,0,0,0,2.634,2.634h7.9A2.634,2.634,0,0,1,313.9,199.8Z" transform="translate(-306 -184.058)" fill="#42c3fc"/>
    </g>
    <g id="Grupo_75925" data-name="Grupo 75925">
      <path id="Trazado_149515" data-name="Trazado 149515" d="M324.438,174.817H306v-5.268a2.634,2.634,0,0,1,2.634-2.634H321.8a2.634,2.634,0,0,1,2.634,2.634Z" transform="translate(-306 -166.915)" fill="#d3dcfb"/>
    </g>
    <g id="Grupo_75926" data-name="Grupo 75926">
      <path id="Trazado_149516" data-name="Trazado 149516" d="M316.536,166.915h-7.9A2.634,2.634,0,0,0,306,169.549v5.268h7.9v-5.268A2.634,2.634,0,0,1,316.536,166.915Z" transform="translate(-306 -166.915)" fill="#bec8f7"/>
    </g>
    <g id="Grupo_75927" data-name="Grupo 75927" transform="translate(3.951 2.634)">
      <path id="Trazado_149517" data-name="Trazado 149517" d="M330.219,179.549h-7.9a1.317,1.317,0,0,1,0-2.634h7.9a1.317,1.317,0,0,1,0,2.634Z" transform="translate(-321 -176.915)" fill="#bec8f7"/>
    </g>
  </g>
</svg>
