<svg xmlns="http://www.w3.org/2000/svg" width="451.282" height="437.899" viewBox="0 0 451.282 437.899">
  <g id="Annotation-pana" transform="translate(-27.408 -38.48)">
    <g id="freepik--background-complete--inject-2">
      <rect id="Rectángulo_33108" data-name="Rectángulo 33108" width="84.99" height="123.2" transform="translate(40.1 38.48)" fill="#e0e0e0"/>
      <rect id="Rectángulo_33109" data-name="Rectángulo 33109" width="84.99" height="123.2" transform="translate(35.84 38.48)" fill="#f5f5f5"/>
      <rect id="Rectángulo_33110" data-name="Rectángulo 33110" width="63.88" height="96.51" transform="translate(46.4 51.83)" fill="#fff"/>
      <path id="Trazado_148216" data-name="Trazado 148216" d="M110.28,148.34V141.2c0-4.62,0-11.36-.06-19.88,0-17-.06-41.11-.1-69.49l.21.21H46.46l.23-.23v96.51l-.19-.19,46.5.1,12.84.05h.07l-12.8.05-46.61.09h-.18V51.6h64.32v.21c0,28.43-.08,52.58-.1,69.63,0,8.5,0,15.22-.06,19.83v6.6A.553.553,0,0,1,110.28,148.34Z" fill="#e0e0e0"/>
      <path id="Trazado_148217" data-name="Trazado 148217" d="M121.08,38.48a15,15,0,0,1-1.52,2.21c-1,1.32-2.39,3.11-4,5.05s-3.09,3.67-4.2,4.89a14.37,14.37,0,0,1-1.87,1.91,15,15,0,0,1,1.63-2.13l4.09-5,4.09-5a16.67,16.67,0,0,1,1.78-1.93Z" fill="#e0e0e0"/>
      <path id="Trazado_148218" data-name="Trazado 148218" d="M110.6,148a79.171,79.171,0,0,0,11.15,14" fill="#fff"/>
      <path id="Trazado_148219" data-name="Trazado 148219" d="M121.75,162a12.35,12.35,0,0,1-2-1.77,61,61,0,0,1-4.2-4.74,58.928,58.928,0,0,1-3.7-5.14,13.36,13.36,0,0,1-1.3-2.28,16.48,16.48,0,0,1,1.57,2.1c.94,1.31,2.25,3.11,3.79,5s3,3.61,4.08,4.81a18.169,18.169,0,0,1,1.76,2.02Z" fill="#e0e0e0"/>
      <path id="Trazado_148220" data-name="Trazado 148220" d="M35.83,161.58,47,147.85" fill="#fff"/>
      <path id="Trazado_148221" data-name="Trazado 148221" d="M47,147.85a84.357,84.357,0,0,1-5.38,7,85.9,85.9,0,0,1-5.75,6.72,83.3,83.3,0,0,1,5.39-7A87.2,87.2,0,0,1,47,147.85Z" fill="#e0e0e0"/>
      <path id="Trazado_148222" data-name="Trazado 148222" d="M35.84,38.48a78.74,78.74,0,0,1,5.41,6.46,77.92,77.92,0,0,1,5,6.75,76.707,76.707,0,0,1-5.41-6.46,77.92,77.92,0,0,1-5-6.75Z" fill="#e0e0e0"/>
      <rect id="Rectángulo_33111" data-name="Rectángulo 33111" width="21.39" height="60.73" transform="translate(68.99 71.42)" fill="#e0e0e0"/>
      <rect id="Rectángulo_33112" data-name="Rectángulo 33112" width="67.98" height="70.86" transform="translate(389.07 38.55)" fill="#e0e0e0"/>
      <rect id="Rectángulo_33113" data-name="Rectángulo 33113" width="67.98" height="70.86" transform="translate(384.47 38.55)" fill="#fafafa"/>
      <path id="Trazado_148223" data-name="Trazado 148223" d="M452.47,109.43h-68V38.52h68Zm-68,0H452.4V38.57H384.49Z" fill="#e0e0e0"/>
      <rect id="Rectángulo_33114" data-name="Rectángulo 33114" width="49.7" height="51.81" transform="translate(393.61 48.07)" fill="#fff"/>
      <path id="Trazado_148224" data-name="Trazado 148224" d="M393.61,100.23a9,9,0,0,1-1.23,1.42c-.79.84-1.91,2-3.16,3.2s-2.4,2.33-3.25,3.11a8.088,8.088,0,0,1-1.43,1.2,7.461,7.461,0,0,1,1.22-1.42c.79-.84,1.91-2,3.16-3.21s2.41-2.34,3.26-3.11A7.219,7.219,0,0,1,393.61,100.23Z" fill="#e0e0e0"/>
      <path id="Trazado_148225" data-name="Trazado 148225" d="M443.31,100.1a8.091,8.091,0,0,1,1.42,1.22c.84.8,2,1.91,3.21,3.16s2.33,2.4,3.1,3.25a7.907,7.907,0,0,1,1.2,1.44,8.54,8.54,0,0,1-1.42-1.22c-.84-.8-2-1.91-3.21-3.17s-2.33-2.4-3.11-3.25a7.579,7.579,0,0,1-1.19-1.43Z" fill="#e0e0e0"/>
      <path id="Trazado_148226" data-name="Trazado 148226" d="M443.17,48.21a7.76,7.76,0,0,1,1.23-1.43c.79-.83,1.91-2,3.16-3.2s2.4-2.33,3.24-3.11a7.42,7.42,0,0,1,1.44-1.19A8.539,8.539,0,0,1,451,40.7c-.79.83-1.91,2-3.17,3.21s-2.4,2.33-3.25,3.11a7.581,7.581,0,0,1-1.41,1.19Z" fill="#e0e0e0"/>
      <path id="Trazado_148227" data-name="Trazado 148227" d="M393.47,48.34A8.29,8.29,0,0,1,392,47.11c-.83-.79-2-1.91-3.2-3.16s-2.33-2.4-3.11-3.25a7.22,7.22,0,0,1-1.19-1.43,7.46,7.46,0,0,1,1.5,1.22c.84.79,2,1.91,3.21,3.16s2.33,2.41,3.11,3.26a7.219,7.219,0,0,1,1.15,1.43Z" fill="#e0e0e0"/>
      <path id="Trazado_148228" data-name="Trazado 148228" d="M443.17,99.88V96.11c0-2.46,0-6-.05-10.56,0-9.07-.06-22-.1-37.48l.19.19H393.65l.22-.22V99.85l-.19-.19,35.89.1h.11l-36,.1h-.19V47.64h49.97v.19c0,15.53-.07,28.5-.09,37.6V99.41a.77.77,0,0,1-.2.47Z" fill="#e0e0e0"/>
      <rect id="Rectángulo_33115" data-name="Rectángulo 33115" width="16.58" height="16.58" transform="translate(410.16 65.68)" fill="#ebebeb"/>
      <path id="Trazado_148229" data-name="Trazado 148229" d="M353.67,449.84c-1.88-1.61-6.07-6.71-2.84-12.64,1.19-2.18,3.7-3.25,6-4.21s4.67-1.79,6.55-3.4c3.55-3,4.53-8,6.89-12.07,2.71-4.63,7.76-8.1,13.1-7.85,6.11.27,11.21,5.27,13.52,11s2.39,12,2.44,18.16c0,3.4-.12,7.23-2.62,9.53-2.3,2.11-5.76,2.14-8.88,2l-33.41-1" fill="#f5f5f5"/>
      <path id="Trazado_148230" data-name="Trazado 148230" d="M417.56,358H329.71l15.83,94.36a10.54,10.54,0,0,0,7.5,8.41l.3.08a7.618,7.618,0,0,0,.79.2,11.545,11.545,0,0,0,1.78.21v.09l.43-.07h39.15a11.61,11.61,0,0,0,2.15-.21,10.58,10.58,0,0,0,8.89-9.23l7.63-65,.34-2.59h0l3-25.75ZM401,418.17h-9l.91-27.38h10.45Zm3.21-27.38h8.64l-3.22,27.38h-7.76Zm-25.75,57.74-.55-23.79h13l-.79,23.79Zm-14-23.79H377l.54,23.79H366.26Zm1,23.79H354.81c-1-6.42-2.31-14.77-3.73-23.79h12.46Zm-1.49-30.36-2.13-27.38h14.47l.64,27.38Zm13.85,0-.63-27.38H392l-.91,27.38ZM377,384.22l-.59-25.36H393.1l-.84,25.36Zm-.88,0H361.26l-2-25.36h16.22Zm-15.7,0H344.7c-.56-3.5-1.09-6.82-1.56-9.8-1.64-10.26-2.25-14.11-2.6-15.56h17.88Zm.51,6.57L363,418.17H350c-.44-2.77-.88-5.59-1.32-8.4-1-6.46-2-12.93-3-19ZM349.2,418.17h-8.48l-4.59-27.38h8.75c1.31,8.46,2.79,17.88,4.29,27.38Zm1,6.57c1.29,8.23,2.56,16.35,3.73,23.79h-8.15l-4-23.79ZM391,448.53l.79-23.79h8.67l-2,23.79Zm2.13-64.31.84-25.36h12.12l-2.17,25.36Zm-53.39-25.36c.35,1.83,2,11.81,4.1,25.36H335l-4.25-25.36Zm66.35,89.67H399.3l2-23.79h7.55Zm7.55-64.31H404.8l2.16-25.36h9.65Z" fill="#e0e0e0"/>
    </g>
    <g id="freepik--Floor--inject-2">
      <path id="Trazado_148231" data-name="Trazado 148231" d="M462.45,461.92c0,.15-96.47.26-215.44.26s-215.46-.11-215.46-.26,96.45-.26,215.46-.26S462.45,461.78,462.45,461.92Z" fill="#263238"/>
    </g>
    <g id="freepik--Device--inject-2">
      <path id="Trazado_148232" data-name="Trazado 148232" d="M355.27,462.13,103.36,462a14.1,14.1,0,0,1-14.09-14.11l.2-373.77A14.1,14.1,0,0,1,103.58,60l251.9.13a14.12,14.12,0,0,1,14.1,14.12L369.38,448a14.11,14.11,0,0,1-14.11,14.13Z" fill="#455a64"/>
      <rect id="Rectángulo_33116" data-name="Rectángulo 33116" width="262.44" height="335.7" transform="translate(97.68 87.86)" fill="#fff"/>
      <path id="Trazado_148233" data-name="Trazado 148233" d="M240.07,441.86a10.75,10.75,0,1,1-10.74-10.75,10.75,10.75,0,0,1,10.74,10.75Z" fill="#263238"/>
      <rect id="Rectángulo_33117" data-name="Rectángulo 33117" width="84.37" height="4.44" rx="1.22" transform="translate(187.34 71.66)" fill="#263238"/>
      <rect id="Rectángulo_33118" data-name="Rectángulo 33118" width="262.43" height="24.12" transform="translate(97.77 87.79)" fill="#e0e0e0"/>
      <circle id="Elipse_4619" data-name="Elipse 4619" cx="3.55" cy="3.55" r="3.55" transform="translate(105.82 96.04)" fill="#fff"/>
      <circle id="Elipse_4620" data-name="Elipse 4620" cx="3.55" cy="3.55" r="3.55" transform="translate(117.27 96.04)" fill="#fff"/>
      <path id="Trazado_148234" data-name="Trazado 148234" d="M135.83,99.59a3.55,3.55,0,1,1-3.55-3.54,3.55,3.55,0,0,1,3.55,3.54Z" fill="#fff"/>
      <rect id="Rectángulo_33119" data-name="Rectángulo 33119" width="262.42" height="29.55" transform="translate(97.77 111.91)" fill="#f5f5f5"/>
      <path id="Trazado_148235" data-name="Trazado 148235" d="M360.21,141.49H97.74v-29.6H360.21Zm-262.42-.05H360.16v-29.5H97.79Z" fill="#e0e0e0"/>
      <path id="Trazado_148236" data-name="Trazado 148236" d="M160.67,128.82c0,.15-10.7.26-23.88.26s-23.88-.11-23.88-.26,10.69-.26,23.88-.26S160.67,128.68,160.67,128.82Z" fill="#e0e0e0"/>
      <path id="Trazado_148237" data-name="Trazado 148237" d="M226.53,128.82c0,.15-10.69.26-23.88.26s-23.87-.11-23.87-.26,10.68-.26,23.87-.26S226.53,128.68,226.53,128.82Z" fill="#e0e0e0"/>
      <rect id="Rectángulo_33120" data-name="Rectángulo 33120" width="68.46" height="30.87" transform="translate(229.44 111.91)" fill="#fff"/>
      <path id="Trazado_148238" data-name="Trazado 148238" d="M290.14,128.82c0,.15-10.69.26-23.87.26s-23.88-.11-23.88-.26,10.69-.26,23.88-.26S290.14,128.68,290.14,128.82Z" fill="#e0e0e0"/>
      <path id="Trazado_148239" data-name="Trazado 148239" d="M360.17,166.44c0,.15-58.75.26-131.19.26s-131.21-.11-131.21-.26,58.73-.26,131.21-.26S360.17,166.3,360.17,166.44Z" fill="#e0e0e0"/>
      <path id="Trazado_148240" data-name="Trazado 148240" d="M116.41,160.13h-9.75a1.22,1.22,0,0,1-1.21-1.22v-9.73a1.23,1.23,0,0,1,.36-.87,1.12,1.12,0,0,1,.87-.35l6.95.1a1.23,1.23,0,0,1,.85.35l2.79,2.8a1.2,1.2,0,0,1,.36.86v6.84a1.22,1.22,0,0,1-1.22,1.22Zm-9.75-11.42a.46.46,0,0,0-.32.13.48.48,0,0,0-.14.34v9.73a.47.47,0,0,0,.46.47h9.75a.47.47,0,0,0,.47-.47v-6.84a.44.44,0,0,0-.14-.33l-2.79-2.8a.51.51,0,0,0-.33-.13l-7-.1Z" fill="#e0e0e0"/>
      <path id="Trazado_148241" data-name="Trazado 148241" d="M114.7,160.13h-6.35v-4.9h6.35Zm-5.6-.75H114V156h-4.9Z" fill="#e0e0e0"/>
      <path id="Trazado_148242" data-name="Trazado 148242" d="M113.76,153.37h-5.41V148l5.41.08Zm-4.66-.75H113V148.8l-3.91-.06Z" fill="#e0e0e0"/>
      <path id="Trazado_148243" data-name="Trazado 148243" d="M144.72,160.13a.58.58,0,0,1-.18,0l-3.7-2-3.71,2a.39.39,0,0,1-.39,0,.37.37,0,0,1-.15-.37l.7-4.13-3-2.92a.37.37,0,0,1,.2-.64l4.15-.6,1.85-3.76a.39.39,0,0,1,.67,0L143,151.4l4.14.6a.37.37,0,0,1,.3.26.36.36,0,0,1-.09.38l-3,2.92.71,4.13a.41.41,0,0,1-.15.37A.44.44,0,0,1,144.72,160.13Zm-3.88-2.79a.33.33,0,0,1,.17,0l3.21,1.69-.61-3.58a.4.4,0,0,1,.1-.33l2.6-2.53-3.59-.52a.39.39,0,0,1-.28-.2l-1.6-3.25-1.61,3.25a.37.37,0,0,1-.28.2l-3.59.52,2.6,2.53a.38.38,0,0,1,.11.33l-.62,3.58,3.21-1.69a.39.39,0,0,1,.18,0Z" fill="#e0e0e0"/>
      <path id="Trazado_148244" data-name="Trazado 148244" d="M167.47,157.82a2.95,2.95,0,0,1-.34-5.88,3.61,3.61,0,0,1,7.21-.24,3.58,3.58,0,0,1,3,1.31,3.1,3.1,0,0,1,.12,3.65,2.74,2.74,0,0,1-3.55.75.377.377,0,0,1,.4-.64,2,2,0,0,0,2.54-.55,2.36,2.36,0,0,0-.1-2.75,2.9,2.9,0,0,0-2.71-1,.38.38,0,0,1-.31-.09.4.4,0,0,1-.13-.31,2.86,2.86,0,1,0-5.69.17.37.37,0,0,1-.1.3.4.4,0,0,1-.28.12,2.23,2.23,0,0,0-2.05,1.23A2.19,2.19,0,0,0,168,157a.38.38,0,0,1,.46.27.37.37,0,0,1-.26.46,2.84,2.84,0,0,1-.73.09Z" fill="#e0e0e0"/>
      <path id="Trazado_148245" data-name="Trazado 148245" d="M172.85,155.72a.37.37,0,0,1-.29-.14L171,153.66l-1.61,1.92a.373.373,0,1,1-.57-.48l1.9-2.27a.34.34,0,0,1,.28-.13.36.36,0,0,1,.29.14l1.87,2.27a.37.37,0,0,1,0,.52.38.38,0,0,1-.31.09Z" fill="#e0e0e0"/>
      <path id="Trazado_148246" data-name="Trazado 148246" d="M171,159.23a.38.38,0,0,1-.38-.37v-5.79a.38.38,0,0,1,.75,0v5.79A.38.38,0,0,1,171,159.23Z" fill="#e0e0e0"/>
      <path id="Trazado_148247" data-name="Trazado 148247" d="M251,160.17a6.72,6.72,0,1,1,6.71-6.72,6.72,6.72,0,0,1-6.71,6.72Zm0-12.68a6,6,0,1,0,6,6,6,6,0,0,0-6-6Z" fill="#e0e0e0"/>
      <path id="Trazado_148248" data-name="Trazado 148248" d="M253.58,153.71a.36.36,0,0,1-.25-.1L251,151.53l-2.35,2.08a.37.37,0,0,1-.53,0,.38.38,0,0,1,0-.53l2.59-2.31a.39.39,0,0,1,.5,0l2.59,2.31a.38.38,0,0,1-.25.66Z" fill="#e0e0e0"/>
      <path id="Trazado_148249" data-name="Trazado 148249" d="M251,157.26a.38.38,0,0,1-.38-.38v-5.65a.38.38,0,0,1,.38-.38.37.37,0,0,1,.37.38v5.65a.37.37,0,0,1-.37.38Z" fill="#e0e0e0"/>
      <path id="Trazado_148250" data-name="Trazado 148250" d="M317.2,160.5a6.72,6.72,0,1,1,6.72-6.72A6.72,6.72,0,0,1,317.2,160.5Zm0-12.68a6,6,0,1,0,6,6A6,6,0,0,0,317.2,147.82Z" fill="#e0e0e0"/>
      <path id="Trazado_148251" data-name="Trazado 148251" d="M319.83,154.39h-5.26a.38.38,0,0,1,0-.75h5.26a.38.38,0,0,1,0,.75Z" fill="#e0e0e0"/>
      <path id="Trazado_148252" data-name="Trazado 148252" d="M343.61,160.05a6.72,6.72,0,1,1,6.71-6.72,6.72,6.72,0,0,1-6.71,6.72Zm0-12.68a6,6,0,1,0,6,6A6,6,0,0,0,343.61,147.37Z" fill="#e0e0e0"/>
      <path id="Trazado_148253" data-name="Trazado 148253" d="M346.23,153.94H341a.38.38,0,1,1,0-.75h5.25a.38.38,0,1,1,0,.75Z" fill="#e0e0e0"/>
      <path id="Trazado_148254" data-name="Trazado 148254" d="M343.61,156.46a.38.38,0,0,1-.38-.38v-5.25a.38.38,0,1,1,.75,0v5.25a.38.38,0,0,1-.37.38Z" fill="#e0e0e0"/>
      <path id="Trazado_148255" data-name="Trazado 148255" d="M278.21,160.17a6.72,6.72,0,1,1,6.72-6.72A6.72,6.72,0,0,1,278.21,160.17Zm0-12.68a6,6,0,1,0,6,6,6,6,0,0,0-6-6Z" fill="#e0e0e0"/>
      <path id="Trazado_148256" data-name="Trazado 148256" d="M278.21,156.26a.42.42,0,0,1-.25-.1l-2.59-2.3a.38.38,0,0,1,0-.53.37.37,0,0,1,.53,0l2.34,2.08,2.35-2.08a.37.37,0,0,1,.53,0,.38.38,0,0,1,0,.53l-2.6,2.3a.39.39,0,0,1-.31.1Z" fill="#e0e0e0"/>
      <path id="Trazado_148257" data-name="Trazado 148257" d="M278.21,156.05a.38.38,0,0,1-.37-.37V150a.38.38,0,0,1,.75,0v5.66a.38.38,0,0,1-.38.39Z" fill="#e0e0e0"/>
      <path id="Trazado_148258" data-name="Trazado 148258" d="M234.61,194c0,.15-20.41.26-45.58.26s-45.59-.11-45.59-.26,20.4-.26,45.59-.26S234.61,193.84,234.61,194Z" fill="#263238"/>
      <path id="Trazado_148259" data-name="Trazado 148259" d="M122.13,423.51c-.14,0-.26-57.55-.26-128.53s.12-128.54.26-128.54.26,57.54.26,128.54S122.28,423.51,122.13,423.51Z" fill="#e0e0e0"/>
      <path id="Trazado_148260" data-name="Trazado 148260" d="M116.13,190.2h-6.76a1.37,1.37,0,0,1-1.37-1.37v-9.29a1.37,1.37,0,0,1,1.37-1.37h4.79a1.33,1.33,0,0,1,.91.35l2.43,2.16v8.15A1.37,1.37,0,0,1,116.13,190.2Zm-6.76-11.28a.62.62,0,0,0-.62.62v9.29a.62.62,0,0,0,.62.62h6.76a.62.62,0,0,0,.62-.62V181l-2.18-1.94a.62.62,0,0,0-.41-.16Z" fill="#e0e0e0"/>
      <path id="Trazado_148261" data-name="Trazado 148261" d="M112.31,193.82h-6.67a1.37,1.37,0,0,1-1.37-1.37v-8.87a1.36,1.36,0,0,1,1.37-1.36h2.73V183h-2.73a.61.61,0,0,0-.62.61v8.87a.62.62,0,0,0,.62.62h6.67a.62.62,0,0,0,.62-.62v-2.63h.75v2.63a1.37,1.37,0,0,1-1.37,1.34Z" fill="#e0e0e0"/>
      <path id="Trazado_148262" data-name="Trazado 148262" d="M115.7,228.66a.58.58,0,0,1-.37-.13l-3.83-3-3.72,3a.59.59,0,0,1-.65.07.61.61,0,0,1-.35-.55V213.92h9.54v14.13a.62.62,0,0,1-.34.55.67.67,0,0,1-.28.06Zm-4.2-3.88a.67.67,0,0,1,.38.13l3.69,2.87V214.67h-8v13.09l3.58-2.84a.64.64,0,0,1,.35-.14Z" fill="#e0e0e0"/>
      <path id="Trazado_148263" data-name="Trazado 148263" d="M108.24,262.38a3.87,3.87,0,0,1-2.81-6.54l5.85-6.15a2.89,2.89,0,0,1,2.08-.92,2.956,2.956,0,0,1,2.1,5.08l-3.16,3a1.57,1.57,0,0,1-2.19,0,1.49,1.49,0,0,1-.46-1.11,1.54,1.54,0,0,1,.47-1.11l2.49-2.42.53.53-2.5,2.42a.84.84,0,0,0-.24.58.78.78,0,0,0,.24.58.81.81,0,0,0,1.14,0l3.16-3.05a2.22,2.22,0,0,0,.67-1.59,2.17,2.17,0,0,0-.68-1.59,2.21,2.21,0,0,0-1.58-.61,2.18,2.18,0,0,0-1.55.68l-5.8,6.2a3.122,3.122,0,1,0,4.43,4.4l6.48-6.25.52.54-6.48,6.25a3.83,3.83,0,0,1-2.71,1.08Z" fill="#e0e0e0"/>
      <path id="Trazado_148264" data-name="Trazado 148264" d="M206.91,157.64h-13a.61.61,0,0,1-.61-.62v-5.65a.61.61,0,0,1,.61-.62h13a.61.61,0,0,1,.61.62V157a.61.61,0,0,1-.61.64Zm-12.85-.75h12.71V151.5H194.06Z" fill="#e0e0e0"/>
      <path id="Trazado_148265" data-name="Trazado 148265" d="M204.79,151.5h-8.48a.62.62,0,0,1-.62-.62V147.8a.61.61,0,0,1,.62-.61h8.48a.61.61,0,0,1,.62.61v3.08a.62.62,0,0,1-.62.62Zm-8.35-.75h8.22v-2.81h-8.22Z" fill="#e0e0e0"/>
      <rect id="Rectángulo_33121" data-name="Rectángulo 33121" width="1.11" height="0.75" transform="translate(204.37 152.52)" fill="#e0e0e0"/>
      <rect id="Rectángulo_33122" data-name="Rectángulo 33122" width="8.97" height="5.37" rx="0.24" transform="translate(196.07 154.49)" fill="#fff"/>
      <path id="Trazado_148266" data-name="Trazado 148266" d="M204.79,160.23h-8.48a.62.62,0,0,1-.62-.62v-4.88a.62.62,0,0,1,.62-.62h8.48a.62.62,0,0,1,.62.62v4.88a.62.62,0,0,1-.62.62Zm-8.35-.75h8.22v-4.62h-8.22Z" fill="#e0e0e0"/>
      <path id="Trazado_148267" data-name="Trazado 148267" d="M229,164c-.14,0-.26-4.76-.26-10.64s.12-10.64.26-10.64.26,4.77.26,10.64S229.13,164,229,164Z" fill="#e0e0e0"/>
      <path id="Trazado_148268" data-name="Trazado 148268" d="M297.9,166.32c-.14,0-.26-5.57-.26-12.43s.12-12.42.26-12.42.26,5.56.26,12.42S298,166.32,297.9,166.32Z" fill="#e0e0e0"/>
      <rect id="Rectángulo_33123" data-name="Rectángulo 33123" width="48.85" height="10.79" transform="translate(274.69 225.59)" fill="#7e5ee3"/>
      <rect id="Rectángulo_33124" data-name="Rectángulo 33124" width="24.78" height="7.46" transform="translate(312.48 214.65)" fill="#7e5ee3"/>
      <rect id="Rectángulo_33125" data-name="Rectángulo 33125" width="57.95" height="10.79" transform="translate(135.74 295.6)" fill="#7e5ee3"/>
      <rect id="Rectángulo_33126" data-name="Rectángulo 33126" width="132.62" height="10.79" transform="translate(199.94 375.16)" fill="#7e5ee3"/>
      <path id="Trazado_148269" data-name="Trazado 148269" d="M307.6,218.71c0,.15-37.47.26-83.67.26s-83.68-.11-83.68-.26,37.46-.26,83.68-.26S307.6,218.57,307.6,218.71Z" fill="#263238"/>
      <path id="Trazado_148270" data-name="Trazado 148270" d="M268.94,231.35c0,.15-28.81.26-64.34.26s-64.35-.11-64.35-.26,28.8-.26,64.35-.26S268.94,231.21,268.94,231.35Z" fill="#263238"/>
      <path id="Trazado_148271" data-name="Trazado 148271" d="M332.57,218.71a55.631,55.631,0,0,1-7.67.26,55.514,55.514,0,0,1-7.67-.26,57.462,57.462,0,0,1,7.67-.26,57.59,57.59,0,0,1,7.67.26Z" fill="#263238"/>
      <path id="Trazado_148272" data-name="Trazado 148272" d="M320.29,230.52c0,.15-9.36.26-20.91.26s-20.92-.11-20.92-.26,9.37-.26,20.92-.26S320.29,230.38,320.29,230.52Z" fill="#263238"/>
      <path id="Trazado_148273" data-name="Trazado 148273" d="M189.61,245.89c0,.14-11.05.26-24.68.26s-24.68-.12-24.68-.26,11.05-.26,24.68-.26S189.61,245.75,189.61,245.89Z" fill="#263238"/>
      <path id="Trazado_148274" data-name="Trazado 148274" d="M226.59,244.75c0,.15-5.49.26-12.27.26s-12.27-.11-12.27-.26,5.49-.26,12.27-.26S226.59,244.61,226.59,244.75Z" fill="#263238"/>
      <path id="Trazado_148275" data-name="Trazado 148275" d="M314.44,244.18c0,.15-16.92.26-37.79.26s-37.79-.11-37.79-.26,16.92-.26,37.79-.26S314.44,244,314.44,244.18Z" fill="#263238"/>
      <path id="Trazado_148276" data-name="Trazado 148276" d="M335.91,244.18a79.269,79.269,0,0,1-12.83,0,79.269,79.269,0,0,1,12.83,0Z" fill="#263238"/>
      <path id="Trazado_148277" data-name="Trazado 148277" d="M221.68,259.26c0,.15-18.23.27-40.71.27s-40.72-.12-40.72-.27S158.48,259,181,259,221.68,259.12,221.68,259.26Z" fill="#263238"/>
      <path id="Trazado_148278" data-name="Trazado 148278" d="M251.69,259c0,.14-4.62.26-10.32.26s-10.32-.12-10.32-.26,4.62-.26,10.32-.26A97.089,97.089,0,0,1,251.69,259Z" fill="#263238"/>
      <path id="Trazado_148279" data-name="Trazado 148279" d="M332,259c0,.14-15.61.26-34.86.26s-34.86-.12-34.86-.26,15.6-.26,34.86-.26S332,258.84,332,259Z" fill="#263238"/>
      <path id="Trazado_148280" data-name="Trazado 148280" d="M307.6,274.37c0,.14-37.47.26-83.67.26s-83.68-.12-83.68-.26,37.46-.26,83.68-.26S307.6,274.23,307.6,274.37Z" fill="#263238"/>
      <path id="Trazado_148281" data-name="Trazado 148281" d="M268.94,287c0,.14-28.81.26-64.34.26s-64.35-.12-64.35-.26,28.8-.26,64.35-.26S268.94,286.87,268.94,287Z" fill="#263238"/>
      <path id="Trazado_148282" data-name="Trazado 148282" d="M332.57,274.37a57.587,57.587,0,0,1-7.67.26,57.46,57.46,0,0,1-7.67-.26,57.455,57.455,0,0,1,7.67-.26,57.587,57.587,0,0,1,7.67.26Z" fill="#263238"/>
      <path id="Trazado_148283" data-name="Trazado 148283" d="M320.29,286.18c0,.14-9.36.26-20.91.26s-20.92-.12-20.92-.26,9.37-.26,20.92-.26S320.29,286,320.29,286.18Z" fill="#263238"/>
      <path id="Trazado_148284" data-name="Trazado 148284" d="M189.61,301.55c0,.14-11.05.26-24.68.26s-24.68-.12-24.68-.26,11.05-.26,24.68-.26S189.61,301.4,189.61,301.55Z" fill="#263238"/>
      <path id="Trazado_148285" data-name="Trazado 148285" d="M226.59,300.41c0,.14-5.49.26-12.27.26s-12.27-.12-12.27-.26,5.49-.26,12.27-.26S226.59,300.26,226.59,300.41Z" fill="#263238"/>
      <path id="Trazado_148286" data-name="Trazado 148286" d="M314.44,299.84c0,.14-16.92.26-37.79.26s-37.79-.12-37.79-.26,16.92-.26,37.79-.26S314.44,299.69,314.44,299.84Z" fill="#263238"/>
      <path id="Trazado_148287" data-name="Trazado 148287" d="M335.91,299.84a79.273,79.273,0,0,1-12.83,0A79.273,79.273,0,0,1,335.91,299.84Z" fill="#263238"/>
      <path id="Trazado_148288" data-name="Trazado 148288" d="M221.68,314.92c0,.14-18.23.26-40.71.26s-40.72-.12-40.72-.26,18.23-.26,40.72-.26S221.68,314.78,221.68,314.92Z" fill="#263238"/>
      <path id="Trazado_148289" data-name="Trazado 148289" d="M251.69,314.64c0,.14-4.62.26-10.32.26s-10.32-.12-10.32-.26a100.382,100.382,0,0,1,10.32-.26,100.382,100.382,0,0,1,10.32.26Z" fill="#263238"/>
      <path id="Trazado_148290" data-name="Trazado 148290" d="M332,314.64c0,.14-15.61.26-34.86.26s-34.86-.12-34.86-.26,15.6-.26,34.86-.26S332,314.49,332,314.64Z" fill="#263238"/>
      <path id="Trazado_148291" data-name="Trazado 148291" d="M165.09,368.29c0-.15,37.47-.26,83.67-.26s83.68.11,83.68.26-37.45.26-83.68.26S165.09,368.43,165.09,368.29Z" fill="#263238"/>
      <path id="Trazado_148292" data-name="Trazado 148292" d="M203.76,355.65c0-.15,28.81-.26,64.34-.26s64.34.11,64.34.26-28.8.26-64.34.26S203.76,355.79,203.76,355.65Z" fill="#263238"/>
      <path id="Trazado_148293" data-name="Trazado 148293" d="M140.13,368.29a55.511,55.511,0,0,1,7.67-.26,55.631,55.631,0,0,1,7.67.26,57.592,57.592,0,0,1-7.67.26,57.459,57.459,0,0,1-7.67-.26Z" fill="#263238"/>
      <path id="Trazado_148294" data-name="Trazado 148294" d="M140.13,356.48c0-.15,12.11-.26,27.05-.26s27,.11,27,.26-12.11.26-27,.26S140.13,356.62,140.13,356.48Z" fill="#263238"/>
      <path id="Trazado_148295" data-name="Trazado 148295" d="M251,327.74c0-.15,18.23-.26,40.71-.26s40.72.11,40.72.26-18.22.26-40.72.26S251,327.88,251,327.74Z" fill="#263238"/>
      <path id="Trazado_148296" data-name="Trazado 148296" d="M221,328c0-.14,4.62-.26,10.32-.26s10.32.12,10.32.26-4.62.26-10.32.26A97.089,97.089,0,0,1,221,328Z" fill="#263238"/>
      <path id="Trazado_148297" data-name="Trazado 148297" d="M140.69,328c0-.14,15.6-.26,34.85-.26s34.87.12,34.87.26-15.61.26-34.87.26S140.69,328.16,140.69,328Z" fill="#263238"/>
      <rect id="Rectángulo_33127" data-name="Rectángulo 33127" width="10.09" height="257.32" transform="translate(349.95 166.32)" fill="#e0e0e0"/>
      <path id="Trazado_148298" data-name="Trazado 148298" d="M355,213.05h0a5.1,5.1,0,0,1-5.1-5.1V189.82a5.1,5.1,0,0,1,5.1-5.1h0a5.1,5.1,0,0,1,5.1,5.1V208A5.1,5.1,0,0,1,355,213.05Z" fill="#f5f5f5"/>
      <path id="Trazado_148299" data-name="Trazado 148299" d="M355,213.08a5.13,5.13,0,0,1-5.12-5.13V189.82a5.13,5.13,0,1,1,10.25,0V208a5.13,5.13,0,0,1-5.13,5.08Zm0-28.34a5.08,5.08,0,0,0-5.07,5.08V208a5.08,5.08,0,1,0,10.15,0V189.82a5.09,5.09,0,0,0-5.08-5.08Z" fill="#e0e0e0"/>
      <path id="Trazado_148300" data-name="Trazado 148300" d="M165.21,393.7c0-.15,37.47-.26,83.68-.26s83.68.11,83.68.26-37.46.26-83.68.26S165.21,393.84,165.21,393.7Z" fill="#263238"/>
      <path id="Trazado_148301" data-name="Trazado 148301" d="M203.88,381.06c0-.15,28.81-.26,64.34-.26s64.35.11,64.35.26-28.81.26-64.35.26S203.88,381.2,203.88,381.06Z" fill="#263238"/>
      <path id="Trazado_148302" data-name="Trazado 148302" d="M140.25,393.7a55.5,55.5,0,0,1,7.67-.26,55.506,55.506,0,0,1,7.67.26,57.454,57.454,0,0,1-7.67.26,57.464,57.464,0,0,1-7.67-.26Z" fill="#263238"/>
      <path id="Trazado_148303" data-name="Trazado 148303" d="M140.25,381.89c0-.15,12.11-.26,27.05-.26s27,.11,27,.26-12.11.26-27,.26S140.25,382,140.25,381.89Z" fill="#263238"/>
      <path id="Trazado_148304" data-name="Trazado 148304" d="M332.91,409.65c0,.15-43,.27-96.09.27s-96.1-.12-96.1-.27,43-.26,96.1-.26S332.91,409.51,332.91,409.65Z" fill="#263238"/>
    </g>
    <g id="freepik--Annotations--inject-2">
      <path id="Trazado_148305" data-name="Trazado 148305" d="M334.16,231.81a2.79,2.79,0,1,1-2.78-2.78,2.79,2.79,0,0,1,2.78,2.78Z" fill="#7e5ee3"/>
      <path id="Trazado_148306" data-name="Trazado 148306" d="M344.46,380.89a2.79,2.79,0,1,1-2.79-2.78,2.79,2.79,0,0,1,2.79,2.78Z" fill="#7e5ee3"/>
      <path id="Trazado_148307" data-name="Trazado 148307" d="M348.54,217.91a2.79,2.79,0,1,1-2.78-2.78A2.79,2.79,0,0,1,348.54,217.91Z" fill="#7e5ee3"/>
      <rect id="Rectángulo_33128" data-name="Rectángulo 33128" width="84.21" height="100.03" rx="5.88" transform="translate(384.09 213.87)" fill="#fff"/>
      <path id="Trazado_148308" data-name="Trazado 148308" d="M462.4,313.92a6.218,6.218,0,0,0,.91-.1,6,6,0,0,0,2.47-1,5.79,5.79,0,0,0,2.3-3.58,15.762,15.762,0,0,0,.11-2.8v-3.21c0-9.08,0-22.19-.06-38.4V219.7a5.66,5.66,0,0,0-4.41-5.4,8.21,8.21,0,0,0-1.93-.13H390.05a5.62,5.62,0,0,0-5.63,5.6c0,3,0,6.09,0,9.1v78.27a6.76,6.76,0,0,0,.58,3.42,5.67,5.67,0,0,0,2.31,2.44,5.92,5.92,0,0,0,3.25.73h19.49l38.4.1,10.45.06H448.45l-38.4.07H390.42a8.18,8.18,0,0,1-1.77-.14,6.07,6.07,0,0,1-4.17-3.26,7.16,7.16,0,0,1-.64-3.61V219.71a6.15,6.15,0,0,1,6.15-6.12l69.74.06h2a8.761,8.761,0,0,1,2,.15,6.09,6.09,0,0,1,4.77,5.86v45.13c0,16.21-.07,29.32-.1,38.4v3.21a16.2,16.2,0,0,1-.13,2.83,6,6,0,0,1-2.4,3.64,5.849,5.849,0,0,1-2.52,1,4,4,0,0,1-.69.05Z" fill="#263238"/>
      <circle id="Elipse_4621" data-name="Elipse 4621" cx="11.37" cy="11.37" r="11.37" transform="translate(452.59 226.055) rotate(-80.75)" fill="#00bcd4"/>
      <path id="Trazado_148309" data-name="Trazado 148309" d="M432.77,242.3c0,.14-9.29.26-20.74.26s-20.74-.12-20.74-.26,9.28-.3,20.71-.3S432.77,242.15,432.77,242.3Z" fill="#263238"/>
      <path id="Trazado_148310" data-name="Trazado 148310" d="M449.54,242.11a70.871,70.871,0,0,1-12.13,0,70.871,70.871,0,0,1,12.13,0Z" fill="#263238"/>
      <path id="Trazado_148311" data-name="Trazado 148311" d="M462.14,241.65a29.68,29.68,0,0,1-7.84,0A29.68,29.68,0,0,1,462.14,241.65Z" fill="#263238"/>
      <path id="Trazado_148312" data-name="Trazado 148312" d="M432.77,248.55c0,.14-9.29.26-20.74.26s-20.74-.12-20.74-.26,9.28-.26,20.74-.26S432.77,248.41,432.77,248.55Z" fill="#263238"/>
      <path id="Trazado_148313" data-name="Trazado 148313" d="M462.14,248.37c0,.14-5.54.26-12.36.26s-12.37-.12-12.37-.26,5.54-.26,12.37-.26S462.14,248.22,462.14,248.37Z" fill="#263238"/>
      <path id="Trazado_148314" data-name="Trazado 148314" d="M420.65,260.38c0-.14,9.29-.26,20.74-.26s20.75.12,20.75.26-9.29.27-20.75.27S420.65,260.53,420.65,260.38Z" fill="#263238"/>
      <path id="Trazado_148315" data-name="Trazado 148315" d="M403.88,260.57a70.87,70.87,0,0,1,12.13,0,70.873,70.873,0,0,1-12.13,0Z" fill="#263238"/>
      <path id="Trazado_148316" data-name="Trazado 148316" d="M391.29,261a29.608,29.608,0,0,1,7.83,0A29.61,29.61,0,0,1,391.29,261Z" fill="#263238"/>
      <path id="Trazado_148317" data-name="Trazado 148317" d="M420.65,254.13c0-.14,9.29-.26,20.74-.26s20.75.12,20.75.26-9.29.26-20.75.26S420.65,254.27,420.65,254.13Z" fill="#263238"/>
      <path id="Trazado_148318" data-name="Trazado 148318" d="M391.29,254.31c0-.14,5.53-.26,12.36-.26s12.36.12,12.36.26-5.53.26-12.36.26S391.29,254.46,391.29,254.31Z" fill="#263238"/>
      <path id="Trazado_148319" data-name="Trazado 148319" d="M432.77,268.66c0,.15-9.29.26-20.74.26s-20.74-.11-20.74-.26,9.28-.26,20.74-.26S432.77,268.52,432.77,268.66Z" fill="#263238"/>
      <path id="Trazado_148320" data-name="Trazado 148320" d="M449.54,268.48a70.872,70.872,0,0,1-12.13,0,70.869,70.869,0,0,1,12.13,0Z" fill="#263238"/>
      <path id="Trazado_148321" data-name="Trazado 148321" d="M462.14,268a29.68,29.68,0,0,1-7.84,0A29.68,29.68,0,0,1,462.14,268Z" fill="#263238"/>
      <path id="Trazado_148322" data-name="Trazado 148322" d="M432.77,274.92c0,.14-9.29.26-20.74.26s-20.74-.12-20.74-.26,9.28-.26,20.74-.26S432.77,274.77,432.77,274.92Z" fill="#263238"/>
      <path id="Trazado_148323" data-name="Trazado 148323" d="M462.14,274.73c0,.15-5.54.27-12.36.27s-12.37-.12-12.37-.27,5.54-.26,12.37-.26S462.14,274.59,462.14,274.73Z" fill="#263238"/>
      <path id="Trazado_148324" data-name="Trazado 148324" d="M420.65,286.75c0-.14,9.29-.26,20.74-.26s20.75.12,20.75.26-9.29.26-20.75.26S420.65,286.9,420.65,286.75Z" fill="#263238"/>
      <path id="Trazado_148325" data-name="Trazado 148325" d="M403.88,286.94a70.873,70.873,0,0,1,12.13,0,70.869,70.869,0,0,1-12.13,0Z" fill="#263238"/>
      <path id="Trazado_148326" data-name="Trazado 148326" d="M391.29,287.4a29.609,29.609,0,0,1,7.83,0,29.609,29.609,0,0,1-7.83,0Z" fill="#263238"/>
      <path id="Trazado_148327" data-name="Trazado 148327" d="M420.65,280.5c0-.14,9.29-.26,20.74-.26s20.75.12,20.75.26-9.29.26-20.75.26S420.65,280.64,420.65,280.5Z" fill="#263238"/>
      <path id="Trazado_148328" data-name="Trazado 148328" d="M391.29,280.68c0-.14,5.53-.26,12.36-.26s12.36.12,12.36.26-5.53.26-12.36.26S391.29,280.83,391.29,280.68Z" fill="#263238"/>
      <path id="Trazado_148329" data-name="Trazado 148329" d="M460.8,304.36c0,.15-5.86.27-13.08.27s-13.08-.12-13.08-.27,5.85-.26,13.08-.26S460.8,304.22,460.8,304.36Z" fill="#263238"/>
      <rect id="Rectángulo_33129" data-name="Rectángulo 33129" width="2.28" height="10.21" transform="translate(468.736 211.885) rotate(45)" fill="#fff"/>
      <rect id="Rectángulo_33130" data-name="Rectángulo 33130" width="2.28" height="10.21" transform="translate(461.495 213.474) rotate(-45)" fill="#fff"/>
      <rect id="Rectángulo_33131" data-name="Rectángulo 33131" width="84.21" height="52.82" rx="5.88" transform="translate(384.1 344.21)" fill="#fff"/>
      <path id="Trazado_148330" data-name="Trazado 148330" d="M462.42,397.05a6.82,6.82,0,0,0,2.57-.65,5.86,5.86,0,0,0,2.34-2.14,5.94,5.94,0,0,0,.76-1.89,11,11,0,0,0,.11-2.34c0-6.69,0-16.35-.07-28.28V349.91a5.67,5.67,0,0,0-4.39-5.31,11,11,0,0,0-2.59-.15H390a5.65,5.65,0,0,0-5.15,3.35,7,7,0,0,0-.48,3.19v38.23a20.1,20.1,0,0,0,.1,2.93,5.68,5.68,0,0,0,3.38,4.19,6.519,6.519,0,0,0,2.71.43h13.71l19.54.05,28.28.09,7.69.06h-7.69l-28.28.06H390.52a6.931,6.931,0,0,1-2.89-.46,6.17,6.17,0,0,1-3.68-4.53,20.46,20.46,0,0,1-.1-3V351a12.378,12.378,0,0,1,.06-1.71,5.822,5.822,0,0,1,.47-1.69,6.16,6.16,0,0,1,5.62-3.66l51.37.05h19.76a11.66,11.66,0,0,1,2.69.17,6.09,6.09,0,0,1,4.07,3.21,6.159,6.159,0,0,1,.63,2.51c0,.85,0,1.66,0,2.48v9.37c0,11.93-.07,21.59-.1,28.28a11.506,11.506,0,0,1-.14,2.38,5.779,5.779,0,0,1-.8,1.93,5.85,5.85,0,0,1-2.43,2.15,5.639,5.639,0,0,1-1.93.54A5.293,5.293,0,0,1,462.42,397.05Z" fill="#263238"/>
      <circle id="Elipse_4622" data-name="Elipse 4622" cx="11.37" cy="11.37" r="11.37" transform="translate(454.27 335.64)" fill="#00bcd4"/>
      <path id="Trazado_148331" data-name="Trazado 148331" d="M432.77,372.64c0,.14-9.29.26-20.74.26s-20.74-.12-20.74-.26,9.28-.26,20.74-.26S432.77,372.5,432.77,372.64Z" fill="#263238"/>
      <path id="Trazado_148332" data-name="Trazado 148332" d="M449.54,372.46a70.869,70.869,0,0,1-12.13,0,70.866,70.866,0,0,1,12.13,0Z" fill="#263238"/>
      <path id="Trazado_148333" data-name="Trazado 148333" d="M462.14,372a29.68,29.68,0,0,1-7.84,0A29.68,29.68,0,0,1,462.14,372Z" fill="#263238"/>
      <path id="Trazado_148334" data-name="Trazado 148334" d="M432.77,378.89c0,.15-9.29.26-20.74.26s-20.74-.11-20.74-.26,9.28-.26,20.74-.26S432.77,378.75,432.77,378.89Z" fill="#263238"/>
      <path id="Trazado_148335" data-name="Trazado 148335" d="M462.14,378.71c0,.14-5.54.26-12.36.26s-12.37-.12-12.37-.26,5.54-.26,12.37-.26S462.14,378.57,462.14,378.71Z" fill="#263238"/>
      <path id="Trazado_148336" data-name="Trazado 148336" d="M420.65,384.48c0-.15,9.29-.27,20.74-.27s20.75.12,20.75.27-9.29.26-20.75.26S420.65,384.62,420.65,384.48Z" fill="#263238"/>
      <path id="Trazado_148337" data-name="Trazado 148337" d="M391.29,384.66c0-.15,5.53-.26,12.36-.26s12.36.11,12.36.26-5.53.26-12.36.26S391.29,384.8,391.29,384.66Z" fill="#263238"/>
      <rect id="Rectángulo_33132" data-name="Rectángulo 33132" width="2.28" height="10.21" transform="translate(468.724 342.237) rotate(45)" fill="#fff"/>
      <rect id="Rectángulo_33133" data-name="Rectángulo 33133" width="2.28" height="10.21" transform="translate(461.507 343.816) rotate(-45)" fill="#fff"/>
      <path id="Trazado_148338" data-name="Trazado 148338" d="M394.53,232.13h-1.94l-.37.89h-1l1.86-4.17h1l1.87,4.17h-1Zm-.31-.73-.66-1.6-.66,1.6Z" fill="#263238"/>
      <path id="Trazado_148339" data-name="Trazado 148339" d="M399.55,231.19V233h-.93v-1.69c0-.52-.23-.76-.64-.76a.77.77,0,0,0-.77.87V233h-.93v-3.2h.89v.37a1.41,1.41,0,0,1,1.06-.42,1.25,1.25,0,0,1,1.32,1.44Z" fill="#263238"/>
      <path id="Trazado_148340" data-name="Trazado 148340" d="M403.67,231.19V233h-.93v-1.69c0-.52-.24-.76-.65-.76a.77.77,0,0,0-.77.87V233h-.92v-3.2h.88v.37a1.42,1.42,0,0,1,1.06-.42,1.26,1.26,0,0,1,1.33,1.44Z" fill="#263238"/>
      <path id="Trazado_148341" data-name="Trazado 148341" d="M404.31,231.42a1.76,1.76,0,1,1,1.76,1.65,1.64,1.64,0,0,1-1.76-1.65Zm2.57,0a.82.82,0,1,0-.81.89.81.81,0,0,0,.81-.89Z" fill="#263238"/>
      <path id="Trazado_148342" data-name="Trazado 148342" d="M410.51,232.87a1.37,1.37,0,0,1-.75.2,1.06,1.06,0,0,1-1.2-1.15V230.6h-.49v-.71h.49v-.78h.93v.78h.8v.71h-.8v1.31a.37.37,0,0,0,.4.42.61.61,0,0,0,.37-.12Z" fill="#263238"/>
      <path id="Trazado_148343" data-name="Trazado 148343" d="M413.87,231.19V233H413v-.4a1,1,0,0,1-1,.45c-.75,0-1.2-.42-1.2-1s.4-1,1.37-1h.74c0-.4-.24-.63-.74-.63a1.49,1.49,0,0,0-.92.3l-.33-.65a2.46,2.46,0,0,1,1.38-.39C413.3,229.77,413.87,230.22,413.87,231.19Zm-.93.82v-.33h-.63c-.44,0-.58.16-.58.38s.2.38.53.38a.68.68,0,0,0,.68-.44Z" fill="#263238"/>
      <path id="Trazado_148344" data-name="Trazado 148344" d="M416.78,232.87a1.39,1.39,0,0,1-.76.2,1.06,1.06,0,0,1-1.19-1.15V230.6h-.5v-.71h.5v-.78h.92v.78h.8v.71h-.8v1.31a.37.37,0,0,0,.4.42.62.62,0,0,0,.38-.12Z" fill="#263238"/>
      <path id="Trazado_148345" data-name="Trazado 148345" d="M417.19,228.85a.53.53,0,0,1,.58-.51.52.52,0,0,1,.57.5.58.58,0,0,1-1.15,0Zm.11,1h.93V233h-.93Z" fill="#263238"/>
      <path id="Trazado_148346" data-name="Trazado 148346" d="M418.86,231.42a1.76,1.76,0,1,1,1.76,1.65,1.64,1.64,0,0,1-1.76-1.65Zm2.57,0a.82.82,0,1,0-.81.89.81.81,0,0,0,.81-.89Z" fill="#263238"/>
      <path id="Trazado_148347" data-name="Trazado 148347" d="M426.27,231.19V233h-.93v-1.69c0-.52-.24-.76-.65-.76a.77.77,0,0,0-.77.87V233H423v-3.2h.88v.37a1.42,1.42,0,0,1,1.06-.42,1.26,1.26,0,0,1,1.33,1.44Z" fill="#263238"/>
      <path id="Trazado_148348" data-name="Trazado 148348" d="M395.35,360.89h-1.94l-.36.89h-1l1.85-4.16h1l1.86,4.16h-1Zm-.31-.73-.66-1.6-.66,1.6Z" fill="#263238"/>
      <path id="Trazado_148349" data-name="Trazado 148349" d="M400.37,360v1.83h-.92v-1.69c0-.52-.24-.75-.65-.75a.762.762,0,0,0-.77.86v1.58h-.93v-3.2h.9V359a1.38,1.38,0,0,1,1.06-.43,1.25,1.25,0,0,1,1.31,1.43Z" fill="#263238"/>
      <path id="Trazado_148350" data-name="Trazado 148350" d="M404.49,360v1.83h-.93v-1.69c0-.52-.24-.75-.65-.75a.755.755,0,0,0-.76.86v1.58h-.93v-3.2h.88V359a1.39,1.39,0,0,1,1.06-.43,1.26,1.26,0,0,1,1.33,1.43Z" fill="#263238"/>
      <path id="Trazado_148351" data-name="Trazado 148351" d="M405.13,360.18a1.76,1.76,0,1,1,1.76,1.65,1.65,1.65,0,0,1-1.76-1.65Zm2.58,0a.82.82,0,1,0-.82.82A.82.82,0,0,0,407.71,360.18Z" fill="#263238"/>
      <path id="Trazado_148352" data-name="Trazado 148352" d="M411.33,361.63a1.37,1.37,0,0,1-.75.2,1.06,1.06,0,0,1-1.2-1.15v-1.31h-.49v-.72h.49v-.78h.93v.78h.8v.72h-.8v1.3a.37.37,0,0,0,.4.42.59.59,0,0,0,.37-.12Z" fill="#263238"/>
      <path id="Trazado_148353" data-name="Trazado 148353" d="M414.69,360v1.82h-.87v-.4a1,1,0,0,1-1,.45c-.75,0-1.2-.42-1.2-1s.4-1,1.38-1h.73c0-.4-.23-.63-.73-.63a1.54,1.54,0,0,0-.93.3l-.33-.65a2.46,2.46,0,0,1,1.38-.39C414.13,358.53,414.69,359,414.69,360Zm-.93.81v-.33h-.63c-.44,0-.57.16-.57.38s.19.39.52.39a.68.68,0,0,0,.68-.48Z" fill="#263238"/>
      <path id="Trazado_148354" data-name="Trazado 148354" d="M417.6,361.63a1.39,1.39,0,0,1-.76.2,1.06,1.06,0,0,1-1.19-1.15v-1.31h-.5v-.72h.5v-.78h.93v.78h.79v.72h-.79v1.3a.37.37,0,0,0,.39.42.62.62,0,0,0,.38-.12Z" fill="#263238"/>
      <path id="Trazado_148355" data-name="Trazado 148355" d="M418,357.62a.53.53,0,0,1,.58-.52.52.52,0,0,1,.58.5.54.54,0,0,1-.58.54.53.53,0,0,1-.58-.52Zm.12,1h.92v3.2h-.92Z" fill="#263238"/>
      <path id="Trazado_148356" data-name="Trazado 148356" d="M419.68,360.18a1.76,1.76,0,1,1,1.76,1.65,1.65,1.65,0,0,1-1.76-1.65Zm2.58,0a.82.82,0,1,0-.82.82A.82.82,0,0,0,422.26,360.18Z" fill="#263238"/>
      <path id="Trazado_148357" data-name="Trazado 148357" d="M427.09,360v1.83h-.93v-1.69c0-.52-.23-.75-.65-.75s-.76.27-.76.86v1.58h-.93v-3.2h.89V359a1.37,1.37,0,0,1,1.05-.43,1.26,1.26,0,0,1,1.33,1.43Z" fill="#263238"/>
      <rect id="Rectángulo_33134" data-name="Rectángulo 33134" width="84.21" height="52.82" rx="5.88" transform="translate(384.1 128.23)" fill="#fff"/>
      <path id="Trazado_148358" data-name="Trazado 148358" d="M462.42,181.07a6.33,6.33,0,0,0,2.56-.65,5.82,5.82,0,0,0,2.35-2.14,5.711,5.711,0,0,0,.75-1.89,11.651,11.651,0,0,0,.12-2.33c0-6.7,0-16.36-.07-28.29V133.94a5.67,5.67,0,0,0-4.39-5.32,11.1,11.1,0,0,0-2.6-.15H390a5.65,5.65,0,0,0-5.14,3.35,6.83,6.83,0,0,0-.48,3.19v38.23a20.137,20.137,0,0,0,.09,2.93,5.66,5.66,0,0,0,3.38,4.19,6.43,6.43,0,0,0,2.72.43h13.71l19.53.05,28.29.09,7.69.06H452.1l-28.29.06H390.52a7.13,7.13,0,0,1-2.9-.47,6.16,6.16,0,0,1-3.67-4.53,22,22,0,0,1-.11-3V135a14.126,14.126,0,0,1,0-1.71A6.13,6.13,0,0,1,390,128h71.13a11.75,11.75,0,0,1,2.7.17,6.06,6.06,0,0,1,4.06,3.22,5.93,5.93,0,0,1,.63,2.5c0,.85,0,1.66,0,2.48v9.37c0,11.93-.08,21.59-.1,28.29a11.452,11.452,0,0,1-.14,2.37,5.937,5.937,0,0,1-5.16,4.63,5,5,0,0,1-.7.04Z" fill="#263238"/>
      <circle id="Elipse_4623" data-name="Elipse 4623" cx="11.37" cy="11.37" r="11.37" transform="translate(454.26 119.66)" fill="#00bcd4"/>
      <path id="Trazado_148359" data-name="Trazado 148359" d="M432.77,156.66c0,.14-9.29.26-20.74.26s-20.74-.12-20.74-.26,9.28-.26,20.74-.26S432.77,156.52,432.77,156.66Z" fill="#263238"/>
      <path id="Trazado_148360" data-name="Trazado 148360" d="M449.54,156.48a70.869,70.869,0,0,1-12.13,0,70.871,70.871,0,0,1,12.13,0Z" fill="#263238"/>
      <path id="Trazado_148361" data-name="Trazado 148361" d="M462.13,156a29.61,29.61,0,0,1-7.83,0,29.609,29.609,0,0,1,7.83,0Z" fill="#263238"/>
      <path id="Trazado_148362" data-name="Trazado 148362" d="M432.77,162.91c0,.15-9.29.26-20.74.26s-20.74-.11-20.74-.26,9.28-.26,20.74-.26S432.77,162.77,432.77,162.91Z" fill="#263238"/>
      <path id="Trazado_148363" data-name="Trazado 148363" d="M462.13,162.73c0,.15-5.53.26-12.36.26s-12.36-.11-12.36-.26,5.53-.26,12.36-.26S462.13,162.59,462.13,162.73Z" fill="#263238"/>
      <path id="Trazado_148364" data-name="Trazado 148364" d="M420.65,168.5c0-.15,9.29-.26,20.74-.26s20.74.11,20.74.26-9.28.26-20.74.26S420.65,168.64,420.65,168.5Z" fill="#263238"/>
      <path id="Trazado_148365" data-name="Trazado 148365" d="M391.29,168.68c0-.14,5.53-.26,12.36-.26s12.36.12,12.36.26-5.54.26-12.36.26S391.29,168.82,391.29,168.68Z" fill="#263238"/>
      <rect id="Rectángulo_33135" data-name="Rectángulo 33135" width="2.28" height="10.21" transform="translate(468.699 126.258) rotate(45)" fill="#fff"/>
      <rect id="Rectángulo_33136" data-name="Rectángulo 33136" width="2.28" height="10.21" transform="translate(461.498 127.861) rotate(-45)" fill="#fff"/>
      <path id="Trazado_148366" data-name="Trazado 148366" d="M395.15,144.05h-1.94l-.37.9h-1l1.85-4.17h1l1.87,4.17h-1Zm-.31-.73-.66-1.59-.66,1.59Z" fill="#263238"/>
      <path id="Trazado_148367" data-name="Trazado 148367" d="M400.17,143.11V145h-.93v-1.69c0-.52-.23-.76-.64-.76a.762.762,0,0,0-.77.86V145h-.93v-3.21h.89v.38a1.41,1.41,0,0,1,1.06-.42,1.25,1.25,0,0,1,1.32,1.36Z" fill="#263238"/>
      <path id="Trazado_148368" data-name="Trazado 148368" d="M404.29,143.11V145h-.93v-1.69c0-.52-.24-.76-.65-.76a.762.762,0,0,0-.77.86V145H401v-3.21h.88v.38a1.42,1.42,0,0,1,1.06-.42,1.25,1.25,0,0,1,1.35,1.36Z" fill="#263238"/>
      <path id="Trazado_148369" data-name="Trazado 148369" d="M404.93,143.35a1.76,1.76,0,1,1,1.76,1.64,1.64,1.64,0,0,1-1.76-1.64Zm2.57,0a.82.82,0,1,0-.81.88.81.81,0,0,0,.81-.88Z" fill="#263238"/>
      <path id="Trazado_148370" data-name="Trazado 148370" d="M411.13,144.79a1.29,1.29,0,0,1-.75.2,1.05,1.05,0,0,1-1.2-1.14v-1.32h-.49v-.71h.49V141h.93v.78h.8v.71h-.8v1.3a.38.38,0,0,0,.4.43.68.68,0,0,0,.37-.12Z" fill="#263238"/>
      <path id="Trazado_148371" data-name="Trazado 148371" d="M414.49,143.12V145h-.87v-.4a1,1,0,0,1-1,.44c-.75,0-1.2-.41-1.2-1s.4-1,1.37-1h.74c0-.4-.24-.63-.74-.63a1.55,1.55,0,0,0-.92.29l-.33-.65a2.46,2.46,0,0,1,1.38-.38C413.92,141.7,414.49,142.15,414.49,143.12Zm-.93.81v-.32h-.63c-.44,0-.58.16-.58.37s.2.39.53.39a.67.67,0,0,0,.68-.44Z" fill="#263238"/>
      <path id="Trazado_148372" data-name="Trazado 148372" d="M417.4,144.79a1.31,1.31,0,0,1-.76.2,1,1,0,0,1-1.19-1.14v-1.32H415v-.71h.5V141h.92v.78h.8v.71h-.8v1.3a.38.38,0,0,0,.4.43.69.69,0,0,0,.38-.12Z" fill="#263238"/>
      <path id="Trazado_148373" data-name="Trazado 148373" d="M417.81,140.78a.53.53,0,0,1,.58-.52.52.52,0,0,1,.57.5.58.58,0,0,1-1.15,0Zm.11,1h.93V145h-.93Z" fill="#263238"/>
      <path id="Trazado_148374" data-name="Trazado 148374" d="M419.48,143.35a1.76,1.76,0,1,1,1.76,1.64,1.64,1.64,0,0,1-1.76-1.64Zm2.57,0a.82.82,0,1,0-.81.88.81.81,0,0,0,.81-.88Z" fill="#263238"/>
      <path id="Trazado_148375" data-name="Trazado 148375" d="M426.89,143.11V145H426v-1.69c0-.52-.24-.76-.65-.76a.762.762,0,0,0-.77.86V145h-.92v-3.21h.88v.38a1.42,1.42,0,0,1,1.06-.42,1.25,1.25,0,0,1,1.29,1.36Z" fill="#263238"/>
      <path id="Trazado_148376" data-name="Trazado 148376" d="M371,381.39H341.67v-1H371a6,6,0,0,0,6-6v-.27a7.05,7.05,0,0,1,7-7v1a6,6,0,0,0-6,6v.27a7,7,0,0,1-7,7Z" fill="#7e5ee3"/>
      <path id="Trazado_148377" data-name="Trazado 148377" d="M384.08,269.16H365a8.36,8.36,0,0,1-8.35-8.35V239.66a7.36,7.36,0,0,0-7.35-7.35H331.38v-1h17.91a8.36,8.36,0,0,1,8.35,8.35v21.15a7.36,7.36,0,0,0,7.35,7.35h19.09Z" fill="#7e5ee3"/>
      <path id="Trazado_148378" data-name="Trazado 148378" d="M346.26,217.91h-1V187.47a7.44,7.44,0,0,1,7.43-7.44h17.54a6.43,6.43,0,0,0,6.43-6.43V163.41a7.44,7.44,0,0,1,7.43-7.43v1a6.44,6.44,0,0,0-6.43,6.43V173.6a7.43,7.43,0,0,1-7.43,7.43H352.69a6.44,6.44,0,0,0-6.43,6.44Z" fill="#7e5ee3"/>
    </g>
    <g id="freepik--Character--inject-2">
      <path id="Trazado_148379" data-name="Trazado 148379" d="M97.08,174.27c.82.15,8.75,3.48,12.36,5a5.15,5.15,0,0,1,2.62,2.46l17.69,35.71-13.68,9.48s-3.85,28.33-7.37,29.74c-1.32.53-43.7,0-43.7,0s-5.17,1.84-7,0c-1.44-1.41-.88-4.17-.88-4.17v-58.2l-2.59-16S79.18,171.11,97.08,174.27Z" fill="#ff9d00"/>
      <path id="Trazado_148380" data-name="Trazado 148380" d="M115,222c-.14-.94-.3-2-.57-3.8-.37-2.61-.86-6-1.4-9.74s-1-7.13-1.37-9.75c-.16-1.16-.29-2.15-.4-3a4.31,4.31,0,0,1-.09-1.1,5.42,5.42,0,0,1,.28,1.07c.15.69.35,1.69.57,2.93.44,2.48,1,5.92,1.53,9.74s1,7.26,1.25,9.77c.13,1.25.23,2.27.27,3v.95s0,.08-.09,0h0Z" fill="#263238"/>
      <path id="Trazado_148381" data-name="Trazado 148381" d="M76.68,119.1c-2.35-1.49-2.92-4.95-1.64-7.43a9.05,9.05,0,0,1,6.72-4.42,12.84,12.84,0,0,1,11,3.66c1.51,1.56,2.74,3.6,4.8,4.31,1.81.63,3.81.06,5.71.31a8.63,8.63,0,0,1,6,4.35,18.5,18.5,0,0,1,2.14,7.34c.28,2.33.46,4.9,2.09,6.61s4.08,2,6,3.2a8.29,8.29,0,0,1,2.46,11.31c-.78,1.14-1.9,2.18-2,3.56s.73,2.37,1.11,3.57a5.58,5.58,0,0,1-4.78,6.94c-1.64.1-3.39-.54-4.85.19s-2,2.48-2.92,3.81a7,7,0,0,1-8.53,2.2c-1.2-.59-2.33-1.56-3.67-1.47s-2.38,1.23-3.69,1.48c-1.71.33-3.34-.93-4.36-2.35s-1.73-3.09-3-4.25c-1.71-1.52-4.11-1.9-6.27-2.64a17.7,17.7,0,0,1-10-24.79" fill="#263238"/>
      <path id="Trazado_148382" data-name="Trazado 148382" d="M101.56,149.84a4.78,4.78,0,0,1,1.91-1.25h-.15a2.7,2.7,0,0,1,.41-.07,1.88,1.88,0,0,1,1.49.18h0a3.58,3.58,0,0,1,1.93,1.68,4.18,4.18,0,0,1-.5,4.31,3.19,3.19,0,0,1-5.85-1.1,3.94,3.94,0,0,1,.76-3.75Z" fill="#455a64"/>
      <path id="Trazado_148383" data-name="Trazado 148383" d="M70.54,174.85,68,129a3.89,3.89,0,0,1,3.37-4.05l20.5-5.81c6.59-.88,11.22,7.13,11.83,13.76.67,7.36,1.21,16.37.49,21.9-1.44,11.11-9.88,12.76-9.88,12.76s.2,10,.27,14l-.74,13.84Z" fill="#a6715e"/>
      <path id="Trazado_148384" data-name="Trazado 148384" d="M101.47,142.5a1.41,1.41,0,0,1-1.33,1.47,1.34,1.34,0,0,1-1.49-1.23,1.41,1.41,0,0,1,1.32-1.47,1.36,1.36,0,0,1,1.5,1.23Z" fill="#263238"/>
      <path id="Trazado_148385" data-name="Trazado 148385" d="M101.92,137.64c-.17.19-1.27-.58-2.8-.53s-2.62.84-2.79.66.08-.42.56-.79a4,4,0,0,1,2.23-.76,3.72,3.72,0,0,1,2.23.66C101.83,137.22,102,137.55,101.92,137.64Z" fill="#263238"/>
      <path id="Trazado_148386" data-name="Trazado 148386" d="M87,142.5a1.42,1.42,0,0,1-1.38,1.5,1.35,1.35,0,0,1-1.5-1.23,1.42,1.42,0,0,1,1.33-1.47A1.36,1.36,0,0,1,87,142.5Z" fill="#263238"/>
      <path id="Trazado_148387" data-name="Trazado 148387" d="M86.92,138.35c-.18.19-1.27-.58-2.8-.53s-2.62.84-2.79.66.08-.42.56-.79a3.93,3.93,0,0,1,2.23-.75,3.65,3.65,0,0,1,2.23.65C86.83,137.93,87,138.26,86.92,138.35Z" fill="#263238"/>
      <path id="Trazado_148388" data-name="Trazado 148388" d="M92.78,149.52a9.761,9.761,0,0,1,2.47-.52c.38-.05.75-.14.81-.41a2,2,0,0,0-.29-1.15c-.4-.93-.81-1.91-1.24-2.93-1.72-4.19-3-7.63-2.81-7.7s1.7,3.27,3.42,7.45c.42,1,.81,2,1.19,3a2.26,2.26,0,0,1,.25,1.52,1,1,0,0,1-.63.59,3,3,0,0,1-.66.11A10.35,10.35,0,0,1,92.78,149.52Z" fill="#263238"/>
      <path id="Trazado_148389" data-name="Trazado 148389" d="M94.35,167.55A28.18,28.18,0,0,1,79.42,164s3.81,7.5,14.85,6.15Z" fill="#6a4539"/>
      <path id="Trazado_148390" data-name="Trazado 148390" d="M92.66,153.15a3.77,3.77,0,0,0-3.14-1.55,2.42,2.42,0,0,0-2,1.15A2.24,2.24,0,0,0,90.15,156a5.73,5.73,0,0,0,2.21-1.46,1.74,1.74,0,0,0,.46-.58.76.76,0,0,0-.08-.77" fill="#6a4539"/>
      <path id="Trazado_148391" data-name="Trazado 148391" d="M88.31,150.7c.25,0,.3,1.64,1.76,2.77s3.21.9,3.23,1.14-.39.33-1.13.37a4.15,4.15,0,0,1-2.7-.85,3.65,3.65,0,0,1-1.36-2.33C88,151.11,88.2,150.69,88.31,150.7Z" fill="#263238"/>
      <path id="Trazado_148392" data-name="Trazado 148392" d="M87.41,132c-.14.42-1.67.27-3.45.54s-3.22.79-3.47.43c-.11-.18.13-.57.7-1a5.79,5.79,0,0,1,2.55-1,5.9,5.9,0,0,1,2.73.24C87.13,131.53,87.47,131.85,87.41,132Z" fill="#263238"/>
      <path id="Trazado_148393" data-name="Trazado 148393" d="M101.23,132.4c-.26.35-1.32,0-2.59,0s-2.33.3-2.58-.05c-.12-.18,0-.53.5-.87a3.74,3.74,0,0,1,4.17,0C101.19,131.87,101.34,132.23,101.23,132.4Z" fill="#263238"/>
      <path id="Trazado_148394" data-name="Trazado 148394" d="M111.2,130.57a7.66,7.66,0,0,0-2.92-4.19c-.8-.52-1.72-.84-2.46-1.43-1.6-1.3-2-3.54-3-5.34a8.34,8.34,0,0,0-6.37-4.23c-2.19-.22-4.45.44-6.58-.1-1.58-.4-3-1.43-4.56-1.73-3.12-.59-6,1.64-8.28,3.87,0,2.23,1.77,3.72,3.48,5.16a7.75,7.75,0,0,0,6.27,1.65c1.7-.31,3.57-1.17,5-.27s1.61,3.3,3,4.49c2,1.7,5.09.1,7.58.84,1.93.57,3.13,2.42,4.41,4s3.2,3,5.12,2.45A22.63,22.63,0,0,0,111.2,130.57Z" fill="#263238"/>
      <path id="Trazado_148395" data-name="Trazado 148395" d="M87.8,121.14c-1.4-.4-4.26-1.31-5-2.52a8.55,8.55,0,0,0-7.43-4.27A7,7,0,0,0,69,119.92a10.14,10.14,0,0,0-8.71,5.61,10,10,0,0,0-.56,1.3,7.69,7.69,0,0,0-.51,6.47c.48,1.27,1.3,2.67.65,3.85s-2.33,1.25-3.63,1.7A5.11,5.11,0,0,0,53,144.57a6.28,6.28,0,0,1,.41,2.51,5.58,5.58,0,0,1-1.51,2.18,6.37,6.37,0,0,0,3.74,10.37,8.2,8.2,0,0,1,2.93.67c1,.61,1.42,1.79,2.11,2.72a5.51,5.51,0,0,0,6,1.87,5.35,5.35,0,0,0,1.19-.61,3.94,3.94,0,0,0,3.5,1.55L71,142.5a1.93,1.93,0,0,0,1.42,1.11c3.74.85,4.29-6.87,3.45-9a21.67,21.67,0,0,0,3.76-4,15.74,15.74,0,0,0,1.72-7.57C82.66,123.21,88.41,121.31,87.8,121.14Z" fill="#263238"/>
      <path id="Trazado_148396" data-name="Trazado 148396" d="M72,144.4c-.12-2.37-3-2.88-5.07-1.69-1.13.65-2,2-1.89,4.48.28,6.71,7,5.05,7,4.86S72.13,147.18,72,144.4Z" fill="#a6715e"/>
      <path id="Trazado_148397" data-name="Trazado 148397" d="M69.84,149.59a2.533,2.533,0,0,1-.31.19,1.18,1.18,0,0,1-.87.05,2.89,2.89,0,0,1-1.45-2.54,3.86,3.86,0,0,1,.26-1.69,1.34,1.34,0,0,1,.84-.93.58.58,0,0,1,.7.29c.1.18.06.32.1.33s.14-.12.07-.39a.67.67,0,0,0-.28-.41.83.83,0,0,0-.65-.15,1.65,1.65,0,0,0-1.18,1.09,4,4,0,0,0-.33,1.89,3,3,0,0,0,1.83,2.83,1.29,1.29,0,0,0,1.06-.22C69.83,149.75,69.86,149.6,69.84,149.59Z" fill="#6a4539"/>
      <path id="Trazado_148398" data-name="Trazado 148398" d="M78.55,119.32a4.21,4.21,0,0,0-1.34,1.12,6.24,6.24,0,0,0-.49,4.65v.17h-.17a6.46,6.46,0,0,0-4.32,3.81,5.06,5.06,0,0,0-.35,1.64,10.26,10.26,0,0,0,.21,1.77,12.76,12.76,0,0,1,.25,1.91,3.13,3.13,0,0,1-.53,2,8,8,0,0,1-3.33,2.5,11.54,11.54,0,0,0-3.12,2,8.45,8.45,0,0,0-2.5,5.63,8.72,8.72,0,0,0,.88,4.15c.45.91.82,1.35.78,1.38s-.11-.09-.28-.3a7.158,7.158,0,0,1-.66-1,8.52,8.52,0,0,1-1.06-4.24,8.68,8.68,0,0,1,2.54-5.93,11.77,11.77,0,0,1,3.21-2.14,7.82,7.82,0,0,0,3.14-2.35c.75-1,.42-2.35.22-3.55a10.491,10.491,0,0,1-.21-1.86,5.51,5.51,0,0,1,.4-1.79,6.78,6.78,0,0,1,4.65-4l-.13.21a6.23,6.23,0,0,1,.68-4.84,2.87,2.87,0,0,1,1-.86,2.69,2.69,0,0,1,.53-.08Z" fill="#455a64"/>
      <path id="Trazado_148399" data-name="Trazado 148399" d="M67.33,152.1a4.89,4.89,0,0,1,1.91-1.25h-.15a2.93,2.93,0,0,1,.41-.07A1.92,1.92,0,0,1,71,151h0a3.58,3.58,0,0,1,1.93,1.68,4.2,4.2,0,0,1-.49,4.31,3.19,3.19,0,0,1-5.86-1.1,3.94,3.94,0,0,1,.75-3.79Z" fill="#455a64"/>
      <path id="Trazado_148400" data-name="Trazado 148400" d="M116.86,370.52s-1.43,10.94-5.39,37.37c-2.32,15.43-6.43,48.49-6.43,48.49l-16-2.89v-90c0-5.14,8.55-3.12,8.55-3.12Z" fill="#a6715e"/>
      <path id="Trazado_148401" data-name="Trazado 148401" d="M84,364.82c0,5.06-13.62,89-13.62,89L55.59,456s-.2-27-.2-39c0-11.84-.53-56-.53-56Z" fill="#a6715e"/>
      <path id="Trazado_148402" data-name="Trazado 148402" d="M121.17,277.24c9,20,19.71,61,20,90.5h0c-3.9.71-6.38,5.68-11,6s-5.8-3.2-9.46-3.91-3,4.66-7.57,3.93-5-5.35-9.23-4.64-2.13,3.74-9.23,4.71-9.53-4.71-13.46-3.64-2.51,5.38-8.54,3.75-5.68-5.53-10.29-4.82-4.06,8.59-9.84,5.18-5.55-9.4-10.66-7.62-5,7.34-8.89,5.21a21.917,21.917,0,0,1-2.39-1.5,7.76,7.76,0,0,1-3.1-7.53c2.18-13.92,9.88-59.45,21-86.82,2.57-6.35,4.71-14.47,9.5-19.37H108.7C113.17,262,118,270.3,121.17,277.24Z" fill="#263238"/>
      <path id="Trazado_148403" data-name="Trazado 148403" d="M126.21,321.73a2.72,2.72,0,0,0,0-.6l-.21-1.71c-.18-1.48-.5-3.62-.93-6.26-.87-5.28-2.29-12.54-4.3-20.46s-4.25-15-6-20c-.89-2.52-1.63-4.55-2.18-5.94-.26-.66-.47-1.19-.64-1.6a2.1,2.1,0,0,0-.26-.55,3.161,3.161,0,0,0,.16.58c.15.43.33,1,.55,1.63.49,1.41,1.19,3.46,2,6,1.68,5.07,3.84,12.13,5.86,20s3.49,15.13,4.44,20.39c.48,2.63.85,4.76,1.1,6.23.12.7.22,1.26.3,1.7a2.11,2.11,0,0,0,.11.59Z" fill="#455a64"/>
      <path id="Trazado_148404" data-name="Trazado 148404" d="M118.47,348c-.14,0-.19,4.86-.1,10.85s.26,10.86.4,10.86.19-4.87.11-10.86S118.61,348,118.47,348Z" fill="#455a64"/>
      <path id="Trazado_148405" data-name="Trazado 148405" d="M101.91,318.5a2.939,2.939,0,0,0,0,.53,14.367,14.367,0,0,0,.19,1.51c.2,1.37.46,3.24.77,5.52.64,4.66,1.47,11.11,2.19,18.25s1.19,13.63,1.49,18.32c.14,2.3.25,4.18.34,5.57,0,.61.08,1.11.11,1.51a2,2,0,0,0,.07.53,1.86,1.86,0,0,0,0-.53v-1.52c0-1.32-.08-3.22-.19-5.57-.2-4.71-.62-11.21-1.34-18.36s-1.6-13.6-2.33-18.25c-.37-2.33-.69-4.21-.93-5.5-.12-.6-.21-1.1-.29-1.49a1.88,1.88,0,0,0-.08-.52Z" fill="#455a64"/>
      <path id="Trazado_148406" data-name="Trazado 148406" d="M83.59,291.17a4.151,4.151,0,0,0,.24-1.08c.12-.69.28-1.71.45-3,.34-2.51.74-6,1-9.84s.47-7.36.53-9.89v-3a5.311,5.311,0,0,0-.06-1.1,4.32,4.32,0,0,0-.13,1.1c-.05.81-.12,1.81-.19,3-.15,2.52-.37,6-.67,9.86s-.65,7.32-.9,9.84c-.11,1.17-.21,2.16-.28,3A4.59,4.59,0,0,0,83.59,291.17Z" fill="#455a64"/>
      <path id="Trazado_148407" data-name="Trazado 148407" d="M78.49,301.36a8.471,8.471,0,0,0,.07-1.57c0-1,0-2.47.08-4.27a135.241,135.241,0,0,1,3.67-27.86c.42-1.76.77-3.17,1-4.15a8.66,8.66,0,0,0,.34-1.53,9.449,9.449,0,0,0-.53,1.48c-.31,1-.72,2.36-1.19,4.11a113.679,113.679,0,0,0-2.72,13.86,111.172,111.172,0,0,0-1,14.09c0,1.8,0,3.27.08,4.28a9.809,9.809,0,0,0,.2,1.56Z" fill="#455a64"/>
      <path id="Trazado_148408" data-name="Trazado 148408" d="M82,335.56c-.14,0-.55,7.76-.91,17.34s-.53,17.36-.39,17.37.54-7.76.9-17.35S82.13,335.56,82,335.56Z" fill="#455a64"/>
      <path id="Trazado_148409" data-name="Trazado 148409" d="M61.24,370.51a2.539,2.539,0,0,0,.1-.58c0-.43.1-1,.17-1.65.14-1.5.34-3.56.58-6.07.5-5.12,1.25-12.19,2.24-20s2.07-14.83,3-19.89c.44-2.54.84-4.58,1.11-6,.13-.67.23-1.21.31-1.63a3.161,3.161,0,0,0,.08-.58,2.41,2.41,0,0,0-.18.55c-.1.43-.24,1-.4,1.61-.34,1.4-.79,3.44-1.27,6-1,5.06-2.14,12.09-3.14,19.89s-1.68,14.89-2.08,20c-.21,2.57-.35,4.65-.43,6.09,0,.67-.05,1.22-.07,1.65a3,3,0,0,0-.02.61Z" fill="#455a64"/>
      <path id="Trazado_148410" data-name="Trazado 148410" d="M47.36,299.27a8.46,8.46,0,0,0,.52-1.41c.33-1,.75-2.31,1.27-3.88,1.06-3.28,2.56-7.8,4.3-12.76s3.41-9.42,4.63-12.64l1.44-3.83a9.258,9.258,0,0,0,.47-1.42,9.351,9.351,0,0,0-.65,1.35c-.4.88-.94,2.17-1.59,3.76-1.31,3.2-3,7.65-4.78,12.61s-3.19,9.52-4.16,12.83c-.49,1.65-.87,3-1.12,3.93A7.19,7.19,0,0,0,47.36,299.27Z" fill="#455a64"/>
      <path id="Trazado_148411" data-name="Trazado 148411" d="M43.32,365.26a.91.91,0,0,0,.08-.26,4.607,4.607,0,0,1,.16-.77l.59-3c.52-2.62,1.25-6.33,2.15-10.91,1.84-9.2,4.53-21.88,7.84-35.81S60.8,288.09,63.3,279c1.27-4.49,2.29-8.13,3-10.7.34-1.23.62-2.21.81-2.91l.2-.76a1,1,0,0,0,.05-.26.583.583,0,0,1-.1.25,4.828,4.828,0,0,0-.25.74c-.21.7-.52,1.66-.9,2.89-.78,2.5-1.86,6.14-3.16,10.66-2.6,9-6,21.54-9.31,35.48S47.7,341.07,46,350.29c-.88,4.61-1.56,8.35-2,10.94-.21,1.27-.38,2.26-.5,3-.05.32-.08.58-.11.78a.93.93,0,0,0-.07.25Z" fill="#455a64"/>
      <path id="Trazado_148412" data-name="Trazado 148412" d="M115.15,330.58a3.19,3.19,0,0,0,0-.68c0-.5,0-1.14-.07-1.95-.07-1.69-.2-4.13-.39-7.15-.38-6-1-14.38-2-23.56s-2-17.48-2.84-23.48c-.42-3-.78-5.41-1.06-7.08-.13-.8-.24-1.43-.32-1.92a3.219,3.219,0,0,0-.15-.67,4.289,4.289,0,0,0,0,.68c.06.49.13,1.14.23,1.94.22,1.73.52,4.15.9,7.1.75,6,1.75,14.3,2.68,23.48s1.64,17.5,2.11,23.53c.23,3,.42,5.4.55,7.14.07.81.13,1.45.17,2A4,4,0,0,0,115.15,330.58Z" fill="#455a64"/>
      <path id="Trazado_148413" data-name="Trazado 148413" d="M106.56,449.9v1.09s18.54,7.18,18.77,10.68l-36.63.26.41-12.2A21,21,0,0,0,106.56,449.9Z" fill="#8c5f18"/>
      <g id="Grupo_75748" data-name="Grupo 75748" opacity="0.6">
        <path id="Trazado_148414" data-name="Trazado 148414" d="M92.87,453.6a1.5,1.5,0,0,0-1,1.72,1.45,1.45,0,0,0,1.69,1,1.59,1.59,0,0,0,1.08-1.83,1.49,1.49,0,0,0-1.88-.87" fill="#fff"/>
      </g>
      <g id="Grupo_75749" data-name="Grupo 75749" opacity="0.6">
        <path id="Trazado_148415" data-name="Trazado 148415" d="M88.71,461.93l.1-2.94,35.09.83s1.63.7,1.45,1.85Z" fill="#fff"/>
      </g>
      <path id="Trazado_148416" data-name="Trazado 148416" d="M106.7,451.09c0,.18-.89.26-1.77.84s-1.34,1.34-1.51,1.27.1-1.1,1.17-1.79S106.74,450.92,106.7,451.09Z" fill="#263238"/>
      <path id="Trazado_148417" data-name="Trazado 148417" d="M110.56,452.65c0,.17-.73.48-1.33,1.24s-.78,1.57-1,1.56-.3-1,.46-1.95S110.55,452.48,110.56,452.65Z" fill="#263238"/>
      <path id="Trazado_148418" data-name="Trazado 148418" d="M112.77,457.23c-.16,0-.41-.85,0-1.83s1.29-1.38,1.36-1.23-.44.67-.79,1.49S113,457.22,112.77,457.23Z" fill="#263238"/>
      <path id="Trazado_148419" data-name="Trazado 148419" d="M70.94,449.43s-11.59,5.88-15.86-1.15l-1.75,2.89-9,21.06A2.94,2.94,0,0,0,45.55,476a3,3,0,0,0,3.16-.15c4.9-3.45,22.88-16.21,23-18.25l.67-5.38a2.76,2.76,0,0,0-1.44-2.76Z" fill="#8c5f18"/>
      <g id="Grupo_75750" data-name="Grupo 75750" opacity="0.6">
        <path id="Trazado_148420" data-name="Trazado 148420" d="M46.05,476.19,72,455.7l-.16,1.17c-.06,1.29-.7,1.71-1.43,2.45-2.17,2.16-8,6.87-21.59,16.51a3,3,0,0,1-2.74.36Z" fill="#fff"/>
      </g>
      <g id="Grupo_75751" data-name="Grupo 75751" opacity="0.6">
        <path id="Trazado_148421" data-name="Trazado 148421" d="M69.12,451.75a1.71,1.71,0,0,0-.8,2.17,1.75,1.75,0,0,0,2.21.81,1.66,1.66,0,1,0-1.56-2.9" fill="#fff"/>
      </g>
      <path id="Trazado_148422" data-name="Trazado 148422" d="M54.24,465a9,9,0,0,0-2.19-2.5c-1.55-1.06-3.18-.89-3.19-1.07s.38-.23,1-.23a4.64,4.64,0,0,1,2.49.8,4.48,4.48,0,0,1,1.67,2C54.33,464.58,54.31,465,54.24,465Z" fill="#263238"/>
      <path id="Trazado_148423" data-name="Trazado 148423" d="M51.7,468.43c-.16.1-.94-.93-2.36-1.54a24.072,24.072,0,0,0-2.72-.74c-.06-.15,1.39-.55,3,.18S51.85,468.37,51.7,468.43Z" fill="#263238"/>
      <path id="Trazado_148424" data-name="Trazado 148424" d="M58.67,460.78c-.15.11-1.35-1.47-3.46-2.62s-4.1-1.36-4.08-1.54,2.14-.25,4.39,1S58.82,460.72,58.67,460.78Z" fill="#263238"/>
      <path id="Trazado_148425" data-name="Trazado 148425" d="M60.08,454.19c-.1.15-1.58-.71-3.61-1.06s-3.72-.11-3.76-.29,1.69-.73,3.87-.32S60.19,454.07,60.08,454.19Z" fill="#263238"/>
      <path id="Trazado_148426" data-name="Trazado 148426" d="M55.31,452.91a2.61,2.61,0,0,1,.3-1,7.41,7.41,0,0,1,1.71-2.36,3.42,3.42,0,0,1,1.86-1,1.19,1.19,0,0,1,1.18.66,1.83,1.83,0,0,1,0,1.34,4.16,4.16,0,0,1-4.66,2.42,4.79,4.79,0,0,1-3.71-3.8,1.58,1.58,0,0,1,.36-1.31,1.18,1.18,0,0,1,1.34-.19,4.09,4.09,0,0,1,1.49,1.5,8.36,8.36,0,0,1,1.17,2.66,2.68,2.68,0,0,1,.11,1.06,12.8,12.8,0,0,0-1.65-3.48,3.76,3.76,0,0,0-1.33-1.27.63.63,0,0,0-.73.1,1.06,1.06,0,0,0-.18.87,4.28,4.28,0,0,0,3.25,3.26,3.61,3.61,0,0,0,4-2,1.39,1.39,0,0,0,0-.94.67.67,0,0,0-.65-.37,3.06,3.06,0,0,0-1.59.85,11,11,0,0,0-2.27,3Z" fill="#263238"/>
      <path id="Trazado_148427" data-name="Trazado 148427" d="M139.62,213.16l-6.29,23.75a3,3,0,0,1-2.91,2.19l-32.55-.64A3,3,0,0,1,95,234.9l4.79-22.74a3,3,0,0,1,2.89-2.34H137a2.67,2.67,0,0,1,2.62,3.34Z" fill="#263238"/>
      <path id="Trazado_148428" data-name="Trazado 148428" d="M142.35,218.52a2.37,2.37,0,0,0,0-2.94,3.65,3.65,0,0,0-2.79-1.32,7.94,7.94,0,0,0-3.11.64,20,20,0,0,0-3.52,1.76,3.35,3.35,0,0,0-1.76,2.05c-.15.92.84,2,1.65,1.5a3.91,3.91,0,0,0-2.28,2.71c-.16,1.16.46,1.78,1.58,2.12a1.74,1.74,0,0,0-1,2.23,2,2,0,0,0,2.51.77,6,6,0,0,0,2.19-1.84,5.31,5.31,0,0,0-.62,3.68,7.21,7.21,0,0,0,4.7-5.78,3.33,3.33,0,0,0,.91-4.09,3.43,3.43,0,0,0,2.05-2.88" fill="#a6715e"/>
      <path id="Trazado_148429" data-name="Trazado 148429" d="M132.16,225.05a9.328,9.328,0,0,0,1.07-.82,7.21,7.21,0,0,1,2.83-1.44,3.79,3.79,0,0,1,1.71,0,3.3,3.3,0,0,1,1.26.62,4.39,4.39,0,0,1,.82,1,1,1,0,0,0-.1-.35,2.55,2.55,0,0,0-.59-.82,3.26,3.26,0,0,0-1.32-.72,3.8,3.8,0,0,0-1.84,0,6.66,6.66,0,0,0-2.89,1.56,5.59,5.59,0,0,0-.95.97Z" fill="#6a4539"/>
      <path id="Trazado_148430" data-name="Trazado 148430" d="M132.43,220.33a5.759,5.759,0,0,0,1.31-.55c.39-.18.85-.41,1.38-.6a10.738,10.738,0,0,1,1.78-.46,5,5,0,0,1,1.81,0,3.18,3.18,0,0,1,1.34.58,3.38,3.38,0,0,1,.88,1.05.73.73,0,0,0-.11-.37,2.3,2.3,0,0,0-.65-.83,3.26,3.26,0,0,0-1.41-.68,5.27,5.27,0,0,0-1.9,0,11,11,0,0,0-1.83.49,12.836,12.836,0,0,0-1.38.67A9.561,9.561,0,0,0,132.43,220.33Z" fill="#6a4539"/>
      <path id="Trazado_148431" data-name="Trazado 148431" d="M63.91,190.66l.76,29L40,222c0-.16-2.67-37.53,14.5-43.72Z" fill="#ff9d00"/>
      <path id="Trazado_148432" data-name="Trazado 148432" d="M40,222a12.318,12.318,0,0,1,1.76-.27l4.82-.54c4.06-.43,9.69-1,15.91-1.6l2.16-.2-.23.26c-.15-5.74-.25-10.85-.3-14.53v-4.33a9.321,9.321,0,0,1,.06-1.58,9.869,9.869,0,0,1,.13,1.57c0,1.1.12,2.56.2,4.33.14,3.68.3,8.79.46,14.53v.24h-.24l-2.16.21c-6.22.59-11.85,1.1-15.93,1.45l-4.83.38A11.369,11.369,0,0,1,40,222Z" fill="#263238"/>
      <path id="Trazado_148433" data-name="Trazado 148433" d="M61.77,220.16l.79,9.56,23-8.41,6-2.8a13.08,13.08,0,0,1,8.67-.81h0s14.08.92,14.21,1.82.77,1.66,0,1.79-11.9.64-11.9.64,12,.77,12.27,1.66-.11,2.31-.75,2.31H101.05s12.29.77,12.42,1.28,1,1.41-.13,1.79-12.42.77-12.42.77l10.63,1.92s.38,1.66-.51,1.66S87,234.88,87,234.88s-27.14,17.31-32.26,18.56-9.6-4.67-10.23-8.85c-1-6.32-1.84-22.84-1.84-22.84Z" fill="#a6715e"/>
      <path id="Trazado_148434" data-name="Trazado 148434" d="M55.26,240.58a5.68,5.68,0,0,1,.18-2,12.71,12.71,0,0,1,1.83-4.52,12.42,12.42,0,0,1,3.49-3.43,5.84,5.84,0,0,1,1.8-.9c.13.16-2.77,1.51-4.86,4.61a15.43,15.43,0,0,0-1.91,4.33,11.88,11.88,0,0,1-.53,1.91Z" fill="#6a4539"/>
    </g>
  </g>
</svg>
