<svg xmlns="http://www.w3.org/2000/svg" width="130.245" height="134.863" viewBox="0 0 130.245 134.863">
  <g id="medical-team" transform="translate(0)">
    <path id="Trazado_149518" data-name="Trazado 149518" d="M17.208,69.693s13.522,31.648,62.2,31.648,62.423-31.653,62.423-31.653a64.549,64.549,0,0,0-124.62.005Z" transform="translate(-14.984 -16.202)" fill="#ffdd40"/>
    <path id="Trazado_149519" data-name="Trazado 149519" d="M242.267,33.15c-.4.188-8.575,4.147-2.077,12.31q.16.2.309.421a7.684,7.684,0,0,0,3.832-.257c2.422-.805,6.22-1.612,9.316-.219,3.644,1.64,3.227,6.544,3.025,9.32a4.507,4.507,0,0,0,.681,2.752,16.751,16.751,0,0,1,.746,2.29c.241.629.938,1.279,1.044,1.938a3.863,3.863,0,0,1,2.043-.47c.084-2.9.352-6.819.352-6.819,2.867-14.042-8.484-21.013-19.272-21.266Z" transform="translate(-177.391 -24.418)" fill="#d1714b"/>
    <path id="Trazado_149520" data-name="Trazado 149520" d="M195.075,33.349c-10.883,1.483-11.917,7.653-11.922,9.917a1.246,1.246,0,0,1-.691,1.122C176.8,47.142,179.853,61.2,179.853,61.2a4.606,4.606,0,0,1,1.607.483A9.735,9.735,0,0,1,182,59.7a21.025,21.025,0,0,1,1.254-2.242,4.464,4.464,0,0,0,.683-2.728c-.2-2.769-.631-7.7,3.024-9.343,3.1-1.393,6.894-.586,9.316.219a7.68,7.68,0,0,0,2.15.381c-.125-.191-.253-.375-.388-.545-6.233-7.832,1.037-11.794,1.992-12.269A25.433,25.433,0,0,0,195.075,33.349Z" transform="translate(-134.183 -24.399)" fill="#bc6242"/>
    <path id="Trazado_149521" data-name="Trazado 149521" d="M253.973,234.068a22.8,22.8,0,0,1-2.3,2.061,12.221,12.221,0,0,1-7.495,2.562c-.389,0-.775-.021-1.16-.057-.106,2.3-.549,5.9-2.194,8.318-.015.022-.035.045-.052.067H248.2a1.971,1.971,0,0,1,.409-.644l6.969-7.285a1.687,1.687,0,0,1,.377-.294,11.337,11.337,0,0,1-1.981-4.727Z" transform="translate(-179.658 -172.413)" fill="#ffaa7b"/>
    <path id="Trazado_149522" data-name="Trazado 149522" d="M218.149,247.1c1.636-2.4,2.083-5.981,2.192-8.279a12.214,12.214,0,0,1-6.86-2.544,22.814,22.814,0,0,1-2.251-2.007,11.323,11.323,0,0,1-1.954,4.653,1.688,1.688,0,0,1,.413.315l6.969,7.285a1.979,1.979,0,0,1,.409.644H218.1C218.114,247.146,218.134,247.124,218.149,247.1Z" transform="translate(-156.461 -172.563)" fill="#fc9460"/>
    <path id="Trazado_149523" data-name="Trazado 149523" d="M236.257,288.8h-7.935a11.482,11.482,0,0,1-3.766,5.254c1.893,3.464,3.8,6.454,5.356,8.727a19.67,19.67,0,0,1,2.162,4.155,19.681,19.681,0,0,1,2.161-4.155,104.176,104.176,0,0,0,5.484-8.963,11.643,11.643,0,0,1-3.461-5.018Z" transform="translate(-167.716 -212.727)" fill="#49b1f7"/>
    <path id="Trazado_149524" data-name="Trazado 149524" d="M243.941,284.094a1.988,1.988,0,0,1,.109-1.6h-7.883a1.988,1.988,0,0,1,.109,1.6,13.139,13.139,0,0,1-1.105,2.317l2.353,3.169h5.054l2.417-3.254A13.14,13.14,0,0,1,243.941,284.094Z" transform="translate(-175.534 -208.084)" fill="#4f71b6"/>
    <path id="Trazado_149525" data-name="Trazado 149525" d="M90.359,20.6c-4.813-3.476-8.663-5.13-12.563-4.959-.685.822-2.516,3.3-2.324,6.126A6.3,6.3,0,0,0,77.8,26.141a2.734,2.734,0,0,0-.223.415,14.013,14.013,0,0,1,8.916,2.532A7.041,7.041,0,0,1,88.9,32.545l.657,2.553,1.4,3.138a2.5,2.5,0,0,1,2.017-.3h0l.632-9.821A8.48,8.48,0,0,0,90.359,20.6Z" transform="translate(-57.892 -11.514)" fill="#3c58a0"/>
    <path id="Trazado_149526" data-name="Trazado 149526" d="M35.474,29.081a13.865,13.865,0,0,1,7.835-2.548,2.39,2.39,0,0,1,.314-.457c-5.587-4.519-.017-10.444-.008-10.455-3.708,0-7.421,1.658-12.011,4.974a8.479,8.479,0,0,0-3.243,7.511l.632,9.821h0a2.5,2.5,0,0,1,2.017.3l1.4-3.138.657-2.553A7.045,7.045,0,0,1,35.474,29.081Z" transform="translate(-23.174 -11.507)" fill="#2a428c"/>
    <path id="Trazado_149527" data-name="Trazado 149527" d="M92.83,61.325a7.041,7.041,0,0,0-2.409-3.458,13.993,13.993,0,0,0-8.742-2.541l.049.045a2.155,2.155,0,0,0-.074,2.425c-.227.119-.523.285-.858.492a17.409,17.409,0,0,1,9.625,1.906,5.68,5.68,0,0,1,2.409,2.66l.931,2.092Z" transform="translate(-61.823 -40.744)" fill="#6289cc"/>
    <path id="Trazado_149528" data-name="Trazado 149528" d="M46.123,60.193a16.735,16.735,0,0,1,7.543-1.954c.369-.2.606-.311.606-.311a1.86,1.86,0,0,1,0-2.616,13.914,13.914,0,0,0-8.149,2.554,7.042,7.042,0,0,0-2.409,3.458l-.932,3.621.931-2.091A5.681,5.681,0,0,1,46.123,60.193Z" transform="translate(-33.823 -40.743)" fill="#4f71b6"/>
    <path id="Trazado_149529" data-name="Trazado 149529" d="M134,98.5a2.232,2.232,0,0,0-2.375.067,7.452,7.452,0,0,1,.022,2.2l-.627,4.563q0,.552-.033,1.083a1.936,1.936,0,0,0,2.415-1.852,7.025,7.025,0,0,1,.27-1.194C134.074,102.1,135.54,99.919,134,98.5Z" transform="translate(-98.791 -72.321)" fill="#e58b6c"/>
    <path id="Trazado_149530" data-name="Trazado 149530" d="M28.39,98.5a2.232,2.232,0,0,1,2.375.067,7.462,7.462,0,0,0-.022,2.2l.627,4.563q0,.552.033,1.083a1.936,1.936,0,0,1-2.415-1.852,7.027,7.027,0,0,0-.27-1.194c-.407-1.27-1.873-3.45-.328-4.865Z" transform="translate(-22.712 -72.321)" fill="#d1714b"/>
    <path id="Trazado_149531" data-name="Trazado 149531" d="M83.579,74.292,82.1,70.962l-.485-1.09a5.679,5.679,0,0,0-2.409-2.66,17.24,17.24,0,0,0-9.054-1.941c-1.467.818-4.577,2.9-4.577,5.8,0,.159,0,.348,0,.564a58.811,58.811,0,0,0,.44,8,14.3,14.3,0,0,1,12.528,1.113l.111.075a28.08,28.08,0,0,0,4.208,2.359,17.729,17.729,0,0,0,.126-2.1l.627-4.563A7.454,7.454,0,0,0,83.579,74.292Z" transform="translate(-50.604 -48.063)" fill="#f2a08b"/>
    <path id="Trazado_149532" data-name="Trazado 149532" d="M43.867,80.736a11.24,11.24,0,0,1,2.5-1.245,60.46,60.46,0,0,1-.393-8.428c0-3.505,5.088-5.82,5.088-5.82h0a16.953,16.953,0,0,0-8.148,1.964,5.678,5.678,0,0,0-2.409,2.66l-.485,1.089h0l-1.5,3.379a7.459,7.459,0,0,0-.02,2.167l.627,4.564a17.679,17.679,0,0,0,.141,2.232,28.265,28.265,0,0,0,4.495-2.488Z" transform="translate(-30.613 -48.057)" fill="#e58b6c"/>
    <path id="Trazado_149533" data-name="Trazado 149533" d="M83.627,173.069a7.674,7.674,0,0,1-1.84-3.876,16.6,16.6,0,0,1-1.657,1.48,8.887,8.887,0,0,1-5.351,1.861c-.141,2.391-.815,7.549-3.92,11.407-.1-.01-.22-.019-.361-.023a34.6,34.6,0,0,0,4.179,4.656,36.717,36.717,0,0,0,9.538-14.93s0-.005,0-.008C84.033,173.466,83.836,173.278,83.627,173.069Z" transform="translate(-54.238 -124.627)" fill="#e58b6c"/>
    <path id="Trazado_149534" data-name="Trazado 149534" d="M59.7,172.536a8.889,8.889,0,0,1-5.451-1.864,16.594,16.594,0,0,1-1.657-1.48,7.671,7.671,0,0,1-1.84,3.876c-.209.209-.405.4-.591.568,0,0,0,.005,0,.008a33.78,33.78,0,0,0,5.673,10.69c.13.013.208.028.208.028,3.326-4,4.017-9.386,4.154-11.842-.166.009-.333.016-.5.016Z" transform="translate(-39.257 -124.627)" fill="#d1714b"/>
    <path id="Trazado_149535" data-name="Trazado 149535" d="M58.015,204.409a6.807,6.807,0,0,0-4.688-4.8A78.364,78.364,0,0,1,42.85,195.58,40.3,40.3,0,0,1,32.8,211.042l0,0-2.735,2.8a.876.876,0,0,1-1.178.062,43.529,43.529,0,0,1-7.42-7.455c-.01.089-.021.176-.027.269a14.729,14.729,0,0,0-9.975,3.541,12.139,12.139,0,0,0-2.7,3.686c0,.15,0,.3,0,.448a64.345,64.345,0,0,0,20.177,46.866,176.668,176.668,0,0,1,5.29-32.765,9.358,9.358,0,0,1,6.445-6.593,105.053,105.053,0,0,0,13.41-5.089l6.045-2.738c-.716-4.018-1.5-7.319-2.118-9.663Z" transform="translate(-8.766 -144.063)" fill="#3c58a0"/>
    <path id="Trazado_149536" data-name="Trazado 149536" d="M21.831,207.129c0-.077,0-.15.007-.224a38.064,38.064,0,0,1-6.272-11.325c-1.172.543-2.77,1.254-4.575,1.974a64.605,64.605,0,0,0-2.224,16.838c0,.174.006.347.007.522,3.461-8.552,13.057-7.784,13.057-7.784Z" transform="translate(-8.767 -144.063)" fill="#2a428c"/>
    <g id="Grupo_75929" data-name="Grupo 75929" transform="translate(20.291 48.571)">
      <path id="Trazado_149537" data-name="Trazado 149537" d="M99.6,186.186c-1.638-.74-2.677-1.27-2.677-1.27a3.98,3.98,0,0,1-.7-.416.574.574,0,0,0-.879.3A34.975,34.975,0,0,1,85.8,199.707c.681.649,1.407,1.292,2.183,1.921l1.629,1.32A39.707,39.707,0,0,0,99.9,186.886a.572.572,0,0,0-.308-.7Z" transform="translate(-85.799 -184.395)" fill="#4f71b6"/>
    </g>
    <path id="Trazado_149538" data-name="Trazado 149538" d="M76.259,132.019a8.84,8.84,0,0,0,1.373-.871,16.774,16.774,0,0,0,6.39-11.518,28.111,28.111,0,0,1-4.241-2.375l-.111-.075a14.3,14.3,0,0,0-12.564-1.1C68.15,124.525,71.214,129.867,76.259,132.019Z" transform="translate(-51.74 -84.802)" fill="#e9efff"/>
    <path id="Trazado_149539" data-name="Trazado 149539" d="M47.85,133.446a8.909,8.909,0,0,0,9.969.625c-6.341-2.534-8.51-9.834-9.241-15.824a11.213,11.213,0,0,0-2.464,1.232l-.111.075a28.287,28.287,0,0,1-4.528,2.5A16.777,16.777,0,0,0,47.85,133.446Z" transform="translate(-32.859 -87.1)" fill="#d3dcfb"/>
    <path id="Trazado_149540" data-name="Trazado 149540" d="M417.188,43.918a2.664,2.664,0,0,0-.612,1.737,1.846,1.846,0,0,0,.763,1.323c.971.761,7.04,11.785,10.888,19.017a7.585,7.585,0,0,0,4.4,3.926c2.029.588,4.3.082,6.749-1.494.013-.16.021-.321.021-.483a6.084,6.084,0,0,0-2.006-4.511,4.7,4.7,0,0,1-1.328-4.988c2.024-6.035-2.511-8.224-5.427-15.785-2.536-6.574-9.71-6.159-12.031-5.838a5.341,5.341,0,0,1-.826.047,5.49,5.49,0,0,1-.592-.025v7.073Z" transform="translate(-309.153 -27.013)" fill="#6e5d76"/>
    <path id="Trazado_149541" data-name="Trazado 149541" d="M371.512,65.821s-9.609-18.064-11-19.153,0-2.607,0-2.607V36.867a5.176,5.176,0,0,1-.629-.044c-2.321-.321-9.5-.737-12.031,5.838-2.916,7.56-7.451,9.749-5.427,15.785a4.7,4.7,0,0,1-1.328,4.988,6.067,6.067,0,0,0-1.1,7.693,6.1,6.1,0,0,1,.9,3.878,7.488,7.488,0,0,0,1.587,5.607H360.71l18.217-.112a7.247,7.247,0,0,0,1.6-5.495,6.1,6.1,0,0,1,.9-3.878,6.036,6.036,0,0,0,.9-3.182C374.716,73.035,371.512,65.821,371.512,65.821Z" transform="translate(-252.083 -27.013)" fill="#56415e"/>
    <path id="Trazado_149542" data-name="Trazado 149542" d="M410.334,188.044l-.046.1.009.106c0,.039.012.131.025.267.938.093,1.882.145,2.831.145a28.945,28.945,0,0,0,9.805-1.716l2.242-11.9q-.873-.519-1.726-1.074a7.371,7.371,0,0,1-3.208-4.745l-.006-.03a16.594,16.594,0,0,1-1.657,1.48,8.889,8.889,0,0,1-5.451,1.864q-.187,0-.373-.008c0,3.181-.234,10.853-2.445,15.516Z" transform="translate(-304.526 -124.626)" fill="#ffaa7b"/>
    <path id="Trazado_149543" data-name="Trazado 149543" d="M385.014,188.213c2.254-4.754,2.492-12.466,2.485-15.678h-.024a8.889,8.889,0,0,1-5.451-1.864,16.56,16.56,0,0,1-1.657-1.48l-.006.03a7.371,7.371,0,0,1-3.208,4.745h0c-.567.371-1.143.728-1.725,1.074l2.242,11.9a29,29,0,0,0,7.376,1.611C385.024,188.335,385.014,188.213,385.014,188.213Z" transform="translate(-278.849 -124.627)" fill="#fc9460"/>
    <path id="Trazado_149544" data-name="Trazado 149544" d="M410.3,236.414c.057.665,1.456,16.327,5.892,19.781a3.057,3.057,0,0,0,1.9.7h.029a16.2,16.2,0,0,0,.478,2.779l4.461-25.094a26.535,26.535,0,0,1-12.766,1.755Z" transform="translate(-304.532 -172.794)" fill="#49b1f7"/>
    <path id="Trazado_149545" data-name="Trazado 149545" d="M393.465,283.637h1.184l4.438-24.965a14.18,14.18,0,0,1-.286-2.2c-5.981.974-7.8-20.091-7.8-20.091a26.672,26.672,0,0,1-7.443-1.8l2.846,18.552a9.326,9.326,0,0,1,2.06,3.824,175.581,175.581,0,0,1,4.781,26.678h.218Z" transform="translate(-284.839 -172.793)" fill="#1e9ef4"/>
    <path id="Trazado_149546" data-name="Trazado 149546" d="M444.281,233.2a9.217,9.217,0,0,0,6.727,1.95,64.77,64.77,0,0,0,2.56-41.266,45.851,45.851,0,0,1-6.519-3.28l-6.624,34.855C440.707,227.4,441.578,230.951,444.281,233.2Z" transform="translate(-326.725 -140.397)" fill="#73c3f9"/>
    <path id="Trazado_149547" data-name="Trazado 149547" d="M426.262,317.678l-5.422,28.531q.226,2.413.391,4.942a64.671,64.671,0,0,0,15.511-22.806C426.559,329.146,426.262,317.678,426.262,317.678Z" transform="translate(-312.298 -234)" fill="#49b1f7"/>
    <path id="Trazado_149548" data-name="Trazado 149548" d="M305.935,208.664l4.06,2.793a4.034,4.034,0,0,1,1.256,1.4,105.112,105.112,0,0,0,13.452,5.109,9.367,9.367,0,0,1,5.056,3.616L323.923,190.6a45.707,45.707,0,0,1-7.061,3.5c-1.689.661-3.536,1.317-5.372,1.849a6.79,6.79,0,0,0-4.676,4.791c-.524,1.983-1.164,4.652-1.783,7.859a.9.9,0,0,1,.9.066Z" transform="translate(-226.994 -140.395)" fill="#49b1f7"/>
    <path id="Trazado_149549" data-name="Trazado 149549" d="M412.986,2.539a3.274,3.274,0,0,0,1.361,2.525,2.184,2.184,0,0,0-.4.676h11.5A12.486,12.486,0,0,0,414.943,0c-.217,0-.431.01-.646.021a3.693,3.693,0,0,0-1.311,2.519Z" transform="translate(-306.513 0)" fill="#d3dcfb"/>
    <path id="Trazado_149550" data-name="Trazado 149550" d="M391.018,0a12.486,12.486,0,0,0-10.512,5.741h9.945a2.077,2.077,0,0,1,.568-.709C387.5,2.44,391.018,0,391.018,0Z" transform="translate(-282.588 0)" fill="#bec8f7"/>
    <path id="Trazado_149551" data-name="Trazado 149551" d="M364.466,102.474s-.765-4.845.116-7.73c-.8-.533-2.346-.794-3.041-.114-1.423,1.392-.38,3.493.119,4.82a5.039,5.039,0,0,1,.3,1.233,2.288,2.288,0,0,0,2.6,2.18c-.03-.129-.062-.257-.091-.388Z" transform="translate(-268.089 -69.403)" fill="#fc9460"/>
    <path id="Trazado_149552" data-name="Trazado 149552" d="M471.032,94.63c-.7-.68-2.241-.419-3.041.114.882,2.885.116,7.73.116,7.73-.03.131-.061.259-.091.388a2.288,2.288,0,0,0,2.6-2.18,5.04,5.04,0,0,1,.3-1.233C471.412,98.123,472.455,96.022,471.032,94.63Z" transform="translate(-347.029 -69.403)" fill="#ffaa7b"/>
    <path id="Trazado_149553" data-name="Trazado 149553" d="M416.428,65.592a1.742,1.742,0,0,1-.462-1.107c-.045-1.509-.426-5.2-2.985-6.905-1.815-1.209-4.367-1.2-7.585.038a1.5,1.5,0,0,1-1.077,0q-.309-.119-.611-.222c-2.573,1.8-2.966,5.4-3.014,6.894a1.72,1.72,0,0,1-.5,1.13c-1.746,1.844-1.364,7.232-.956,9.45a32.855,32.855,0,0,0,3.884,9.673,15.15,15.15,0,0,0,5.252,5.052,14.392,14.392,0,0,0,5.371-5.277,33.444,33.444,0,0,0,3.566-9.478c.359-2.283.742-7.421-.879-9.247Z" transform="translate(-296.13 -41.752)" fill="#ffc7ab"/>
    <g id="Grupo_75930" data-name="Grupo 75930" transform="translate(95.963 14.932)">
      <path id="Trazado_149554" data-name="Trazado 149554" d="M384.226,84.322a32.171,32.171,0,0,1-3.8-9.471c-.4-2.172-.773-7.448.936-9.254a1.686,1.686,0,0,0,.494-1.107c.048-1.509.455-5.2,3.185-6.906.021-.013.044-.024.066-.038-3.119-1.155-5.6-1.144-7.377.038-2.559,1.7-2.94,5.4-2.985,6.906a1.741,1.741,0,0,1-.463,1.107c-1.6,1.806-1.251,7.082-.878,9.254a33.427,33.427,0,0,0,3.564,9.471,14.5,14.5,0,0,0,6.833,6.006,5.183,5.183,0,0,0,4.1,0,15.23,15.23,0,0,0,1.75-.9A14.885,14.885,0,0,1,384.226,84.322Z" transform="translate(-373.086 -56.689)" fill="#ffaa7b"/>
    </g>
    <path id="Trazado_149555" data-name="Trazado 149555" d="M416.783,19.136a1.918,1.918,0,0,0-.489,1.174,1.849,1.849,0,0,0,.69,1.409v9.258a2.664,2.664,0,0,0-.612,1.737,1.738,1.738,0,0,0,.441,1.019,27.71,27.71,0,0,1,11.768,2.357A2.167,2.167,0,0,0,430.537,36a2.476,2.476,0,0,0,1.127-1.676L433.5,23.779a3.992,3.992,0,0,0-3.933-4.676H416.747c.013.011.024.022.036.033Z" transform="translate(-308.95 -14.071)" fill="#e9efff"/>
    <path id="Trazado_149556" data-name="Trazado 149556" d="M375.173,31.118v-9.58a1.45,1.45,0,0,1,0-2.435H362.988a3.992,3.992,0,0,0-3.933,4.676l1.833,10.544A2.477,2.477,0,0,0,362.015,36a2.166,2.166,0,0,0,1.956.091,27.717,27.717,0,0,1,11.2-2.364C373.783,32.636,375.173,31.118,375.173,31.118Z" transform="translate(-266.743 -14.071)" fill="#d3dcfb"/>
    <path id="Trazado_149557" data-name="Trazado 149557" d="M415.982,37.929a1.59,1.59,0,0,1-1.585-1.585V29.934a1.585,1.585,0,0,1,3.17,0v6.409A1.59,1.59,0,0,1,415.982,37.929Z" transform="translate(-307.552 -20.882)" fill="#ff4155"/>
    <path id="Trazado_149558" data-name="Trazado 149558" d="M411.811,42.1a1.59,1.59,0,0,1-1.585,1.585h-6.409a1.585,1.585,0,0,1,0-3.17h6.409A1.589,1.589,0,0,1,411.811,42.1Z" transform="translate(-298.591 -29.844)" fill="#ff7186"/>
    <path id="Trazado_149559" data-name="Trazado 149559" d="M66.723,231.322A35.926,35.926,0,0,1,60.7,225.1a3.748,3.748,0,0,0-2.6.731,3.489,3.489,0,0,0-1.165,2.554,41.18,41.18,0,0,0,6.655,6.8l.69.572a1.02,1.02,0,0,0,1.381-.072l2.849-2.914Z" transform="translate(-44.249 -165.803)" fill="#6289cc"/>
    <path id="Trazado_149560" data-name="Trazado 149560" d="M43.617,195.56A34.146,34.146,0,0,1,37.88,184.8a.574.574,0,0,0-.879-.3,3.974,3.974,0,0,1-.7.417s-1.04.529-2.677,1.27a.572.572,0,0,0-.309.7,38.978,38.978,0,0,0,6.577,12A3.039,3.039,0,0,1,43.617,195.56Z" transform="translate(-26.83 -135.824)" fill="#4f71b6"/>
    <path id="Trazado_149561" data-name="Trazado 149561" d="M244.134,308.239c-.95,0-1.794-.413-2.64-.413-.775,0-1.551.413-2.414.413l-1.8,5.511c.709,1.118,1.384,2.138,2,3.044a19.673,19.673,0,0,1,2.161,4.155,19.682,19.682,0,0,1,2.161-4.155c.7-1.025,1.474-2.2,2.285-3.492Z" transform="translate(-177.091 -226.743)" fill="#3c58a0"/>
    <path id="Trazado_149562" data-name="Trazado 149562" d="M270.422,266.37a79.294,79.294,0,0,0,5.895-13.4.915.915,0,0,1,.658-.61l-.471-.584a1.69,1.69,0,0,0-2.536-.107L267,258.958a1.986,1.986,0,0,0-.431,2.049,11.477,11.477,0,0,0,3.854,5.363Z" transform="translate(-198.575 -184.996)" fill="#73c3f9"/>
    <path id="Trazado_149563" data-name="Trazado 149563" d="M201.274,252.972a79.572,79.572,0,0,0,6.015,13.616,11.321,11.321,0,0,0,4.168-5.582,1.986,1.986,0,0,0-.431-2.049l-6.969-7.286a1.69,1.69,0,0,0-2.536.107l-.605.717A.911.911,0,0,1,201.274,252.972Z" transform="translate(-150.303 -184.996)" fill="#73c3f9"/>
    <path id="Trazado_149564" data-name="Trazado 149564" d="M319.172,136.98c-.848-.777-2.536-.383-3.266.093a10.256,10.256,0,0,1,.031,3.021l-.862,6.274q0,.759-.045,1.49c2.1.633,3.144-1.252,3.32-2.546a9.638,9.638,0,0,1,.371-1.642C319.28,141.924,321.3,138.926,319.172,136.98Z" transform="translate(-234.359 -100.575)" fill="#ffaa7b"/>
    <path id="Trazado_149565" data-name="Trazado 149565" d="M173.978,136.98c.848-.777,2.536-.383,3.266.093a10.256,10.256,0,0,0-.031,3.021l.861,6.274c0,.506.016,1,.045,1.49-2.1.633-3.144-1.252-3.32-2.546a9.634,9.634,0,0,0-.371-1.642C173.87,141.924,171.855,138.926,173.978,136.98Z" transform="translate(-129.76 -100.575)" fill="#fc9460"/>
    <path id="Trazado_149566" data-name="Trazado 149566" d="M178.242,335.792a28.018,28.018,0,0,0-12.316-7.836,1.145,1.145,0,0,1-.768-1.412l.788-2.816a1.773,1.773,0,0,0-1.708-2.251h-.8c-2.557.363-10.5,2.227-10.5,11.367v33.11a64.267,64.267,0,0,0,25.539,5.694V334.024Q178.32,334.9,178.242,335.792Z" transform="translate(-114.962 -236.798)" fill="#bec8f7"/>
    <path id="Trazado_149567" data-name="Trazado 149567" d="M101.991,296.531c0-10.585,10.906-11.057,10.906-11.057.028-.106.06-.2.09-.3-.03,0-.06-.005-.09-.005h-4.8a1.153,1.153,0,0,1-1.148-1.262l.959-10.166a3.726,3.726,0,0,1,.508-1.557,105.059,105.059,0,0,1-13.41,5.089,9.358,9.358,0,0,0-6.445,6.593,176.69,176.69,0,0,0-5.325,33.282,64.634,64.634,0,0,0,18.755,12.672c0-7.184,0-24.953,0-33.285Z" transform="translate(-63.62 -200.486)" fill="#a2b2ed"/>
    <ellipse id="Elipse_4688" data-name="Elipse 4688" cx="8.471" cy="8.471" rx="8.471" ry="8.471" transform="translate(33.526 97.24) rotate(-22.514)" fill="#e9efff"/>
    <path id="Trazado_149568" data-name="Trazado 149568" d="M202.145,314.3a102.784,102.784,0,0,1-5.426-8.871l0,.037a6.441,6.441,0,0,0-4.828-.191,5.656,5.656,0,0,0-3,3.914,14.744,14.744,0,0,0-2.068.371H189.2a1.463,1.463,0,0,1,1.409,1.857l-.788,2.816a1.461,1.461,0,0,0,.975,1.791,27.334,27.334,0,0,1,12.666,8.315,19.438,19.438,0,0,1,1.024-5.366A19.435,19.435,0,0,0,202.145,314.3Z" transform="translate(-139.921 -224.569)" fill="#d3dcfb"/>
    <path id="Trazado_149569" data-name="Trazado 149569" d="M186.191,269.739h0A78.661,78.661,0,0,1,180.2,256.2a.907.907,0,0,0-1.377-.468l-4.06,2.793a4.042,4.042,0,0,0-1.733,2.95l-.959,10.166a1.463,1.463,0,0,0,1.457,1.6h4.8c1.768-6.759,7.865-3.5,7.865-3.5Z" transform="translate(-129.05 -188.252)" fill="#bec8f7"/>
    <path id="Trazado_149570" data-name="Trazado 149570" d="M277.381,301.445a1.85,1.85,0,0,1,1.242-1.768,1.809,1.809,0,0,1,2.044.535,12.321,12.321,0,0,1,2.886,8.192v16.7a64.822,64.822,0,0,0,11.151-8.676,176.661,176.661,0,0,0-5.324-33.258,9.358,9.358,0,0,0-6.445-6.593,106.538,106.538,0,0,1-13.957-5.339,3.72,3.72,0,0,1,.674,1.806l.959,10.166a1.153,1.153,0,0,1-1.148,1.262h-4.8a1.773,1.773,0,0,0-1.708,2.251l.788,2.816a1.145,1.145,0,0,1-.768,1.412,27.233,27.233,0,0,0-14.338,10.442h-.31v33.246c.477.01.954.018,1.433.018a64.259,64.259,0,0,0,27.621-6.2V301.445Z" transform="translate(-185.226 -199.79)" fill="#d3dcfb"/>
    <path id="Trazado_149571" data-name="Trazado 149571" d="M251.714,277.982A89.328,89.328,0,0,0,262.789,256.2a.907.907,0,0,1,1.377-.468l4.06,2.793a4.04,4.04,0,0,1,1.733,2.95l.959,10.166a1.463,1.463,0,0,1-1.457,1.6h-4.8a1.463,1.463,0,0,0-1.409,1.857l.788,2.816a1.461,1.461,0,0,1-.975,1.791,26.671,26.671,0,0,0-14.739,11.205V288.95a19.436,19.436,0,0,1,3.388-10.968Z" transform="translate(-185.225 -188.252)" fill="#e9efff"/>
    <path id="Trazado_149572" data-name="Trazado 149572" d="M254.769,89.662a8.369,8.369,0,0,0-.746-1.5,4.508,4.508,0,0,1-.681-2.752c.2-2.776.093-8.206-3.551-9.845-3.1-1.393-6.894-.587-9.316.219a7.689,7.689,0,0,1-3.749.274c-2.277,2.31-2.322,6.67-2.146,9.066a4.571,4.571,0,0,1-.7,2.794,8.526,8.526,0,0,0-.745,1.489,10.273,10.273,0,0,0-.581,5.126l.882,6.427a23.611,23.611,0,0,0,9.127,18.777,12.226,12.226,0,0,0,1.05.721,12.14,12.14,0,0,0,1.931-1.224,23.055,23.055,0,0,0,8.913-18.336l.862-6.274A10.04,10.04,0,0,0,254.769,89.662Z" transform="translate(-173.534 -55.102)" fill="#ffc7ab"/>
    <g id="Grupo_75931" data-name="Grupo 75931" transform="translate(47.149 19.704)">
      <path id="Trazado_149573" data-name="Trazado 149573" d="M209.682,119.23a23.055,23.055,0,0,1-8.913-18.336l-.862-6.276a10.03,10.03,0,0,1,.568-5.005,8.322,8.322,0,0,1,.728-1.454,4.466,4.466,0,0,0,.683-2.728c-.184-2.5-.121-7.191,2.584-9.288a7.682,7.682,0,0,1-1.763-.362c-2.422-.805-6.22-1.612-9.316-.219-3.655,1.644-3.753,7.1-3.549,9.869a4.467,4.467,0,0,1-.683,2.728,8.342,8.342,0,0,0-.728,1.454,10.033,10.033,0,0,0-.568,5.005l.862,6.276a23.055,23.055,0,0,0,8.913,18.336,12.238,12.238,0,0,0,13.517.977A12.043,12.043,0,0,1,209.682,119.23Z" transform="translate(-187.767 -74.806)" fill="#ffaa7b"/>
    </g>
    <path id="Trazado_149574" data-name="Trazado 149574" d="M173.5,377.97a1.59,1.59,0,0,1-1.585-1.585v-6.409a1.585,1.585,0,0,1,3.17,0v6.409A1.59,1.59,0,0,1,173.5,377.97Z" transform="translate(-128.942 -271.354)" fill="#ff4155"/>
    <path id="Trazado_149575" data-name="Trazado 149575" d="M169.329,382.141a1.59,1.59,0,0,1-1.585,1.585h-6.41a1.585,1.585,0,0,1,0-3.17h6.41A1.59,1.59,0,0,1,169.329,382.141Z" transform="translate(-119.98 -280.316)" fill="#ff7186"/>
    <path id="Trazado_149576" data-name="Trazado 149576" d="M364.093,386.5a12.729,12.729,0,0,0-2.979-8.447,2.268,2.268,0,0,0-3.983,1.488v27.2a64.47,64.47,0,0,0,6.962-3.781C364.093,398.243,364.093,391.514,364.093,386.5Z" transform="translate(-265.37 -277.89)" fill="#bec8f7"/>
  </g>
</svg>
