<svg xmlns="http://www.w3.org/2000/svg" width="128" height="128" viewBox="0 0 128 128">
  <g id="Grupo_75799" data-name="Grupo 75799" transform="translate(891 9832)">
    <circle id="Elipse_4674" data-name="Elipse 4674" cx="64" cy="64" r="64" transform="translate(-891 -9832)" fill="#fff"/>
    <path id="Trazado_148435" data-name="Trazado 148435" d="M359.088,472.559a7.034,7.034,0,0,1-7.025-7.025,1.405,1.405,0,1,1,2.81,0,4.215,4.215,0,1,0,8.43,0,1.405,1.405,0,0,1,2.81,0A7.033,7.033,0,0,1,359.088,472.559Zm0,0" transform="translate(-1154.24 -10197.611)" fill="#7e5ee3"/>
    <path id="Trazado_148436" data-name="Trazado 148436" d="M71.088,472.559a7.034,7.034,0,0,1-7.025-7.025,1.405,1.405,0,0,1,2.81,0,4.221,4.221,0,0,0,4.215,4.215,1.405,1.405,0,0,1,0,2.81Zm0,0" transform="translate(-916.823 -10197.611)" fill="#7e5ee3"/>
    <path id="Trazado_148437" data-name="Trazado 148437" d="M300.709,8.43A1.4,1.4,0,0,1,299.3,7.025a4.215,4.215,0,1,0-8.43,0,1.405,1.405,0,1,1-2.81,0,7.025,7.025,0,1,1,14.051,0A1.4,1.4,0,0,1,300.709,8.43Zm0,0" transform="translate(-1101.481 -9814.999)" fill="#7e5ee3"/>
    <path id="Trazado_148438" data-name="Trazado 148438" d="M353.468,110.706a1.4,1.4,0,0,1-1.405-1.405v-75.9a1.405,1.405,0,1,1,2.81,0v75.9A1.4,1.4,0,0,1,353.468,110.706Zm0,0" transform="translate(-1154.24 -9841.379)" fill="#7e5ee3"/>
    <path id="Trazado_148439" data-name="Trazado 148439" d="M1.468,8.43A1.4,1.4,0,0,1,.063,7.025,7.034,7.034,0,0,1,7.088,0a1.405,1.405,0,0,1,0,2.81A4.221,4.221,0,0,0,2.873,7.025,1.4,1.4,0,0,1,1.468,8.43Zm0,0" transform="translate(-864.063 -9814.999)" fill="#7e5ee3"/>
    <path id="Trazado_148440" data-name="Trazado 148440" d="M65.468,110.706a1.4,1.4,0,0,1-1.405-1.405v-75.9a1.405,1.405,0,1,1,2.81,0v75.9A1.4,1.4,0,0,1,65.468,110.706Zm0,0" transform="translate(-916.822 -9841.379)" fill="#7e5ee3"/>
    <path id="Trazado_148441" data-name="Trazado 148441" d="M52.05,34.81H1.468a1.405,1.405,0,0,1,0-2.81H52.05a1.405,1.405,0,0,1,0,2.81Zm0,0" transform="translate(-864.063 -9841.379)" fill="#7e5ee3"/>
    <path id="Trazado_148442" data-name="Trazado 148442" d="M84.05,2.81H33.468a1.405,1.405,0,0,1,0-2.81H84.05a1.405,1.405,0,0,1,0,2.81Zm0,0" transform="translate(-890.443 -9814.999)" fill="#7e5ee3"/>
    <path id="Trazado_148443" data-name="Trazado 148443" d="M148.05,498.939H97.468a1.405,1.405,0,1,1,0-2.81H148.05a1.405,1.405,0,1,1,0,2.81Zm0,0" transform="translate(-943.202 -10223.991)" fill="#7e5ee3"/>
    <path id="Trazado_148444" data-name="Trazado 148444" d="M364.708,466.939h-11.24a1.405,1.405,0,0,1,0-2.81h11.24a1.405,1.405,0,1,1,0,2.81Zm0,0" transform="translate(-1154.24 -10197.611)" fill="#7e5ee3"/>
    <path id="Trazado_148445" data-name="Trazado 148445" d="M141.993,143.216H105.467a1.4,1.4,0,0,1-1.405-1.405V137.6a1.4,1.4,0,0,1,1.405-1.405h36.526A1.4,1.4,0,0,1,143.4,137.6v4.215A1.4,1.4,0,0,1,141.993,143.216Zm-35.121-2.81h33.716V139H106.872Zm0,0" transform="translate(-949.797 -9927.271)" fill="#7e5ee3"/>
    <path id="Trazado_148446" data-name="Trazado 148446" d="M118.069,211H105.42a1.405,1.405,0,1,1,0-2.81h12.648a1.405,1.405,0,1,1,0,2.81Zm0,0" transform="translate(-949.758 -9986.625)" fill="#7e5ee3"/>
    <path id="Trazado_148447" data-name="Trazado 148447" d="M254.116,211H241.467a1.405,1.405,0,1,1,0-2.81h12.648a1.405,1.405,0,1,1,0,2.81Zm0,0" transform="translate(-1061.911 -9986.625)" fill="#7e5ee3"/>
    <path id="Trazado_148448" data-name="Trazado 148448" d="M209.541,211a1.405,1.405,0,0,1-.016-2.81h.016a1.405,1.405,0,1,1,0,2.81Zm0,0" transform="translate(-1035.586 -9986.625)" fill="#7e5ee3"/>
    <path id="Trazado_148449" data-name="Trazado 148449" d="M142,258.97H105.468a1.405,1.405,0,1,1,0-2.81H142a1.405,1.405,0,1,1,0,2.81Zm0,0" transform="translate(-949.797 -10026.169)" fill="#7e5ee3"/>
    <path id="Trazado_148450" data-name="Trazado 148450" d="M142,290.955H105.468a1.405,1.405,0,0,1,0-2.81H142a1.405,1.405,0,0,1,0,2.81Zm0,0" transform="translate(-949.797 -10052.536)" fill="#7e5ee3"/>
    <path id="Trazado_148451" data-name="Trazado 148451" d="M178.349,322.955H161.5a1.405,1.405,0,0,1,0-2.81h16.846a1.405,1.405,0,1,1,0,2.81Zm0,0" transform="translate(-995.991 -10078.916)" fill="#7e5ee3"/>
    <path id="Trazado_148452" data-name="Trazado 148452" d="M161.436,401.952a1.4,1.4,0,0,1-1.405-1.405v-7.028a1.405,1.405,0,1,1,2.81,0v7.028A1.4,1.4,0,0,1,161.436,401.952Zm0,0" transform="translate(-995.936 -10138.244)" fill="#7e5ee3"/>
    <path id="Trazado_148453" data-name="Trazado 148453" d="M178.295,434.939H161.437a1.405,1.405,0,1,1,0-2.81h16.858a1.405,1.405,0,1,1,0,2.81Zm0,0" transform="translate(-995.936 -10171.232)" fill="#7e5ee3"/>
    <path id="Trazado_148454" data-name="Trazado 148454" d="M257.421,401.952a1.4,1.4,0,0,1-1.405-1.405v-7.028a1.405,1.405,0,1,1,2.81,0v7.028A1.4,1.4,0,0,1,257.421,401.952Zm0,0" transform="translate(-1075.063 -10138.244)" fill="#7e5ee3"/>
    <path id="Trazado_148455" data-name="Trazado 148455" d="M233.454,396.32a1.406,1.406,0,0,1-.444-2.739l4.21-1.405a1.4,1.4,0,1,1,.889,2.665l-4.209,1.405a1.409,1.409,0,0,1-.446.073Zm0,0" transform="translate(-1055.305 -10138.235)" fill="#7e5ee3"/>
    <path id="Trazado_148456" data-name="Trazado 148456" d="M213.651,383.15a1.408,1.408,0,0,1-.993-.41l-4.218-4.212a1.406,1.406,0,0,1,1.987-1.99l4.218,4.212a1.405,1.405,0,0,1-.993,2.4Zm0,0" transform="translate(-1035.502 -10125.066)" fill="#7e5ee3"/>
    <path id="Trazado_148457" data-name="Trazado 148457" d="M165.664,396.32a1.394,1.394,0,0,1-.444-.073l-4.21-1.405a1.4,1.4,0,1,1,.89-2.665l4.209,1.405a1.406,1.406,0,0,1-.445,2.739Zm0,0" transform="translate(-995.951 -10138.235)" fill="#7e5ee3"/>
    <path id="Trazado_148458" data-name="Trazado 148458" d="M185.418,383.15a1.405,1.405,0,0,1-.993-2.4l4.218-4.212a1.406,1.406,0,0,1,1.987,1.99l-4.218,4.212A1.406,1.406,0,0,1,185.418,383.15Zm0,0" transform="translate(-1015.705 -10125.066)" fill="#7e5ee3"/>
  </g>
</svg>
